<?xml version="1.0" encoding="UTF-8"?><svg id="a" xmlns="http://www.w3.org/2000/svg" viewBox="0 0 3612.93 547.64"><defs><style>.b{fill:#0f091c;}.c{fill:#fff;}.d{fill:#cc0423;}.e{fill:#800256;}.f{opacity:0;}</style></defs><g><path class="c" d="M235.83,209.02c-1.44,1.42-2.96,2.81-4.56,4.17-4.88,4.14-10.29,7.77-16.22,10.86-5.94,3.08-12.36,5.53-19.27,7.31-6.91,1.79-14.11,2.69-21.59,2.69-12.35,0-23.66-2.12-33.9-6.34-10.24-4.23-19.06-10.12-26.47-17.68-7.4-7.56-13.12-16.5-17.19-26.83-4.07-10.32-6.1-21.66-6.1-34.02s2.03-23.29,6.1-33.79c4.07-10.48,9.79-19.58,17.19-27.31,7.4-7.72,16.26-13.81,26.59-18.29,10.32-4.47,21.74-6.7,34.27-6.7,15.12,0,28.33,2.77,39.63,8.29,7.9,3.87,14.87,8.93,20.9,15.18,4.35,4.51,4.14,11.73-.38,16.07l-8.77,8.43c-4.45,4.28-11.5,4.24-15.9-.1-3.11-3.07-6.48-5.73-10.12-8-6.66-4.14-14.63-6.21-23.9-6.21-7.32,0-13.9,1.33-19.76,4.02-5.85,2.68-10.82,6.37-14.88,11.09-4.06,4.72-7.18,10.2-9.38,16.46-2.19,6.26-3.3,12.88-3.3,19.88s1.11,13.82,3.3,20c2.2,6.18,5.32,11.54,9.38,16.09,4.06,4.56,8.95,8.13,14.63,10.73,5.7,2.6,12.11,3.91,19.26,3.91,5.85,0,10.94-.61,15.25-1.83,4.3-1.23,8.13-2.85,11.46-4.89,3.34-2.03,6.31-4.39,8.91-7.07l.03-.04c4.29-4.44,11.33-4.66,15.89-.5l8.58,7.83c4.84,4.42,4.96,11.98,.29,16.58Z"/><path class="c" d="M373.21,203.56c-3.26,6.18-7.69,11.55-13.29,16.09-5.61,4.56-12.2,8.09-19.76,10.61-7.56,2.51-15.73,3.78-24.51,3.78-8.14,0-15.54-.77-22.2-2.32-6.66-1.55-12.68-3.57-18.05-6.1-5.36-2.52-10.21-5.4-14.51-8.65-1.62-1.22-3.15-2.46-4.6-3.71-3.75-3.22-4.08-8.9-.73-12.54l11.89-12.88c3.17-3.43,8.49-3.78,12.03-.74,.46,.4,.93,.79,1.41,1.19,2.84,2.36,6.01,4.51,9.51,6.46,3.49,1.95,7.32,3.54,11.46,4.76,4.14,1.22,8.58,1.83,13.3,1.83,2.76,0,5.52-.41,8.29-1.22,2.77-.81,5.28-1.99,7.56-3.54,2.27-1.54,4.1-3.41,5.48-5.61,1.37-2.19,2.07-4.67,2.07-7.44,0-6.02-2.92-10.69-8.78-14.03-5.85-3.33-15.12-6.62-27.8-9.87-6.18-1.46-11.91-3.58-17.2-6.34-5.28-2.76-9.84-6.1-13.65-10-3.82-3.91-6.79-8.37-8.9-13.41-2.12-5.04-3.17-10.65-3.17-16.83,0-6.83,1.22-13.25,3.66-19.26,2.44-6.02,6.14-11.35,11.11-15.98,4.95-4.63,11.13-8.29,18.53-10.97,7.4-2.69,16.13-4.02,26.22-4.02,8.29,0,15.6,.85,21.94,2.55,6.34,1.71,11.74,3.74,16.22,6.1,4.47,2.36,8.12,4.8,10.97,7.32h.01c3.62,3.22,3.92,8.77,.67,12.36l-10.03,11.07c-3,3.31-8.01,3.83-11.62,1.21-2.36-1.71-5-3.29-7.93-4.76-2.92-1.46-6.13-2.68-9.64-3.66-3.49-.98-7.18-1.46-11.09-1.46-2.6,0-5.16,.41-7.68,1.22-2.53,.81-4.8,1.92-6.83,3.29-2.04,1.38-3.66,3.01-4.87,4.88-1.23,1.88-1.84,3.87-1.84,5.98,0,5.54,2.93,10,8.78,13.41,5.85,3.41,13.9,6.26,24.14,8.54,6.02,1.46,11.91,3.45,17.69,5.97,5.76,2.52,10.93,5.82,15.48,9.88,4.55,4.06,8.2,9.06,10.97,14.99,2.76,5.94,4.15,13.13,4.15,21.59,0,7.32-1.63,14.07-4.88,20.24Z"/></g><rect class="d" x="1570.17" y="379.18" width="54.34" height="24.27" rx=".09" ry=".09" transform="translate(-41.04 533.9) rotate(-18.74)"/><rect class="d" x="1594.86" y="451.93" width="54.35" height="24.27" rx=".09" ry=".09" transform="translate(-63.09 545.93) rotate(-18.75)"/><g><path class="b" d="M55.64,325.76h25.41c5.52,0,10,4.48,10,10v97.99c0,5.5,.23,14.49,.52,19.99,0,0,.13,2.53,1.43,7.79,1.29,5.28,3.44,9.81,6.43,13.59,2.98,3.78,6.91,6.72,11.8,8.81,4.88,2.09,10.9,3.14,18.07,3.14s12.89-1.05,17.77-3.14c4.88-2.09,8.81-5.03,11.8-8.81,2.98-3.78,5.12-8.31,6.42-13.59,1.3-5.27,1.43-7.79,1.43-7.79,.28-5.49,.52-14.49,.52-19.99v-97.99c0-5.52,4.48-10,10-10h25.7c5.52,0,10,4.48,10,10v103.67c0,5.5-.38,14.48-.84,19.96,0,0-1.1,12.94-4.98,22.9-3.89,9.96-9.46,18.47-16.73,25.54-7.27,7.07-16.09,12.6-26.44,16.57-10.36,3.99-21.91,5.98-34.65,5.98s-24.3-1.95-34.65-5.83c-10.36-3.88-19.17-9.41-26.44-16.58-7.27-7.17-12.84-15.73-16.73-25.69-3.89-9.96-4.99-22.9-4.99-22.9-.46-5.48-.84-14.46-.84-19.96v-103.67c0-5.52,4.48-10,10-10Z"/><path class="b" d="M260.27,325.76h27.59c2.99,0,6.76,2.05,8.38,4.55l74.18,114.14c5.06,7.78,9.19,6.55,9.19-2.72v-105.97c0-5.5,4.5-10,10-10h24.51c5.5,0,10,4.5,10,10v184.63c0,5.5-4.5,10-10,10h-25.51c-2.98,0-6.74-2.04-8.37-4.53l-76.28-116.72c-5.05-7.73-9.19-6.5-9.19,2.74v108.51c0,5.5-4.5,10-10,10h-24.5c-5.5,0-10-4.5-10-10v-184.63c0-5.5,4.5-10,10-10Z"/><path class="b" d="M462.96,335.76c0-5.52,4.48-10,10-10h62.59c12.35,0,22.89,1.84,31.66,5.53,8.76,3.68,15.98,8.54,21.66,14.57,5.68,6.04,9.86,13.04,12.55,21.02,2.69,7.97,4.03,16.26,4.03,24.85,0,11.04-1.84,20.7-5.52,28.99-3.69,8.29-8.67,15.19-14.94,20.71-6.28,5.51-13.5,9.71-21.66,12.57-8.17,2.87-16.73,4.3-25.69,4.3h-20.77c-5.52,0-10,4.48-10,10v52.1c0,5.52-4.48,10-10,10h-23.91c-5.52,0-10-4.48-10-10v-184.63Zm70.2,85.11c8.36,0,14.98-2.6,19.86-7.82,4.88-5.21,7.32-12.01,7.32-20.4s-2.49-15.6-7.47-21.01c-4.98-5.42-11.65-8.13-20.01-8.13h-15.99c-5.52,0-10,4.48-10,10v37.37c0,5.52,4.48,10,10,10h16.29Z"/><path class="b" d="M645.61,325.76h25.1c5.52,0,10,4.48,10,10v143.05c0,5.52,4.48,10,10,10h75.29c5.52,0,10,4.48,10,10v20.99c0,5.52-4.48,10-10,10h-120.4c-5.52,0-10-4.48-10-10v-184.03c0-5.52,4.48-10,10-10Z"/><path class="b" d="M808.11,325.76h25.41c5.52,0,10,4.48,10,10v107.64c0,6.56,.65,12.48,1.94,17.73,1.29,5.27,3.44,9.78,6.43,13.55,2.99,3.77,6.92,6.7,11.8,8.78,4.88,2.08,10.9,3.13,18.07,3.13s12.89-1.05,17.77-3.13c4.88-2.08,8.81-5.01,11.8-8.78,2.98-3.77,5.12-8.29,6.42-13.55,1.29-5.25,1.94-11.16,1.94-17.73v-107.64c0-5.52,4.48-10,10-10h25.7c5.52,0,10,4.48,10,10v113.3c0,11.92-1.94,22.84-5.82,32.77-3.88,9.93-9.46,18.42-16.73,25.47-7.27,7.05-16.08,12.56-26.44,16.52-10.36,3.98-21.91,5.97-34.65,5.97s-24.3-1.94-34.65-5.81c-10.36-3.87-19.17-9.38-26.44-16.53-7.27-7.15-12.84-15.68-16.73-25.61-3.89-9.93-5.83-20.85-5.83-32.77v-113.3c0-5.52,4.48-10,10-10Z"/><path class="b" d="M1115.8,418.16h56.77c5.52,0,10,4.48,10,10v69.44c0,3.07-1.39,6-3.83,7.87-9.48,7.27-20.3,13-32.47,17.18-13.84,4.75-29.62,7.14-47.34,7.14-16.33,0-30.92-2.47-43.76-7.43-12.85-4.96-23.76-11.9-32.71-20.84-8.96-8.93-15.79-19.63-20.46-32.06-4.69-12.44-7.02-26.14-7.02-41.1s2.48-28.08,7.46-40.51c4.98-12.44,12.05-23.27,21.21-32.5,9.16-9.23,20.02-16.46,32.56-21.72,12.55-5.24,26.49-7.87,41.83-7.87,18.12,0,34,3.26,47.64,9.76,10.44,4.98,19.51,11.48,27.21,19.48,3.9,4.05,3.77,10.5-.36,14.32l-16.18,15.01c-3.91,3.62-9.92,3.5-13.78-.17-4.55-4.33-9.39-8.06-14.52-11.18-7.67-4.66-17.07-7-28.23-7-9.16,0-17.32,1.66-24.49,4.96-7.17,3.3-13.25,7.77-18.22,13.4-4.98,5.64-8.77,12.24-11.35,19.82-2.59,7.58-3.88,15.64-3.88,24.19,0,9.33,1.49,17.78,4.48,25.36,2.99,7.58,7.17,14.03,12.55,19.38,5.37,5.35,11.69,9.47,18.97,12.38,7.26,2.91,15.18,4.38,23.74,4.38,7.97,0,15.23-.92,21.81-2.78,4.69-1.31,9.02-3.2,13-5.66,2.91-1.79,4.62-5.02,4.62-8.44v-14.27c0-2.76-2.24-5-5-5h-20.25c-5.52,0-10-4.48-10-10v-15.56c0-5.52,4.48-10,10-10Z"/><path class="b" d="M1331.78,418.16h56.77c5.52,0,10,4.48,10,10v69.44c0,3.07-1.39,6-3.83,7.87-9.48,7.27-20.3,13-32.47,17.18-13.84,4.75-29.63,7.14-47.35,7.14-16.33,0-30.92-2.47-43.76-7.43-12.84-4.96-23.75-11.9-32.71-20.84-8.96-8.93-15.78-19.63-20.45-32.06-4.69-12.44-7.03-26.14-7.03-41.1s2.49-28.08,7.47-40.51c4.98-12.44,12.05-23.27,21.21-32.5,9.16-9.23,20.01-16.46,32.56-21.72,12.54-5.24,26.49-7.87,41.83-7.87,18.11,0,34,3.26,47.64,9.76,10.43,4.98,19.51,11.48,27.21,19.48,3.9,4.05,3.77,10.5-.36,14.32l-16.18,15.01c-3.91,3.62-9.93,3.5-13.78-.17-4.55-4.33-9.39-8.06-14.52-11.18-7.66-4.66-17.08-7-28.23-7-9.16,0-17.32,1.66-24.49,4.96-7.18,3.3-13.25,7.77-18.23,13.4-4.98,5.64-8.77,12.24-11.35,19.82-2.58,7.58-3.88,15.64-3.88,24.19,0,9.33,1.49,17.78,4.49,25.36,2.99,7.58,7.17,14.03,12.54,19.38,5.37,5.35,11.7,9.47,18.97,12.38,7.27,2.91,15.19,4.38,23.75,4.38,7.96,0,15.23-.92,21.81-2.78,4.68-1.31,9.02-3.2,13-5.66,2.91-1.79,4.62-5.02,4.62-8.44v-14.27c0-2.76-2.24-5-5-5h-20.25c-5.52,0-10-4.48-10-10v-15.56c0-5.52,4.48-10,10-10Z"/><path class="b" d="M1444.69,325.76h116.21c5.52,0,10,4.48,10,10v20.39c0,5.52-4.48,10-10,10h-71.11c-5.52,0-10,4.48-10,10v19.76c0,5.52,4.48,10,10,10h50.8c5.52,0,10,4.48,10,10v19.16c0,5.52-4.48,10-10,10h-50.8c-5.52,0-10,4.48-10,10v24.04c0,5.52,4.48,10,10,10h77.68c5.52,0,10,4.48,10,10v20.69c0,5.52-4.48,10-10,10h-122.79c-5.52,0-10-4.48-10-10v-184.03c0-5.52,4.48-10,10-10Z"/><path class="b" d="M1607.08,335.44c-1.77-5.23,1.03-10.91,6.26-12.68l61.82-20.98c14.52-4.93,28.59-7.59,42.22-8.02,13.64-.42,26.25,1.71,37.83,6.41,11.58,4.69,21.92,12.23,31.01,22.6,9.09,10.38,16.42,23.76,21.98,40.17,5.31,15.66,7.39,30.14,6.24,43.46-1.16,13.33-4.89,25.43-11.2,36.29-6.3,10.87-14.97,20.33-26.01,28.38-11.04,8.06-23.82,14.55-38.35,19.49l-61.53,20.88c-5.23,1.77-10.91-1.03-12.68-6.26l-57.6-169.75Zm116.69,117.98c18.85-6.4,31.7-16.28,38.53-29.63,6.82-13.35,7.28-28.71,1.4-46.07-2.95-8.67-6.8-16.14-11.55-22.41-4.76-6.27-10.39-11.09-16.89-14.45-6.5-3.36-13.9-5.17-22.18-5.41-8.29-.23-17.52,1.37-27.7,4.83l-16.56,5.62c-5.23,1.77-8.03,7.45-6.26,12.68l31.97,94.22c1.77,5.23,7.45,8.03,12.68,6.26l16.56-5.62Z"/></g><g><path class="e" d="M2048.47,278.42c-27.96-82.36-83.7-151.64-156.96-195.08-7.13-4.23-16.33-1.88-20.55,5.25-4.23,7.12-1.88,16.33,5.25,20.55,67.1,39.79,118.19,103.34,143.85,178.92s23.82,157.09-5.18,229.52c-3.08,7.69,.66,16.42,8.35,19.5,1.83,.73,3.71,1.08,5.57,1.08,5.95,0,11.58-3.57,13.93-9.43,31.66-79.06,33.7-167.96,5.74-250.31Z"/><g class="f"><path class="c" d="M1883.87,81.24c2.6,0,5.24,.68,7.64,2.1,73.25,43.44,128.99,112.72,156.96,195.08,27.96,82.36,25.92,171.25-5.74,250.31-2.35,5.86-7.98,9.43-13.93,9.43-1.86,0-3.74-.35-5.57-1.08-7.69-3.08-11.43-11.81-8.35-19.5,29-72.42,30.84-153.93,5.18-229.52-25.66-75.58-76.75-139.13-143.85-178.92-7.13-4.23-9.48-13.43-5.25-20.55,2.8-4.73,7.79-7.35,12.92-7.35m0-16c-10.9,0-21.12,5.82-26.68,15.19-4.22,7.12-5.42,15.46-3.37,23.49,2.05,8.02,7.1,14.77,14.22,18.99,63.82,37.85,112.43,98.33,136.86,170.3,24.44,71.97,22.7,149.54-4.88,218.42-3.08,7.69-2.98,16.11,.28,23.72,3.26,7.61,9.29,13.5,16.97,16.58,3.68,1.48,7.56,2.23,11.52,2.23,12.75,0,24.04-7.65,28.78-19.48,33.08-82.6,35.22-175.44,6.04-261.41-29.19-85.97-87.41-158.31-163.94-203.7-4.79-2.84-10.25-4.34-15.8-4.34h0Z"/></g></g><g><path class="e" d="M1991.65,297.71c-23.36-68.81-69.8-126.61-130.75-162.76-7.12-4.22-16.33-1.88-20.55,5.25-4.23,7.13-1.88,16.33,5.25,20.55,54.8,32.5,96.58,84.56,117.64,146.6,21.06,62.04,19.62,128.78-4.06,187.92-3.08,7.69,.66,16.42,8.35,19.5,1.83,.73,3.71,1.08,5.57,1.08,5.95,0,11.58-3.57,13.93-9.43,26.34-65.78,27.98-139.91,4.62-208.72Z"/><g class="f"><path class="c" d="M1853.27,132.85c2.6,0,5.24,.68,7.64,2.1,60.95,36.15,107.38,93.95,130.75,162.76,23.36,68.81,21.72,142.94-4.62,208.72-2.35,5.86-7.98,9.43-13.93,9.43-1.86,0-3.74-.35-5.57-1.08-7.69-3.08-11.43-11.81-8.35-19.5,23.68-59.14,25.13-125.88,4.06-187.92-21.06-62.04-62.84-114.1-117.64-146.6-7.13-4.23-9.48-13.43-5.25-20.55,2.8-4.73,7.79-7.35,12.92-7.35m0-16c-10.9,0-21.12,5.82-26.68,15.19-8.72,14.7-3.85,33.76,10.85,42.48,51.52,30.55,90.82,79.56,110.65,137.98,19.84,58.43,18.5,121.23-3.77,176.83-3.08,7.69-2.98,16.11,.28,23.72,3.26,7.61,9.29,13.5,16.97,16.58,3.69,1.48,7.56,2.23,11.52,2.23,12.75,0,24.05-7.65,28.78-19.48,27.76-69.32,29.51-147.39,4.92-219.81-24.59-72.42-73.5-133.29-137.73-171.38-4.79-2.84-10.25-4.34-15.8-4.34h0Z"/></g></g><g><path class="e" d="M1934.84,317c-18.76-55.27-55.89-101.59-104.54-130.44-7.13-4.22-16.33-1.88-20.55,5.25-4.23,7.13-1.88,16.33,5.25,20.55,42.5,25.2,74.97,65.79,91.43,114.28,16.46,48.49,15.42,100.46-2.95,146.33-3.08,7.69,.66,16.42,8.35,19.5,1.83,.73,3.71,1.08,5.57,1.08,5.95,0,11.58-3.57,13.93-9.43,21.02-52.51,22.27-111.86,3.51-167.12Z"/><g class="f"><path class="c" d="M1822.66,184.45c2.6,0,5.24,.68,7.64,2.1,48.65,28.85,85.77,75.18,104.54,130.44,18.76,55.27,17.52,114.62-3.51,167.12-2.35,5.86-7.98,9.43-13.93,9.43-1.86,0-3.74-.35-5.57-1.08-7.69-3.08-11.43-11.81-8.35-19.5,18.37-45.87,19.41-97.83,2.95-146.33-16.46-48.5-48.94-89.08-91.43-114.28-7.13-4.23-9.48-13.43-5.25-20.55,2.8-4.73,7.79-7.35,12.92-7.35m0-16c-10.9,0-21.12,5.82-26.68,15.19-8.72,14.7-3.85,33.76,10.85,42.48,39.22,23.26,69.21,60.78,84.44,105.67,15.24,44.88,14.3,92.91-2.65,135.24-3.08,7.69-2.98,16.11,.28,23.72,3.26,7.61,9.29,13.5,16.97,16.58,3.69,1.48,7.56,2.23,11.52,2.23,12.75,0,24.04-7.65,28.78-19.48,22.44-56.05,23.79-119.34,3.8-178.22-19.99-58.88-59.6-108.27-111.53-139.06-4.79-2.84-10.25-4.34-15.8-4.34h0Z"/></g></g><g><path class="d" d="M1815.66,165.17c2.22-.46,4.49-.7,6.79-.71-5.62-10.46-5.8-23.53,.69-34.46,1.69-2.86,3.78-5.41,6.16-7.63-11.54-11.71-25.13-21.77-40.75-30.11-114.91-61.32-309.29-12.31-387.55,11.6-53.22,16.27-106.38,38.73-162.65,62.51-134.97,57.02-274.5,115.97-410.37,81.86-7.2-1.81-14.13-3.96-20.76-6.43,.29-.22,.58-.45,.87-.68,25.39-19.96,40.3-51.4,38.89-82.03-1.54-33.6-22.74-64.24-52.75-76.24-32.3-12.89-71.27-1.82-90.64,25.77-22.6,32.24-13.73,75.55,5.09,104.17,5.1,7.76,11.05,15.08,17.75,21.89,.05,.05,.02,.13-.04,.14-86.63,20.86-188.34,23.04-303.52,6.59V37.25c0-11.05-8.95-20-20-20H65.64c-11.05,0-20,8.95-20,20v221.6c0,11.05,8.95,20,20,20H417.4c123.31,17.61,232.35,14.63,325.28-9.04,6.98-1.78,14.3-3.8,21.69-6.27,.02,0,.05,0,.07,0,16.22,9.19,34.49,16.44,54.32,21.42,148.17,37.21,293.64-24.26,434.32-83.72,55.35-23.38,107.64-45.47,158.99-61.18,57.52-17.59,253.35-70.61,358.65-14.4,19.09,10.19,33.97,23.25,44.93,39.51Zm-1030.96,46.18c-4.91,3.86-10.35,7.08-16.1,9.84-.03,.01-.06,.01-.09,0-11.46-8.45-20.99-18.27-28.17-29.19-11.41-17.35-18.07-44.03-5.73-61.63,6.64-9.46,19.07-14.98,31.44-14.98,4.84,0,9.67,.84,14.14,2.63,16.2,6.47,28.12,24.08,28.98,42.81,.85,18.63-8.52,37.99-24.47,50.53Z"/><path class="d" d="M1809.06,312.08c-8.08,9.83-17.74,18.17-28.75,24.35-.04,.02-.06,.07-.03,.12l18.41,32.88s.08,.06,.12,.03c10.97-6.15,20.94-13.88,29.79-22.82-4.9-12.62-11.51-24.26-19.54-34.56Z"/></g><g><path class="e" d="M1878.02,336.29c-14.17-41.72-41.98-76.57-78.33-98.13-7.13-4.22-16.33-1.88-20.55,5.25-4.23,7.13-1.88,16.33,5.25,20.55,30.19,17.9,53.36,47.01,65.22,81.97s11.21,72.15-1.83,104.73c-3.08,7.69,.66,16.42,8.35,19.5,1.83,.73,3.71,1.08,5.57,1.08,5.95,0,11.58-3.57,13.93-9.43,15.71-39.23,16.56-83.81,2.39-125.53Z"/><g class="f"><path class="c" d="M1792.06,236.06c2.6,0,5.24,.68,7.64,2.1,36.34,21.55,64.16,56.4,78.33,98.13,14.17,41.72,13.32,86.3-2.39,125.53-2.35,5.86-7.98,9.43-13.93,9.43-1.86,0-3.74-.35-5.57-1.08-7.69-3.08-11.43-11.81-8.35-19.5,13.05-32.59,13.7-69.78,1.83-104.73-11.87-34.95-35.03-64.06-65.22-81.97-7.13-4.23-9.48-13.43-5.25-20.55,2.8-4.73,7.79-7.35,12.92-7.35m0-16c-10.9,0-21.12,5.82-26.68,15.19-8.72,14.7-3.85,33.76,10.85,42.48,26.91,15.96,47.59,42.01,58.23,73.35,10.64,31.34,10.09,64.59-1.54,93.64-3.08,7.69-2.98,16.11,.28,23.72,3.26,7.61,9.29,13.5,16.97,16.58,3.69,1.48,7.56,2.23,11.52,2.23,12.75,0,24.05-7.65,28.78-19.48,17.13-42.77,18.08-91.28,2.69-136.62-15.39-45.34-45.69-83.24-85.32-106.74-4.79-2.84-10.25-4.34-15.8-4.34h0Z"/></g></g><g><path class="e" d="M2267.15,240.97c8.8,0,13.2,7.5,13.2,22.5v5.1l-.6,21c-.2,6.6-.3,13.1-.3,19.5l4.5,67.8c0,5-5.1,7.5-15.3,7.5h-4.35c-2.3,0-3.9-.9-4.8-2.7s-1-4-.3-6.6c.7-2.6,.45-5.5-.75-8.7-9.2,9.8-21.4,14.7-36.6,14.7-28.2,0-42.3-21.8-42.3-65.4,0-24.2,4.55-42.5,13.65-54.9,9.1-12.4,22.15-18.6,39.15-18.6,8,0,16,1.4,24,4.2,2.6-3.6,6.2-5.4,10.8-5.4Zm-31.2,27.3c-11.4,0-19.9,3.3-25.5,9.9-5.6,6.6-8.4,18.7-8.4,36.3,0,29.6,8,44.4,24,44.4,4.2,0,8.85-1.9,13.95-5.7,5.1-3.8,8.65-8.1,10.65-12.9,3.8-10.8,5.7-22.6,5.7-35.4s-1.55-22.1-4.65-27.9c-3.1-5.8-8.35-8.7-15.75-8.7Z"/><path class="e" d="M2308.55,240.97l15,.3c3.4,0,5.3-.1,5.7-.3v-61.5c.2-3.4,1.9-6.3,5.1-8.7,3.2-2.4,6.2-3.6,9-3.6s5.05,.9,6.75,2.7c1.7,1.8,2.45,4.6,2.25,8.4-.2,3.8-.3,24.6-.3,62.4l35.1-1.2c6,0,9,3.5,9,10.5,0,5.2-1.55,9.1-4.65,11.7-3.1,2.6-6.4,4-9.9,4.2-3.5,.2-6.95,.3-10.35,.3l-18.3-.3c0,8.2,.85,24.4,2.55,48.6,1.7,24.2,3.05,39.85,4.05,46.95,1,7.1,1.2,11.7,.6,13.8-.6,2.1-1.7,3.55-3.3,4.35-2.6,1.2-6.1,1.8-10.5,1.8s-7-2.4-7.8-7.2c-4-26.2-6.7-62.2-8.1-108-1.8,.2-8.7,.3-20.7,.3s-18-3.5-18-10.5c0-10,5.6-15,16.8-15Z"/><path class="e" d="M2556.94,240.97c8.8,0,13.2,7.5,13.2,22.5v5.1l-.6,21c-.2,6.6-.3,13.1-.3,19.5l4.5,67.8c0,5-5.1,7.5-15.3,7.5h-4.35c-2.3,0-3.9-.9-4.8-2.7s-1-4-.3-6.6c.7-2.6,.45-5.5-.75-8.7-9.2,9.8-21.4,14.7-36.6,14.7-28.2,0-42.3-21.8-42.3-65.4,0-24.2,4.55-42.5,13.65-54.9,9.1-12.4,22.15-18.6,39.15-18.6,8,0,16,1.4,24,4.2,2.6-3.6,6.2-5.4,10.8-5.4Zm-31.2,27.3c-11.4,0-19.9,3.3-25.5,9.9-5.6,6.6-8.4,18.7-8.4,36.3,0,29.6,8,44.4,24,44.4,4.2,0,8.85-1.9,13.95-5.7,5.1-3.8,8.65-8.1,10.65-12.9,3.8-10.8,5.7-22.6,5.7-35.4s-1.55-22.1-4.65-27.9c-3.1-5.8-8.35-8.7-15.75-8.7Z"/><path class="e" d="M2731.54,240.67l-.3-57.9c0-10.8,3.45-16.2,10.35-16.2s10.75,3,11.55,9c.4,2.6,.9,18.3,1.5,47.1,.6,28.8,1.55,55.8,2.85,81,1.3,25.2,1.95,48.7,1.95,70.5,0,6-4.5,9-13.5,9-6,0-9-4.2-9-12.6-8.6,6.8-18.8,10.2-30.6,10.2-15,0-27.15-5.6-36.45-16.8-9.3-11.2-13.95-25-13.95-41.4s3.35-31.75,10.05-46.05c6.7-14.3,17.15-24.55,31.35-30.75,8.8-3.8,17.3-5.7,25.5-5.7,3,0,5.9,.2,8.7,.6Zm1.65,40.95c-1.5-4.3-3.25-7.6-5.25-9.9-2-2.3-4.15-3.7-6.45-4.2-2.3-.5-5.05-.75-8.25-.75s-7.1,1.2-11.7,3.6c-4.6,2.4-8.5,6.3-11.7,11.7-6.4,10.8-9.6,22.15-9.6,34.05s2.35,21.6,7.05,29.1c4.7,7.5,11.4,11.25,20.1,11.25s15.55-4.3,20.55-12.9c5-8.6,7.5-19.6,7.5-33,0-15-.75-24.65-2.25-28.95Z"/><path class="e" d="M2796.64,191.47c3.6,0,7,1.7,10.2,5.1,3.2,3.4,4.8,6.95,4.8,10.65s-1.75,7.45-5.25,11.25c-3.5,3.8-7.15,5.7-10.95,5.7s-7.25-1.6-10.35-4.8c-3.1-3.2-4.65-7.3-4.65-12.3,0-9.6,5.2-14.8,15.6-15.6h.6Zm12.6,157.2l.3,21c0,3.8-1.5,6.95-4.5,9.45-3,2.5-6.2,3.75-9.6,3.75-5,0-7.6-2.5-7.8-7.5-2.6-63.8-3.9-99.1-3.9-105.9s.3-15.1,.9-24.9c.4-3.6,2.7-5.4,6.9-5.4,10.6,0,16.6,4.3,18,12.9,.6,4.4,.9,7.9,.9,10.5l-1.2,18.9v67.2Z"/><path class="e" d="M2861.74,250.87c8.4-7,18.15-10.5,29.25-10.5s21.75,2,31.95,6c10.2,4,15.3,9.3,15.3,15.9,0,3.4-1.3,6.1-3.9,8.1-2.6,2-4.85,3-6.75,3s-3.4-.05-4.5-.15c-1.1-.1-5.1-1.95-12-5.55s-13.25-5.4-19.05-5.4-10.75,1.45-14.85,4.35c-4.1,2.9-6.15,7.15-6.15,12.75s2.35,10,7.05,13.2c4.7,3.2,12.95,5.95,24.75,8.25,11.8,2.3,20.85,5.55,27.15,9.75,6.3,4.2,9.45,12,9.45,23.4,0,16.6-4.35,28.35-13.05,35.25-8.7,6.9-19.25,10.35-31.65,10.35s-22.95-1.7-31.65-5.1c-8.7-3.4-13.05-8.5-13.05-15.3,0-7.8,3.9-11.7,11.7-11.7,2,0,6.4,1.4,13.2,4.2,6.8,2.8,13.55,4.2,20.25,4.2s11.8-2.15,15.3-6.45c3.5-4.3,5.25-9.25,5.25-14.85s-2.3-9.65-6.9-12.15c-4.6-2.5-11.6-4.55-21-6.15-9.4-1.6-16.3-3.3-20.7-5.1-12-4.8-18-15.5-18-32.1,0-11.8,4.2-21.2,12.6-28.2Z"/><path class="e" d="M2967.04,240.97l15,.3c3.4,0,5.3-.1,5.7-.3v-61.5c.2-3.4,1.9-6.3,5.1-8.7,3.2-2.4,6.2-3.6,9-3.6s5.05,.9,6.75,2.7c1.7,1.8,2.45,4.6,2.25,8.4-.2,3.8-.3,24.6-.3,62.4l35.1-1.2c6,0,9,3.5,9,10.5,0,5.2-1.55,9.1-4.65,11.7-3.1,2.6-6.4,4-9.9,4.2-3.5,.2-6.95,.3-10.35,.3l-18.3-.3c0,8.2,.85,24.4,2.55,48.6,1.7,24.2,3.05,39.85,4.05,46.95,1,7.1,1.2,11.7,.6,13.8-.6,2.1-1.7,3.55-3.3,4.35-2.6,1.2-6.1,1.8-10.5,1.8s-7-2.4-7.8-7.2c-4-26.2-6.7-62.2-8.1-108-1.8,.2-8.7,.3-20.7,.3s-18-3.5-18-10.5c0-10,5.6-15,16.8-15Z"/><path class="e" d="M3146.44,240.97c8.8,0,13.2,7.5,13.2,22.5v5.1l-.6,21c-.2,6.6-.3,13.1-.3,19.5l4.5,67.8c0,5-5.1,7.5-15.3,7.5h-4.35c-2.3,0-3.9-.9-4.8-2.7-.9-1.8-1-4-.3-6.6,.7-2.6,.45-5.5-.75-8.7-9.2,9.8-21.4,14.7-36.6,14.7-28.2,0-42.3-21.8-42.3-65.4,0-24.2,4.55-42.5,13.65-54.9,9.1-12.4,22.15-18.6,39.15-18.6,8,0,16,1.4,24,4.2,2.6-3.6,6.2-5.4,10.8-5.4Zm-31.2,27.3c-11.4,0-19.9,3.3-25.5,9.9-5.6,6.6-8.4,18.7-8.4,36.3,0,29.6,8,44.4,24,44.4,4.2,0,8.85-1.9,13.95-5.7,5.1-3.8,8.65-8.1,10.65-12.9,3.8-10.8,5.7-22.6,5.7-35.4s-1.55-22.1-4.65-27.9c-3.1-5.8-8.35-8.7-15.75-8.7Z"/><path class="e" d="M3191.74,371.77l-3.3-121.8c0-3.8,1.3-6.9,3.9-9.3,2.6-2.4,5.2-3.6,7.8-3.6,6.4,0,10.1,2.7,11.1,8.1,.8,5.4,1.2,11,1.2,16.8,10.8-14.2,24.3-21.3,40.5-21.3,24.8,0,37.2,28.3,37.2,84.9v23.55c0,10.5-.6,18.15-1.8,22.95-1.4,6-5.7,9-12.9,9-4.8,0-7.2-3.2-7.2-9.6l.3-16.8c0-23.2-.75-39.05-2.25-47.55-1.5-8.5-2.95-15.25-4.35-20.25-3.4-10.8-8.9-16.2-16.5-16.2-10,0-17,3.6-21,10.8-4.4,7.8-7,17-7.8,27.6-1.4,18.6-2.1,38.3-2.1,59.1,0,4-1.5,7.2-4.5,9.6s-6.6,3.6-10.8,3.6c-5,0-7.5-3.2-7.5-9.6Z"/><path class="e" d="M3322.39,274.27c7.1-11,16.15-19.25,27.15-24.75,11-5.5,21.7-8.25,32.1-8.25s18.75,1.25,25.05,3.75c6.3,2.5,9.45,5.8,9.45,9.9s-1.15,8.2-3.45,12.3c-2.3,4.1-5.35,6.15-9.15,6.15-1.4,0-5.25-1.15-11.55-3.45-6.3-2.3-10.35-3.45-12.15-3.45-11.6,0-21.5,4.25-29.7,12.75-8.2,8.5-12.3,19.75-12.3,33.75s2.25,24.45,6.75,31.35,12.25,10.35,23.25,10.35c4.4,0,11.95-2.55,22.65-7.65,10.7-5.1,17.35-7.65,19.95-7.65s4.7,.8,6.3,2.4c1.6,1.6,2.4,3.6,2.4,6,0,4.8-3.05,9.85-9.15,15.15-6.1,5.3-13.65,9.7-22.65,13.2-9,3.5-17.1,5.25-24.3,5.25-16,0-28.55-6.3-37.65-18.9-9.1-12.6-13.65-29.8-13.65-51.6,0-13.4,3.55-25.6,10.65-36.6Z"/><path class="e" d="M3475.53,242.17c10.6,0,20.7,3.1,30.3,9.3,9.6,6.2,14.4,13.85,14.4,22.95s-3.9,17.9-11.7,26.4c-7.8,8.5-18.2,13.65-31.2,15.45-5.6,.8-14,1.2-25.2,1.2,2.2,17,6.5,28.2,12.9,33.6,2,2.2,4.7,3.3,8.1,3.3,12.4,0,22.8-3.95,31.2-11.85,8.4-7.9,14.4-11.85,18-11.85,1.6,0,4,1.5,7.2,4.5,3.2,3,4.8,5.8,4.8,8.4,0,5.2-6.3,12.7-18.9,22.5-5.6,4.6-12.35,8.45-20.25,11.55-7.9,3.1-15.25,4.65-22.05,4.65-17.4,0-30.2-11.2-38.4-33.6-5.2-13.8-7.8-29-7.8-45.6s3.9-30.9,11.7-42.9c7.8-12,20.1-18,36.9-18Zm1.5,20.7c-7.6,0-14.1,4.3-19.5,12.9-2,3-3.9,9.8-5.7,20.4,28,0,42-6.9,42-20.7,0-8.4-5.6-12.6-16.8-12.6Z"/></g><g><path class="c" d="M235.83,208.95c-1.44,1.42-2.96,2.81-4.56,4.17-4.88,4.14-10.29,7.77-16.22,10.86-5.94,3.08-12.36,5.53-19.27,7.31-6.91,1.79-14.11,2.69-21.59,2.69-12.35,0-23.66-2.12-33.9-6.34-10.24-4.23-19.06-10.12-26.47-17.68-7.4-7.56-13.12-16.5-17.19-26.83-4.07-10.32-6.1-21.66-6.1-34.02s2.03-23.29,6.1-33.79c4.07-10.48,9.79-19.58,17.19-27.31,7.4-7.72,16.26-13.81,26.59-18.29,10.32-4.47,21.74-6.7,34.27-6.7,15.12,0,28.33,2.77,39.63,8.29,7.9,3.87,14.87,8.93,20.9,15.18,4.35,4.51,4.14,11.73-.38,16.07l-8.77,8.43c-4.45,4.28-11.5,4.24-15.9-.1-3.11-3.07-6.48-5.73-10.12-8-6.66-4.14-14.63-6.21-23.9-6.21-7.32,0-13.9,1.33-19.76,4.02-5.85,2.68-10.82,6.37-14.88,11.09-4.06,4.72-7.18,10.2-9.38,16.46-2.19,6.26-3.3,12.88-3.3,19.88s1.11,13.82,3.3,20c2.2,6.18,5.32,11.54,9.38,16.09,4.06,4.56,8.95,8.13,14.63,10.73,5.7,2.6,12.11,3.91,19.26,3.91,5.85,0,10.94-.61,15.25-1.83,4.3-1.23,8.13-2.85,11.46-4.89,3.34-2.03,6.31-4.39,8.91-7.07l.03-.04c4.29-4.44,11.33-4.66,15.89-.5l8.58,7.83c4.84,4.42,4.96,11.98,.29,16.58Z"/><path class="c" d="M373.21,203.48c-3.26,6.18-7.69,11.55-13.29,16.09-5.61,4.56-12.2,8.09-19.76,10.61-7.56,2.51-15.73,3.78-24.51,3.78-8.14,0-15.54-.77-22.2-2.32-6.66-1.55-12.68-3.57-18.05-6.1-5.36-2.52-10.21-5.4-14.51-8.65-1.62-1.22-3.15-2.46-4.6-3.71-3.75-3.22-4.08-8.9-.73-12.54l11.89-12.88c3.17-3.43,8.49-3.78,12.03-.74,.46,.4,.93,.79,1.41,1.19,2.84,2.36,6.01,4.51,9.51,6.46,3.49,1.95,7.32,3.54,11.46,4.76,4.14,1.22,8.58,1.83,13.3,1.83,2.76,0,5.52-.41,8.29-1.22,2.77-.81,5.28-1.99,7.56-3.54,2.27-1.54,4.1-3.41,5.48-5.61,1.37-2.19,2.07-4.67,2.07-7.44,0-6.02-2.92-10.69-8.78-14.03-5.85-3.33-15.12-6.62-27.8-9.87-6.18-1.46-11.91-3.58-17.2-6.34-5.28-2.76-9.84-6.1-13.65-10-3.82-3.91-6.79-8.37-8.9-13.41-2.12-5.04-3.17-10.65-3.17-16.83,0-6.83,1.22-13.25,3.66-19.26,2.44-6.02,6.14-11.35,11.11-15.98,4.95-4.63,11.13-8.29,18.53-10.97,7.4-2.69,16.13-4.02,26.22-4.02,8.29,0,15.6,.85,21.94,2.55,6.34,1.71,11.74,3.74,16.22,6.1,4.47,2.36,8.12,4.8,10.97,7.32h.01c3.62,3.22,3.92,8.77,.67,12.36l-10.03,11.07c-3,3.31-8.01,3.83-11.62,1.21-2.36-1.71-5-3.29-7.93-4.76-2.92-1.46-6.13-2.68-9.64-3.66-3.49-.98-7.18-1.46-11.09-1.46-2.6,0-5.16,.41-7.68,1.22-2.53,.81-4.8,1.92-6.83,3.29-2.04,1.38-3.66,3.01-4.87,4.88-1.23,1.88-1.84,3.87-1.84,5.98,0,5.54,2.93,10,8.78,13.41,5.85,3.41,13.9,6.26,24.14,8.54,6.02,1.46,11.91,3.45,17.69,5.97,5.76,2.52,10.93,5.82,15.48,9.88,4.55,4.06,8.2,9.06,10.97,14.99,2.76,5.94,4.15,13.13,4.15,21.59,0,7.32-1.63,14.07-4.88,20.24Z"/></g></svg>