<svg id="Layer_1" data-name="Layer 1" xmlns="http://www.w3.org/2000/svg" viewBox="0 0 1920 547.64"><defs><style>.cls-1{fill:#cc0423;}.cls-2{fill:#0f091c;}.cls-3{fill:#fff;}</style></defs><path class="cls-1" d="M1867.9,188.43c-12.88-42.59-39.58-74.95-79.34-96.17-114.92-61.32-309.3-12.32-387.55,11.59-53.22,16.28-106.38,38.74-162.65,62.52-135,57-274.5,116-410.37,81.86a191.86,191.86,0,0,1-20.76-6.43l.88-.68c25.39-20,40.29-51.4,38.89-82-1.54-33.61-22.74-64.25-52.75-76.24C762,70,723,81,703.61,108.63c-22.6,32.23-13.73,75.54,5.09,104.17a145.24,145.24,0,0,0,17.75,21.89.08.08,0,0,1,0,.14c-86.63,20.87-188.34,23-303.52,6.59V37.25a20,20,0,0,0-20-20H65.64a20,20,0,0,0-20,20v221.6a20,20,0,0,0,20,20H417.4c123.31,17.61,232.35,14.63,325.28-9,7-1.78,14.3-3.8,21.7-6.28,0,0,0,0,.07,0A217.57,217.57,0,0,0,818.77,285c148.17,37.2,293.63-24.27,434.32-83.72,55.35-23.38,107.64-45.47,159-61.18,57.52-17.59,253.35-70.61,358.65-14.39,31,16.54,50.92,40.66,60.93,73.72,15.69,51.9-6.86,112.08-51.35,137a.09.09,0,0,0,0,.12l18.41,32.88a.08.08,0,0,0,.12,0C1858.19,336.17,1888.53,256.66,1867.9,188.43ZM784.7,211.36a85.25,85.25,0,0,1-16.1,9.83.08.08,0,0,1-.09,0A115.08,115.08,0,0,1,740.34,192c-11.41-17.35-18.07-44-5.73-61.62,6.64-9.46,19.07-15,31.44-15A38.17,38.17,0,0,1,780.2,118c16.2,6.47,28.11,24.07,29,42.81S800.65,198.82,784.7,211.36Z"/><path class="cls-1" d="M1575.17,379.18h49.26a.09.09,0,0,1,.09.09v24.1a.09.09,0,0,1-.09.09h-49.26a5,5,0,0,1-5-5V384.18a5,5,0,0,1,5-5Z" transform="translate(-41.04 533.9) rotate(-18.74)"/><path class="cls-1" d="M1599.86,451.93h49.26a.09.09,0,0,1,.09.09v24.1a.09.09,0,0,1-.09.09h-49.26a5,5,0,0,1-5-5V456.93a5,5,0,0,1,5-5Z" transform="translate(-63.09 545.93) rotate(-18.75)"/><path class="cls-2" d="M55.64,325.76H81.05a10,10,0,0,1,10,10v98c0,5.5.24,14.5.52,20A47.43,47.43,0,0,0,93,461.53a35.22,35.22,0,0,0,6.43,13.6,29.36,29.36,0,0,0,11.8,8.8q7.32,3.13,18.07,3.14,10.46,0,17.77-3.14a29.46,29.46,0,0,0,11.81-8.8,35.35,35.35,0,0,0,6.42-13.6,47.43,47.43,0,0,0,1.42-7.79c.29-5.49.52-14.49.52-20v-98a10,10,0,0,1,10-10h25.7a10,10,0,0,1,10,10V439.43c0,5.5-.38,14.48-.84,20,0,0-1.1,12.94-5,22.9a71.3,71.3,0,0,1-16.73,25.55,77,77,0,0,1-26.44,16.57,95.73,95.73,0,0,1-34.65,6,97.86,97.86,0,0,1-34.65-5.83A74.1,74.1,0,0,1,68.2,508a72.5,72.5,0,0,1-16.72-25.69c-3.89-10-5-22.9-5-22.9-.47-5.48-.85-14.46-.85-20V335.76A10,10,0,0,1,55.64,325.76Z"/><path class="cls-2" d="M260.27,325.76h27.59a11.18,11.18,0,0,1,8.38,4.55l74.18,114.14c5.06,7.78,9.2,6.56,9.2-2.72v-106a10,10,0,0,1,10-10h24.5a10,10,0,0,1,10,10V520.39a10,10,0,0,1-10,10H388.61a11.18,11.18,0,0,1-8.37-4.52L304,409.15c-5-7.73-9.18-6.5-9.18,2.73V520.39a10,10,0,0,1-10,10H260.27a10,10,0,0,1-10-10V335.76A10,10,0,0,1,260.27,325.76Z"/><path class="cls-2" d="M463,335.76a10,10,0,0,1,10-10h62.59q18.53,0,31.66,5.53a62.52,62.52,0,0,1,21.66,14.57,56.68,56.68,0,0,1,12.55,21,77.16,77.16,0,0,1,4,24.85q0,16.56-5.52,29A59.43,59.43,0,0,1,585,441.43,65.21,65.21,0,0,1,563.33,454a76.93,76.93,0,0,1-25.69,4.3H516.87a10,10,0,0,0-10,10v52.09a10,10,0,0,1-10,10H473a10,10,0,0,1-10-10Zm70.2,85.11q12.54,0,19.86-7.83t7.32-20.39q0-12.88-7.47-21t-20-8.13h-16a10,10,0,0,0-10,10v37.37a10,10,0,0,0,10,10Z"/><path class="cls-2" d="M645.61,325.76h25.11a10,10,0,0,1,10,10V478.81a10,10,0,0,0,10,10H766a10,10,0,0,1,10,10v21a10,10,0,0,1-10,10H645.61a10,10,0,0,1-10-10v-184A10,10,0,0,1,645.61,325.76Z"/><path class="cls-2" d="M808.11,325.76h25.41a10,10,0,0,1,10,10V443.41a74.43,74.43,0,0,0,1.94,17.72,35,35,0,0,0,6.43,13.56,29.48,29.48,0,0,0,11.8,8.78q7.32,3.12,18.07,3.13,10.46,0,17.77-3.13a29.51,29.51,0,0,0,11.81-8.78,35.1,35.1,0,0,0,6.42-13.56,74.43,74.43,0,0,0,1.94-17.72V335.76a10,10,0,0,1,10-10h25.7a10,10,0,0,1,10,10v113.3a89.26,89.26,0,0,1-5.82,32.77,70.93,70.93,0,0,1-16.73,25.47,76.85,76.85,0,0,1-26.44,16.52,95.91,95.91,0,0,1-34.65,6A98.31,98.31,0,0,1,847.11,524a74.27,74.27,0,0,1-26.44-16.53,72.55,72.55,0,0,1-16.73-25.62,89.26,89.26,0,0,1-5.83-32.77V335.76A10,10,0,0,1,808.11,325.76Z"/><path class="cls-2" d="M1115.8,418.16h56.77a10,10,0,0,1,10,10V497.6a9.9,9.9,0,0,1-3.83,7.87,113.46,113.46,0,0,1-32.47,17.18q-20.76,7.14-47.34,7.14-24.5,0-43.76-7.43a92.94,92.94,0,0,1-32.71-20.84A88.72,88.72,0,0,1,1002,469.46a115.88,115.88,0,0,1-7-41.1,107.76,107.76,0,0,1,7.47-40.51,96.37,96.37,0,0,1,21.21-32.5,99.47,99.47,0,0,1,32.55-21.72q18.83-7.86,41.83-7.87,27.18,0,47.65,9.76A93.09,93.09,0,0,1,1172.89,355a10,10,0,0,1-.36,14.32l-16.18,15a10,10,0,0,1-13.78-.18A85.52,85.52,0,0,0,1128.05,373q-11.5-7-28.23-7a57.79,57.79,0,0,0-24.49,5,54.2,54.2,0,0,0-18.22,13.4,57.63,57.63,0,0,0-11.35,19.82,74.29,74.29,0,0,0-3.89,24.19,68.78,68.78,0,0,0,4.48,25.36,55.18,55.18,0,0,0,31.52,31.77,63.26,63.26,0,0,0,23.74,4.37,79.94,79.94,0,0,0,21.81-2.78,50.66,50.66,0,0,0,13-5.65A9.89,9.89,0,0,0,1141,473V458.72a5,5,0,0,0-5-5H1115.8a10,10,0,0,1-10-10V428.16A10,10,0,0,1,1115.8,418.16Z"/><path class="cls-2" d="M1331.78,418.16h56.77a10,10,0,0,1,10,10V497.6a9.9,9.9,0,0,1-3.83,7.87,113.46,113.46,0,0,1-32.47,17.18q-20.76,7.14-47.35,7.14-24.5,0-43.76-7.43a93,93,0,0,1-32.71-20.84A88.69,88.69,0,0,1,1218,469.46a115.88,115.88,0,0,1-7-41.1,108,108,0,0,1,7.47-40.51,96.39,96.39,0,0,1,21.22-32.5,99.26,99.26,0,0,1,32.55-21.72q18.83-7.86,41.83-7.87,27.16,0,47.65,9.76a93.17,93.17,0,0,1,27.2,19.48,10,10,0,0,1-.35,14.32l-16.19,15a10,10,0,0,1-13.78-.18A85.52,85.52,0,0,0,1344,373q-11.49-7-28.22-7a57.79,57.79,0,0,0-24.49,5,54.14,54.14,0,0,0-18.23,13.4,57.63,57.63,0,0,0-11.35,19.82,74.29,74.29,0,0,0-3.88,24.19,68.57,68.57,0,0,0,4.48,25.36,55.13,55.13,0,0,0,31.51,31.77,63.35,63.35,0,0,0,23.75,4.37,80,80,0,0,0,21.81-2.78,50.81,50.81,0,0,0,13-5.65A9.89,9.89,0,0,0,1357,473V458.72a5,5,0,0,0-5-5h-20.24a10,10,0,0,1-10-10V428.16A10,10,0,0,1,1331.78,418.16Z"/><path class="cls-2" d="M1444.69,325.76h116.22a10,10,0,0,1,10,10v20.39a10,10,0,0,1-10,10h-71.12a10,10,0,0,0-10,10V395.9a10,10,0,0,0,10,10h50.8a10,10,0,0,1,10,10v19.16a10,10,0,0,1-10,10h-50.8a10,10,0,0,0-10,10v24.05a10,10,0,0,0,10,10h77.69a10,10,0,0,1,10,10v20.68a10,10,0,0,1-10,10H1444.69a10,10,0,0,1-10-10v-184A10,10,0,0,1,1444.69,325.76Z"/><path class="cls-2" d="M1607.08,335.44a10,10,0,0,1,6.25-12.68l61.82-21a145.27,145.27,0,0,1,42.22-8,92,92,0,0,1,37.83,6.41q17.37,7,31,22.59t22,40.18q8,23.49,6.24,43.46a86.29,86.29,0,0,1-11.2,36.29,92.45,92.45,0,0,1-26,28.38,141.74,141.74,0,0,1-38.34,19.49l-61.53,20.87a10,10,0,0,1-12.69-6.25Zm116.69,118q28.27-9.6,38.52-29.64t1.4-46.06a78.43,78.43,0,0,0-11.55-22.42,49.79,49.79,0,0,0-16.89-14.45,50.91,50.91,0,0,0-22.18-5.41q-12.43-.36-27.7,4.82l-16.56,5.62a10,10,0,0,0-6.25,12.68l32,94.22a10,10,0,0,0,12.69,6.26Z"/><path class="cls-3" d="M235.83,209q-2.16,2.13-4.56,4.17A87.41,87.41,0,0,1,215.05,224a90.85,90.85,0,0,1-19.27,7.31A85.75,85.75,0,0,1,174.2,234a88.19,88.19,0,0,1-33.9-6.34A78.51,78.51,0,0,1,113.83,210a79.71,79.71,0,0,1-17.18-26.83,92,92,0,0,1-6.11-34,92.66,92.66,0,0,1,6.11-33.79,79.88,79.88,0,0,1,43.77-45.6A85.35,85.35,0,0,1,174.69,63q22.68,0,39.63,8.29a74.24,74.24,0,0,1,20.9,15.18,11.38,11.38,0,0,1-.38,16.07L226.07,111a11.39,11.39,0,0,1-15.89-.09,57.78,57.78,0,0,0-10.13-8q-10-6.22-23.9-6.21a46.8,46.8,0,0,0-19.76,4,43,43,0,0,0-14.88,11.09,50.84,50.84,0,0,0-9.38,16.46,62.07,62.07,0,0,0,0,39.88,48.21,48.21,0,0,0,9.38,16.1,43.71,43.71,0,0,0,14.64,10.72,45.87,45.87,0,0,0,19.26,3.91A56.33,56.33,0,0,0,190.66,197a45.74,45.74,0,0,0,11.46-4.88,44.67,44.67,0,0,0,8.91-7.07l0,0a11.4,11.4,0,0,1,15.89-.5l8.58,7.84A11.42,11.42,0,0,1,235.83,209Z"/><path class="cls-3" d="M373.21,203.48a51.64,51.64,0,0,1-13.29,16.1,62.32,62.32,0,0,1-19.76,10.61A77.38,77.38,0,0,1,315.65,234a98.15,98.15,0,0,1-22.2-2.32,90.34,90.34,0,0,1-18.05-6.1,81.75,81.75,0,0,1-14.5-8.65c-1.62-1.22-3.16-2.46-4.6-3.7a8.72,8.72,0,0,1-.73-12.54l11.89-12.88a8.68,8.68,0,0,1,12-.73l1.41,1.19a62.16,62.16,0,0,0,9.51,6.46,55.73,55.73,0,0,0,11.46,4.76,46.87,46.87,0,0,0,13.3,1.83,29.4,29.4,0,0,0,8.29-1.22,26.75,26.75,0,0,0,7.56-3.54,18.88,18.88,0,0,0,5.48-5.61,13.66,13.66,0,0,0,2.07-7.44q0-9-8.78-14T302,159.58a73.35,73.35,0,0,1-17.19-6.34,53.7,53.7,0,0,1-13.66-10,42.56,42.56,0,0,1-8.9-13.42A43,43,0,0,1,259.07,113a50.93,50.93,0,0,1,3.65-19.26,44.64,44.64,0,0,1,11.11-16,53.29,53.29,0,0,1,18.53-11q11.1-4,26.22-4a85.17,85.17,0,0,1,21.95,2.55,79.15,79.15,0,0,1,16.22,6.1,55.67,55.67,0,0,1,11,7.32h0a8.69,8.69,0,0,1,.67,12.34l-10,11.07a8.75,8.75,0,0,1-11.62,1.21,57.17,57.17,0,0,0-7.93-4.76A54.52,54.52,0,0,0,329.18,95a41.2,41.2,0,0,0-11.09-1.46,24.91,24.91,0,0,0-7.68,1.22A27,27,0,0,0,303.58,98a17.3,17.3,0,0,0-4.88,4.88,10.76,10.76,0,0,0-1.83,6c0,5.54,2.93,10,8.78,13.42s13.9,6.26,24.14,8.54a107.36,107.36,0,0,1,17.69,6A58,58,0,0,1,363,146.66a45.59,45.59,0,0,1,11,15q4.15,8.91,4.15,21.59A42.82,42.82,0,0,1,373.21,203.48Z"/></svg>
