<svg id="Layer_1" data-name="Layer 1" xmlns="http://www.w3.org/2000/svg" viewBox="0 0 1920 547.64"><defs><style>.cls-1{fill:#fff;}</style></defs><path class="cls-1" d="M1626.94,394l-7.74-22.82a.09.09,0,0,0-.11-.05L1572.44,387a5,5,0,0,0-3.13,6.34l4.59,13.51a5,5,0,0,0,6.34,3.13l46.65-15.83A.08.08,0,0,0,1626.94,394Z"/><path class="cls-1" d="M1867.9,188.43c-12.88-42.59-39.58-74.95-79.34-96.17-114.92-61.32-309.3-12.32-387.55,11.59-53.22,16.28-106.38,38.74-162.65,62.52-135,57-274.5,116-410.37,81.86a191.86,191.86,0,0,1-20.76-6.43l.88-.68c25.39-20,40.29-51.4,38.89-82-1.54-33.61-22.74-64.25-52.75-76.24C762,70,723,81,703.61,108.63c-22.6,32.23-13.73,75.54,5.09,104.17a145.24,145.24,0,0,0,17.75,21.89.08.08,0,0,1,0,.14c-86.63,20.87-188.34,23-303.52,6.59V37.25a20,20,0,0,0-20-20H65.64a20,20,0,0,0-20,20v221.6a20,20,0,0,0,20,20H417.4c123.31,17.61,232.35,14.63,325.28-9,7-1.78,14.3-3.8,21.7-6.28,0,0,0,0,.07,0A217.57,217.57,0,0,0,818.77,285c148.17,37.2,293.63-24.27,434.32-83.72,55.35-23.38,107.64-45.47,159-61.18,57.52-17.59,253.35-70.61,358.65-14.39,31,16.54,50.92,40.66,60.93,73.72,14.34,47.42-3.26,101.73-40.34,129.8-1.63-2.25-3.34-4.4-5.11-6.42q-13.64-15.54-31-22.59a92,92,0,0,0-37.83-6.41,145.27,145.27,0,0,0-42.22,8l-61.82,21a10,10,0,0,0-6.25,12.68l36.78,108.41-46.73,15.86a5,5,0,0,0-3.12,6.34l4.58,13.51a5,5,0,0,0,6.34,3.13l46.73-15.86,13,38.36a10,10,0,0,0,12.69,6.25l61.53-20.87a141.74,141.74,0,0,0,38.34-19.49,92.45,92.45,0,0,0,26-28.38,86.29,86.29,0,0,0,11.2-36.29q1.71-19.74-6-42.89C1861.38,327.4,1887.39,252.89,1867.9,188.43ZM235.83,209q-2.16,2.13-4.56,4.17a87.45,87.45,0,0,1-16.22,10.86,90.85,90.85,0,0,1-19.27,7.31,85.75,85.75,0,0,1-21.58,2.69,88,88,0,0,1-33.9-6.35A78.51,78.51,0,0,1,113.83,210a79.51,79.51,0,0,1-17.18-26.83,92,92,0,0,1-6.11-34,92.57,92.57,0,0,1,6.11-33.78,79.88,79.88,0,0,1,43.77-45.6,85.36,85.36,0,0,1,34.27-6.71q22.68,0,39.63,8.29a74.24,74.24,0,0,1,20.9,15.18,11.38,11.38,0,0,1-.38,16.07l-8.77,8.43a11.38,11.38,0,0,1-15.89-.1,58.25,58.25,0,0,0-10.13-8q-10-6.21-23.9-6.21a47,47,0,0,0-19.76,4,43.06,43.06,0,0,0-14.88,11.1,50.73,50.73,0,0,0-9.38,16.46,62.07,62.07,0,0,0,0,39.88,48.06,48.06,0,0,0,9.38,16.09A43.6,43.6,0,0,0,156.15,195a45.87,45.87,0,0,0,19.26,3.91,56.33,56.33,0,0,0,15.25-1.83,46.13,46.13,0,0,0,11.46-4.89,44.67,44.67,0,0,0,8.91-7.07l0,0a11.4,11.4,0,0,1,15.89-.5l8.58,7.83A11.42,11.42,0,0,1,235.83,209Zm137.38-5.46a51.49,51.49,0,0,1-13.29,16.09,62.12,62.12,0,0,1-19.76,10.61,77.1,77.1,0,0,1-24.51,3.79,98.12,98.12,0,0,1-22.2-2.33,90.34,90.34,0,0,1-18.05-6.09A82.35,82.35,0,0,1,260.9,217c-1.62-1.23-3.16-2.46-4.6-3.71a8.72,8.72,0,0,1-.73-12.54l11.89-12.87a8.69,8.69,0,0,1,12-.74l1.41,1.2a62.89,62.89,0,0,0,9.51,6.46,55.73,55.73,0,0,0,11.46,4.76,47.24,47.24,0,0,0,13.3,1.82,29.44,29.44,0,0,0,8.29-1.21,27.31,27.31,0,0,0,7.56-3.54A19,19,0,0,0,336.5,191a13.71,13.71,0,0,0,2.07-7.44q0-9-8.78-14T302,159.66a73.35,73.35,0,0,1-17.19-6.34,53.73,53.73,0,0,1-13.66-10,42.4,42.4,0,0,1-8.9-13.41,43,43,0,0,1-3.17-16.83,51,51,0,0,1,3.65-19.27,44.81,44.81,0,0,1,11.11-16,53.28,53.28,0,0,1,18.53-11q11.1-4,26.22-4a84.71,84.71,0,0,1,21.95,2.56,79.15,79.15,0,0,1,16.22,6.1,56.11,56.11,0,0,1,11,7.31h0a8.7,8.7,0,0,1,.67,12.35l-10,11.07a8.75,8.75,0,0,1-11.62,1.2,57.15,57.15,0,0,0-7.93-4.75A54.52,54.52,0,0,0,329.18,95a40.81,40.81,0,0,0-11.09-1.46,24.62,24.62,0,0,0-7.68,1.22,26.35,26.35,0,0,0-6.83,3.29A17.27,17.27,0,0,0,298.7,103a10.79,10.79,0,0,0-1.83,6q0,8.29,8.78,13.41t24.14,8.55a108.26,108.26,0,0,1,17.69,6A58.29,58.29,0,0,1,363,146.73a45.73,45.73,0,0,1,11,15q4.15,8.91,4.15,21.58A42.83,42.83,0,0,1,373.21,203.56Zm411.49,7.8a85.25,85.25,0,0,1-16.1,9.83.08.08,0,0,1-.09,0A115.08,115.08,0,0,1,740.34,192c-11.41-17.35-18.07-44-5.73-61.62,6.64-9.46,19.07-15,31.44-15A38.17,38.17,0,0,1,780.2,118c16.2,6.47,28.11,24.07,29,42.81S800.65,198.82,784.7,211.36Zm977.59,212.43q-10.23,20-38.52,29.64l-16.56,5.62a10,10,0,0,1-12.69-6.26l-32-94.22a10,10,0,0,1,6.25-12.68l16.56-5.62q15.27-5.19,27.7-4.82a50.91,50.91,0,0,1,22.18,5.41,49.88,49.88,0,0,1,16.89,14.45,78.43,78.43,0,0,1,11.55,22.42Q1772.53,403.76,1762.29,423.79Z"/><path class="cls-1" d="M202.93,325.76h-25.7a10,10,0,0,0-10,10v108a74.89,74.89,0,0,1-1.94,17.78,35.35,35.35,0,0,1-6.42,13.6,29.46,29.46,0,0,1-11.81,8.8q-7.31,3.13-17.77,3.14-10.75,0-18.07-3.14a29.36,29.36,0,0,1-11.8-8.8A35.22,35.22,0,0,1,93,461.53a74.89,74.89,0,0,1-1.94-17.78v-108a10,10,0,0,0-10-10H55.64a10,10,0,0,0-10,10V449.43a89.58,89.58,0,0,0,5.84,32.86A72.5,72.5,0,0,0,68.2,508a74.1,74.1,0,0,0,26.44,16.58,97.86,97.86,0,0,0,34.65,5.83,95.73,95.73,0,0,0,34.65-6,77,77,0,0,0,26.44-16.57,71.3,71.3,0,0,0,16.73-25.55,89.78,89.78,0,0,0,5.82-32.86V335.76A10,10,0,0,0,202.93,325.76Z"/><path class="cls-1" d="M414.12,325.76h-24.5a10,10,0,0,0-10,10v106c0,9.28-4.14,10.5-9.2,2.72L296.24,330.31a11.18,11.18,0,0,0-8.38-4.55H260.27a10,10,0,0,0-10,10V520.39a10,10,0,0,0,10,10h24.51a10,10,0,0,0,10-10V411.88c0-9.23,4.13-10.46,9.18-2.73l76.28,116.72a11.18,11.18,0,0,0,8.37,4.52h25.51a10,10,0,0,0,10-10V335.76A10,10,0,0,0,414.12,325.76Z"/><path class="cls-1" d="M588.87,345.86a62.52,62.52,0,0,0-21.66-14.57q-13.15-5.54-31.66-5.53H473a10,10,0,0,0-10,10V520.39a10,10,0,0,0,10,10h23.91a10,10,0,0,0,10-10V468.3a10,10,0,0,1,10-10h20.77a76.93,76.93,0,0,0,25.69-4.3A65.21,65.21,0,0,0,585,441.43a59.43,59.43,0,0,0,14.94-20.71q5.52-12.44,5.52-29a77.16,77.16,0,0,0-4-24.85A56.68,56.68,0,0,0,588.87,345.86ZM553,413q-7.32,7.83-19.86,7.83H516.87a10,10,0,0,1-10-10V373.5a10,10,0,0,1,10-10h16q12.55,0,20,8.13t7.47,21Q560.34,405.24,553,413Z"/><path class="cls-1" d="M766,488.81H690.72a10,10,0,0,1-10-10v-143a10,10,0,0,0-10-10H645.61a10,10,0,0,0-10,10v184a10,10,0,0,0,10,10H766a10,10,0,0,0,10-10v-21A10,10,0,0,0,766,488.81Z"/><path class="cls-1" d="M955.4,325.76H929.7a10,10,0,0,0-10,10V443.41a74.43,74.43,0,0,1-1.94,17.72,35.1,35.1,0,0,1-6.42,13.56,29.51,29.51,0,0,1-11.81,8.78q-7.32,3.12-17.77,3.13-10.75,0-18.07-3.13a29.48,29.48,0,0,1-11.8-8.78,35,35,0,0,1-6.43-13.56,74.43,74.43,0,0,1-1.94-17.72V335.76a10,10,0,0,0-10-10H808.11a10,10,0,0,0-10,10v113.3a89.26,89.26,0,0,0,5.83,32.77,72.55,72.55,0,0,0,16.73,25.62A74.27,74.27,0,0,0,847.11,524a98.31,98.31,0,0,0,34.65,5.81,95.91,95.91,0,0,0,34.65-6,76.85,76.85,0,0,0,26.44-16.52,70.93,70.93,0,0,0,16.73-25.47,89.26,89.26,0,0,0,5.82-32.77V335.76A10,10,0,0,0,955.4,325.76Z"/><path class="cls-1" d="M1172.57,418.16H1115.8a10,10,0,0,0-10,10v15.56a10,10,0,0,0,10,10H1136a5,5,0,0,1,5,5V473a9.89,9.89,0,0,1-4.62,8.44,50.66,50.66,0,0,1-13,5.65,79.94,79.94,0,0,1-21.81,2.78,63.26,63.26,0,0,1-23.74-4.37,55.18,55.18,0,0,1-31.52-31.77,68.78,68.78,0,0,1-4.48-25.36,74.29,74.29,0,0,1,3.89-24.19,57.63,57.63,0,0,1,11.35-19.82,54.2,54.2,0,0,1,18.22-13.4,57.79,57.79,0,0,1,24.49-5q16.74,0,28.23,7a85.52,85.52,0,0,1,14.52,11.18,10,10,0,0,0,13.78.18l16.18-15a10,10,0,0,0,.36-14.32,93.09,93.09,0,0,0-27.21-19.48q-20.48-9.75-47.65-9.76-23,0-41.83,7.87a99.47,99.47,0,0,0-32.55,21.72,96.37,96.37,0,0,0-21.21,32.5A108,108,0,0,0,995,428.36a115.88,115.88,0,0,0,7,41.1,88.72,88.72,0,0,0,20.47,32.06,92.94,92.94,0,0,0,32.71,20.84q19.26,7.44,43.76,7.43,26.58,0,47.34-7.14a113.46,113.46,0,0,0,32.47-17.18,9.9,9.9,0,0,0,3.83-7.87V428.16A10,10,0,0,0,1172.57,418.16Z"/><path class="cls-1" d="M1388.55,418.16h-56.77a10,10,0,0,0-10,10v15.56a10,10,0,0,0,10,10H1352a5,5,0,0,1,5,5V473a9.89,9.89,0,0,1-4.62,8.44,50.81,50.81,0,0,1-13,5.65,80,80,0,0,1-21.81,2.78,63.35,63.35,0,0,1-23.75-4.37,55.13,55.13,0,0,1-31.51-31.77,68.57,68.57,0,0,1-4.48-25.36,74.29,74.29,0,0,1,3.88-24.19,57.63,57.63,0,0,1,11.35-19.82,54.14,54.14,0,0,1,18.23-13.4,57.79,57.79,0,0,1,24.49-5q16.73,0,28.22,7a85.52,85.52,0,0,1,14.52,11.18,10,10,0,0,0,13.78.18l16.19-15a10,10,0,0,0,.35-14.32,93.17,93.17,0,0,0-27.2-19.48q-20.48-9.75-47.65-9.76-23,0-41.83,7.87a99.26,99.26,0,0,0-32.55,21.72,96.39,96.39,0,0,0-21.22,32.5,108,108,0,0,0-7.47,40.51,115.88,115.88,0,0,0,7,41.1,88.69,88.69,0,0,0,20.46,32.06,93,93,0,0,0,32.71,20.84q19.26,7.44,43.76,7.43,26.6,0,47.35-7.14a113.46,113.46,0,0,0,32.47-17.18,9.9,9.9,0,0,0,3.83-7.87V428.16A10,10,0,0,0,1388.55,418.16Z"/><path class="cls-1" d="M1567.48,489.11h-77.69a10,10,0,0,1-10-10V455.06a10,10,0,0,1,10-10h50.8a10,10,0,0,0,10-10V415.9a10,10,0,0,0-10-10h-50.8a10,10,0,0,1-10-10V376.15a10,10,0,0,1,10-10h71.12a10,10,0,0,0,10-10V335.76a10,10,0,0,0-10-10H1444.69a10,10,0,0,0-10,10v184a10,10,0,0,0,10,10h122.79a10,10,0,0,0,10-10V499.11A10,10,0,0,0,1567.48,489.11Z"/></svg>