<svg xmlns="http://www.w3.org/2000/svg" viewBox="0 0 2197.04 595"><defs><style>.a{fill:#363636;}.b{fill:#fff;}.c{fill:#df3d3e;}.d{fill:#de3e40;}.e{fill:#e13737;}</style></defs><path class="a" d="M905.88,72.56h16.87a4.74,4.74,0,0,1,3.37,1.36,4.58,4.58,0,0,1,0,6.63,4.68,4.68,0,0,1-3.36,1.36H905.28a13.48,13.48,0,0,1-6.9-2.11,12.77,12.77,0,0,1-5-4.73l-10.8-20.88A21,21,0,0,1,880.45,45a19,19,0,0,1,2.06-9.07l10.91-20.65a14.5,14.5,0,0,1,4.84-5.1,11.51,11.51,0,0,1,6.35-2.2h18.48a4.46,4.46,0,0,1,3.31,1.4,4.52,4.52,0,0,1,1.37,3.28A4.71,4.71,0,0,1,926.4,16a4.44,4.44,0,0,1-3.31,1.42h-17.8c-1.49,0-2.69.87-3.62,2.62L891.3,39.38a11.1,11.1,0,0,0-1.22,5.4,12.14,12.14,0,0,0,1.33,5.8l9.9,19A4.7,4.7,0,0,0,905.88,72.56Z"/><path class="a" d="M986.83,81.91H958.55a4.39,4.39,0,0,1-3.31-1.42,4.69,4.69,0,0,1-1.37-3.37,4.54,4.54,0,0,1,1.37-3.28,4.43,4.43,0,0,1,3.31-1.39h9.35V17.29h-9.46a4.66,4.66,0,0,1-4.68-4.68,4.66,4.66,0,0,1,4.68-4.68h14.25A4.49,4.49,0,0,1,976,9.33a4.46,4.46,0,0,1,1.39,3.28V72.45h9.47a4.75,4.75,0,0,1,4.67,4.67,4.68,4.68,0,0,1-1.36,3.37A4.42,4.42,0,0,1,986.83,81.91Z"/><path class="a" d="M1031.88,48.18h18.34a20.48,20.48,0,0,1,4.35.67l-.11-6.63a4.66,4.66,0,0,0-4.69-4.67H1032a4.68,4.68,0,1,1,0-9.35h17.78a13.53,13.53,0,0,1,9.89,4.06,14.05,14.05,0,0,1,4.27,10l1.17,35a4.49,4.49,0,0,1-1.39,3.31,4.55,4.55,0,0,1-3.29,1.36,4.65,4.65,0,0,1-3.39-1.36,4.45,4.45,0,0,1-1.39-3.31l-7.92,4.67h-15.83a14.07,14.07,0,0,1-14.16-14.14V62.32a14.17,14.17,0,0,1,14.16-14.14Zm23.38,18.2-.28-3.95a4.69,4.69,0,0,0-1.39-3.34,4.48,4.48,0,0,0-3.29-1.34h-18.44a4.68,4.68,0,0,0-4.68,4.68v5.23a4.75,4.75,0,0,0,4.68,4.68h13.21Z"/><path class="a" d="M1099.88,28.2h21.43a14.07,14.07,0,0,1,8.85,3q3.84,3,3.84,5.82a4.23,4.23,0,0,1-1.42,3.29,4.6,4.6,0,0,1-3.14,1.28,5.45,5.45,0,0,1-4.07-2,5.26,5.26,0,0,0-3.84-2h-21.15c-2.08,0-3.12.86-3.12,2.59a3,3,0,0,0,2.08,2.76L1124.2,54a14.08,14.08,0,0,1,6.21,5.37,14.71,14.71,0,0,1,2.42,8.21,13.74,13.74,0,0,1-4.26,10.19,13.45,13.45,0,0,1-9.65,4.17H1100a15.49,15.49,0,0,1-9.1-3c-2.8-2-4.2-3.88-4.2-5.73a4.56,4.56,0,0,1,1.36-3.26,4.71,4.71,0,0,1,3.53-1.42,5.73,5.73,0,0,1,3.82,2,8,8,0,0,0,5.87,2h17.42a4.38,4.38,0,0,0,3.45-1.59,5.34,5.34,0,0,0,1.4-3.64,4.72,4.72,0,0,0-3.12-4.57l-25.11-11.3a12.33,12.33,0,0,1-5.56-4.67,11.49,11.49,0,0,1-2-6.24,12.2,12.2,0,0,1,3.48-8.68A11.36,11.36,0,0,1,1099.88,28.2Z"/><path class="a" d="M1168.74,28.2h21.43a14.07,14.07,0,0,1,8.85,3q3.84,3,3.84,5.82a4.26,4.26,0,0,1-1.42,3.29,4.62,4.62,0,0,1-3.15,1.28,5.43,5.43,0,0,1-4.06-2,5.29,5.29,0,0,0-3.84-2h-21.15c-2.08,0-3.12.86-3.12,2.59a3,3,0,0,0,2.08,2.76L1193.06,54a14.19,14.19,0,0,1,6.21,5.37,14.71,14.71,0,0,1,2.42,8.21,13.74,13.74,0,0,1-4.26,10.19,13.46,13.46,0,0,1-9.66,4.17h-18.92a15.49,15.49,0,0,1-9.1-3c-2.81-2-4.21-3.88-4.21-5.73a4.58,4.58,0,0,1,1.37-3.26,4.69,4.69,0,0,1,3.53-1.42,5.69,5.69,0,0,1,3.81,2,8.07,8.07,0,0,0,5.88,2h17.42A4.41,4.41,0,0,0,1191,71a5.33,5.33,0,0,0,1.39-3.64,4.72,4.72,0,0,0-3.11-4.57l-25.11-11.3a12.36,12.36,0,0,1-5.57-4.67,11.47,11.47,0,0,1-1.94-6.24,12.23,12.23,0,0,1,3.47-8.68A11.38,11.38,0,0,1,1168.74,28.2Z"/><path class="a" d="M1262.25,81.8h-28.5a4.67,4.67,0,0,1-3.31-8,4.45,4.45,0,0,1,3.31-1.39h9.58V37.55h-9.47a4.49,4.49,0,0,1-3.31-1.39,4.55,4.55,0,0,1-1.36-3.29,4.7,4.7,0,0,1,1.36-3.37,4.44,4.44,0,0,1,3.31-1.42h14.25a4.44,4.44,0,0,1,3.31,1.42,4.71,4.71,0,0,1,1.37,3.37V72.45h9.35a4.7,4.7,0,0,1,3.37,1.36,4.6,4.6,0,0,1,0,6.63A4.51,4.51,0,0,1,1262.25,81.8Zm-19-78h4.9a4.5,4.5,0,0,1,3.31,1.36,4.51,4.51,0,0,1,1.37,3.31v4a4.71,4.71,0,0,1-1.37,3.37,4.44,4.44,0,0,1-3.31,1.42h-5a4.48,4.48,0,0,1-3.37-1.45,4.41,4.41,0,0,1-1.3-3.23l.11-4.12a4.5,4.5,0,0,1,1.36-3.31A4.5,4.5,0,0,1,1243.21,3.82Z"/><path class="a" d="M1335.89,81.91h-20a13.48,13.48,0,0,1-9-3.17l-9.07-7.91a12.08,12.08,0,0,1-4.34-9.79V48.85q-.23-6,4.9-10.36l8.18-7.07A13.12,13.12,0,0,1,1315,28.2h21a4.7,4.7,0,0,1,3.31,8,4.57,4.57,0,0,1-3.31,1.34h-20.1a5.47,5.47,0,0,0-3.62,1.5l-7.51,6.4a5.19,5.19,0,0,0-1.84,4.18V61a4,4,0,0,0,1.45,3.11l8.24,7a5.94,5.94,0,0,0,4.12,1.39h19.14a4.57,4.57,0,0,1,3.29,1.36,4.68,4.68,0,0,1,0,6.63A4.52,4.52,0,0,1,1335.89,81.91Z"/><path d="M415.78,199.28h22.8a6.33,6.33,0,0,1,4.55,1.84,6.18,6.18,0,0,1,0,8.95,6.31,6.31,0,0,1-4.54,1.84H415a18.23,18.23,0,0,1-9.32-2.86,17.1,17.1,0,0,1-6.69-6.39l-14.59-28.2A28.4,28.4,0,0,1,381.44,162a25.47,25.47,0,0,1,2.78-12.25L399,121.83A19.44,19.44,0,0,1,405.5,115a15.46,15.46,0,0,1,8.57-3h25a6,6,0,0,1,4.47,1.88,6.11,6.11,0,0,1,1.84,4.43,6.33,6.33,0,0,1-1.84,4.55,6,6,0,0,1-4.47,1.92H415q-3,0-4.89,3.54l-14,26.16a15,15,0,0,0-1.64,7.3,16.26,16.26,0,0,0,1.79,7.82l13.37,25.72A6.36,6.36,0,0,0,415.78,199.28Z"/><path d="M537.77,162.13v26.7q0,8.49-8,15.71t-16.51,7.22H498.44q-8.64,0-16.54-7.33t-7.9-15.6v-26.7q0-8.26,7.71-15.6t16.73-7.33h14.81q8.5-.15,16.51,7.07T537.77,162.13Zm-51,.53v25.57a6.69,6.69,0,0,0,2.48,5.48l4.73,4.07a6.65,6.65,0,0,0,4.44,1.35H513.1A8.66,8.66,0,0,0,519,196.8l3.83-3.39a6,6,0,0,0,2.34-5V162.81a6.6,6.6,0,0,0-2.34-5.57l-4.43-3.53a8,8,0,0,0-5.27-1.88H500a9.8,9.8,0,0,0-6.62,2l-4.28,3.69A6.32,6.32,0,0,0,486.79,162.66Z"/><path d="M565.59,205.6V145.66a6.28,6.28,0,0,1,6.32-6.31q4.89,0,6.16,4.81a16.68,16.68,0,0,1,11.72-5,15,15,0,0,1,12.46,6.46q6-6.47,13.22-6.46a14.16,14.16,0,0,1,10.17,4.17A15.19,15.19,0,0,1,630.26,154l1.8,51.59a6.42,6.42,0,0,1-6.31,6.31,6.15,6.15,0,0,1-4.52-1.88,6.34,6.34,0,0,1-2-4.43L617.78,156c-.11-2.71-.93-4.06-2.49-4.06a4.18,4.18,0,0,0-2.63,1.13l-7.52,6.32V205.6A5.89,5.89,0,0,1,603.3,210a6.36,6.36,0,0,1-8.91,0,6,6,0,0,1-1.88-4.48V155.21c0-2.15-.92-3.23-2.77-3.23a3.69,3.69,0,0,0-2.47,1l-9,7.67v45a6.19,6.19,0,0,1-1.8,4.43,5.8,5.8,0,0,1-4.36,1.88,6.25,6.25,0,0,1-4.55-1.88A6,6,0,0,1,565.59,205.6Z"/><path d="M673,204.69v28a6.32,6.32,0,0,1-1.84,4.58,6,6,0,0,1-4.48,1.88,6.26,6.26,0,0,1-4.55-1.88,6.19,6.19,0,0,1-1.91-4.58V142.58a6,6,0,0,1,1.88-4.43,6.2,6.2,0,0,1,4.58-1.88,6.42,6.42,0,0,1,6.32,6.31v4.06q9.16-10.21,18.12-10.22H694a18.28,18.28,0,0,1,12.34,5l10.52,9.1a19.32,19.32,0,0,1,6.92,15.26v19.7a19.94,19.94,0,0,1-7.44,15.72L706.06,210a18.47,18.47,0,0,1-12.94,4.66h-2.78a17,17,0,0,1-12.48-5.11Zm17.82-2.78H694a7.77,7.77,0,0,0,5-2.33l9.85-8.65a6.43,6.43,0,0,0,2.48-5.34V165.22a6.85,6.85,0,0,0-2.78-5.34l-10.61-9.1A5.82,5.82,0,0,0,694,149.2h-3.68q-2.1,0-5.49,3.46l-9.4,9.32a7.72,7.72,0,0,0-2.48,5.57v16.16a8.16,8.16,0,0,0,2.78,5.72l9.1,9.1Q688.24,201.91,690.79,201.91Z"/><path d="M783.25,199.13l21.24-13.54V145.66a6.31,6.31,0,0,1,1.84-4.54,6.18,6.18,0,0,1,8.95,0,6.35,6.35,0,0,1,1.84,4.54V205.6a6.32,6.32,0,0,1-12.63,0v-5l-11,7.15a24,24,0,0,1-13.06,4.13H774.6a18.39,18.39,0,0,1-13.29-5.41,19.14,19.14,0,0,1-5.93-13.24l-1.88-47.6a5.52,5.52,0,0,1,1.77-4.39,6.21,6.21,0,0,1,4.55-1.92,6,6,0,0,1,4.4,1.88,6.4,6.4,0,0,1,1.92,4.43l1.73,46.7q.23,6.76,7.72,6.77Z"/><path d="M890.58,211.91H878a18.5,18.5,0,0,1-13.46-5.56A18.13,18.13,0,0,1,858.85,193V152h-6.46a6.17,6.17,0,0,1-4.48-1.8,6.34,6.34,0,0,1,4.48-10.83H859V123.86a6.25,6.25,0,0,1,10.72-4.44,6,6,0,0,1,1.91,4.44v15.49h25.42a6.32,6.32,0,0,1,0,12.63H871.48v41a6,6,0,0,0,1.92,4.44,6.3,6.3,0,0,0,4.55,1.88h12.33q5,0,6.7-5.45c1.1-3.64,3.23-5.45,6.39-5.45a6,6,0,0,1,4.55,1.84,6.44,6.44,0,0,1,1.76,4.62q0,5.72-5.37,11.39A18.07,18.07,0,0,1,890.58,211.91Z"/><path d="M1002.85,163.11v15.26a6.42,6.42,0,0,1-6.32,6.32H951.87v3.69a6.83,6.83,0,0,0,2.78,5.48l3.68,3.09a9.55,9.55,0,0,0,5.72,2.33h32.48a6.11,6.11,0,0,1,4.44,1.84,6.36,6.36,0,0,1-4.44,10.79H963.22a19.44,19.44,0,0,1-7-1.39,18.29,18.29,0,0,1-5.38-2.89l-5.64-5a16.2,16.2,0,0,1-4.4-5.86,16.4,16.4,0,0,1-1.77-6.92V160.93a21.23,21.23,0,0,1,6.77-13.24l5.27-4.13a17.8,17.8,0,0,1,11.5-4.21h17.75q6.69,0,12.63,5.56l4.74,4.51Q1002.86,154,1002.85,163.11Zm-50.83-1v9.78h38.35v-8.8a6.75,6.75,0,0,0-2.18-5.41l-3.69-3.24c-1.9-1.55-3.61-2.33-5.11-2.33H963.52a8.12,8.12,0,0,0-5.34,2l-3.68,3.08A5.89,5.89,0,0,0,952,162.13Z"/><path d="M1032.25,205.6V145.66a6.35,6.35,0,0,1,1.84-4.54,6,6,0,0,1,4.48-1.92,6,6,0,0,1,4.47,1.88,6.28,6.28,0,0,1,1.84,4.58v7.9l10.31-8.8q6.39-5.41,12.48-5.41h9.25a19,19,0,0,1,18.95,19v3.38a6.33,6.33,0,0,1-1.84,4.59,6.31,6.31,0,0,1-10.8-4.44V158.3a6.28,6.28,0,0,0-6.31-6.32h-8.2c-1.75,0-3.71.93-5.86,2.78l-18,15.57V205.6a6,6,0,0,1-1.88,4.47,6.3,6.3,0,0,1-10.75-4.47Z"/><path d="M1232.51,112h32.9q6,0,11.41,5.07a16.28,16.28,0,0,1,5.38,12.3,6.16,6.16,0,0,1-1.92,4.58,5.91,5.91,0,0,1-4.24,1.88c-2.16,0-3.64-.48-4.44-1.46a15.88,15.88,0,0,1-2.3-5.45q-1.1-4-4.86-4h-31.26c-1.51,0-2.26.49-2.26,1.46a3.19,3.19,0,0,0,.92,2.12l47,59.89a14.89,14.89,0,0,1,3.39,9.32,14,14,0,0,1-4.1,9.93,12.41,12.41,0,0,1-9.13,4.28H1234.9a15.87,15.87,0,0,1-11.76-5.15q-5-5.14-5-11.32,0-7.06,6.62-7.06a5.86,5.86,0,0,1,4.36,1.84,6,6,0,0,1,1.81,4.32,4.53,4.53,0,0,0,1.39,3.39,4.82,4.82,0,0,0,3.5,1.35h31.43c1.35,0,2-.54,2-1.61a3.09,3.09,0,0,0-.93-2l-46.89-59.89a14.9,14.9,0,0,1-3.32-9.32,14.12,14.12,0,0,1,4.22-10.19A13.69,13.69,0,0,1,1232.51,112Z"/><path d="M1368.75,211.91h-27a18.21,18.21,0,0,1-12.19-4.28L1317.32,197q-5.86-4.89-5.87-13.24V167.25q-.3-8.06,6.62-14l11-9.55a17.74,17.74,0,0,1,11.43-4.36h28.35a6.36,6.36,0,0,1,4.48,10.83,6.17,6.17,0,0,1-4.48,1.8h-27.14a7.37,7.37,0,0,0-4.89,2l-10.15,8.65a7,7,0,0,0-2.48,5.64v15.41a5.41,5.41,0,0,0,2,4.21l11.13,9.48a8.05,8.05,0,0,0,5.56,1.88h25.87a6.13,6.13,0,0,1,4.44,1.84,6.3,6.3,0,0,1-4.44,10.79Z"/><path d="M1455.3,211.76h-38.5a6.32,6.32,0,0,1,0-12.63h12.93V152H1417a6,6,0,0,1-4.47-1.88,6.12,6.12,0,0,1-1.85-4.44,6.32,6.32,0,0,1,1.85-4.54,6,6,0,0,1,4.47-1.92h19.25a5.94,5.94,0,0,1,4.47,1.92,6.32,6.32,0,0,1,1.85,4.54v53.47h12.63a6.35,6.35,0,0,1,4.55,1.84,6,6,0,0,1,1.92,4.47,6,6,0,0,1-1.88,4.48A6.15,6.15,0,0,1,1455.3,211.76Zm-25.72-105.35h6.62a6.32,6.32,0,0,1,6.32,6.32v5.41a6.34,6.34,0,0,1-1.85,4.55,5.94,5.94,0,0,1-4.47,1.92h-6.77a6,6,0,0,1-4.55-2,5.93,5.93,0,0,1-1.76-4.36l.15-5.56a6.3,6.3,0,0,1,6.31-6.32Z"/><path d="M1561,163.11v15.26a6.42,6.42,0,0,1-6.32,6.32H1510v3.69a6.81,6.81,0,0,0,2.78,5.48l3.68,3.09a9.53,9.53,0,0,0,5.72,2.33h32.48a6.11,6.11,0,0,1,4.44,1.84,6.36,6.36,0,0,1-4.44,10.79h-33.31a19.44,19.44,0,0,1-7-1.39,18.29,18.29,0,0,1-5.38-2.89l-5.64-5a16.2,16.2,0,0,1-4.4-5.86,16.4,16.4,0,0,1-1.77-6.92V160.93a21.23,21.23,0,0,1,6.77-13.24l5.27-4.13a17.78,17.78,0,0,1,11.5-4.21h17.75q6.69,0,12.63,5.56l4.74,4.51Q1561,154,1561,163.11Zm-50.83-1v9.78h38.35v-8.8a6.75,6.75,0,0,0-2.18-5.41l-3.69-3.24c-1.9-1.55-3.61-2.33-5.11-2.33h-15.87a8.12,8.12,0,0,0-5.34,2l-3.68,3.08A5.89,5.89,0,0,0,1510.12,162.13Z"/><path d="M1620.24,154,1603,165.22V205.6a6.32,6.32,0,0,1-12.63,0V145.66a6.31,6.31,0,0,1,1.84-4.54,6.13,6.13,0,0,1,8.91,0,6.22,6.22,0,0,1,1.88,4.54v4.22l11.53-7a24,24,0,0,1,13.1-3.68h5.88a18,18,0,0,1,13,5.34,18.65,18.65,0,0,1,5.8,13.16l1.73,47.9a5.8,5.8,0,0,1-1.8,4.43,6.14,6.14,0,0,1-4.51,1.88,6.33,6.33,0,0,1-4.37-1.69,6.14,6.14,0,0,1-1.95-4.62l-1.88-47.15q-.22-6.62-6.93-6.62h-6.18A11.45,11.45,0,0,0,1620.24,154Z"/><path d="M1740.82,211.91h-27a18.2,18.2,0,0,1-12.18-4.28L1689.38,197q-5.87-4.89-5.86-13.24V167.25q-.3-8.06,6.62-14l11-9.55a17.74,17.74,0,0,1,11.43-4.36H1741a6.36,6.36,0,0,1,4.47,10.83A6.17,6.17,0,0,1,1741,152h-27.15a7.41,7.41,0,0,0-4.89,2l-10.15,8.65a7,7,0,0,0-2.48,5.64v15.41a5.39,5.39,0,0,0,2,4.21l11.13,9.48a8,8,0,0,0,5.56,1.88h25.87a6.11,6.11,0,0,1,4.43,1.84,6,6,0,0,1,1.88,4.48,6.28,6.28,0,0,1-6.31,6.31Z"/><path d="M1840,163.11v15.26a6.42,6.42,0,0,1-6.32,6.32H1789v3.69a6.81,6.81,0,0,0,2.78,5.48l3.68,3.09a9.53,9.53,0,0,0,5.72,2.33h32.48a6.11,6.11,0,0,1,4.44,1.84,6.36,6.36,0,0,1-4.44,10.79h-33.31a19.44,19.44,0,0,1-6.95-1.39,18.29,18.29,0,0,1-5.38-2.89l-5.64-5a16.2,16.2,0,0,1-4.4-5.86,16.4,16.4,0,0,1-1.77-6.92V160.93a21.23,21.23,0,0,1,6.77-13.24l5.27-4.13a17.78,17.78,0,0,1,11.5-4.21h17.75q6.69,0,12.63,5.56l4.74,4.51Q1840,154,1840,163.11Zm-50.83-1v9.78h38.35v-8.8a6.75,6.75,0,0,0-2.18-5.41l-3.69-3.24c-1.9-1.55-3.61-2.33-5.11-2.33h-15.87a8.12,8.12,0,0,0-5.34,2l-3.68,3.08A5.89,5.89,0,0,0,1789.17,162.13Z"/><path class="b" d="M2058.22,243.5a8.13,8.13,0,0,1-5.89-2.62,9.35,9.35,0,0,1-2.61-6.3c-1.37-23.77,14.5-37.25,28.51-49.14,9.91-8.42,19.28-16.38,23.66-27.49l.14-.34.17-.31c4.27-7.93,9.85-9.11,12.8-9.11,9.68,0,16.72,11.24,17.7,21.65,1.06,11.34-5.12,20-15.76,22.09-22.91,5.84-43.75,24.39-50.72,45.17l-.08.21C2064,243.06,2059.53,243.5,2058.22,243.5Z"/><path class="b" d="M1343.72,593.61c-10.65,0-18.21-5.67-20.74-15.56-15.17-59.14,36.89-102.87,86.08-122.34,7.72-3.06,11.75-6.29,13-8.29,8.66-14.43,18.49-36.67,23.61-51.43-1.47,1.62-2.83,3.15-3.86,4.32a100.79,100.79,0,0,1-7.06,7.54c-5.28,4.66-10.32,9.95-15.2,15.06s-9.79,10.26-15.14,15.06c-8.55,7.65-38.42,32.61-64,32.61-10.54,0-19.2-4.31-25-12.48-5.49-7.64-8.6-18.82-9.29-33.28a167.87,167.87,0,0,1-49.51,42.05c-3.31,1.88-5.2,5.19-7.4,9-.48.83-1,1.66-1.45,2.48-23.7,39.69-50.21,80.47-90.45,104.81-9.86,6-18.71,9-26.33,9-9,0-16.15-4.25-20-12-6.83-13.56-2.1-35.81,11.49-54.09a201.13,201.13,0,0,1,86.57-66.32c3.28-1.33,5-3.88,7.49-7.95a46,46,0,0,1,4.94-6.95c3.44-4.59,16.81-32.66,22.82-49.32-26.65,25.84-76.68,73.09-108.92,73.09-8,0-14.66-2.74-19.76-8.13-8.23-8.71-11.91-23.9-11.21-46.35-14.21,13-63.83,56.91-87.71,56.91-6.7,0-10.39-3.13-12.31-5.75-4.67-6.39-4.41-17,.83-33.52.77-2.43,1.62-4.87,2.56-7.36a175.46,175.46,0,0,1-30.75,29.08c-16.42,11.88-37.41,19.57-53.46,19.57-11.38,0-20.45-3.73-26.23-10.77-6.38-7.78-8.52-19.16-6.37-33.86-16.58,14.85-32.27,27.75-51.53,36.27-8.41,3.72-16.2,5.61-23.12,5.61-9.71,0-23.07-3.79-31.61-21.88-4.47-9.46-7.3-22.22-8.43-38-21.6,30.42-59.85,49.85-98.82,49.85-17.43,0-34.12-4-48.26-11.46a39.59,39.59,0,0,0-5.89-2.74,19,19,0,0,0-.84,2.05c-2.87,8.06-5.54,17.24-8.37,27-13.09,45-29.38,101.05-82.68,101.05-2,0-4.08-.08-6.16-.25-9.73-.77-14.1-5.49-16.05-9.31-6.5-12.72,4-33.26,16.38-53.56.49-.8.94-1.54,1.34-2.21,9.3-15.45,19.28-30.83,28.94-45.7,22.77-35.09,46.32-71.36,62.25-110.79a50.62,50.62,0,0,0,1.64-5.86c-4.32,5.51-8.41,11.27-12.41,16.9-5.23,7.35-10.63,14.95-16.57,22.07l-4.74,5.68c-26.3,31.63-56.12,67.48-98.23,80.9l-.18.06-.18,0a29.35,29.35,0,0,1-7.23.9,32.84,32.84,0,0,1-25.11-12.26A32,32,0,0,1,448.35,436c3.18-15.2,11.23-27.84,18.53-38.5l2.37-3.47c5.51-8.08,11.76-17.23,17.81-24.68,4-4.94,4-9.07-.16-16.39-2.63-4.66-6.65-7.12-11.62-7.12a19.47,19.47,0,0,0-9.83,3C443,362.2,432.32,385.52,421,410.21c-3.61,7.87-7.34,16-11.44,23.66-3.77,7-7.67,14.3-13.1,20.63a24.56,24.56,0,0,1-19.25,8.63,36,36,0,0,1-9.29-1.29c-9.85-2.64-16.16-10.29-17.53-21.15l-.46,0a34.45,34.45,0,0,1,.8-12.42c-26.22,23.66-54.54,44-85.15,44a64.39,64.39,0,0,1-26.89-5.88C224.4,459.83,216,447,215,430.34c-2.37-40.46,19.58-74.71,40.82-107.82,5.21-8.14,10.13-15.82,14.71-23.59-.7.79-1.4,1.6-2.08,2.4-13,15.33-25.58,32.75-38.88,51.19-32.62,45.24-66.36,92-111.68,114.58A52.23,52.23,0,0,1,94.52,473c-14.6,0-28.16-7.24-37.22-19.88a57.89,57.89,0,0,1-7.52-52.25c10.76-31.77,31-58.08,50.66-83.53,5.48-7.11,11.15-14.47,16.47-21.78,8.15-11.18,17.46-21.8,26.46-32.06,17.7-20.18,34.42-39.25,43.89-63a10.17,10.17,0,0,0,.36-1,14.58,14.58,0,0,0-1.89-.28c-2.3-.2-4.62-.31-6.9-.31-30.47,0-54.88,18.09-80.72,37.23C76.41,252.14,54,268.76,27.25,274.26a41.08,41.08,0,0,1-8.34.95c-10.65,0-14.53-5.87-15.9-9.36-8.1-20.69,30.09-70.06,40.06-79.27A274.34,274.34,0,0,1,115.78,138c27.78-12.63,56.17-19.61,84.39-20.76,2.29-.09,4.91-.25,7.7-.42,5.95-.36,12.69-.77,19.62-.77,13.16,0,31.76,1.3,41.24,12.47,5,6,6.82,13.78,5.25,23.25-9,54.23-49.74,99.16-85.71,138.79-5.69,6.27-11.06,12.19-16.33,18.16-1.92,2.17-3.88,4.36-5.85,6.55-19.37,21.64-39.41,44-39.43,72.78,0,8.11,1.65,12,3.05,13.87.93,1.24,2.46,2.66,6.07,2.66,12.45,0,33.5-16,43.11-27.45l6.39-7.62c20.44-24.35,41.57-49.53,61.15-75.07,10.2-13.31,19.43-28.12,28.35-42.44,16.33-26.18,33.2-53.26,57.26-73.58,7.63-6.45,15.23-9.72,22.59-9.72,8.88,0,16.93,4.89,22.66,13.76,9.85,15.24,11.45,39.68,3.72,56.85-15.22,33.77-38.71,62.35-61.43,90-22.25,27.06-45.25,55.05-59.46,87.16-1.74,3.92-3.37,9.27-1.29,12.46,2.19,3.37,8.84,5.3,18.24,5.3a108.57,108.57,0,0,0,34.76-6.36c34.45-13.27,50.86-43.73,68.22-76,3.64-6.76,7.41-13.74,11.3-20.44,3.49-6,8.11-11.11,12.57-16,1.93-2.13,3.75-4.14,5.48-6.21,5.4-6.47,22-11.31,33.14-11.31,7.5,0,12.71,2.08,15.48,6.17,1.63,2.4,3.06,6.54.63,12.61a112.67,112.67,0,0,1-5.14,10.87c16.12-14.73,33-29.53,53.88-39.06,10.41-4.76,20.57-7.27,29.39-7.27,12.09,0,21.31,4.81,25.31,13.19,3,6.33,5.44,20.25-12.37,42.26-4.67,5.77-9.66,11.44-14.48,16.92-14.6,16.59-28.39,32.26-35.68,52.1-1.79,4.84-1.79,8.91,0,11.48,1.65,2.38,5.06,3.69,9.59,3.69.81,0,1.66-.05,2.52-.13,28.2-2.71,46.8-26.68,64.78-49.87,4.12-5.32,8.39-10.82,12.63-15.85,3.62-4.29,7.88-10.8,12.39-17.7C615.37,316,632.68,289.5,655,289.5a28.49,28.49,0,0,1,6.73.82c8.89,2.18,13.31,7.41,13.91,16.48A46,46,0,0,1,672,327.72c3.58-2.76,7.16-5.66,10.88-8.66,21.72-17.51,44.18-35.62,74.24-35.62l2.06,0c5.47.15,13.29,1,18,6.82,3.39,4.14,4.42,9.73,3.16,17.1-6.57,38.25-33.18,77.3-79.09,116.07a25.78,25.78,0,0,0,13.25,3.9,26.94,26.94,0,0,0,11.14-2.58c26-11.82,46.68-39.29,55.28-73.49,6.29-25,20.87-73.79,47.8-119.56,26.68-45.35,57.15-73.41,90.56-83.4a28.42,28.42,0,0,1,8-1.29A15.87,15.87,0,0,1,942,155.66c11.45,21.51-13,78.64-25.55,97.26-22.5,33.42-47.69,65.13-69.37,91.75-2.27,2.79-4.65,5.56-7,8.24-7.95,9.24-15.46,18-19.79,28.51-4.2,10.22-3.77,29.24,3.57,40.18,3.43,5.13,7.77,7.62,13.26,7.62a21.3,21.3,0,0,0,3.48-.31c34.75-5.94,55.79-38.37,72.79-68.31l.17-.3c8.76-15.43,17.82-31.39,31.47-44.27,12.1-11.43,31.1-19,48.41-19.3l1.74,0c3.76,0,10.77,0,13.67,5.34s-1,11.39-2.44,13.65a146.08,146.08,0,0,1-12.13,15.49c-3,3.52-5.88,6.84-8.5,10.36-2.16,2.92-6.07,7.08-11,12.34-12.48,13.29-38.46,40.92-35.46,53.77.39,1.69,1.53,4.16,6.82,6.15A32.74,32.74,0,0,0,957.66,416c17.37,0,34.48-14.84,52.31-45.37,1.26-2.14,2.72-4.68,4.35-7.51,19.17-33.3,40.93-69.58,56.4-78.46,5.33-3.06,15.39-5.2,24.46-5.2,7.17,0,16.83,1.34,22.12,7.7,2.13,2.56,4.4,7,3.16,13.69-1.88,10.14-13.89,24.77-18.36,29.55-2.92,3.12-6.74,6.53-11.17,10.49-17.43,15.55-43.76,39.05-39.56,70,.29,2.09,1.49,6.93,6.57,6.93a10,10,0,0,0,3.42-.66c19.6-7.2,43-30,52.41-43.66,4.11-6,7.84-11.81,11.44-17.43,18.49-28.82,34.46-53.7,78.38-61.49l4-.72c10-1.82,23.67-4.31,34.82-4.31,14.2,0,21.95,4.32,23,12.85,1.69,13.17-20.51,21-47.49,29.09-3.11.93-5.79,1.74-7.51,2.33-22.08,7.59-50.23,25-59.87,45.34-4.08,8.61-4.56,16.85-1.46,25.22,2.15,5.83,7.29,15.61,17.43,15.61,3.7,0,7.75-1.28,12-3.8,21.74-12.76,37.67-31.76,54.53-51.87,13.73-16.38,27.93-33.31,45.58-46.61,4.43-3.34,11.46-5.5,17.92-5.5,6.13,0,10.82,2,13.58,5.64,1.74,2.32,3.44,6.39,1.63,12.54-1.64,5.57-3.74,11-5.77,16.19-1.23,3.16-2.5,6.44-3.62,9.63-.84,2.4-4,8.16-10.48,19.91-6.6,12-14.81,26.84-21.45,40.2a213.76,213.76,0,0,0-8.81,19.58c11.9-8.44,31.49-25.86,37.71-33,9.54-11,10.6-16.2,11.94-22.75a62,62,0,0,1,3-11c15.11-38.88,44.32-64.18,80.15-69.42a170.73,170.73,0,0,1,22.24-1.37c29,0,35.38,6.77,37.46,9a12.71,12.71,0,0,1,3.56,9.78c-1.26,19-29.68,22.81-54.29,24-15.56.73-29.44,10.1-45,30.37-7.72,10-16,26.37-14.06,39.35a19.87,19.87,0,0,0,8.68,13.85,17.51,17.51,0,0,0,10.39,3.46c20.39,0,44.65-33.24,57.69-51.09,2.93-4,5.45-7.47,7.44-9.89,8.22-10,42.21-39,61.74-39,9.41,0,15.11,6.28,15.25,16.8.15,11.44-3.26,18-7.58,26.32l-1,2q-4.15,8.06-8.25,16.15c-8.91,17.49-18.08,35.52-28.09,52.91,6-4,14.59-11.62,21.34-17.64,10.71-9.56,21.78-19.44,30.79-23.83,0-.24.12-.6.19-1.11,7.55-60.1,50.9-103.49,110.44-110.55a70.7,70.7,0,0,1,8.31-.46c19.72,0,44.59,7.07,52.58,22.61,3.26,6.34,5.09,16.76-4.7,30.45-24.76,34.61-61.56,49.07-100.53,64.38q-5.34,2.1-10.75,4.24c.08.29.19.63.34,1a34.13,34.13,0,0,0,31.78,22.44,30,30,0,0,0,16.4-4.84c5.16-3.35,10.69-6.45,16-9.45,13.37-7.5,26-14.58,34.19-25.62,6.8-9.16,13.23-18.67,20-28.74,15.84-23.43,32.21-47.66,53.84-67.6,11.72-10.81,37.78-22.38,57.91-22.38,10.06,0,17.84,2.77,23.13,8.23a23.9,23.9,0,0,1,5.44,9q4.61-14,8.8-27.05c11.13-34.41,20.75-64.12,30.56-85.87,13.15-29.14,27.09-35.25,36.47-35.25,7.08,0,13.68,3.5,18.58,9.87A35.68,35.68,0,0,1,1928,184c-9.93,37.61-30.61,70.91-50.61,103.1-10.25,16.51-20.86,33.58-29.73,50.84-16.69,32.48-32.4,68.81-7.28,88.78,4.24,3.38,8.25,5,12.28,5,13.66,0,26.84-19,37.42-34.29,3.2-4.61,6.23-9,9.08-12.55l2.61-3.28c15.73-19.78,32-40.24,57.49-48.9l1.53-.51c-6.12-17.4-9.39-32.89-9.72-46.05-.49-19.93,5.64-34.76,18.24-44.09,3.33-2.46,7.83-3.76,13-3.76a34.84,34.84,0,0,1,16.49,4.26,36.86,36.86,0,0,1-3.73-5.05c-6.29-10.59-6.56-24.08-.7-34.39,4-7,10.21-11.06,17-11.06,3.79,0,9.59,1.31,15.68,7.56,11.72,12,20.87,27,29.72,41.46,4.64,7.58,9,14.75,13.63,21.3,4.41,6.26,12.35,17.11,18.73,25.83,5.18,7.09,9.28,12.69,10.37,14.3,5.39,7.93,5,15.84-1.19,21.71-29.31,28-55.81,41.6-81,41.6h0a68.21,68.21,0,0,1-29.6-6.82,39.89,39.89,0,0,0-17.51-4.26c-28.6,0-53.62,35.76-75.7,67.31-12.6,18-24.51,35-36.76,45.47s-24.62,15.88-36,15.88-21.47-5.46-28.13-15.38c-7.85-11.7-10-28.09-6.47-45-9.89,14.17-21.61,29.1-35.78,42-13.74,12.54-28,19.17-41.12,19.17a36.87,36.87,0,0,1-28.07-12.79c-10.54-11.76-15.65-30.37-14.29-51.61-26.44,26.31-59,57.06-100,58.6-.74,0-1.47,0-2.2,0-32.25,0-50-25.95-51.34-52.09-5.39,2.28-11.84,7.72-15.2,10.56-.82.69-1.52,1.28-2.06,1.71-2.2,1.77-4.62,4-7.18,6.29-7.95,7.23-17.84,16.23-32.43,22.89-2,.9-3.57,3.91-6.71,10.1l-1.2,2.36c-22.55,44-44.24,82.4-81.31,106C1363.52,589.2,1353.15,593.61,1343.72,593.61Zm443-265.43c-24.35,0-40.6,18.06-59.42,39-4,4.48-8.22,9.13-12.59,13.71-11.17,11.72-16.31,35.49-10.56,48.9,2.46,5.75,6.53,8.55,12.44,8.55,5.63,0,12.63-2.44,20.8-7.24,32.88-19.32,56.76-44,65.52-67.82q7.23-19.63,13.52-38.08a27.2,27.2,0,0,1-14.36,4.57,20.63,20.63,0,0,1-4-.39A58,58,0,0,0,1786.73,328.18ZM714.09,337.24c-6.94,0-16.35,2.95-26.51,8.3-19,10-53.43,49.8-55.6,69.93,8.64-2.07,17.92-3.93,27.47-3.93a64.45,64.45,0,0,1,15.77,1.87,2.66,2.66,0,0,0,.54-.23c14.15-10,24.34-25.1,34.2-39.67l3.31-4.88c10.07-14.75,11.48-24.11,9.45-28C721.22,337.83,717.2,337.24,714.09,337.24Zm919.91-20c-13.71,0-37.06,15.11-53.15,34.41-11.2,13.43-17.06,26.5-16.38,36.35,31.79-7.75,79.8-28.67,80.32-54.38.14-6.56-1.1-11.36-3.56-13.88C1639.58,318,1637.21,317.22,1634,317.22Zm373.44-66c4.29,9.2-3.59,19.23-10,27.34a61.32,61.32,0,0,0-5.25,7.3c-9.35,17.65-8.61,30.78,2.54,45.33,8.69,11.34,20.45,13.72,28.78,13.72,19.73,0,41-13.31,48.47-30.29.07-.16,1.58-4.08-10.53-16.65-8.64-9-20.82-19-32.6-28.61C2020.88,262.85,2013.44,256.75,2007.44,251.26Zm-1106.38-38c-3.49,0-16.95,3.67-43.42,51-15.22,27.18-27.73,56.25-30.56,63.76-.13.37-.41,1.09-.64,1.83.46-.47.91-1,1.24-1.33l.16-.17c1.92-2.12,3.86-4.23,5.79-6.34,7-7.57,14.12-15.41,20.77-23.37,7.14-8.55,22-26.35,33.74-43.68,16.72-24.65,18-34.66,17.27-38.43a3.25,3.25,0,0,0-1.8-2.57A5.2,5.2,0,0,0,901.06,213.29Z"/><path class="b" d="M2097.63,274.94a7.83,7.83,0,0,1-7.35-4.61c-1.73-3.94-.19-8.56,4.58-13.73l.54-.57C2112,238.42,2139.88,209,2167.6,209a37.45,37.45,0,0,1,18.43,4.79c2.81,1.49,9.24,4.95,8,10.91-.78,3.75-4,5.87-9.5,6.3l-.2,0h-.21c-18.14.18-65,25.32-76.49,38.91l-.11.13-.12.13C2104.5,273.19,2100.94,274.94,2097.63,274.94Z"/><path class="c" d="M2055.72,234.44c-2.23-36.05,40-44.46,51.76-74.29,11.54-21.41,32.3,21.36,8.15,25.92-24.4,6.16-47.3,25.86-55.1,49.12C2058.82,239.69,2055.62,236.62,2055.72,234.44Z"/><path class="d" d="M2184.06,225c-20.14.2-68.3,26-81,41-5.11,5.39-11.65,3.21-3.78-5.35,19.59-20.72,54.5-58.08,83.89-41.65C2189.32,222.28,2190,224.51,2184.06,225Z"/><path class="e" d="M2094.53,305.84c-2.37-3.49-21.15-28.84-29-40-13.65-19.37-25.54-44.41-42.74-62-17.62-18.06-34.57,10.42-22.56,30.63,11.27,19,85.47,64.08,77.31,82.67-13.46,30.69-63.78,48.76-87.51,17.81-13.46-17.57-12.73-33.55-3.07-51.79,4.19-7.91,19.68-21.46,14.74-29.94-4.64-8-21.37-11.82-28.82-6.3-24.72,18.29-15.34,58.13-6.31,83.66,2,5.53.28,5.92-5.38,7.85-25.21,8.55-41.41,30.27-57.34,50.23-15.56,19.5-38.13,65.91-67.21,42.78-30.3-24.1-8.65-68.32,5.69-96.22,26.16-50.92,65.1-96.78,79.87-152.73,6.3-23.9-23.83-58.27-49.93-.43-17.78,39.41-34.67,104.59-63.68,183.35-10.9,29.57-40.4,54.63-68.11,70.91-52.58,30.9-53.21-35.24-30.06-59.52,28.09-29.46,48.12-61.41,88.85-53.25,10.14,2,23.45-7.48,23.82-18.83,1.3-40.53-59.55-19.73-78.06-2.65-30.13,27.78-50.13,64.55-73.12,95.5-12.53,16.88-34.21,25.12-51.77,36.53-20.73,13.47-49,2.25-57.11-20.64-1.66-4.71-1.25-6.88,2.49-8.37,42.74-17,83.17-30.36,109.23-66.78,23.23-32.48-24.55-46.24-50.6-43.15-56,6.64-97.91,47.35-105.2,105.33-.42,3.35-1.33,4.74-3.06,5.55-17.63,8.22-47.33,43.19-59.91,44.9-2.62.36-6.89-.7-3.77-6,14.29-24.18,26.61-49.47,39.48-74.44,4.67-9.08,8.09-14.75,7.95-25.5-.4-30.44-54.2,11.11-66.35,25.92-12.8,15.6-52.23,80.8-83.63,58.62-21.46-15.16-8.62-45.22,4.09-61.76,14.35-18.68,29.72-31.77,49.48-32.7,28.3-1.34,47.79-6.23,48.6-18.38,1-15.24-44.17-12.86-56.41-11.07-36.67,5.36-62.48,32.35-75.42,65.66-4.82,12.39-.77,17.86-16,35.49-7.75,8.95-35,32.93-45.62,38.31-20.86,10.6,35.59-82.7,38.45-90.87,3-8.5,6.74-16.85,9.29-25.53,4.07-13.82-16.27-11.84-23.76-6.2-38,28.65-59.52,74.7-100.68,98.87-17.39,10.21-31.62,2.73-38.14-14.91-13.62-36.8,34.73-67.91,65-78.31,10.94-3.76,52.41-13.93,51-25-1.7-13.33-37.63-5.72-54.86-2.67-49.34,8.75-60.3,39.05-85.91,76.4-9.67,14.09-34.12,38.12-55.29,45.9-9,3.3-16.71-1.56-18-11.09-5.72-42,37.86-69.92,52.28-85.36,5.83-6.23,15.45-19,16.85-26.55,3.55-19.09-31.39-15.32-40.85-9.89-17.21,9.89-46.81,63.7-58.56,83.8-14.46,24.75-38.94,57.82-71.07,45.79C908.31,406,970.84,351.72,981,338c6.5-8.76,14.48-16.4,20.41-25.54s.76-9.86-7.83-9.71c-15.55.27-33.09,7-44.39,17.66-13.08,12.35-21.8,27.77-30.54,43.17-17.41,30.67-39.69,64.89-77,71.26-28.6,4.88-34.66-36.72-26.87-55.68,6.06-14.75,17.74-26.1,27.65-38.26,24.13-29.63,47.7-59.6,69-91.31,17.61-26.16,46.6-106.56,9.58-95.49-71.15,21.27-116.4,127.68-134.26,198.68-8.2,32.6-28.78,63.93-58.62,77.48-10.86,4.94-21.59,4-31.71-2.73-3.61-2.41-4.12-4.37-.31-7.56,34.31-28.75,70.59-68.54,78.32-113.57,2.06-12-3.19-16.57-15.45-16.92-36.69-1-62.36,28-89.78,47.85-6.92,5-10.73,3.06-5.93-5.44,4.32-7.64,6.94-15.77,6.34-24.68-.43-6.5-3.06-9.5-9.35-11-28.38-7-51,44.12-66.65,62.67C571.19,385.46,550,423,512.25,426.64c-15.75,1.51-23.79-8.32-18.32-23.08,10.25-27.9,32.85-48.13,51.13-70.72,30.37-37.54,3.89-56.79-35.18-39-27.12,12.39-47.27,34.05-69.22,53.35-4.82,4.23-6.42,1-4.63-2.21,2.14-3.89,5-7.37,7.16-11.25,3.52-6.34,7.21-12.68,9.89-19.38,7.2-18-32.6-9.15-39.07-1.4-5.87,7-12.89,13.53-17.47,21.43-21.85,37.58-38.23,81.93-82.56,99-20.08,7.73-75,16-59.35-19.42,29-65.56,91.05-110.92,120.9-177.18,13.59-30.16-5.68-82.5-39.62-53.84-36.4,30.74-55.81,77.36-84.72,115.08-21.68,28.28-44.79,55.57-67.7,82.9-15.38,18.33-62.87,52.38-62.83,7.05,0-34.13,25.5-59.2,46.78-83.29,39.49-44.71,90.6-93.34,100.62-154,5.89-35.56-44.74-28.48-67.64-27.55-56.66,2.3-111.35,29-153.28,67.77-14,12.93-66.73,86.8-21.1,77.41,58.5-12,96.53-80.91,160.23-75.22,6.73.61,9.06,3.28,6.56,9.53-14.94,37.44-47.63,64.17-71.06,96.34-24.12,33.11-52.88,64.06-66.31,103.7-12.53,37,19.29,79.15,59.76,59,62.15-31,103.6-111.2,148.66-164.28,5.68-6.69,11.92-12.95,18.19-19.12,4.59-4.52,8-.3,5.24,4.63-3.65,6.45-7.83,12.61-11.6,19-23.26,39.54-57.53,79.92-54.71,128,.8,13.65,7.19,25,20.19,30.92,41.67,19,84-16.88,113.09-44.08,3.86-3.61,8.81-3.83,5.28,3.84a37.36,37.36,0,0,0-1.95,5.29,31.52,31.52,0,0,0-1.73,14l.31-1.61c.56,8.11,4.41,15.35,13.28,17.72,8.45,2.26,16.69,1.26,22.44-5.45,5-5.8,8.72-12.77,12.36-19.55,16.48-30.73,26.32-68.43,58.11-87.35,11.25-6.69,23.55-4.6,29.75,6.35,4.32,7.65,6.23,15-.41,23.13S478,392,471.83,400.92c-7.67,11.21-14.76,22.71-17.61,36.34-4,19.32,14.3,35.5,31.58,31.14,42.87-13.66,72.42-51.47,100.19-84.71,12.68-15.18,22.73-32.5,35.9-47.26,10.21-11.45,3.18,16.33,1.6,20.25-22.93,56.76-60.35,105.4-91.61,157.33-8,13.26-34.21,53.8-6.34,56,64.71,5.14,74.48-77.1,91.08-123.8,2.81-7.89,5.58-7.7,15.2-2.6,45.27,24,111.61,6.67,141.82-40.16,6.63-10.29,7.78-5.3,8.2,2.71,1.81,35,12.35,72,55,53.11,20.59-9.11,37.24-23.75,53.72-38.65,1.62-1.47,9.42-8.2,7,4.14-11.6,58.16,44.83,46.35,75.82,23.93,18.09-13.09,32-29.72,44.9-47.88,4.09-5.76,8.32-2.42,5.28,3.34a181.48,181.48,0,0,0-12.76,29.5c-24.52,77.12,75-9.65,93.16-27.36,3.79-3.7,6.86-2.67,6.52,3.37-6.52,115.86,99.47,10.76,135.08-23.81,23.67-23-15.49,58.39-19.7,63-5,5.46-6.69,13.28-14.71,16.51a195.09,195.09,0,0,0-84,64.34c-24.24,32.61-15.95,74.31,27,48.36,39.49-23.89,65.14-63.8,88.4-102.75,3-5.07,5.42-10.48,11-13.67,20.07-11.4,37.3-26,51-44.8,4.34-6,7.3-3.35,7.35,2.73.58,72.27,56.62,42.49,88.52,13.92,10.62-9.51,19.68-20.71,30.38-30.15,6-5.33,29.12-36.19,23.25-14-3.78,14.28-16.21,43.46-26.82,61.15-3.34,5.55-12.67,9.5-15.89,10.77-39,15.45-97.87,55.24-82.48,115.28,4.85,18.93,29.78,8.68,36.17,4.61,37.34-23.73,59.49-65.17,79.19-103.63,4.38-8.55,6.38-13.18,10.76-15.18,18.48-8.44,29.19-21.07,38.35-28.4,3.55-2.84,14-12.62,22.53-14.34,5.12-1,4.35,2.12,4.42,5.05.61,25.17,18,48.86,47.37,47.75,40.24-1.51,72.56-33.44,99.71-60.54,3.83-3.82,7.88-5,6.94,3.55-5.84,53.19,30.09,84.38,73,45.19,17-15.57,30.49-34,43.11-53.17,6.11-9.28,10.53-5.87,6.73,3.43-19.15,46.76,12.44,89.82,56.68,52C1892,430.29,1930.7,325,1990.25,353.54c38.68,18.52,76.6-7.62,103.91-33.7C2097.81,316.34,2098.6,311.84,2094.53,305.84ZM821.47,325.89c5.65-15,56.69-132.49,85-117.24,20.78,11.21-27.32,69.69-47.44,93.81-8.57,10.27-17.74,20-26.74,29.91-2.52,2.77-5.59,6.29-9.63,3.87S820.16,329.35,821.47,325.89ZM679.23,418.07a7.06,7.06,0,0,1-5.09,1.25c-14.17-3.62-27.93-1.13-41.71,2.21-2,.49-5.92.93-6.18-.31-4.76-22.94,38.36-70.36,58.53-81,37.11-19.56,59.54-6.45,33.45,31.77C706.93,388.56,695.89,406.26,679.23,418.07Zm879.61-26.77c-7.78-42.6,93.18-117.87,92-57.58-.7,34.47-64.67,55.48-87.41,60.68C1560.29,395.1,1559.38,394.24,1558.84,391.3Z"/></svg>