<svg id="Layer_1" data-name="Layer 1" xmlns="http://www.w3.org/2000/svg" viewBox="0 0 3106.33 547.64"><defs><style>.cls-1{fill:#cc0423;}.cls-2{fill:#0f091c;}.cls-3{fill:#fff;}</style></defs><path class="cls-1" d="M1867.9,188.43c-12.88-42.59-39.58-74.95-79.34-96.17-114.92-61.32-309.3-12.32-387.55,11.59-53.22,16.28-106.38,38.74-162.65,62.52-135,57-274.5,116-410.37,81.86a191.86,191.86,0,0,1-20.76-6.43l.88-.68c25.39-20,40.29-51.4,38.89-82-1.54-33.61-22.74-64.25-52.75-76.24C762,70,723,81,703.61,108.63c-22.6,32.23-13.73,75.54,5.09,104.17a145.24,145.24,0,0,0,17.75,21.89.08.08,0,0,1,0,.14c-86.63,20.87-188.34,23-303.52,6.59V37.25a20,20,0,0,0-20-20H65.64a20,20,0,0,0-20,20v221.6a20,20,0,0,0,20,20H417.4c123.31,17.61,232.35,14.63,325.28-9,7-1.78,14.3-3.8,21.7-6.28,0,0,0,0,.07,0A217.57,217.57,0,0,0,818.77,285c148.17,37.2,293.63-24.27,434.32-83.72,55.35-23.38,107.64-45.47,159-61.18,57.52-17.59,253.35-70.61,358.65-14.39,31,16.54,50.92,40.66,60.93,73.72,15.69,51.9-6.86,112.08-51.35,137a.09.09,0,0,0,0,.12l18.41,32.88a.08.08,0,0,0,.12,0C1858.19,336.17,1888.53,256.66,1867.9,188.43ZM784.7,211.36a85.25,85.25,0,0,1-16.1,9.83.08.08,0,0,1-.09,0A115.08,115.08,0,0,1,740.34,192c-11.41-17.35-18.07-44-5.73-61.62,6.64-9.46,19.07-15,31.44-15A38.17,38.17,0,0,1,780.2,118c16.2,6.47,28.11,24.07,29,42.81S800.65,198.82,784.7,211.36Z"/><rect class="cls-1" x="1570.17" y="379.18" width="54.34" height="24.27" rx="0.09" transform="translate(-41.04 533.9) rotate(-18.74)"/><rect class="cls-1" x="1594.86" y="451.93" width="54.35" height="24.27" rx="0.09" transform="translate(-63.09 545.93) rotate(-18.75)"/><path class="cls-2" d="M55.64,325.76H81.05a10,10,0,0,1,10,10v98c0,5.5.24,14.5.52,20A47.43,47.43,0,0,0,93,461.53a35.22,35.22,0,0,0,6.43,13.6,29.36,29.36,0,0,0,11.8,8.8q7.32,3.13,18.07,3.14,10.46,0,17.77-3.14a29.46,29.46,0,0,0,11.81-8.8,35.35,35.35,0,0,0,6.42-13.6,47.43,47.43,0,0,0,1.42-7.79c.29-5.49.52-14.49.52-20v-98a10,10,0,0,1,10-10h25.7a10,10,0,0,1,10,10V439.43c0,5.5-.38,14.48-.84,20,0,0-1.1,12.94-5,22.9a71.3,71.3,0,0,1-16.73,25.55,77,77,0,0,1-26.44,16.57,95.73,95.73,0,0,1-34.65,6,97.86,97.86,0,0,1-34.65-5.83A74.1,74.1,0,0,1,68.2,508a72.5,72.5,0,0,1-16.72-25.69c-3.89-10-5-22.9-5-22.9-.47-5.48-.85-14.46-.85-20V335.76A10,10,0,0,1,55.64,325.76Z"/><path class="cls-2" d="M260.27,325.76h27.59a11.18,11.18,0,0,1,8.38,4.55l74.18,114.14c5.06,7.78,9.2,6.56,9.2-2.72v-106a10,10,0,0,1,10-10h24.5a10,10,0,0,1,10,10V520.39a10,10,0,0,1-10,10H388.61a11.18,11.18,0,0,1-8.37-4.52L304,409.15c-5-7.73-9.18-6.5-9.18,2.73V520.39a10,10,0,0,1-10,10H260.27a10,10,0,0,1-10-10V335.76A10,10,0,0,1,260.27,325.76Z"/><path class="cls-2" d="M463,335.76a10,10,0,0,1,10-10h62.59q18.53,0,31.66,5.53a62.52,62.52,0,0,1,21.66,14.57,56.68,56.68,0,0,1,12.55,21,77.16,77.16,0,0,1,4,24.85q0,16.56-5.52,29A59.43,59.43,0,0,1,585,441.43,65.21,65.21,0,0,1,563.33,454a76.93,76.93,0,0,1-25.69,4.3H516.87a10,10,0,0,0-10,10v52.09a10,10,0,0,1-10,10H473a10,10,0,0,1-10-10Zm70.2,85.11q12.54,0,19.86-7.83t7.32-20.39q0-12.88-7.47-21t-20-8.13h-16a10,10,0,0,0-10,10v37.37a10,10,0,0,0,10,10Z"/><path class="cls-2" d="M645.61,325.76h25.11a10,10,0,0,1,10,10V478.81a10,10,0,0,0,10,10H766a10,10,0,0,1,10,10v21a10,10,0,0,1-10,10H645.61a10,10,0,0,1-10-10v-184A10,10,0,0,1,645.61,325.76Z"/><path class="cls-2" d="M808.11,325.76h25.41a10,10,0,0,1,10,10V443.41a74.43,74.43,0,0,0,1.94,17.72,35,35,0,0,0,6.43,13.56,29.48,29.48,0,0,0,11.8,8.78q7.32,3.12,18.07,3.13,10.46,0,17.77-3.13a29.51,29.51,0,0,0,11.81-8.78,35.1,35.1,0,0,0,6.42-13.56,74.43,74.43,0,0,0,1.94-17.72V335.76a10,10,0,0,1,10-10h25.7a10,10,0,0,1,10,10v113.3a89.26,89.26,0,0,1-5.82,32.77,70.93,70.93,0,0,1-16.73,25.47,76.85,76.85,0,0,1-26.44,16.52,95.91,95.91,0,0,1-34.65,6A98.31,98.31,0,0,1,847.11,524a74.27,74.27,0,0,1-26.44-16.53,72.55,72.55,0,0,1-16.73-25.62,89.26,89.26,0,0,1-5.83-32.77V335.76A10,10,0,0,1,808.11,325.76Z"/><path class="cls-2" d="M1115.8,418.16h56.77a10,10,0,0,1,10,10V497.6a9.9,9.9,0,0,1-3.83,7.87,113.46,113.46,0,0,1-32.47,17.18q-20.76,7.14-47.34,7.14-24.5,0-43.76-7.43a92.94,92.94,0,0,1-32.71-20.84A88.72,88.72,0,0,1,1002,469.46a115.88,115.88,0,0,1-7-41.1,107.76,107.76,0,0,1,7.47-40.51,96.37,96.37,0,0,1,21.21-32.5,99.47,99.47,0,0,1,32.55-21.72q18.83-7.86,41.83-7.87,27.18,0,47.65,9.76A93.09,93.09,0,0,1,1172.89,355a10,10,0,0,1-.36,14.32l-16.18,15a10,10,0,0,1-13.78-.18A85.52,85.52,0,0,0,1128.05,373q-11.5-7-28.23-7a57.79,57.79,0,0,0-24.49,5,54.2,54.2,0,0,0-18.22,13.4,57.63,57.63,0,0,0-11.35,19.82,74.29,74.29,0,0,0-3.89,24.19,68.78,68.78,0,0,0,4.48,25.36,55.18,55.18,0,0,0,31.52,31.77,63.26,63.26,0,0,0,23.74,4.37,79.94,79.94,0,0,0,21.81-2.78,50.66,50.66,0,0,0,13-5.65A9.89,9.89,0,0,0,1141,473V458.72a5,5,0,0,0-5-5H1115.8a10,10,0,0,1-10-10V428.16A10,10,0,0,1,1115.8,418.16Z"/><path class="cls-2" d="M1331.78,418.16h56.77a10,10,0,0,1,10,10V497.6a9.9,9.9,0,0,1-3.83,7.87,113.46,113.46,0,0,1-32.47,17.18q-20.76,7.14-47.35,7.14-24.5,0-43.76-7.43a93,93,0,0,1-32.71-20.84A88.69,88.69,0,0,1,1218,469.46a115.88,115.88,0,0,1-7-41.1,108,108,0,0,1,7.47-40.51,96.39,96.39,0,0,1,21.22-32.5,99.26,99.26,0,0,1,32.55-21.72q18.83-7.86,41.83-7.87,27.16,0,47.65,9.76a93.17,93.17,0,0,1,27.2,19.48,10,10,0,0,1-.35,14.32l-16.19,15a10,10,0,0,1-13.78-.18A85.52,85.52,0,0,0,1344,373q-11.49-7-28.22-7a57.79,57.79,0,0,0-24.49,5,54.14,54.14,0,0,0-18.23,13.4,57.63,57.63,0,0,0-11.35,19.82,74.29,74.29,0,0,0-3.88,24.19,68.57,68.57,0,0,0,4.48,25.36,55.13,55.13,0,0,0,31.51,31.77,63.35,63.35,0,0,0,23.75,4.37,80,80,0,0,0,21.81-2.78,50.81,50.81,0,0,0,13-5.65A9.89,9.89,0,0,0,1357,473V458.72a5,5,0,0,0-5-5h-20.24a10,10,0,0,1-10-10V428.16A10,10,0,0,1,1331.78,418.16Z"/><path class="cls-2" d="M1444.69,325.76h116.22a10,10,0,0,1,10,10v20.39a10,10,0,0,1-10,10h-71.12a10,10,0,0,0-10,10V395.9a10,10,0,0,0,10,10h50.8a10,10,0,0,1,10,10v19.16a10,10,0,0,1-10,10h-50.8a10,10,0,0,0-10,10v24.05a10,10,0,0,0,10,10h77.69a10,10,0,0,1,10,10v20.68a10,10,0,0,1-10,10H1444.69a10,10,0,0,1-10-10v-184A10,10,0,0,1,1444.69,325.76Z"/><path class="cls-2" d="M1607.08,335.44a10,10,0,0,1,6.25-12.68l61.82-21a145.27,145.27,0,0,1,42.22-8,92,92,0,0,1,37.83,6.41q17.37,7,31,22.59t22,40.18q8,23.49,6.24,43.46a86.29,86.29,0,0,1-11.2,36.29,92.45,92.45,0,0,1-26,28.38,141.74,141.74,0,0,1-38.34,19.49l-61.53,20.87a10,10,0,0,1-12.69-6.25Zm116.69,118q28.27-9.6,38.52-29.64t1.4-46.06a78.43,78.43,0,0,0-11.55-22.42,49.79,49.79,0,0,0-16.89-14.45,50.91,50.91,0,0,0-22.18-5.41q-12.43-.36-27.7,4.82l-16.56,5.62a10,10,0,0,0-6.25,12.68l32,94.22a10,10,0,0,0,12.69,6.26Z"/><path class="cls-1" d="M3059,396.25a8.21,8.21,0,0,0-7.29-4.27q-5.34,0-9.6,5.34-12.46,16-21.88,22.76t-24,6.76q-20.26,0-28.81-16.36,42.33-10.32,59.93-27.92t17.61-42.15q0-21-12.45-33.26t-33.08-12.27A72,72,0,0,0,2958,307.33a84.49,84.49,0,0,0-28.64,33.61A102.87,102.87,0,0,0,2919,386.65a112.65,112.65,0,0,0,1,15.25q-7.25,7.92-12.57,12.67-9.78,8.71-16.89,8.71-10.32,0-10.32-14.23,0-9.94,6.76-40.9,7.83-36.28,7.83-50.15,0-23.12-23.12-23.12-18.85,0-40.55,19.92t-39.48,63.67q1.07-6.41,3.91-19.21,6.75-29.88,6.76-41.26,0-11.75-5.16-17.43t-17.6-5.69q-12.47,0-26.5,9.43t-27.39,28.63q-13.33,19.2-22.94,46.95a242.25,242.25,0,0,1,3.56-26.14q2.13-10.5,5.69-24.72,5.33-19.92,5.33-25.61,0-5-2.84-6.76t-10-1.78q-13.17,0-20.45,4.8t-10.5,15.12a279.13,279.13,0,0,0-9.45,40.15,188.72,188.72,0,0,1-28.25,4.31q-2.85-27.39-19.38-46.06t-43.57-18.67a71.65,71.65,0,0,0-40.19,11.91q-18.15,11.93-28.46,33.08T2494,387.71a93.64,93.64,0,0,0,1.05,14.14q-7.29,8-12.61,12.72-9.79,8.71-16.9,8.71-10.32,0-10.31-14.23,0-9.94,6.76-40.9,7.82-36.28,7.82-50.15,0-23.12-23.12-23.12-11.73,0-25.79,8.18t-28.45,27.21q-14.4,19-26.14,49.26,0-19.54,1.07-38.06c.63-.69,55.41-66.48,68.29-90.16q21-38.59,21-74.52,0-22.39-10.14-36.45t-26.49-14q-30.6,0-52.47,40.37t-33.08,99.77c-4.05,21.5-7.42,48.46-9.27,69.06-51.5,39.22-155.16,117.92-226.84,110.66-87.7-8.89-119.7-70.52-118.87-119.14.53-30.81,5.69-59.33,17.08-85.54s28.45-47.24,51.21-63.13,50.39-23.83,82.88-23.83q45.52,0,71.67,22.41T2228.44,242q0,27.74-8.36,51t-20.8,36.63Q2186.81,343,2175.09,343q-8.9,0-12.8-3.91a13.46,13.46,0,0,1-3.92-10q0-16,8.18-56.91,5.34-28.1,5.34-35.57,0-12.45-17.43-12.45a83.33,83.33,0,0,0-15.65,1.43q-1.79-7.83-4.45-10.85c-1.78-2-5.28-3-10.49-3q-24.54,0-46.42,15.48t-35,40.9A115.57,115.57,0,0,0,2029.26,322q0,26.34,13.34,42.15T2079.77,380a44.88,44.88,0,0,0,26.14-8,55.67,55.67,0,0,0,18.32-21.88Q2134.9,380,2171.18,380q24.54,0,47.12-16.89t36.64-48.2q14-31.29,14-72.2t-17.07-69.54A109.1,109.1,0,0,0,2204.61,130q-30.24-14.58-69.71-14.59-64.38,0-110.09,30.24c-30.47,20.15-49.91,45.91-65.21,78.39s-32,116.79-1.75,173c24.37,45.35,81.22,73.44,136.65,78,86.09,7.07,184.39-64.39,228.76-97.87,0,1.16-.38,31.93-.38,31.93q-.35,6.76-.35,18.14,0,19.94,3.38,27.57t14.05,7.65q26.67,0,33.43-28.46a256.31,256.31,0,0,1,13.87-41.26q8.53-19.56,17.08-31.47t13.16-11.92c2.6,0,3.91,1.9,3.91,5.69q0,8.53-4.62,30.94-5,25.62-5,35.57,0,19.94,9.24,30.41t27.39,10.5a66.74,66.74,0,0,0,39.3-12.1,167.61,167.61,0,0,0,19.4-16,64.67,64.67,0,0,0,17.59,17.81q15.12,10.32,36.46,10.32,25.26,0,45.17-18T2633,396.61a177.29,177.29,0,0,0,27.53-3.27c-.09,3.09-.15,6.19-.15,9.31q0,31.31,5.52,45.53t19,14.23q11,0,16.18-5.87t9.07-22.59a314.33,314.33,0,0,1,12.27-39.12q7.65-19.92,15.83-32.73t13.51-12.8q3.91,0,3.92,5.69,0,7.13-2.85,29.88-3.55,25.61-3.56,39.12,0,16,5.87,27.21t17.61,11.21q11.37,0,16.54-5.69t9.07-22.77a255.34,255.34,0,0,1,13.87-41.26q8.53-19.56,17.07-31.47t13.16-11.92q3.91,0,3.92,5.69,0,8.53-4.63,30.94-5,25.62-5,35.57,0,19.94,9.25,30.41t27.39,10.5a69,69,0,0,0,40-12.1,144.88,144.88,0,0,0,18.72-15.43,65,65,0,0,0,5.64,7.07q18.86,20.46,53,20.46,22.41,0,38.59-8.54A69.2,69.2,0,0,0,3055.58,430q6-9.24,6.05-22.05Q3061.63,400.52,3059,396.25ZM2115.69,310.3q-3.2,15.3-10.31,24.54t-14.94,9.25q-7.83,0-12.27-5.34t-4.45-16.36a96.36,96.36,0,0,1,7.47-37.7q7.47-17.79,20.1-28.63t27.56-11.21Zm267.48-81q7.29-31.12,15.12-49.44t14.23-18.32q4.62,0,7.11,6.05t2.49,17.42q0,24.92-14.41,55.49A254,254,0,0,1,2371.26,297,660,660,0,0,1,2383.17,229.26Zm200.61,186.2q-8.37,9.26-19.74,9.24-10.32,0-18-10.31t-7.64-29.88q0-24.88,9.42-38.59t23.66-13.69h1.77a61.72,61.72,0,0,0-1.06,11.38,57.81,57.81,0,0,0,5.87,25.61A49.09,49.09,0,0,0,2595,388.78Q2592.13,406.21,2583.78,415.46ZM2962,382q0-21.69,9.07-37t22.23-15.29q6.4,0,10.13,4.09t3.74,10.85q0,13.15-12.1,23.12T2962,382.73Z"/><path class="cls-3" d="M235.83,209q-2.16,2.13-4.56,4.17a87.45,87.45,0,0,1-16.22,10.86,90.85,90.85,0,0,1-19.27,7.31,85.75,85.75,0,0,1-21.58,2.69,88,88,0,0,1-33.9-6.35A78.51,78.51,0,0,1,113.83,210a79.51,79.51,0,0,1-17.18-26.83,92,92,0,0,1-6.11-34,92.57,92.57,0,0,1,6.11-33.78,79.88,79.88,0,0,1,43.77-45.6,85.36,85.36,0,0,1,34.27-6.71q22.68,0,39.63,8.29a74.24,74.24,0,0,1,20.9,15.18,11.38,11.38,0,0,1-.38,16.07l-8.77,8.43a11.38,11.38,0,0,1-15.89-.1,58.25,58.25,0,0,0-10.13-8q-10-6.21-23.9-6.21a47,47,0,0,0-19.76,4,43.06,43.06,0,0,0-14.88,11.1,50.73,50.73,0,0,0-9.38,16.46,62.07,62.07,0,0,0,0,39.88,48.06,48.06,0,0,0,9.38,16.09A43.6,43.6,0,0,0,156.15,195a45.87,45.87,0,0,0,19.26,3.91,56.33,56.33,0,0,0,15.25-1.83,46.13,46.13,0,0,0,11.46-4.89,44.67,44.67,0,0,0,8.91-7.07l0,0a11.4,11.4,0,0,1,15.89-.5l8.58,7.83A11.42,11.42,0,0,1,235.83,209Z"/><path class="cls-3" d="M373.21,203.56a51.49,51.49,0,0,1-13.29,16.09,62.12,62.12,0,0,1-19.76,10.61,77.1,77.1,0,0,1-24.51,3.79,98.12,98.12,0,0,1-22.2-2.33,90.34,90.34,0,0,1-18.05-6.09A82.35,82.35,0,0,1,260.9,217c-1.62-1.23-3.16-2.46-4.6-3.71a8.72,8.72,0,0,1-.73-12.54l11.89-12.87a8.69,8.69,0,0,1,12-.74l1.41,1.2a62.89,62.89,0,0,0,9.51,6.46,55.73,55.73,0,0,0,11.46,4.76,47.24,47.24,0,0,0,13.3,1.82,29.39,29.39,0,0,0,8.29-1.21,27.31,27.31,0,0,0,7.56-3.54A19,19,0,0,0,336.5,191a13.71,13.71,0,0,0,2.07-7.44q0-9-8.78-14T302,159.66a73.35,73.35,0,0,1-17.19-6.34,53.73,53.73,0,0,1-13.66-10,42.4,42.4,0,0,1-8.9-13.41,43,43,0,0,1-3.17-16.83,51,51,0,0,1,3.65-19.27,44.81,44.81,0,0,1,11.11-16,53.28,53.28,0,0,1,18.53-11q11.1-4,26.22-4a84.71,84.71,0,0,1,21.95,2.56,79.15,79.15,0,0,1,16.22,6.1,56.11,56.11,0,0,1,11,7.31h0a8.7,8.7,0,0,1,.67,12.35l-10,11.07a8.75,8.75,0,0,1-11.62,1.2,57.15,57.15,0,0,0-7.93-4.75A54.52,54.52,0,0,0,329.18,95a40.81,40.81,0,0,0-11.09-1.46,24.62,24.62,0,0,0-7.68,1.22,26.35,26.35,0,0,0-6.83,3.29A17.27,17.27,0,0,0,298.7,103a10.79,10.79,0,0,0-1.83,6q0,8.29,8.78,13.41t24.14,8.55a108.26,108.26,0,0,1,17.69,6A58.29,58.29,0,0,1,363,146.73a45.73,45.73,0,0,1,11,15q4.15,8.91,4.15,21.58A42.83,42.83,0,0,1,373.21,203.56Z"/></svg>
