<svg id="Layer_1" data-name="Layer 1" xmlns="http://www.w3.org/2000/svg" viewBox="0 0 4028.78 547.64"><defs><style>.cls-1{fill:#cc0423;}.cls-2{fill:#0f091c;}.cls-3{fill:#7482cc;}.cls-4{fill:#fff;}.cls-5{fill:#3044b3;}</style></defs><path class="cls-1" d="M1238.36,166.37c-135,57-274.5,116-410.37,81.86a191.86,191.86,0,0,1-20.76-6.43l.88-.68c25.39-20,40.29-51.4,38.89-82-1.54-33.61-22.74-64.25-52.75-76.24C762,70,723,81,703.61,108.63c-22.6,32.23-13.73,75.54,5.09,104.17a144.74,144.74,0,0,0,17.75,21.89.08.08,0,0,1,0,.14c-86.63,20.87-188.34,23-303.52,6.59V37.25a20,20,0,0,0-20-20H65.64a20,20,0,0,0-20,20v221.6a20,20,0,0,0,20,20H417.4c123.31,17.61,232.35,14.63,325.28-9,7-1.78,14.3-3.8,21.7-6.28,0,0,0,0,.07,0A217.57,217.57,0,0,0,818.77,285c148.17,37.2,293.63-24.27,434.32-83.72C1577.48,52.77,1795.25,310,2012.81,310l-.55-37.86C1795.25,272.11,1577.48,6.07,1238.36,166.37Zm-453.66,45a85.25,85.25,0,0,1-16.1,9.83.08.08,0,0,1-.09,0A115.08,115.08,0,0,1,740.34,192c-11.41-17.35-18.07-44-5.73-61.62,6.64-9.46,19.07-15,31.44-15A38.17,38.17,0,0,1,780.2,118c16.2,6.47,28.11,24.07,29,42.81S800.65,198.82,784.7,211.36Z"/><path class="cls-2" d="M55.64,325.76H81.05a10,10,0,0,1,10,10v98c0,5.5.24,14.5.52,20A47.43,47.43,0,0,0,93,461.53a35.22,35.22,0,0,0,6.43,13.6,29.36,29.36,0,0,0,11.8,8.8q7.32,3.13,18.07,3.14,10.46,0,17.77-3.14a29.46,29.46,0,0,0,11.81-8.8,35.35,35.35,0,0,0,6.42-13.6,47.43,47.43,0,0,0,1.42-7.79c.29-5.49.52-14.49.52-20v-98a10,10,0,0,1,10-10h25.7a10,10,0,0,1,10,10V439.43c0,5.5-.38,14.48-.84,20,0,0-1.1,12.94-5,22.9a71.3,71.3,0,0,1-16.73,25.55,77,77,0,0,1-26.44,16.57,95.73,95.73,0,0,1-34.65,6,97.86,97.86,0,0,1-34.65-5.83A74.1,74.1,0,0,1,68.2,508a72.5,72.5,0,0,1-16.72-25.69c-3.89-10-5-22.9-5-22.9-.47-5.48-.85-14.46-.85-20V335.76A10,10,0,0,1,55.64,325.76Z"/><path class="cls-2" d="M260.27,325.76h27.59a11.18,11.18,0,0,1,8.38,4.55l74.18,114.14c5.06,7.78,9.2,6.56,9.2-2.72v-106a10,10,0,0,1,10-10h24.5a10,10,0,0,1,10,10V520.39a10,10,0,0,1-10,10H388.61a11.18,11.18,0,0,1-8.37-4.52L304,409.15c-5-7.73-9.18-6.5-9.18,2.73V520.39a10,10,0,0,1-10,10H260.27a10,10,0,0,1-10-10V335.76A10,10,0,0,1,260.27,325.76Z"/><path class="cls-2" d="M463,335.76a10,10,0,0,1,10-10h62.59q18.53,0,31.66,5.53a62.52,62.52,0,0,1,21.66,14.57,56.68,56.68,0,0,1,12.55,21,77.16,77.16,0,0,1,4,24.85q0,16.56-5.52,29A59.43,59.43,0,0,1,585,441.43,65.21,65.21,0,0,1,563.33,454a76.93,76.93,0,0,1-25.69,4.3H516.87a10,10,0,0,0-10,10v52.09a10,10,0,0,1-10,10H473a10,10,0,0,1-10-10Zm70.2,85.11q12.54,0,19.86-7.83t7.32-20.39q0-12.88-7.47-21t-20-8.13h-16a10,10,0,0,0-10,10v37.37a10,10,0,0,0,10,10Z"/><path class="cls-2" d="M645.61,325.76h25.11a10,10,0,0,1,10,10V478.81a10,10,0,0,0,10,10H766a10,10,0,0,1,10,10v21a10,10,0,0,1-10,10H645.61a10,10,0,0,1-10-10v-184A10,10,0,0,1,645.61,325.76Z"/><path class="cls-2" d="M808.11,325.76h25.41a10,10,0,0,1,10,10V443.41a74.43,74.43,0,0,0,1.94,17.72,35,35,0,0,0,6.43,13.56,29.48,29.48,0,0,0,11.8,8.78q7.32,3.12,18.07,3.13,10.46,0,17.77-3.13a29.51,29.51,0,0,0,11.81-8.78,35.1,35.1,0,0,0,6.42-13.56,74.43,74.43,0,0,0,1.94-17.72V335.76a10,10,0,0,1,10-10h25.7a10,10,0,0,1,10,10v113.3a89.26,89.26,0,0,1-5.82,32.77,70.93,70.93,0,0,1-16.73,25.47,76.85,76.85,0,0,1-26.44,16.52,95.91,95.91,0,0,1-34.65,6A98.31,98.31,0,0,1,847.11,524a74.27,74.27,0,0,1-26.44-16.53,72.55,72.55,0,0,1-16.73-25.62,89.26,89.26,0,0,1-5.83-32.77V335.76A10,10,0,0,1,808.11,325.76Z"/><path class="cls-2" d="M1115.8,418.16h56.77a10,10,0,0,1,10,10V497.6a9.9,9.9,0,0,1-3.83,7.87,113.46,113.46,0,0,1-32.47,17.18q-20.76,7.14-47.34,7.14-24.5,0-43.76-7.43a92.94,92.94,0,0,1-32.71-20.84A88.72,88.72,0,0,1,1002,469.46a115.88,115.88,0,0,1-7-41.1,107.76,107.76,0,0,1,7.47-40.51,96.37,96.37,0,0,1,21.21-32.5,99.47,99.47,0,0,1,32.55-21.72q18.83-7.86,41.83-7.87,27.18,0,47.65,9.76A93.09,93.09,0,0,1,1172.89,355a10,10,0,0,1-.36,14.32l-16.18,15a10,10,0,0,1-13.78-.18A85.52,85.52,0,0,0,1128.05,373q-11.5-7-28.23-7a57.79,57.79,0,0,0-24.49,5,54.2,54.2,0,0,0-18.22,13.4,57.63,57.63,0,0,0-11.35,19.82,74.29,74.29,0,0,0-3.89,24.19,68.78,68.78,0,0,0,4.48,25.36,55.18,55.18,0,0,0,31.52,31.77,63.26,63.26,0,0,0,23.74,4.37,79.94,79.94,0,0,0,21.81-2.78,50.66,50.66,0,0,0,13-5.65A9.89,9.89,0,0,0,1141,473V458.72a5,5,0,0,0-5-5H1115.8a10,10,0,0,1-10-10V428.16A10,10,0,0,1,1115.8,418.16Z"/><path class="cls-2" d="M1331.78,418.16h56.77a10,10,0,0,1,10,10V497.6a9.9,9.9,0,0,1-3.83,7.87,113.46,113.46,0,0,1-32.47,17.18q-20.76,7.14-47.35,7.14-24.5,0-43.76-7.43a93,93,0,0,1-32.71-20.84A88.69,88.69,0,0,1,1218,469.46a115.88,115.88,0,0,1-7-41.1,108,108,0,0,1,7.47-40.51,96.39,96.39,0,0,1,21.22-32.5,99.26,99.26,0,0,1,32.55-21.72q18.83-7.86,41.83-7.87,27.16,0,47.65,9.76a93.17,93.17,0,0,1,27.2,19.48,10,10,0,0,1-.35,14.32l-16.19,15a10,10,0,0,1-13.78-.18A85.52,85.52,0,0,0,1344,373q-11.49-7-28.22-7a57.79,57.79,0,0,0-24.49,5,54.14,54.14,0,0,0-18.23,13.4,57.63,57.63,0,0,0-11.35,19.82,74.29,74.29,0,0,0-3.88,24.19,68.57,68.57,0,0,0,4.48,25.36,55.13,55.13,0,0,0,31.51,31.77,63.35,63.35,0,0,0,23.75,4.37,80,80,0,0,0,21.81-2.78,50.81,50.81,0,0,0,13-5.65A9.89,9.89,0,0,0,1357,473V458.72a5,5,0,0,0-5-5h-20.24a10,10,0,0,1-10-10V428.16A10,10,0,0,1,1331.78,418.16Z"/><path class="cls-2" d="M1444.69,325.76h116.22a10,10,0,0,1,10,10v20.39a10,10,0,0,1-10,10h-71.12a10,10,0,0,0-10,10V395.9a10,10,0,0,0,10,10h50.8a10,10,0,0,1,10,10v19.16a10,10,0,0,1-10,10h-50.8a10,10,0,0,0-10,10v24.05a10,10,0,0,0,10,10h77.69a10,10,0,0,1,10,10v20.68a10,10,0,0,1-10,10H1444.69a10,10,0,0,1-10-10v-184A10,10,0,0,1,1444.69,325.76Z"/><path class="cls-2" d="M1613.62,336c0-5.66,4.1-10.24,9.15-10.24h59.75a119.72,119.72,0,0,1,39,6.12,82,82,0,0,1,30.91,18.65q13,12.54,20.23,32.11t7.25,46.19q0,25.41-7.37,44.2a88.62,88.62,0,0,1-20.38,31.51,82.47,82.47,0,0,1-30.88,19,117.14,117.14,0,0,1-39,6.29H1622.8c-5.06,0-9.16-4.58-9.16-10.24Zm66.06,152.79q29.85,0,46-16.07t16.12-44.21a82.19,82.19,0,0,0-3.74-25.53,49.15,49.15,0,0,0-30.62-32.11q-11.65-4.44-27.78-4.44h-17.48a10.11,10.11,0,0,0-10,10.24V478.56a10.12,10.12,0,0,0,10,10.24Z"/><polygon class="cls-3" points="2100.1 238.65 2050.81 241.99 2023.01 280.54 2038.2 329.09 2081.94 342.81 2111.22 339.84 2114.19 241.99 2100.1 238.65"/><path class="cls-2" d="M2132,351.08a6.7,6.7,0,0,1-6.7,6.7l-43.72,0a97.16,97.16,0,0,1-28.51-4,61.63,61.63,0,0,1-22.61-12.21,55.07,55.07,0,0,1-14.8-21q-5.3-12.81-5.29-30.22,0-16.62,5.41-28.91a57.67,57.67,0,0,1,14.92-20.6,62,62,0,0,1,22.6-12.4,95.19,95.19,0,0,1,28.52-4.1l43.52,0a6.7,6.7,0,0,1,6.7,6.7Zm-48.59-100q-20,0-30.82,10.49t-10.81,28.91a52.54,52.54,0,0,0,2.5,16.71,33.29,33.29,0,0,0,7.6,12.8,33.93,33.93,0,0,0,12.9,8.21,53.26,53.26,0,0,0,18.6,2.91h11.72a6.71,6.71,0,0,0,6.7-6.7l0-66.64a6.7,6.7,0,0,0-6.7-6.7Z"/><path class="cls-4" d="M235.83,209q-2.16,2.13-4.56,4.17a87.45,87.45,0,0,1-16.22,10.86,90.85,90.85,0,0,1-19.27,7.31,85.75,85.75,0,0,1-21.58,2.69,88,88,0,0,1-33.9-6.35A78.51,78.51,0,0,1,113.83,210a79.51,79.51,0,0,1-17.18-26.83,92,92,0,0,1-6.11-34,92.57,92.57,0,0,1,6.11-33.78,79.88,79.88,0,0,1,43.77-45.6,85.36,85.36,0,0,1,34.27-6.71q22.68,0,39.63,8.29a74.24,74.24,0,0,1,20.9,15.18,11.38,11.38,0,0,1-.38,16.07l-8.77,8.43a11.38,11.38,0,0,1-15.89-.1,58.25,58.25,0,0,0-10.13-8q-10-6.21-23.9-6.21a47,47,0,0,0-19.76,4,43.06,43.06,0,0,0-14.88,11.1,50.73,50.73,0,0,0-9.38,16.46,62.07,62.07,0,0,0,0,39.88,48.06,48.06,0,0,0,9.38,16.09A43.6,43.6,0,0,0,156.15,195a45.87,45.87,0,0,0,19.26,3.91,56.33,56.33,0,0,0,15.25-1.83,46.13,46.13,0,0,0,11.46-4.89,44.67,44.67,0,0,0,8.91-7.07l0,0a11.4,11.4,0,0,1,15.89-.5l8.58,7.83A11.42,11.42,0,0,1,235.83,209Z"/><path class="cls-4" d="M373.21,203.56a51.49,51.49,0,0,1-13.29,16.09,62.12,62.12,0,0,1-19.76,10.61,77.1,77.1,0,0,1-24.51,3.79,98.12,98.12,0,0,1-22.2-2.33,90.34,90.34,0,0,1-18.05-6.09A82.35,82.35,0,0,1,260.9,217c-1.62-1.23-3.16-2.46-4.6-3.71a8.72,8.72,0,0,1-.73-12.54l11.89-12.87a8.69,8.69,0,0,1,12-.74l1.41,1.2a62.89,62.89,0,0,0,9.51,6.46,55.73,55.73,0,0,0,11.46,4.76,47.24,47.24,0,0,0,13.3,1.82,29.39,29.39,0,0,0,8.29-1.21,27.31,27.31,0,0,0,7.56-3.54A19,19,0,0,0,336.5,191a13.71,13.71,0,0,0,2.07-7.44q0-9-8.78-14T302,159.66a73.35,73.35,0,0,1-17.19-6.34,53.73,53.73,0,0,1-13.66-10,42.4,42.4,0,0,1-8.9-13.41,43,43,0,0,1-3.17-16.83,51,51,0,0,1,3.65-19.27,44.81,44.81,0,0,1,11.11-16,53.28,53.28,0,0,1,18.53-11q11.1-4,26.22-4a84.71,84.71,0,0,1,21.95,2.56,79.15,79.15,0,0,1,16.22,6.1,56.11,56.11,0,0,1,11,7.31h0a8.7,8.7,0,0,1,.67,12.35l-10,11.07a8.75,8.75,0,0,1-11.62,1.2,57.15,57.15,0,0,0-7.93-4.75A54.52,54.52,0,0,0,329.18,95a40.81,40.81,0,0,0-11.09-1.46,24.62,24.62,0,0,0-7.68,1.22,26.35,26.35,0,0,0-6.83,3.29A17.27,17.27,0,0,0,298.7,103a10.79,10.79,0,0,0-1.83,6q0,8.29,8.78,13.41t24.14,8.55a108.26,108.26,0,0,1,17.69,6A58.29,58.29,0,0,1,363,146.73a45.73,45.73,0,0,1,11,15q4.15,8.91,4.15,21.58A42.83,42.83,0,0,1,373.21,203.56Z"/><rect class="cls-5" x="2127.05" y="118.93" width="1778.43" height="349.57" rx="70.12"/><path class="cls-4" d="M2224.55,207.45H2292a94.38,94.38,0,0,1,19.2,1.8,54.47,54.47,0,0,1,15.36,5.52,38,38,0,0,1,11.28,9.36,39.53,39.53,0,0,1,7,13.56,62.06,62.06,0,0,1,2.4,18v15.36a60.63,60.63,0,0,1-3.24,20.4,37.9,37.9,0,0,1-10,15.36,44,44,0,0,1-17,9.48,81.21,81.21,0,0,1-24.24,3.24h-31.2l-2.64,1v-24h33.6a45.36,45.36,0,0,0,12.12-1.44,21.28,21.28,0,0,0,8.64-4.56,18.81,18.81,0,0,0,5.16-7.8,33.1,33.1,0,0,0,1.68-11.16V254.25a35.56,35.56,0,0,0-1.32-10.32,15.92,15.92,0,0,0-4.44-7.2,19.42,19.42,0,0,0-8.64-4.68,51.09,51.09,0,0,0-13.68-1.56h-64.8a2.48,2.48,0,0,1-2.64-2.64v-20.4Zm40.32,168h-24.24a2.48,2.48,0,0,1-2.64-2.64V220.89h29l-2.16,5.28V375.45Z"/><path class="cls-4" d="M2385.35,225.45v-30h22.8a2.52,2.52,0,0,1,1.32.36,3.3,3.3,0,0,1,1,.84,2.39,2.39,0,0,1,.36,1.44v140.4a31.33,31.33,0,0,0,.48,6,6.58,6.58,0,0,0,2.16,3.84,9.54,9.54,0,0,0,4.08,2.4,22.26,22.26,0,0,0,6.24.72h11v21.36a2.48,2.48,0,0,1-2.64,2.64h-14.4a42.64,42.64,0,0,1-14.4-2.16,26.16,26.16,0,0,1-10.08-6.36,25.32,25.32,0,0,1-6-10.92,58,58,0,0,1-1.92-15.84V225.45Z"/><path class="cls-4" d="M2466.23,247.29h23.52a2.39,2.39,0,0,1,1.44.36,4.18,4.18,0,0,1,.84.84,2.39,2.39,0,0,1,.36,1.44v86.64q0,7.92,4.08,12t11,4.08a34.76,34.76,0,0,0,9.48-1.32,39.14,39.14,0,0,0,9.48-4.2,58.2,58.2,0,0,0,9.48-7.2,79.3,79.3,0,0,0,9.24-10.32v23.52h-7a57.85,57.85,0,0,1-10.32,13.68,40.51,40.51,0,0,1-12.84,8.4,42,42,0,0,1-16,2.88,35.29,35.29,0,0,1-13.56-2.52,28.39,28.39,0,0,1-10.44-7.32,33,33,0,0,1-6.6-11.28,43.16,43.16,0,0,1-2.28-14.4V247.29Zm75.36,0h23.52a2.39,2.39,0,0,1,1.44.36,4.18,4.18,0,0,1,.84.84,2.39,2.39,0,0,1,.36,1.44v94.8a18.06,18.06,0,0,0,.36,4,5.09,5.09,0,0,0,1.32,2.52,6,6,0,0,0,2.52,1.44,12.73,12.73,0,0,0,3.72.48h6.72v19.68a2.48,2.48,0,0,1-2.64,2.64h-8.16a39.44,39.44,0,0,1-13.2-2,24.93,24.93,0,0,1-9.48-5.76,23.16,23.16,0,0,1-5.52-8.88,33.66,33.66,0,0,1-1.8-11.16V247.29Z"/><path class="cls-4" d="M2646.23,244.65a41.06,41.06,0,0,1,15.12,2.64,39.08,39.08,0,0,1,12.12,7.56,45.89,45.89,0,0,1,9.24,11.88h7.2v25.92q-8.16-12-17.16-17.76a34.08,34.08,0,0,0-18.6-5.76,24.09,24.09,0,0,0-12.48,3.12,19.8,19.8,0,0,0-8,9.24,36.4,36.4,0,0,0-2.76,15v24a39.25,39.25,0,0,0,1.68,12.12,20.41,20.41,0,0,0,4.8,8.28,21.81,21.81,0,0,0,7.32,4.44,27,27,0,0,0,9.48,1.56,33.3,33.3,0,0,0,12.48-2.4,41.77,41.77,0,0,0,11.88-7.56,66.51,66.51,0,0,0,11.4-13.56v25h-7a53.88,53.88,0,0,1-9.6,12.48,36.78,36.78,0,0,1-12.48,7.92,42.29,42.29,0,0,1-15.12,2.64,43.32,43.32,0,0,1-16.68-3.12,34.73,34.73,0,0,1-13-9.24,43.66,43.66,0,0,1-8.4-14.76,59.83,59.83,0,0,1-3-19.68V292.41a61.73,61.73,0,0,1,3-20,44.82,44.82,0,0,1,8.4-15,35.11,35.11,0,0,1,13.08-9.48A43.42,43.42,0,0,1,2646.23,244.65Zm40.56,2.64h22.8a2.39,2.39,0,0,1,1.44.36,4.18,4.18,0,0,1,.84.84,2.39,2.39,0,0,1,.36,1.44V362.25q0,19.2-6.6,32.88a46.28,46.28,0,0,1-20,21q-13.44,7.32-34.08,7.32a130,130,0,0,1-18.12-1.2A77.53,77.53,0,0,1,2619,419q-5.88-2-7.8-3.72l-.48-1a2.13,2.13,0,0,1-.24-1V393.21h4.08a112.21,112.21,0,0,0,11.28,4.2,59,59,0,0,0,11.88,2.4q6.12.6,13.08.6a55.76,55.76,0,0,0,16.08-2,26.6,26.6,0,0,0,11.28-6.6,25.37,25.37,0,0,0,5-7.2,41.27,41.27,0,0,0,3-9.48,60.68,60.68,0,0,0,1.08-11.88q0-16.8-.12-30.6t-.24-27.72q-.12-13.92-.12-30.72V247.29Z"/><path class="cls-4" d="M2790.23,244.65a41.14,41.14,0,0,1,15.12,2.64,39.19,39.19,0,0,1,12.12,7.56,46.1,46.1,0,0,1,9.24,11.88h7.2v25.92q-8.17-12-17.16-17.76a34.08,34.08,0,0,0-18.6-5.76,24.06,24.06,0,0,0-12.48,3.12,19.74,19.74,0,0,0-8,9.24,36.24,36.24,0,0,0-2.76,15v24a39,39,0,0,0,1.68,12.12,20.19,20.19,0,0,0,4.8,8.28,21.71,21.71,0,0,0,7.32,4.44,27,27,0,0,0,9.48,1.56,33.34,33.34,0,0,0,12.48-2.4,41.91,41.91,0,0,0,11.88-7.56,67.15,67.15,0,0,0,11.4-13.56v25h-7a54.43,54.43,0,0,1-9.6,12.48,37,37,0,0,1-12.48,7.92,42.37,42.37,0,0,1-15.12,2.64,43.28,43.28,0,0,1-16.68-3.12,34.73,34.73,0,0,1-13-9.24,43.49,43.49,0,0,1-8.4-14.76,59.57,59.57,0,0,1-3-19.68V292.41a61.46,61.46,0,0,1,3-20,44.65,44.65,0,0,1,8.4-15,35,35,0,0,1,13.08-9.48A43.38,43.38,0,0,1,2790.23,244.65Zm40.56,2.64h22.8a2.43,2.43,0,0,1,1.44.36,4.45,4.45,0,0,1,.84.84,2.39,2.39,0,0,1,.36,1.44V362.25q0,19.2-6.6,32.88a46.38,46.38,0,0,1-20,21q-13.46,7.32-34.08,7.32a129.81,129.81,0,0,1-18.12-1.2A77.15,77.15,0,0,1,2763,419q-5.89-2-7.8-3.72-.26-.48-.48-1a2,2,0,0,1-.24-1V393.21h4.08a111.31,111.31,0,0,0,11.28,4.2,59,59,0,0,0,11.88,2.4c4.08.4,8.43.6,13.08.6a55.81,55.81,0,0,0,16.08-2,26.67,26.67,0,0,0,11.28-6.6,25.78,25.78,0,0,0,5-7.2,41.77,41.77,0,0,0,3-9.48,60.68,60.68,0,0,0,1.08-11.88q0-16.8-.12-30.6t-.24-27.72q-.13-13.92-.12-30.72V247.29Z"/><path class="cls-4" d="M2884.54,247.29h45.12a2.39,2.39,0,0,1,1.44.36,4.18,4.18,0,0,1,.84.84,2.39,2.39,0,0,1,.36,1.44v90a24.43,24.43,0,0,0,.48,5.4,8.73,8.73,0,0,0,1.92,3.72,9.71,9.71,0,0,0,3.36,1.8,17.34,17.34,0,0,0,5,.6h11v21.36a2.48,2.48,0,0,1-2.64,2.64H2939a43.71,43.71,0,0,1-14.52-2.16,25.69,25.69,0,0,1-10.08-6.24,24.13,24.13,0,0,1-5.76-10.2,48.89,48.89,0,0,1-1.8-13.8V271.29h-19.68a2.48,2.48,0,0,1-2.64-2.64V247.29Zm18-59.52H2934a2.48,2.48,0,0,1,2.64,2.64v26.16h-31.44a2.48,2.48,0,0,1-2.64-2.64Z"/><path class="cls-4" d="M2982.46,247.29h22.8a2.39,2.39,0,0,1,1.44.36,4.18,4.18,0,0,1,.84.84,2.39,2.39,0,0,1,.36,1.44V375.45h-22.8a5,5,0,0,1-1.2-.12,1.84,1.84,0,0,1-1.32-1.32,5,5,0,0,1-.12-1.2V247.29Zm69.6-2.64a35.91,35.91,0,0,1,13.44,2.4,26.37,26.37,0,0,1,10.2,7.2,32.54,32.54,0,0,1,6.36,11.28,45.35,45.35,0,0,1,2.16,14.4v66a9.54,9.54,0,0,0,.48,3.24,8.77,8.77,0,0,0,1.2,2.28,9.39,9.39,0,0,0,2.16,1.2,7.75,7.75,0,0,0,2.88.48h7.92v19.68a2.48,2.48,0,0,1-2.64,2.64H3084.7q-9.12,0-14.76-3.12a19.31,19.31,0,0,1-8.4-9.24,36.4,36.4,0,0,1-2.76-15v-63.6q0-8.16-3.72-11.76t-10.92-3.6a32,32,0,0,0-9.72,1.56,50.53,50.53,0,0,0-10.08,4.56,57.74,57.74,0,0,0-10.2,7.68,119,119,0,0,0-10.08,10.68v-25.2h7.68a67,67,0,0,1,12-13,49.91,49.91,0,0,1,13.68-8A40.6,40.6,0,0,1,3052.06,244.65Z"/><path class="cls-4" d="M3162.22,244.65a41.06,41.06,0,0,1,15.12,2.64,39.08,39.08,0,0,1,12.12,7.56,45.89,45.89,0,0,1,9.24,11.88h7.2v25.92q-8.16-12-17.16-17.76a34.06,34.06,0,0,0-18.6-5.76,24.09,24.09,0,0,0-12.48,3.12,19.85,19.85,0,0,0-8,9.24,36.4,36.4,0,0,0-2.76,15v24a39.25,39.25,0,0,0,1.68,12.12,20.41,20.41,0,0,0,4.8,8.28,21.91,21.91,0,0,0,7.32,4.44,27.08,27.08,0,0,0,9.48,1.56,33.3,33.3,0,0,0,12.48-2.4,41.63,41.63,0,0,0,11.88-7.56,66.51,66.51,0,0,0,11.4-13.56v25h-7a53.88,53.88,0,0,1-9.6,12.48,36.78,36.78,0,0,1-12.48,7.92,42.29,42.29,0,0,1-15.12,2.64,43.32,43.32,0,0,1-16.68-3.12,34.73,34.73,0,0,1-13-9.24,43.66,43.66,0,0,1-8.4-14.76,59.83,59.83,0,0,1-3-19.68V292.41a61.73,61.73,0,0,1,3-20,44.82,44.82,0,0,1,8.4-15,35.11,35.11,0,0,1,13.08-9.48A43.42,43.42,0,0,1,3162.22,244.65Zm40.56,2.64h22.8a2.39,2.39,0,0,1,1.44.36,4.18,4.18,0,0,1,.84.84,2.39,2.39,0,0,1,.36,1.44V362.25q0,19.2-6.6,32.88a46.28,46.28,0,0,1-20,21q-13.44,7.32-34.08,7.32a130,130,0,0,1-18.12-1.2A77.53,77.53,0,0,1,3135,419q-5.88-2-7.8-3.72l-.48-1a2.13,2.13,0,0,1-.24-1V393.21h4.08a112.21,112.21,0,0,0,11.28,4.2,59,59,0,0,0,11.88,2.4q6.12.6,13.08.6a55.76,55.76,0,0,0,16.08-2,26.54,26.54,0,0,0,11.28-6.6,25.37,25.37,0,0,0,5-7.2,41.27,41.27,0,0,0,3-9.48,60.68,60.68,0,0,0,1.08-11.88q0-16.8-.12-30.6t-.24-27.72q-.12-13.92-.12-30.72V247.29Z"/><path class="cls-4" d="M3328.54,247.29h45.12a2.37,2.37,0,0,1,1.43.36,3.94,3.94,0,0,1,.84.84,2.39,2.39,0,0,1,.36,1.44v90a23.76,23.76,0,0,0,.49,5.4,8.62,8.62,0,0,0,1.92,3.72,9.66,9.66,0,0,0,3.35,1.8,17.34,17.34,0,0,0,5,.6h11v21.36a2.46,2.46,0,0,1-2.63,2.64H3383a43.65,43.65,0,0,1-14.51-2.16,25.62,25.62,0,0,1-10.08-6.24,24,24,0,0,1-5.76-10.2,48.87,48.87,0,0,1-1.81-13.8V271.29h-19.68a2.46,2.46,0,0,1-2.63-2.64V247.29Zm18-59.52H3378a2.49,2.49,0,0,1,2.65,2.64v26.16h-31.45a2.46,2.46,0,0,1-2.63-2.64Z"/><path class="cls-4" d="M3406.29,247.29h91.44a2.48,2.48,0,0,1,2.64,2.64v21.12h-91.44a2.13,2.13,0,0,1-1-.24,3.14,3.14,0,0,1-1.44-1.44,2.13,2.13,0,0,1-.24-1V247.29Zm94.08,103.92v21.6a2.48,2.48,0,0,1-2.64,2.64H3479a71.43,71.43,0,0,1-21.24-2.88,39.44,39.44,0,0,1-15.6-8.88,38.64,38.64,0,0,1-9.72-15.36q-3.36-9.36-3.36-22.32V207.45h22.8a2.52,2.52,0,0,1,1.32.36,2.76,2.76,0,0,1,1,1,2.52,2.52,0,0,1,.36,1.32V323.61a46.38,46.38,0,0,0,1.68,13.56,20.91,20.91,0,0,0,5,8.76,17.77,17.77,0,0,0,7.68,4.08,43.92,43.92,0,0,0,11,1.2h20.4Z"/><path class="cls-4" d="M3594.93,247.29h45.12a2.39,2.39,0,0,1,1.44.36,4.18,4.18,0,0,1,.84.84,2.39,2.39,0,0,1,.36,1.44v90a24.43,24.43,0,0,0,.48,5.4,8.73,8.73,0,0,0,1.92,3.72,9.71,9.71,0,0,0,3.36,1.8,17.34,17.34,0,0,0,5,.6h11v21.36a2.48,2.48,0,0,1-2.64,2.64h-12.48a43.71,43.71,0,0,1-14.52-2.16,25.69,25.69,0,0,1-10.08-6.24,24.13,24.13,0,0,1-5.76-10.2,48.89,48.89,0,0,1-1.8-13.8V271.29h-19.68a2.48,2.48,0,0,1-2.64-2.64V247.29Zm18-59.52h31.44a2.48,2.48,0,0,1,2.64,2.64v26.16h-31.44a2.48,2.48,0,0,1-2.64-2.64Z"/><path class="cls-4" d="M3692.85,247.29h22.8a2.39,2.39,0,0,1,1.44.36,4.18,4.18,0,0,1,.84.84,2.39,2.39,0,0,1,.36,1.44V375.45h-22.8a5,5,0,0,1-1.2-.12A1.84,1.84,0,0,1,3693,374a5,5,0,0,1-.12-1.2V247.29Zm69.6-2.64a35.91,35.91,0,0,1,13.44,2.4,26.37,26.37,0,0,1,10.2,7.2,32.54,32.54,0,0,1,6.36,11.28,45.35,45.35,0,0,1,2.16,14.4v66a9.54,9.54,0,0,0,.48,3.24,8.77,8.77,0,0,0,1.2,2.28,9.39,9.39,0,0,0,2.16,1.2,7.75,7.75,0,0,0,2.88.48h7.92v19.68a2.48,2.48,0,0,1-2.64,2.64h-11.52q-9.12,0-14.76-3.12a19.31,19.31,0,0,1-8.4-9.24,36.4,36.4,0,0,1-2.76-15v-63.6q0-8.16-3.72-11.76t-10.92-3.6a32,32,0,0,0-9.72,1.56,50.53,50.53,0,0,0-10.08,4.56,57.74,57.74,0,0,0-10.2,7.68,119,119,0,0,0-10.08,10.68v-25.2h7.68a67,67,0,0,1,12-13,49.91,49.91,0,0,1,13.68-8A40.6,40.6,0,0,1,3762.45,244.65Z"/></svg>