<svg id="Layer_1" data-name="Layer 1" xmlns="http://www.w3.org/2000/svg" viewBox="0 0 1324.38 371.63"><defs><style>.cls-1{fill:#fff;}</style></defs><title>logo-mono</title><path class="cls-1" d="M1177.67,304l-33.2,11.26a4.3,4.3,0,0,1-5.45-2.69l-2.88-8.5a4.31,4.31,0,0,1,2.69-5.46L1172,287.34Z" transform="translate(-32.45 -31.08)"/><path class="cls-1" d="M1195.55,356.68l-33.2,11.27a4.3,4.3,0,0,1-5.46-2.69l-2.88-8.5a4.3,4.3,0,0,1,2.69-5.46L1189.9,340Z" transform="translate(-32.45 -31.08)"/><path class="cls-1" d="M1352.15,155.06c-9.33-30.85-28.66-54.28-57.46-69.65-83.22-44.41-224-8.92-280.67,8.4-38.54,11.79-77,28-117.79,45.27-97.74,41.29-198.79,84-297.2,59.29-5.22-1.31-13.14-4-13.14-4-1-.36-1.7-0.79-1.47-1l0.21-.17C603,178.76,613.82,156,612.8,133.81c-1.12-24.34-16.47-46.53-38.2-55.21C551.2,69.26,523,77.27,509,97.26,492.59,120.61,499,152,512.64,172.7a103.76,103.76,0,0,0,10.21,13.08,2.26,2.26,0,0,1-1.1,3.76c-59.94,13.83-129.7,15.47-208.27,5-4.47-.6-7.09-7.1-7.09-7.1a12.36,12.36,0,0,1-.75-3.86V47a11.18,11.18,0,0,0-.82-3.83L293.61,31.9a11.18,11.18,0,0,0-3.83-.82H48.32a11.18,11.18,0,0,0-3.83.82L33.26,43.13A11.18,11.18,0,0,0,32.45,47V204.67a11.18,11.18,0,0,0,.82,3.83l11.23,11.23a11.18,11.18,0,0,0,3.83.82H301.69C391,233.31,469.95,231.14,537.25,214c4.77-1.22,9.77-2.59,14.83-4.25a2.16,2.16,0,0,1,1.73.16A157.87,157.87,0,0,0,592.35,225C699.66,251.91,805,207.39,906.9,164.33,947,147.4,984.85,131.4,1022,120c41.66-12.74,183.48-51.14,259.74-10.43,22.45,12,36.88,29.45,44.13,53.39,11.15,36.87-4.35,79.51-35.36,98.18-1,.63-1,1-1,1a11.27,11.27,0,0,0,1.16,3.74l9.24,16.51a11,11,0,0,0,2.59,2.93s0.45,0.33,1.54-.32C1345.78,260.29,1366.86,203.72,1352.15,155.06ZM166.94,167.5a56,56,0,0,1-10.39,7,58.21,58.21,0,0,1-12.34,4.68,55,55,0,0,1-13.83,1.72,56.42,56.42,0,0,1-21.71-4.06,50.21,50.21,0,0,1-17-11.32,51,51,0,0,1-11-17.18,62.24,62.24,0,0,1,0-43.42,51.18,51.18,0,0,1,28-29.21,54.68,54.68,0,0,1,21.95-4.29q14.52,0,25.38,5.31c7.23,3.54,16.68,13.83,16.68,13.83a2.06,2.06,0,0,1-.09,2.86l-13.2,12.69a1.88,1.88,0,0,1-2.75-.13s-5.51-6.38-9.78-9a28.42,28.42,0,0,0-15.31-4A30,30,0,0,0,119,95.49a27.5,27.5,0,0,0-9.53,7.1,32.5,32.5,0,0,0-6,10.54,39.67,39.67,0,0,0,0,25.54,30.82,30.82,0,0,0,6,10.31,27.92,27.92,0,0,0,9.37,6.87,29.36,29.36,0,0,0,12.34,2.5,36.17,36.17,0,0,0,9.76-1.17,29.41,29.41,0,0,0,7.34-3.13,28.67,28.67,0,0,0,5.71-4.53c1.66-1.71,3.5-3.75,3.5-3.75a2,2,0,0,1,2.82-.14l13.14,12a2.13,2.13,0,0,1,.2,2.89A68.1,68.1,0,0,1,166.94,167.5Zm90.9-6.17a33,33,0,0,1-8.51,10.31,39.84,39.84,0,0,1-12.65,6.8,49.45,49.45,0,0,1-15.7,2.42,62.89,62.89,0,0,1-14.22-1.49,58,58,0,0,1-11.56-3.9,52.46,52.46,0,0,1-9.29-5.54,66.48,66.48,0,0,1-5.69-5,2.1,2.1,0,0,1-.06-2.88l12.44-13.47a1.91,1.91,0,0,1,2.77-.06s1.53,1.53,3.35,3a40.21,40.21,0,0,0,6.09,4.14,35.72,35.72,0,0,0,7.34,3,30,30,0,0,0,8.52,1.17,18.84,18.84,0,0,0,5.31-.78,17.19,17.19,0,0,0,4.84-2.27,12.11,12.11,0,0,0,3.51-3.59,8.8,8.8,0,0,0,1.32-4.76q0-5.78-5.62-9t-17.8-6.32a47,47,0,0,1-11-4.06,34.43,34.43,0,0,1-8.75-6.4,27.15,27.15,0,0,1-5.7-8.59,27.52,27.52,0,0,1-2-10.78A32.58,32.58,0,0,1,187.08,91a28.62,28.62,0,0,1,7.11-10.23,34.13,34.13,0,0,1,11.87-7,49.18,49.18,0,0,1,16.79-2.58,54.36,54.36,0,0,1,14.05,1.64,50.69,50.69,0,0,1,10.39,3.91,35.92,35.92,0,0,1,7,4.68c1.82,1.62,2.7,2.45,2.7,2.45a2.07,2.07,0,0,1,.1,2.86l-10.9,12a2.18,2.18,0,0,1-2.91.24s-0.91-.72-2.41-1.81a36.34,36.34,0,0,0-5.08-3,34.64,34.64,0,0,0-6.17-2.34,26.27,26.27,0,0,0-7.1-.94,15.9,15.9,0,0,0-4.92.78,17.17,17.17,0,0,0-4.37,2.11,11.08,11.08,0,0,0-3.12,3.12,6.86,6.86,0,0,0-1.18,3.83q0,5.32,5.62,8.59T230,114.78a69.31,69.31,0,0,1,11.33,3.82,37.23,37.23,0,0,1,9.92,6.33,29.32,29.32,0,0,1,7,9.6A32.6,32.6,0,0,1,261,148.36,27.43,27.43,0,0,1,257.84,161.33Zm309.85,10.33a61,61,0,0,1-10.4,6.51,2.36,2.36,0,0,1-2.46-.23,82.88,82.88,0,0,1-19.27-20.3c-8.26-12.57-13.09-31.89-4.15-44.63,4.81-6.85,13.81-10.85,22.77-10.85a27.61,27.61,0,0,1,10.24,1.91c11.73,4.68,20.36,17.44,21,31S579.23,162.58,567.69,171.66Z" transform="translate(-32.45 -31.08)"/><path class="cls-1" d="M32.45,266a11.5,11.5,0,0,1,11.47-11.47h9.95A11.5,11.5,0,0,1,65.33,266V328.5c0,6.31.21,15.55,0.47,20.53l0.94,3.81a25.35,25.35,0,0,0,4.65,9.85,21.3,21.3,0,0,0,8.54,6.38A33.29,33.29,0,0,0,93,371.34a32.67,32.67,0,0,0,12.87-2.27,21.37,21.37,0,0,0,8.55-6.38,25.51,25.51,0,0,0,4.65-9.85L120,349c0.26-5,.47-14.22.47-20.53V266A11.5,11.5,0,0,1,132,254.51h10.16A11.5,11.5,0,0,1,153.6,266v66.62c0,6.31-.44,16.61-1,22.9a49.23,49.23,0,0,1-3.25,12.37,51.6,51.6,0,0,1-12.11,18.5,55.76,55.76,0,0,1-19.15,12A69.32,69.32,0,0,1,93,402.71a71,71,0,0,1-25.1-4.22,53.67,53.67,0,0,1-19.15-12,52.56,52.56,0,0,1-12.11-18.61,49.11,49.11,0,0,1-3.25-12.37c-0.53-6.29-1-16.59-1-22.9V266Z" transform="translate(-32.45 -31.08)"/><path class="cls-1" d="M180.64,266a11.5,11.5,0,0,1,11.47-11.47h8.21c6.31,0,14.34,4.29,17.84,9.54l49.79,74.59c3.5,5.25,6.37,4.38,6.37-1.93V266a11.5,11.5,0,0,1,11.47-11.47h9.29A11.5,11.5,0,0,1,306.55,266V387.34a11.5,11.5,0,0,1-11.47,11.47h-6.7c-6.31,0-14.35-4.29-17.86-9.52l-51.25-76.36c-3.52-5.24-6.39-4.36-6.39,1.95v72.47a11.5,11.5,0,0,1-11.47,11.47h-9.29a11.5,11.5,0,0,1-11.47-11.47V266Z" transform="translate(-32.45 -31.08)"/><path class="cls-1" d="M334.67,266a11.5,11.5,0,0,1,11.47-11.47h29.63c6.31,0,16.62.4,22.9,0.9a42.44,42.44,0,0,1,11.5,3,45.37,45.37,0,0,1,15.68,10.27,39.81,39.81,0,0,1,9.09,14.82A53.19,53.19,0,0,1,437.86,301a48.82,48.82,0,0,1-4,20.44A41.87,41.87,0,0,1,423,336.08a47.49,47.49,0,0,1-15.68,8.87c-5.92,2-7.17,2.12-7.17,2.12-6.29.5-16.45,0.91-22.58,0.91a11.34,11.34,0,0,0-11.14,11.47v27.9A11.5,11.5,0,0,1,355,398.81h-8.86a11.5,11.5,0,0,1-11.47-11.47V266ZM376,321.58a148.26,148.26,0,0,0,20.37-1.84l3.54-3.68q5.3-5.51,5.3-14.38,0-9.09-5.41-14.82l-3.6-3.83a143,143,0,0,0-20.3-1.91c-5.18,0-9.41,5.16-9.41,11.47v17.51C366.47,316.42,370.76,321.58,376,321.58Z" transform="translate(-32.45 -31.08)"/><path class="cls-1" d="M459.71,266a11.5,11.5,0,0,1,11.47-11.47h9.73A11.5,11.5,0,0,1,492.38,266v92.37a11.5,11.5,0,0,0,11.47,11.47h46.07a11.5,11.5,0,0,1,11.47,11.47v6a11.5,11.5,0,0,1-11.47,11.47H471.18a11.5,11.5,0,0,1-11.47-11.47V266Z" transform="translate(-32.45 -31.08)"/><path class="cls-1" d="M577.4,266a11.5,11.5,0,0,1,11.47-11.47h9.95A11.5,11.5,0,0,1,610.28,266V328.5c0,6.31.21,15.55,0.47,20.53l0.94,3.81a25.36,25.36,0,0,0,4.65,9.85,21.33,21.33,0,0,0,8.54,6.38A33.29,33.29,0,0,0,638,371.34a32.67,32.67,0,0,0,12.87-2.27,21.4,21.4,0,0,0,8.55-6.38,25.55,25.55,0,0,0,4.65-9.85L665,349c0.26-5,.47-14.22.47-20.53V266a11.5,11.5,0,0,1,11.47-11.47h10.16A11.5,11.5,0,0,1,698.55,266v66.62c0,6.31-.44,16.61-1,22.9a49.21,49.21,0,0,1-3.25,12.37,51.52,51.52,0,0,1-12.11,18.5,55.73,55.73,0,0,1-19.15,12,69.31,69.31,0,0,1-25.1,4.33,71,71,0,0,1-25.1-4.22,53.67,53.67,0,0,1-19.15-12,52.57,52.57,0,0,1-12.11-18.61,49.2,49.2,0,0,1-3.25-12.37c-0.53-6.29-1-16.59-1-22.9V266Z" transform="translate(-32.45 -31.08)"/><path class="cls-1" d="M800.23,330.89a11.5,11.5,0,0,1,11.47-11.47h32.66a11.5,11.5,0,0,1,11.47,11.47v39.58c0,6.31-4.21,14.45-9.36,18.09A75.94,75.94,0,0,1,829.54,397q-15,5.29-34.29,5.3-17.74,0-31.69-5.52a67.12,67.12,0,0,1-23.69-15.47,66,66,0,0,1-14.82-23.8A87.8,87.8,0,0,1,720,327a81.9,81.9,0,0,1,5.4-30.07,71.2,71.2,0,0,1,38.94-40.24,76.17,76.17,0,0,1,30.29-5.84q19.68,0,34.5,7.25A64.91,64.91,0,0,1,845.75,270a11.49,11.49,0,0,1-.4,16.21l-5.44,5.17a11.69,11.69,0,0,1-16.32-.31s-1.7-1.74-7.25-5.2-12.37-5.19-20.45-5.19a41,41,0,0,0-17.74,3.68A39.41,39.41,0,0,0,765,294.32,43.1,43.1,0,0,0,756.74,309a56.4,56.4,0,0,0-2.81,18,52.11,52.11,0,0,0,3.24,18.82,41.59,41.59,0,0,0,9.09,14.39A40.55,40.55,0,0,0,780,369.39a44.81,44.81,0,0,0,17.19,3.25A56.69,56.69,0,0,0,813,370.58l4.76-1.37c4.4-2.88,8-9.32,8-14.31s-5.16-9.08-11.47-9.08h-2.59a11.5,11.5,0,0,1-11.47-11.47v-3.46Z" transform="translate(-32.45 -31.08)"/><path class="cls-1" d="M956.64,330.89a11.5,11.5,0,0,1,11.47-11.47h32.66a11.5,11.5,0,0,1,11.47,11.47v39.58c0,6.31-4.21,14.45-9.36,18.1A75.93,75.93,0,0,1,986,397q-15,5.29-34.29,5.3-17.74,0-31.69-5.52a67.22,67.22,0,0,1-23.69-15.47,66.09,66.09,0,0,1-14.81-23.8A87.8,87.8,0,0,1,876.37,327a81.9,81.9,0,0,1,5.41-30.07,71.21,71.21,0,0,1,38.94-40.24A76.16,76.16,0,0,1,951,250.84q19.67,0,34.5,7.25A64.94,64.94,0,0,1,1002.16,270a11.48,11.48,0,0,1-.4,16.2l-5.44,5.17a11.68,11.68,0,0,1-16.32-.31s-1.69-1.73-7.25-5.2-12.37-5.19-20.44-5.19a41,41,0,0,0-17.74,3.68,39.38,39.38,0,0,0-13.2,9.95A43.09,43.09,0,0,0,913.15,309a56.55,56.55,0,0,0-2.81,18,52,52,0,0,0,3.25,18.82,41.57,41.57,0,0,0,9.08,14.39,40.61,40.61,0,0,0,13.74,9.19,44.86,44.86,0,0,0,17.2,3.25,56.72,56.72,0,0,0,15.79-2.06l4.75-1.37c4.4-2.88,8-9.32,8-14.31s-5.16-9.08-11.47-9.08h-2.59a11.5,11.5,0,0,1-11.47-11.47v-3.46Z" transform="translate(-32.45 -31.08)"/><path class="cls-1" d="M1038.42,266a11.5,11.5,0,0,1,11.47-11.47h75.71A11.5,11.5,0,0,1,1137.06,266v5.62a11.5,11.5,0,0,1-11.47,11.47h-43a11.5,11.5,0,0,0-11.47,11.47v5.18a11.5,11.5,0,0,0,11.47,11.47h28.33a11.5,11.5,0,0,1,11.47,11.47v4.75a11.5,11.5,0,0,1-11.47,11.47h-28.33a11.5,11.5,0,0,0-11.47,11.47v8.21A11.5,11.5,0,0,0,1082.55,370h47.81a11.5,11.5,0,0,1,11.47,11.47v5.84a11.5,11.5,0,0,1-11.47,11.47h-80.47a11.5,11.5,0,0,1-11.47-11.47V266Z" transform="translate(-32.45 -31.08)"/><path class="cls-1" d="M1164.62,265.53A11.5,11.5,0,0,1,1171.8,251l29.9-10.15c6-2,15.85-5,21.95-6.63a98.66,98.66,0,0,1,19.49-2.86,66.72,66.72,0,0,1,27.4,4.64A59.57,59.57,0,0,1,1293,252.35q9.87,11.27,15.92,29.09,5.77,17,4.52,31.48a62.48,62.48,0,0,1-8.11,26.28,67.06,67.06,0,0,1-18.83,20.55,96.58,96.58,0,0,1-17.19,9.68c-5.82,2.44-15.47,6.09-21.44,8.11l-29.69,10.08a11.5,11.5,0,0,1-14.55-7.18Zm73.72,84.64a176.34,176.34,0,0,0,19.63-8.44s12.75-6.55,17.7-16.22,5.28-20.79,1-33.36a57,57,0,0,0-8.37-16.23,36.06,36.06,0,0,0-12.23-10.47,36.88,36.88,0,0,0-16.06-3.92,35.56,35.56,0,0,0-9,.6c-6.1,1.59-15.34,4.33-20.52,6.09s-7.77,8.09-5.74,14.06l20.44,60.23C1227.26,348.48,1233.16,351.93,1238.34,350.17Z" transform="translate(-32.45 -31.08)"/></svg>