<svg id="Layer_1" data-name="Layer 1" xmlns="http://www.w3.org/2000/svg" viewBox="0 0 267.17 74.97"><defs><style>.cls-1{fill:#fff;}</style></defs><title>logo-mono-small</title><path class="cls-1" d="M263.48,86.14l-6.7,2.27a0.87,0.87,0,0,1-1.1-.54l-0.58-1.71a0.87,0.87,0,0,1,.54-1.1l6.7-2.27Z" transform="translate(-32.45 -31.08)"/><path class="cls-1" d="M267.08,96.77L260.39,99a0.87,0.87,0,0,1-1.1-.54l-0.58-1.71a0.87,0.87,0,0,1,.54-1.1l6.7-2.27Z" transform="translate(-32.45 -31.08)"/><path class="cls-1" d="M298.68,56.09A23,23,0,0,0,287.08,42c-16.79-9-45.19-1.8-56.62,1.69a250.1,250.1,0,0,0-23.76,9.13c-19.72,8.33-40.1,16.94-60,12l-1.14-.29a10.1,10.1,0,0,1-1.81-.71l0,0a14.73,14.73,0,0,0,5.68-12,12.7,12.7,0,0,0-7.71-11.14,11.34,11.34,0,0,0-13.24,3.77c-3.3,4.71-2,11,.74,15.22a20.93,20.93,0,0,0,2.06,2.64,0.46,0.46,0,0,1-.22.76c-12.09,2.79-26.17,3.12-42,1l-0.9-.12a11.82,11.82,0,0,1-.68-3.69V35.88a10,10,0,0,0-.63-3.4c-0.34-.77-3.07-1.4-4.17-1.4H37.25a10,10,0,0,0-3.4.63c-0.77.34-1.4,3.07-1.4,4.17V64.5a10,10,0,0,0,.63,3.4c0.34,0.77,3.07,1.4,4.17,1.4H86.76c18,2.57,33.94,2.13,47.52-1.33,1-.25,2-0.52,3-0.86a0.44,0.44,0,0,1,.35,0,31.85,31.85,0,0,0,7.78,3C167,75.63,188.3,66.65,208.85,58A246.45,246.45,0,0,1,232.08,49c8.4-2.57,37-10.32,52.4-2.1a17.41,17.41,0,0,1,8.9,10.77c2.25,7.44-.88,16-7.13,19.81l-0.21.13a10.67,10.67,0,0,0,1,2.22l0.3,0.54a10.19,10.19,0,0,0,1.39,2.05l0.22-.13C297.39,77.32,301.64,65.91,298.68,56.09ZM59.58,58.6a11.29,11.29,0,0,1-2.1,1.4,11.74,11.74,0,0,1-2.49.94,11.09,11.09,0,0,1-2.79.35,11.38,11.38,0,0,1-4.38-.82,10.13,10.13,0,0,1-3.42-2.28,10.28,10.28,0,0,1-2.22-3.47,12.56,12.56,0,0,1,0-8.76,10.33,10.33,0,0,1,5.66-5.89,11,11,0,0,1,4.43-.87,11.53,11.53,0,0,1,5.12,1.07,8.31,8.31,0,0,1,2.29,1.61,2.06,2.06,0,0,1-.09,2.86l-0.36.35A1.88,1.88,0,0,1,56.47,45a7.88,7.88,0,0,0-.93-0.61,5.73,5.73,0,0,0-3.09-.8,6,6,0,0,0-2.55.52A5.55,5.55,0,0,0,48,45.51a6.56,6.56,0,0,0-1.21,2.13,8,8,0,0,0,0,5.15A6.22,6.22,0,0,0,48,54.87a5.63,5.63,0,0,0,1.89,1.39,5.92,5.92,0,0,0,2.49.5,7.3,7.3,0,0,0,2-.24,5.93,5.93,0,0,0,1.48-.63A5.78,5.78,0,0,0,57,55l0.33-.35c0.35-.39,1.31-0.1,2.12.64l0.29,0.27a1.93,1.93,0,0,1,.5,2.53Zm18.34-1.24a6.66,6.66,0,0,1-1.72,2.08,8,8,0,0,1-2.55,1.37,10,10,0,0,1-3.17.49,12.69,12.69,0,0,1-2.87-.3,11.69,11.69,0,0,1-2.33-.79,10.58,10.58,0,0,1-1.87-1.12l-0.56-.42c-0.48-.48-0.27-1.53.48-2.34L63.67,56c0.75-.81,1.62-1.2,2-0.88L66,55.39a8.11,8.11,0,0,0,1.23.83,7.21,7.21,0,0,0,1.48.61,6.06,6.06,0,0,0,1.72.24,3.8,3.8,0,0,0,1.07-.16,3.47,3.47,0,0,0,1-.46,2.44,2.44,0,0,0,.71-0.72,1.78,1.78,0,0,0,.27-1A2,2,0,0,0,72.31,53a15.53,15.53,0,0,0-3.59-1.28,9.47,9.47,0,0,1-2.22-.82,7,7,0,0,1-1.76-1.29,5.48,5.48,0,0,1-1.15-1.73,5.55,5.55,0,0,1-.41-2.17,6.57,6.57,0,0,1,.47-2.49,5.77,5.77,0,0,1,1.43-2.06,6.89,6.89,0,0,1,2.39-1.42,9.92,9.92,0,0,1,3.39-.52,11,11,0,0,1,2.84.33,10.23,10.23,0,0,1,2.1.79,7.25,7.25,0,0,1,1.42.95l0.37,0.33c0.26,0.25-.14,1.11-0.87,1.93l-0.06.06c-0.74.82-1.57,1.3-1.84,1.09l-0.3-.22a7.33,7.33,0,0,0-1-.61,7,7,0,0,0-1.25-.47,5.3,5.3,0,0,0-1.43-.19,3.21,3.21,0,0,0-1,.16,3.46,3.46,0,0,0-.88.42,2.24,2.24,0,0,0-.63.63,1.38,1.38,0,0,0-.24.77,2,2,0,0,0,1.13,1.73A11.09,11.09,0,0,0,72.31,48a14,14,0,0,1,2.29.77,7.51,7.51,0,0,1,2,1.28A5.91,5.91,0,0,1,78,52a6.58,6.58,0,0,1,.54,2.79A5.53,5.53,0,0,1,77.92,57.36Zm62.51,2.08a12.3,12.3,0,0,1-2.1,1.31,0.48,0.48,0,0,1-.5,0,16.72,16.72,0,0,1-3.89-4.09c-1.67-2.53-2.64-6.43-.84-9a5.66,5.66,0,0,1,4.59-2.19,5.57,5.57,0,0,1,2.07.38A7.18,7.18,0,0,1,144,52.06,9.12,9.12,0,0,1,140.42,59.44Z" transform="translate(-32.45 -31.08)"/><path class="cls-1" d="M32.45,78.47a2.32,2.32,0,0,1,2.31-2.31h2a2.32,2.32,0,0,1,2.31,2.31V91.08c0,1.27,0,3.14.09,4.14L39.36,96a5.11,5.11,0,0,0,.94,2A4.3,4.3,0,0,0,42,99.27a6.72,6.72,0,0,0,2.64.46,6.59,6.59,0,0,0,2.6-.46A4.31,4.31,0,0,0,49,98a5.15,5.15,0,0,0,.94-2l0.19-.77c0.05-1,.09-2.87.09-4.14V78.47a2.32,2.32,0,0,1,2.31-2.31h2a2.32,2.32,0,0,1,2.31,2.31V91.91c0,1.27-.09,3.35-0.2,4.62A9.93,9.93,0,0,1,56,99a10.41,10.41,0,0,1-2.44,3.73,11.25,11.25,0,0,1-3.86,2.42,14,14,0,0,1-5.06.87,14.33,14.33,0,0,1-5.06-.85,10.83,10.83,0,0,1-3.86-2.42A10.6,10.6,0,0,1,33.3,99a9.91,9.91,0,0,1-.66-2.5c-0.11-1.27-.2-3.35-0.2-4.62V78.47Z" transform="translate(-32.45 -31.08)"/><path class="cls-1" d="M62.34,78.47a2.32,2.32,0,0,1,2.31-2.31h1.66a4.85,4.85,0,0,1,3.6,1.92l10,15c0.71,1.06,1.28.88,1.28-.39V78.47a2.32,2.32,0,0,1,2.31-2.31h1.87a2.32,2.32,0,0,1,2.31,2.31V103a2.32,2.32,0,0,1-2.31,2.31H84.08a4.87,4.87,0,0,1-3.6-1.92L70.13,87.94c-0.71-1.06-1.29-.88-1.29.39V103a2.32,2.32,0,0,1-2.31,2.31H64.66A2.32,2.32,0,0,1,62.34,103V78.47Z" transform="translate(-32.45 -31.08)"/><path class="cls-1" d="M93.42,78.47a2.32,2.32,0,0,1,2.31-2.31h6c1.27,0,3.35.08,4.62,0.18a8.56,8.56,0,0,1,2.32.61A9.15,9.15,0,0,1,111.81,79a8,8,0,0,1,1.83,3,10.73,10.73,0,0,1,.59,3.54,9.85,9.85,0,0,1-.81,4.12,8.45,8.45,0,0,1-2.18,2.95,9.58,9.58,0,0,1-3.16,1.79,8.81,8.81,0,0,1-1.45.43c-1.27.1-3.32,0.18-4.55,0.18a2.29,2.29,0,0,0-2.25,2.31V103a2.32,2.32,0,0,1-2.31,2.31H95.73A2.32,2.32,0,0,1,93.42,103V78.47Zm8.34,11.22a29.91,29.91,0,0,0,4.11-.37l0.71-.74a4,4,0,0,0,1.07-2.9,4.18,4.18,0,0,0-1.09-3l-0.73-.77a28.84,28.84,0,0,0-4.1-.39,2.14,2.14,0,0,0-1.9,2.31v3.53A2.15,2.15,0,0,0,101.75,89.69Z" transform="translate(-32.45 -31.08)"/><path class="cls-1" d="M118.64,78.47A2.32,2.32,0,0,1,121,76.16h2a2.32,2.32,0,0,1,2.31,2.31V97.11a2.32,2.32,0,0,0,2.31,2.31h9.29a2.32,2.32,0,0,1,2.31,2.31V103a2.32,2.32,0,0,1-2.31,2.31H121a2.32,2.32,0,0,1-2.31-2.31V78.47Z" transform="translate(-32.45 -31.08)"/><path class="cls-1" d="M142.38,78.47a2.32,2.32,0,0,1,2.31-2.31h2A2.32,2.32,0,0,1,149,78.47V91.08c0,1.27,0,3.14.09,4.14L149.3,96a5.12,5.12,0,0,0,.94,2A4.3,4.3,0,0,0,152,99.27a6.72,6.72,0,0,0,2.64.46,6.59,6.59,0,0,0,2.6-.46A4.32,4.32,0,0,0,158.92,98a5.15,5.15,0,0,0,.94-2l0.19-.77c0.05-1,.09-2.87.09-4.14V78.47a2.32,2.32,0,0,1,2.31-2.31h2a2.32,2.32,0,0,1,2.31,2.31V91.91c0,1.27-.09,3.35-0.2,4.62A9.93,9.93,0,0,1,166,99a10.39,10.39,0,0,1-2.44,3.73,11.24,11.24,0,0,1-3.86,2.42,14,14,0,0,1-5.06.87,14.33,14.33,0,0,1-5.06-.85,10.83,10.83,0,0,1-3.86-2.42A10.61,10.61,0,0,1,143.23,99a9.93,9.93,0,0,1-.66-2.5c-0.11-1.27-.2-3.35-0.2-4.62V78.47Z" transform="translate(-32.45 -31.08)"/><path class="cls-1" d="M187.33,91.56a2.32,2.32,0,0,1,2.31-2.31h6.59a2.32,2.32,0,0,1,2.31,2.31v8a5,5,0,0,1-1.89,3.65,15.32,15.32,0,0,1-3.41,1.7,20.76,20.76,0,0,1-6.92,1.07,17.27,17.27,0,0,1-6.39-1.11,13.54,13.54,0,0,1-4.78-3.12,13.32,13.32,0,0,1-3-4.8,17.71,17.71,0,0,1-1-6.15,16.52,16.52,0,0,1,1.09-6.07,14.36,14.36,0,0,1,7.86-8.12,15.37,15.37,0,0,1,6.11-1.18,15.68,15.68,0,0,1,7,1.46,13.09,13.09,0,0,1,3.36,2.41,2.32,2.32,0,0,1-.08,3.27l-1.1,1a2.36,2.36,0,0,1-3.29-.06,8.86,8.86,0,0,0-1.46-1,7.65,7.65,0,0,0-4.12-1,8.28,8.28,0,0,0-3.58.74,8,8,0,0,0-2.66,2,8.69,8.69,0,0,0-1.66,3,11.38,11.38,0,0,0-.57,3.62,10.51,10.51,0,0,0,.65,3.8,8.39,8.39,0,0,0,1.83,2.9,8.18,8.18,0,0,0,2.77,1.85,9,9,0,0,0,3.47.66,11.44,11.44,0,0,0,3.19-.42l1-.28a3.89,3.89,0,0,0,1.61-2.89,2.12,2.12,0,0,0-2.31-1.83h-0.52a2.32,2.32,0,0,1-2.31-2.31v-0.7Z" transform="translate(-32.45 -31.08)"/><path class="cls-1" d="M218.89,91.56a2.32,2.32,0,0,1,2.31-2.31h6.59a2.32,2.32,0,0,1,2.31,2.31v8a5,5,0,0,1-1.89,3.65,15.32,15.32,0,0,1-3.41,1.7,20.77,20.77,0,0,1-6.92,1.07,17.27,17.27,0,0,1-6.39-1.11,13.56,13.56,0,0,1-4.78-3.12,13.33,13.33,0,0,1-3-4.8,17.71,17.71,0,0,1-1-6.15,16.52,16.52,0,0,1,1.09-6.07,14.36,14.36,0,0,1,7.86-8.12,15.36,15.36,0,0,1,6.11-1.18,15.68,15.68,0,0,1,7,1.46,13.1,13.1,0,0,1,3.36,2.41,2.32,2.32,0,0,1-.08,3.27l-1.1,1a2.36,2.36,0,0,1-3.29-.06,8.84,8.84,0,0,0-1.46-1,7.65,7.65,0,0,0-4.12-1,8.28,8.28,0,0,0-3.58.74,7.94,7.94,0,0,0-2.66,2,8.69,8.69,0,0,0-1.66,3,11.41,11.41,0,0,0-.57,3.62,10.49,10.49,0,0,0,.66,3.8,8.39,8.39,0,0,0,1.83,2.9,8.19,8.19,0,0,0,2.77,1.85,9,9,0,0,0,3.47.66,11.44,11.44,0,0,0,3.19-.42l1-.28A3.89,3.89,0,0,0,224,96.41a2.12,2.12,0,0,0-2.31-1.83H221.2a2.32,2.32,0,0,1-2.31-2.31v-0.7Z" transform="translate(-32.45 -31.08)"/><path class="cls-1" d="M235.39,78.47a2.32,2.32,0,0,1,2.31-2.31H253a2.32,2.32,0,0,1,2.31,2.31V79.6A2.32,2.32,0,0,1,253,81.92h-8.68A2.32,2.32,0,0,0,242,84.23v1a2.32,2.32,0,0,0,2.31,2.31H250a2.32,2.32,0,0,1,2.31,2.31v1A2.32,2.32,0,0,1,250,93.18h-5.72A2.32,2.32,0,0,0,242,95.49v1.66a2.32,2.32,0,0,0,2.31,2.31h9.64a2.32,2.32,0,0,1,2.31,2.31V103a2.32,2.32,0,0,1-2.31,2.31H237.7a2.32,2.32,0,0,1-2.31-2.31V78.47Z" transform="translate(-32.45 -31.08)"/><path class="cls-1" d="M260.84,78.38a2.32,2.32,0,0,1,1.45-2.93l6-2c1.21-.41,3.2-1,4.43-1.34a19.9,19.9,0,0,1,3.93-.58,13.46,13.46,0,0,1,5.53.94,12,12,0,0,1,4.53,3.3A17.18,17.18,0,0,1,290,81.59a15.6,15.6,0,0,1,.91,6.35,12.6,12.6,0,0,1-1.64,5.3,13.53,13.53,0,0,1-3.8,4.15,19.48,19.48,0,0,1-3.47,2c-1.17.49-3.12,1.23-4.33,1.64l-6,2a2.32,2.32,0,0,1-2.93-1.45Zm14.87,17.07a35.57,35.57,0,0,0,4-1.7,9.37,9.37,0,0,0,3.57-3.27,8.39,8.39,0,0,0,.2-6.73,11.5,11.5,0,0,0-1.69-3.27,7.27,7.27,0,0,0-2.47-2.11,7.44,7.44,0,0,0-3.24-.79,7.17,7.17,0,0,0-1.81.12c-1.23.32-3.09,0.87-4.14,1.23a2.18,2.18,0,0,0-1.16,2.84l4.12,12.15A2.18,2.18,0,0,0,275.72,95.45Z" transform="translate(-32.45 -31.08)"/></svg>