<svg version="1" xmlns="http://www.w3.org/2000/svg" width="400" height="400" viewBox="0 0 300.000000 300.000000"><path d="M32.2 47.1c-12 2-23.6 11-29 22.6L.5 75.5v150l3.1 6.6c4.4 9.3 9.3 14.2 18.2 18.7l7.6 3.7h241.2l7.6-3.7c8.9-4.5 13.8-9.4 18.2-18.7l3.1-6.6v-150l-2.7-5.8c-5.6-12-16.9-20.5-29.9-22.6-8-1.3-226.9-1.3-234.7 0zm90.7 46.8c3.5 1.2 8.3 3.5 10.5 5.1 6.7 4.5 14.6 12.1 14.6 13.8 0 2-13.9 16.2-15.8 16.2-.8 0-4.1-2.5-7.4-5.5-9.5-8.6-21.5-11.1-33.5-7.1-17.7 5.9-26.8 28.9-19.2 49.1 2.5 6.8 8.8 13.9 15.3 17.3 4.6 2.4 6.1 2.7 15.1 2.7 11.9-.1 16.2-1.7 24.3-9 4.2-3.7 5.7-4.6 7.1-3.9 3.2 1.6 15.1 13.1 15.1 14.7 0 .8-2.9 4.2-6.5 7.5-23.3 21.8-61.7 21.4-83.7-.9-17.7-18-21.7-47.5-9.7-71.8 7-14.2 20.4-25.2 36-29.6 8.3-2.3 29.4-1.5 37.8 1.4zm95.8-1.5c10.7 2.9 21.3 9.7 21.3 13.8 0 2.4-10.9 14.8-13.1 14.8-.9 0-4.2-1.6-7.4-3.5-10.2-6.1-19.6-6.9-26.6-2.2-4.9 3.3-6.3 6.7-4.5 11 2 4.9 4.4 6.2 19.1 10.9 21.5 6.8 28.5 11.4 33.7 22.3 2.4 5.2 2.8 7.2 2.8 15.1 0 7.7-.4 9.8-2.6 14.2-5.4 10.8-17 18.9-30.8 21.3-8.8 1.5-22.1.6-30.7-2-10.9-3.4-23.9-12.3-23.9-16.4 0-2.2 12.8-16.7 14.8-16.7.8 0 3.2 1.6 5.5 3.5 13.9 12 33.7 12.4 39.2.8 1.5-3.1 1.5-4 .3-7-1.9-5.2-4.9-7-21.4-12.4-16.8-5.6-23.7-9.7-28.4-16.7-4.1-6.2-5.3-11.3-4.8-20.2.9-14.9 10.7-26.6 25.7-30.6 6.3-1.7 25.4-1.7 31.8 0z"/></svg>