<?xml version="1.0" encoding="UTF-8"?>
<svg width="138mm" height="80.265mm" version="1.1" viewBox="0 0 138 80.265" xmlns="http://www.w3.org/2000/svg">
 <g stroke-width=".26458">
  <g fill="#fff" stroke="#000">
   <rect x=".13229" y=".13229" width="10" height="10" style="paint-order:markers fill stroke"/>
   <rect x="10.132" y=".13229" width="10" height="10" style="paint-order:markers fill stroke"/>
   <rect x="20.132" y=".13229" width="10" height="10" style="paint-order:markers fill stroke"/>
   <rect x="30.132" y=".13229" width="10" height="10" style="paint-order:markers fill stroke"/>
  </g>
  <rect x="40.132" y=".13229" width="10" height="10" stroke="#000" style="paint-order:markers fill stroke"/>
  <rect x="50.132" y=".13229" width="10" height="10" stroke="#000" style="paint-order:markers fill stroke"/>
  <g fill="#fff" stroke="#000">
   <rect x="60.132" y=".13229" width="10" height="10" style="paint-order:markers fill stroke"/>
   <rect x="70.132" y=".13229" width="10" height="10" style="paint-order:markers fill stroke"/>
   <rect x=".13229" y="10.132" width="10" height="10" style="paint-order:markers fill stroke"/>
   <rect x="10.132" y="10.132" width="10" height="10" style="paint-order:markers fill stroke"/>
   <rect x="20.132" y="10.132" width="10" height="10" style="paint-order:markers fill stroke"/>
  </g>
  <g stroke="#000">
   <rect x="30.132" y="10.132" width="10" height="10" style="paint-order:markers fill stroke"/>
   <rect x="40.132" y="10.132" width="10" height="10" fill="#fff" style="paint-order:markers fill stroke"/>
   <rect x="50.132" y="10.132" width="10" height="10" fill="#fff" style="paint-order:markers fill stroke"/>
   <rect x="60.132" y="10.132" width="10" height="10" style="paint-order:markers fill stroke"/>
  </g>
  <g fill="#fff" stroke="#000">
   <rect x="70.132" y="10.132" width="10" height="10" style="paint-order:markers fill stroke"/>
   <rect x=".13229" y="20.132" width="10" height="10" style="paint-order:markers fill stroke"/>
   <rect x="10.132" y="20.132" width="10" height="10" style="paint-order:markers fill stroke"/>
   <rect x="20.132" y="20.132" width="10" height="10" style="paint-order:markers fill stroke"/>
  </g>
  <g stroke="#000">
   <rect x="30.132" y="20.132" width="10" height="10" style="paint-order:markers fill stroke"/>
   <rect x="40.132" y="20.132" width="10" height="10" fill="#fff" style="paint-order:markers fill stroke"/>
   <rect x="50.132" y="20.132" width="10" height="10" fill="#fff" style="paint-order:markers fill stroke"/>
  </g>
  <g stroke="#000">
   <rect x="60.132" y="20.132" width="10" height="10" style="paint-order:markers fill stroke"/>
   <rect x="70.132" y="20.132" width="10" height="10" style="paint-order:markers fill stroke"/>
   <rect x=".13229" y="30.132" width="10" height="10" style="paint-order:markers fill stroke"/>
  </g>
  <g fill="#fff" stroke="#000">
   <rect x="10.132" y="30.132" width="10" height="10" style="paint-order:markers fill stroke"/>
   <rect x="20.132" y="30.132" width="10" height="10" style="paint-order:markers fill stroke"/>
   <rect x="30.132" y="30.132" width="10" height="10" style="paint-order:markers fill stroke"/>
  </g>
  <g stroke="#000">
   <rect x="40.132" y="30.132" width="10" height="10" style="paint-order:markers fill stroke"/>
   <rect x="50.132" y="30.132" width="10" height="10" style="paint-order:markers fill stroke"/>
   <rect x="60.132" y="30.132" width="10" height="10" fill="#fff" style="paint-order:markers fill stroke"/>
   <rect x="70.132" y="30.132" width="10" height="10" fill="#fff" style="paint-order:markers fill stroke"/>
  </g>
  <g stroke="#000">
   <rect x=".13229" y="40.132" width="10" height="10" style="paint-order:markers fill stroke"/>
   <rect x="10.132" y="40.132" width="10" height="10" style="paint-order:markers fill stroke"/>
   <rect x="20.132" y="40.132" width="10" height="10" style="paint-order:markers fill stroke"/>
   <rect x="30.132" y="40.132" width="10" height="10" style="paint-order:markers fill stroke"/>
  </g>
  <g stroke="#000">
   <rect x="40.132" y="40.132" width="10" height="10" fill="#fff" style="paint-order:markers fill stroke"/>
   <rect x="50.132" y="40.132" width="10" height="10" fill="#fff" style="paint-order:markers fill stroke"/>
   <rect x="60.132" y="40.132" width="10" height="10" style="paint-order:markers fill stroke"/>
   <rect x="70.132" y="40.132" width="10" height="10" fill="#fff" style="paint-order:markers fill stroke"/>
   <rect x=".13229" y="50.132" width="10" height="10" fill="#fff" style="paint-order:markers fill stroke"/>
   <rect x="10.132" y="50.132" width="10" height="10" style="paint-order:markers fill stroke"/>
  </g>
  <g fill="#fff" stroke="#000">
   <rect x="20.132" y="50.132" width="10" height="10" style="paint-order:markers fill stroke"/>
   <rect x="30.132" y="50.132" width="10" height="10" style="paint-order:markers fill stroke"/>
   <rect x="40.132" y="50.132" width="10" height="10" style="paint-order:markers fill stroke"/>
   <rect x="50.132" y="50.132" width="10" height="10" style="paint-order:markers fill stroke"/>
  </g>
  <rect x="60.132" y="50.132" width="10" height="10" stroke="#000" style="paint-order:markers fill stroke"/>
  <g fill="#fff" stroke="#000">
   <rect x="70.132" y="50.132" width="10" height="10" style="paint-order:markers fill stroke"/>
   <rect x=".13229" y="60.132" width="10" height="10" style="paint-order:markers fill stroke"/>
   <rect x="10.132" y="60.132" width="10" height="10" style="paint-order:markers fill stroke"/>
  </g>
  <g stroke="#000">
   <rect x="20.132" y="60.132" width="10" height="10" style="paint-order:markers fill stroke"/>
   <rect x="30.132" y="60.132" width="10" height="10" style="paint-order:markers fill stroke"/>
   <rect x="40.132" y="60.132" width="10" height="10" style="paint-order:markers fill stroke"/>
   <rect x="50.132" y="60.132" width="10" height="10" style="paint-order:markers fill stroke"/>
  </g>
  <g fill="#fff" stroke="#000">
   <rect x="60.132" y="60.132" width="10" height="10" style="paint-order:markers fill stroke"/>
   <rect x="70.132" y="60.132" width="10" height="10" style="paint-order:markers fill stroke"/>
   <rect x=".13229" y="70.132" width="10" height="10" style="paint-order:markers fill stroke"/>
   <rect x="10.132" y="70.132" width="10" height="10" style="paint-order:markers fill stroke"/>
   <rect x="20.132" y="70.132" width="10" height="10" style="paint-order:markers fill stroke"/>
  </g>
  <rect x="30.132" y="70.132" width="10" height="10" stroke="#000" style="paint-order:markers fill stroke"/>
  <rect x="40.132" y="70.132" width="10" height="10" stroke="#000" style="paint-order:markers fill stroke"/>
  <g fill="#fff" stroke="#000">
   <rect x="50.132" y="70.132" width="10" height="10" style="paint-order:markers fill stroke"/>
   <rect x="60.132" y="70.132" width="10" height="10" style="paint-order:markers fill stroke"/>
   <rect x="70.132" y="70.132" width="10" height="10" style="paint-order:markers fill stroke"/>
  </g>
  <g fill="#666" stroke="#666" style="paint-order:markers fill stroke" aria-label="4,2,2">
   <path d="m88.387 6.7033h-1.1524v1.4934h-0.91984v-1.4934h-3.2504v-0.79065l2.8784-4.47h1.2919v4.47h1.1524zm-2.0722-4.3925-2.3513 3.6018h2.3513z"/>
   <path d="m89.891 9.2561q0.26355 0.010335 0.5116-0.046509 0.24805-0.056844 0.43408-0.17053 0.1912-0.10852 0.30489-0.27388 0.11369-0.16536 0.11369-0.37724 0-0.21704-0.07751-0.3514-0.07235-0.13436-0.16536-0.24805-0.09302-0.11369-0.17053-0.24288-0.07235-0.12919-0.07235-0.34623 0-0.10852 0.04134-0.22738t0.12402-0.21704q0.08785-0.098185 0.21704-0.1602 0.13436-0.062011 0.31523-0.062011t0.34623 0.077514q0.17053 0.072347 0.29455 0.22738 0.12919 0.15503 0.20154 0.38757 0.07751 0.23254 0.07751 0.54777 0 0.42891-0.1602 0.82165-0.15503 0.39791-0.47025 0.7028-0.31006 0.30489-0.78031 0.48576-0.46509 0.18087-1.0852 0.18087z"/>
   <path d="m99.689 8.1967h-4.4493v-0.80615l1.7467-1.7363q0.42891-0.42375 0.69763-0.7338 0.26872-0.31006 0.41858-0.56327 0.14986-0.25838 0.20154-0.48576 0.05168-0.22738 0.05168-0.49092 0-0.24805-0.06718-0.47025-0.067182-0.22738-0.20671-0.39791t-0.36173-0.26872q-0.22221-0.098185-0.53227-0.098185-0.42891 0-0.78031 0.1912-0.3514 0.1912-0.64595 0.49609l-0.49609-0.59428q0.3824-0.40307 0.8785-0.64595 0.50126-0.24288 1.1627-0.24288 0.44958 0 0.81648 0.13436 0.37207 0.13436 0.64078 0.38757 0.26872 0.25321 0.41341 0.62012 0.14986 0.3669 0.14986 0.82682 0 0.38757-0.10335 0.7183-0.10335 0.33073-0.31522 0.66146-0.2067 0.32556-0.5271 0.67696-0.31522 0.3514-0.74931 0.76998l-1.2247 1.1937h3.2814z"/>
   <path d="m101.53 9.2561q0.26355 0.010335 0.51159-0.046509 0.24805-0.056844 0.43409-0.17053 0.1912-0.10852 0.30489-0.27388 0.11368-0.16536 0.11368-0.37724 0-0.21704-0.0775-0.3514-0.0724-0.13436-0.16537-0.24805-0.093-0.11369-0.17053-0.24288-0.0723-0.12919-0.0723-0.34623 0-0.10852 0.0413-0.22738t0.12402-0.21704q0.0879-0.098185 0.21704-0.1602 0.13436-0.062011 0.31523-0.062011 0.18086 0 0.34623 0.077514 0.17053 0.072347 0.29455 0.22738 0.12919 0.15503 0.20154 0.38757 0.0775 0.23254 0.0775 0.54777 0 0.42891-0.16019 0.82165-0.15503 0.39791-0.47026 0.7028-0.31005 0.30489-0.78031 0.48576-0.46509 0.18087-1.0852 0.18087z"/>
   <path d="m111.33 8.1967h-4.4493v-0.80615l1.7467-1.7363q0.42891-0.42375 0.69763-0.7338t0.41858-0.56327q0.14986-0.25838 0.20154-0.48576 0.0517-0.22738 0.0517-0.49092 0-0.24805-0.0672-0.47025-0.0672-0.22738-0.2067-0.39791-0.13953-0.17053-0.36174-0.26872-0.2222-0.098185-0.53226-0.098185-0.42891 0-0.78031 0.1912t-0.64596 0.49609l-0.49609-0.59428q0.38241-0.40307 0.8785-0.64595 0.50126-0.24288 1.1627-0.24288 0.44959 0 0.81649 0.13436 0.37207 0.13436 0.64079 0.38757 0.26871 0.25321 0.41341 0.62012 0.14986 0.3669 0.14986 0.82682 0 0.38757-0.10336 0.7183-0.10335 0.33073-0.31522 0.66146-0.20671 0.32556-0.5271 0.67696-0.31522 0.3514-0.7493 0.76998l-1.2247 1.1937h3.2814z"/>
  </g>
  <g fill="#666" stroke="#666">
   <path d="m87.922 15.621q0 0.44442-0.18087 0.83716-0.18087 0.38757-0.5426 0.68213-0.36173 0.28939-0.9095 0.45992-0.54777 0.16536-1.2764 0.16536-0.40308 0-0.72347-0.02584t-0.59944-0.06718v-0.80615q0.32039 0.05684 0.67696 0.08785 0.35657 0.03101 0.72864 0.03101 0.50643 0 0.86299-0.08785 0.36173-0.09302 0.58911-0.26355 0.22738-0.17053 0.33073-0.41341 0.10335-0.24288 0.10335-0.54777 0-0.27905-0.12402-0.48576t-0.3514-0.34623q-0.22221-0.13953-0.53743-0.2067-0.31006-0.07235-0.68213-0.07235h-0.76998v-0.73897h0.78031q0.30489 0 0.55294-0.07751 0.25321-0.08268 0.42891-0.23254 0.18087-0.14986 0.27388-0.3669 0.09819-0.22221 0.09819-0.50126 0-0.5426-0.33073-0.79065-0.33073-0.24805-0.97151-0.24805-0.34106 0-0.7028 0.06718-0.36173 0.06718-0.77514 0.20154v-0.78548q0.1757-0.06201 0.37207-0.10852 0.20154-0.05168 0.39791-0.08268 0.20154-0.03617 0.39791-0.05168 0.19637-0.02067 0.37724-0.02067 0.53743 0 0.94568 0.11886 0.40824 0.11369 0.68213 0.33073 0.27388 0.21704 0.41341 0.5271 0.13953 0.31006 0.13953 0.69763 0 0.57877-0.29972 0.97151-0.29456 0.39274-0.81132 0.62528 0.26355 0.04134 0.51676 0.16536 0.25838 0.12402 0.45992 0.32039 0.2067 0.1912 0.33073 0.45475 0.12919 0.26355 0.12919 0.58394z" style="paint-order:markers fill stroke"/>
   <path d="m89.891 18.732q0.26355 0.01034 0.5116-0.04651 0.24805-0.05684 0.43408-0.17053 0.1912-0.10852 0.30489-0.27388t0.11369-0.37724q0-0.21704-0.07751-0.3514-0.07235-0.13436-0.16536-0.24805-0.09302-0.11369-0.17053-0.24288-0.07235-0.12919-0.07235-0.34623 0-0.10852 0.04134-0.22738 0.04134-0.11886 0.12402-0.21704 0.08785-0.09819 0.21704-0.1602 0.13436-0.06201 0.31523-0.06201t0.34623 0.07752q0.17053 0.07235 0.29455 0.22738 0.12919 0.15503 0.20154 0.38757 0.07751 0.23254 0.07751 0.54777 0 0.42891-0.1602 0.82165-0.15503 0.39791-0.47025 0.7028-0.31006 0.30489-0.78031 0.48576-0.46509 0.18087-1.0852 0.18087z" style="paint-order:markers fill stroke"/>
   <path d="m99.632 17.672h-4.2426v-0.83716h1.7363v-4.9299l-1.6175 0.8785-0.33073-0.76481 2.1497-1.1317h0.79582v5.9479h1.5089z" style="paint-order:markers fill stroke"/>
   <path d="m101.53 18.732q0.26355 0.01034 0.51159-0.04651 0.24805-0.05684 0.43409-0.17053 0.1912-0.10852 0.30489-0.27388 0.11368-0.16536 0.11368-0.37724 0-0.21704-0.0775-0.3514-0.0724-0.13436-0.16537-0.24805-0.093-0.11369-0.17053-0.24288-0.0723-0.12919-0.0723-0.34623 0-0.10852 0.0413-0.22738 0.0413-0.11886 0.12402-0.21704 0.0879-0.09819 0.21704-0.1602 0.13436-0.06201 0.31523-0.06201 0.18086 0 0.34623 0.07752 0.17053 0.07235 0.29455 0.22738 0.12919 0.15503 0.20154 0.38757 0.0775 0.23254 0.0775 0.54777 0 0.42891-0.16019 0.82165-0.15503 0.39791-0.47026 0.7028-0.31005 0.30489-0.78031 0.48576-0.46509 0.18087-1.0852 0.18087z" style="paint-order:markers fill stroke"/>
   <path d="m111.33 17.672h-4.4493v-0.80615l1.7467-1.7363q0.42891-0.42375 0.69763-0.7338 0.26872-0.31006 0.41858-0.56327 0.14986-0.25838 0.20154-0.48576 0.0517-0.22738 0.0517-0.49092 0-0.24805-0.0672-0.47025-0.0672-0.22738-0.2067-0.39791-0.13953-0.17053-0.36174-0.26872-0.2222-0.09819-0.53226-0.09819-0.42891 0-0.78031 0.1912-0.3514 0.1912-0.64596 0.49609l-0.49609-0.59428q0.38241-0.40308 0.8785-0.64595 0.50126-0.24288 1.1627-0.24288 0.44959 0 0.81649 0.13436 0.37207 0.13436 0.64079 0.38757 0.26871 0.25321 0.41341 0.62012 0.14986 0.3669 0.14986 0.82682 0 0.38757-0.10336 0.7183-0.10335 0.33073-0.31522 0.66146-0.20671 0.32556-0.5271 0.67696-0.31522 0.3514-0.7493 0.76998l-1.2247 1.1937h3.2814z" style="paint-order:markers fill stroke"/>
   <path d="m113.17 18.732q0.26355 0.01034 0.51159-0.04651 0.24805-0.05684 0.43408-0.17053 0.1912-0.10852 0.30489-0.27388t0.11369-0.37724q0-0.21704-0.0775-0.3514-0.0724-0.13436-0.16537-0.24805-0.093-0.11369-0.17053-0.24288-0.0724-0.12919-0.0724-0.34623 0-0.10852 0.0413-0.22738 0.0414-0.11886 0.12403-0.21704 0.0879-0.09819 0.21704-0.1602 0.13436-0.06201 0.31522-0.06201 0.18087 0 0.34623 0.07752 0.17054 0.07235 0.29456 0.22738 0.12919 0.15503 0.20154 0.38757 0.0775 0.23254 0.0775 0.54777 0 0.42891-0.1602 0.82165-0.15502 0.39791-0.47025 0.7028-0.31006 0.30489-0.78031 0.48576-0.46509 0.18087-1.0852 0.18087z" style="paint-order:markers fill stroke"/>
   <path d="m122.91 17.672h-4.2426v-0.83716h1.7363v-4.9299l-1.6175 0.8785-0.33072-0.76481 2.1497-1.1317h0.79581v5.9479h1.509z" style="paint-order:markers fill stroke"/>
   <path d="m124.8 18.732q0.26355 0.01034 0.51159-0.04651 0.24805-0.05684 0.43409-0.17053 0.1912-0.10852 0.30489-0.27388 0.11368-0.16536 0.11368-0.37724 0-0.21704-0.0775-0.3514-0.0724-0.13436-0.16537-0.24805-0.093-0.11369-0.17053-0.24288-0.0723-0.12919-0.0723-0.34623 0-0.10852 0.0413-0.22738 0.0413-0.11886 0.12402-0.21704 0.0879-0.09819 0.21704-0.1602 0.13436-0.06201 0.31523-0.06201 0.18086 0 0.34623 0.07752 0.17053 0.07235 0.29455 0.22738 0.12919 0.15503 0.20154 0.38757 0.0775 0.23254 0.0775 0.54777 0 0.42891-0.16019 0.82165-0.15503 0.39791-0.47026 0.7028-0.31005 0.30489-0.78031 0.48576-0.46509 0.18087-1.0852 0.18087z" style="paint-order:markers fill stroke"/>
   <path d="m134.54 17.672h-4.2426v-0.83716h1.7363v-4.9299l-1.6175 0.8785-0.33073-0.76481 2.1497-1.1317h0.79581v5.9479h1.509z" style="paint-order:markers fill stroke"/>
   <path d="m87.922 25.621q0 0.44442-0.18087 0.83716-0.18087 0.38757-0.5426 0.68213-0.36173 0.28939-0.9095 0.45992-0.54777 0.16536-1.2764 0.16536-0.40308 0-0.72347-0.02584t-0.59944-0.06718v-0.80615q0.32039 0.05684 0.67696 0.08785 0.35657 0.03101 0.72864 0.03101 0.50643 0 0.86299-0.08785 0.36173-0.09302 0.58911-0.26355 0.22738-0.17053 0.33073-0.41341 0.10335-0.24288 0.10335-0.54777 0-0.27905-0.12402-0.48576t-0.3514-0.34623q-0.22221-0.13953-0.53743-0.2067-0.31006-0.07235-0.68213-0.07235h-0.76998v-0.73897h0.78031q0.30489 0 0.55294-0.07751 0.25321-0.08268 0.42891-0.23254 0.18087-0.14986 0.27388-0.3669 0.09819-0.22221 0.09819-0.50126 0-0.5426-0.33073-0.79065-0.33073-0.24805-0.97151-0.24805-0.34106 0-0.7028 0.06718-0.36173 0.06718-0.77514 0.20154v-0.78548q0.1757-0.06201 0.37207-0.10852 0.20154-0.05168 0.39791-0.08268 0.20154-0.03617 0.39791-0.05168 0.19637-0.02067 0.37724-0.02067 0.53743 0 0.94568 0.11886 0.40824 0.11369 0.68213 0.33073 0.27388 0.21704 0.41341 0.5271 0.13953 0.31006 0.13953 0.69763 0 0.57877-0.29972 0.97151-0.29456 0.39274-0.81132 0.62528 0.26355 0.04134 0.51676 0.16536 0.25838 0.12402 0.45992 0.32039 0.2067 0.1912 0.33073 0.45475 0.12919 0.26355 0.12919 0.58394z" style="paint-order:markers fill stroke"/>
   <path d="m89.891 28.732q0.26355 0.01034 0.5116-0.04651 0.24805-0.05684 0.43408-0.17053 0.1912-0.10852 0.30489-0.27388t0.11369-0.37724q0-0.21704-0.07751-0.3514-0.07235-0.13436-0.16536-0.24805-0.09302-0.11369-0.17053-0.24288-0.07235-0.12919-0.07235-0.34623 0-0.10852 0.04134-0.22738 0.04134-0.11886 0.12402-0.21704 0.08785-0.09819 0.21704-0.1602 0.13436-0.06201 0.31523-0.06201t0.34623 0.07752q0.17053 0.07235 0.29455 0.22738 0.12919 0.15503 0.20154 0.38757 0.07751 0.23254 0.07751 0.54777 0 0.42891-0.1602 0.82165-0.15503 0.39791-0.47025 0.7028-0.31006 0.30489-0.78031 0.48576-0.46509 0.18087-1.0852 0.18087z" style="paint-order:markers fill stroke"/>
   <path d="m99.632 27.672h-4.2426v-0.83716h1.7363v-4.9299l-1.6175 0.8785-0.33073-0.76481 2.1497-1.1317h0.79582v5.9479h1.5089z" style="paint-order:markers fill stroke"/>
   <path d="m101.53 28.732q0.26355 0.01034 0.51159-0.04651 0.24805-0.05684 0.43409-0.17053 0.1912-0.10852 0.30489-0.27388 0.11368-0.16536 0.11368-0.37724 0-0.21704-0.0775-0.3514-0.0724-0.13436-0.16537-0.24805-0.093-0.11369-0.17053-0.24288-0.0723-0.12919-0.0723-0.34623 0-0.10852 0.0413-0.22738 0.0413-0.11886 0.12402-0.21704 0.0879-0.09819 0.21704-0.1602 0.13436-0.06201 0.31523-0.06201 0.18086 0 0.34623 0.07752 0.17053 0.07235 0.29455 0.22738 0.12919 0.15503 0.20154 0.38757 0.0775 0.23254 0.0775 0.54777 0 0.42891-0.16019 0.82165-0.15503 0.39791-0.47026 0.7028-0.31005 0.30489-0.78031 0.48576-0.46509 0.18087-1.0852 0.18087z" style="paint-order:markers fill stroke"/>
   <path d="m111.33 27.672h-4.4493v-0.80615l1.7467-1.7363q0.42891-0.42375 0.69763-0.7338 0.26872-0.31006 0.41858-0.56327 0.14986-0.25838 0.20154-0.48576 0.0517-0.22738 0.0517-0.49092 0-0.24805-0.0672-0.47025-0.0672-0.22738-0.2067-0.39791-0.13953-0.17053-0.36174-0.26872-0.2222-0.09819-0.53226-0.09819-0.42891 0-0.78031 0.1912-0.3514 0.1912-0.64596 0.49609l-0.49609-0.59428q0.38241-0.40308 0.8785-0.64595 0.50126-0.24288 1.1627-0.24288 0.44959 0 0.81649 0.13436 0.37207 0.13436 0.64079 0.38757 0.26871 0.25321 0.41341 0.62012 0.14986 0.3669 0.14986 0.82682 0 0.38757-0.10336 0.7183-0.10335 0.33073-0.31522 0.66146-0.20671 0.32556-0.5271 0.67696-0.31522 0.3514-0.7493 0.76998l-1.2247 1.1937h3.2814z" style="paint-order:markers fill stroke"/>
   <path d="m113.17 28.732q0.26355 0.01034 0.51159-0.04651 0.24805-0.05684 0.43408-0.17053 0.1912-0.10852 0.30489-0.27388t0.11369-0.37724q0-0.21704-0.0775-0.3514-0.0724-0.13436-0.16537-0.24805-0.093-0.11369-0.17053-0.24288-0.0724-0.12919-0.0724-0.34623 0-0.10852 0.0413-0.22738 0.0414-0.11886 0.12403-0.21704 0.0879-0.09819 0.21704-0.1602 0.13436-0.06201 0.31522-0.06201 0.18087 0 0.34623 0.07752 0.17054 0.07235 0.29456 0.22738 0.12919 0.15503 0.20154 0.38757 0.0775 0.23254 0.0775 0.54777 0 0.42891-0.1602 0.82165-0.15502 0.39791-0.47025 0.7028-0.31006 0.30489-0.78031 0.48576-0.46509 0.18087-1.0852 0.18087z" style="paint-order:markers fill stroke"/>
   <path d="m122.96 27.672h-4.4493v-0.80615l1.7466-1.7363q0.42892-0.42375 0.69763-0.7338 0.26872-0.31006 0.41858-0.56327 0.14986-0.25838 0.20154-0.48576 0.0517-0.22738 0.0517-0.49092 0-0.24805-0.0672-0.47025-0.0672-0.22738-0.20671-0.39791-0.13952-0.17053-0.36173-0.26872-0.22221-0.09819-0.53227-0.09819-0.42891 0-0.78031 0.1912-0.3514 0.1912-0.64595 0.49609l-0.49609-0.59428q0.3824-0.40308 0.87849-0.64595 0.50126-0.24288 1.1627-0.24288 0.44958 0 0.81648 0.13436 0.37207 0.13436 0.64079 0.38757t0.41341 0.62012q0.14986 0.3669 0.14986 0.82682 0 0.38757-0.10335 0.7183-0.10336 0.33073-0.31523 0.66146-0.2067 0.32556-0.5271 0.67696-0.31522 0.3514-0.7493 0.76998l-1.2247 1.1937h3.2814z" style="paint-order:markers fill stroke"/>
   <path d="m88.206 34.298q0 0.77514-0.15503 1.4159-0.15503 0.63562-0.47025 1.0955-0.31523 0.45475-0.78548 0.70796-0.46509 0.24805-1.0955 0.24805-0.5426 0-0.98702-0.20154-0.44442-0.2067-0.75964-0.63045-0.31523-0.42375-0.48576-1.08-0.17053-0.65629-0.17053-1.5555 0-0.77514 0.15503-1.4159 0.1602-0.64079 0.47025-1.0955 0.31522-0.45992 0.78548-0.70796 0.47025-0.25321 1.0955-0.25321 0.5426 0 0.98702 0.2067 0.44442 0.20154 0.75964 0.63045 0.31522 0.42375 0.48576 1.08 0.17053 0.65629 0.17053 1.5555zm-0.9095 0.03101q0-0.1757-0.0155-0.34623-0.01033-0.1757-0.02584-0.34106l-2.8577 2.1239q0.07751 0.26872 0.19637 0.49609 0.11886 0.22738 0.28422 0.39274 0.17053 0.1602 0.3824 0.25321 0.21704 0.08785 0.49092 0.08785 0.3514 0 0.63562-0.17053 0.28939-0.17053 0.49092-0.50643 0.20154-0.3359 0.31006-0.83199 0.10852-0.50126 0.10852-1.1575zm-3.0902-0.06201q0 0.1602 0 0.32039 0.0052 0.1602 0.02067 0.31006l2.8577-2.1136q-0.07751-0.26355-0.19637-0.48059-0.11886-0.21704-0.28422-0.37207-0.16536-0.1602-0.37724-0.24805-0.21187-0.08785-0.47542-0.08785-0.3514 0-0.64079 0.17053-0.28422 0.17053-0.48576 0.5116-0.20154 0.3359-0.31006 0.83716-0.10852 0.49609-0.10852 1.1524z" style="paint-order:markers fill stroke"/>
   <path d="m89.891 38.732q0.26355 0.01033 0.5116-0.04651 0.24805-0.05684 0.43408-0.17053 0.1912-0.10852 0.30489-0.27388t0.11369-0.37724q0-0.21704-0.07751-0.3514-0.07235-0.13436-0.16536-0.24805-0.09302-0.11369-0.17053-0.24288-0.07235-0.12919-0.07235-0.34623 0-0.10852 0.04134-0.22738 0.04134-0.11886 0.12402-0.21704 0.08785-0.09819 0.21704-0.1602 0.13436-0.06201 0.31523-0.06201t0.34623 0.07751q0.17053 0.07235 0.29455 0.22738 0.12919 0.15503 0.20154 0.38757 0.07751 0.23254 0.07751 0.54777 0 0.42891-0.1602 0.82165-0.15503 0.39791-0.47025 0.7028-0.31006 0.30489-0.78031 0.48576-0.46509 0.18087-1.0852 0.18087z" style="paint-order:markers fill stroke"/>
   <path d="m99.632 37.672h-4.2426v-0.83716h1.7363v-4.9299l-1.6175 0.8785-0.33073-0.76481 2.1497-1.1317h0.79582v5.9479h1.5089z" style="paint-order:markers fill stroke"/>
   <path d="m101.53 38.732q0.26355 0.01033 0.51159-0.04651 0.24805-0.05684 0.43409-0.17053 0.1912-0.10852 0.30489-0.27388 0.11368-0.16536 0.11368-0.37724 0-0.21704-0.0775-0.3514-0.0724-0.13436-0.16537-0.24805-0.093-0.11369-0.17053-0.24288-0.0723-0.12919-0.0723-0.34623 0-0.10852 0.0413-0.22738 0.0413-0.11886 0.12402-0.21704 0.0879-0.09819 0.21704-0.1602 0.13436-0.06201 0.31523-0.06201 0.18086 0 0.34623 0.07751 0.17053 0.07235 0.29455 0.22738 0.12919 0.15503 0.20154 0.38757 0.0775 0.23254 0.0775 0.54777 0 0.42891-0.16019 0.82165-0.15503 0.39791-0.47026 0.7028-0.31005 0.30489-0.78031 0.48576-0.46509 0.18087-1.0852 0.18087z" style="paint-order:markers fill stroke"/>
   <path d="m111.2 35.621q0 0.44442-0.18087 0.83716-0.18086 0.38757-0.5426 0.68213-0.36173 0.28939-0.9095 0.45992-0.54777 0.16536-1.2764 0.16536-0.40308 0-0.72347-0.02584t-0.59945-0.06718v-0.80615q0.3204 0.05684 0.67696 0.08785 0.35657 0.03101 0.72864 0.03101 0.50643 0 0.86299-0.08785 0.36174-0.09302 0.58911-0.26355 0.22738-0.17053 0.33073-0.41341 0.10335-0.24288 0.10335-0.54777 0-0.27905-0.12402-0.48576t-0.3514-0.34623q-0.22221-0.13953-0.53743-0.2067-0.31006-0.07235-0.68213-0.07235h-0.76998v-0.73897h0.78032q0.30489 0 0.55293-0.07751 0.25322-0.08268 0.42891-0.23254 0.18087-0.14986 0.27389-0.3669 0.0982-0.22221 0.0982-0.50126 0-0.5426-0.33072-0.79065-0.33073-0.24805-0.97152-0.24805-0.34106 0-0.7028 0.06718-0.36173 0.06718-0.77514 0.20154v-0.78548q0.1757-0.06201 0.37207-0.10852 0.20154-0.05168 0.39791-0.08268 0.20153-0.03617 0.3979-0.05168 0.19637-0.02067 0.37724-0.02067 0.53743 0 0.94568 0.11886 0.40824 0.11369 0.68212 0.33073 0.27389 0.21704 0.41341 0.5271 0.13953 0.31006 0.13953 0.69763 0 0.57877-0.29972 0.97151-0.29456 0.39274-0.81132 0.62528 0.26355 0.04134 0.51676 0.16536 0.25838 0.12402 0.45992 0.32039 0.20671 0.1912 0.33073 0.45475 0.12919 0.26355 0.12919 0.58394z" style="paint-order:markers fill stroke"/>
   <path d="m113.17 38.732q0.26355 0.01033 0.51159-0.04651 0.24805-0.05684 0.43408-0.17053 0.1912-0.10852 0.30489-0.27388t0.11369-0.37724q0-0.21704-0.0775-0.3514-0.0724-0.13436-0.16537-0.24805-0.093-0.11369-0.17053-0.24288-0.0724-0.12919-0.0724-0.34623 0-0.10852 0.0413-0.22738 0.0414-0.11886 0.12403-0.21704 0.0879-0.09819 0.21704-0.1602 0.13436-0.06201 0.31522-0.06201 0.18087 0 0.34623 0.07751 0.17054 0.07235 0.29456 0.22738 0.12919 0.15503 0.20154 0.38757 0.0775 0.23254 0.0775 0.54777 0 0.42891-0.1602 0.82165-0.15502 0.39791-0.47025 0.7028-0.31006 0.30489-0.78031 0.48576-0.46509 0.18087-1.0852 0.18087z" style="paint-order:markers fill stroke"/>
   <path d="m122.96 37.672h-4.4493v-0.80615l1.7466-1.7363q0.42892-0.42375 0.69763-0.7338 0.26872-0.31006 0.41858-0.56327 0.14986-0.25838 0.20154-0.48576 0.0517-0.22738 0.0517-0.49092 0-0.24805-0.0672-0.47025-0.0672-0.22738-0.20671-0.39791-0.13952-0.17053-0.36173-0.26872-0.22221-0.09819-0.53227-0.09819-0.42891 0-0.78031 0.1912-0.3514 0.1912-0.64595 0.49609l-0.49609-0.59428q0.3824-0.40308 0.87849-0.64595 0.50126-0.24288 1.1627-0.24288 0.44958 0 0.81648 0.13436 0.37207 0.13436 0.64079 0.38757t0.41341 0.62012q0.14986 0.3669 0.14986 0.82682 0 0.38757-0.10335 0.7183-0.10336 0.33073-0.31523 0.66146-0.2067 0.32556-0.5271 0.67696-0.31522 0.3514-0.7493 0.76998l-1.2247 1.1937h3.2814z" style="paint-order:markers fill stroke"/>
   <path d="m124.8 38.732q0.26355 0.01033 0.51159-0.04651 0.24805-0.05684 0.43409-0.17053 0.1912-0.10852 0.30489-0.27388 0.11368-0.16536 0.11368-0.37724 0-0.21704-0.0775-0.3514-0.0724-0.13436-0.16537-0.24805-0.093-0.11369-0.17053-0.24288-0.0723-0.12919-0.0723-0.34623 0-0.10852 0.0413-0.22738 0.0413-0.11886 0.12402-0.21704 0.0879-0.09819 0.21704-0.1602 0.13436-0.06201 0.31523-0.06201 0.18086 0 0.34623 0.07751 0.17053 0.07235 0.29455 0.22738 0.12919 0.15503 0.20154 0.38757 0.0775 0.23254 0.0775 0.54777 0 0.42891-0.16019 0.82165-0.15503 0.39791-0.47026 0.7028-0.31005 0.30489-0.78031 0.48576-0.46509 0.18087-1.0852 0.18087z" style="paint-order:markers fill stroke"/>
   <path d="m134.6 37.672h-4.4493v-0.80615l1.7467-1.7363q0.42891-0.42375 0.69763-0.7338 0.26872-0.31006 0.41858-0.56327 0.14986-0.25838 0.20154-0.48576 0.0517-0.22738 0.0517-0.49092 0-0.24805-0.0672-0.47025-0.0672-0.22738-0.2067-0.39791-0.13953-0.17053-0.36174-0.26872-0.2222-0.09819-0.53226-0.09819-0.42891 0-0.78031 0.1912-0.3514 0.1912-0.64596 0.49609l-0.49609-0.59428q0.38241-0.40308 0.8785-0.64595 0.50126-0.24288 1.1627-0.24288 0.44959 0 0.81649 0.13436 0.37207 0.13436 0.64079 0.38757 0.26871 0.25321 0.41341 0.62012 0.14986 0.3669 0.14986 0.82682 0 0.38757-0.10336 0.7183-0.10335 0.33073-0.31522 0.66146-0.20671 0.32556-0.5271 0.67696-0.31522 0.3514-0.7493 0.76998l-1.2247 1.1937h3.2814z" style="paint-order:markers fill stroke"/>
   <path d="m88.206 44.298q0 0.77514-0.15503 1.4159-0.15503 0.63562-0.47025 1.0955-0.31523 0.45475-0.78548 0.70796-0.46509 0.24805-1.0955 0.24805-0.5426 0-0.98702-0.20154-0.44442-0.2067-0.75964-0.63045-0.31523-0.42375-0.48576-1.08-0.17053-0.65629-0.17053-1.5555 0-0.77514 0.15503-1.4159 0.1602-0.64079 0.47025-1.0955 0.31522-0.45992 0.78548-0.70796 0.47025-0.25321 1.0955-0.25321 0.5426 0 0.98702 0.2067 0.44442 0.20154 0.75964 0.63045 0.31522 0.42375 0.48576 1.08 0.17053 0.65629 0.17053 1.5555zm-0.9095 0.03101q0-0.1757-0.0155-0.34623-0.01033-0.1757-0.02584-0.34106l-2.8577 2.1239q0.07751 0.26872 0.19637 0.49609 0.11886 0.22738 0.28422 0.39274 0.17053 0.1602 0.3824 0.25321 0.21704 0.08785 0.49092 0.08785 0.3514 0 0.63562-0.17053 0.28939-0.17053 0.49092-0.50643 0.20154-0.3359 0.31006-0.83199 0.10852-0.50126 0.10852-1.1575zm-3.0902-0.06201q0 0.1602 0 0.32039 0.0052 0.1602 0.02067 0.31006l2.8577-2.1136q-0.07751-0.26355-0.19637-0.48059-0.11886-0.21704-0.28422-0.37207-0.16536-0.1602-0.37724-0.24805-0.21187-0.08785-0.47542-0.08785-0.3514 0-0.64079 0.17053-0.28422 0.17053-0.48576 0.5116-0.20154 0.3359-0.31006 0.83716-0.10852 0.49609-0.10852 1.1524z" style="paint-order:markers fill stroke"/>
   <path d="m89.891 48.732q0.26355 0.01033 0.5116-0.04651 0.24805-0.05684 0.43408-0.17053 0.1912-0.10852 0.30489-0.27388t0.11369-0.37724q0-0.21704-0.07751-0.3514-0.07235-0.13436-0.16536-0.24805-0.09302-0.11369-0.17053-0.24288-0.07235-0.12919-0.07235-0.34623 0-0.10852 0.04134-0.22738 0.04134-0.11886 0.12402-0.21704 0.08785-0.09819 0.21704-0.1602 0.13436-0.06201 0.31523-0.06201t0.34623 0.07751q0.17053 0.07235 0.29455 0.22738 0.12919 0.15503 0.20154 0.38757 0.07751 0.23254 0.07751 0.54777 0 0.42891-0.1602 0.82165-0.15503 0.39791-0.47025 0.7028-0.31006 0.30489-0.78031 0.48576-0.46509 0.18087-1.0852 0.18087z" style="paint-order:markers fill stroke"/>
   <path d="m100.02 46.179h-1.1524v1.4934h-0.91984v-1.4934h-3.2504v-0.79065l2.8784-4.47h1.2919v4.47h1.1524zm-2.0722-4.3925-2.3513 3.6018h2.3513z" style="paint-order:markers fill stroke"/>
   <path d="m101.53 48.732q0.26355 0.01033 0.51159-0.04651 0.24805-0.05684 0.43409-0.17053 0.1912-0.10852 0.30489-0.27388 0.11368-0.16536 0.11368-0.37724 0-0.21704-0.0775-0.3514-0.0724-0.13436-0.16537-0.24805-0.093-0.11369-0.17053-0.24288-0.0723-0.12919-0.0723-0.34623 0-0.10852 0.0413-0.22738 0.0413-0.11886 0.12402-0.21704 0.0879-0.09819 0.21704-0.1602 0.13436-0.06201 0.31523-0.06201 0.18086 0 0.34623 0.07751 0.17053 0.07235 0.29455 0.22738 0.12919 0.15503 0.20154 0.38757 0.0775 0.23254 0.0775 0.54777 0 0.42891-0.16019 0.82165-0.15503 0.39791-0.47026 0.7028-0.31005 0.30489-0.78031 0.48576-0.46509 0.18087-1.0852 0.18087z" style="paint-order:markers fill stroke"/>
   <path d="m111.33 47.672h-4.4493v-0.80615l1.7467-1.7363q0.42891-0.42375 0.69763-0.7338 0.26872-0.31006 0.41858-0.56327 0.14986-0.25838 0.20154-0.48576 0.0517-0.22738 0.0517-0.49092 0-0.24805-0.0672-0.47025-0.0672-0.22738-0.2067-0.39791-0.13953-0.17053-0.36174-0.26872-0.2222-0.09819-0.53226-0.09819-0.42891 0-0.78031 0.1912-0.3514 0.1912-0.64596 0.49609l-0.49609-0.59428q0.38241-0.40308 0.8785-0.64595 0.50126-0.24288 1.1627-0.24288 0.44959 0 0.81649 0.13436 0.37207 0.13436 0.64079 0.38757 0.26871 0.25321 0.41341 0.62012 0.14986 0.3669 0.14986 0.82682 0 0.38757-0.10336 0.7183-0.10335 0.33073-0.31522 0.66146-0.20671 0.32556-0.5271 0.67696-0.31522 0.3514-0.7493 0.76998l-1.2247 1.1937h3.2814z" style="paint-order:markers fill stroke"/>
   <path d="m113.17 48.732q0.26355 0.01033 0.51159-0.04651 0.24805-0.05684 0.43408-0.17053 0.1912-0.10852 0.30489-0.27388t0.11369-0.37724q0-0.21704-0.0775-0.3514-0.0724-0.13436-0.16537-0.24805-0.093-0.11369-0.17053-0.24288-0.0724-0.12919-0.0724-0.34623 0-0.10852 0.0413-0.22738 0.0414-0.11886 0.12403-0.21704 0.0879-0.09819 0.21704-0.1602 0.13436-0.06201 0.31522-0.06201 0.18087 0 0.34623 0.07751 0.17054 0.07235 0.29456 0.22738 0.12919 0.15503 0.20154 0.38757 0.0775 0.23254 0.0775 0.54777 0 0.42891-0.1602 0.82165-0.15502 0.39791-0.47025 0.7028-0.31006 0.30489-0.78031 0.48576-0.46509 0.18087-1.0852 0.18087z" style="paint-order:markers fill stroke"/>
   <path d="m122.91 47.672h-4.2426v-0.83716h1.7363v-4.9299l-1.6175 0.8785-0.33072-0.76481 2.1497-1.1317h0.79581v5.9479h1.509z" style="paint-order:markers fill stroke"/>
   <path d="m124.8 48.732q0.26355 0.01033 0.51159-0.04651 0.24805-0.05684 0.43409-0.17053 0.1912-0.10852 0.30489-0.27388 0.11368-0.16536 0.11368-0.37724 0-0.21704-0.0775-0.3514-0.0724-0.13436-0.16537-0.24805-0.093-0.11369-0.17053-0.24288-0.0723-0.12919-0.0723-0.34623 0-0.10852 0.0413-0.22738 0.0413-0.11886 0.12402-0.21704 0.0879-0.09819 0.21704-0.1602 0.13436-0.06201 0.31523-0.06201 0.18086 0 0.34623 0.07751 0.17053 0.07235 0.29455 0.22738 0.12919 0.15503 0.20154 0.38757 0.0775 0.23254 0.0775 0.54777 0 0.42891-0.16019 0.82165-0.15503 0.39791-0.47026 0.7028-0.31005 0.30489-0.78031 0.48576-0.46509 0.18087-1.0852 0.18087z" style="paint-order:markers fill stroke"/>
   <path d="m134.54 47.672h-4.2426v-0.83716h1.7363v-4.9299l-1.6175 0.8785-0.33073-0.76481 2.1497-1.1317h0.79581v5.9479h1.509z" style="paint-order:markers fill stroke"/>
  </g>
  <g stroke="#000">
   <g style="paint-order:markers fill stroke" aria-label="1,1,4,1,1">
    <path d="m87.994 57.672h-4.2426v-0.83716h1.7363v-4.9299l-1.6175 0.8785-0.33073-0.76481 2.1497-1.1317h0.79582v5.9479h1.5089z"/>
    <path d="m89.891 58.732q0.26355 0.01033 0.5116-0.04651 0.24805-0.05684 0.43408-0.17053 0.1912-0.10852 0.30489-0.27388t0.11369-0.37724q0-0.21704-0.07751-0.3514-0.07235-0.13436-0.16536-0.24805-0.09302-0.11369-0.17053-0.24288-0.07235-0.12919-0.07235-0.34623 0-0.10852 0.04134-0.22738 0.04134-0.11886 0.12402-0.21704 0.08785-0.09819 0.21704-0.1602 0.13436-0.06201 0.31523-0.06201t0.34623 0.07751q0.17053 0.07235 0.29455 0.22738 0.12919 0.15503 0.20154 0.38757 0.07751 0.23254 0.07751 0.54777 0 0.42891-0.1602 0.82165-0.15503 0.39791-0.47025 0.7028-0.31006 0.30489-0.78031 0.48576-0.46509 0.18087-1.0852 0.18087z"/>
    <path d="m99.632 57.672h-4.2426v-0.83716h1.7363v-4.9299l-1.6175 0.8785-0.33073-0.76481 2.1497-1.1317h0.79582v5.9479h1.5089z"/>
    <path d="m101.53 58.732q0.26355 0.01033 0.51159-0.04651 0.24805-0.05684 0.43409-0.17053 0.1912-0.10852 0.30489-0.27388 0.11368-0.16536 0.11368-0.37724 0-0.21704-0.0775-0.3514-0.0724-0.13436-0.16537-0.24805-0.093-0.11369-0.17053-0.24288-0.0723-0.12919-0.0723-0.34623 0-0.10852 0.0413-0.22738 0.0413-0.11886 0.12402-0.21704 0.0879-0.09819 0.21704-0.1602 0.13436-0.06201 0.31523-0.06201 0.18086 0 0.34623 0.07751 0.17053 0.07235 0.29455 0.22738 0.12919 0.15503 0.20154 0.38757 0.0775 0.23254 0.0775 0.54777 0 0.42891-0.16019 0.82165-0.15503 0.39791-0.47026 0.7028-0.31005 0.30489-0.78031 0.48576-0.46509 0.18087-1.0852 0.18087z"/>
    <path d="m111.66 56.179h-1.1524v1.4934h-0.91984v-1.4934h-3.2504v-0.79065l2.8784-4.47h1.2919v4.47h1.1524zm-2.0722-4.3925-2.3513 3.6018h2.3513z"/>
    <path d="m113.17 58.732q0.26355 0.01033 0.51159-0.04651 0.24805-0.05684 0.43408-0.17053 0.1912-0.10852 0.30489-0.27388t0.11369-0.37724q0-0.21704-0.0775-0.3514-0.0724-0.13436-0.16537-0.24805-0.093-0.11369-0.17053-0.24288-0.0724-0.12919-0.0724-0.34623 0-0.10852 0.0413-0.22738 0.0414-0.11886 0.12403-0.21704 0.0879-0.09819 0.21704-0.1602 0.13436-0.06201 0.31522-0.06201 0.18087 0 0.34623 0.07751 0.17054 0.07235 0.29456 0.22738 0.12919 0.15503 0.20154 0.38757 0.0775 0.23254 0.0775 0.54777 0 0.42891-0.1602 0.82165-0.15502 0.39791-0.47025 0.7028-0.31006 0.30489-0.78031 0.48576-0.46509 0.18087-1.0852 0.18087z"/>
    <path d="m122.91 57.672h-4.2426v-0.83716h1.7363v-4.9299l-1.6175 0.8785-0.33072-0.76481 2.1497-1.1317h0.79581v5.9479h1.509z"/>
    <path d="m124.8 58.732q0.26355 0.01033 0.51159-0.04651 0.24805-0.05684 0.43409-0.17053 0.1912-0.10852 0.30489-0.27388 0.11368-0.16536 0.11368-0.37724 0-0.21704-0.0775-0.3514-0.0724-0.13436-0.16537-0.24805-0.093-0.11369-0.17053-0.24288-0.0723-0.12919-0.0723-0.34623 0-0.10852 0.0413-0.22738 0.0413-0.11886 0.12402-0.21704 0.0879-0.09819 0.21704-0.1602 0.13436-0.06201 0.31523-0.06201 0.18086 0 0.34623 0.07751 0.17053 0.07235 0.29455 0.22738 0.12919 0.15503 0.20154 0.38757 0.0775 0.23254 0.0775 0.54777 0 0.42891-0.16019 0.82165-0.15503 0.39791-0.47026 0.7028-0.31005 0.30489-0.78031 0.48576-0.46509 0.18087-1.0852 0.18087z"/>
    <path d="m134.54 57.672h-4.2426v-0.83716h1.7363v-4.9299l-1.6175 0.8785-0.33073-0.76481 2.1497-1.1317h0.79581v5.9479h1.509z"/>
   </g>
   <g style="paint-order:markers fill stroke" aria-label="2,4,2">
    <path d="m88.051 67.672h-4.4493v-0.80615l1.7467-1.7363q0.42891-0.42375 0.69763-0.7338 0.26872-0.31006 0.41858-0.56327 0.14986-0.25838 0.20154-0.48576 0.05168-0.22738 0.05168-0.49092 0-0.24805-0.06718-0.47025-0.06718-0.22738-0.2067-0.39791-0.13953-0.17053-0.36173-0.26872-0.22221-0.09819-0.53227-0.09819-0.42891 0-0.78031 0.1912-0.3514 0.1912-0.64595 0.49609l-0.49609-0.59428q0.3824-0.40308 0.8785-0.64595 0.50126-0.24288 1.1627-0.24288 0.44958 0 0.81648 0.13436 0.37207 0.13436 0.64078 0.38757 0.26872 0.25321 0.41341 0.62012 0.14986 0.3669 0.14986 0.82682 0 0.38757-0.10335 0.7183-0.10335 0.33073-0.31522 0.66146-0.2067 0.32556-0.5271 0.67696-0.31522 0.3514-0.74931 0.76998l-1.2247 1.1937h3.2814z"/>
    <path d="m89.891 68.732q0.26355 0.01033 0.5116-0.04651 0.24805-0.05684 0.43408-0.17053 0.1912-0.10852 0.30489-0.27388t0.11369-0.37724q0-0.21704-0.07751-0.3514-0.07235-0.13436-0.16536-0.24805-0.09302-0.11369-0.17053-0.24288-0.07235-0.12919-0.07235-0.34623 0-0.10852 0.04134-0.22738 0.04134-0.11886 0.12402-0.21704 0.08785-0.09819 0.21704-0.1602 0.13436-0.06201 0.31523-0.06201t0.34623 0.07751q0.17053 0.07235 0.29455 0.22738 0.12919 0.15503 0.20154 0.38757 0.07751 0.23254 0.07751 0.54777 0 0.42891-0.1602 0.82165-0.15503 0.39791-0.47025 0.7028-0.31006 0.30489-0.78031 0.48576-0.46509 0.18087-1.0852 0.18087z"/>
    <path d="m100.02 66.179h-1.1524v1.4934h-0.91984v-1.4934h-3.2504v-0.79065l2.8784-4.47h1.2919v4.47h1.1524zm-2.0722-4.3925-2.3513 3.6018h2.3513z"/>
    <path d="m101.53 68.732q0.26355 0.01033 0.51159-0.04651 0.24805-0.05684 0.43409-0.17053 0.1912-0.10852 0.30489-0.27388 0.11368-0.16536 0.11368-0.37724 0-0.21704-0.0775-0.3514-0.0724-0.13436-0.16537-0.24805-0.093-0.11369-0.17053-0.24288-0.0723-0.12919-0.0723-0.34623 0-0.10852 0.0413-0.22738 0.0413-0.11886 0.12402-0.21704 0.0879-0.09819 0.21704-0.1602 0.13436-0.06201 0.31523-0.06201 0.18086 0 0.34623 0.07751 0.17053 0.07235 0.29455 0.22738 0.12919 0.15503 0.20154 0.38757 0.0775 0.23254 0.0775 0.54777 0 0.42891-0.16019 0.82165-0.15503 0.39791-0.47026 0.7028-0.31005 0.30489-0.78031 0.48576-0.46509 0.18087-1.0852 0.18087z"/>
    <path d="m111.33 67.672h-4.4493v-0.80615l1.7467-1.7363q0.42891-0.42375 0.69763-0.7338 0.26872-0.31006 0.41858-0.56327 0.14986-0.25838 0.20154-0.48576 0.0517-0.22738 0.0517-0.49092 0-0.24805-0.0672-0.47025-0.0672-0.22738-0.2067-0.39791-0.13953-0.17053-0.36174-0.26872-0.2222-0.09819-0.53226-0.09819-0.42891 0-0.78031 0.1912-0.3514 0.1912-0.64596 0.49609l-0.49609-0.59428q0.38241-0.40308 0.8785-0.64595 0.50126-0.24288 1.1627-0.24288 0.44959 0 0.81649 0.13436 0.37207 0.13436 0.64079 0.38757 0.26871 0.25321 0.41341 0.62012 0.14986 0.3669 0.14986 0.82682 0 0.38757-0.10336 0.7183-0.10335 0.33073-0.31522 0.66146-0.20671 0.32556-0.5271 0.67696-0.31522 0.3514-0.7493 0.76998l-1.2247 1.1937h3.2814z"/>
   </g>
   <g style="paint-order:markers fill stroke" aria-label="3,2,3">
    <path d="m87.922 75.621q0 0.44442-0.18087 0.83716-0.18087 0.38757-0.5426 0.68213-0.36173 0.28939-0.9095 0.45992-0.54777 0.16536-1.2764 0.16536-0.40308 0-0.72347-0.02584t-0.59944-0.06718v-0.80615q0.32039 0.05684 0.67696 0.08785 0.35657 0.03101 0.72864 0.03101 0.50643 0 0.86299-0.08785 0.36173-0.09302 0.58911-0.26355 0.22738-0.17053 0.33073-0.41341 0.10335-0.24288 0.10335-0.54777 0-0.27905-0.12402-0.48576t-0.3514-0.34623q-0.22221-0.13953-0.53743-0.2067-0.31006-0.07235-0.68213-0.07235h-0.76998v-0.73897h0.78031q0.30489 0 0.55294-0.07751 0.25321-0.08268 0.42891-0.23254 0.18087-0.14986 0.27388-0.3669 0.09819-0.22221 0.09819-0.50126 0-0.5426-0.33073-0.79065-0.33073-0.24805-0.97151-0.24805-0.34106 0-0.7028 0.06718-0.36173 0.06718-0.77514 0.20154v-0.78548q0.1757-0.06201 0.37207-0.10852 0.20154-0.05168 0.39791-0.08268 0.20154-0.03617 0.39791-0.05168 0.19637-0.02067 0.37724-0.02067 0.53743 0 0.94568 0.11886 0.40824 0.11369 0.68213 0.33073 0.27388 0.21704 0.41341 0.5271 0.13953 0.31006 0.13953 0.69763 0 0.57877-0.29972 0.97151-0.29456 0.39274-0.81132 0.62528 0.26355 0.04134 0.51676 0.16536 0.25838 0.12402 0.45992 0.32039 0.2067 0.1912 0.33073 0.45475 0.12919 0.26355 0.12919 0.58394z"/>
    <path d="m89.891 78.732q0.26355 0.01033 0.5116-0.04651 0.24805-0.05684 0.43408-0.17053 0.1912-0.10852 0.30489-0.27388t0.11369-0.37724q0-0.21704-0.07751-0.3514-0.07235-0.13436-0.16536-0.24805-0.09302-0.11369-0.17053-0.24288-0.07235-0.12919-0.07235-0.34623 0-0.10852 0.04134-0.22738 0.04134-0.11886 0.12402-0.21704 0.08785-0.09819 0.21704-0.1602 0.13436-0.06201 0.31523-0.06201t0.34623 0.07751q0.17053 0.07235 0.29455 0.22738 0.12919 0.15503 0.20154 0.38757 0.07751 0.23254 0.07751 0.54777 0 0.42891-0.1602 0.82165-0.15503 0.39791-0.47025 0.7028-0.31006 0.30489-0.78031 0.48576-0.46509 0.18087-1.0852 0.18087z"/>
    <path d="m99.689 77.672h-4.4493v-0.80615l1.7467-1.7363q0.42891-0.42375 0.69763-0.7338 0.26872-0.31006 0.41858-0.56327 0.14986-0.25838 0.20154-0.48576 0.05168-0.22738 0.05168-0.49092 0-0.24805-0.06718-0.47025-0.06718-0.22738-0.2067-0.39791-0.13953-0.17053-0.36173-0.26872-0.22221-0.09819-0.53227-0.09819-0.42891 0-0.78031 0.1912-0.3514 0.1912-0.64595 0.49609l-0.49609-0.59428q0.3824-0.40308 0.8785-0.64595 0.50126-0.24288 1.1627-0.24288 0.44958 0 0.81648 0.13436 0.37207 0.13436 0.64078 0.38757 0.26872 0.25321 0.41341 0.62012 0.14986 0.3669 0.14986 0.82682 0 0.38757-0.10335 0.7183-0.10335 0.33073-0.31522 0.66146-0.2067 0.32556-0.5271 0.67696-0.31522 0.3514-0.74931 0.76998l-1.2247 1.1937h3.2814z"/>
    <path d="m101.53 78.732q0.26355 0.01033 0.51159-0.04651 0.24805-0.05684 0.43409-0.17053 0.1912-0.10852 0.30489-0.27388 0.11368-0.16536 0.11368-0.37724 0-0.21704-0.0775-0.3514-0.0724-0.13436-0.16537-0.24805-0.093-0.11369-0.17053-0.24288-0.0723-0.12919-0.0723-0.34623 0-0.10852 0.0413-0.22738 0.0413-0.11886 0.12402-0.21704 0.0879-0.09819 0.21704-0.1602 0.13436-0.06201 0.31523-0.06201 0.18086 0 0.34623 0.07751 0.17053 0.07235 0.29455 0.22738 0.12919 0.15503 0.20154 0.38757 0.0775 0.23254 0.0775 0.54777 0 0.42891-0.16019 0.82165-0.15503 0.39791-0.47026 0.7028-0.31005 0.30489-0.78031 0.48576-0.46509 0.18087-1.0852 0.18087z"/>
    <path d="m111.2 75.621q0 0.44442-0.18087 0.83716-0.18086 0.38757-0.5426 0.68213-0.36173 0.28939-0.9095 0.45992-0.54777 0.16536-1.2764 0.16536-0.40308 0-0.72347-0.02584t-0.59945-0.06718v-0.80615q0.3204 0.05684 0.67696 0.08785 0.35657 0.03101 0.72864 0.03101 0.50643 0 0.86299-0.08785 0.36174-0.09302 0.58911-0.26355 0.22738-0.17053 0.33073-0.41341 0.10335-0.24288 0.10335-0.54777 0-0.27905-0.12402-0.48576t-0.3514-0.34623q-0.22221-0.13953-0.53743-0.2067-0.31006-0.07235-0.68213-0.07235h-0.76998v-0.73897h0.78032q0.30489 0 0.55293-0.07751 0.25322-0.08268 0.42891-0.23254 0.18087-0.14986 0.27389-0.3669 0.0982-0.22221 0.0982-0.50126 0-0.5426-0.33072-0.79065-0.33073-0.24805-0.97152-0.24805-0.34106 0-0.7028 0.06718-0.36173 0.06718-0.77514 0.20154v-0.78548q0.1757-0.06201 0.37207-0.10852 0.20154-0.05168 0.39791-0.08268 0.20153-0.03617 0.3979-0.05168 0.19637-0.02067 0.37724-0.02067 0.53743 0 0.94568 0.11886 0.40824 0.11369 0.68212 0.33073 0.27389 0.21704 0.41341 0.5271 0.13953 0.31006 0.13953 0.69763 0 0.57877-0.29972 0.97151-0.29456 0.39274-0.81132 0.62528 0.26355 0.04134 0.51676 0.16536 0.25838 0.12402 0.45992 0.32039 0.20671 0.1912 0.33073 0.45475 0.12919 0.26355 0.12919 0.58394z"/>
   </g>
  </g>
 </g>
</svg>
