<?xml version="1.0" encoding="UTF-8" standalone="no"?>
<!-- Created with Inkscape (http://www.inkscape.org/) -->

<svg
   width="138mm"
   height="80.264587mm"
   viewBox="0 0 138 80.264587"
   version="1.1"
   id="svg5"
   inkscape:version="1.2 (dc2aedaf03, 2022-05-15)"
   sodipodi:docname="run-length-duck-finished-with-coding.svg"
   xmlns:inkscape="http://www.inkscape.org/namespaces/inkscape"
   xmlns:sodipodi="http://sodipodi.sourceforge.net/DTD/sodipodi-0.dtd"
   xmlns="http://www.w3.org/2000/svg"
   xmlns:svg="http://www.w3.org/2000/svg">
  <sodipodi:namedview
     id="namedview7"
     pagecolor="#505050"
     bordercolor="#ffffff"
     borderopacity="1"
     inkscape:showpageshadow="0"
     inkscape:pageopacity="0"
     inkscape:pagecheckerboard="1"
     inkscape:deskcolor="#505050"
     inkscape:document-units="mm"
     showgrid="false"
     inkscape:zoom="0.88096"
     inkscape:cx="659.50781"
     inkscape:cy="486.4012"
     inkscape:window-width="1724"
     inkscape:window-height="1378"
     inkscape:window-x="827"
     inkscape:window-y="0"
     inkscape:window-maximized="0"
     inkscape:current-layer="text604" />
  <defs
     id="defs2">
    <rect
       x="346.48367"
       y="-94.545227"
       width="377.63443"
       height="291.83325"
       id="rect494" />
  </defs>
  <g
     inkscape:label="Layer 1"
     inkscape:groupmode="layer"
     id="layer1">
    <rect
       style="fill:#ffffff;stroke:#000000;stroke-width:0.264583;stroke-linejoin:miter;stroke-dasharray:none;stroke-opacity:1;paint-order:markers fill stroke"
       id="rect184"
       width="10"
       height="10"
       x="0.13229166"
       y="0.1322915" />
    <rect
       style="fill:#ffffff;stroke:#000000;stroke-width:0.264583;stroke-linejoin:miter;stroke-dasharray:none;stroke-opacity:1;paint-order:markers fill stroke"
       id="rect184-3"
       width="10"
       height="10"
       x="10.132294"
       y="0.1322915" />
    <rect
       style="fill:#ffffff;stroke:#000000;stroke-width:0.264583;stroke-linejoin:miter;stroke-dasharray:none;stroke-opacity:1;paint-order:markers fill stroke"
       id="rect184-7"
       width="10"
       height="10"
       x="20.132294"
       y="0.1322915" />
    <rect
       style="fill:#ffffff;stroke:#000000;stroke-width:0.264583;stroke-linejoin:miter;stroke-dasharray:none;stroke-opacity:1;paint-order:markers fill stroke"
       id="rect184-3-2"
       width="10"
       height="10"
       x="30.132298"
       y="0.1322915" />
    <rect
       style="fill:#000000;fill-opacity:1;stroke:#000000;stroke-width:0.264583;stroke-linejoin:miter;stroke-dasharray:none;stroke-opacity:1;paint-order:markers fill stroke"
       id="rect184-0"
       width="10"
       height="10"
       x="40.132298"
       y="0.1322915" />
    <rect
       style="fill:#000000;fill-opacity:1;stroke:#000000;stroke-width:0.264583;stroke-linejoin:miter;stroke-dasharray:none;stroke-opacity:1;paint-order:markers fill stroke"
       id="rect184-3-8"
       width="10"
       height="10"
       x="50.132305"
       y="0.1322915" />
    <rect
       style="fill:#ffffff;stroke:#000000;stroke-width:0.264583;stroke-linejoin:miter;stroke-dasharray:none;stroke-opacity:1;paint-order:markers fill stroke"
       id="rect184-7-1"
       width="10"
       height="10"
       x="60.132305"
       y="0.1322915" />
    <rect
       style="fill:#ffffff;stroke:#000000;stroke-width:0.264583;stroke-linejoin:miter;stroke-dasharray:none;stroke-opacity:1;paint-order:markers fill stroke"
       id="rect184-3-2-4"
       width="10"
       height="10"
       x="70.132301"
       y="0.1322915" />
    <rect
       style="fill:#ffffff;stroke:#000000;stroke-width:0.264583;stroke-linejoin:miter;stroke-dasharray:none;stroke-opacity:1;paint-order:markers fill stroke"
       id="rect184-2"
       width="10"
       height="10"
       x="0.13229166"
       y="10.132292" />
    <rect
       style="fill:#ffffff;stroke:#000000;stroke-width:0.264583;stroke-linejoin:miter;stroke-dasharray:none;stroke-opacity:1;paint-order:markers fill stroke"
       id="rect184-3-5"
       width="10"
       height="10"
       x="10.132294"
       y="10.132292" />
    <rect
       style="fill:#ffffff;stroke:#000000;stroke-width:0.264583;stroke-linejoin:miter;stroke-dasharray:none;stroke-opacity:1;paint-order:markers fill stroke"
       id="rect184-7-7"
       width="10"
       height="10"
       x="20.132296"
       y="10.132292" />
    <rect
       style="fill:#000000;fill-opacity:1;stroke:#000000;stroke-width:0.264583;stroke-linejoin:miter;stroke-dasharray:none;stroke-opacity:1;paint-order:markers fill stroke"
       id="rect184-3-2-6"
       width="10"
       height="10"
       x="30.132298"
       y="10.132292" />
    <rect
       style="fill:#ffffff;stroke:#000000;stroke-width:0.264583;stroke-linejoin:miter;stroke-dasharray:none;stroke-opacity:1;paint-order:markers fill stroke"
       id="rect184-0-8"
       width="10"
       height="10"
       x="40.132298"
       y="10.132292" />
    <rect
       style="fill:#ffffff;stroke:#000000;stroke-width:0.264583;stroke-linejoin:miter;stroke-dasharray:none;stroke-opacity:1;paint-order:markers fill stroke"
       id="rect184-3-8-4"
       width="10"
       height="10"
       x="50.132305"
       y="10.132292" />
    <rect
       style="fill:#000000;fill-opacity:1;stroke:#000000;stroke-width:0.264583;stroke-linejoin:miter;stroke-dasharray:none;stroke-opacity:1;paint-order:markers fill stroke"
       id="rect184-7-1-6"
       width="10"
       height="10"
       x="60.132305"
       y="10.132292" />
    <rect
       style="fill:#ffffff;stroke:#000000;stroke-width:0.264583;stroke-linejoin:miter;stroke-dasharray:none;stroke-opacity:1;paint-order:markers fill stroke"
       id="rect184-3-2-4-9"
       width="10"
       height="10"
       x="70.132301"
       y="10.132292" />
    <rect
       style="fill:#ffffff;stroke:#000000;stroke-width:0.264583;stroke-linejoin:miter;stroke-dasharray:none;stroke-opacity:1;paint-order:markers fill stroke"
       id="rect184-1"
       width="10"
       height="10"
       x="0.13229166"
       y="20.132292" />
    <rect
       style="fill:#ffffff;stroke:#000000;stroke-width:0.264583;stroke-linejoin:miter;stroke-dasharray:none;stroke-opacity:1;paint-order:markers fill stroke"
       id="rect184-3-81"
       width="10"
       height="10"
       x="10.132294"
       y="20.132292" />
    <rect
       style="fill:#ffffff;stroke:#000000;stroke-width:0.264583;stroke-linejoin:miter;stroke-dasharray:none;stroke-opacity:1;paint-order:markers fill stroke"
       id="rect184-7-4"
       width="10"
       height="10"
       x="20.132294"
       y="20.132292" />
    <rect
       style="fill:#000000;fill-opacity:1;stroke:#000000;stroke-width:0.264583;stroke-linejoin:miter;stroke-dasharray:none;stroke-opacity:1;paint-order:markers fill stroke"
       id="rect184-3-2-1"
       width="10"
       height="10"
       x="30.132298"
       y="20.132292" />
    <rect
       style="fill:#ffffff;stroke:#000000;stroke-width:0.264583;stroke-linejoin:miter;stroke-dasharray:none;stroke-opacity:1;paint-order:markers fill stroke"
       id="rect184-0-7"
       width="10"
       height="10"
       x="40.132298"
       y="20.132292" />
    <rect
       style="fill:#ffffff;stroke:#000000;stroke-width:0.264583;stroke-linejoin:miter;stroke-dasharray:none;stroke-opacity:1;paint-order:markers fill stroke"
       id="rect184-3-8-9"
       width="10"
       height="10"
       x="50.132305"
       y="20.132292" />
    <rect
       style="fill:#000000;fill-opacity:1;stroke:#000000;stroke-width:0.264583;stroke-linejoin:miter;stroke-dasharray:none;stroke-opacity:1;paint-order:markers fill stroke"
       id="rect184-7-1-0"
       width="10"
       height="10"
       x="60.132305"
       y="20.132292" />
    <rect
       style="fill:#000000;fill-opacity:1;stroke:#000000;stroke-width:0.264583;stroke-linejoin:miter;stroke-dasharray:none;stroke-opacity:1;paint-order:markers fill stroke"
       id="rect184-3-2-4-4"
       width="10"
       height="10"
       x="70.132301"
       y="20.132292" />
    <rect
       style="fill:#000000;fill-opacity:1;stroke:#000000;stroke-width:0.264583;stroke-linejoin:miter;stroke-dasharray:none;stroke-opacity:1;paint-order:markers fill stroke"
       id="rect184-2-4"
       width="10"
       height="10"
       x="0.13229166"
       y="30.132292" />
    <rect
       style="fill:#ffffff;stroke:#000000;stroke-width:0.264583;stroke-linejoin:miter;stroke-dasharray:none;stroke-opacity:1;paint-order:markers fill stroke"
       id="rect184-3-5-7"
       width="10"
       height="10"
       x="10.132294"
       y="30.132292" />
    <rect
       style="fill:#ffffff;stroke:#000000;stroke-width:0.264583;stroke-linejoin:miter;stroke-dasharray:none;stroke-opacity:1;paint-order:markers fill stroke"
       id="rect184-7-7-4"
       width="10"
       height="10"
       x="20.132294"
       y="30.132292" />
    <rect
       style="fill:#ffffff;stroke:#000000;stroke-width:0.264583;stroke-linejoin:miter;stroke-dasharray:none;stroke-opacity:1;paint-order:markers fill stroke"
       id="rect184-3-2-6-6"
       width="10"
       height="10"
       x="30.132298"
       y="30.132292" />
    <rect
       style="fill:#000000;fill-opacity:1;stroke:#000000;stroke-width:0.264583;stroke-linejoin:miter;stroke-dasharray:none;stroke-opacity:1;paint-order:markers fill stroke"
       id="rect184-0-8-5"
       width="10"
       height="10"
       x="40.132298"
       y="30.132292" />
    <rect
       style="fill:#000000;fill-opacity:1;stroke:#000000;stroke-width:0.264583;stroke-linejoin:miter;stroke-dasharray:none;stroke-opacity:1;paint-order:markers fill stroke"
       id="rect184-3-8-4-1"
       width="10"
       height="10"
       x="50.132305"
       y="30.132292" />
    <rect
       style="fill:#ffffff;stroke:#000000;stroke-width:0.264583;stroke-linejoin:miter;stroke-dasharray:none;stroke-opacity:1;paint-order:markers fill stroke"
       id="rect184-7-1-6-0"
       width="10"
       height="10"
       x="60.132305"
       y="30.132292" />
    <rect
       style="fill:#ffffff;stroke:#000000;stroke-width:0.264583;stroke-linejoin:miter;stroke-dasharray:none;stroke-opacity:1;paint-order:markers fill stroke"
       id="rect184-3-2-4-9-1"
       width="10"
       height="10"
       x="70.132301"
       y="30.132292" />
    <rect
       style="fill:#000000;fill-opacity:1;stroke:#000000;stroke-width:0.264583;stroke-linejoin:miter;stroke-dasharray:none;stroke-opacity:1;paint-order:markers fill stroke"
       id="rect184-23"
       width="10"
       height="10"
       x="0.13229166"
       y="40.13229" />
    <rect
       style="fill:#000000;fill-opacity:1;stroke:#000000;stroke-width:0.264583;stroke-linejoin:miter;stroke-dasharray:none;stroke-opacity:1;paint-order:markers fill stroke"
       id="rect184-3-53"
       width="10"
       height="10"
       x="10.132294"
       y="40.13229" />
    <rect
       style="fill:#000000;fill-opacity:1;stroke:#000000;stroke-width:0.264583;stroke-linejoin:miter;stroke-dasharray:none;stroke-opacity:1;paint-order:markers fill stroke"
       id="rect184-7-0"
       width="10"
       height="10"
       x="20.132296"
       y="40.13229" />
    <rect
       style="fill:#000000;fill-opacity:1;stroke:#000000;stroke-width:0.264583;stroke-linejoin:miter;stroke-dasharray:none;stroke-opacity:1;paint-order:markers fill stroke"
       id="rect184-3-2-7"
       width="10"
       height="10"
       x="30.132298"
       y="40.13229" />
    <rect
       style="fill:#ffffff;stroke:#000000;stroke-width:0.264583;stroke-linejoin:miter;stroke-dasharray:none;stroke-opacity:1;paint-order:markers fill stroke"
       id="rect184-0-4"
       width="10"
       height="10"
       x="40.132298"
       y="40.13229" />
    <rect
       style="fill:#ffffff;stroke:#000000;stroke-width:0.264583;stroke-linejoin:miter;stroke-dasharray:none;stroke-opacity:1;paint-order:markers fill stroke"
       id="rect184-3-8-6"
       width="10"
       height="10"
       x="50.132305"
       y="40.13229" />
    <rect
       style="fill:#000000;fill-opacity:1;stroke:#000000;stroke-width:0.264583;stroke-linejoin:miter;stroke-dasharray:none;stroke-opacity:1;paint-order:markers fill stroke"
       id="rect184-7-1-7"
       width="10"
       height="10"
       x="60.132305"
       y="40.13229" />
    <rect
       style="fill:#ffffff;stroke:#000000;stroke-width:0.264583;stroke-linejoin:miter;stroke-dasharray:none;stroke-opacity:1;paint-order:markers fill stroke"
       id="rect184-3-2-4-8"
       width="10"
       height="10"
       x="70.132301"
       y="40.13229" />
    <rect
       style="fill:#ffffff;stroke:#000000;stroke-width:0.264583;stroke-linejoin:miter;stroke-dasharray:none;stroke-opacity:1;paint-order:markers fill stroke"
       id="rect184-2-8"
       width="10"
       height="10"
       x="0.13229166"
       y="50.13229" />
    <rect
       style="fill:#000000;stroke:#000000;stroke-width:0.264583;stroke-linejoin:miter;stroke-dasharray:none;stroke-opacity:1;paint-order:markers fill stroke;fill-opacity:1"
       id="rect184-3-5-5"
       width="10"
       height="10"
       x="10.132294"
       y="50.13229" />
    <rect
       style="fill:#ffffff;stroke:#000000;stroke-width:0.264583;stroke-linejoin:miter;stroke-dasharray:none;stroke-opacity:1;paint-order:markers fill stroke"
       id="rect184-7-7-6"
       width="10"
       height="10"
       x="20.132298"
       y="50.13229" />
    <rect
       style="fill:#ffffff;stroke:#000000;stroke-width:0.264583;stroke-linejoin:miter;stroke-dasharray:none;stroke-opacity:1;paint-order:markers fill stroke"
       id="rect184-3-2-6-4"
       width="10"
       height="10"
       x="30.132298"
       y="50.13229" />
    <rect
       style="fill:#ffffff;stroke:#000000;stroke-width:0.264583;stroke-linejoin:miter;stroke-dasharray:none;stroke-opacity:1;paint-order:markers fill stroke"
       id="rect184-0-8-1"
       width="10"
       height="10"
       x="40.132298"
       y="50.13229" />
    <rect
       style="fill:#ffffff;stroke:#000000;stroke-width:0.264583;stroke-linejoin:miter;stroke-dasharray:none;stroke-opacity:1;paint-order:markers fill stroke"
       id="rect184-3-8-4-4"
       width="10"
       height="10"
       x="50.132305"
       y="50.13229" />
    <rect
       style="fill:#000000;stroke:#000000;stroke-width:0.264583;stroke-linejoin:miter;stroke-dasharray:none;stroke-opacity:1;paint-order:markers fill stroke;fill-opacity:1"
       id="rect184-7-1-6-03"
       width="10"
       height="10"
       x="60.132305"
       y="50.13229" />
    <rect
       style="fill:#ffffff;stroke:#000000;stroke-width:0.264583;stroke-linejoin:miter;stroke-dasharray:none;stroke-opacity:1;paint-order:markers fill stroke"
       id="rect184-3-2-4-9-8"
       width="10"
       height="10"
       x="70.132301"
       y="50.13229" />
    <rect
       style="fill:#ffffff;stroke:#000000;stroke-width:0.264583;stroke-linejoin:miter;stroke-dasharray:none;stroke-opacity:1;paint-order:markers fill stroke"
       id="rect184-1-5"
       width="10"
       height="10"
       x="0.13229166"
       y="60.13229" />
    <rect
       style="fill:#ffffff;stroke:#000000;stroke-width:0.264583;stroke-linejoin:miter;stroke-dasharray:none;stroke-opacity:1;paint-order:markers fill stroke"
       id="rect184-3-81-0"
       width="10"
       height="10"
       x="10.132294"
       y="60.13229" />
    <rect
       style="fill:#000000;stroke:#000000;stroke-width:0.264583;stroke-linejoin:miter;stroke-dasharray:none;stroke-opacity:1;paint-order:markers fill stroke;fill-opacity:1"
       id="rect184-7-4-5"
       width="10"
       height="10"
       x="20.132296"
       y="60.13229" />
    <rect
       style="fill:#000000;stroke:#000000;stroke-width:0.264583;stroke-linejoin:miter;stroke-dasharray:none;stroke-opacity:1;paint-order:markers fill stroke;fill-opacity:1"
       id="rect184-3-2-1-6"
       width="10"
       height="10"
       x="30.132298"
       y="60.13229" />
    <rect
       style="fill:#000000;stroke:#000000;stroke-width:0.264583;stroke-linejoin:miter;stroke-dasharray:none;stroke-opacity:1;paint-order:markers fill stroke;fill-opacity:1"
       id="rect184-0-7-6"
       width="10"
       height="10"
       x="40.132298"
       y="60.13229" />
    <rect
       style="fill:#000000;stroke:#000000;stroke-width:0.264583;stroke-linejoin:miter;stroke-dasharray:none;stroke-opacity:1;paint-order:markers fill stroke;fill-opacity:1"
       id="rect184-3-8-9-6"
       width="10"
       height="10"
       x="50.132305"
       y="60.13229" />
    <rect
       style="fill:#ffffff;stroke:#000000;stroke-width:0.264583;stroke-linejoin:miter;stroke-dasharray:none;stroke-opacity:1;paint-order:markers fill stroke"
       id="rect184-7-1-0-0"
       width="10"
       height="10"
       x="60.132305"
       y="60.13229" />
    <rect
       style="fill:#ffffff;stroke:#000000;stroke-width:0.264583;stroke-linejoin:miter;stroke-dasharray:none;stroke-opacity:1;paint-order:markers fill stroke"
       id="rect184-3-2-4-4-7"
       width="10"
       height="10"
       x="70.132301"
       y="60.13229" />
    <rect
       style="fill:#ffffff;stroke:#000000;stroke-width:0.264583;stroke-linejoin:miter;stroke-dasharray:none;stroke-opacity:1;paint-order:markers fill stroke"
       id="rect184-2-4-0"
       width="10"
       height="10"
       x="0.13229166"
       y="70.132294" />
    <rect
       style="fill:#ffffff;stroke:#000000;stroke-width:0.264583;stroke-linejoin:miter;stroke-dasharray:none;stroke-opacity:1;paint-order:markers fill stroke"
       id="rect184-3-5-7-7"
       width="10"
       height="10"
       x="10.132294"
       y="70.132294" />
    <rect
       style="fill:#ffffff;stroke:#000000;stroke-width:0.264583;stroke-linejoin:miter;stroke-dasharray:none;stroke-opacity:1;paint-order:markers fill stroke"
       id="rect184-7-7-4-9"
       width="10"
       height="10"
       x="20.132296"
       y="70.132294" />
    <rect
       style="fill:#000000;stroke:#000000;stroke-width:0.264583;stroke-linejoin:miter;stroke-dasharray:none;stroke-opacity:1;paint-order:markers fill stroke;fill-opacity:1"
       id="rect184-3-2-6-6-7"
       width="10"
       height="10"
       x="30.132298"
       y="70.132294" />
    <rect
       style="fill:#000000;stroke:#000000;stroke-width:0.264583;stroke-linejoin:miter;stroke-dasharray:none;stroke-opacity:1;paint-order:markers fill stroke;fill-opacity:1"
       id="rect184-0-8-5-4"
       width="10"
       height="10"
       x="40.132298"
       y="70.132294" />
    <rect
       style="fill:#ffffff;stroke:#000000;stroke-width:0.264583;stroke-linejoin:miter;stroke-dasharray:none;stroke-opacity:1;paint-order:markers fill stroke"
       id="rect184-3-8-4-1-2"
       width="10"
       height="10"
       x="50.132305"
       y="70.132294" />
    <rect
       style="fill:#ffffff;stroke:#000000;stroke-width:0.264583;stroke-linejoin:miter;stroke-dasharray:none;stroke-opacity:1;paint-order:markers fill stroke"
       id="rect184-7-1-6-0-0"
       width="10"
       height="10"
       x="60.132305"
       y="70.132294" />
    <rect
       style="fill:#ffffff;stroke:#000000;stroke-width:0.264583;stroke-linejoin:miter;stroke-dasharray:none;stroke-opacity:1;paint-order:markers fill stroke"
       id="rect184-3-2-4-9-1-0"
       width="10"
       height="10"
       x="70.132301"
       y="70.132294" />
    <g
       aria-label="4,2,2"
       id="text604"
       style="font-size:10.5833px;font-family:Consolas;-inkscape-font-specification:'Consolas, Normal';stroke:#000000;stroke-width:0.264583;paint-order:markers fill stroke">
      <path
         d="m 88.387156,6.7032502 h -1.15238 V 8.1966944 H 86.314938 V 6.7032502 H 83.064501 V 5.9126033 l 2.878368,-4.4699971 h 1.291907 v 4.4699971 h 1.15238 z m -2.072218,-4.3924827 -2.35127,3.6018358 h 2.35127 z"
         id="path4409" />
      <path
         d="m 89.890935,9.2560579 q 0.263549,0.010335 0.511596,-0.046509 0.248046,-0.056844 0.43408,-0.1705317 0.191202,-0.1085201 0.30489,-0.2738842 0.113688,-0.165364 0.113688,-0.3772367 0,-0.2170404 -0.07751,-0.3513987 -0.07235,-0.1343583 -0.165365,-0.248046 -0.09302,-0.1136878 -0.170531,-0.2428785 -0.07235,-0.1291907 -0.07235,-0.346231 0,-0.1085202 0.04134,-0.2273756 0.04134,-0.1188554 0.124023,-0.2170403 0.08785,-0.098185 0.21704,-0.1601964 0.134359,-0.062011 0.315226,-0.062011 0.180867,0 0.346231,0.077514 0.170531,0.072347 0.294554,0.2273755 0.129191,0.1550288 0.201538,0.387572 0.07751,0.2325432 0.07751,0.5477685 0,0.428913 -0.160196,0.8216526 -0.155029,0.3979073 -0.470254,0.7027973 -0.310058,0.30489 -0.780312,0.4857569 -0.465086,0.1808669 -1.085202,0.1808669 z"
         id="path4411" />
      <path
         d="M 99.688756,8.1966944 H 95.239429 V 7.3905446 L 96.986087,5.654222 Q 97.415,5.2304766 97.683716,4.920419 q 0.268717,-0.3100576 0.418578,-0.5632713 0.149861,-0.2583814 0.201538,-0.4857569 0.05168,-0.2273756 0.05168,-0.4909246 0,-0.2480461 -0.06718,-0.470254 Q 98.22115,2.6828366 98.081624,2.5123049 97.942098,2.3417732 97.71989,2.2435883 q -0.222208,-0.098185 -0.532266,-0.098185 -0.428913,0 -0.780311,0.1912022 -0.351399,0.1912022 -0.645954,0.4960922 L 95.265267,2.2384207 q 0.382404,-0.4030749 0.878497,-0.6459533 0.501259,-0.2428785 1.162716,-0.2428785 0.449583,0 0.816485,0.1343583 0.372069,0.1343583 0.640785,0.387572 0.268717,0.2532137 0.413411,0.6201152 0.149861,0.3669015 0.149861,0.8268203 0,0.387572 -0.103353,0.7183001 -0.103352,0.3307281 -0.315225,0.6614562 -0.206705,0.3255605 -0.527098,0.6769592 -0.315225,0.3513986 -0.749306,0.7699763 l -1.224727,1.1937218 h 3.281443 z"
         id="path4413" />
      <path
         d="m 101.52843,9.2560579 q 0.26355,0.010335 0.51159,-0.046509 0.24805,-0.056844 0.43409,-0.1705317 0.1912,-0.1085201 0.30489,-0.2738842 0.11368,-0.165364 0.11368,-0.3772367 0,-0.2170404 -0.0775,-0.3513987 -0.0724,-0.1343583 -0.16537,-0.248046 -0.093,-0.1136878 -0.17053,-0.2428785 -0.0723,-0.1291907 -0.0723,-0.346231 0,-0.1085202 0.0413,-0.2273756 0.0413,-0.1188554 0.12402,-0.2170403 0.0879,-0.098185 0.21704,-0.1601964 0.13436,-0.062011 0.31523,-0.062011 0.18086,0 0.34623,0.077514 0.17053,0.072347 0.29455,0.2273755 0.12919,0.1550288 0.20154,0.387572 0.0775,0.2325432 0.0775,0.5477685 0,0.428913 -0.16019,0.8216526 -0.15503,0.3979073 -0.47026,0.7027973 -0.31005,0.30489 -0.78031,0.4857569 -0.46509,0.1808669 -1.0852,0.1808669 z"
         id="path4415" />
      <path
         d="m 111.32625,8.1966944 h -4.44933 V 7.3905446 l 1.74666,-1.7363226 q 0.42891,-0.4237454 0.69763,-0.733803 0.26872,-0.3100576 0.41858,-0.5632713 0.14986,-0.2583814 0.20154,-0.4857569 0.0517,-0.2273756 0.0517,-0.4909246 0,-0.2480461 -0.0672,-0.470254 -0.0672,-0.2273756 -0.2067,-0.3979073 -0.13953,-0.1705317 -0.36174,-0.2687166 -0.2222,-0.098185 -0.53226,-0.098185 -0.42891,0 -0.78031,0.1912022 -0.3514,0.1912022 -0.64596,0.4960922 l -0.49609,-0.5942771 q 0.38241,-0.4030749 0.8785,-0.6459533 0.50126,-0.2428785 1.16271,-0.2428785 0.44959,0 0.81649,0.1343583 0.37207,0.1343583 0.64079,0.387572 0.26871,0.2532137 0.41341,0.6201152 0.14986,0.3669015 0.14986,0.8268203 0,0.387572 -0.10336,0.7183001 -0.10335,0.3307281 -0.31522,0.6614562 -0.20671,0.3255605 -0.5271,0.6769592 -0.31522,0.3513986 -0.7493,0.7699763 l -1.22473,1.1937218 h 3.28144 z"
         id="path4417" />
    </g>
    <g
       aria-label="3,1,2,1,1"
       id="text604-8"
       style="font-size:10.5833px;font-family:Consolas;-inkscape-font-specification:'Consolas, Normal';stroke:#000000;stroke-width:0.264583;paint-order:markers fill stroke">
      <path
         d="m 87.92207,15.620632 q 0,0.444416 -0.180867,0.837156 -0.180867,0.387572 -0.542601,0.682127 -0.361734,0.289387 -0.909502,0.459918 -0.547769,0.165364 -1.276404,0.165364 -0.403075,0 -0.723468,-0.02584 -0.320393,-0.02584 -0.599444,-0.06718 v -0.80615 q 0.320392,0.05684 0.676959,0.08785 0.356566,0.03101 0.728635,0.03101 0.506427,0 0.862994,-0.08785 0.361734,-0.09302 0.589109,-0.263549 0.227376,-0.170531 0.330728,-0.41341 0.103353,-0.242878 0.103353,-0.547768 0,-0.279052 -0.124023,-0.485757 -0.124023,-0.206705 -0.351399,-0.346231 -0.222208,-0.139526 -0.537433,-0.206705 -0.310058,-0.07235 -0.682127,-0.07235 h -0.769976 v -0.738971 h 0.780312 q 0.304889,0 0.552936,-0.07751 0.253213,-0.08268 0.428913,-0.232543 0.180867,-0.149862 0.273884,-0.366902 0.09819,-0.222208 0.09819,-0.50126 0,-0.5426 -0.330728,-0.790647 -0.330729,-0.248046 -0.971514,-0.248046 -0.341064,0 -0.702797,0.06718 -0.361734,0.06718 -0.775144,0.201538 v -0.785479 q 0.175699,-0.06201 0.372069,-0.10852 0.201537,-0.05168 0.397907,-0.08268 0.201537,-0.03617 0.397907,-0.05168 0.19637,-0.02067 0.377237,-0.02067 0.537433,0 0.945676,0.118855 0.408242,0.113688 0.682126,0.330728 0.273885,0.217041 0.41341,0.527098 0.139526,0.310058 0.139526,0.69763 0,0.578774 -0.299722,0.971514 -0.294555,0.392739 -0.811317,0.625282 0.263549,0.04134 0.516762,0.165365 0.258382,0.124023 0.459919,0.320392 0.206705,0.191203 0.330728,0.454752 0.129191,0.263548 0.129191,0.583941 z"
         id="path4420" />
      <path
         d="m 89.890935,18.731544 q 0.263549,0.01034 0.511596,-0.04651 0.248046,-0.05684 0.43408,-0.170532 0.191202,-0.10852 0.30489,-0.273884 0.113688,-0.165364 0.113688,-0.377237 0,-0.21704 -0.07751,-0.351398 -0.07235,-0.134359 -0.165365,-0.248046 -0.09302,-0.113688 -0.170531,-0.242879 -0.07235,-0.12919 -0.07235,-0.346231 0,-0.10852 0.04134,-0.227375 0.04134,-0.118856 0.124023,-0.217041 0.08785,-0.09819 0.21704,-0.160196 0.134359,-0.06201 0.315226,-0.06201 0.180867,0 0.346231,0.07752 0.170531,0.07235 0.294554,0.227375 0.129191,0.155029 0.201538,0.387572 0.07751,0.232544 0.07751,0.547769 0,0.428913 -0.160196,0.821652 -0.155029,0.397908 -0.470254,0.702798 -0.310058,0.30489 -0.780312,0.485757 -0.465086,0.180867 -1.085202,0.180867 z"
         id="path4422" />
      <path
         d="M 99.631912,17.67218 H 95.38929 v -0.837155 h 1.736323 v -4.929916 l -1.617467,0.878496 -0.330729,-0.764809 2.149733,-1.13171 h 0.795815 v 5.947939 h 1.508947 z"
         id="path4424" />
      <path
         d="m 101.52843,18.731544 q 0.26355,0.01034 0.51159,-0.04651 0.24805,-0.05684 0.43409,-0.170532 0.1912,-0.10852 0.30489,-0.273884 0.11368,-0.165364 0.11368,-0.377237 0,-0.21704 -0.0775,-0.351398 -0.0724,-0.134359 -0.16537,-0.248046 -0.093,-0.113688 -0.17053,-0.242879 -0.0723,-0.12919 -0.0723,-0.346231 0,-0.10852 0.0413,-0.227375 0.0413,-0.118856 0.12402,-0.217041 0.0879,-0.09819 0.21704,-0.160196 0.13436,-0.06201 0.31523,-0.06201 0.18086,0 0.34623,0.07752 0.17053,0.07235 0.29455,0.227375 0.12919,0.155029 0.20154,0.387572 0.0775,0.232544 0.0775,0.547769 0,0.428913 -0.16019,0.821652 -0.15503,0.397908 -0.47026,0.702798 -0.31005,0.30489 -0.78031,0.485757 -0.46509,0.180867 -1.0852,0.180867 z"
         id="path4426" />
      <path
         d="m 111.32625,17.67218 h -4.44933 v -0.80615 l 1.74666,-1.736322 q 0.42891,-0.423746 0.69763,-0.733803 0.26872,-0.310058 0.41858,-0.563272 0.14986,-0.258381 0.20154,-0.485756 0.0517,-0.227376 0.0517,-0.490925 0,-0.248046 -0.0672,-0.470254 -0.0672,-0.227376 -0.2067,-0.397907 -0.13953,-0.170532 -0.36174,-0.268717 -0.2222,-0.09819 -0.53226,-0.09819 -0.42891,0 -0.78031,0.191202 -0.3514,0.191203 -0.64596,0.496093 l -0.49609,-0.594277 q 0.38241,-0.403075 0.8785,-0.645954 0.50126,-0.242878 1.16271,-0.242878 0.44959,0 0.81649,0.134358 0.37207,0.134358 0.64079,0.387572 0.26871,0.253214 0.41341,0.620115 0.14986,0.366902 0.14986,0.82682 0,0.387573 -0.10336,0.718301 -0.10335,0.330728 -0.31522,0.661456 -0.20671,0.32556 -0.5271,0.676959 -0.31522,0.351399 -0.7493,0.769976 l -1.22473,1.193722 h 3.28144 z"
         id="path4428" />
      <path
         d="m 113.16593,18.731544 q 0.26355,0.01034 0.51159,-0.04651 0.24805,-0.05684 0.43408,-0.170532 0.1912,-0.10852 0.30489,-0.273884 0.11369,-0.165364 0.11369,-0.377237 0,-0.21704 -0.0775,-0.351398 -0.0724,-0.134359 -0.16537,-0.248046 -0.093,-0.113688 -0.17053,-0.242879 -0.0724,-0.12919 -0.0724,-0.346231 0,-0.10852 0.0413,-0.227375 0.0414,-0.118856 0.12403,-0.217041 0.0879,-0.09819 0.21704,-0.160196 0.13436,-0.06201 0.31522,-0.06201 0.18087,0 0.34623,0.07752 0.17054,0.07235 0.29456,0.227375 0.12919,0.155029 0.20154,0.387572 0.0775,0.232544 0.0775,0.547769 0,0.428913 -0.1602,0.821652 -0.15502,0.397908 -0.47025,0.702798 -0.31006,0.30489 -0.78031,0.485757 -0.46509,0.180867 -1.0852,0.180867 z"
         id="path4430" />
      <path
         d="m 122.9069,17.67218 h -4.24262 v -0.837155 h 1.73632 v -4.929916 l -1.61747,0.878496 -0.33072,-0.764809 2.14973,-1.13171 h 0.79581 v 5.947939 h 1.50895 z"
         id="path4432" />
      <path
         d="m 124.80342,18.731544 q 0.26355,0.01034 0.51159,-0.04651 0.24805,-0.05684 0.43409,-0.170532 0.1912,-0.10852 0.30489,-0.273884 0.11368,-0.165364 0.11368,-0.377237 0,-0.21704 -0.0775,-0.351398 -0.0724,-0.134359 -0.16537,-0.248046 -0.093,-0.113688 -0.17053,-0.242879 -0.0723,-0.12919 -0.0723,-0.346231 0,-0.10852 0.0413,-0.227375 0.0413,-0.118856 0.12402,-0.217041 0.0879,-0.09819 0.21704,-0.160196 0.13436,-0.06201 0.31523,-0.06201 0.18086,0 0.34623,0.07752 0.17053,0.07235 0.29455,0.227375 0.12919,0.155029 0.20154,0.387572 0.0775,0.232544 0.0775,0.547769 0,0.428913 -0.16019,0.821652 -0.15503,0.397908 -0.47026,0.702798 -0.31005,0.30489 -0.78031,0.485757 -0.46509,0.180867 -1.0852,0.180867 z"
         id="path4434" />
      <path
         d="m 134.5444,17.67218 h -4.24262 v -0.837155 h 1.73632 v -4.929916 l -1.61747,0.878496 -0.33073,-0.764809 2.14974,-1.13171 h 0.79581 v 5.947939 h 1.50895 z"
         id="path4436" />
    </g>
    <g
       aria-label="3,1,2,2"
       id="text604-2"
       style="font-size:10.5833px;font-family:Consolas;-inkscape-font-specification:'Consolas, Normal';stroke:#000000;stroke-width:0.264583;paint-order:markers fill stroke">
      <path
         d="m 87.92207,25.620632 q 0,0.444416 -0.180867,0.837156 -0.180867,0.387572 -0.542601,0.682127 -0.361734,0.289387 -0.909502,0.459918 -0.547769,0.165364 -1.276404,0.165364 -0.403075,0 -0.723468,-0.02584 -0.320393,-0.02584 -0.599444,-0.06718 v -0.80615 q 0.320392,0.05684 0.676959,0.08785 0.356566,0.03101 0.728635,0.03101 0.506427,0 0.862994,-0.08785 0.361734,-0.09302 0.589109,-0.263549 0.227376,-0.170531 0.330728,-0.41341 0.103353,-0.242878 0.103353,-0.547768 0,-0.279052 -0.124023,-0.485757 -0.124023,-0.206705 -0.351399,-0.346231 -0.222208,-0.139526 -0.537433,-0.206705 -0.310058,-0.07235 -0.682127,-0.07235 h -0.769976 v -0.738971 h 0.780312 q 0.304889,0 0.552936,-0.07751 0.253213,-0.08268 0.428913,-0.232543 0.180867,-0.149862 0.273884,-0.366902 0.09819,-0.222208 0.09819,-0.50126 0,-0.5426 -0.330728,-0.790647 -0.330729,-0.248046 -0.971514,-0.248046 -0.341064,0 -0.702797,0.06718 -0.361734,0.06718 -0.775144,0.201538 v -0.785479 q 0.175699,-0.06201 0.372069,-0.10852 0.201537,-0.05168 0.397907,-0.08268 0.201537,-0.03617 0.397907,-0.05168 0.19637,-0.02067 0.377237,-0.02067 0.537433,0 0.945676,0.118855 0.408242,0.113688 0.682126,0.330728 0.273885,0.217041 0.41341,0.527098 0.139526,0.310058 0.139526,0.69763 0,0.578774 -0.299722,0.971514 -0.294555,0.392739 -0.811317,0.625282 0.263549,0.04134 0.516762,0.165365 0.258382,0.124023 0.459919,0.320392 0.206705,0.191203 0.330728,0.454752 0.129191,0.263548 0.129191,0.583941 z"
         id="path4439" />
      <path
         d="m 89.890935,28.731544 q 0.263549,0.01034 0.511596,-0.04651 0.248046,-0.05684 0.43408,-0.170532 0.191202,-0.10852 0.30489,-0.273884 0.113688,-0.165364 0.113688,-0.377237 0,-0.21704 -0.07751,-0.351398 -0.07235,-0.134359 -0.165365,-0.248046 -0.09302,-0.113688 -0.170531,-0.242879 -0.07235,-0.12919 -0.07235,-0.346231 0,-0.10852 0.04134,-0.227375 0.04134,-0.118856 0.124023,-0.217041 0.08785,-0.09819 0.21704,-0.160196 0.134359,-0.06201 0.315226,-0.06201 0.180867,0 0.346231,0.07752 0.170531,0.07235 0.294554,0.227375 0.129191,0.155029 0.201538,0.387572 0.07751,0.232544 0.07751,0.547769 0,0.428913 -0.160196,0.821652 -0.155029,0.397908 -0.470254,0.702798 -0.310058,0.30489 -0.780312,0.485757 -0.465086,0.180867 -1.085202,0.180867 z"
         id="path4441" />
      <path
         d="M 99.631912,27.67218 H 95.38929 v -0.837155 h 1.736323 v -4.929916 l -1.617467,0.878496 -0.330729,-0.764809 2.149733,-1.13171 h 0.795815 v 5.947939 h 1.508947 z"
         id="path4443" />
      <path
         d="m 101.52843,28.731544 q 0.26355,0.01034 0.51159,-0.04651 0.24805,-0.05684 0.43409,-0.170532 0.1912,-0.10852 0.30489,-0.273884 0.11368,-0.165364 0.11368,-0.377237 0,-0.21704 -0.0775,-0.351398 -0.0724,-0.134359 -0.16537,-0.248046 -0.093,-0.113688 -0.17053,-0.242879 -0.0723,-0.12919 -0.0723,-0.346231 0,-0.10852 0.0413,-0.227375 0.0413,-0.118856 0.12402,-0.217041 0.0879,-0.09819 0.21704,-0.160196 0.13436,-0.06201 0.31523,-0.06201 0.18086,0 0.34623,0.07752 0.17053,0.07235 0.29455,0.227375 0.12919,0.155029 0.20154,0.387572 0.0775,0.232544 0.0775,0.547769 0,0.428913 -0.16019,0.821652 -0.15503,0.397908 -0.47026,0.702798 -0.31005,0.30489 -0.78031,0.485757 -0.46509,0.180867 -1.0852,0.180867 z"
         id="path4445" />
      <path
         d="m 111.32625,27.67218 h -4.44933 v -0.80615 l 1.74666,-1.736322 q 0.42891,-0.423746 0.69763,-0.733803 0.26872,-0.310058 0.41858,-0.563272 0.14986,-0.258381 0.20154,-0.485756 0.0517,-0.227376 0.0517,-0.490925 0,-0.248046 -0.0672,-0.470254 -0.0672,-0.227376 -0.2067,-0.397907 -0.13953,-0.170532 -0.36174,-0.268717 -0.2222,-0.09819 -0.53226,-0.09819 -0.42891,0 -0.78031,0.191202 -0.3514,0.191203 -0.64596,0.496093 l -0.49609,-0.594277 q 0.38241,-0.403075 0.8785,-0.645954 0.50126,-0.242878 1.16271,-0.242878 0.44959,0 0.81649,0.134358 0.37207,0.134358 0.64079,0.387572 0.26871,0.253214 0.41341,0.620115 0.14986,0.366902 0.14986,0.82682 0,0.387573 -0.10336,0.718301 -0.10335,0.330728 -0.31522,0.661456 -0.20671,0.32556 -0.5271,0.676959 -0.31522,0.351399 -0.7493,0.769976 l -1.22473,1.193722 h 3.28144 z"
         id="path4447" />
      <path
         d="m 113.16593,28.731544 q 0.26355,0.01034 0.51159,-0.04651 0.24805,-0.05684 0.43408,-0.170532 0.1912,-0.10852 0.30489,-0.273884 0.11369,-0.165364 0.11369,-0.377237 0,-0.21704 -0.0775,-0.351398 -0.0724,-0.134359 -0.16537,-0.248046 -0.093,-0.113688 -0.17053,-0.242879 -0.0724,-0.12919 -0.0724,-0.346231 0,-0.10852 0.0413,-0.227375 0.0414,-0.118856 0.12403,-0.217041 0.0879,-0.09819 0.21704,-0.160196 0.13436,-0.06201 0.31522,-0.06201 0.18087,0 0.34623,0.07752 0.17054,0.07235 0.29456,0.227375 0.12919,0.155029 0.20154,0.387572 0.0775,0.232544 0.0775,0.547769 0,0.428913 -0.1602,0.821652 -0.15502,0.397908 -0.47025,0.702798 -0.31006,0.30489 -0.78031,0.485757 -0.46509,0.180867 -1.0852,0.180867 z"
         id="path4449" />
      <path
         d="m 122.96374,27.67218 h -4.44932 v -0.80615 l 1.74665,-1.736322 q 0.42892,-0.423746 0.69763,-0.733803 0.26872,-0.310058 0.41858,-0.563272 0.14986,-0.258381 0.20154,-0.485756 0.0517,-0.227376 0.0517,-0.490925 0,-0.248046 -0.0672,-0.470254 -0.0672,-0.227376 -0.20671,-0.397907 -0.13952,-0.170532 -0.36173,-0.268717 -0.22221,-0.09819 -0.53227,-0.09819 -0.42891,0 -0.78031,0.191202 -0.3514,0.191203 -0.64595,0.496093 l -0.49609,-0.594277 q 0.3824,-0.403075 0.87849,-0.645954 0.50126,-0.242878 1.16272,-0.242878 0.44958,0 0.81648,0.134358 0.37207,0.134358 0.64079,0.387572 0.26872,0.253214 0.41341,0.620115 0.14986,0.366902 0.14986,0.82682 0,0.387573 -0.10335,0.718301 -0.10336,0.330728 -0.31523,0.661456 -0.2067,0.32556 -0.5271,0.676959 -0.31522,0.351399 -0.7493,0.769976 l -1.22473,1.193722 h 3.28144 z"
         id="path4451" />
    </g>
    <g
       aria-label="0,1,3,2,2"
       id="text604-4"
       style="font-size:10.5833px;font-family:Consolas;-inkscape-font-specification:'Consolas, Normal';stroke:#000000;stroke-width:0.264583;paint-order:markers fill stroke">
      <path
         d="m 88.206289,34.29772 q 0,0.775144 -0.155028,1.41593 -0.155029,0.635618 -0.470254,1.095537 -0.315226,0.454751 -0.78548,0.707964 -0.465086,0.248046 -1.095537,0.248046 -0.5426,0 -0.987016,-0.201537 -0.444416,-0.206705 -0.759641,-0.63045 -0.315226,-0.423746 -0.485757,-1.080034 -0.170532,-0.656289 -0.170532,-1.555456 0,-0.775144 0.155029,-1.41593 0.160196,-0.640786 0.470254,-1.095537 0.315225,-0.459919 0.785479,-0.707965 0.470254,-0.253213 1.095537,-0.253213 0.542601,0 0.987017,0.206705 0.444416,0.201537 0.759641,0.63045 0.315225,0.423746 0.485757,1.080034 0.170531,0.656289 0.170531,1.555456 z m -0.909502,0.03101 q 0,-0.1757 -0.0155,-0.346231 -0.01033,-0.1757 -0.02584,-0.341064 l -2.857698,2.123895 q 0.07751,0.268716 0.19637,0.496092 0.118856,0.227376 0.28422,0.39274 0.170531,0.160196 0.382404,0.253213 0.21704,0.08785 0.490925,0.08785 0.351398,0 0.635618,-0.170532 0.289387,-0.170531 0.490924,-0.506427 0.201538,-0.335896 0.310058,-0.831988 0.10852,-0.50126 0.10852,-1.157548 z m -3.090241,-0.06201 q 0,0.160197 0,0.320393 0.0052,0.160196 0.02067,0.310058 l 2.857697,-2.11356 q -0.07751,-0.263549 -0.196369,-0.480589 -0.118856,-0.21704 -0.28422,-0.372069 -0.165364,-0.160197 -0.377237,-0.248046 -0.211872,-0.08785 -0.475421,-0.08785 -0.351399,0 -0.640786,0.170532 -0.28422,0.170531 -0.485757,0.511595 -0.201537,0.335896 -0.310058,0.837155 -0.10852,0.496093 -0.10852,1.152381 z"
         id="path4454" />
      <path
         d="m 89.890935,38.731544 q 0.263549,0.01033 0.511596,-0.04651 0.248046,-0.05684 0.43408,-0.170532 0.191202,-0.10852 0.30489,-0.273884 0.113688,-0.165364 0.113688,-0.377237 0,-0.21704 -0.07751,-0.351398 -0.07235,-0.134359 -0.165365,-0.248046 -0.09302,-0.113688 -0.170531,-0.242879 -0.07235,-0.12919 -0.07235,-0.346231 0,-0.10852 0.04134,-0.227375 0.04134,-0.118856 0.124023,-0.217041 0.08785,-0.09819 0.21704,-0.160196 0.134359,-0.06201 0.315226,-0.06201 0.180867,0 0.346231,0.07751 0.170531,0.07235 0.294554,0.227375 0.129191,0.155029 0.201538,0.387572 0.07751,0.232544 0.07751,0.547769 0,0.428913 -0.160196,0.821652 -0.155029,0.397908 -0.470254,0.702798 -0.310058,0.30489 -0.780312,0.485757 -0.465086,0.180867 -1.085202,0.180867 z"
         id="path4456" />
      <path
         d="M 99.631912,37.67218 H 95.38929 v -0.837155 h 1.736323 v -4.929916 l -1.617467,0.878496 -0.330729,-0.764809 2.149733,-1.13171 h 0.795815 v 5.947939 h 1.508947 z"
         id="path4458" />
      <path
         d="m 101.52843,38.731544 q 0.26355,0.01033 0.51159,-0.04651 0.24805,-0.05684 0.43409,-0.170532 0.1912,-0.10852 0.30489,-0.273884 0.11368,-0.165364 0.11368,-0.377237 0,-0.21704 -0.0775,-0.351398 -0.0724,-0.134359 -0.16537,-0.248046 -0.093,-0.113688 -0.17053,-0.242879 -0.0723,-0.12919 -0.0723,-0.346231 0,-0.10852 0.0413,-0.227375 0.0413,-0.118856 0.12402,-0.217041 0.0879,-0.09819 0.21704,-0.160196 0.13436,-0.06201 0.31523,-0.06201 0.18086,0 0.34623,0.07751 0.17053,0.07235 0.29455,0.227375 0.12919,0.155029 0.20154,0.387572 0.0775,0.232544 0.0775,0.547769 0,0.428913 -0.16019,0.821652 -0.15503,0.397908 -0.47026,0.702798 -0.31005,0.30489 -0.78031,0.485757 -0.46509,0.180867 -1.0852,0.180867 z"
         id="path4460" />
      <path
         d="m 111.19706,35.620632 q 0,0.444416 -0.18087,0.837156 -0.18086,0.387572 -0.5426,0.682127 -0.36173,0.289387 -0.9095,0.459918 -0.54777,0.165364 -1.2764,0.165364 -0.40308,0 -0.72347,-0.02584 -0.32039,-0.02584 -0.59945,-0.06718 v -0.80615 q 0.3204,0.05684 0.67696,0.08785 0.35657,0.03101 0.72864,0.03101 0.50643,0 0.86299,-0.08785 0.36174,-0.09302 0.58911,-0.263549 0.22738,-0.170531 0.33073,-0.41341 0.10335,-0.242878 0.10335,-0.547768 0,-0.279052 -0.12402,-0.485757 -0.12402,-0.206705 -0.3514,-0.346231 -0.22221,-0.139526 -0.53743,-0.206705 -0.31006,-0.07235 -0.68213,-0.07235 h -0.76998 v -0.738971 h 0.78032 q 0.30489,0 0.55293,-0.07751 0.25322,-0.08268 0.42891,-0.232543 0.18087,-0.149862 0.27389,-0.366902 0.0982,-0.222208 0.0982,-0.50126 0,-0.5426 -0.33072,-0.790647 -0.33073,-0.248046 -0.97152,-0.248046 -0.34106,0 -0.7028,0.06718 -0.36173,0.06718 -0.77514,0.201538 v -0.785479 q 0.1757,-0.06201 0.37207,-0.10852 0.20154,-0.05168 0.39791,-0.08268 0.20153,-0.03617 0.3979,-0.05168 0.19637,-0.02067 0.37724,-0.02067 0.53743,0 0.94568,0.118855 0.40824,0.113688 0.68212,0.330728 0.27389,0.217041 0.41341,0.527098 0.13953,0.310058 0.13953,0.69763 0,0.578774 -0.29972,0.971514 -0.29456,0.392739 -0.81132,0.625282 0.26355,0.04134 0.51676,0.165365 0.25838,0.124023 0.45992,0.320392 0.20671,0.191203 0.33073,0.454752 0.12919,0.263548 0.12919,0.583941 z"
         id="path4462" />
      <path
         d="m 113.16593,38.731544 q 0.26355,0.01033 0.51159,-0.04651 0.24805,-0.05684 0.43408,-0.170532 0.1912,-0.10852 0.30489,-0.273884 0.11369,-0.165364 0.11369,-0.377237 0,-0.21704 -0.0775,-0.351398 -0.0724,-0.134359 -0.16537,-0.248046 -0.093,-0.113688 -0.17053,-0.242879 -0.0724,-0.12919 -0.0724,-0.346231 0,-0.10852 0.0413,-0.227375 0.0414,-0.118856 0.12403,-0.217041 0.0879,-0.09819 0.21704,-0.160196 0.13436,-0.06201 0.31522,-0.06201 0.18087,0 0.34623,0.07751 0.17054,0.07235 0.29456,0.227375 0.12919,0.155029 0.20154,0.387572 0.0775,0.232544 0.0775,0.547769 0,0.428913 -0.1602,0.821652 -0.15502,0.397908 -0.47025,0.702798 -0.31006,0.30489 -0.78031,0.485757 -0.46509,0.180867 -1.0852,0.180867 z"
         id="path4464" />
      <path
         d="m 122.96374,37.67218 h -4.44932 v -0.80615 l 1.74665,-1.736322 q 0.42892,-0.423746 0.69763,-0.733803 0.26872,-0.310058 0.41858,-0.563272 0.14986,-0.258381 0.20154,-0.485756 0.0517,-0.227376 0.0517,-0.490925 0,-0.248046 -0.0672,-0.470254 -0.0672,-0.227376 -0.20671,-0.397907 -0.13952,-0.170532 -0.36173,-0.268717 -0.22221,-0.09819 -0.53227,-0.09819 -0.42891,0 -0.78031,0.191202 -0.3514,0.191203 -0.64595,0.496093 l -0.49609,-0.594277 q 0.3824,-0.403075 0.87849,-0.645954 0.50126,-0.242878 1.16272,-0.242878 0.44958,0 0.81648,0.134358 0.37207,0.134358 0.64079,0.387572 0.26872,0.253214 0.41341,0.620115 0.14986,0.366902 0.14986,0.82682 0,0.387573 -0.10335,0.718301 -0.10336,0.330728 -0.31523,0.661456 -0.2067,0.32556 -0.5271,0.676959 -0.31522,0.351399 -0.7493,0.769976 l -1.22473,1.193722 h 3.28144 z"
         id="path4466" />
      <path
         d="m 124.80342,38.731544 q 0.26355,0.01033 0.51159,-0.04651 0.24805,-0.05684 0.43409,-0.170532 0.1912,-0.10852 0.30489,-0.273884 0.11368,-0.165364 0.11368,-0.377237 0,-0.21704 -0.0775,-0.351398 -0.0724,-0.134359 -0.16537,-0.248046 -0.093,-0.113688 -0.17053,-0.242879 -0.0723,-0.12919 -0.0723,-0.346231 0,-0.10852 0.0413,-0.227375 0.0413,-0.118856 0.12402,-0.217041 0.0879,-0.09819 0.21704,-0.160196 0.13436,-0.06201 0.31523,-0.06201 0.18086,0 0.34623,0.07751 0.17053,0.07235 0.29455,0.227375 0.12919,0.155029 0.20154,0.387572 0.0775,0.232544 0.0775,0.547769 0,0.428913 -0.16019,0.821652 -0.15503,0.397908 -0.47026,0.702798 -0.31005,0.30489 -0.78031,0.485757 -0.46509,0.180867 -1.0852,0.180867 z"
         id="path4468" />
      <path
         d="m 134.60124,37.67218 h -4.44933 v -0.80615 l 1.74666,-1.736322 q 0.42891,-0.423746 0.69763,-0.733803 0.26872,-0.310058 0.41858,-0.563272 0.14986,-0.258381 0.20154,-0.485756 0.0517,-0.227376 0.0517,-0.490925 0,-0.248046 -0.0672,-0.470254 -0.0672,-0.227376 -0.2067,-0.397907 -0.13953,-0.170532 -0.36174,-0.268717 -0.2222,-0.09819 -0.53226,-0.09819 -0.42891,0 -0.78031,0.191202 -0.3514,0.191203 -0.64596,0.496093 l -0.49609,-0.594277 q 0.38241,-0.403075 0.8785,-0.645954 0.50126,-0.242878 1.16271,-0.242878 0.44959,0 0.81649,0.134358 0.37207,0.134358 0.64079,0.387572 0.26871,0.253214 0.41341,0.620115 0.14986,0.366902 0.14986,0.82682 0,0.387573 -0.10336,0.718301 -0.10335,0.330728 -0.31522,0.661456 -0.20671,0.32556 -0.5271,0.676959 -0.31522,0.351399 -0.7493,0.769976 l -1.22473,1.193722 h 3.28144 z"
         id="path4470" />
    </g>
    <g
       aria-label="0,4,2,1,1"
       id="text604-1"
       style="font-size:10.5833px;font-family:Consolas;-inkscape-font-specification:'Consolas, Normal';stroke:#000000;stroke-width:0.264583;paint-order:markers fill stroke">
      <path
         d="m 88.206289,44.29772 q 0,0.775144 -0.155028,1.41593 -0.155029,0.635618 -0.470254,1.095537 -0.315226,0.454751 -0.78548,0.707964 -0.465086,0.248046 -1.095537,0.248046 -0.5426,0 -0.987016,-0.201537 -0.444416,-0.206705 -0.759641,-0.63045 -0.315226,-0.423746 -0.485757,-1.080034 -0.170532,-0.656289 -0.170532,-1.555456 0,-0.775144 0.155029,-1.41593 0.160196,-0.640786 0.470254,-1.095537 0.315225,-0.459919 0.785479,-0.707965 0.470254,-0.253213 1.095537,-0.253213 0.542601,0 0.987017,0.206705 0.444416,0.201537 0.759641,0.63045 0.315225,0.423746 0.485757,1.080034 0.170531,0.656289 0.170531,1.555456 z m -0.909502,0.03101 q 0,-0.1757 -0.0155,-0.346231 -0.01033,-0.1757 -0.02584,-0.341064 l -2.857698,2.123895 q 0.07751,0.268716 0.19637,0.496092 0.118856,0.227376 0.28422,0.39274 0.170531,0.160196 0.382404,0.253213 0.21704,0.08785 0.490925,0.08785 0.351398,0 0.635618,-0.170532 0.289387,-0.170531 0.490924,-0.506427 0.201538,-0.335896 0.310058,-0.831988 0.10852,-0.50126 0.10852,-1.157548 z m -3.090241,-0.06201 q 0,0.160197 0,0.320393 0.0052,0.160196 0.02067,0.310058 l 2.857697,-2.11356 q -0.07751,-0.263549 -0.196369,-0.480589 -0.118856,-0.21704 -0.28422,-0.372069 -0.165364,-0.160197 -0.377237,-0.248046 -0.211872,-0.08785 -0.475421,-0.08785 -0.351399,0 -0.640786,0.170532 -0.28422,0.170531 -0.485757,0.511595 -0.201537,0.335896 -0.310058,0.837155 -0.10852,0.496093 -0.10852,1.152381 z"
         id="path4473" />
      <path
         d="m 89.890935,48.731544 q 0.263549,0.01033 0.511596,-0.04651 0.248046,-0.05684 0.43408,-0.170532 0.191202,-0.10852 0.30489,-0.273884 0.113688,-0.165364 0.113688,-0.377237 0,-0.21704 -0.07751,-0.351398 -0.07235,-0.134359 -0.165365,-0.248046 -0.09302,-0.113688 -0.170531,-0.242879 -0.07235,-0.12919 -0.07235,-0.346231 0,-0.10852 0.04134,-0.227375 0.04134,-0.118856 0.124023,-0.217041 0.08785,-0.09819 0.21704,-0.160196 0.134359,-0.06201 0.315226,-0.06201 0.180867,0 0.346231,0.07751 0.170531,0.07235 0.294554,0.227375 0.129191,0.155029 0.201538,0.387572 0.07751,0.232544 0.07751,0.547769 0,0.428913 -0.160196,0.821652 -0.155029,0.397908 -0.470254,0.702798 -0.310058,0.30489 -0.780312,0.485757 -0.465086,0.180867 -1.085202,0.180867 z"
         id="path4475" />
      <path
         d="m 100.02465,46.178736 h -1.152379 v 1.493444 h -0.919838 v -1.493444 h -3.250437 v -0.790647 l 2.878368,-4.469997 h 1.291907 v 4.469997 h 1.152379 z m -2.072217,-4.392483 -2.35127,3.601836 h 2.35127 z"
         id="path4477" />
      <path
         d="m 101.52843,48.731544 q 0.26355,0.01033 0.51159,-0.04651 0.24805,-0.05684 0.43409,-0.170532 0.1912,-0.10852 0.30489,-0.273884 0.11368,-0.165364 0.11368,-0.377237 0,-0.21704 -0.0775,-0.351398 -0.0724,-0.134359 -0.16537,-0.248046 -0.093,-0.113688 -0.17053,-0.242879 -0.0723,-0.12919 -0.0723,-0.346231 0,-0.10852 0.0413,-0.227375 0.0413,-0.118856 0.12402,-0.217041 0.0879,-0.09819 0.21704,-0.160196 0.13436,-0.06201 0.31523,-0.06201 0.18086,0 0.34623,0.07751 0.17053,0.07235 0.29455,0.227375 0.12919,0.155029 0.20154,0.387572 0.0775,0.232544 0.0775,0.547769 0,0.428913 -0.16019,0.821652 -0.15503,0.397908 -0.47026,0.702798 -0.31005,0.30489 -0.78031,0.485757 -0.46509,0.180867 -1.0852,0.180867 z"
         id="path4479" />
      <path
         d="m 111.32625,47.67218 h -4.44933 v -0.80615 l 1.74666,-1.736322 q 0.42891,-0.423746 0.69763,-0.733803 0.26872,-0.310058 0.41858,-0.563272 0.14986,-0.258381 0.20154,-0.485756 0.0517,-0.227376 0.0517,-0.490925 0,-0.248046 -0.0672,-0.470254 -0.0672,-0.227376 -0.2067,-0.397907 -0.13953,-0.170532 -0.36174,-0.268717 -0.2222,-0.09819 -0.53226,-0.09819 -0.42891,0 -0.78031,0.191202 -0.3514,0.191203 -0.64596,0.496093 l -0.49609,-0.594277 q 0.38241,-0.403075 0.8785,-0.645954 0.50126,-0.242878 1.16271,-0.242878 0.44959,0 0.81649,0.134358 0.37207,0.134358 0.64079,0.387572 0.26871,0.253214 0.41341,0.620115 0.14986,0.366902 0.14986,0.82682 0,0.387573 -0.10336,0.718301 -0.10335,0.330728 -0.31522,0.661456 -0.20671,0.32556 -0.5271,0.676959 -0.31522,0.351399 -0.7493,0.769976 l -1.22473,1.193722 h 3.28144 z"
         id="path4481" />
      <path
         d="m 113.16593,48.731544 q 0.26355,0.01033 0.51159,-0.04651 0.24805,-0.05684 0.43408,-0.170532 0.1912,-0.10852 0.30489,-0.273884 0.11369,-0.165364 0.11369,-0.377237 0,-0.21704 -0.0775,-0.351398 -0.0724,-0.134359 -0.16537,-0.248046 -0.093,-0.113688 -0.17053,-0.242879 -0.0724,-0.12919 -0.0724,-0.346231 0,-0.10852 0.0413,-0.227375 0.0414,-0.118856 0.12403,-0.217041 0.0879,-0.09819 0.21704,-0.160196 0.13436,-0.06201 0.31522,-0.06201 0.18087,0 0.34623,0.07751 0.17054,0.07235 0.29456,0.227375 0.12919,0.155029 0.20154,0.387572 0.0775,0.232544 0.0775,0.547769 0,0.428913 -0.1602,0.821652 -0.15502,0.397908 -0.47025,0.702798 -0.31006,0.30489 -0.78031,0.485757 -0.46509,0.180867 -1.0852,0.180867 z"
         id="path4483" />
      <path
         d="m 122.9069,47.67218 h -4.24262 v -0.837155 h 1.73632 v -4.929916 l -1.61747,0.878496 -0.33072,-0.764809 2.14973,-1.13171 h 0.79581 v 5.947939 h 1.50895 z"
         id="path4485" />
      <path
         d="m 124.80342,48.731544 q 0.26355,0.01033 0.51159,-0.04651 0.24805,-0.05684 0.43409,-0.170532 0.1912,-0.10852 0.30489,-0.273884 0.11368,-0.165364 0.11368,-0.377237 0,-0.21704 -0.0775,-0.351398 -0.0724,-0.134359 -0.16537,-0.248046 -0.093,-0.113688 -0.17053,-0.242879 -0.0723,-0.12919 -0.0723,-0.346231 0,-0.10852 0.0413,-0.227375 0.0413,-0.118856 0.12402,-0.217041 0.0879,-0.09819 0.21704,-0.160196 0.13436,-0.06201 0.31523,-0.06201 0.18086,0 0.34623,0.07751 0.17053,0.07235 0.29455,0.227375 0.12919,0.155029 0.20154,0.387572 0.0775,0.232544 0.0775,0.547769 0,0.428913 -0.16019,0.821652 -0.15503,0.397908 -0.47026,0.702798 -0.31005,0.30489 -0.78031,0.485757 -0.46509,0.180867 -1.0852,0.180867 z"
         id="path4487" />
      <path
         d="m 134.5444,47.67218 h -4.24262 v -0.837155 h 1.73632 v -4.929916 l -1.61747,0.878496 -0.33073,-0.764809 2.14974,-1.13171 h 0.79581 v 5.947939 h 1.50895 z"
         id="path4489" />
    </g>
    <g
       aria-label="1,1,4,1,1"
       id="text604-9"
       style="font-size:10.5833px;font-family:Consolas;-inkscape-font-specification:'Consolas, Normal';stroke:#000000;stroke-width:0.264583;paint-order:markers fill stroke">
      <path
         d="m 87.994417,57.67218 h -4.242622 v -0.837155 h 1.736323 v -4.929916 l -1.617467,0.878496 -0.330729,-0.764809 2.149733,-1.13171 h 0.795815 v 5.947939 h 1.508947 z"
         id="path4492" />
      <path
         d="m 89.890935,58.731544 q 0.263549,0.01033 0.511596,-0.04651 0.248046,-0.05684 0.43408,-0.170532 0.191202,-0.10852 0.30489,-0.273884 0.113688,-0.165364 0.113688,-0.377237 0,-0.21704 -0.07751,-0.351398 -0.07235,-0.134359 -0.165365,-0.248046 -0.09302,-0.113688 -0.170531,-0.242879 -0.07235,-0.12919 -0.07235,-0.346231 0,-0.10852 0.04134,-0.227375 0.04134,-0.118856 0.124023,-0.217041 0.08785,-0.09819 0.21704,-0.160196 0.134359,-0.06201 0.315226,-0.06201 0.180867,0 0.346231,0.07751 0.170531,0.07235 0.294554,0.227375 0.129191,0.155029 0.201538,0.387572 0.07751,0.232544 0.07751,0.547769 0,0.428913 -0.160196,0.821652 -0.155029,0.397908 -0.470254,0.702798 -0.310058,0.30489 -0.780312,0.485757 -0.465086,0.180867 -1.085202,0.180867 z"
         id="path4494" />
      <path
         d="M 99.631912,57.67218 H 95.38929 v -0.837155 h 1.736323 v -4.929916 l -1.617467,0.878496 -0.330729,-0.764809 2.149733,-1.13171 h 0.795815 v 5.947939 h 1.508947 z"
         id="path4496" />
      <path
         d="m 101.52843,58.731544 q 0.26355,0.01033 0.51159,-0.04651 0.24805,-0.05684 0.43409,-0.170532 0.1912,-0.10852 0.30489,-0.273884 0.11368,-0.165364 0.11368,-0.377237 0,-0.21704 -0.0775,-0.351398 -0.0724,-0.134359 -0.16537,-0.248046 -0.093,-0.113688 -0.17053,-0.242879 -0.0723,-0.12919 -0.0723,-0.346231 0,-0.10852 0.0413,-0.227375 0.0413,-0.118856 0.12402,-0.217041 0.0879,-0.09819 0.21704,-0.160196 0.13436,-0.06201 0.31523,-0.06201 0.18086,0 0.34623,0.07751 0.17053,0.07235 0.29455,0.227375 0.12919,0.155029 0.20154,0.387572 0.0775,0.232544 0.0775,0.547769 0,0.428913 -0.16019,0.821652 -0.15503,0.397908 -0.47026,0.702798 -0.31005,0.30489 -0.78031,0.485757 -0.46509,0.180867 -1.0852,0.180867 z"
         id="path4498" />
      <path
         d="m 111.66215,56.178736 h -1.15238 v 1.493444 h -0.91984 v -1.493444 h -3.25044 v -0.790647 l 2.87837,-4.469997 h 1.29191 v 4.469997 h 1.15238 z m -2.07222,-4.392483 -2.35127,3.601836 h 2.35127 z"
         id="path4500" />
      <path
         d="m 113.16593,58.731544 q 0.26355,0.01033 0.51159,-0.04651 0.24805,-0.05684 0.43408,-0.170532 0.1912,-0.10852 0.30489,-0.273884 0.11369,-0.165364 0.11369,-0.377237 0,-0.21704 -0.0775,-0.351398 -0.0724,-0.134359 -0.16537,-0.248046 -0.093,-0.113688 -0.17053,-0.242879 -0.0724,-0.12919 -0.0724,-0.346231 0,-0.10852 0.0413,-0.227375 0.0414,-0.118856 0.12403,-0.217041 0.0879,-0.09819 0.21704,-0.160196 0.13436,-0.06201 0.31522,-0.06201 0.18087,0 0.34623,0.07751 0.17054,0.07235 0.29456,0.227375 0.12919,0.155029 0.20154,0.387572 0.0775,0.232544 0.0775,0.547769 0,0.428913 -0.1602,0.821652 -0.15502,0.397908 -0.47025,0.702798 -0.31006,0.30489 -0.78031,0.485757 -0.46509,0.180867 -1.0852,0.180867 z"
         id="path4502" />
      <path
         d="m 122.9069,57.67218 h -4.24262 v -0.837155 h 1.73632 v -4.929916 l -1.61747,0.878496 -0.33072,-0.764809 2.14973,-1.13171 h 0.79581 v 5.947939 h 1.50895 z"
         id="path4504" />
      <path
         d="m 124.80342,58.731544 q 0.26355,0.01033 0.51159,-0.04651 0.24805,-0.05684 0.43409,-0.170532 0.1912,-0.10852 0.30489,-0.273884 0.11368,-0.165364 0.11368,-0.377237 0,-0.21704 -0.0775,-0.351398 -0.0724,-0.134359 -0.16537,-0.248046 -0.093,-0.113688 -0.17053,-0.242879 -0.0723,-0.12919 -0.0723,-0.346231 0,-0.10852 0.0413,-0.227375 0.0413,-0.118856 0.12402,-0.217041 0.0879,-0.09819 0.21704,-0.160196 0.13436,-0.06201 0.31523,-0.06201 0.18086,0 0.34623,0.07751 0.17053,0.07235 0.29455,0.227375 0.12919,0.155029 0.20154,0.387572 0.0775,0.232544 0.0775,0.547769 0,0.428913 -0.16019,0.821652 -0.15503,0.397908 -0.47026,0.702798 -0.31005,0.30489 -0.78031,0.485757 -0.46509,0.180867 -1.0852,0.180867 z"
         id="path4506" />
      <path
         d="m 134.5444,57.67218 h -4.24262 v -0.837155 h 1.73632 v -4.929916 l -1.61747,0.878496 -0.33073,-0.764809 2.14974,-1.13171 h 0.79581 v 5.947939 h 1.50895 z"
         id="path4508" />
    </g>
    <g
       aria-label="2,4,2"
       id="text604-13"
       style="font-size:10.5833px;font-family:Consolas;-inkscape-font-specification:'Consolas, Normal';stroke:#000000;stroke-width:0.264583;paint-order:markers fill stroke">
      <path
         d="m 88.051261,67.67218 h -4.449327 v -0.80615 l 1.746658,-1.736322 q 0.428913,-0.423746 0.697629,-0.733803 0.268717,-0.310058 0.418578,-0.563272 0.149861,-0.258381 0.201538,-0.485756 0.05168,-0.227376 0.05168,-0.490925 0,-0.248046 -0.06718,-0.470254 -0.06718,-0.227376 -0.206705,-0.397907 -0.139526,-0.170532 -0.361734,-0.268717 -0.222208,-0.09819 -0.532266,-0.09819 -0.428913,0 -0.780311,0.191202 -0.351399,0.191203 -0.645954,0.496093 l -0.496092,-0.594277 q 0.382404,-0.403075 0.878497,-0.645954 0.501259,-0.242878 1.162716,-0.242878 0.449583,0 0.816485,0.134358 0.372069,0.134358 0.640785,0.387572 0.268717,0.253214 0.413411,0.620115 0.149861,0.366902 0.149861,0.82682 0,0.387573 -0.103353,0.718301 -0.103352,0.330728 -0.315225,0.661456 -0.206705,0.32556 -0.527098,0.676959 -0.315225,0.351399 -0.749306,0.769976 l -1.224727,1.193722 h 3.281443 z"
         id="path4511" />
      <path
         d="m 89.890935,68.731544 q 0.263549,0.01033 0.511596,-0.04651 0.248046,-0.05684 0.43408,-0.170532 0.191202,-0.10852 0.30489,-0.273884 0.113688,-0.165364 0.113688,-0.377237 0,-0.21704 -0.07751,-0.351398 -0.07235,-0.134359 -0.165365,-0.248046 -0.09302,-0.113688 -0.170531,-0.242879 -0.07235,-0.12919 -0.07235,-0.346231 0,-0.10852 0.04134,-0.227375 0.04134,-0.118856 0.124023,-0.217041 0.08785,-0.09819 0.21704,-0.160196 0.134359,-0.06201 0.315226,-0.06201 0.180867,0 0.346231,0.07751 0.170531,0.07235 0.294554,0.227375 0.129191,0.155029 0.201538,0.387572 0.07751,0.232544 0.07751,0.547769 0,0.428913 -0.160196,0.821652 -0.155029,0.397908 -0.470254,0.702798 -0.310058,0.30489 -0.780312,0.485757 -0.465086,0.180867 -1.085202,0.180867 z"
         id="path4513" />
      <path
         d="m 100.02465,66.178736 h -1.152379 v 1.493444 h -0.919838 v -1.493444 h -3.250437 v -0.790647 l 2.878368,-4.469997 h 1.291907 v 4.469997 h 1.152379 z m -2.072217,-4.392483 -2.35127,3.601836 h 2.35127 z"
         id="path4515" />
      <path
         d="m 101.52843,68.731544 q 0.26355,0.01033 0.51159,-0.04651 0.24805,-0.05684 0.43409,-0.170532 0.1912,-0.10852 0.30489,-0.273884 0.11368,-0.165364 0.11368,-0.377237 0,-0.21704 -0.0775,-0.351398 -0.0724,-0.134359 -0.16537,-0.248046 -0.093,-0.113688 -0.17053,-0.242879 -0.0723,-0.12919 -0.0723,-0.346231 0,-0.10852 0.0413,-0.227375 0.0413,-0.118856 0.12402,-0.217041 0.0879,-0.09819 0.21704,-0.160196 0.13436,-0.06201 0.31523,-0.06201 0.18086,0 0.34623,0.07751 0.17053,0.07235 0.29455,0.227375 0.12919,0.155029 0.20154,0.387572 0.0775,0.232544 0.0775,0.547769 0,0.428913 -0.16019,0.821652 -0.15503,0.397908 -0.47026,0.702798 -0.31005,0.30489 -0.78031,0.485757 -0.46509,0.180867 -1.0852,0.180867 z"
         id="path4517" />
      <path
         d="m 111.32625,67.67218 h -4.44933 v -0.80615 l 1.74666,-1.736322 q 0.42891,-0.423746 0.69763,-0.733803 0.26872,-0.310058 0.41858,-0.563272 0.14986,-0.258381 0.20154,-0.485756 0.0517,-0.227376 0.0517,-0.490925 0,-0.248046 -0.0672,-0.470254 -0.0672,-0.227376 -0.2067,-0.397907 -0.13953,-0.170532 -0.36174,-0.268717 -0.2222,-0.09819 -0.53226,-0.09819 -0.42891,0 -0.78031,0.191202 -0.3514,0.191203 -0.64596,0.496093 l -0.49609,-0.594277 q 0.38241,-0.403075 0.8785,-0.645954 0.50126,-0.242878 1.16271,-0.242878 0.44959,0 0.81649,0.134358 0.37207,0.134358 0.64079,0.387572 0.26871,0.253214 0.41341,0.620115 0.14986,0.366902 0.14986,0.82682 0,0.387573 -0.10336,0.718301 -0.10335,0.330728 -0.31522,0.661456 -0.20671,0.32556 -0.5271,0.676959 -0.31522,0.351399 -0.7493,0.769976 l -1.22473,1.193722 h 3.28144 z"
         id="path4519" />
    </g>
    <g
       aria-label="3,2,3"
       id="text604-19"
       style="font-size:10.5833px;font-family:Consolas;-inkscape-font-specification:'Consolas, Normal';stroke:#000000;stroke-width:0.264583;paint-order:markers fill stroke">
      <path
         d="m 87.92207,75.620632 q 0,0.444416 -0.180867,0.837156 -0.180867,0.387572 -0.542601,0.682127 -0.361734,0.289387 -0.909502,0.459918 -0.547769,0.165364 -1.276404,0.165364 -0.403075,0 -0.723468,-0.02584 -0.320393,-0.02584 -0.599444,-0.06718 v -0.80615 q 0.320392,0.05684 0.676959,0.08785 0.356566,0.03101 0.728635,0.03101 0.506427,0 0.862994,-0.08785 0.361734,-0.09302 0.589109,-0.263549 0.227376,-0.170531 0.330728,-0.41341 0.103353,-0.242878 0.103353,-0.547768 0,-0.279052 -0.124023,-0.485757 -0.124023,-0.206705 -0.351399,-0.346231 -0.222208,-0.139526 -0.537433,-0.206705 -0.310058,-0.07235 -0.682127,-0.07235 h -0.769976 v -0.738971 h 0.780312 q 0.304889,0 0.552936,-0.07751 0.253213,-0.08268 0.428913,-0.232543 0.180867,-0.149862 0.273884,-0.366902 0.09819,-0.222208 0.09819,-0.50126 0,-0.5426 -0.330728,-0.790647 -0.330729,-0.248046 -0.971514,-0.248046 -0.341064,0 -0.702797,0.06718 -0.361734,0.06718 -0.775144,0.201538 v -0.785479 q 0.175699,-0.06201 0.372069,-0.10852 0.201537,-0.05168 0.397907,-0.08268 0.201537,-0.03617 0.397907,-0.05168 0.19637,-0.02067 0.377237,-0.02067 0.537433,0 0.945676,0.118855 0.408242,0.113688 0.682126,0.330728 0.273885,0.217041 0.41341,0.527098 0.139526,0.310058 0.139526,0.69763 0,0.578774 -0.299722,0.971514 -0.294555,0.392739 -0.811317,0.625282 0.263549,0.04134 0.516762,0.165365 0.258382,0.124023 0.459919,0.320392 0.206705,0.191203 0.330728,0.454752 0.129191,0.263548 0.129191,0.583941 z"
         id="path4522" />
      <path
         d="m 89.890935,78.731544 q 0.263549,0.01033 0.511596,-0.04651 0.248046,-0.05684 0.43408,-0.170532 0.191202,-0.10852 0.30489,-0.273884 0.113688,-0.165364 0.113688,-0.377237 0,-0.21704 -0.07751,-0.351398 -0.07235,-0.134359 -0.165365,-0.248046 -0.09302,-0.113688 -0.170531,-0.242879 -0.07235,-0.12919 -0.07235,-0.346231 0,-0.10852 0.04134,-0.227375 0.04134,-0.118856 0.124023,-0.217041 0.08785,-0.09819 0.21704,-0.160196 0.134359,-0.06201 0.315226,-0.06201 0.180867,0 0.346231,0.07751 0.170531,0.07235 0.294554,0.227375 0.129191,0.155029 0.201538,0.387572 0.07751,0.232544 0.07751,0.547769 0,0.428913 -0.160196,0.821652 -0.155029,0.397908 -0.470254,0.702798 -0.310058,0.30489 -0.780312,0.485757 -0.465086,0.180867 -1.085202,0.180867 z"
         id="path4524" />
      <path
         d="m 99.688756,77.67218 h -4.449327 v -0.80615 l 1.746658,-1.736322 q 0.428913,-0.423746 0.697629,-0.733803 0.268717,-0.310058 0.418578,-0.563272 0.149861,-0.258381 0.201538,-0.485756 0.05168,-0.227376 0.05168,-0.490925 0,-0.248046 -0.06718,-0.470254 -0.06718,-0.227376 -0.206705,-0.397907 -0.139526,-0.170532 -0.361734,-0.268717 -0.222208,-0.09819 -0.532266,-0.09819 -0.428913,0 -0.780311,0.191202 -0.351399,0.191203 -0.645954,0.496093 l -0.496092,-0.594277 q 0.382404,-0.403075 0.878497,-0.645954 0.501259,-0.242878 1.162716,-0.242878 0.449583,0 0.816485,0.134358 0.372069,0.134358 0.640785,0.387572 0.268717,0.253214 0.413411,0.620115 0.149861,0.366902 0.149861,0.82682 0,0.387573 -0.103353,0.718301 -0.103352,0.330728 -0.315225,0.661456 -0.206705,0.32556 -0.527098,0.676959 -0.315225,0.351399 -0.749306,0.769976 l -1.224727,1.193722 h 3.281443 z"
         id="path4526" />
      <path
         d="m 101.52843,78.731544 q 0.26355,0.01033 0.51159,-0.04651 0.24805,-0.05684 0.43409,-0.170532 0.1912,-0.10852 0.30489,-0.273884 0.11368,-0.165364 0.11368,-0.377237 0,-0.21704 -0.0775,-0.351398 -0.0724,-0.134359 -0.16537,-0.248046 -0.093,-0.113688 -0.17053,-0.242879 -0.0723,-0.12919 -0.0723,-0.346231 0,-0.10852 0.0413,-0.227375 0.0413,-0.118856 0.12402,-0.217041 0.0879,-0.09819 0.21704,-0.160196 0.13436,-0.06201 0.31523,-0.06201 0.18086,0 0.34623,0.07751 0.17053,0.07235 0.29455,0.227375 0.12919,0.155029 0.20154,0.387572 0.0775,0.232544 0.0775,0.547769 0,0.428913 -0.16019,0.821652 -0.15503,0.397908 -0.47026,0.702798 -0.31005,0.30489 -0.78031,0.485757 -0.46509,0.180867 -1.0852,0.180867 z"
         id="path4528" />
      <path
         d="m 111.19706,75.620632 q 0,0.444416 -0.18087,0.837156 -0.18086,0.387572 -0.5426,0.682127 -0.36173,0.289387 -0.9095,0.459918 -0.54777,0.165364 -1.2764,0.165364 -0.40308,0 -0.72347,-0.02584 -0.32039,-0.02584 -0.59945,-0.06718 v -0.80615 q 0.3204,0.05684 0.67696,0.08785 0.35657,0.03101 0.72864,0.03101 0.50643,0 0.86299,-0.08785 0.36174,-0.09302 0.58911,-0.263549 0.22738,-0.170531 0.33073,-0.41341 0.10335,-0.242878 0.10335,-0.547768 0,-0.279052 -0.12402,-0.485757 -0.12402,-0.206705 -0.3514,-0.346231 -0.22221,-0.139526 -0.53743,-0.206705 -0.31006,-0.07235 -0.68213,-0.07235 h -0.76998 v -0.738971 h 0.78032 q 0.30489,0 0.55293,-0.07751 0.25322,-0.08268 0.42891,-0.232543 0.18087,-0.149862 0.27389,-0.366902 0.0982,-0.222208 0.0982,-0.50126 0,-0.5426 -0.33072,-0.790647 -0.33073,-0.248046 -0.97152,-0.248046 -0.34106,0 -0.7028,0.06718 -0.36173,0.06718 -0.77514,0.201538 v -0.785479 q 0.1757,-0.06201 0.37207,-0.10852 0.20154,-0.05168 0.39791,-0.08268 0.20153,-0.03617 0.3979,-0.05168 0.19637,-0.02067 0.37724,-0.02067 0.53743,0 0.94568,0.118855 0.40824,0.113688 0.68212,0.330728 0.27389,0.217041 0.41341,0.527098 0.13953,0.310058 0.13953,0.69763 0,0.578774 -0.29972,0.971514 -0.29456,0.392739 -0.81132,0.625282 0.26355,0.04134 0.51676,0.165365 0.25838,0.124023 0.45992,0.320392 0.20671,0.191203 0.33073,0.454752 0.12919,0.263548 0.12919,0.583941 z"
         id="path4530" />
    </g>
  </g>
</svg>
