<?xml version="1.0" encoding="UTF-8"?>
<svg width="80.265mm" height="80.265mm" version="1.1" viewBox="0 0 80.265 80.265" xmlns="http://www.w3.org/2000/svg">
 <g stroke="#000" stroke-width=".26458">
  <g fill="#fff">
   <rect x=".13229" y=".13229" width="10" height="10" style="paint-order:markers fill stroke"/>
   <rect x="10.132" y=".13229" width="10" height="10" style="paint-order:markers fill stroke"/>
   <rect x="20.132" y=".13229" width="10" height="10" style="paint-order:markers fill stroke"/>
   <rect x="30.132" y=".13229" width="10" height="10" style="paint-order:markers fill stroke"/>
  </g>
  <rect x="40.132" y=".13229" width="10" height="10" style="paint-order:markers fill stroke"/>
  <rect x="50.132" y=".13229" width="10" height="10" style="paint-order:markers fill stroke"/>
  <g fill="#fff">
   <rect x="60.132" y=".13229" width="10" height="10" style="paint-order:markers fill stroke"/>
   <rect x="70.132" y=".13229" width="10" height="10" style="paint-order:markers fill stroke"/>
   <rect x=".13229" y="10.132" width="10" height="10" style="paint-order:markers fill stroke"/>
   <rect x="10.132" y="10.132" width="10" height="10" style="paint-order:markers fill stroke"/>
   <rect x="20.132" y="10.132" width="10" height="10" style="paint-order:markers fill stroke"/>
  </g>
  <rect x="30.132" y="10.132" width="10" height="10" style="paint-order:markers fill stroke"/>
  <rect x="40.132" y="10.132" width="10" height="10" fill="#fff" style="paint-order:markers fill stroke"/>
  <rect x="50.132" y="10.132" width="10" height="10" fill="#fff" style="paint-order:markers fill stroke"/>
  <rect x="60.132" y="10.132" width="10" height="10" style="paint-order:markers fill stroke"/>
  <g fill="#fff">
   <rect x="70.132" y="10.132" width="10" height="10" style="paint-order:markers fill stroke"/>
   <rect x=".13229" y="20.132" width="10" height="10" style="paint-order:markers fill stroke"/>
   <rect x="10.132" y="20.132" width="10" height="10" style="paint-order:markers fill stroke"/>
   <rect x="20.132" y="20.132" width="10" height="10" style="paint-order:markers fill stroke"/>
  </g>
  <rect x="30.132" y="20.132" width="10" height="10" style="paint-order:markers fill stroke"/>
  <rect x="40.132" y="20.132" width="10" height="10" fill="#fff" style="paint-order:markers fill stroke"/>
  <rect x="50.132" y="20.132" width="10" height="10" fill="#fff" style="paint-order:markers fill stroke"/>
  <g>
   <rect x="60.132" y="20.132" width="10" height="10" style="paint-order:markers fill stroke"/>
   <rect x="70.132" y="20.132" width="10" height="10" style="paint-order:markers fill stroke"/>
   <rect x=".13229" y="30.132" width="10" height="10" style="paint-order:markers fill stroke"/>
  </g>
  <g fill="#fff">
   <rect x="10.132" y="30.132" width="10" height="10" style="paint-order:markers fill stroke"/>
   <rect x="20.132" y="30.132" width="10" height="10" style="paint-order:markers fill stroke"/>
   <rect x="30.132" y="30.132" width="10" height="10" style="paint-order:markers fill stroke"/>
  </g>
  <rect x="40.132" y="30.132" width="10" height="10" style="paint-order:markers fill stroke"/>
  <rect x="50.132" y="30.132" width="10" height="10" style="paint-order:markers fill stroke"/>
  <rect x="60.132" y="30.132" width="10" height="10" fill="#fff" style="paint-order:markers fill stroke"/>
  <rect x="70.132" y="30.132" width="10" height="10" fill="#fff" style="paint-order:markers fill stroke"/>
  <g>
   <rect x=".13229" y="40.132" width="10" height="10" style="paint-order:markers fill stroke"/>
   <rect x="10.132" y="40.132" width="10" height="10" style="paint-order:markers fill stroke"/>
   <rect x="20.132" y="40.132" width="10" height="10" style="paint-order:markers fill stroke"/>
   <rect x="30.132" y="40.132" width="10" height="10" style="paint-order:markers fill stroke"/>
  </g>
  <rect x="40.132" y="40.132" width="10" height="10" fill="#fff" style="paint-order:markers fill stroke"/>
  <rect x="50.132" y="40.132" width="10" height="10" fill="#fff" style="paint-order:markers fill stroke"/>
  <rect x="60.132" y="40.132" width="10" height="10" style="paint-order:markers fill stroke"/>
  <rect x="70.132" y="40.132" width="10" height="10" fill="#fff" style="paint-order:markers fill stroke"/>
  <rect x=".13229" y="50.132" width="10" height="10" fill="#fff" style="paint-order:markers fill stroke"/>
  <rect x="10.132" y="50.132" width="10" height="10" style="paint-order:markers fill stroke"/>
  <g fill="#fff">
   <rect x="20.132" y="50.132" width="10" height="10" style="paint-order:markers fill stroke"/>
   <rect x="30.132" y="50.132" width="10" height="10" style="paint-order:markers fill stroke"/>
   <rect x="40.132" y="50.132" width="10" height="10" style="paint-order:markers fill stroke"/>
   <rect x="50.132" y="50.132" width="10" height="10" style="paint-order:markers fill stroke"/>
  </g>
  <rect x="60.132" y="50.132" width="10" height="10" style="paint-order:markers fill stroke"/>
  <g fill="#fff">
   <rect x="70.132" y="50.132" width="10" height="10" style="paint-order:markers fill stroke"/>
   <rect x=".13229" y="60.132" width="10" height="10" style="paint-order:markers fill stroke"/>
   <rect x="10.132" y="60.132" width="10" height="10" style="paint-order:markers fill stroke"/>
  </g>
  <g>
   <rect x="20.132" y="60.132" width="10" height="10" style="paint-order:markers fill stroke"/>
   <rect x="30.132" y="60.132" width="10" height="10" style="paint-order:markers fill stroke"/>
   <rect x="40.132" y="60.132" width="10" height="10" style="paint-order:markers fill stroke"/>
   <rect x="50.132" y="60.132" width="10" height="10" style="paint-order:markers fill stroke"/>
  </g>
  <g fill="#fff">
   <rect x="60.132" y="60.132" width="10" height="10" style="paint-order:markers fill stroke"/>
   <rect x="70.132" y="60.132" width="10" height="10" style="paint-order:markers fill stroke"/>
   <rect x=".13229" y="70.132" width="10" height="10" style="paint-order:markers fill stroke"/>
   <rect x="10.132" y="70.132" width="10" height="10" style="paint-order:markers fill stroke"/>
   <rect x="20.132" y="70.132" width="10" height="10" style="paint-order:markers fill stroke"/>
  </g>
  <rect x="30.132" y="70.132" width="10" height="10" style="paint-order:markers fill stroke"/>
  <rect x="40.132" y="70.132" width="10" height="10" style="paint-order:markers fill stroke"/>
  <g fill="#fff">
   <rect x="50.132" y="70.132" width="10" height="10" style="paint-order:markers fill stroke"/>
   <rect x="60.132" y="70.132" width="10" height="10" style="paint-order:markers fill stroke"/>
   <rect x="70.132" y="70.132" width="10" height="10" style="paint-order:markers fill stroke"/>
  </g>
 </g>
</svg>
