<?xml version="1.0" encoding="UTF-8"?>
<svg width="143.2mm" height="80.264mm" version="1.1" viewBox="0 0 143.2 80.264" xmlns="http://www.w3.org/2000/svg">
 <g stroke="#000">
  <g transform="translate(9.3892)">
   <g stroke-width=".26458">
    <g fill="#fff">
     <rect x=".13229" y=".13229" width="10" height="10" style="paint-order:markers fill stroke"/>
     <rect x="10.132" y=".13229" width="10" height="10" style="paint-order:markers fill stroke"/>
     <rect x="20.132" y=".13229" width="10" height="10" style="paint-order:markers fill stroke"/>
     <rect x="30.132" y=".13229" width="10" height="10" style="paint-order:markers fill stroke"/>
    </g>
    <rect x="40.132" y=".13229" width="10" height="10" style="paint-order:markers fill stroke"/>
    <rect x="50.132" y=".13229" width="10" height="10" style="paint-order:markers fill stroke"/>
    <g fill="#fff">
     <rect x="60.132" y=".13229" width="10" height="10" style="paint-order:markers fill stroke"/>
     <rect x="70.132" y=".13229" width="10" height="10" style="paint-order:markers fill stroke"/>
     <rect x=".13229" y="10.132" width="10" height="10" style="paint-order:markers fill stroke"/>
     <rect x="10.132" y="10.132" width="10" height="10" style="paint-order:markers fill stroke"/>
     <rect x="20.132" y="10.132" width="10" height="10" style="paint-order:markers fill stroke"/>
    </g>
    <rect x="30.132" y="10.132" width="10" height="10" style="paint-order:markers fill stroke"/>
    <rect x="40.132" y="10.132" width="10" height="10" fill="#fff" style="paint-order:markers fill stroke"/>
    <rect x="50.132" y="10.132" width="10" height="10" fill="#fff" style="paint-order:markers fill stroke"/>
    <rect x="60.132" y="10.132" width="10" height="10" style="paint-order:markers fill stroke"/>
    <g fill="#fff">
     <rect x="70.132" y="10.132" width="10" height="10" style="paint-order:markers fill stroke"/>
     <rect x=".13229" y="20.132" width="10" height="10" style="paint-order:markers fill stroke"/>
     <rect x="10.132" y="20.132" width="10" height="10" style="paint-order:markers fill stroke"/>
     <rect x="20.132" y="20.132" width="10" height="10" style="paint-order:markers fill stroke"/>
    </g>
    <rect x="30.132" y="20.132" width="10" height="10" style="paint-order:markers fill stroke"/>
    <rect x="40.132" y="20.132" width="10" height="10" fill="#fff" style="paint-order:markers fill stroke"/>
    <rect x="50.132" y="20.132" width="10" height="10" fill="#fff" style="paint-order:markers fill stroke"/>
    <rect x="60.132" y="20.132" width="10" height="10" style="paint-order:markers fill stroke"/>
    <rect x="70.132" y="20.132" width="10" height="10" style="paint-order:markers fill stroke"/>
    <rect x=".13229" y="30.132" width="10" height="10" style="paint-order:markers fill stroke"/>
    <g fill="#fff">
     <rect x="10.132" y="30.132" width="10" height="10" style="paint-order:markers fill stroke"/>
     <rect x="20.132" y="30.132" width="10" height="10" style="paint-order:markers fill stroke"/>
     <rect x="30.132" y="30.132" width="10" height="10" style="paint-order:markers fill stroke"/>
    </g>
    <rect x="40.132" y="30.132" width="10" height="10" style="paint-order:markers fill stroke"/>
    <rect x="50.132" y="30.132" width="10" height="10" style="paint-order:markers fill stroke"/>
    <rect x="60.132" y="30.132" width="10" height="10" fill="#fff" style="paint-order:markers fill stroke"/>
    <rect x="70.132" y="30.132" width="10" height="10" fill="#fff" style="paint-order:markers fill stroke"/>
    <rect x=".13229" y="40.132" width="10" height="10" style="paint-order:markers fill stroke"/>
    <rect x="10.132" y="40.132" width="10" height="10" style="paint-order:markers fill stroke"/>
    <rect x="20.132" y="40.132" width="10" height="10" style="paint-order:markers fill stroke"/>
    <rect x="30.132" y="40.132" width="10" height="10" style="paint-order:markers fill stroke"/>
    <rect x="40.132" y="40.132" width="10" height="10" fill="#fff" style="paint-order:markers fill stroke"/>
    <rect x="50.132" y="40.132" width="10" height="10" fill="#fff" style="paint-order:markers fill stroke"/>
    <rect x="60.132" y="40.132" width="10" height="10" style="paint-order:markers fill stroke"/>
    <rect x="70.132" y="40.132" width="10" height="10" fill="#fff" style="paint-order:markers fill stroke"/>
    <rect x=".13229" y="50.132" width="10" height="10" fill="#fff" style="paint-order:markers fill stroke"/>
    <rect x="10.132" y="50.132" width="10" height="10" style="paint-order:markers fill stroke"/>
    <g fill="#fff">
     <rect x="20.132" y="50.132" width="10" height="10" style="paint-order:markers fill stroke"/>
     <rect x="30.132" y="50.132" width="10" height="10" style="paint-order:markers fill stroke"/>
     <rect x="40.132" y="50.132" width="10" height="10" style="paint-order:markers fill stroke"/>
     <rect x="50.132" y="50.132" width="10" height="10" style="paint-order:markers fill stroke"/>
    </g>
    <rect x="60.132" y="50.132" width="10" height="10" style="paint-order:markers fill stroke"/>
    <g fill="#fff">
     <rect x="70.132" y="50.132" width="10" height="10" style="paint-order:markers fill stroke"/>
     <rect x=".13229" y="60.132" width="10" height="10" style="paint-order:markers fill stroke"/>
     <rect x="10.132" y="60.132" width="10" height="10" style="paint-order:markers fill stroke"/>
    </g>
    <rect x="20.132" y="60.132" width="10" height="10" style="paint-order:markers fill stroke"/>
    <rect x="30.132" y="60.132" width="10" height="10" style="paint-order:markers fill stroke"/>
    <rect x="40.132" y="60.132" width="10" height="10" style="paint-order:markers fill stroke"/>
    <rect x="50.132" y="60.132" width="10" height="10" style="paint-order:markers fill stroke"/>
    <g fill="#fff">
     <rect x="60.132" y="60.132" width="10" height="10" style="paint-order:markers fill stroke"/>
     <rect x="70.132" y="60.132" width="10" height="10" style="paint-order:markers fill stroke"/>
     <rect x=".13229" y="70.132" width="10" height="10" style="paint-order:markers fill stroke"/>
     <rect x="10.132" y="70.132" width="10" height="10" style="paint-order:markers fill stroke"/>
     <rect x="20.132" y="70.132" width="10" height="10" style="paint-order:markers fill stroke"/>
    </g>
    <rect x="30.132" y="70.132" width="10" height="10" style="paint-order:markers fill stroke"/>
    <rect x="40.132" y="70.132" width="10" height="10" style="paint-order:markers fill stroke"/>
    <g fill="#fff">
     <rect x="50.132" y="70.132" width="10" height="10" style="paint-order:markers fill stroke"/>
     <rect x="60.132" y="70.132" width="10" height="10" style="paint-order:markers fill stroke"/>
     <rect x="70.132" y="70.132" width="10" height="10" style="paint-order:markers fill stroke"/>
    </g>
   </g>
   <g stroke-width=".070004">
    <g style="paint-order:markers fill stroke" aria-label="A">
     <path d="m-3.6253 8.5093h-1.0025l-0.47025-1.4728h-2.8112l-0.47542 1.4728h-0.95601l2.2428-6.7541h1.2609zm-1.7363-2.2944-1.142-3.6122-1.142 3.6122z"/>
    </g>
    <g style="paint-order:markers fill stroke" aria-label="B">
     <path d="m-4.2661 16.489q0 0.48576-0.1912 0.86299-0.18603 0.37207-0.53743 0.63045-0.34623 0.25838-0.84232 0.39274-0.49092 0.13436-1.0955 0.13436h-1.7673v-6.7541h1.9327q2.2583 0 2.2583 1.6433 0 0.54777-0.26355 0.94051-0.25838 0.39274-0.84749 0.58394 0.27388 0.05168 0.51676 0.1757 0.24805 0.12402 0.43408 0.32039t0.29455 0.46509 0.10852 0.60461zm-1.1989-2.9662q0-0.2067-0.062012-0.38757-0.062011-0.18604-0.21704-0.31523-0.15503-0.13436-0.41858-0.21187-0.26355-0.07752-0.66662-0.07752h-0.95084v2.1136h0.91984q0.31523 0 0.56844-0.06718 0.25838-0.06718 0.43925-0.2067 0.18603-0.13952 0.28422-0.34623 0.10335-0.21187 0.10335-0.50126zm0.22221 2.9972q0-0.25838-0.10852-0.46509t-0.31523-0.34623q-0.20671-0.14469-0.50643-0.22221-0.29455-0.07752-0.66662-0.07752h-0.94051v2.3254h0.97151q0.79065 0 1.1782-0.29455 0.38757-0.29456 0.38757-0.91984z"/>
    </g>
    <g style="paint-order:markers fill stroke" aria-label="C">
     <path d="m-4.1498 28.256q-0.81132 0.3359-1.7001 0.3359-1.4314 0-2.2014-0.85266-0.76481-0.85783-0.76481-2.5321 0-0.81132 0.21187-1.4676t0.60461-1.111q0.39274-0.45992 0.95084-0.70796t1.2506-0.24805q0.47025 0 0.87333 0.08268 0.40307 0.07751 0.77514 0.24288v0.90433q-0.3669-0.20154-0.75964-0.30489-0.39274-0.10852-0.85783-0.10852-0.47542 0-0.86299 0.18087-0.3824 0.1757-0.65112 0.51676-0.26872 0.3359-0.41341 0.82682-0.14469 0.48576-0.14469 1.111 0 1.3126 0.53227 1.9792 0.53227 0.66662 1.5606 0.66662 0.43408 0 0.83199-0.09819 0.39791-0.10335 0.76481-0.28422z"/>
    </g>
    <g style="paint-order:markers fill stroke" aria-label="D">
     <path d="m-4.0439 35.057q0 0.48576-0.077514 0.93017-0.072347 0.44442-0.23771 0.82682-0.16536 0.3824-0.42891 0.69763-0.26355 0.31006-0.64595 0.53226t-0.88883 0.34623q-0.50643 0.11886-1.1524 0.11886h-1.4469v-6.7541h1.7415q1.5813 0 2.3564 0.81648 0.78031 0.81132 0.78031 2.4856zm-0.96635 0.06718q0-0.7183-0.13436-1.2144t-0.40824-0.80098q-0.27388-0.30489-0.68729-0.43925-0.41341-0.13953-0.97151-0.13953h-0.79065v5.1831h0.68729q2.3048 0 2.3048-2.589z"/>
    </g>
    <g style="paint-order:markers fill stroke" aria-label="E">
     <path d="m-4.5632 48.509h-3.8395v-6.7541h3.8395v0.77514h-2.9197v2.0929h2.806v0.77514h-2.806v2.3254h2.9197z"/>
    </g>
    <g style="paint-order:markers fill stroke" aria-label="F">
     <path d="m-4.5787 52.541h-2.868v2.1911h2.7182v0.76998h-2.7182v3.0076h-0.94051v-6.7541h3.8085z"/>
    </g>
    <g style="paint-order:markers fill stroke" aria-label="G">
     <path d="m-4.0697 62.913q-0.37724-0.20154-0.77514-0.31006-0.39791-0.11369-0.86816-0.11369-0.53743 0-0.95601 0.1912t-0.70796 0.5426q-0.28422 0.34623-0.43925 0.83716-0.14986 0.49092-0.14986 1.0852 0 0.62012 0.12402 1.111 0.12402 0.49092 0.38757 0.83199 0.26355 0.34106 0.67179 0.52193 0.41341 0.18087 0.98702 0.18087 0.098185 0 0.21187-0.01034 0.11369-0.01033 0.22738-0.02584 0.11369-0.02067 0.21704-0.04651 0.10852-0.02584 0.1912-0.05684v-2.1497h-1.3798v-0.75964h2.2893v3.452q-0.21187 0.09818-0.44958 0.1757-0.23254 0.07751-0.48059 0.12919-0.24288 0.05168-0.48576 0.07752t-0.47025 0.02584q-0.69246 0-1.2506-0.21704-0.55294-0.21704-0.94568-0.64079-0.38757-0.42891-0.59944-1.0645-0.2067-0.63562-0.2067-1.4728 0-0.83199 0.23254-1.4883 0.23254-0.66146 0.65112-1.1162 0.42375-0.45992 1.0129-0.69763 0.59428-0.24288 1.3074-0.24288 0.45475 0 0.86299 0.08268 0.41341 0.07752 0.79065 0.25321z"/>
    </g>
    <g style="paint-order:markers fill stroke" aria-label="H">
     <path d="m-4.1446 78.509h-0.91984v-3.1006h-2.837v3.1006h-0.91984v-6.7541h0.91984v2.8577h2.837v-2.8577h0.91984z"/>
    </g>
   </g>
  </g>
  <g transform="translate(8.7019 .69248)" stroke-width=".26458" style="paint-order:markers fill stroke" aria-label="4,2,2">
   <path d="m88.387 6.7033h-1.1524v1.4934h-0.91984v-1.4934h-3.2504v-0.79065l2.8784-4.47h1.2919v4.47h1.1524zm-2.0722-4.3925-2.3513 3.6018h2.3513z"/>
   <path d="m89.891 9.2561q0.26355 0.010335 0.5116-0.046509t0.43408-0.17053q0.1912-0.10852 0.30489-0.27388t0.11369-0.37724q0-0.21704-0.07751-0.3514-0.07235-0.13436-0.16536-0.24805-0.09302-0.11369-0.17053-0.24288-0.07235-0.12919-0.07235-0.34623 0-0.10852 0.04134-0.22738t0.12402-0.21704q0.08785-0.098185 0.21704-0.1602 0.13436-0.062011 0.31523-0.062011t0.34623 0.077514q0.17053 0.072347 0.29455 0.22738 0.12919 0.15503 0.20154 0.38757 0.07751 0.23254 0.07751 0.54777 0 0.42891-0.1602 0.82165-0.15503 0.39791-0.47025 0.7028-0.31006 0.30489-0.78031 0.48576-0.46509 0.18087-1.0852 0.18087z"/>
   <path d="m99.689 8.1967h-4.4493v-0.80615l1.7467-1.7363q0.42891-0.42375 0.69763-0.7338 0.26872-0.31006 0.41858-0.56327 0.14986-0.25838 0.20154-0.48576t0.05168-0.49092q0-0.24805-0.06718-0.47025-0.067182-0.22738-0.20671-0.39791t-0.36173-0.26872q-0.22221-0.098185-0.53227-0.098185-0.42891 0-0.78031 0.1912t-0.64595 0.49609l-0.49609-0.59428q0.3824-0.40307 0.8785-0.64595 0.50126-0.24288 1.1627-0.24288 0.44958 0 0.81648 0.13436 0.37207 0.13436 0.64078 0.38757 0.26872 0.25321 0.41341 0.62012 0.14986 0.3669 0.14986 0.82682 0 0.38757-0.10335 0.7183t-0.31522 0.66146q-0.2067 0.32556-0.5271 0.67696-0.31522 0.3514-0.74931 0.76998l-1.2247 1.1937h3.2814z"/>
   <path d="m101.53 9.2561q0.26355 0.010335 0.51159-0.046509 0.24805-0.056844 0.43409-0.17053 0.1912-0.10852 0.30489-0.27388 0.11368-0.16536 0.11368-0.37724 0-0.21704-0.0775-0.3514-0.0724-0.13436-0.16537-0.24805-0.093-0.11369-0.17053-0.24288-0.0723-0.12919-0.0723-0.34623 0-0.10852 0.0413-0.22738t0.12402-0.21704q0.0879-0.098185 0.21704-0.1602 0.13436-0.062011 0.31523-0.062011 0.18086 0 0.34623 0.077514 0.17053 0.072347 0.29455 0.22738 0.12919 0.15503 0.20154 0.38757 0.0775 0.23254 0.0775 0.54777 0 0.42891-0.16019 0.82165-0.15503 0.39791-0.47026 0.7028-0.31005 0.30489-0.78031 0.48576-0.46509 0.18087-1.0852 0.18087z"/>
   <path d="m111.33 8.1967h-4.4493v-0.80615l1.7467-1.7363q0.42891-0.42375 0.69763-0.7338t0.41858-0.56327q0.14986-0.25838 0.20154-0.48576 0.0517-0.22738 0.0517-0.49092 0-0.24805-0.0672-0.47025-0.0672-0.22738-0.2067-0.39791-0.13953-0.17053-0.36174-0.26872-0.2222-0.098185-0.53226-0.098185-0.42891 0-0.78031 0.1912t-0.64596 0.49609l-0.49609-0.59428q0.38241-0.40307 0.8785-0.64595 0.50126-0.24288 1.1627-0.24288 0.44959 0 0.81649 0.13436 0.37207 0.13436 0.64079 0.38757 0.26871 0.25321 0.41341 0.62012 0.14986 0.3669 0.14986 0.82682 0 0.38757-0.10336 0.7183-0.10335 0.33073-0.31522 0.66146-0.20671 0.32556-0.5271 0.67696-0.31522 0.3514-0.7493 0.76998l-1.2247 1.1937h3.2814z"/>
  </g>
  <g transform="translate(8.0765 .69248)" stroke-width=".26458" style="paint-order:markers fill stroke" aria-label="3,1,2,1,1">
   <path d="m87.922 15.621q0 0.44442-0.18087 0.83716-0.18087 0.38757-0.5426 0.68213-0.36173 0.28939-0.9095 0.45992-0.54777 0.16536-1.2764 0.16536-0.40308 0-0.72347-0.02584t-0.59944-0.06718v-0.80615q0.32039 0.05684 0.67696 0.08785t0.72864 0.03101q0.50643 0 0.86299-0.08785 0.36173-0.09302 0.58911-0.26355t0.33073-0.41341 0.10335-0.54777q0-0.27905-0.12402-0.48576t-0.3514-0.34623q-0.22221-0.13953-0.53743-0.2067-0.31006-0.07235-0.68213-0.07235h-0.76998v-0.73897h0.78031q0.30489 0 0.55294-0.07751 0.25321-0.08268 0.42891-0.23254 0.18087-0.14986 0.27388-0.3669 0.09819-0.22221 0.09819-0.50126 0-0.5426-0.33073-0.79065t-0.97151-0.24805q-0.34106 0-0.7028 0.06718-0.36173 0.06718-0.77514 0.20154v-0.78548q0.1757-0.06201 0.37207-0.10852 0.20154-0.05168 0.39791-0.08268 0.20154-0.03617 0.39791-0.05168 0.19637-0.02067 0.37724-0.02067 0.53743 0 0.94568 0.11886 0.40824 0.11369 0.68213 0.33073 0.27388 0.21704 0.41341 0.5271t0.13953 0.69763q0 0.57877-0.29972 0.97151-0.29456 0.39274-0.81132 0.62528 0.26355 0.04134 0.51676 0.16536 0.25838 0.12402 0.45992 0.32039 0.2067 0.1912 0.33073 0.45475 0.12919 0.26355 0.12919 0.58394z"/>
   <path d="m89.891 18.732q0.26355 0.01034 0.5116-0.04651 0.24805-0.05684 0.43408-0.17053 0.1912-0.10852 0.30489-0.27388t0.11369-0.37724q0-0.21704-0.07751-0.3514-0.07235-0.13436-0.16536-0.24805-0.09302-0.11369-0.17053-0.24288-0.07235-0.12919-0.07235-0.34623 0-0.10852 0.04134-0.22738t0.12402-0.21704q0.08785-0.09819 0.21704-0.1602 0.13436-0.06201 0.31523-0.06201t0.34623 0.07752q0.17053 0.07235 0.29455 0.22738 0.12919 0.15503 0.20154 0.38757 0.07751 0.23254 0.07751 0.54777 0 0.42891-0.1602 0.82165-0.15503 0.39791-0.47025 0.7028-0.31006 0.30489-0.78031 0.48576-0.46509 0.18087-1.0852 0.18087z"/>
   <path d="m99.632 17.672h-4.2426v-0.83716h1.7363v-4.9299l-1.6175 0.8785-0.33073-0.76481 2.1497-1.1317h0.79582v5.9479h1.5089z"/>
   <path d="m101.53 18.732q0.26355 0.01034 0.51159-0.04651 0.24805-0.05684 0.43409-0.17053 0.1912-0.10852 0.30489-0.27388 0.11368-0.16536 0.11368-0.37724 0-0.21704-0.0775-0.3514-0.0724-0.13436-0.16537-0.24805-0.093-0.11369-0.17053-0.24288-0.0723-0.12919-0.0723-0.34623 0-0.10852 0.0413-0.22738t0.12402-0.21704q0.0879-0.09819 0.21704-0.1602 0.13436-0.06201 0.31523-0.06201 0.18086 0 0.34623 0.07752 0.17053 0.07235 0.29455 0.22738 0.12919 0.15503 0.20154 0.38757 0.0775 0.23254 0.0775 0.54777 0 0.42891-0.16019 0.82165-0.15503 0.39791-0.47026 0.7028-0.31005 0.30489-0.78031 0.48576-0.46509 0.18087-1.0852 0.18087z"/>
   <path d="m111.33 17.672h-4.4493v-0.80615l1.7467-1.7363q0.42891-0.42375 0.69763-0.7338 0.26872-0.31006 0.41858-0.56327 0.14986-0.25838 0.20154-0.48576 0.0517-0.22738 0.0517-0.49092 0-0.24805-0.0672-0.47025-0.0672-0.22738-0.2067-0.39791-0.13953-0.17053-0.36174-0.26872-0.2222-0.09819-0.53226-0.09819-0.42891 0-0.78031 0.1912t-0.64596 0.49609l-0.49609-0.59428q0.38241-0.40308 0.8785-0.64595 0.50126-0.24288 1.1627-0.24288 0.44959 0 0.81649 0.13436 0.37207 0.13436 0.64079 0.38757 0.26871 0.25321 0.41341 0.62012 0.14986 0.3669 0.14986 0.82682 0 0.38757-0.10336 0.7183-0.10335 0.33073-0.31522 0.66146-0.20671 0.32556-0.5271 0.67696-0.31522 0.3514-0.7493 0.76998l-1.2247 1.1937h3.2814z"/>
   <path d="m113.17 18.732q0.26355 0.01034 0.51159-0.04651 0.24805-0.05684 0.43408-0.17053 0.1912-0.10852 0.30489-0.27388t0.11369-0.37724q0-0.21704-0.0775-0.3514-0.0724-0.13436-0.16537-0.24805-0.093-0.11369-0.17053-0.24288-0.0724-0.12919-0.0724-0.34623 0-0.10852 0.0413-0.22738 0.0414-0.11886 0.12403-0.21704 0.0879-0.09819 0.21704-0.1602 0.13436-0.06201 0.31522-0.06201 0.18087 0 0.34623 0.07752 0.17054 0.07235 0.29456 0.22738 0.12919 0.15503 0.20154 0.38757 0.0775 0.23254 0.0775 0.54777 0 0.42891-0.1602 0.82165-0.15502 0.39791-0.47025 0.7028-0.31006 0.30489-0.78031 0.48576-0.46509 0.18087-1.0852 0.18087z"/>
   <path d="m122.91 17.672h-4.2426v-0.83716h1.7363v-4.9299l-1.6175 0.8785-0.33072-0.76481 2.1497-1.1317h0.79581v5.9479h1.509z"/>
   <path d="m124.8 18.732q0.26355 0.01034 0.51159-0.04651 0.24805-0.05684 0.43409-0.17053 0.1912-0.10852 0.30489-0.27388 0.11368-0.16536 0.11368-0.37724 0-0.21704-0.0775-0.3514-0.0724-0.13436-0.16537-0.24805-0.093-0.11369-0.17053-0.24288-0.0723-0.12919-0.0723-0.34623 0-0.10852 0.0413-0.22738t0.12402-0.21704q0.0879-0.09819 0.21704-0.1602 0.13436-0.06201 0.31523-0.06201 0.18086 0 0.34623 0.07752 0.17053 0.07235 0.29455 0.22738 0.12919 0.15503 0.20154 0.38757 0.0775 0.23254 0.0775 0.54777 0 0.42891-0.16019 0.82165-0.15503 0.39791-0.47026 0.7028-0.31005 0.30489-0.78031 0.48576-0.46509 0.18087-1.0852 0.18087z"/>
   <path d="m134.54 17.672h-4.2426v-0.83716h1.7363v-4.9299l-1.6175 0.8785-0.33073-0.76481 2.1497-1.1317h0.79581v5.9479h1.509z"/>
  </g>
  <g stroke-width=".26458">
   <g transform="translate(8.0765 .26173)" style="paint-order:markers fill stroke" aria-label="3,1,2,2">
    <path d="m87.922 25.621q0 0.44442-0.18087 0.83716-0.18087 0.38757-0.5426 0.68213-0.36173 0.28939-0.9095 0.45992-0.54777 0.16536-1.2764 0.16536-0.40308 0-0.72347-0.02584t-0.59944-0.06718v-0.80615q0.32039 0.05684 0.67696 0.08785 0.35657 0.03101 0.72864 0.03101 0.50643 0 0.86299-0.08785 0.36173-0.09302 0.58911-0.26355 0.22738-0.17053 0.33073-0.41341 0.10335-0.24288 0.10335-0.54777 0-0.27905-0.12402-0.48576t-0.3514-0.34623q-0.22221-0.13953-0.53743-0.2067-0.31006-0.07235-0.68213-0.07235h-0.76998v-0.73897h0.78031q0.30489 0 0.55294-0.07751 0.25321-0.08268 0.42891-0.23254 0.18087-0.14986 0.27388-0.3669 0.09819-0.22221 0.09819-0.50126 0-0.5426-0.33073-0.79065-0.33073-0.24805-0.97151-0.24805-0.34106 0-0.7028 0.06718-0.36173 0.06718-0.77514 0.20154v-0.78548q0.1757-0.06201 0.37207-0.10852 0.20154-0.05168 0.39791-0.08268 0.20154-0.03617 0.39791-0.05168 0.19637-0.02067 0.37724-0.02067 0.53743 0 0.94568 0.11886 0.40824 0.11369 0.68213 0.33073 0.27388 0.21704 0.41341 0.5271 0.13953 0.31006 0.13953 0.69763 0 0.57877-0.29972 0.97151-0.29456 0.39274-0.81132 0.62528 0.26355 0.04134 0.51676 0.16536 0.25838 0.12402 0.45992 0.32039 0.2067 0.1912 0.33073 0.45475 0.12919 0.26355 0.12919 0.58394z"/>
    <path d="m89.891 28.732q0.26355 0.01034 0.5116-0.04651 0.24805-0.05684 0.43408-0.17053 0.1912-0.10852 0.30489-0.27388t0.11369-0.37724q0-0.21704-0.07751-0.3514-0.07235-0.13436-0.16536-0.24805-0.09302-0.11369-0.17053-0.24288-0.07235-0.12919-0.07235-0.34623 0-0.10852 0.04134-0.22738 0.04134-0.11886 0.12402-0.21704 0.08785-0.09819 0.21704-0.1602 0.13436-0.06201 0.31523-0.06201t0.34623 0.07752q0.17053 0.07235 0.29455 0.22738 0.12919 0.15503 0.20154 0.38757 0.07751 0.23254 0.07751 0.54777 0 0.42891-0.1602 0.82165-0.15503 0.39791-0.47025 0.7028-0.31006 0.30489-0.78031 0.48576-0.46509 0.18087-1.0852 0.18087z"/>
    <path d="m99.632 27.672h-4.2426v-0.83716h1.7363v-4.9299l-1.6175 0.8785-0.33073-0.76481 2.1497-1.1317h0.79582v5.9479h1.5089z"/>
    <path d="m101.53 28.732q0.26355 0.01034 0.51159-0.04651 0.24805-0.05684 0.43409-0.17053 0.1912-0.10852 0.30489-0.27388 0.11368-0.16536 0.11368-0.37724 0-0.21704-0.0775-0.3514-0.0724-0.13436-0.16537-0.24805-0.093-0.11369-0.17053-0.24288-0.0723-0.12919-0.0723-0.34623 0-0.10852 0.0413-0.22738 0.0413-0.11886 0.12402-0.21704 0.0879-0.09819 0.21704-0.1602 0.13436-0.06201 0.31523-0.06201 0.18086 0 0.34623 0.07752 0.17053 0.07235 0.29455 0.22738 0.12919 0.15503 0.20154 0.38757 0.0775 0.23254 0.0775 0.54777 0 0.42891-0.16019 0.82165-0.15503 0.39791-0.47026 0.7028-0.31005 0.30489-0.78031 0.48576-0.46509 0.18087-1.0852 0.18087z"/>
    <path d="m111.33 27.672h-4.4493v-0.80615l1.7467-1.7363q0.42891-0.42375 0.69763-0.7338 0.26872-0.31006 0.41858-0.56327 0.14986-0.25838 0.20154-0.48576 0.0517-0.22738 0.0517-0.49092 0-0.24805-0.0672-0.47025-0.0672-0.22738-0.2067-0.39791-0.13953-0.17053-0.36174-0.26872-0.2222-0.09819-0.53226-0.09819-0.42891 0-0.78031 0.1912-0.3514 0.1912-0.64596 0.49609l-0.49609-0.59428q0.38241-0.40308 0.8785-0.64595 0.50126-0.24288 1.1627-0.24288 0.44959 0 0.81649 0.13436 0.37207 0.13436 0.64079 0.38757 0.26871 0.25321 0.41341 0.62012 0.14986 0.3669 0.14986 0.82682 0 0.38757-0.10336 0.7183-0.10335 0.33073-0.31522 0.66146-0.20671 0.32556-0.5271 0.67696-0.31522 0.3514-0.7493 0.76998l-1.2247 1.1937h3.2814z"/>
    <path d="m113.17 28.732q0.26355 0.01034 0.51159-0.04651 0.24805-0.05684 0.43408-0.17053 0.1912-0.10852 0.30489-0.27388t0.11369-0.37724q0-0.21704-0.0775-0.3514-0.0724-0.13436-0.16537-0.24805-0.093-0.11369-0.17053-0.24288-0.0724-0.12919-0.0724-0.34623 0-0.10852 0.0413-0.22738 0.0414-0.11886 0.12403-0.21704 0.0879-0.09819 0.21704-0.1602 0.13436-0.06201 0.31522-0.06201 0.18087 0 0.34623 0.07752 0.17054 0.07235 0.29456 0.22738 0.12919 0.15503 0.20154 0.38757 0.0775 0.23254 0.0775 0.54777 0 0.42891-0.1602 0.82165-0.15502 0.39791-0.47025 0.7028-0.31006 0.30489-0.78031 0.48576-0.46509 0.18087-1.0852 0.18087z"/>
    <path d="m122.96 27.672h-4.4493v-0.80615l1.7466-1.7363q0.42892-0.42375 0.69763-0.7338 0.26872-0.31006 0.41858-0.56327 0.14986-0.25838 0.20154-0.48576 0.0517-0.22738 0.0517-0.49092 0-0.24805-0.0672-0.47025-0.0672-0.22738-0.20671-0.39791-0.13952-0.17053-0.36173-0.26872-0.22221-0.09819-0.53227-0.09819-0.42891 0-0.78031 0.1912-0.3514 0.1912-0.64595 0.49609l-0.49609-0.59428q0.3824-0.40308 0.87849-0.64595 0.50126-0.24288 1.1627-0.24288 0.44958 0 0.81648 0.13436 0.37207 0.13436 0.64079 0.38757t0.41341 0.62012q0.14986 0.3669 0.14986 0.82682 0 0.38757-0.10335 0.7183-0.10336 0.33073-0.31523 0.66146-0.2067 0.32556-0.5271 0.67696-0.31522 0.3514-0.7493 0.76998l-1.2247 1.1937h3.2814z"/>
   </g>
   <g transform="translate(8.4692 .26173)" style="paint-order:markers fill stroke" aria-label="0,1,3,2,2">
    <path d="m88.206 34.298q0 0.77514-0.15503 1.4159-0.15503 0.63562-0.47025 1.0955-0.31523 0.45475-0.78548 0.70796-0.46509 0.24805-1.0955 0.24805-0.5426 0-0.98702-0.20154-0.44442-0.2067-0.75964-0.63045-0.31523-0.42375-0.48576-1.08-0.17053-0.65629-0.17053-1.5555 0-0.77514 0.15503-1.4159 0.1602-0.64079 0.47025-1.0955 0.31522-0.45992 0.78548-0.70796 0.47025-0.25321 1.0955-0.25321 0.5426 0 0.98702 0.2067 0.44442 0.20154 0.75964 0.63045 0.31522 0.42375 0.48576 1.08 0.17053 0.65629 0.17053 1.5555zm-0.9095 0.03101q0-0.1757-0.0155-0.34623-0.01033-0.1757-0.02584-0.34106l-2.8577 2.1239q0.07751 0.26872 0.19637 0.49609 0.11886 0.22738 0.28422 0.39274 0.17053 0.1602 0.3824 0.25321 0.21704 0.08785 0.49092 0.08785 0.3514 0 0.63562-0.17053 0.28939-0.17053 0.49092-0.50643 0.20154-0.3359 0.31006-0.83199 0.10852-0.50126 0.10852-1.1575zm-3.0902-0.06201q0 0.1602 0 0.32039 0.0052 0.1602 0.02067 0.31006l2.8577-2.1136q-0.07751-0.26355-0.19637-0.48059-0.11886-0.21704-0.28422-0.37207-0.16536-0.1602-0.37724-0.24805-0.21187-0.08785-0.47542-0.08785-0.3514 0-0.64079 0.17053-0.28422 0.17053-0.48576 0.5116-0.20154 0.3359-0.31006 0.83716-0.10852 0.49609-0.10852 1.1524z"/>
    <path d="m89.891 38.732q0.26355 0.01033 0.5116-0.04651 0.24805-0.05684 0.43408-0.17053 0.1912-0.10852 0.30489-0.27388t0.11369-0.37724q0-0.21704-0.07751-0.3514-0.07235-0.13436-0.16536-0.24805-0.09302-0.11369-0.17053-0.24288-0.07235-0.12919-0.07235-0.34623 0-0.10852 0.04134-0.22738 0.04134-0.11886 0.12402-0.21704 0.08785-0.09819 0.21704-0.1602 0.13436-0.06201 0.31523-0.06201t0.34623 0.07751q0.17053 0.07235 0.29455 0.22738 0.12919 0.15503 0.20154 0.38757 0.07751 0.23254 0.07751 0.54777 0 0.42891-0.1602 0.82165-0.15503 0.39791-0.47025 0.7028-0.31006 0.30489-0.78031 0.48576-0.46509 0.18087-1.0852 0.18087z"/>
    <path d="m99.632 37.672h-4.2426v-0.83716h1.7363v-4.9299l-1.6175 0.8785-0.33073-0.76481 2.1497-1.1317h0.79582v5.9479h1.5089z"/>
    <path d="m101.53 38.732q0.26355 0.01033 0.51159-0.04651 0.24805-0.05684 0.43409-0.17053 0.1912-0.10852 0.30489-0.27388 0.11368-0.16536 0.11368-0.37724 0-0.21704-0.0775-0.3514-0.0724-0.13436-0.16537-0.24805-0.093-0.11369-0.17053-0.24288-0.0723-0.12919-0.0723-0.34623 0-0.10852 0.0413-0.22738 0.0413-0.11886 0.12402-0.21704 0.0879-0.09819 0.21704-0.1602 0.13436-0.06201 0.31523-0.06201 0.18086 0 0.34623 0.07751 0.17053 0.07235 0.29455 0.22738 0.12919 0.15503 0.20154 0.38757 0.0775 0.23254 0.0775 0.54777 0 0.42891-0.16019 0.82165-0.15503 0.39791-0.47026 0.7028-0.31005 0.30489-0.78031 0.48576-0.46509 0.18087-1.0852 0.18087z"/>
    <path d="m111.2 35.621q0 0.44442-0.18087 0.83716-0.18086 0.38757-0.5426 0.68213-0.36173 0.28939-0.9095 0.45992-0.54777 0.16536-1.2764 0.16536-0.40308 0-0.72347-0.02584t-0.59945-0.06718v-0.80615q0.3204 0.05684 0.67696 0.08785 0.35657 0.03101 0.72864 0.03101 0.50643 0 0.86299-0.08785 0.36174-0.09302 0.58911-0.26355 0.22738-0.17053 0.33073-0.41341 0.10335-0.24288 0.10335-0.54777 0-0.27905-0.12402-0.48576t-0.3514-0.34623q-0.22221-0.13953-0.53743-0.2067-0.31006-0.07235-0.68213-0.07235h-0.76998v-0.73897h0.78032q0.30489 0 0.55293-0.07751 0.25322-0.08268 0.42891-0.23254 0.18087-0.14986 0.27389-0.3669 0.0982-0.22221 0.0982-0.50126 0-0.5426-0.33072-0.79065-0.33073-0.24805-0.97152-0.24805-0.34106 0-0.7028 0.06718-0.36173 0.06718-0.77514 0.20154v-0.78548q0.1757-0.06201 0.37207-0.10852 0.20154-0.05168 0.39791-0.08268 0.20153-0.03617 0.3979-0.05168 0.19637-0.02067 0.37724-0.02067 0.53743 0 0.94568 0.11886 0.40824 0.11369 0.68212 0.33073 0.27389 0.21704 0.41341 0.5271 0.13953 0.31006 0.13953 0.69763 0 0.57877-0.29972 0.97151-0.29456 0.39274-0.81132 0.62528 0.26355 0.04134 0.51676 0.16536 0.25838 0.12402 0.45992 0.32039 0.20671 0.1912 0.33073 0.45475 0.12919 0.26355 0.12919 0.58394z"/>
    <path d="m113.17 38.732q0.26355 0.01033 0.51159-0.04651 0.24805-0.05684 0.43408-0.17053 0.1912-0.10852 0.30489-0.27388t0.11369-0.37724q0-0.21704-0.0775-0.3514-0.0724-0.13436-0.16537-0.24805-0.093-0.11369-0.17053-0.24288-0.0724-0.12919-0.0724-0.34623 0-0.10852 0.0413-0.22738 0.0414-0.11886 0.12403-0.21704 0.0879-0.09819 0.21704-0.1602 0.13436-0.06201 0.31522-0.06201 0.18087 0 0.34623 0.07751 0.17054 0.07235 0.29456 0.22738 0.12919 0.15503 0.20154 0.38757 0.0775 0.23254 0.0775 0.54777 0 0.42891-0.1602 0.82165-0.15502 0.39791-0.47025 0.7028-0.31006 0.30489-0.78031 0.48576-0.46509 0.18087-1.0852 0.18087z"/>
    <path d="m122.96 37.672h-4.4493v-0.80615l1.7466-1.7363q0.42892-0.42375 0.69763-0.7338 0.26872-0.31006 0.41858-0.56327 0.14986-0.25838 0.20154-0.48576 0.0517-0.22738 0.0517-0.49092 0-0.24805-0.0672-0.47025-0.0672-0.22738-0.20671-0.39791-0.13952-0.17053-0.36173-0.26872-0.22221-0.09819-0.53227-0.09819-0.42891 0-0.78031 0.1912-0.3514 0.1912-0.64595 0.49609l-0.49609-0.59428q0.3824-0.40308 0.87849-0.64595 0.50126-0.24288 1.1627-0.24288 0.44958 0 0.81648 0.13436 0.37207 0.13436 0.64079 0.38757t0.41341 0.62012q0.14986 0.3669 0.14986 0.82682 0 0.38757-0.10335 0.7183-0.10336 0.33073-0.31523 0.66146-0.2067 0.32556-0.5271 0.67696-0.31522 0.3514-0.7493 0.76998l-1.2247 1.1937h3.2814z"/>
    <path d="m124.8 38.732q0.26355 0.01033 0.51159-0.04651 0.24805-0.05684 0.43409-0.17053 0.1912-0.10852 0.30489-0.27388 0.11368-0.16536 0.11368-0.37724 0-0.21704-0.0775-0.3514-0.0724-0.13436-0.16537-0.24805-0.093-0.11369-0.17053-0.24288-0.0723-0.12919-0.0723-0.34623 0-0.10852 0.0413-0.22738 0.0413-0.11886 0.12402-0.21704 0.0879-0.09819 0.21704-0.1602 0.13436-0.06201 0.31523-0.06201 0.18086 0 0.34623 0.07751 0.17053 0.07235 0.29455 0.22738 0.12919 0.15503 0.20154 0.38757 0.0775 0.23254 0.0775 0.54777 0 0.42891-0.16019 0.82165-0.15503 0.39791-0.47026 0.7028-0.31005 0.30489-0.78031 0.48576-0.46509 0.18087-1.0852 0.18087z"/>
    <path d="m134.6 37.672h-4.4493v-0.80615l1.7467-1.7363q0.42891-0.42375 0.69763-0.7338 0.26872-0.31006 0.41858-0.56327 0.14986-0.25838 0.20154-0.48576 0.0517-0.22738 0.0517-0.49092 0-0.24805-0.0672-0.47025-0.0672-0.22738-0.2067-0.39791-0.13953-0.17053-0.36174-0.26872-0.2222-0.09819-0.53226-0.09819-0.42891 0-0.78031 0.1912-0.3514 0.1912-0.64596 0.49609l-0.49609-0.59428q0.38241-0.40308 0.8785-0.64595 0.50126-0.24288 1.1627-0.24288 0.44959 0 0.81649 0.13436 0.37207 0.13436 0.64079 0.38757 0.26871 0.25321 0.41341 0.62012 0.14986 0.3669 0.14986 0.82682 0 0.38757-0.10336 0.7183-0.10335 0.33073-0.31522 0.66146-0.20671 0.32556-0.5271 0.67696-0.31522 0.3514-0.7493 0.76998l-1.2247 1.1937h3.2814z"/>
   </g>
   <g transform="translate(8.4692 .26173)" style="paint-order:markers fill stroke" aria-label="0,4,2,1,1">
    <path d="m88.206 44.298q0 0.77514-0.15503 1.4159-0.15503 0.63562-0.47025 1.0955-0.31523 0.45475-0.78548 0.70796-0.46509 0.24805-1.0955 0.24805-0.5426 0-0.98702-0.20154-0.44442-0.2067-0.75964-0.63045-0.31523-0.42375-0.48576-1.08-0.17053-0.65629-0.17053-1.5555 0-0.77514 0.15503-1.4159 0.1602-0.64079 0.47025-1.0955 0.31522-0.45992 0.78548-0.70796 0.47025-0.25321 1.0955-0.25321 0.5426 0 0.98702 0.2067 0.44442 0.20154 0.75964 0.63045 0.31522 0.42375 0.48576 1.08 0.17053 0.65629 0.17053 1.5555zm-0.9095 0.03101q0-0.1757-0.0155-0.34623-0.01033-0.1757-0.02584-0.34106l-2.8577 2.1239q0.07751 0.26872 0.19637 0.49609 0.11886 0.22738 0.28422 0.39274 0.17053 0.1602 0.3824 0.25321 0.21704 0.08785 0.49092 0.08785 0.3514 0 0.63562-0.17053 0.28939-0.17053 0.49092-0.50643 0.20154-0.3359 0.31006-0.83199 0.10852-0.50126 0.10852-1.1575zm-3.0902-0.06201q0 0.1602 0 0.32039 0.0052 0.1602 0.02067 0.31006l2.8577-2.1136q-0.07751-0.26355-0.19637-0.48059-0.11886-0.21704-0.28422-0.37207-0.16536-0.1602-0.37724-0.24805-0.21187-0.08785-0.47542-0.08785-0.3514 0-0.64079 0.17053-0.28422 0.17053-0.48576 0.5116-0.20154 0.3359-0.31006 0.83716-0.10852 0.49609-0.10852 1.1524z"/>
    <path d="m89.891 48.732q0.26355 0.01033 0.5116-0.04651 0.24805-0.05684 0.43408-0.17053 0.1912-0.10852 0.30489-0.27388t0.11369-0.37724q0-0.21704-0.07751-0.3514-0.07235-0.13436-0.16536-0.24805-0.09302-0.11369-0.17053-0.24288-0.07235-0.12919-0.07235-0.34623 0-0.10852 0.04134-0.22738 0.04134-0.11886 0.12402-0.21704 0.08785-0.09819 0.21704-0.1602 0.13436-0.06201 0.31523-0.06201t0.34623 0.07751q0.17053 0.07235 0.29455 0.22738 0.12919 0.15503 0.20154 0.38757 0.07751 0.23254 0.07751 0.54777 0 0.42891-0.1602 0.82165-0.15503 0.39791-0.47025 0.7028-0.31006 0.30489-0.78031 0.48576-0.46509 0.18087-1.0852 0.18087z"/>
    <path d="m100.02 46.179h-1.1524v1.4934h-0.91984v-1.4934h-3.2504v-0.79065l2.8784-4.47h1.2919v4.47h1.1524zm-2.0722-4.3925-2.3513 3.6018h2.3513z"/>
    <path d="m101.53 48.732q0.26355 0.01033 0.51159-0.04651 0.24805-0.05684 0.43409-0.17053 0.1912-0.10852 0.30489-0.27388 0.11368-0.16536 0.11368-0.37724 0-0.21704-0.0775-0.3514-0.0724-0.13436-0.16537-0.24805-0.093-0.11369-0.17053-0.24288-0.0723-0.12919-0.0723-0.34623 0-0.10852 0.0413-0.22738 0.0413-0.11886 0.12402-0.21704 0.0879-0.09819 0.21704-0.1602 0.13436-0.06201 0.31523-0.06201 0.18086 0 0.34623 0.07751 0.17053 0.07235 0.29455 0.22738 0.12919 0.15503 0.20154 0.38757 0.0775 0.23254 0.0775 0.54777 0 0.42891-0.16019 0.82165-0.15503 0.39791-0.47026 0.7028-0.31005 0.30489-0.78031 0.48576-0.46509 0.18087-1.0852 0.18087z"/>
    <path d="m111.33 47.672h-4.4493v-0.80615l1.7467-1.7363q0.42891-0.42375 0.69763-0.7338 0.26872-0.31006 0.41858-0.56327 0.14986-0.25838 0.20154-0.48576 0.0517-0.22738 0.0517-0.49092 0-0.24805-0.0672-0.47025-0.0672-0.22738-0.2067-0.39791-0.13953-0.17053-0.36174-0.26872-0.2222-0.09819-0.53226-0.09819-0.42891 0-0.78031 0.1912-0.3514 0.1912-0.64596 0.49609l-0.49609-0.59428q0.38241-0.40308 0.8785-0.64595 0.50126-0.24288 1.1627-0.24288 0.44959 0 0.81649 0.13436 0.37207 0.13436 0.64079 0.38757 0.26871 0.25321 0.41341 0.62012 0.14986 0.3669 0.14986 0.82682 0 0.38757-0.10336 0.7183-0.10335 0.33073-0.31522 0.66146-0.20671 0.32556-0.5271 0.67696-0.31522 0.3514-0.7493 0.76998l-1.2247 1.1937h3.2814z"/>
    <path d="m113.17 48.732q0.26355 0.01033 0.51159-0.04651 0.24805-0.05684 0.43408-0.17053 0.1912-0.10852 0.30489-0.27388t0.11369-0.37724q0-0.21704-0.0775-0.3514-0.0724-0.13436-0.16537-0.24805-0.093-0.11369-0.17053-0.24288-0.0724-0.12919-0.0724-0.34623 0-0.10852 0.0413-0.22738 0.0414-0.11886 0.12403-0.21704 0.0879-0.09819 0.21704-0.1602 0.13436-0.06201 0.31522-0.06201 0.18087 0 0.34623 0.07751 0.17054 0.07235 0.29456 0.22738 0.12919 0.15503 0.20154 0.38757 0.0775 0.23254 0.0775 0.54777 0 0.42891-0.1602 0.82165-0.15502 0.39791-0.47025 0.7028-0.31006 0.30489-0.78031 0.48576-0.46509 0.18087-1.0852 0.18087z"/>
    <path d="m122.91 47.672h-4.2426v-0.83716h1.7363v-4.9299l-1.6175 0.8785-0.33072-0.76481 2.1497-1.1317h0.79581v5.9479h1.509z"/>
    <path d="m124.8 48.732q0.26355 0.01033 0.51159-0.04651 0.24805-0.05684 0.43409-0.17053 0.1912-0.10852 0.30489-0.27388 0.11368-0.16536 0.11368-0.37724 0-0.21704-0.0775-0.3514-0.0724-0.13436-0.16537-0.24805-0.093-0.11369-0.17053-0.24288-0.0723-0.12919-0.0723-0.34623 0-0.10852 0.0413-0.22738 0.0413-0.11886 0.12402-0.21704 0.0879-0.09819 0.21704-0.1602 0.13436-0.06201 0.31523-0.06201 0.18086 0 0.34623 0.07751 0.17053 0.07235 0.29455 0.22738 0.12919 0.15503 0.20154 0.38757 0.0775 0.23254 0.0775 0.54777 0 0.42891-0.16019 0.82165-0.15503 0.39791-0.47026 0.7028-0.31005 0.30489-0.78031 0.48576-0.46509 0.18087-1.0852 0.18087z"/>
    <path d="m134.54 47.672h-4.2426v-0.83716h1.7363v-4.9299l-1.6175 0.8785-0.33073-0.76481 2.1497-1.1317h0.79581v5.9479h1.509z"/>
   </g>
   <g transform="translate(8.2641 .26173)" style="paint-order:markers fill stroke" aria-label="1,1,4,1,1">
    <path d="m87.994 57.672h-4.2426v-0.83716h1.7363v-4.9299l-1.6175 0.8785-0.33073-0.76481 2.1497-1.1317h0.79582v5.9479h1.5089z"/>
    <path d="m89.891 58.732q0.26355 0.01033 0.5116-0.04651 0.24805-0.05684 0.43408-0.17053 0.1912-0.10852 0.30489-0.27388t0.11369-0.37724q0-0.21704-0.07751-0.3514-0.07235-0.13436-0.16536-0.24805-0.09302-0.11369-0.17053-0.24288-0.07235-0.12919-0.07235-0.34623 0-0.10852 0.04134-0.22738 0.04134-0.11886 0.12402-0.21704 0.08785-0.09819 0.21704-0.1602 0.13436-0.06201 0.31523-0.06201t0.34623 0.07751q0.17053 0.07235 0.29455 0.22738 0.12919 0.15503 0.20154 0.38757 0.07751 0.23254 0.07751 0.54777 0 0.42891-0.1602 0.82165-0.15503 0.39791-0.47025 0.7028-0.31006 0.30489-0.78031 0.48576-0.46509 0.18087-1.0852 0.18087z"/>
    <path d="m99.632 57.672h-4.2426v-0.83716h1.7363v-4.9299l-1.6175 0.8785-0.33073-0.76481 2.1497-1.1317h0.79582v5.9479h1.5089z"/>
    <path d="m101.53 58.732q0.26355 0.01033 0.51159-0.04651 0.24805-0.05684 0.43409-0.17053 0.1912-0.10852 0.30489-0.27388 0.11368-0.16536 0.11368-0.37724 0-0.21704-0.0775-0.3514-0.0724-0.13436-0.16537-0.24805-0.093-0.11369-0.17053-0.24288-0.0723-0.12919-0.0723-0.34623 0-0.10852 0.0413-0.22738 0.0413-0.11886 0.12402-0.21704 0.0879-0.09819 0.21704-0.1602 0.13436-0.06201 0.31523-0.06201 0.18086 0 0.34623 0.07751 0.17053 0.07235 0.29455 0.22738 0.12919 0.15503 0.20154 0.38757 0.0775 0.23254 0.0775 0.54777 0 0.42891-0.16019 0.82165-0.15503 0.39791-0.47026 0.7028-0.31005 0.30489-0.78031 0.48576-0.46509 0.18087-1.0852 0.18087z"/>
    <path d="m111.66 56.179h-1.1524v1.4934h-0.91984v-1.4934h-3.2504v-0.79065l2.8784-4.47h1.2919v4.47h1.1524zm-2.0722-4.3925-2.3513 3.6018h2.3513z"/>
    <path d="m113.17 58.732q0.26355 0.01033 0.51159-0.04651 0.24805-0.05684 0.43408-0.17053 0.1912-0.10852 0.30489-0.27388t0.11369-0.37724q0-0.21704-0.0775-0.3514-0.0724-0.13436-0.16537-0.24805-0.093-0.11369-0.17053-0.24288-0.0724-0.12919-0.0724-0.34623 0-0.10852 0.0413-0.22738 0.0414-0.11886 0.12403-0.21704 0.0879-0.09819 0.21704-0.1602 0.13436-0.06201 0.31522-0.06201 0.18087 0 0.34623 0.07751 0.17054 0.07235 0.29456 0.22738 0.12919 0.15503 0.20154 0.38757 0.0775 0.23254 0.0775 0.54777 0 0.42891-0.1602 0.82165-0.15502 0.39791-0.47025 0.7028-0.31006 0.30489-0.78031 0.48576-0.46509 0.18087-1.0852 0.18087z"/>
    <path d="m122.91 57.672h-4.2426v-0.83716h1.7363v-4.9299l-1.6175 0.8785-0.33072-0.76481 2.1497-1.1317h0.79581v5.9479h1.509z"/>
    <path d="m124.8 58.732q0.26355 0.01033 0.51159-0.04651 0.24805-0.05684 0.43409-0.17053 0.1912-0.10852 0.30489-0.27388 0.11368-0.16536 0.11368-0.37724 0-0.21704-0.0775-0.3514-0.0724-0.13436-0.16537-0.24805-0.093-0.11369-0.17053-0.24288-0.0723-0.12919-0.0723-0.34623 0-0.10852 0.0413-0.22738 0.0413-0.11886 0.12402-0.21704 0.0879-0.09819 0.21704-0.1602 0.13436-0.06201 0.31523-0.06201 0.18086 0 0.34623 0.07751 0.17053 0.07235 0.29455 0.22738 0.12919 0.15503 0.20154 0.38757 0.0775 0.23254 0.0775 0.54777 0 0.42891-0.16019 0.82165-0.15503 0.39791-0.47026 0.7028-0.31005 0.30489-0.78031 0.48576-0.46509 0.18087-1.0852 0.18087z"/>
    <path d="m134.54 57.672h-4.2426v-0.83716h1.7363v-4.9299l-1.6175 0.8785-0.33073-0.76481 2.1497-1.1317h0.79581v5.9479h1.509z"/>
   </g>
   <g transform="translate(8.1832 .26173)" style="paint-order:markers fill stroke" aria-label="2,4,2">
    <path d="m88.051 67.672h-4.4493v-0.80615l1.7467-1.7363q0.42891-0.42375 0.69763-0.7338 0.26872-0.31006 0.41858-0.56327 0.14986-0.25838 0.20154-0.48576 0.05168-0.22738 0.05168-0.49092 0-0.24805-0.06718-0.47025-0.06718-0.22738-0.2067-0.39791-0.13953-0.17053-0.36173-0.26872-0.22221-0.09819-0.53227-0.09819-0.42891 0-0.78031 0.1912-0.3514 0.1912-0.64595 0.49609l-0.49609-0.59428q0.3824-0.40308 0.8785-0.64595 0.50126-0.24288 1.1627-0.24288 0.44958 0 0.81648 0.13436 0.37207 0.13436 0.64078 0.38757 0.26872 0.25321 0.41341 0.62012 0.14986 0.3669 0.14986 0.82682 0 0.38757-0.10335 0.7183-0.10335 0.33073-0.31522 0.66146-0.2067 0.32556-0.5271 0.67696-0.31522 0.3514-0.74931 0.76998l-1.2247 1.1937h3.2814z"/>
    <path d="m89.891 68.732q0.26355 0.01033 0.5116-0.04651 0.24805-0.05684 0.43408-0.17053 0.1912-0.10852 0.30489-0.27388t0.11369-0.37724q0-0.21704-0.07751-0.3514-0.07235-0.13436-0.16536-0.24805-0.09302-0.11369-0.17053-0.24288-0.07235-0.12919-0.07235-0.34623 0-0.10852 0.04134-0.22738 0.04134-0.11886 0.12402-0.21704 0.08785-0.09819 0.21704-0.1602 0.13436-0.06201 0.31523-0.06201t0.34623 0.07751q0.17053 0.07235 0.29455 0.22738 0.12919 0.15503 0.20154 0.38757 0.07751 0.23254 0.07751 0.54777 0 0.42891-0.1602 0.82165-0.15503 0.39791-0.47025 0.7028-0.31006 0.30489-0.78031 0.48576-0.46509 0.18087-1.0852 0.18087z"/>
    <path d="m100.02 66.179h-1.1524v1.4934h-0.91984v-1.4934h-3.2504v-0.79065l2.8784-4.47h1.2919v4.47h1.1524zm-2.0722-4.3925-2.3513 3.6018h2.3513z"/>
    <path d="m101.53 68.732q0.26355 0.01033 0.51159-0.04651 0.24805-0.05684 0.43409-0.17053 0.1912-0.10852 0.30489-0.27388 0.11368-0.16536 0.11368-0.37724 0-0.21704-0.0775-0.3514-0.0724-0.13436-0.16537-0.24805-0.093-0.11369-0.17053-0.24288-0.0723-0.12919-0.0723-0.34623 0-0.10852 0.0413-0.22738 0.0413-0.11886 0.12402-0.21704 0.0879-0.09819 0.21704-0.1602 0.13436-0.06201 0.31523-0.06201 0.18086 0 0.34623 0.07751 0.17053 0.07235 0.29455 0.22738 0.12919 0.15503 0.20154 0.38757 0.0775 0.23254 0.0775 0.54777 0 0.42891-0.16019 0.82165-0.15503 0.39791-0.47026 0.7028-0.31005 0.30489-0.78031 0.48576-0.46509 0.18087-1.0852 0.18087z"/>
    <path d="m111.33 67.672h-4.4493v-0.80615l1.7467-1.7363q0.42891-0.42375 0.69763-0.7338 0.26872-0.31006 0.41858-0.56327 0.14986-0.25838 0.20154-0.48576 0.0517-0.22738 0.0517-0.49092 0-0.24805-0.0672-0.47025-0.0672-0.22738-0.2067-0.39791-0.13953-0.17053-0.36174-0.26872-0.2222-0.09819-0.53226-0.09819-0.42891 0-0.78031 0.1912-0.3514 0.1912-0.64596 0.49609l-0.49609-0.59428q0.38241-0.40308 0.8785-0.64595 0.50126-0.24288 1.1627-0.24288 0.44959 0 0.81649 0.13436 0.37207 0.13436 0.64079 0.38757 0.26871 0.25321 0.41341 0.62012 0.14986 0.3669 0.14986 0.82682 0 0.38757-0.10336 0.7183-0.10335 0.33073-0.31522 0.66146-0.20671 0.32556-0.5271 0.67696-0.31522 0.3514-0.7493 0.76998l-1.2247 1.1937h3.2814z"/>
   </g>
   <g transform="translate(8.0765 .26173)" style="paint-order:markers fill stroke" aria-label="3,2,3">
    <path d="m87.922 75.621q0 0.44442-0.18087 0.83716-0.18087 0.38757-0.5426 0.68213-0.36173 0.28939-0.9095 0.45992-0.54777 0.16536-1.2764 0.16536-0.40308 0-0.72347-0.02584t-0.59944-0.06718v-0.80615q0.32039 0.05684 0.67696 0.08785 0.35657 0.03101 0.72864 0.03101 0.50643 0 0.86299-0.08785 0.36173-0.09302 0.58911-0.26355 0.22738-0.17053 0.33073-0.41341 0.10335-0.24288 0.10335-0.54777 0-0.27905-0.12402-0.48576t-0.3514-0.34623q-0.22221-0.13953-0.53743-0.2067-0.31006-0.07235-0.68213-0.07235h-0.76998v-0.73897h0.78031q0.30489 0 0.55294-0.07751 0.25321-0.08268 0.42891-0.23254 0.18087-0.14986 0.27388-0.3669 0.09819-0.22221 0.09819-0.50126 0-0.5426-0.33073-0.79065-0.33073-0.24805-0.97151-0.24805-0.34106 0-0.7028 0.06718-0.36173 0.06718-0.77514 0.20154v-0.78548q0.1757-0.06201 0.37207-0.10852 0.20154-0.05168 0.39791-0.08268 0.20154-0.03617 0.39791-0.05168 0.19637-0.02067 0.37724-0.02067 0.53743 0 0.94568 0.11886 0.40824 0.11369 0.68213 0.33073 0.27388 0.21704 0.41341 0.5271 0.13953 0.31006 0.13953 0.69763 0 0.57877-0.29972 0.97151-0.29456 0.39274-0.81132 0.62528 0.26355 0.04134 0.51676 0.16536 0.25838 0.12402 0.45992 0.32039 0.2067 0.1912 0.33073 0.45475 0.12919 0.26355 0.12919 0.58394z"/>
    <path d="m89.891 78.732q0.26355 0.01033 0.5116-0.04651 0.24805-0.05684 0.43408-0.17053 0.1912-0.10852 0.30489-0.27388t0.11369-0.37724q0-0.21704-0.07751-0.3514-0.07235-0.13436-0.16536-0.24805-0.09302-0.11369-0.17053-0.24288-0.07235-0.12919-0.07235-0.34623 0-0.10852 0.04134-0.22738 0.04134-0.11886 0.12402-0.21704 0.08785-0.09819 0.21704-0.1602 0.13436-0.06201 0.31523-0.06201t0.34623 0.07751q0.17053 0.07235 0.29455 0.22738 0.12919 0.15503 0.20154 0.38757 0.07751 0.23254 0.07751 0.54777 0 0.42891-0.1602 0.82165-0.15503 0.39791-0.47025 0.7028-0.31006 0.30489-0.78031 0.48576-0.46509 0.18087-1.0852 0.18087z"/>
    <path d="m99.689 77.672h-4.4493v-0.80615l1.7467-1.7363q0.42891-0.42375 0.69763-0.7338 0.26872-0.31006 0.41858-0.56327 0.14986-0.25838 0.20154-0.48576 0.05168-0.22738 0.05168-0.49092 0-0.24805-0.06718-0.47025-0.06718-0.22738-0.2067-0.39791-0.13953-0.17053-0.36173-0.26872-0.22221-0.09819-0.53227-0.09819-0.42891 0-0.78031 0.1912-0.3514 0.1912-0.64595 0.49609l-0.49609-0.59428q0.3824-0.40308 0.8785-0.64595 0.50126-0.24288 1.1627-0.24288 0.44958 0 0.81648 0.13436 0.37207 0.13436 0.64078 0.38757 0.26872 0.25321 0.41341 0.62012 0.14986 0.3669 0.14986 0.82682 0 0.38757-0.10335 0.7183-0.10335 0.33073-0.31522 0.66146-0.2067 0.32556-0.5271 0.67696-0.31522 0.3514-0.74931 0.76998l-1.2247 1.1937h3.2814z"/>
    <path d="m101.53 78.732q0.26355 0.01033 0.51159-0.04651 0.24805-0.05684 0.43409-0.17053 0.1912-0.10852 0.30489-0.27388 0.11368-0.16536 0.11368-0.37724 0-0.21704-0.0775-0.3514-0.0724-0.13436-0.16537-0.24805-0.093-0.11369-0.17053-0.24288-0.0723-0.12919-0.0723-0.34623 0-0.10852 0.0413-0.22738 0.0413-0.11886 0.12402-0.21704 0.0879-0.09819 0.21704-0.1602 0.13436-0.06201 0.31523-0.06201 0.18086 0 0.34623 0.07751 0.17053 0.07235 0.29455 0.22738 0.12919 0.15503 0.20154 0.38757 0.0775 0.23254 0.0775 0.54777 0 0.42891-0.16019 0.82165-0.15503 0.39791-0.47026 0.7028-0.31005 0.30489-0.78031 0.48576-0.46509 0.18087-1.0852 0.18087z"/>
    <path d="m111.2 75.621q0 0.44442-0.18087 0.83716-0.18086 0.38757-0.5426 0.68213-0.36173 0.28939-0.9095 0.45992-0.54777 0.16536-1.2764 0.16536-0.40308 0-0.72347-0.02584t-0.59945-0.06718v-0.80615q0.3204 0.05684 0.67696 0.08785 0.35657 0.03101 0.72864 0.03101 0.50643 0 0.86299-0.08785 0.36174-0.09302 0.58911-0.26355 0.22738-0.17053 0.33073-0.41341 0.10335-0.24288 0.10335-0.54777 0-0.27905-0.12402-0.48576t-0.3514-0.34623q-0.22221-0.13953-0.53743-0.2067-0.31006-0.07235-0.68213-0.07235h-0.76998v-0.73897h0.78032q0.30489 0 0.55293-0.07751 0.25322-0.08268 0.42891-0.23254 0.18087-0.14986 0.27389-0.3669 0.0982-0.22221 0.0982-0.50126 0-0.5426-0.33072-0.79065-0.33073-0.24805-0.97152-0.24805-0.34106 0-0.7028 0.06718-0.36173 0.06718-0.77514 0.20154v-0.78548q0.1757-0.06201 0.37207-0.10852 0.20154-0.05168 0.39791-0.08268 0.20153-0.03617 0.3979-0.05168 0.19637-0.02067 0.37724-0.02067 0.53743 0 0.94568 0.11886 0.40824 0.11369 0.68212 0.33073 0.27389 0.21704 0.41341 0.5271 0.13953 0.31006 0.13953 0.69763 0 0.57877-0.29972 0.97151-0.29456 0.39274-0.81132 0.62528 0.26355 0.04134 0.51676 0.16536 0.25838 0.12402 0.45992 0.32039 0.20671 0.1912 0.33073 0.45475 0.12919 0.26355 0.12919 0.58394z"/>
   </g>
  </g>
 </g>
</svg>
