<?xml version="1.0" encoding="UTF-8"?>
<svg width="160mm" height="80.265mm" version="1.1" viewBox="0 0 160 80.265" xmlns="http://www.w3.org/2000/svg">
 <g transform="translate(8.1459)" stroke="#000" stroke-width=".26458">
  <rect x="111.72" y=".13229" width="10" height="10" style="paint-order:markers fill stroke"/>
  <rect x="121.72" y=".13229" width="10" height="10" style="paint-order:markers fill stroke"/>
  <rect x="101.72" y="10.132" width="10" height="10" style="paint-order:markers fill stroke"/>
  <rect x="131.72" y="10.132" width="10" height="10" style="paint-order:markers fill stroke"/>
  <rect x="101.72" y="20.132" width="10" height="10" style="paint-order:markers fill stroke"/>
  <rect x="131.72" y="20.132" width="10" height="10" style="paint-order:markers fill stroke"/>
  <rect x="141.72" y="20.132" width="10" height="10" style="paint-order:markers fill stroke"/>
  <rect x="71.722" y="30.132" width="10" height="10" style="paint-order:markers fill stroke"/>
  <rect x="111.72" y="30.132" width="10" height="10" style="paint-order:markers fill stroke"/>
  <rect x="121.72" y="30.132" width="10" height="10" style="paint-order:markers fill stroke"/>
  <rect x="71.722" y="40.132" width="10" height="10" style="paint-order:markers fill stroke"/>
  <rect x="81.722" y="40.132" width="10" height="10" style="paint-order:markers fill stroke"/>
  <rect x="91.722" y="40.132" width="10" height="10" style="paint-order:markers fill stroke"/>
  <rect x="101.72" y="40.132" width="10" height="10" style="paint-order:markers fill stroke"/>
  <rect x="131.72" y="40.132" width="10" height="10" style="paint-order:markers fill stroke"/>
  <rect x="81.722" y="50.132" width="10" height="10" style="paint-order:markers fill stroke"/>
  <rect x="131.72" y="50.132" width="10" height="10" style="paint-order:markers fill stroke"/>
  <rect x="91.722" y="60.132" width="10" height="10" style="paint-order:markers fill stroke"/>
  <rect x="101.72" y="60.132" width="10" height="10" style="paint-order:markers fill stroke"/>
  <rect x="111.72" y="60.132" width="10" height="10" style="paint-order:markers fill stroke"/>
  <rect x="121.72" y="60.132" width="10" height="10" style="paint-order:markers fill stroke"/>
  <rect x="101.72" y="70.132" width="10" height="10" style="paint-order:markers fill stroke"/>
  <rect x="111.72" y="70.132" width="10" height="10" style="paint-order:markers fill stroke"/>
 </g>
 <g transform="matrix(.037966 0 0 .037966 34.235 38.609)" stroke="#000" stroke-width=".26458">
  <rect x="111.72" y=".13229" width="10" height="10" style="paint-order:markers fill stroke"/>
  <rect x="121.72" y=".13229" width="10" height="10" style="paint-order:markers fill stroke"/>
  <rect x="101.72" y="10.132" width="10" height="10" style="paint-order:markers fill stroke"/>
  <rect x="131.72" y="10.132" width="10" height="10" style="paint-order:markers fill stroke"/>
  <rect x="101.72" y="20.132" width="10" height="10" style="paint-order:markers fill stroke"/>
  <rect x="131.72" y="20.132" width="10" height="10" style="paint-order:markers fill stroke"/>
  <rect x="141.72" y="20.132" width="10" height="10" style="paint-order:markers fill stroke"/>
  <rect x="71.722" y="30.132" width="10" height="10" style="paint-order:markers fill stroke"/>
  <rect x="111.72" y="30.132" width="10" height="10" style="paint-order:markers fill stroke"/>
  <rect x="121.72" y="30.132" width="10" height="10" style="paint-order:markers fill stroke"/>
  <rect x="71.722" y="40.132" width="10" height="10" style="paint-order:markers fill stroke"/>
  <rect x="81.722" y="40.132" width="10" height="10" style="paint-order:markers fill stroke"/>
  <rect x="91.722" y="40.132" width="10" height="10" style="paint-order:markers fill stroke"/>
  <rect x="101.72" y="40.132" width="10" height="10" style="paint-order:markers fill stroke"/>
  <rect x="131.72" y="40.132" width="10" height="10" style="paint-order:markers fill stroke"/>
  <rect x="81.722" y="50.132" width="10" height="10" style="paint-order:markers fill stroke"/>
  <rect x="131.72" y="50.132" width="10" height="10" style="paint-order:markers fill stroke"/>
  <rect x="91.722" y="60.132" width="10" height="10" style="paint-order:markers fill stroke"/>
  <rect x="101.72" y="60.132" width="10" height="10" style="paint-order:markers fill stroke"/>
  <rect x="111.72" y="60.132" width="10" height="10" style="paint-order:markers fill stroke"/>
  <rect x="121.72" y="60.132" width="10" height="10" style="paint-order:markers fill stroke"/>
  <rect x="101.72" y="70.132" width="10" height="10" style="paint-order:markers fill stroke"/>
  <rect x="111.72" y="70.132" width="10" height="10" style="paint-order:markers fill stroke"/>
 </g>
</svg>
