<?xml version="1.0" encoding="utf-8"?>
<!-- Generator: Adobe Illustrator 19.2.1, SVG Export Plug-In . SVG Version: 6.00 Build 0)  -->
<svg version="1.1" xmlns="http://www.w3.org/2000/svg" xmlns:xlink="http://www.w3.org/1999/xlink" x="0px" y="0px"
	 viewBox="0 0 660.2 491.3" style="enable-background:new 0 0 660.2 491.3;" xml:space="preserve">
<g id="Layer_1">
	<g>
		<g>
			<path style="fill:#FFFFFF;" d="M658.9,163.3v2.3L580.5,244h-8.4l80.7-80.7H658.9 M659.1,163.1h-6.4l-81.2,81.2h9.1l78.5-78.5
				V163.1L659.1,163.1z"/>
		</g>
		<g>
			<path style="fill:#FFFFFF;" d="M532.6,163.3l-35.2,35.2v-8.4l26.8-26.8H532.6 M533.2,163.1L533.2,163.1L533.2,163.1z
				 M533.2,163.1h-9.1l-27,27v9.1L533.2,163.1L533.2,163.1z"/>
		</g>
		<g>
			<path style="fill:#FFFFFF;" d="M545.4,163.3l-48.1,48.1V203l39.7-39.7H545.4 M546,163.1L546,163.1L546,163.1z M546,163.1H537
				l-39.9,39.9v9.1L546,163.1L546,163.1z"/>
		</g>
		<g>
			<path style="fill:#FFFFFF;" d="M658.9,170.1v8.4L593.3,244H585L658.9,170.1 M659.1,169.5l-74.8,74.8h9.1l65.7-65.7V169.5
				L659.1,169.5z"/>
		</g>
		<g>
			<path style="fill:#FFFFFF;" d="M648.3,163.3L567.6,244h-8.4l80.7-80.7H648.3 M648.9,163.1L648.9,163.1L648.9,163.1z M648.9,163.1
				h-9.1l-81.2,81.2h9.1L648.9,163.1L648.9,163.1z"/>
		</g>
		<g>
			<path style="fill:#FFFFFF;" d="M635.4,163.3L554.8,244h-8.4l80.7-80.7H635.4 M636,163.1L636,163.1L636,163.1z M636,163.1H627
				l-81.2,81.2h9.1L636,163.1L636,163.1z"/>
		</g>
		<g>
			<path style="fill:#FFFFFF;" d="M584,163.3L503.3,244h-5.9v-2.4l78.3-78.3H584 M584.6,163.1L584.6,163.1L584.6,163.1z
				 M584.6,163.1h-9.1l-78.4,78.4v2.8h6.3L584.6,163.1L584.6,163.1z"/>
		</g>
		<g>
			<path style="fill:#FFFFFF;" d="M609.7,163.3L529,244h-8.4l80.7-80.7H609.7 M610.3,163.1L610.3,163.1L610.3,163.1z M610.3,163.1
				h-9.1l-81.2,81.2h9.1L610.3,163.1L610.3,163.1z"/>
		</g>
		<g>
			<path style="fill:#FFFFFF;" d="M558.3,163.3l-60.9,60.9v-8.4l52.6-52.6H558.3 M558.9,163.1L558.9,163.1L558.9,163.1z
				 M558.9,163.1h-9.1l-52.7,52.7v9.1L558.9,163.1L558.9,163.1z"/>
		</g>
		<g>
			<path style="fill:#FFFFFF;" d="M622.6,163.3L541.9,244h-8.4l80.7-80.7H622.6 M623.2,163.1L623.2,163.1L623.2,163.1z M623.2,163.1
				h-9.1l-81.2,81.2h9.1L623.2,163.1L623.2,163.1z"/>
		</g>
		<g>
			<path style="fill:#FFFFFF;" d="M571.2,163.3l-73.8,73.8v-8.4l65.4-65.4H571.2 M571.8,163.1L571.8,163.1L571.8,163.1z
				 M571.8,163.1h-9.1l-65.6,65.6v9.1L571.8,163.1L571.8,163.1z"/>
		</g>
		<g>
			<path style="fill:#FFFFFF;" d="M596.9,163.3L516.2,244h-8.4l80.7-80.7H596.9 M597.5,163.1L597.5,163.1L597.5,163.1z M597.5,163.1
				h-9.1l-81.2,81.2h9.1L597.5,163.1L597.5,163.1z"/>
		</g>
		<g>
			<path style="fill:#FFFFFF;" d="M658.9,221.5v8.4L644.8,244h-8.4L658.9,221.5 M659.1,220.9l-23.3,23.3h9.1l14.3-14.3V220.9
				L659.1,220.9z"/>
		</g>
		<g>
			<path style="fill:#FFFFFF;" d="M658.9,208.7v8.4l-27,27h-8.4L658.9,208.7 M659.1,208.1l-36.2,36.2h9.1l27.1-27.1V208.1
				L659.1,208.1z"/>
		</g>
		<g>
			<path style="fill:#FFFFFF;" d="M506.9,163.3l-9.5,9.5v-8.4l1.1-1.1H506.9 M507.5,163.1L507.5,163.1L507.5,163.1z M507.5,163.1
				h-9.1l-1.3,1.3v9.1L507.5,163.1L507.5,163.1z"/>
		</g>
		<g>
			<path style="fill:#FFFFFF;" d="M658.9,234.4v8.4l-1.3,1.3h-8.4L658.9,234.4 M659.1,233.8l-10.5,10.5h9.1l1.4-1.4V233.8
				L659.1,233.8z"/>
		</g>
		<g>
			<path style="fill:#FFFFFF;" d="M519.7,163.3l-22.3,22.3v-8.4l14-14H519.7 M520.3,163.1L520.3,163.1L520.3,163.1z M520.3,163.1
				h-9.1l-14.1,14.1v9.1L520.3,163.1L520.3,163.1z"/>
		</g>
		<g>
			<path style="fill:#FFFFFF;" d="M658.9,183v8.4L606.2,244h-8.4L658.9,183 M659.1,182.3l-61.9,61.9h9.1l52.8-52.8V182.3
				L659.1,182.3z"/>
		</g>
		<g>
			<path style="fill:#FFFFFF;" d="M658.9,195.8v8.4L619,244h-8.4L658.9,195.8 M659.1,195.2l-49,49h9.1l40-40V195.2L659.1,195.2z"/>
		</g>
		<g>
			<polygon points="658,244.1 659,243.1 659,244.1 			"/>
			<path style="fill:#FFFFFF;" d="M658.9,243.4v0.6h-0.6L658.9,243.4 M659.1,242.8l-1.4,1.4h1.4V242.8L659.1,242.8z"/>
		</g>
		<g>
			<polygon points="645.2,244.1 659,230.3 659,233.8 648.6,244.1 			"/>
			<path style="fill:#FFFFFF;" d="M658.9,230.6v3.1L648.6,244h-3.1L658.9,230.6 M659.1,230l-14.3,14.3h3.8l10.5-10.5V230L659.1,230z
				"/>
		</g>
		<g>
			<polygon points="632.3,244.1 659,217.4 659,220.9 635.7,244.1 			"/>
			<path style="fill:#FFFFFF;" d="M658.9,217.7v3.1L635.7,244h-3.1L658.9,217.7 M659.1,217.1L632,244.2h3.8l23.3-23.3V217.1
				L659.1,217.1z"/>
		</g>
		<g>
			<polygon points="619.4,244.1 659,204.6 659,208.1 622.9,244.1 			"/>
			<path style="fill:#FFFFFF;" d="M658.9,204.9v3.1l-36,36h-3.1L658.9,204.9 M659.1,204.3l-40,40h3.8l36.2-36.2V204.3L659.1,204.3z"
				/>
		</g>
		<g>
			<polygon points="606.6,244.1 659,191.7 659,195.2 610,244.1 			"/>
			<path style="fill:#FFFFFF;" d="M658.9,192v3.1L610,244h-3.1L658.9,192 M659.1,191.4l-52.8,52.8h3.8l49-49V191.4L659.1,191.4z"/>
		</g>
		<g>
			<polygon points="593.7,244.1 659,178.9 659,182.3 597.2,244.1 			"/>
			<path style="fill:#FFFFFF;" d="M658.9,179.2v3.1L597.1,244H594L658.9,179.2 M659.1,178.6l-65.7,65.7h3.8l61.9-61.9V178.6
				L659.1,178.6z"/>
		</g>
		<g>
			<polygon points="580.9,244.1 659,166 659,169.5 584.3,244.1 			"/>
			<path style="fill:#FFFFFF;" d="M658.9,166.3v3.1L584.3,244h-3.1L658.9,166.3 M659.1,165.7l-78.5,78.5h3.8l74.8-74.8V165.7
				L659.1,165.7z"/>
		</g>
		<g>
			<polygon points="568,244.1 649,163.1 652.4,163.2 571.5,244.1 			"/>
			<path style="fill:#FFFFFF;" d="M652.1,163.3L571.4,244h-3.1l80.7-80.7H652.1 M652.7,163.1L652.7,163.1L652.7,163.1z M652.7,163.1
				h-3.8l-81.2,81.2h3.8L652.7,163.1L652.7,163.1z"/>
		</g>
		<g>
			<polygon points="555.2,244.1 636.1,163.1 639.5,163.2 558.6,244.1 			"/>
			<path style="fill:#FFFFFF;" d="M639.2,163.3L558.6,244h-3.1l80.7-80.7H639.2 M639.8,163.1L639.8,163.1L639.8,163.1z M639.8,163.1
				H636l-81.2,81.2h3.8L639.8,163.1L639.8,163.1z"/>
		</g>
		<g>
			<polygon points="542.3,244.1 623.3,163.1 626.7,163.2 545.7,244.1 			"/>
			<path style="fill:#FFFFFF;" d="M626.4,163.3L545.7,244h-3.1l80.7-80.7H626.4 M627,163.1L627,163.1L627,163.1z M627,163.1h-3.8
				L542,244.2h3.8L627,163.1L627,163.1z"/>
		</g>
		<g>
			<polygon points="529.4,244.1 610.4,163.1 613.8,163.2 532.9,244.1 			"/>
			<path style="fill:#FFFFFF;" d="M613.5,163.3L532.8,244h-3.1l80.7-80.7H613.5 M614.1,163.1L614.1,163.1L614.1,163.1z M614.1,163.1
				h-3.8l-81.2,81.2h3.8L614.1,163.1L614.1,163.1z"/>
		</g>
		<g>
			<polygon points="516.6,244.1 597.6,163.1 601,163.2 520,244.1 			"/>
			<path style="fill:#FFFFFF;" d="M600.7,163.3L520,244h-3.1l80.7-80.7H600.7 M601.3,163.1L601.3,163.1L601.3,163.1z M601.3,163.1
				h-3.8l-81.2,81.2h3.8L601.3,163.1L601.3,163.1z"/>
		</g>
		<g>
			<polygon points="503.7,244.1 584.7,163.1 588.1,163.2 507.2,244.1 			"/>
			<path style="fill:#FFFFFF;" d="M587.8,163.3L507.1,244H504l80.7-80.7H587.8 M588.4,163.1L588.4,163.1L588.4,163.1z M588.4,163.1
				h-3.8l-81.2,81.2h3.8L588.4,163.1L588.4,163.1z"/>
		</g>
		<g>
			<polygon points="497.3,237.7 571.8,163.1 575.3,163.2 497.3,241.2 			"/>
			<path style="fill:#FFFFFF;" d="M574.9,163.3l-77.6,77.6v-3.1l74.5-74.5H574.9 M575.6,163.1L575.6,163.1L575.6,163.1z
				 M575.6,163.1h-3.8l-74.6,74.6v3.8L575.6,163.1L575.6,163.1z"/>
		</g>
		<g>
			<polygon points="497.3,224.8 559,163.1 562.4,163.2 497.3,228.3 			"/>
			<path style="fill:#FFFFFF;" d="M562.1,163.3L497.4,228v-3.1l61.6-61.6H562.1 M562.7,163.1L562.7,163.1L562.7,163.1z M562.7,163.1
				h-3.8l-61.8,61.8v3.8L562.7,163.1L562.7,163.1z"/>
		</g>
		<g>
			<polygon points="497.3,212 546.1,163.1 549.5,163.2 497.3,215.5 			"/>
			<path style="fill:#FFFFFF;" d="M549.2,163.3l-51.9,51.9v-3.1l48.8-48.8H549.2 M549.8,163.1L549.8,163.1L549.8,163.1z
				 M549.8,163.1H546L497.1,212v3.8L549.8,163.1L549.8,163.1z"/>
		</g>
		<g>
			<polygon points="497.3,199.1 533.3,163.1 536.7,163.2 497.3,202.6 			"/>
			<path style="fill:#FFFFFF;" d="M536.4,163.3l-39,39v-3.1l35.9-35.9H536.4 M537,163.1L537,163.1L537,163.1z M537,163.1h-3.8
				l-36.1,36.1v3.8L537,163.1L537,163.1z"/>
		</g>
		<g>
			<polygon points="497.3,186.3 520.4,163.1 523.8,163.2 497.3,189.7 			"/>
			<path style="fill:#FFFFFF;" d="M523.5,163.3l-26.1,26.1v-3.1l23.1-23.1H523.5 M524.1,163.1L524.1,163.1L524.1,163.1z
				 M524.1,163.1h-3.8l-23.2,23.2v3.8L524.1,163.1L524.1,163.1z"/>
		</g>
		<g>
			<polygon points="497.3,173.4 507.6,163.1 511,163.2 497.3,176.9 			"/>
			<path style="fill:#FFFFFF;" d="M510.7,163.3l-13.3,13.3v-3.1l10.2-10.2H510.7 M511.3,163.1L511.3,163.1L511.3,163.1z
				 M511.3,163.1h-3.8l-10.3,10.3v3.8L511.3,163.1L511.3,163.1z"/>
		</g>
		<g>
			<polygon points="497.3,163.2 498.1,163.2 497.3,164 			"/>
			<path style="fill:#FFFFFF;" d="M497.8,163.3l-0.4,0.4v-0.4H497.8 M498.4,163.1L498.4,163.1L498.4,163.1z M498.4,163.1h-1.3v1.3
				L498.4,163.1L498.4,163.1z"/>
		</g>
	</g>
	<g>
		<g>
			<path style="fill:#FFFFFF;" d="M493.5,163.3v2.3L415.1,244h-8.4l80.7-80.7H493.5 M493.7,163.1h-6.4l-81.2,81.2h9.1l78.5-78.5
				V163.1L493.7,163.1z"/>
		</g>
		<g>
			<path style="fill:#FFFFFF;" d="M367.2,163.3L332,198.5v-8.4l26.8-26.8H367.2 M367.8,163.1L367.8,163.1L367.8,163.1z M367.8,163.1
				h-9.1l-27,27v9.1L367.8,163.1L367.8,163.1z"/>
		</g>
		<g>
			<path style="fill:#FFFFFF;" d="M380,163.3L332,211.4V203l39.7-39.7H380 M380.6,163.1L380.6,163.1L380.6,163.1z M380.6,163.1h-9.1
				l-39.9,39.9v9.1L380.6,163.1L380.6,163.1z"/>
		</g>
		<g>
			<path style="fill:#FFFFFF;" d="M493.5,170.1v8.4L427.9,244h-8.4L493.5,170.1 M493.7,169.5L419,244.2h9.1l65.7-65.7V169.5
				L493.7,169.5z"/>
		</g>
		<g>
			<path style="fill:#FFFFFF;" d="M482.9,163.3L402.2,244h-8.4l80.7-80.7H482.9 M483.5,163.1L483.5,163.1L483.5,163.1z M483.5,163.1
				h-9.1l-81.2,81.2h9.1L483.5,163.1L483.5,163.1z"/>
		</g>
		<g>
			<path style="fill:#FFFFFF;" d="M470,163.3L389.3,244H381l80.7-80.7H470 M470.6,163.1L470.6,163.1L470.6,163.1z M470.6,163.1h-9.1
				l-81.2,81.2h9.1L470.6,163.1L470.6,163.1z"/>
		</g>
		<g>
			<path style="fill:#FFFFFF;" d="M418.6,163.3L337.9,244H332v-2.4l78.3-78.3H418.6 M419.2,163.1L419.2,163.1L419.2,163.1z
				 M419.2,163.1h-9.1l-78.4,78.4v2.8h6.3L419.2,163.1L419.2,163.1z"/>
		</g>
		<g>
			<path style="fill:#FFFFFF;" d="M444.3,163.3L363.6,244h-8.4l80.7-80.7H444.3 M444.9,163.1L444.9,163.1L444.9,163.1z M444.9,163.1
				h-9.1l-81.2,81.2h9.1L444.9,163.1L444.9,163.1z"/>
		</g>
		<g>
			<path style="fill:#FFFFFF;" d="M392.9,163.3L332,224.2v-8.4l52.6-52.6H392.9 M393.5,163.1L393.5,163.1L393.5,163.1z M393.5,163.1
				h-9.1l-52.7,52.7v9.1L393.5,163.1L393.5,163.1z"/>
		</g>
		<g>
			<path style="fill:#FFFFFF;" d="M457.2,163.3L376.5,244h-8.4l80.7-80.7H457.2 M457.8,163.1L457.8,163.1L457.8,163.1z M457.8,163.1
				h-9.1l-81.2,81.2h9.1L457.8,163.1L457.8,163.1z"/>
		</g>
		<g>
			<path style="fill:#FFFFFF;" d="M405.7,163.3L332,237.1v-8.4l65.4-65.4H405.7 M406.3,163.1L406.3,163.1L406.3,163.1z M406.3,163.1
				h-9.1l-65.6,65.6v9.1L406.3,163.1L406.3,163.1z"/>
		</g>
		<g>
			<path style="fill:#FFFFFF;" d="M431.5,163.3L350.8,244h-8.4l80.7-80.7H431.5 M432.1,163.1L432.1,163.1L432.1,163.1z M432.1,163.1
				H423l-81.2,81.2h9.1L432.1,163.1L432.1,163.1z"/>
		</g>
		<g>
			<path style="fill:#FFFFFF;" d="M493.5,221.5v8.4L479.4,244H471L493.5,221.5 M493.7,220.9l-23.3,23.3h9.1l14.3-14.3V220.9
				L493.7,220.9z"/>
		</g>
		<g>
			<path style="fill:#FFFFFF;" d="M493.5,208.7v8.4l-27,27h-8.4L493.5,208.7 M493.7,208.1l-36.2,36.2h9.1l27.1-27.1V208.1
				L493.7,208.1z"/>
		</g>
		<g>
			<path style="fill:#FFFFFF;" d="M341.5,163.3l-9.5,9.5v-8.4l1.1-1.1H341.5 M342.1,163.1L342.1,163.1L342.1,163.1z M342.1,163.1
				H333l-1.3,1.3v9.1L342.1,163.1L342.1,163.1z"/>
		</g>
		<g>
			<path style="fill:#FFFFFF;" d="M493.5,234.4v8.4l-1.3,1.3h-8.4L493.5,234.4 M493.7,233.8l-10.5,10.5h9.1l1.4-1.4V233.8
				L493.7,233.8z"/>
		</g>
		<g>
			<path style="fill:#FFFFFF;" d="M354.3,163.3L332,185.7v-8.4l14-14H354.3 M354.9,163.1L354.9,163.1L354.9,163.1z M354.9,163.1
				h-9.1l-14.1,14.1v9.1L354.9,163.1L354.9,163.1z"/>
		</g>
		<g>
			<path style="fill:#FFFFFF;" d="M493.5,183v8.4L440.8,244h-8.4L493.5,183 M493.7,182.3l-61.9,61.9h9.1l52.8-52.8V182.3
				L493.7,182.3z"/>
		</g>
		<g>
			<path style="fill:#FFFFFF;" d="M493.5,195.8v8.4L453.6,244h-8.4L493.5,195.8 M493.7,195.2l-49,49h9.1l40-40V195.2L493.7,195.2z"
				/>
		</g>
		<g>
			<polygon points="492.6,244.1 493.6,243.1 493.6,244.1 			"/>
			<path style="fill:#FFFFFF;" d="M493.5,243.4v0.6h-0.6L493.5,243.4 M493.7,242.8l-1.4,1.4h1.4V242.8L493.7,242.8z"/>
		</g>
		<g>
			<polygon points="479.8,244.1 493.6,230.3 493.6,233.8 483.2,244.1 			"/>
			<path style="fill:#FFFFFF;" d="M493.5,230.6v3.1L483.1,244h-3.1L493.5,230.6 M493.7,230l-14.3,14.3h3.8l10.5-10.5V230L493.7,230z
				"/>
		</g>
		<g>
			<polygon points="466.9,244.1 493.6,217.4 493.6,220.9 470.3,244.1 			"/>
			<path style="fill:#FFFFFF;" d="M493.5,217.7v3.1L470.3,244h-3.1L493.5,217.7 M493.7,217.1l-27.1,27.1h3.8l23.3-23.3V217.1
				L493.7,217.1z"/>
		</g>
		<g>
			<polygon points="454,244.1 493.6,204.6 493.6,208.1 457.5,244.1 			"/>
			<path style="fill:#FFFFFF;" d="M493.5,204.9v3.1l-36,36h-3.1L493.5,204.9 M493.7,204.3l-40,40h3.8l36.2-36.2V204.3L493.7,204.3z"
				/>
		</g>
		<g>
			<polygon points="441.2,244.1 493.6,191.7 493.6,195.2 444.6,244.1 			"/>
			<path style="fill:#FFFFFF;" d="M493.5,192v3.1L444.6,244h-3.1L493.5,192 M493.7,191.4l-52.8,52.8h3.8l49-49V191.4L493.7,191.4z"
				/>
		</g>
		<g>
			<polygon points="428.3,244.1 493.6,178.9 493.6,182.3 431.8,244.1 			"/>
			<path style="fill:#FFFFFF;" d="M493.5,179.2v3.1L431.7,244h-3.1L493.5,179.2 M493.7,178.6L428,244.2h3.8l61.9-61.9V178.6
				L493.7,178.6z"/>
		</g>
		<g>
			<polygon points="415.5,244.1 493.6,166 493.6,169.5 418.9,244.1 			"/>
			<path style="fill:#FFFFFF;" d="M493.5,166.3v3.1L418.9,244h-3.1L493.5,166.3 M493.7,165.7l-78.5,78.5h3.8l74.8-74.8V165.7
				L493.7,165.7z"/>
		</g>
		<g>
			<polygon points="402.6,244.1 483.6,163.1 487,163.2 406.1,244.1 			"/>
			<path style="fill:#FFFFFF;" d="M486.7,163.3L406,244h-3.1l80.7-80.7H486.7 M487.3,163.1L487.3,163.1L487.3,163.1z M487.3,163.1
				h-3.8l-81.2,81.2h3.8L487.3,163.1L487.3,163.1z"/>
		</g>
		<g>
			<polygon points="389.8,244.1 470.7,163.1 474.1,163.2 393.2,244.1 			"/>
			<path style="fill:#FFFFFF;" d="M473.8,163.3L393.1,244h-3.1l80.7-80.7H473.8 M474.4,163.1L474.4,163.1L474.4,163.1z M474.4,163.1
				h-3.8l-81.2,81.2h3.8L474.4,163.1L474.4,163.1z"/>
		</g>
		<g>
			<polygon points="376.9,244.1 457.9,163.1 461.3,163.2 380.3,244.1 			"/>
			<path style="fill:#FFFFFF;" d="M461,163.3L380.3,244h-3.1l80.7-80.7H461 M461.6,163.1L461.6,163.1L461.6,163.1z M461.6,163.1
				h-3.8l-81.2,81.2h3.8L461.6,163.1L461.6,163.1z"/>
		</g>
		<g>
			<polygon points="364,244.1 445,163.1 448.4,163.2 367.5,244.1 			"/>
			<path style="fill:#FFFFFF;" d="M448.1,163.3L367.4,244h-3.1l80.7-80.7H448.1 M448.7,163.1L448.7,163.1L448.7,163.1z M448.7,163.1
				h-3.8l-81.2,81.2h3.8L448.7,163.1L448.7,163.1z"/>
		</g>
		<g>
			<polygon points="351.2,244.1 432.2,163.1 435.6,163.2 354.6,244.1 			"/>
			<path style="fill:#FFFFFF;" d="M435.3,163.3L354.6,244h-3.1l80.7-80.7H435.3 M435.9,163.1L435.9,163.1L435.9,163.1z M435.9,163.1
				h-3.8l-81.2,81.2h3.8L435.9,163.1L435.9,163.1z"/>
		</g>
		<g>
			<polygon points="338.3,244.1 419.3,163.1 422.7,163.2 341.8,244.1 			"/>
			<path style="fill:#FFFFFF;" d="M422.4,163.3L341.7,244h-3.1l80.7-80.7H422.4 M423,163.1L423,163.1L423,163.1z M423,163.1h-3.8
				L338,244.2h3.8L423,163.1L423,163.1z"/>
		</g>
		<g>
			<polygon points="331.8,237.7 406.4,163.1 409.8,163.2 331.8,241.2 			"/>
			<path style="fill:#FFFFFF;" d="M409.5,163.3L332,240.9v-3.1l74.5-74.5H409.5 M410.1,163.1L410.1,163.1L410.1,163.1z M410.1,163.1
				h-3.8l-74.6,74.6v3.8L410.1,163.1L410.1,163.1z"/>
		</g>
		<g>
			<polygon points="331.8,224.8 393.6,163.1 397,163.2 331.8,228.3 			"/>
			<path style="fill:#FFFFFF;" d="M396.7,163.3L332,228v-3.1l61.6-61.6H396.7 M397.3,163.1L397.3,163.1L397.3,163.1z M397.3,163.1
				h-3.8l-61.8,61.8v3.8L397.3,163.1L397.3,163.1z"/>
		</g>
		<g>
			<polygon points="331.8,212 380.7,163.1 384.1,163.2 331.8,215.5 			"/>
			<path style="fill:#FFFFFF;" d="M383.8,163.3L332,215.2v-3.1l48.8-48.8H383.8 M384.4,163.1L384.4,163.1L384.4,163.1z M384.4,163.1
				h-3.8L331.7,212v3.8L384.4,163.1L384.4,163.1z"/>
		</g>
		<g>
			<polygon points="331.8,199.1 367.9,163.1 371.3,163.2 331.8,202.6 			"/>
			<path style="fill:#FFFFFF;" d="M371,163.3l-39,39v-3.1l35.9-35.9H371 M371.6,163.1L371.6,163.1L371.6,163.1z M371.6,163.1h-3.8
				l-36.1,36.1v3.8L371.6,163.1L371.6,163.1z"/>
		</g>
		<g>
			<polygon points="331.8,186.3 355,163.1 358.4,163.2 331.8,189.7 			"/>
			<path style="fill:#FFFFFF;" d="M358.1,163.3L332,189.4v-3.1l23.1-23.1H358.1 M358.7,163.1L358.7,163.1L358.7,163.1z M358.7,163.1
				h-3.8l-23.2,23.2v3.8L358.7,163.1L358.7,163.1z"/>
		</g>
		<g>
			<polygon points="331.8,173.4 342.1,163.1 345.6,163.2 331.8,176.9 			"/>
			<path style="fill:#FFFFFF;" d="M345.3,163.3L332,176.6v-3.1l10.2-10.2H345.3 M345.9,163.1L345.9,163.1L345.9,163.1z M345.9,163.1
				h-3.8l-10.3,10.3v3.8L345.9,163.1L345.9,163.1z"/>
		</g>
		<g>
			<polygon points="331.8,163.2 332.7,163.2 331.8,164 			"/>
			<path style="fill:#FFFFFF;" d="M332.4,163.3l-0.4,0.4v-0.4H332.4 M333,163.1L333,163.1L333,163.1z M333,163.1h-1.3v1.3L333,163.1
				L333,163.1z"/>
		</g>
	</g>
	<g>
		<g>
			<path style="fill:#FFFFFF;" d="M328.4,163.3v2.3L250,244h-8.4l80.7-80.7H328.4 M328.7,163.1h-6.4l-81.2,81.2h9.1l78.5-78.5V163.1
				L328.7,163.1z"/>
		</g>
		<g>
			<path style="fill:#FFFFFF;" d="M202.1,163.3l-35.2,35.2v-8.4l26.8-26.8H202.1 M202.7,163.1L202.7,163.1L202.7,163.1z
				 M202.7,163.1h-9.1l-27,27v9.1L202.7,163.1L202.7,163.1z"/>
		</g>
		<g>
			<path style="fill:#FFFFFF;" d="M215,163.3l-48.1,48.1V203l39.7-39.7H215 M215.6,163.1L215.6,163.1L215.6,163.1z M215.6,163.1
				h-9.1l-39.9,39.9v9.1L215.6,163.1L215.6,163.1z"/>
		</g>
		<g>
			<path style="fill:#FFFFFF;" d="M328.4,170.1v8.4L262.9,244h-8.4L328.4,170.1 M328.7,169.5l-74.8,74.8h9.1l65.7-65.7V169.5
				L328.7,169.5z"/>
		</g>
		<g>
			<path style="fill:#FFFFFF;" d="M317.9,163.3L237.2,244h-8.4l80.7-80.7H317.9 M318.5,163.1L318.5,163.1L318.5,163.1z M318.5,163.1
				h-9.1l-81.2,81.2h9.1L318.5,163.1L318.5,163.1z"/>
		</g>
		<g>
			<path style="fill:#FFFFFF;" d="M305,163.3L224.3,244H216l80.7-80.7H305 M305.6,163.1L305.6,163.1L305.6,163.1z M305.6,163.1h-9.1
				l-81.2,81.2h9.1L305.6,163.1L305.6,163.1z"/>
		</g>
		<g>
			<path style="fill:#FFFFFF;" d="M253.6,163.3L172.9,244h-5.9v-2.4l78.3-78.3H253.6 M254.2,163.1L254.2,163.1L254.2,163.1z
				 M254.2,163.1h-9.1l-78.4,78.4v2.8h6.3L254.2,163.1L254.2,163.1z"/>
		</g>
		<g>
			<path style="fill:#FFFFFF;" d="M279.3,163.3L198.6,244h-8.4l80.7-80.7H279.3 M279.9,163.1L279.9,163.1L279.9,163.1z M279.9,163.1
				h-9.1l-81.2,81.2h9.1L279.9,163.1L279.9,163.1z"/>
		</g>
		<g>
			<path style="fill:#FFFFFF;" d="M227.9,163.3l-60.9,60.9v-8.4l52.6-52.6H227.9 M228.5,163.1L228.5,163.1L228.5,163.1z
				 M228.5,163.1h-9.1l-52.7,52.7v9.1L228.5,163.1L228.5,163.1z"/>
		</g>
		<g>
			<path style="fill:#FFFFFF;" d="M292.1,163.3L211.5,244h-8.4l80.7-80.7H292.1 M292.7,163.1L292.7,163.1L292.7,163.1z M292.7,163.1
				h-9.1l-81.2,81.2h9.1L292.7,163.1L292.7,163.1z"/>
		</g>
		<g>
			<path style="fill:#FFFFFF;" d="M240.7,163.3l-73.8,73.8v-8.4l65.4-65.4H240.7 M241.3,163.1L241.3,163.1L241.3,163.1z
				 M241.3,163.1h-9.1l-65.6,65.6v9.1L241.3,163.1L241.3,163.1z"/>
		</g>
		<g>
			<path style="fill:#FFFFFF;" d="M266.4,163.3L185.7,244h-8.4l80.7-80.7H266.4 M267,163.1L267,163.1L267,163.1z M267,163.1H258
				l-81.2,81.2h9.1L267,163.1L267,163.1z"/>
		</g>
		<g>
			<path style="fill:#FFFFFF;" d="M328.4,221.5v8.4L314.3,244H306L328.4,221.5 M328.7,220.9l-23.3,23.3h9.1l14.3-14.3V220.9
				L328.7,220.9z"/>
		</g>
		<g>
			<path style="fill:#FFFFFF;" d="M328.4,208.7v8.4l-27,27h-8.4L328.4,208.7 M328.7,208.1l-36.2,36.2h9.1l27.1-27.1V208.1
				L328.7,208.1z"/>
		</g>
		<g>
			<path style="fill:#FFFFFF;" d="M176.4,163.3l-9.5,9.5v-8.4l1.1-1.1H176.4 M177,163.1L177,163.1L177,163.1z M177,163.1H168
				l-1.3,1.3v9.1L177,163.1L177,163.1z"/>
		</g>
		<g>
			<path style="fill:#FFFFFF;" d="M328.4,234.4v8.4l-1.3,1.3h-8.4L328.4,234.4 M328.7,233.8l-10.5,10.5h9.1l1.4-1.4V233.8
				L328.7,233.8z"/>
		</g>
		<g>
			<path style="fill:#FFFFFF;" d="M189.3,163.3l-22.3,22.3v-8.4l14-14H189.3 M189.9,163.1L189.9,163.1L189.9,163.1z M189.9,163.1
				h-9.1l-14.1,14.1v9.1L189.9,163.1L189.9,163.1z"/>
		</g>
		<g>
			<path style="fill:#FFFFFF;" d="M328.4,183v8.4L275.7,244h-8.4L328.4,183 M328.7,182.3l-61.9,61.9h9.1l52.8-52.8V182.3
				L328.7,182.3z"/>
		</g>
		<g>
			<path style="fill:#FFFFFF;" d="M328.4,195.8v8.4L288.6,244h-8.4L328.4,195.8 M328.7,195.2l-49,49h9.1l40-40V195.2L328.7,195.2z"
				/>
		</g>
		<g>
			<polygon points="327.6,244.1 328.6,243.1 328.6,244.1 			"/>
			<path style="fill:#FFFFFF;" d="M328.4,243.4v0.6h-0.6L328.4,243.4 M328.7,242.8l-1.4,1.4h1.4V242.8L328.7,242.8z"/>
		</g>
		<g>
			<polygon points="314.7,244.1 328.6,230.3 328.6,233.8 318.2,244.1 			"/>
			<path style="fill:#FFFFFF;" d="M328.4,230.6v3.1L318.1,244H315L328.4,230.6 M328.7,230l-14.3,14.3h3.8l10.5-10.5V230L328.7,230z"
				/>
		</g>
		<g>
			<polygon points="301.9,244.1 328.6,217.4 328.6,220.9 305.3,244.1 			"/>
			<path style="fill:#FFFFFF;" d="M328.4,217.7v3.1L305.3,244h-3.1L328.4,217.7 M328.7,217.1l-27.1,27.1h3.8l23.3-23.3V217.1
				L328.7,217.1z"/>
		</g>
		<g>
			<polygon points="289,244.1 328.6,204.6 328.6,208.1 292.5,244.1 			"/>
			<path style="fill:#FFFFFF;" d="M328.4,204.9v3.1l-36,36h-3.1L328.4,204.9 M328.7,204.3l-40,40h3.8l36.2-36.2V204.3L328.7,204.3z"
				/>
		</g>
		<g>
			<polygon points="276.2,244.1 328.6,191.7 328.6,195.2 279.6,244.1 			"/>
			<path style="fill:#FFFFFF;" d="M328.4,192v3.1L279.5,244h-3.1L328.4,192 M328.7,191.4l-52.8,52.8h3.8l49-49V191.4L328.7,191.4z"
				/>
		</g>
		<g>
			<polygon points="263.3,244.1 328.6,178.9 328.6,182.3 266.7,244.1 			"/>
			<path style="fill:#FFFFFF;" d="M328.4,179.2v3.1L266.7,244h-3.1L328.4,179.2 M328.7,178.6L263,244.2h3.8l61.9-61.9V178.6
				L328.7,178.6z"/>
		</g>
		<g>
			<polygon points="250.4,244.1 328.6,166 328.6,169.5 253.9,244.1 			"/>
			<path style="fill:#FFFFFF;" d="M328.4,166.3v3.1L253.8,244h-3.1L328.4,166.3 M328.7,165.7l-78.5,78.5h3.8l74.8-74.8V165.7
				L328.7,165.7z"/>
		</g>
		<g>
			<polygon points="237.6,244.1 318.6,163.1 322,163.2 241,244.1 			"/>
			<path style="fill:#FFFFFF;" d="M321.7,163.3L241,244h-3.1l80.7-80.7H321.7 M322.3,163.1L322.3,163.1L322.3,163.1z M322.3,163.1
				h-3.8l-81.2,81.2h3.8L322.3,163.1L322.3,163.1z"/>
		</g>
		<g>
			<polygon points="224.7,244.1 305.7,163.1 309.1,163.2 228.2,244.1 			"/>
			<path style="fill:#FFFFFF;" d="M308.8,163.3L228.1,244H225l80.7-80.7H308.8 M309.4,163.1L309.4,163.1L309.4,163.1z M309.4,163.1
				h-3.8l-81.2,81.2h3.8L309.4,163.1L309.4,163.1z"/>
		</g>
		<g>
			<polygon points="211.9,244.1 292.8,163.1 296.2,163.2 215.3,244.1 			"/>
			<path style="fill:#FFFFFF;" d="M295.9,163.3L215.3,244h-3.1l80.7-80.7H295.9 M296.5,163.1L296.5,163.1L296.5,163.1z M296.5,163.1
				h-3.8l-81.2,81.2h3.8L296.5,163.1L296.5,163.1z"/>
		</g>
		<g>
			<polygon points="199,244.1 280,163.1 283.4,163.2 202.4,244.1 			"/>
			<path style="fill:#FFFFFF;" d="M283.1,163.3L202.4,244h-3.1l80.7-80.7H283.1 M283.7,163.1L283.7,163.1L283.7,163.1z M283.7,163.1
				h-3.8l-81.2,81.2h3.8L283.7,163.1L283.7,163.1z"/>
		</g>
		<g>
			<polygon points="186.1,244.1 267.1,163.1 270.5,163.2 189.6,244.1 			"/>
			<path style="fill:#FFFFFF;" d="M270.2,163.3L189.5,244h-3.1l80.7-80.7H270.2 M270.8,163.1L270.8,163.1L270.8,163.1z M270.8,163.1
				H267l-81.2,81.2h3.8L270.8,163.1L270.8,163.1z"/>
		</g>
		<g>
			<polygon points="173.3,244.1 254.3,163.1 257.7,163.2 176.7,244.1 			"/>
			<path style="fill:#FFFFFF;" d="M257.4,163.3L176.7,244h-3.1l80.7-80.7H257.4 M258,163.1L258,163.1L258,163.1z M258,163.1h-3.8
				L173,244.2h3.8L258,163.1L258,163.1z"/>
		</g>
		<g>
			<polygon points="166.8,237.7 241.4,163.1 244.8,163.2 166.8,241.2 			"/>
			<path style="fill:#FFFFFF;" d="M244.5,163.3l-77.6,77.6v-3.1l74.5-74.5H244.5 M245.1,163.1L245.1,163.1L245.1,163.1z
				 M245.1,163.1h-3.8l-74.6,74.6v3.8L245.1,163.1L245.1,163.1z"/>
		</g>
		<g>
			<polygon points="166.8,224.8 228.5,163.1 232,163.2 166.8,228.3 			"/>
			<path style="fill:#FFFFFF;" d="M231.7,163.3L166.9,228v-3.1l61.6-61.6H231.7 M232.3,163.1L232.3,163.1L232.3,163.1z M232.3,163.1
				h-3.8l-61.8,61.8v3.8L232.3,163.1L232.3,163.1z"/>
		</g>
		<g>
			<polygon points="166.8,212 215.7,163.1 219.1,163.2 166.8,215.5 			"/>
			<path style="fill:#FFFFFF;" d="M218.8,163.3l-51.9,51.9v-3.1l48.8-48.8H218.8 M219.4,163.1L219.4,163.1L219.4,163.1z
				 M219.4,163.1h-3.8L166.7,212v3.8L219.4,163.1L219.4,163.1z"/>
		</g>
		<g>
			<polygon points="166.8,199.1 202.8,163.1 206.2,163.2 166.8,202.6 			"/>
			<path style="fill:#FFFFFF;" d="M205.9,163.3l-39,39v-3.1l35.9-35.9H205.9 M206.5,163.1L206.5,163.1L206.5,163.1z M206.5,163.1
				h-3.8l-36.1,36.1v3.8L206.5,163.1L206.5,163.1z"/>
		</g>
		<g>
			<polygon points="166.8,186.3 190,163.1 193.4,163.2 166.8,189.7 			"/>
			<path style="fill:#FFFFFF;" d="M193.1,163.3l-26.1,26.1v-3.1l23.1-23.1H193.1 M193.7,163.1L193.7,163.1L193.7,163.1z
				 M193.7,163.1h-3.8l-23.2,23.2v3.8L193.7,163.1L193.7,163.1z"/>
		</g>
		<g>
			<polygon points="166.8,173.4 177.1,163.1 180.5,163.2 166.8,176.9 			"/>
			<path style="fill:#FFFFFF;" d="M180.2,163.3l-13.3,13.3v-3.1l10.2-10.2H180.2 M180.8,163.1L180.8,163.1L180.8,163.1z
				 M180.8,163.1H177l-10.3,10.3v3.8L180.8,163.1L180.8,163.1z"/>
		</g>
		<g>
			<polygon points="166.8,163.2 167.7,163.2 166.8,164 			"/>
			<path style="fill:#FFFFFF;" d="M167.4,163.3l-0.4,0.4v-0.4H167.4 M168,163.1L168,163.1L168,163.1z M168,163.1h-1.3v1.3L168,163.1
				L168,163.1z"/>
		</g>
	</g>
	<g>
		<g>
			<path style="fill:#FFFFFF;" d="M163,163.3v2.3L84.6,244h-8.4l80.7-80.7H163 M163.3,163.1h-6.4l-81.2,81.2h9.1l78.5-78.5V163.1
				L163.3,163.1z"/>
		</g>
		<g>
			<path style="fill:#FFFFFF;" d="M36.7,163.3L1.5,198.5v-8.4l26.8-26.8H36.7 M37.3,163.1L37.3,163.1L37.3,163.1z M37.3,163.1h-9.1
				l-27,27v9.1L37.3,163.1L37.3,163.1z"/>
		</g>
		<g>
			<path style="fill:#FFFFFF;" d="M49.6,163.3L1.5,211.4V203l39.7-39.7H49.6 M50.2,163.1L50.2,163.1L50.2,163.1z M50.2,163.1h-9.1
				L1.3,202.9v9.1L50.2,163.1L50.2,163.1z"/>
		</g>
		<g>
			<path style="fill:#FFFFFF;" d="M163,170.1v8.4L97.5,244h-8.4L163,170.1 M163.3,169.5l-74.8,74.8h9.1l65.7-65.7V169.5L163.3,169.5
				z"/>
		</g>
		<g>
			<path style="fill:#FFFFFF;" d="M152.5,163.3L71.8,244h-8.4l80.7-80.7H152.5 M153.1,163.1L153.1,163.1L153.1,163.1z M153.1,163.1
				H144l-81.2,81.2h9.1L153.1,163.1L153.1,163.1z"/>
		</g>
		<g>
			<path style="fill:#FFFFFF;" d="M139.6,163.3L58.9,244h-8.4l80.7-80.7H139.6 M140.2,163.1L140.2,163.1L140.2,163.1z M140.2,163.1
				h-9.1L50,244.2H59L140.2,163.1L140.2,163.1z"/>
		</g>
		<g>
			<path style="fill:#FFFFFF;" d="M88.2,163.3L7.5,244H1.5v-2.4l78.3-78.3H88.2 M88.8,163.1L88.8,163.1L88.8,163.1z M88.8,163.1
				h-9.1L1.3,241.5v2.8h6.3L88.8,163.1L88.8,163.1z"/>
		</g>
		<g>
			<path style="fill:#FFFFFF;" d="M113.9,163.3L33.2,244h-8.4l80.7-80.7H113.9 M114.5,163.1L114.5,163.1L114.5,163.1z M114.5,163.1
				h-9.1l-81.2,81.2h9.1L114.5,163.1L114.5,163.1z"/>
		</g>
		<g>
			<path style="fill:#FFFFFF;" d="M62.5,163.3L1.5,224.2v-8.4l52.6-52.6H62.5 M63.1,163.1L63.1,163.1L63.1,163.1z M63.1,163.1H54
				L1.3,215.8v9.1L63.1,163.1L63.1,163.1z"/>
		</g>
		<g>
			<path style="fill:#FFFFFF;" d="M126.7,163.3L46.1,244h-8.4l80.7-80.7H126.7 M127.3,163.1L127.3,163.1L127.3,163.1z M127.3,163.1
				h-9.1l-81.2,81.2h9.1L127.3,163.1L127.3,163.1z"/>
		</g>
		<g>
			<path style="fill:#FFFFFF;" d="M75.3,163.3L1.5,237.1v-8.4L67,163.3H75.3 M75.9,163.1L75.9,163.1L75.9,163.1z M75.9,163.1h-9.1
				L1.3,228.6v9.1L75.9,163.1L75.9,163.1z"/>
		</g>
		<g>
			<path style="fill:#FFFFFF;" d="M101,163.3L20.3,244H12l80.7-80.7H101 M101.6,163.1L101.6,163.1L101.6,163.1z M101.6,163.1h-9.1
				l-81.2,81.2h9.1L101.6,163.1L101.6,163.1z"/>
		</g>
		<g>
			<path style="fill:#FFFFFF;" d="M163,221.5v8.4L148.9,244h-8.4L163,221.5 M163.3,220.9L140,244.2h9.1l14.3-14.3V220.9L163.3,220.9
				z"/>
		</g>
		<g>
			<path style="fill:#FFFFFF;" d="M163,208.7v8.4l-27,27h-8.4L163,208.7 M163.3,208.1l-36.2,36.2h9.1l27.1-27.1V208.1L163.3,208.1z"
				/>
		</g>
		<g>
			<path style="fill:#FFFFFF;" d="M11,163.3l-9.5,9.5v-8.4l1.1-1.1H11 M11.6,163.1L11.6,163.1L11.6,163.1z M11.6,163.1H2.6l-1.3,1.3
				v9.1L11.6,163.1L11.6,163.1z"/>
		</g>
		<g>
			<path style="fill:#FFFFFF;" d="M163,234.4v8.4l-1.3,1.3h-8.4L163,234.4 M163.3,233.8l-10.5,10.5h9.1l1.4-1.4V233.8L163.3,233.8z"
				/>
		</g>
		<g>
			<path style="fill:#FFFFFF;" d="M23.9,163.3L1.5,185.7v-8.4l14-14H23.9 M24.5,163.1L24.5,163.1L24.5,163.1z M24.5,163.1h-9.1
				L1.3,177.2v9.1L24.5,163.1L24.5,163.1z"/>
		</g>
		<g>
			<path style="fill:#FFFFFF;" d="M163,183v8.4L110.3,244H102L163,183 M163.3,182.3l-61.9,61.9h9.1l52.8-52.8V182.3L163.3,182.3z"/>
		</g>
		<g>
			<path style="fill:#FFFFFF;" d="M163,195.8v8.4L123.2,244h-8.4L163,195.8 M163.3,195.2l-49,49h9.1l40-40V195.2L163.3,195.2z"/>
		</g>
		<g>
			<polygon points="162.2,244.1 163.2,243.1 163.2,244.1 			"/>
			<path style="fill:#FFFFFF;" d="M163,243.4v0.6h-0.6L163,243.4 M163.3,242.8l-1.4,1.4h1.4V242.8L163.3,242.8z"/>
		</g>
		<g>
			<polygon points="149.3,244.1 163.2,230.3 163.2,233.8 152.8,244.1 			"/>
			<path style="fill:#FFFFFF;" d="M163,230.6v3.1L152.7,244h-3.1L163,230.6 M163.3,230L149,244.2h3.8l10.5-10.5V230L163.3,230z"/>
		</g>
		<g>
			<polygon points="136.5,244.1 163.2,217.4 163.2,220.9 139.9,244.1 			"/>
			<path style="fill:#FFFFFF;" d="M163,217.7v3.1L139.9,244h-3.1L163,217.7 M163.3,217.1l-27.1,27.1h3.8l23.3-23.3V217.1
				L163.3,217.1z"/>
		</g>
		<g>
			<polygon points="123.6,244.1 163.2,204.6 163.2,208.1 127,244.1 			"/>
			<path style="fill:#FFFFFF;" d="M163,204.9v3.1l-36,36h-3.1L163,204.9 M163.3,204.3l-40,40h3.8l36.2-36.2V204.3L163.3,204.3z"/>
		</g>
		<g>
			<polygon points="110.7,244.1 163.2,191.7 163.2,195.2 114.2,244.1 			"/>
			<path style="fill:#FFFFFF;" d="M163,192v3.1L114.1,244H111L163,192 M163.3,191.4l-52.8,52.8h3.8l49-49V191.4L163.3,191.4z"/>
		</g>
		<g>
			<polygon points="97.9,244.1 163.2,178.9 163.2,182.3 101.3,244.1 			"/>
			<path style="fill:#FFFFFF;" d="M163,179.2v3.1L101.3,244h-3.1L163,179.2 M163.3,178.6l-65.7,65.7h3.8l61.9-61.9V178.6
				L163.3,178.6z"/>
		</g>
		<g>
			<polygon points="85,244.1 163.2,166 163.2,169.5 88.5,244.1 			"/>
			<path style="fill:#FFFFFF;" d="M163,166.3v3.1L88.4,244h-3.1L163,166.3 M163.3,165.7l-78.5,78.5h3.8l74.8-74.8V165.7L163.3,165.7
				z"/>
		</g>
		<g>
			<polygon points="72.2,244.1 153.1,163.1 156.6,163.2 75.6,244.1 			"/>
			<path style="fill:#FFFFFF;" d="M156.2,163.3L75.6,244h-3.1l80.7-80.7H156.2 M156.9,163.1L156.9,163.1L156.9,163.1z M156.9,163.1
				h-3.8l-81.2,81.2h3.8L156.9,163.1L156.9,163.1z"/>
		</g>
		<g>
			<polygon points="59.3,244.1 140.3,163.1 143.7,163.2 62.8,244.1 			"/>
			<path style="fill:#FFFFFF;" d="M143.4,163.3L62.7,244h-3.1l80.7-80.7H143.4 M144,163.1L144,163.1L144,163.1z M144,163.1h-3.8
				L59,244.2h3.8L144,163.1L144,163.1z"/>
		</g>
		<g>
			<polygon points="46.5,244.1 127.4,163.1 130.8,163.2 49.9,244.1 			"/>
			<path style="fill:#FFFFFF;" d="M130.5,163.3L49.8,244h-3.1l80.7-80.7H130.5 M131.1,163.1L131.1,163.1L131.1,163.1z M131.1,163.1
				h-3.8l-81.2,81.2H50L131.1,163.1L131.1,163.1z"/>
		</g>
		<g>
			<polygon points="33.6,244.1 114.6,163.1 118,163.2 37,244.1 			"/>
			<path style="fill:#FFFFFF;" d="M117.7,163.3L37,244h-3.1l80.7-80.7H117.7 M118.3,163.1L118.3,163.1L118.3,163.1z M118.3,163.1
				h-3.8l-81.2,81.2h3.8L118.3,163.1L118.3,163.1z"/>
		</g>
		<g>
			<polygon points="20.7,244.1 101.7,163.1 105.1,163.2 24.2,244.1 			"/>
			<path style="fill:#FFFFFF;" d="M104.8,163.3L24.1,244H21l80.7-80.7H104.8 M105.4,163.1L105.4,163.1L105.4,163.1z M105.4,163.1
				h-3.8l-81.2,81.2h3.8L105.4,163.1L105.4,163.1z"/>
		</g>
		<g>
			<polygon points="7.9,244.1 88.9,163.1 92.3,163.2 11.3,244.1 			"/>
			<path style="fill:#FFFFFF;" d="M92,163.3L11.3,244H8.2l80.7-80.7H92 M92.6,163.1L92.6,163.1L92.6,163.1z M92.6,163.1h-3.8
				L7.6,244.2h3.8L92.6,163.1L92.6,163.1z"/>
		</g>
		<g>
			<polygon points="1.4,237.7 76,163.1 79.4,163.2 1.4,241.2 			"/>
			<path style="fill:#FFFFFF;" d="M79.1,163.3L1.5,240.9v-3.1L76,163.3H79.1 M79.7,163.1L79.7,163.1L79.7,163.1z M79.7,163.1h-3.8
				L1.3,237.7v3.8L79.7,163.1L79.7,163.1z"/>
		</g>
		<g>
			<polygon points="1.4,224.8 63.1,163.1 66.6,163.2 1.4,228.3 			"/>
			<path style="fill:#FFFFFF;" d="M66.2,163.3L1.5,228v-3.1l61.6-61.6H66.2 M66.9,163.1L66.9,163.1L66.9,163.1z M66.9,163.1h-3.8
				L1.3,224.8v3.8L66.9,163.1L66.9,163.1z"/>
		</g>
		<g>
			<polygon points="1.4,212 50.3,163.1 53.7,163.2 1.4,215.5 			"/>
			<path style="fill:#FFFFFF;" d="M53.4,163.3L1.5,215.2v-3.1l48.8-48.8H53.4 M54,163.1L54,163.1L54,163.1z M54,163.1h-3.8L1.3,212
				v3.8L54,163.1L54,163.1z"/>
		</g>
		<g>
			<polygon points="1.4,199.1 37.4,163.1 40.8,163.2 1.4,202.6 			"/>
			<path style="fill:#FFFFFF;" d="M40.5,163.3l-39,39v-3.1l35.9-35.9H40.5 M41.1,163.1L41.1,163.1L41.1,163.1z M41.1,163.1h-3.8
				L1.3,199.1v3.8L41.1,163.1L41.1,163.1z"/>
		</g>
		<g>
			<polygon points="1.4,186.3 24.6,163.1 28,163.2 1.4,189.7 			"/>
			<path style="fill:#FFFFFF;" d="M27.7,163.3L1.5,189.4v-3.1l23.1-23.1H27.7 M28.3,163.1L28.3,163.1L28.3,163.1z M28.3,163.1h-3.8
				L1.3,186.3v3.8L28.3,163.1L28.3,163.1z"/>
		</g>
		<g>
			<polygon points="1.4,173.4 11.7,163.1 15.1,163.2 1.4,176.9 			"/>
			<path style="fill:#FFFFFF;" d="M14.8,163.3L1.5,176.6v-3.1l10.2-10.2H14.8 M15.4,163.1L15.4,163.1L15.4,163.1z M15.4,163.1h-3.8
				L1.3,173.4v3.8L15.4,163.1L15.4,163.1z"/>
		</g>
		<g>
			<polygon points="1.4,163.2 2.3,163.2 1.4,164 			"/>
			<path style="fill:#FFFFFF;" d="M2,163.3l-0.4,0.4v-0.4H2 M2.6,163.1L2.6,163.1L2.6,163.1z M2.6,163.1H1.3v1.3L2.6,163.1
				L2.6,163.1z"/>
		</g>
	</g>
	<g>
		<g>
			<path style="fill:#FFFFFF;" d="M7.4,409.4l80.7,80.7h-8.4L1.3,411.7v-2.3H7.4 M7.5,409.2H1.1v2.6l78.5,78.5h9.1L7.5,409.2
				L7.5,409.2z"/>
		</g>
		<g>
			<path style="fill:#FFFFFF;" d="M136,409.4l26.8,26.8v8.4l-35.2-35.2H136 M136.1,409.2H127l36.1,36.1v-9.1L136.1,409.2
				L136.1,409.2z"/>
		</g>
		<g>
			<path style="fill:#FFFFFF;" d="M123.1,409.4l39.7,39.7v8.4l-48.1-48.1H123.1 M123.2,409.2h-9.1l48.9,48.9V449L123.2,409.2
				L123.2,409.2z"/>
		</g>
		<g>
			<path style="fill:#FFFFFF;" d="M1.3,416.2l73.9,73.9h-8.4L1.3,424.6V416.2 M1.1,415.6v9.1l65.7,65.7h9.1L1.1,415.6L1.1,415.6z"/>
		</g>
		<g>
			<path style="fill:#FFFFFF;" d="M20.2,409.4l80.7,80.7h-8.4l-80.7-80.7H20.2 M20.3,409.2h-9.1l81.2,81.2h9.1L20.3,409.2
				L20.3,409.2z"/>
		</g>
		<g>
			<path style="fill:#FFFFFF;" d="M33.1,409.4l80.7,80.7h-8.4l-80.7-80.7H33.1 M33.2,409.2h-9.1l81.2,81.2h9.1L33.2,409.2
				L33.2,409.2z"/>
		</g>
		<g>
			<path style="fill:#FFFFFF;" d="M84.5,409.4l78.3,78.3v2.4h-5.9l-80.7-80.7H84.5 M84.6,409.2h-9.1l81.2,81.2h6.3v-2.8L84.6,409.2
				L84.6,409.2z"/>
		</g>
		<g>
			<path style="fill:#FFFFFF;" d="M58.8,409.4l80.7,80.7h-8.4l-80.7-80.7H58.8 M58.9,409.2h-9.1l81.2,81.2h9.1L58.9,409.2
				L58.9,409.2z"/>
		</g>
		<g>
			<path style="fill:#FFFFFF;" d="M110.2,409.4l52.6,52.6v8.4l-60.9-60.9H110.2 M110.3,409.2h-9.1l61.8,61.8v-9.1L110.3,409.2
				L110.3,409.2z"/>
		</g>
		<g>
			<path style="fill:#FFFFFF;" d="M46,409.4l80.7,80.7h-8.4l-80.7-80.7H46 M46.1,409.2H37l81.2,81.2h9.1L46.1,409.2L46.1,409.2z"/>
		</g>
		<g>
			<path style="fill:#FFFFFF;" d="M97.4,409.4l65.4,65.4v8.4L89,409.4H97.4 M97.5,409.2h-9.1l74.6,74.6v-9.1L97.5,409.2L97.5,409.2z
				"/>
		</g>
		<g>
			<path style="fill:#FFFFFF;" d="M71.7,409.4l80.7,80.7H144l-80.7-80.7H71.7 M71.8,409.2h-9.1l81.2,81.2h9.1L71.8,409.2L71.8,409.2
				z"/>
		</g>
		<g>
			<path style="fill:#FFFFFF;" d="M1.3,467.6l22.5,22.5h-8.4L1.3,476V467.6 M1.1,467v9.1l14.3,14.3h9.1L1.1,467L1.1,467z"/>
		</g>
		<g>
			<path style="fill:#FFFFFF;" d="M1.3,454.8l35.3,35.3h-8.4l-27-27V454.8 M1.1,454.2v9.1l27.1,27.1h9.1L1.1,454.2L1.1,454.2z"/>
		</g>
		<g>
			<path style="fill:#FFFFFF;" d="M161.7,409.4l1.1,1.1v8.4l-9.5-9.5H161.7 M161.8,409.2h-9.1l10.3,10.3v-9.1L161.8,409.2
				L161.8,409.2z"/>
		</g>
		<g>
			<path style="fill:#FFFFFF;" d="M1.3,480.5l9.6,9.6H2.6l-1.3-1.3V480.5 M1.1,479.9v9.1l1.4,1.4h9.1L1.1,479.9L1.1,479.9z"/>
		</g>
		<g>
			<path style="fill:#FFFFFF;" d="M148.8,409.4l14,14v8.4l-22.3-22.3H148.8 M148.9,409.2h-9.1l23.2,23.2v-9.1L148.9,409.2
				L148.9,409.2z"/>
		</g>
		<g>
			<path style="fill:#FFFFFF;" d="M1.3,429.1l61,61H54L1.3,437.4V429.1 M1.1,428.5v9.1l52.8,52.8H63L1.1,428.5L1.1,428.5z"/>
		</g>
		<g>
			<path style="fill:#FFFFFF;" d="M1.3,441.9l48.2,48.2h-8.4L1.3,450.3V441.9 M1.1,441.3v9.1l40,40h9.1L1.1,441.3L1.1,441.3z"/>
		</g>
		<g>
			<polygon points="1.2,490.2 1.2,489.2 2.2,490.2 			"/>
			<path style="fill:#FFFFFF;" d="M1.3,489.5l0.6,0.6H1.3V489.5 M1.1,488.9v1.4h1.4L1.1,488.9L1.1,488.9z"/>
		</g>
		<g>
			<polygon points="11.5,490.2 1.2,479.8 1.2,476.4 15,490.2 			"/>
			<path style="fill:#FFFFFF;" d="M1.3,476.7l13.4,13.4h-3.1L1.3,479.8V476.7 M1.1,476.1v3.8l10.5,10.5h3.8L1.1,476.1L1.1,476.1z"/>
		</g>
		<g>
			<polygon points="24.4,490.2 1.2,466.9 1.2,463.5 27.9,490.2 			"/>
			<path style="fill:#FFFFFF;" d="M1.3,463.8l26.3,26.3h-3.1L1.3,466.9V463.8 M1.1,463.2v3.8l23.3,23.3h3.8L1.1,463.2L1.1,463.2z"/>
		</g>
		<g>
			<polygon points="37.2,490.2 1.2,454.1 1.2,450.7 40.7,490.2 			"/>
			<path style="fill:#FFFFFF;" d="M1.3,451l39.1,39.1h-3.1l-36-36V451 M1.1,450.4v3.8l36.2,36.2H41L1.1,450.4L1.1,450.4z"/>
		</g>
		<g>
			<polygon points="50.1,490.2 1.2,441.2 1.2,437.8 53.6,490.2 			"/>
			<path style="fill:#FFFFFF;" d="M1.3,438.1l52,52h-3.1L1.3,441.2V438.1 M1.1,437.5v3.8l49,49h3.8L1.1,437.5L1.1,437.5z"/>
		</g>
		<g>
			<polygon points="63,490.2 1.2,428.4 1.2,425 66.5,490.2 			"/>
			<path style="fill:#FFFFFF;" d="M1.3,425.3l64.8,64.8h-3.1L1.3,428.3V425.3 M1.1,424.7v3.8L63,490.3h3.8L1.1,424.7L1.1,424.7z"/>
		</g>
		<g>
			<polygon points="75.8,490.2 1.2,415.5 1.2,412.1 79.3,490.2 			"/>
			<path style="fill:#FFFFFF;" d="M1.3,412.4L79,490.1h-3.1L1.3,415.5V412.4 M1.1,411.8v3.8l74.8,74.8h3.8L1.1,411.8L1.1,411.8z"/>
		</g>
		<g>
			<polygon points="88.7,490.2 7.8,409.3 11.3,409.3 92.2,490.2 			"/>
			<path style="fill:#FFFFFF;" d="M11.2,409.4l80.7,80.7h-3.1L8.1,409.4H11.2 M11.3,409.2H7.5l81.2,81.2h3.8L11.3,409.2L11.3,409.2z
				"/>
		</g>
		<g>
			<polygon points="101.5,490.2 20.6,409.3 24.1,409.3 105,490.2 			"/>
			<path style="fill:#FFFFFF;" d="M24,409.4l80.7,80.7h-3.1l-80.7-80.7H24 M24.1,409.2h-3.8l81.2,81.2h3.8L24.1,409.2L24.1,409.2z"
				/>
		</g>
		<g>
			<polygon points="114.4,490.2 33.5,409.3 37,409.3 117.9,490.2 			"/>
			<path style="fill:#FFFFFF;" d="M36.9,409.4l80.7,80.7h-3.1l-80.7-80.7H36.9 M37,409.2h-3.8l81.2,81.2h3.8L37,409.2L37,409.2z"/>
		</g>
		<g>
			<polygon points="127.2,490.2 46.4,409.3 49.9,409.3 130.7,490.2 			"/>
			<path style="fill:#FFFFFF;" d="M49.8,409.4l80.7,80.7h-3.1l-80.7-80.7H49.8 M49.9,409.2h-3.8l81.2,81.2h3.8L49.9,409.2
				L49.9,409.2z"/>
		</g>
		<g>
			<polygon points="140.1,490.2 59.2,409.3 62.7,409.3 143.6,490.2 			"/>
			<path style="fill:#FFFFFF;" d="M62.6,409.4l80.7,80.7h-3.1l-80.7-80.7H62.6 M62.7,409.2h-3.8l81.2,81.2h3.8L62.7,409.2
				L62.7,409.2z"/>
		</g>
		<g>
			<polygon points="153,490.2 72.1,409.3 75.6,409.3 156.5,490.2 			"/>
			<path style="fill:#FFFFFF;" d="M75.5,409.4l80.7,80.7h-3.1l-80.7-80.7H75.5 M75.6,409.2h-3.8l81.2,81.2h3.8L75.6,409.2
				L75.6,409.2z"/>
		</g>
		<g>
			<polygon points="84.9,409.3 88.4,409.3 163,483.9 162.9,487.3 			"/>
			<path style="fill:#FFFFFF;" d="M88.3,409.4l74.5,74.5v3.1l-77.6-77.6H88.3 M88.4,409.2h-3.8l78.4,78.4v-3.8L88.4,409.2
				L88.4,409.2z"/>
		</g>
		<g>
			<polygon points="97.8,409.3 101.3,409.3 163,471 162.9,474.4 			"/>
			<path style="fill:#FFFFFF;" d="M101.2,409.4l61.6,61.6v3.1l-64.7-64.7H101.2 M101.3,409.2h-3.8l65.6,65.6v-3.8L101.3,409.2
				L101.3,409.2z"/>
		</g>
		<g>
			<polygon points="110.6,409.3 114.1,409.3 163,458.2 162.9,461.6 			"/>
			<path style="fill:#FFFFFF;" d="M114,409.4l48.8,48.8v3.1L111,409.4H114 M114.1,409.2h-3.8l52.7,52.7v-3.8L114.1,409.2
				L114.1,409.2z"/>
		</g>
		<g>
			<polygon points="123.5,409.3 127,409.3 163,445.3 162.9,448.7 			"/>
			<path style="fill:#FFFFFF;" d="M126.9,409.4l35.9,35.9v3.1l-39-39H126.9 M127,409.2h-3.8l39.9,39.9v-3.8L127,409.2L127,409.2z"/>
		</g>
		<g>
			<polygon points="136.4,409.3 139.9,409.3 163,432.4 162.9,435.9 			"/>
			<path style="fill:#FFFFFF;" d="M139.8,409.4l23.1,23.1v3.1l-26.1-26.1H139.8 M139.9,409.2h-3.8l27,27v-3.8L139.9,409.2
				L139.9,409.2z"/>
		</g>
		<g>
			<polygon points="149.2,409.3 152.7,409.3 163,419.6 162.9,423 			"/>
			<path style="fill:#FFFFFF;" d="M152.6,409.4l10.2,10.2v3.1l-13.3-13.3H152.6 M152.7,409.2h-3.8l14.1,14.1v-3.8L152.7,409.2
				L152.7,409.2z"/>
		</g>
		<g>
			<polygon points="162.1,409.3 162.9,409.3 162.9,410.1 			"/>
			<path style="fill:#FFFFFF;" d="M162.8,409.4v0.4l-0.4-0.4H162.8 M163.1,409.2h-1.3l1.3,1.3V409.2L163.1,409.2z"/>
		</g>
	</g>
	<g>
		<g>
			<path style="fill:#FFFFFF;" d="M172.8,409.4l80.7,80.7h-8.4l-78.4-78.4v-2.3H172.8 M172.9,409.2h-6.4v2.6l78.5,78.5h9.1
				L172.9,409.2L172.9,409.2z"/>
		</g>
		<g>
			<path style="fill:#FFFFFF;" d="M301.4,409.4l26.8,26.8v8.4L293,409.4H301.4 M301.5,409.2h-9.1l36.1,36.1v-9.1L301.5,409.2
				L301.5,409.2z"/>
		</g>
		<g>
			<path style="fill:#FFFFFF;" d="M288.5,409.4l39.7,39.7v8.4l-48.1-48.1H288.5 M288.6,409.2h-9.1l48.9,48.9V449L288.6,409.2
				L288.6,409.2z"/>
		</g>
		<g>
			<path style="fill:#FFFFFF;" d="M166.7,416.2l73.9,73.9h-8.4l-65.5-65.5V416.2 M166.5,415.6v9.1l65.7,65.7h9.1L166.5,415.6
				L166.5,415.6z"/>
		</g>
		<g>
			<path style="fill:#FFFFFF;" d="M185.6,409.4l80.7,80.7H258l-80.7-80.7H185.6 M185.8,409.2h-9.1l81.2,81.2h9.1L185.8,409.2
				L185.8,409.2z"/>
		</g>
		<g>
			<path style="fill:#FFFFFF;" d="M198.5,409.4l80.7,80.7h-8.4l-80.7-80.7H198.5 M198.6,409.2h-9.1l81.2,81.2h9.1L198.6,409.2
				L198.6,409.2z"/>
		</g>
		<g>
			<path style="fill:#FFFFFF;" d="M249.9,409.4l78.3,78.3v2.4h-5.9l-80.7-80.7H249.9 M250,409.2H241l81.2,81.2h6.3v-2.8L250,409.2
				L250,409.2z"/>
		</g>
		<g>
			<path style="fill:#FFFFFF;" d="M224.2,409.4l80.7,80.7h-8.4l-80.7-80.7H224.2 M224.3,409.2h-9.1l81.2,81.2h9.1L224.3,409.2
				L224.3,409.2z"/>
		</g>
		<g>
			<path style="fill:#FFFFFF;" d="M275.7,409.4l52.6,52.6v8.4l-60.9-60.9H275.7 M275.8,409.2h-9.1l61.8,61.8v-9.1L275.8,409.2
				L275.8,409.2z"/>
		</g>
		<g>
			<path style="fill:#FFFFFF;" d="M211.4,409.4l80.7,80.7h-8.4L203,409.4H211.4 M211.5,409.2h-9.1l81.2,81.2h9.1L211.5,409.2
				L211.5,409.2z"/>
		</g>
		<g>
			<path style="fill:#FFFFFF;" d="M262.8,409.4l65.4,65.4v8.4l-73.8-73.8H262.8 M262.9,409.2h-9.1l74.6,74.6v-9.1L262.9,409.2
				L262.9,409.2z"/>
		</g>
		<g>
			<path style="fill:#FFFFFF;" d="M237.1,409.4l80.7,80.7h-8.4l-80.7-80.7H237.1 M237.2,409.2h-9.1l81.2,81.2h9.1L237.2,409.2
				L237.2,409.2z"/>
		</g>
		<g>
			<path style="fill:#FFFFFF;" d="M166.7,467.6l22.5,22.5h-8.4L166.7,476V467.6 M166.5,467v9.1l14.3,14.3h9.1L166.5,467L166.5,467z"
				/>
		</g>
		<g>
			<path style="fill:#FFFFFF;" d="M166.7,454.8l35.3,35.3h-8.4l-27-27V454.8 M166.5,454.2v9.1l27.1,27.1h9.1L166.5,454.2
				L166.5,454.2z"/>
		</g>
		<g>
			<path style="fill:#FFFFFF;" d="M327.1,409.4l1.1,1.1v8.4l-9.5-9.5H327.1 M327.2,409.2h-9.1l10.3,10.3v-9.1L327.2,409.2
				L327.2,409.2z"/>
		</g>
		<g>
			<path style="fill:#FFFFFF;" d="M166.7,480.5l9.6,9.6H168l-1.3-1.3V480.5 M166.5,479.9v9.1l1.4,1.4h9.1L166.5,479.9L166.5,479.9z"
				/>
		</g>
		<g>
			<path style="fill:#FFFFFF;" d="M314.2,409.4l14,14v8.4l-22.3-22.3H314.2 M314.3,409.2h-9.1l23.2,23.2v-9.1L314.3,409.2
				L314.3,409.2z"/>
		</g>
		<g>
			<path style="fill:#FFFFFF;" d="M166.7,429.1l61,61h-8.4l-52.7-52.7V429.1 M166.5,428.5v9.1l52.8,52.8h9.1L166.5,428.5
				L166.5,428.5z"/>
		</g>
		<g>
			<path style="fill:#FFFFFF;" d="M166.7,441.9l48.2,48.2h-8.4l-39.8-39.8V441.9 M166.5,441.3v9.1l40,40h9.1L166.5,441.3
				L166.5,441.3z"/>
		</g>
		<g>
			<polygon points="166.6,490.2 166.6,489.2 167.6,490.2 			"/>
			<path style="fill:#FFFFFF;" d="M166.7,489.5l0.6,0.6h-0.6V489.5 M166.5,488.9v1.4h1.4L166.5,488.9L166.5,488.9z"/>
		</g>
		<g>
			<polygon points="176.9,490.2 166.6,479.8 166.6,476.4 180.4,490.2 			"/>
			<path style="fill:#FFFFFF;" d="M166.7,476.7l13.4,13.4H177l-10.3-10.3V476.7 M166.5,476.1v3.8l10.5,10.5h3.8L166.5,476.1
				L166.5,476.1z"/>
		</g>
		<g>
			<polygon points="189.8,490.2 166.6,466.9 166.6,463.5 193.3,490.2 			"/>
			<path style="fill:#FFFFFF;" d="M166.7,463.8l26.3,26.3h-3.1l-23.2-23.2V463.8 M166.5,463.2v3.8l23.3,23.3h3.8L166.5,463.2
				L166.5,463.2z"/>
		</g>
		<g>
			<polygon points="202.6,490.2 166.6,454.1 166.6,450.7 206.1,490.2 			"/>
			<path style="fill:#FFFFFF;" d="M166.7,451l39.1,39.1h-3.1l-36-36V451 M166.5,450.4v3.8l36.2,36.2h3.8L166.5,450.4L166.5,450.4z"
				/>
		</g>
		<g>
			<polygon points="215.5,490.2 166.6,441.2 166.6,437.8 219,490.2 			"/>
			<path style="fill:#FFFFFF;" d="M166.7,438.1l52,52h-3.1l-48.9-48.9V438.1 M166.5,437.5v3.8l49,49h3.8L166.5,437.5L166.5,437.5z"
				/>
		</g>
		<g>
			<polygon points="228.4,490.2 166.6,428.4 166.6,425 231.9,490.2 			"/>
			<path style="fill:#FFFFFF;" d="M166.7,425.3l64.8,64.8h-3.1l-61.7-61.7V425.3 M166.5,424.7v3.8l61.9,61.9h3.8L166.5,424.7
				L166.5,424.7z"/>
		</g>
		<g>
			<polygon points="241.2,490.2 166.6,415.5 166.6,412.1 244.7,490.2 			"/>
			<path style="fill:#FFFFFF;" d="M166.7,412.4l77.7,77.7h-3.1l-74.6-74.6V412.4 M166.5,411.8v3.8l74.8,74.8h3.8L166.5,411.8
				L166.5,411.8z"/>
		</g>
		<g>
			<polygon points="254.1,490.2 173.2,409.3 176.7,409.3 257.6,490.2 			"/>
			<path style="fill:#FFFFFF;" d="M176.6,409.4l80.7,80.7h-3.1l-80.7-80.7H176.6 M176.7,409.2h-3.8l81.2,81.2h3.8L176.7,409.2
				L176.7,409.2z"/>
		</g>
		<g>
			<polygon points="266.9,490.2 186.1,409.3 189.5,409.3 270.4,490.2 			"/>
			<path style="fill:#FFFFFF;" d="M189.4,409.4l80.7,80.7H267l-80.7-80.7H189.4 M189.5,409.2h-3.8l81.2,81.2h3.8L189.5,409.2
				L189.5,409.2z"/>
		</g>
		<g>
			<polygon points="279.8,490.2 198.9,409.3 202.4,409.3 283.3,490.2 			"/>
			<path style="fill:#FFFFFF;" d="M202.3,409.4l80.7,80.7h-3.1l-80.7-80.7H202.3 M202.4,409.2h-3.8l81.2,81.2h3.8L202.4,409.2
				L202.4,409.2z"/>
		</g>
		<g>
			<polygon points="292.7,490.2 211.8,409.3 215.3,409.3 296.1,490.2 			"/>
			<path style="fill:#FFFFFF;" d="M215.2,409.4l80.7,80.7h-3.1l-80.7-80.7H215.2 M215.3,409.2h-3.8l81.2,81.2h3.8L215.3,409.2
				L215.3,409.2z"/>
		</g>
		<g>
			<polygon points="305.5,490.2 224.6,409.3 228.1,409.3 309,490.2 			"/>
			<path style="fill:#FFFFFF;" d="M228,409.4l80.7,80.7h-3.1l-80.7-80.7H228 M228.1,409.2h-3.8l81.2,81.2h3.8L228.1,409.2
				L228.1,409.2z"/>
		</g>
		<g>
			<polygon points="318.4,490.2 237.5,409.3 241,409.3 321.9,490.2 			"/>
			<path style="fill:#FFFFFF;" d="M240.9,409.4l80.7,80.7h-3.1l-80.7-80.7H240.9 M241,409.2h-3.8l81.2,81.2h3.8L241,409.2L241,409.2
				z"/>
		</g>
		<g>
			<polygon points="250.3,409.3 253.8,409.3 328.4,483.9 328.3,487.3 			"/>
			<path style="fill:#FFFFFF;" d="M253.7,409.4l74.5,74.5v3.1l-77.6-77.6H253.7 M253.8,409.2H250l78.4,78.4v-3.8L253.8,409.2
				L253.8,409.2z"/>
		</g>
		<g>
			<polygon points="263.2,409.3 266.7,409.3 328.4,471 328.3,474.4 			"/>
			<path style="fill:#FFFFFF;" d="M266.6,409.4l61.6,61.6v3.1l-64.7-64.7H266.6 M266.7,409.2h-3.8l65.6,65.6v-3.8L266.7,409.2
				L266.7,409.2z"/>
		</g>
		<g>
			<polygon points="276.1,409.3 279.6,409.3 328.4,458.2 328.3,461.6 			"/>
			<path style="fill:#FFFFFF;" d="M279.4,409.4l48.8,48.8v3.1l-51.9-51.9H279.4 M279.6,409.2h-3.8l52.7,52.7v-3.8L279.6,409.2
				L279.6,409.2z"/>
		</g>
		<g>
			<polygon points="288.9,409.3 292.4,409.3 328.4,445.3 328.3,448.7 			"/>
			<path style="fill:#FFFFFF;" d="M292.3,409.4l35.9,35.9v3.1l-39-39H292.3 M292.4,409.2h-3.8l39.9,39.9v-3.8L292.4,409.2
				L292.4,409.2z"/>
		</g>
		<g>
			<polygon points="301.8,409.3 305.3,409.3 328.4,432.4 328.3,435.9 			"/>
			<path style="fill:#FFFFFF;" d="M305.2,409.4l23.1,23.1v3.1l-26.1-26.1H305.2 M305.3,409.2h-3.8l27,27v-3.8L305.3,409.2
				L305.3,409.2z"/>
		</g>
		<g>
			<polygon points="314.6,409.3 318.1,409.3 328.4,419.6 328.3,423 			"/>
			<path style="fill:#FFFFFF;" d="M318,409.4l10.2,10.2v3.1l-13.3-13.3H318 M318.1,409.2h-3.8l14.1,14.1v-3.8L318.1,409.2
				L318.1,409.2z"/>
		</g>
		<g>
			<polygon points="327.5,409.3 328.3,409.3 328.3,410.1 			"/>
			<path style="fill:#FFFFFF;" d="M328.2,409.4v0.4l-0.4-0.4H328.2 M328.5,409.2h-1.3l1.3,1.3V409.2L328.5,409.2z"/>
		</g>
	</g>
	<g>
		<g>
			<path style="fill:#FFFFFF;" d="M337.8,409.4l80.7,80.7h-8.4l-78.4-78.4v-2.3H337.8 M337.9,409.2h-6.4v2.6l78.5,78.5h9.1
				L337.9,409.2L337.9,409.2z"/>
		</g>
		<g>
			<path style="fill:#FFFFFF;" d="M466.4,409.4l26.8,26.8v8.4L458,409.4H466.4 M466.5,409.2h-9.1l36.1,36.1v-9.1L466.5,409.2
				L466.5,409.2z"/>
		</g>
		<g>
			<path style="fill:#FFFFFF;" d="M453.5,409.4l39.7,39.7v8.4l-48.1-48.1H453.5 M453.6,409.2h-9.1l48.9,48.9V449L453.6,409.2
				L453.6,409.2z"/>
		</g>
		<g>
			<path style="fill:#FFFFFF;" d="M331.8,416.2l73.9,73.9h-8.4l-65.5-65.5V416.2 M331.5,415.6v9.1l65.7,65.7h9.1L331.5,415.6
				L331.5,415.6z"/>
		</g>
		<g>
			<path style="fill:#FFFFFF;" d="M350.7,409.4l80.7,80.7H423l-80.7-80.7H350.7 M350.8,409.2h-9.1l81.2,81.2h9.1L350.8,409.2
				L350.8,409.2z"/>
		</g>
		<g>
			<path style="fill:#FFFFFF;" d="M363.5,409.4l80.7,80.7h-8.4l-80.7-80.7H363.5 M363.6,409.2h-9.1l81.2,81.2h9.1L363.6,409.2
				L363.6,409.2z"/>
		</g>
		<g>
			<path style="fill:#FFFFFF;" d="M415,409.4l78.3,78.3v2.4h-5.9l-80.7-80.7H415 M415.1,409.2H406l81.2,81.2h6.3v-2.8L415.1,409.2
				L415.1,409.2z"/>
		</g>
		<g>
			<path style="fill:#FFFFFF;" d="M389.3,409.4l80.7,80.7h-8.4l-80.7-80.7H389.3 M389.4,409.2h-9.1l81.2,81.2h9.1L389.4,409.2
				L389.4,409.2z"/>
		</g>
		<g>
			<path style="fill:#FFFFFF;" d="M440.7,409.4l52.6,52.6v8.4l-60.9-60.9H440.7 M440.8,409.2h-9.1l61.8,61.8v-9.1L440.8,409.2
				L440.8,409.2z"/>
		</g>
		<g>
			<path style="fill:#FFFFFF;" d="M376.4,409.4l80.7,80.7h-8.4L368,409.4H376.4 M376.5,409.2h-9.1l81.2,81.2h9.1L376.5,409.2
				L376.5,409.2z"/>
		</g>
		<g>
			<path style="fill:#FFFFFF;" d="M427.8,409.4l65.4,65.4v8.4l-73.8-73.8H427.8 M427.9,409.2h-9.1l74.6,74.6v-9.1L427.9,409.2
				L427.9,409.2z"/>
		</g>
		<g>
			<path style="fill:#FFFFFF;" d="M402.1,409.4l80.7,80.7h-8.4l-80.7-80.7H402.1 M402.2,409.2h-9.1l81.2,81.2h9.1L402.2,409.2
				L402.2,409.2z"/>
		</g>
		<g>
			<path style="fill:#FFFFFF;" d="M331.8,467.6l22.5,22.5h-8.4L331.8,476V467.6 M331.5,467v9.1l14.3,14.3h9.1L331.5,467L331.5,467z"
				/>
		</g>
		<g>
			<path style="fill:#FFFFFF;" d="M331.8,454.8l35.3,35.3h-8.4l-27-27V454.8 M331.5,454.2v9.1l27.1,27.1h9.1L331.5,454.2
				L331.5,454.2z"/>
		</g>
		<g>
			<path style="fill:#FFFFFF;" d="M492.1,409.4l1.1,1.1v8.4l-9.5-9.5H492.1 M492.2,409.2h-9.1l10.3,10.3v-9.1L492.2,409.2
				L492.2,409.2z"/>
		</g>
		<g>
			<path style="fill:#FFFFFF;" d="M331.8,480.5l9.6,9.6H333l-1.3-1.3V480.5 M331.5,479.9v9.1l1.4,1.4h9.1L331.5,479.9L331.5,479.9z"
				/>
		</g>
		<g>
			<path style="fill:#FFFFFF;" d="M479.3,409.4l14,14v8.4l-22.3-22.3H479.3 M479.4,409.2h-9.1l23.2,23.2v-9.1L479.4,409.2
				L479.4,409.2z"/>
		</g>
		<g>
			<path style="fill:#FFFFFF;" d="M331.8,429.1l61,61h-8.4l-52.7-52.7V429.1 M331.5,428.5v9.1l52.8,52.8h9.1L331.5,428.5
				L331.5,428.5z"/>
		</g>
		<g>
			<path style="fill:#FFFFFF;" d="M331.8,441.9l48.2,48.2h-8.4l-39.8-39.8V441.9 M331.5,441.3v9.1l40,40h9.1L331.5,441.3
				L331.5,441.3z"/>
		</g>
		<g>
			<polygon points="331.6,490.2 331.6,489.2 332.6,490.2 			"/>
			<path style="fill:#FFFFFF;" d="M331.8,489.5l0.6,0.6h-0.6V489.5 M331.5,488.9v1.4h1.4L331.5,488.9L331.5,488.9z"/>
		</g>
		<g>
			<polygon points="342,490.2 331.6,479.8 331.6,476.4 345.5,490.2 			"/>
			<path style="fill:#FFFFFF;" d="M331.8,476.7l13.4,13.4h-3.1l-10.3-10.3V476.7 M331.5,476.1v3.8l10.5,10.5h3.8L331.5,476.1
				L331.5,476.1z"/>
		</g>
		<g>
			<polygon points="354.8,490.2 331.6,466.9 331.6,463.5 358.3,490.2 			"/>
			<path style="fill:#FFFFFF;" d="M331.8,463.8l26.3,26.3h-3.1l-23.2-23.2V463.8 M331.5,463.2v3.8l23.3,23.3h3.8L331.5,463.2
				L331.5,463.2z"/>
		</g>
		<g>
			<polygon points="367.7,490.2 331.6,454.1 331.6,450.7 371.2,490.2 			"/>
			<path style="fill:#FFFFFF;" d="M331.8,451l39.1,39.1h-3.1l-36-36V451 M331.5,450.4v3.8l36.2,36.2h3.8L331.5,450.4L331.5,450.4z"
				/>
		</g>
		<g>
			<polygon points="380.5,490.2 331.6,441.2 331.6,437.8 384,490.2 			"/>
			<path style="fill:#FFFFFF;" d="M331.8,438.1l52,52h-3.1l-48.9-48.9V438.1 M331.5,437.5v3.8l49,49h3.8L331.5,437.5L331.5,437.5z"
				/>
		</g>
		<g>
			<polygon points="393.4,490.2 331.6,428.4 331.6,425 396.9,490.2 			"/>
			<path style="fill:#FFFFFF;" d="M331.8,425.3l64.8,64.8h-3.1l-61.7-61.7V425.3 M331.5,424.7v3.8l61.9,61.9h3.8L331.5,424.7
				L331.5,424.7z"/>
		</g>
		<g>
			<polygon points="406.3,490.2 331.6,415.5 331.6,412.1 409.7,490.2 			"/>
			<path style="fill:#FFFFFF;" d="M331.8,412.4l77.7,77.7h-3.1l-74.6-74.6V412.4 M331.5,411.8v3.8l74.8,74.8h3.8L331.5,411.8
				L331.5,411.8z"/>
		</g>
		<g>
			<polygon points="419.1,490.2 338.2,409.3 341.7,409.3 422.6,490.2 			"/>
			<path style="fill:#FFFFFF;" d="M341.6,409.4l80.7,80.7h-3.1l-80.7-80.7H341.6 M341.7,409.2h-3.8l81.2,81.2h3.8L341.7,409.2
				L341.7,409.2z"/>
		</g>
		<g>
			<polygon points="432,490.2 351.1,409.3 354.6,409.3 435.5,490.2 			"/>
			<path style="fill:#FFFFFF;" d="M354.5,409.4l80.7,80.7h-3.1l-80.7-80.7H354.5 M354.6,409.2h-3.8l81.2,81.2h3.8L354.6,409.2
				L354.6,409.2z"/>
		</g>
		<g>
			<polygon points="444.8,490.2 363.9,409.3 367.4,409.3 448.3,490.2 			"/>
			<path style="fill:#FFFFFF;" d="M367.3,409.4l80.7,80.7h-3.1l-80.7-80.7H367.3 M367.4,409.2h-3.8l81.2,81.2h3.8L367.4,409.2
				L367.4,409.2z"/>
		</g>
		<g>
			<polygon points="457.7,490.2 376.8,409.3 380.3,409.3 461.2,490.2 			"/>
			<path style="fill:#FFFFFF;" d="M380.2,409.4l80.7,80.7h-3.1l-80.7-80.7H380.2 M380.3,409.2h-3.8l81.2,81.2h3.8L380.3,409.2
				L380.3,409.2z"/>
		</g>
		<g>
			<polygon points="470.5,490.2 389.7,409.3 393.2,409.3 474,490.2 			"/>
			<path style="fill:#FFFFFF;" d="M393,409.4l80.7,80.7h-3.1L390,409.4H393 M393.2,409.2h-3.8l81.2,81.2h3.8L393.2,409.2
				L393.2,409.2z"/>
		</g>
		<g>
			<polygon points="483.4,490.2 402.5,409.3 406,409.3 486.9,490.2 			"/>
			<path style="fill:#FFFFFF;" d="M405.9,409.4l80.7,80.7h-3.1l-80.7-80.7H405.9 M406,409.2h-3.8l81.2,81.2h3.8L406,409.2L406,409.2
				z"/>
		</g>
		<g>
			<polygon points="415.4,409.3 418.9,409.3 493.4,483.9 493.4,487.3 			"/>
			<path style="fill:#FFFFFF;" d="M418.8,409.4l74.5,74.5v3.1l-77.6-77.6H418.8 M418.9,409.2h-3.8l78.4,78.4v-3.8L418.9,409.2
				L418.9,409.2z"/>
		</g>
		<g>
			<polygon points="428.2,409.3 431.7,409.3 493.4,471 493.4,474.4 			"/>
			<path style="fill:#FFFFFF;" d="M431.6,409.4l61.6,61.6v3.1l-64.7-64.7H431.6 M431.7,409.2h-3.8l65.6,65.6v-3.8L431.7,409.2
				L431.7,409.2z"/>
		</g>
		<g>
			<polygon points="441.1,409.3 444.6,409.3 493.4,458.2 493.4,461.6 			"/>
			<path style="fill:#FFFFFF;" d="M444.5,409.4l48.8,48.8v3.1l-51.9-51.9H444.5 M444.6,409.2h-3.8l52.7,52.7v-3.8L444.6,409.2
				L444.6,409.2z"/>
		</g>
		<g>
			<polygon points="453.9,409.3 457.4,409.3 493.4,445.3 493.4,448.7 			"/>
			<path style="fill:#FFFFFF;" d="M457.3,409.4l35.9,35.9v3.1l-39-39H457.3 M457.4,409.2h-3.8l39.9,39.9v-3.8L457.4,409.2
				L457.4,409.2z"/>
		</g>
		<g>
			<polygon points="466.8,409.3 470.3,409.3 493.4,432.4 493.4,435.9 			"/>
			<path style="fill:#FFFFFF;" d="M470.2,409.4l23.1,23.1v3.1l-26.1-26.1H470.2 M470.3,409.2h-3.8l27,27v-3.8L470.3,409.2
				L470.3,409.2z"/>
		</g>
		<g>
			<polygon points="479.7,409.3 483.2,409.3 493.4,419.6 493.4,423 			"/>
			<path style="fill:#FFFFFF;" d="M483.1,409.4l10.2,10.2v3.1L480,409.4H483.1 M483.2,409.2h-3.8l14.1,14.1v-3.8L483.2,409.2
				L483.2,409.2z"/>
		</g>
		<g>
			<polygon points="492.5,409.3 493.4,409.3 493.4,410.1 			"/>
			<path style="fill:#FFFFFF;" d="M493.2,409.4v0.4l-0.4-0.4H493.2 M493.5,409.2h-1.3l1.3,1.3V409.2L493.5,409.2z"/>
		</g>
	</g>
	<g>
		<g>
			<path style="fill:#FFFFFF;" d="M503.2,409.4l80.7,80.7h-8.4l-78.4-78.4v-2.3H503.2 M503.3,409.2h-6.4v2.6l78.5,78.5h9.1
				L503.3,409.2L503.3,409.2z"/>
		</g>
		<g>
			<path style="fill:#FFFFFF;" d="M631.8,409.4l26.8,26.8v8.4l-35.2-35.2H631.8 M631.9,409.2h-9.1l36.1,36.1v-9.1L631.9,409.2
				L631.9,409.2z"/>
		</g>
		<g>
			<path style="fill:#FFFFFF;" d="M618.9,409.4l39.7,39.7v8.4l-48.1-48.1H618.9 M619,409.2H610l48.9,48.9V449L619,409.2L619,409.2z"
				/>
		</g>
		<g>
			<path style="fill:#FFFFFF;" d="M497.2,416.2l73.9,73.9h-8.4l-65.5-65.5V416.2 M496.9,415.6v9.1l65.7,65.7h9.1L496.9,415.6
				L496.9,415.6z"/>
		</g>
		<g>
			<path style="fill:#FFFFFF;" d="M516.1,409.4l80.7,80.7h-8.4l-80.7-80.7H516.1 M516.2,409.2h-9.1l81.2,81.2h9.1L516.2,409.2
				L516.2,409.2z"/>
		</g>
		<g>
			<path style="fill:#FFFFFF;" d="M528.9,409.4l80.7,80.7h-8.4l-80.7-80.7H528.9 M529,409.2H520l81.2,81.2h9.1L529,409.2L529,409.2z
				"/>
		</g>
		<g>
			<path style="fill:#FFFFFF;" d="M580.4,409.4l78.3,78.3v2.4h-5.9L572,409.4H580.4 M580.5,409.2h-9.1l81.2,81.2h6.3v-2.8
				L580.5,409.2L580.5,409.2z"/>
		</g>
		<g>
			<path style="fill:#FFFFFF;" d="M554.7,409.4l80.7,80.7H627l-80.7-80.7H554.7 M554.8,409.2h-9.1l81.2,81.2h9.1L554.8,409.2
				L554.8,409.2z"/>
		</g>
		<g>
			<path style="fill:#FFFFFF;" d="M606.1,409.4l52.6,52.6v8.4l-60.9-60.9H606.1 M606.2,409.2h-9.1l61.8,61.8v-9.1L606.2,409.2
				L606.2,409.2z"/>
		</g>
		<g>
			<path style="fill:#FFFFFF;" d="M541.8,409.4l80.7,80.7h-8.4l-80.7-80.7H541.8 M541.9,409.2h-9.1l81.2,81.2h9.1L541.9,409.2
				L541.9,409.2z"/>
		</g>
		<g>
			<path style="fill:#FFFFFF;" d="M593.2,409.4l65.4,65.4v8.4l-73.8-73.8H593.2 M593.3,409.2h-9.1l74.6,74.6v-9.1L593.3,409.2
				L593.3,409.2z"/>
		</g>
		<g>
			<path style="fill:#FFFFFF;" d="M567.5,409.4l80.7,80.7h-8.4l-80.7-80.7H567.5 M567.6,409.2h-9.1l81.2,81.2h9.1L567.6,409.2
				L567.6,409.2z"/>
		</g>
		<g>
			<path style="fill:#FFFFFF;" d="M497.2,467.6l22.5,22.5h-8.4L497.2,476V467.6 M496.9,467v9.1l14.3,14.3h9.1L496.9,467L496.9,467z"
				/>
		</g>
		<g>
			<path style="fill:#FFFFFF;" d="M497.2,454.8l35.3,35.3h-8.4l-27-27V454.8 M496.9,454.2v9.1l27.1,27.1h9.1L496.9,454.2
				L496.9,454.2z"/>
		</g>
		<g>
			<path style="fill:#FFFFFF;" d="M657.5,409.4l1.1,1.1v8.4l-9.5-9.5H657.5 M657.6,409.2h-9.1l10.3,10.3v-9.1L657.6,409.2
				L657.6,409.2z"/>
		</g>
		<g>
			<path style="fill:#FFFFFF;" d="M497.2,480.5l9.6,9.6h-8.4l-1.3-1.3V480.5 M496.9,479.9v9.1l1.4,1.4h9.1L496.9,479.9L496.9,479.9z
				"/>
		</g>
		<g>
			<path style="fill:#FFFFFF;" d="M644.7,409.4l14,14v8.4l-22.3-22.3H644.7 M644.8,409.2h-9.1l23.2,23.2v-9.1L644.8,409.2
				L644.8,409.2z"/>
		</g>
		<g>
			<path style="fill:#FFFFFF;" d="M497.2,429.1l61,61h-8.4l-52.7-52.7V429.1 M496.9,428.5v9.1l52.8,52.8h9.1L496.9,428.5
				L496.9,428.5z"/>
		</g>
		<g>
			<path style="fill:#FFFFFF;" d="M497.2,441.9l48.2,48.2H537l-39.8-39.8V441.9 M496.9,441.3v9.1l40,40h9.1L496.9,441.3L496.9,441.3
				z"/>
		</g>
		<g>
			<polygon points="497,490.2 497,489.2 498,490.2 			"/>
			<path style="fill:#FFFFFF;" d="M497.2,489.5l0.6,0.6h-0.6V489.5 M496.9,488.9v1.4h1.4L496.9,488.9L496.9,488.9z"/>
		</g>
		<g>
			<polygon points="507.4,490.2 497,479.8 497,476.4 510.9,490.2 			"/>
			<path style="fill:#FFFFFF;" d="M497.2,476.7l13.4,13.4h-3.1l-10.3-10.3V476.7 M496.9,476.1v3.8l10.5,10.5h3.8L496.9,476.1
				L496.9,476.1z"/>
		</g>
		<g>
			<polygon points="520.2,490.2 497,466.9 497,463.5 523.7,490.2 			"/>
			<path style="fill:#FFFFFF;" d="M497.2,463.8l26.3,26.3h-3.1l-23.2-23.2V463.8 M496.9,463.2v3.8l23.3,23.3h3.8L496.9,463.2
				L496.9,463.2z"/>
		</g>
		<g>
			<polygon points="533.1,490.2 497,454.1 497,450.7 536.6,490.2 			"/>
			<path style="fill:#FFFFFF;" d="M497.2,451l39.1,39.1h-3.1l-36-36V451 M496.9,450.4v3.8l36.2,36.2h3.8L496.9,450.4L496.9,450.4z"
				/>
		</g>
		<g>
			<polygon points="545.9,490.2 497,441.2 497,437.8 549.4,490.2 			"/>
			<path style="fill:#FFFFFF;" d="M497.2,438.1l52,52H546l-48.9-48.9V438.1 M496.9,437.5v3.8l49,49h3.8L496.9,437.5L496.9,437.5z"/>
		</g>
		<g>
			<polygon points="558.8,490.2 497,428.4 497,425 562.3,490.2 			"/>
			<path style="fill:#FFFFFF;" d="M497.2,425.3l64.8,64.8h-3.1l-61.7-61.7V425.3 M496.9,424.7v3.8l61.9,61.9h3.8L496.9,424.7
				L496.9,424.7z"/>
		</g>
		<g>
			<polygon points="571.7,490.2 497,415.5 497,412.1 575.2,490.2 			"/>
			<path style="fill:#FFFFFF;" d="M497.2,412.4l77.7,77.7h-3.1l-74.6-74.6V412.4 M496.9,411.8v3.8l74.8,74.8h3.8L496.9,411.8
				L496.9,411.8z"/>
		</g>
		<g>
			<polygon points="584.5,490.2 503.6,409.3 507.1,409.3 588,490.2 			"/>
			<path style="fill:#FFFFFF;" d="M507,409.4l80.7,80.7h-3.1l-80.7-80.7H507 M507.1,409.2h-3.8l81.2,81.2h3.8L507.1,409.2
				L507.1,409.2z"/>
		</g>
		<g>
			<polygon points="597.4,490.2 516.5,409.3 520,409.3 600.9,490.2 			"/>
			<path style="fill:#FFFFFF;" d="M519.9,409.4l80.7,80.7h-3.1l-80.7-80.7H519.9 M520,409.2h-3.8l81.2,81.2h3.8L520,409.2L520,409.2
				z"/>
		</g>
		<g>
			<polygon points="610.2,490.2 529.3,409.3 532.8,409.3 613.7,490.2 			"/>
			<path style="fill:#FFFFFF;" d="M532.7,409.4l80.7,80.7h-3.1l-80.7-80.7H532.7 M532.8,409.2H529l81.2,81.2h3.8L532.8,409.2
				L532.8,409.2z"/>
		</g>
		<g>
			<polygon points="623.1,490.2 542.2,409.3 545.7,409.3 626.6,490.2 			"/>
			<path style="fill:#FFFFFF;" d="M545.6,409.4l80.7,80.7h-3.1l-80.7-80.7H545.6 M545.7,409.2h-3.8l81.2,81.2h3.8L545.7,409.2
				L545.7,409.2z"/>
		</g>
		<g>
			<polygon points="635.9,490.2 555.1,409.3 558.6,409.3 639.4,490.2 			"/>
			<path style="fill:#FFFFFF;" d="M558.5,409.4l80.7,80.7h-3.1l-80.7-80.7H558.5 M558.6,409.2h-3.8l81.2,81.2h3.8L558.6,409.2
				L558.6,409.2z"/>
		</g>
		<g>
			<polygon points="648.8,490.2 567.9,409.3 571.4,409.3 652.3,490.2 			"/>
			<path style="fill:#FFFFFF;" d="M571.3,409.4l80.7,80.7h-3.1l-80.7-80.7H571.3 M571.4,409.2h-3.8l81.2,81.2h3.8L571.4,409.2
				L571.4,409.2z"/>
		</g>
		<g>
			<polygon points="580.8,409.3 584.3,409.3 658.8,483.9 658.8,487.3 			"/>
			<path style="fill:#FFFFFF;" d="M584.2,409.4l74.5,74.5v3.1l-77.6-77.6H584.2 M584.3,409.2h-3.8l78.4,78.4v-3.8L584.3,409.2
				L584.3,409.2z"/>
		</g>
		<g>
			<polygon points="593.6,409.3 597.1,409.3 658.8,471 658.8,474.4 			"/>
			<path style="fill:#FFFFFF;" d="M597,409.4l61.6,61.6v3.1l-64.7-64.7H597 M597.1,409.2h-3.8l65.6,65.6v-3.8L597.1,409.2
				L597.1,409.2z"/>
		</g>
		<g>
			<polygon points="606.5,409.3 610,409.3 658.8,458.2 658.8,461.6 			"/>
			<path style="fill:#FFFFFF;" d="M609.9,409.4l48.8,48.8v3.1l-51.9-51.9H609.9 M610,409.2h-3.8l52.7,52.7v-3.8L610,409.2L610,409.2
				z"/>
		</g>
		<g>
			<polygon points="619.4,409.3 622.8,409.3 658.8,445.3 658.8,448.7 			"/>
			<path style="fill:#FFFFFF;" d="M622.7,409.4l35.9,35.9v3.1l-39-39H622.7 M622.8,409.2H619l39.9,39.9v-3.8L622.8,409.2
				L622.8,409.2z"/>
		</g>
		<g>
			<polygon points="632.2,409.3 635.7,409.3 658.8,432.4 658.8,435.9 			"/>
			<path style="fill:#FFFFFF;" d="M635.6,409.4l23.1,23.1v3.1l-26.1-26.1H635.6 M635.7,409.2h-3.8l27,27v-3.8L635.7,409.2
				L635.7,409.2z"/>
		</g>
		<g>
			<polygon points="645.1,409.3 648.6,409.3 658.8,419.6 658.8,423 			"/>
			<path style="fill:#FFFFFF;" d="M648.5,409.4l10.2,10.2v3.1l-13.3-13.3H648.5 M648.6,409.2h-3.8l14.1,14.1v-3.8L648.6,409.2
				L648.6,409.2z"/>
		</g>
		<g>
			<polygon points="657.9,409.3 658.8,409.3 658.8,410.1 			"/>
			<path style="fill:#FFFFFF;" d="M658.7,409.4v0.4l-0.4-0.4H658.7 M658.9,409.2h-1.3l1.3,1.3V409.2L658.9,409.2z"/>
		</g>
	</g>
	<polyline style="fill:none;stroke:#000000;stroke-width:2;stroke-miterlimit:10;" points="1,409.3 1,247.2 163.1,247.2 
		163.1,409.3 	"/>
	<polyline style="fill:none;stroke:#000000;stroke-width:2;stroke-miterlimit:10;" points="163.1,409.2 163.1,490.3 1,490.3 
		1,409.2 	"/>
	<polyline style="fill:none;stroke:#000000;stroke-width:2;stroke-miterlimit:10;" points="659.2,163.1 659.2,1 497.1,1 
		497.1,163.1 	"/>
	<polyline style="fill:none;stroke:#000000;stroke-width:2;stroke-miterlimit:10;" points="497.1,163.1 497.1,244.2 659.2,244.2 
		659.2,163.1 	"/>
	<polyline style="fill:none;stroke:#000000;stroke-width:2;stroke-miterlimit:10;" points="166.3,409.3 166.3,247.2 328.4,247.2 
		328.4,409.3 	"/>
	<polyline style="fill:none;stroke:#000000;stroke-width:2;stroke-miterlimit:10;" points="328.4,409.2 328.4,490.3 166.3,490.3 
		166.3,409.2 	"/>
	<polyline style="fill:none;stroke:#000000;stroke-width:2;stroke-miterlimit:10;" points="493.9,163.1 493.9,1 331.8,1 
		331.8,163.1 	"/>
	<polyline style="fill:none;stroke:#000000;stroke-width:2;stroke-miterlimit:10;" points="331.8,163.1 331.8,244.2 493.9,244.2 
		493.9,163.1 	"/>
	<polyline style="fill:none;stroke:#000000;stroke-width:2;stroke-miterlimit:10;" points="331.8,409.3 331.8,247.2 493.9,247.2 
		493.9,409.3 	"/>
	<polyline style="fill:none;stroke:#000000;stroke-width:2;stroke-miterlimit:10;" points="493.9,409.2 493.9,490.3 331.8,490.3 
		331.8,409.2 	"/>
	<polyline style="fill:none;stroke:#000000;stroke-width:2;stroke-miterlimit:10;" points="328.4,163.1 328.4,1 166.3,1 
		166.3,163.1 	"/>
	<polyline style="fill:none;stroke:#000000;stroke-width:2;stroke-miterlimit:10;" points="166.3,163.1 166.3,244.2 328.4,244.2 
		328.4,163.1 	"/>
	<polyline style="fill:none;stroke:#000000;stroke-width:2;stroke-miterlimit:10;" points="497,409.3 497,247.2 659.1,247.2 
		659.1,409.3 	"/>
	<polyline style="fill:none;stroke:#000000;stroke-width:2;stroke-miterlimit:10;" points="659.1,409.2 659.1,490.3 497,490.3 
		497,409.2 	"/>
	<polyline style="fill:none;stroke:#000000;stroke-width:2;stroke-miterlimit:10;" points="163.2,163.1 163.2,1 1.1,1 1.1,163.1 	
		"/>
	<polyline style="fill:none;stroke:#000000;stroke-width:2;stroke-miterlimit:10;" points="1.1,163.1 1.1,244.2 163.2,244.2 
		163.2,163.1 	"/>
	<polyline style="fill:none;stroke:#000000;stroke-width:2;stroke-miterlimit:10;" points="166.3,409.3 166.3,247.2 328.4,247.2 
		328.4,409.3 	"/>
	<polyline style="fill:none;stroke:#000000;stroke-width:2;stroke-miterlimit:10;" points="328.4,409.2 328.4,490.3 166.3,490.3 
		166.3,409.2 	"/>
	<polyline style="fill:none;stroke:#000000;stroke-width:2;stroke-miterlimit:10;" points="493.9,163.1 493.9,1 331.8,1 
		331.8,163.1 	"/>
	<polyline style="fill:none;stroke:#000000;stroke-width:2;stroke-miterlimit:10;" points="331.8,163.1 331.8,244.2 493.9,244.2 
		493.9,163.1 	"/>
	<polyline style="fill:none;stroke:#000000;stroke-width:2;stroke-miterlimit:10;" points="331.8,409.3 331.8,247.2 493.9,247.2 
		493.9,409.3 	"/>
	<polyline style="fill:none;stroke:#000000;stroke-width:2;stroke-miterlimit:10;" points="493.9,409.2 493.9,490.3 331.8,490.3 
		331.8,409.2 	"/>
	<polyline style="fill:none;stroke:#000000;stroke-width:2;stroke-miterlimit:10;" points="328.4,163.1 328.4,1 166.3,1 
		166.3,163.1 	"/>
	<polyline style="fill:none;stroke:#000000;stroke-width:2;stroke-miterlimit:10;" points="166.3,163.1 166.3,244.2 328.4,244.2 
		328.4,163.1 	"/>
	<polyline style="fill:none;stroke:#000000;stroke-width:2;stroke-miterlimit:10;" points="496.9,409.3 496.9,247.2 659.1,247.2 
		659.1,409.3 	"/>
	<polyline style="fill:none;stroke:#000000;stroke-width:2;stroke-miterlimit:10;" points="659.1,409.2 659.1,490.3 496.9,490.3 
		496.9,409.2 	"/>
	<polyline style="fill:none;stroke:#000000;stroke-width:2;stroke-miterlimit:10;" points="163.2,163.1 163.2,1 1.1,1 1.1,163.1 	
		"/>
	<polyline style="fill:none;stroke:#000000;stroke-width:2;stroke-miterlimit:10;" points="1.1,163.1 1.1,244.2 163.2,244.2 
		163.2,163.1 	"/>
</g>
<g id="TEXT">
	<rect x="500.9" y="268.4" style="fill:none;" width="155.1" height="62"/>
	<text id="right4" transform="matrix(1 0 0 1 510.5495 307.7311)" style="font-family:'Sniglet-Regular'; font-size:52px;">RIGHT</text>
	<rect x="335" y="268.4" style="fill:none;" width="155.1" height="62"/>
	<text id="right3" transform="matrix(1 0 0 1 344.6745 307.7311)" style="font-family:'Sniglet-Regular'; font-size:52px;">RIGHT</text>
	<rect x="169.8" y="268.4" style="fill:none;" width="155.1" height="62"/>
	<text id="right2" transform="matrix(1 0 0 1 179.4255 307.7311)" style="font-family:'Sniglet-Regular'; font-size:52px;">RIGHT</text>
	<rect x="4.5" y="268.4" style="fill:none;" width="155.1" height="62"/>
	<text id="right1" transform="matrix(1 0 0 1 14.1755 307.7311)" style="font-family:'Sniglet-Regular'; font-size:52px;">RIGHT</text>
	<rect x="4.2" y="23.1" style="fill:none;" width="155.1" height="62"/>
	<text id="left4" transform="matrix(1 0 0 1 27.2027 62.4446)" style="font-family:'Sniglet-Regular'; font-size:52px;">LEFT</text>
	<rect x="170.1" y="23.1" style="fill:none;" width="155.1" height="62"/>
	<text id="left3" transform="matrix(1 0 0 1 193.0777 62.4446)" style="font-family:'Sniglet-Regular'; font-size:52px;">LEFT</text>
	<rect x="335.5" y="23.1" style="fill:none;" width="155.1" height="62"/>
	<text id="left2" transform="matrix(1 0 0 1 358.4527 62.4446)" style="font-family:'Sniglet-Regular'; font-size:52px;">LEFT</text>
	<rect x="500.5" y="23.1" style="fill:none;" width="155.1" height="62"/>
	<text id="left1" transform="matrix(1 0 0 1 523.4527 62.4446)" style="font-family:'Sniglet-Regular'; font-size:52px;">LEFT</text>
</g>
</svg>
