<?xml version="1.0" standalone="no"?>
<!DOCTYPE svg PUBLIC "-//W3C//DTD SVG 20010904//EN"
 "http://www.w3.org/TR/2001/REC-SVG-20010904/DTD/svg10.dtd">
<svg version="1.0" xmlns="http://www.w3.org/2000/svg"
 width="126.000000pt" height="126.000000pt" viewBox="0 0 126.000000 126.000000"
 preserveAspectRatio="xMidYMid meet">
<metadata>
Created by potrace 1.11, written by Peter Selinger 2001-2013
</metadata>
<g transform="translate(0.000000,126.000000) scale(0.100000,-0.100000)"
fill="#000000" stroke="none">
<path d="M0 644 c0 -565 1 -614 16 -614 9 0 23 8 31 18 13 15 14 14 10 -15 -2
-24 1 -33 11 -33 11 0 13 10 8 48 l-7 47 83 35 c46 19 86 39 90 45 4 6 24 -6
50 -31 59 -55 127 -108 165 -128 25 -12 61 -16 164 -16 l131 0 47 38 c61 51
71 56 71 39 0 -8 -16 -25 -35 -38 -19 -13 -35 -27 -35 -31 0 -5 26 -8 57 -8
50 0 61 4 89 31 25 25 32 27 29 13 -2 -11 -4 -23 -4 -27 -1 -5 -5 -6 -10 -2
-5 3 -12 1 -16 -5 -4 -7 48 -10 154 -10 l161 0 0 24 c0 14 -4 28 -10 31 -5 3
-10 11 -10 16 0 6 5 7 10 4 7 -4 10 68 10 208 0 195 -2 217 -20 256 -13 26
-18 50 -14 63 5 17 3 20 -10 15 -10 -4 -15 -3 -11 2 3 5 -1 11 -7 14 -7 2 -10
8 -6 12 11 12 42 -25 55 -64 9 -29 11 4 10 181 -1 119 -5 214 -9 212 -4 -3 -8
2 -8 11 0 9 -6 26 -14 38 -18 29 -30 105 -14 89 6 -6 11 -24 11 -40 0 -16 7
-34 16 -39 14 -9 16 -2 18 51 1 36 -5 83 -15 116 l-18 55 -48 3 c-33 2 -52 -1
-57 -10 -7 -10 -9 -10 -9 0 0 9 -41 12 -170 12 -107 0 -170 -4 -170 -10 0 -5
5 -10 10 -10 6 0 10 -6 10 -12 -1 -7 -9 -3 -19 9 -17 21 -26 22 -180 22 -115
0 -161 -3 -161 -11 0 -9 -3 -9 -12 0 -16 16 -88 16 -88 0 0 -10 -2 -10 -8 -1
-5 8 -56 11 -164 11 l-157 0 -1 -614z m1203 586 c3 -11 1 -23 -4 -26 -5 -3 -9
6 -9 20 0 31 6 34 13 6z m-503 -11 c-7 -11 -14 -19 -16 -16 -7 7 7 37 17 37 6
0 5 -9 -1 -21z m-494 -14 c-3 -20 -16 -31 -16 -13 0 13 8 28 16 28 1 0 1 -7 0
-15z m233 -30 c0 -5 -4 -3 -9 5 -5 8 -9 22 -9 30 0 16 17 -16 18 -35z m625 19
c3 -8 2 -12 -4 -9 -6 3 -10 10 -10 16 0 14 7 11 14 -7z m-786 -24 c7 -11 11
-20 9 -20 -2 0 -12 9 -22 20 -10 11 -14 20 -9 20 5 0 15 -9 22 -20z m532 16
c0 -2 -8 -10 -17 -17 -16 -13 -17 -12 -4 4 13 16 21 21 21 13z m412 -19 c3
-14 0 -24 -7 -24 -7 0 -10 10 -7 24 2 13 6 23 7 23 1 0 5 -10 7 -23z m-854
-28 c19 -30 8 -34 -12 -4 -9 14 -13 25 -9 25 5 0 14 -9 21 -21z m-43 -9 c10
-11 16 -20 13 -20 -3 0 -13 9 -23 20 -10 11 -16 20 -13 20 3 0 13 -9 23 -20z
m-92 -10 c3 -11 1 -18 -4 -14 -5 3 -9 12 -9 20 0 20 7 17 13 -6z m941 -16 c3
-8 2 -12 -4 -9 -6 3 -10 10 -10 16 0 14 7 11 14 -7z m-1060 -10 c5 -14 4 -15
-9 -4 -17 14 -19 20 -6 20 5 0 12 -7 15 -16z m107 -11 c13 -16 12 -17 -3 -4
-17 13 -22 21 -14 21 2 0 10 -8 17 -17z m-133 -18 c-3 -3 -9 2 -12 12 -6 14
-5 15 5 6 7 -7 10 -15 7 -18z m-28 -5 c0 -5 -4 -10 -10 -10 -5 0 -10 5 -10 10
0 6 5 10 10 10 6 0 10 -4 10 -10z m665 -22 c35 -19 61 -52 99 -127 22 -44 26
-63 21 -93 -7 -39 8 -96 29 -110 5 -3 21 2 34 13 30 23 55 24 73 2 13 -15 12
-15 -8 -2 -20 12 -25 11 -48 -11 -28 -27 -30 -37 -10 -64 9 -12 20 -16 32 -12
15 6 14 10 -10 29 -27 22 -28 22 -7 35 18 11 21 10 30 -13 6 -15 14 -23 20
-20 6 4 10 -6 10 -23 0 -40 -32 -67 -80 -67 -34 0 -39 -2 -39 -25 0 -14 -4
-47 -8 -75 -5 -27 -6 -87 -3 -131 6 -74 9 -84 35 -106 23 -20 27 -30 21 -51
-8 -35 -24 -35 -19 0 3 24 2 25 -6 8 -12 -26 -67 -85 -80 -85 -5 0 -7 10 -4
21 5 19 3 21 -20 15 -23 -5 -27 -3 -27 17 0 13 -5 28 -11 34 -14 14 -5 41 28
90 17 24 27 54 29 82 2 24 8 47 14 51 15 9 39 81 33 97 -3 7 -10 12 -17 11 -6
-1 -25 6 -43 15 -30 16 -32 16 -36 -1 -3 -9 -6 3 -7 28 -1 25 -4 36 -7 25 -2
-11 -6 -31 -9 -44 -8 -35 -21 -14 -33 52 -10 54 -36 106 -54 107 -5 0 -16 7
-25 16 -11 11 -17 13 -20 5 -2 -6 8 -21 22 -32 33 -26 33 -39 1 -39 -14 0 -25
5 -25 10 0 6 -8 10 -17 11 -16 0 -16 1 1 8 19 7 18 8 -3 23 -13 9 -30 14 -38
11 -7 -3 -22 2 -32 11 -17 16 -20 16 -35 1 -8 -9 -23 -31 -32 -50 -14 -31 -18
-33 -31 -19 -12 11 -18 12 -29 3 -8 -6 -11 -16 -7 -23 4 -7 3 -8 -4 -1 -6 6
-13 23 -17 39 -6 23 -4 27 8 23 9 -4 16 -3 16 2 0 5 12 12 28 15 66 16 80 27
99 78 17 49 43 74 51 49 2 -6 15 -25 29 -41 18 -22 34 -30 56 -30 45 0 65 14
41 29 -16 9 -13 10 19 11 40 0 48 13 20 29 -17 10 -17 10 -1 11 25 0 33 20 15
37 -12 12 -38 16 -114 15 -102 0 -135 -3 -143 -13 -3 -3 -27 -16 -55 -29 -27
-13 -53 -28 -57 -34 -5 -7 -8 -4 -8 7 0 9 3 17 8 17 4 0 7 15 8 33 0 36 58
127 80 127 7 0 14 5 16 11 2 5 11 11 20 13 10 1 19 4 22 7 12 12 183 1 211
-13z m-508 -10 c-3 -8 -6 -5 -6 6 -1 11 2 17 5 13 3 -3 4 -12 1 -19z m977 -3
c3 -8 1 -15 -4 -15 -6 0 -10 7 -10 15 0 8 2 15 4 15 2 0 6 -7 10 -15z m-869
-25 c3 -5 1 -10 -4 -10 -6 0 -11 5 -11 10 0 6 2 10 4 10 3 0 8 -4 11 -10z
m825 -23 c0 -5 -4 -5 -10 -2 -5 3 -10 14 -10 23 0 15 2 15 10 2 5 -8 10 -19
10 -23z m-852 -12 c-3 -3 -9 2 -12 12 -6 14 -5 15 5 6 7 -7 10 -15 7 -18z
m-45 -55 c-6 -6 -43 38 -43 52 0 5 11 -4 24 -19 13 -15 22 -30 19 -33z m-194
18 c0 -28 -2 -30 -9 -13 -12 28 -12 45 0 45 6 0 10 -15 9 -32z m1095 16 c3 -8
2 -12 -4 -9 -6 3 -10 10 -10 16 0 14 7 11 14 -7z m-1057 -16 c-3 -8 -6 -5 -6
6 -1 11 2 17 5 13 3 -3 4 -12 1 -19z m753 2 c0 -5 -2 -10 -4 -10 -3 0 -8 5
-11 10 -3 6 -1 10 4 10 6 0 11 -4 11 -10z m347 -22 c-3 -8 -6 -5 -6 6 -1 11 2
17 5 13 3 -3 4 -12 1 -19z m17 -73 c11 -19 17 -37 14 -40 -5 -6 -41 42 -51 67
-11 31 18 9 37 -27z m-933 18 c13 -16 12 -17 -3 -4 -17 13 -22 21 -14 21 2 0
10 -8 17 -17z m-151 -3 c0 -5 -4 -10 -10 -10 -5 0 -10 5 -10 10 0 6 5 10 10
10 6 0 10 -4 10 -10z m61 -7 c13 -15 12 -15 -8 -4 -24 12 -29 21 -14 21 5 0
15 -7 22 -17z m136 -30 c-3 -10 -5 -2 -5 17 0 19 2 27 5 18 2 -10 2 -26 0 -35z
m-69 6 c-3 -8 -7 -3 -11 10 -4 17 -3 21 5 13 5 -5 8 -16 6 -23z m62 -50 c0 -6
-4 -7 -10 -4 -5 3 -10 11 -10 16 0 6 5 7 10 4 6 -3 10 -11 10 -16z m-270 -11
c0 -7 -10 -24 -21 -38 l-20 -25 12 25 c8 14 14 28 15 33 3 15 4 17 9 17 3 0 5
-6 5 -12z m77 -28 c0 -19 -4 -27 -10 -21 -5 5 -6 18 -2 30 9 29 12 26 12 -9z
m72 -30 c0 -8 -6 0 -14 19 -8 18 -15 36 -15 40 1 13 29 -45 29 -59z m981 25
c0 -5 -5 -3 -10 5 -5 8 -10 20 -10 25 0 6 5 3 10 -5 5 -8 10 -19 10 -25z
m-1112 -66 c-3 -33 -4 -33 -8 8 -3 23 -2 39 3 34 5 -5 7 -24 5 -42z m1145 8
c-7 -11 -23 12 -23 33 1 12 4 11 15 -4 8 -10 12 -23 8 -29z m-218 23 c3 -5 1
-10 -4 -10 -6 0 -11 5 -11 10 0 6 2 10 4 10 3 0 8 -4 11 -10z m-665 -21 c0 -6
-4 -7 -10 -4 -5 3 -10 11 -10 16 0 6 5 7 10 4 6 -3 10 -11 10 -16z m-101 -44
c0 -5 -6 1 -14 15 -8 14 -14 30 -14 35 0 6 6 -1 14 -15 8 -14 14 -29 14 -35z
m31 20 c0 -5 -5 -3 -10 5 -5 8 -10 20 -10 25 0 6 5 3 10 -5 5 -8 10 -19 10
-25z m-102 -26 c-3 -8 -7 -3 -11 10 -4 17 -3 21 5 13 5 -5 8 -16 6 -23z m482
9 c11 -7 8 -8 -10 -4 -14 3 -38 6 -55 6 -23 0 -26 3 -15 10 16 10 54 4 80 -12z
m-310 2 c8 -5 11 -10 5 -10 -5 0 -17 5 -25 10 -8 5 -10 10 -5 10 6 0 17 -5 25
-10z m205 0 c-3 -5 -12 -10 -18 -10 -7 0 -6 4 3 10 19 12 23 12 15 0z m-478
-62 c-3 -7 -5 -2 -5 12 0 14 2 19 5 13 2 -7 2 -19 0 -25z m122 -10 c1 -5 -3
-8 -9 -8 -5 0 -10 12 -9 28 0 24 1 25 9 7 5 -11 9 -23 9 -27z m86 2 l30 -35
-32 29 c-18 17 -33 34 -33 40 0 5 1 7 3 5 1 -2 16 -20 32 -39z m23 15 c-3 -3
-9 2 -12 12 -6 14 -5 15 5 6 7 -7 10 -15 7 -18z m377 5 c4 -6 -9 -10 -32 -10
-21 0 -54 -2 -73 -4 -19 -2 -26 -1 -15 1 11 3 24 9 30 14 12 12 82 12 90 -1z
m-285 -63 c0 -5 -4 -5 -10 -2 -5 3 -10 14 -10 23 0 15 2 15 10 2 5 -8 10 -19
10 -23z m284 17 c21 -21 20 -27 -4 -19 -16 5 -20 2 -20 -14 0 -14 -6 -21 -19
-21 -29 0 -34 29 -9 51 28 23 33 23 52 3z m-343 -31 c13 -16 12 -17 -3 -4 -10
7 -18 15 -18 17 0 8 8 3 21 -13z m-224 -30 c-3 -10 -5 -4 -5 12 0 17 2 24 5
18 2 -7 2 -21 0 -30z m578 17 c3 -5 1 -10 -4 -10 -6 0 -11 5 -11 10 0 6 2 10
4 10 3 0 8 -4 11 -10z m-528 -62 c-3 -7 -5 -2 -5 12 0 14 2 19 5 13 2 -7 2
-19 0 -25z m143 -8 c0 -5 -2 -10 -4 -10 -3 0 -8 5 -11 10 -3 6 -1 10 4 10 6 0
11 -4 11 -10z m-85 -50 c10 -11 16 -20 13 -20 -3 0 -13 9 -23 20 -10 11 -16
20 -13 20 3 0 13 -9 23 -20z m112 -27 c-3 -10 -5 -4 -5 12 0 17 2 24 5 18 2
-7 2 -21 0 -30z m150 -105 c-3 -8 -6 -5 -6 6 -1 11 2 17 5 13 3 -3 4 -12 1
-19z m-433 -113 c4 -11 0 -6 -8 10 -8 17 -15 48 -14 70 0 39 1 39 8 -10 4 -27
11 -59 14 -70z m1101 28 c6 -12 20 -30 31 -40 11 -10 15 -15 10 -10 -6 4 -18
7 -27 7 -9 0 -22 7 -29 15 -7 9 -21 13 -30 10 -11 -3 -20 1 -23 10 -8 19 -30
15 -95 -18 -45 -24 -51 -30 -42 -46 7 -14 6 -22 -5 -31 -13 -11 -14 -10 -9 4
3 9 3 23 0 32 -5 13 -9 14 -21 4 -9 -8 -15 -8 -15 -2 0 10 76 50 150 78 49 19
92 14 105 -13z m-361 -47 c-3 -9 -10 -16 -15 -16 -5 0 -4 9 3 20 14 22 21 20
12 -4z m-727 -28 c-3 -8 -6 -5 -6 6 -1 11 2 17 5 13 3 -3 4 -12 1 -19z m1179
-5 c-7 -7 -26 7 -26 19 0 6 6 6 15 -2 9 -7 13 -15 11 -17z m-326 -7 c0 -3 -4
-8 -10 -11 -5 -3 -10 -1 -10 4 0 6 5 11 10 11 6 0 10 -2 10 -4z"/>
<path d="M843 635 c0 -22 2 -30 4 -17 2 12 2 30 0 40 -3 9 -5 -1 -4 -23z"/>
<path d="M802 610 c0 -14 2 -19 5 -12 2 6 2 18 0 25 -3 6 -5 1 -5 -13z"/>
<path d="M830 311 c0 -6 4 -13 10 -16 6 -3 7 1 4 9 -7 18 -14 21 -14 7z"/>
<path d="M1248 1235 c2 -14 6 -25 8 -25 2 0 4 11 4 25 0 14 -4 25 -9 25 -4 0
-6 -11 -3 -25z"/>
<path d="M250 155 c0 -3 11 -18 25 -33 24 -26 34 -49 17 -38 -5 3 -9 -1 -9 -9
0 -8 4 -15 9 -15 4 0 8 -7 8 -16 0 -31 25 -42 94 -43 l67 0 -58 39 c-32 21
-76 57 -98 79 -36 37 -55 50 -55 36z"/>
<path d="M208 49 c-25 -43 -23 -49 17 -49 33 0 35 2 29 28 -14 63 -21 67 -46
21z"/>
<path d="M20 10 c0 -5 5 -10 10 -10 6 0 10 5 10 10 0 6 -4 10 -10 10 -5 0 -10
-4 -10 -10z"/>
</g>
</svg>
