<?xml version="1.0" encoding="UTF-8" standalone="no"?>
<!-- Created with Inkscape (http://www.inkscape.org/) -->

<svg
   width="200.00021mm"
   height="133.31985mm"
   viewBox="0 0 200.00021 133.31985"
   version="1.1"
   id="svg967"
   inkscape:version="1.2 (dc2aedaf03, 2022-05-15)"
   sodipodi:docname="teacher-worksheet.svg"
   inkscape:export-filename="teacher-worksheet.png"
   inkscape:export-xdpi="300"
   inkscape:export-ydpi="300"
   xmlns:inkscape="http://www.inkscape.org/namespaces/inkscape"
   xmlns:sodipodi="http://sodipodi.sourceforge.net/DTD/sodipodi-0.dtd"
   xmlns="http://www.w3.org/2000/svg"
   xmlns:svg="http://www.w3.org/2000/svg">
  <sodipodi:namedview
     id="namedview969"
     pagecolor="#505050"
     bordercolor="#ffffff"
     borderopacity="1"
     inkscape:showpageshadow="0"
     inkscape:pageopacity="0"
     inkscape:pagecheckerboard="1"
     inkscape:deskcolor="#505050"
     inkscape:document-units="mm"
     showgrid="false"
     inkscape:zoom="5.17549"
     inkscape:cx="196.21331"
     inkscape:cy="455.60903"
     inkscape:window-width="2560"
     inkscape:window-height="1387"
     inkscape:window-x="-8"
     inkscape:window-y="-8"
     inkscape:window-maximized="1"
     inkscape:current-layer="layer1" />
  <defs
     id="defs964">
    <marker
       style="overflow:visible"
       id="marker1573"
       refX="0"
       refY="0"
       orient="auto"
       inkscape:stockid="Scissors"
       markerWidth="15.249177"
       markerHeight="9.0857267"
       viewBox="0 0 15.249177 9.0857269"
       inkscape:isstock="true"
       inkscape:collect="always"
       preserveAspectRatio="xMidYMid">
      <path
         style="fill:context-stroke"
         d="M 9.0898857,-3.6061018 C 8.1198849,-4.7769976 6.3697607,-4.7358294 5.0623558,-4.2327734 l -8.2124046,3.0779029 c -2.3882933,-1.3067135 -4.7482873,-0.9325372 -4.7482873,-1.5687873 0,-0.4973164 0.4566662,-0.3883222 0.3883068,-1.6831941 -0.065635,-1.2432767 -1.3635771,-2.1630796 -2.5903987,-2.0816435 -1.227271,-0.00735 -2.499439,0.9331613 -2.510341,2.2300611 -0.09143,1.3063864 1.007209,2.5196896 2.306764,2.6052316 1.5223406,0.2266616 4.218258,-0.6955566 5.482945,1.57086006 -0.9422847,1.73825774 -2.6140244,1.74307674 -4.1255107,1.65607034 -1.2548743,-0.072235 -2.7620933,0.2873979 -3.3606483,1.5208605 -0.578367,1.1820862 -0.0112,2.8646022 1.316749,3.226412 1.3401912,0.4918277 3.1806689,-0.129711 3.4993722,-1.6707242 0.2456585,-1.187823 -0.5953659,-1.7459574 -0.2725074,-2.1771537 0.2436135,-0.32536 1.7907806,-0.1368452 4.5471053,-1.3748244 L 5.6763468,4.2330688 C 6.8000164,4.5467672 8.1730685,4.5362646 9.1684433,3.4313614 l -9.22008423,-3.48508362 z m -18.3078016,-1.900504 c 1.294559,0.7227998 1.1888392,2.6835702 -0.1564272,3.0632889 -1.2165179,0.423661 -2.7710269,-0.7589694 -2.3831779,-2.0774648 0.227148,-1.0818519 1.653387,-1.480632 2.5396051,-0.9858241 z m 0.056264,8.0173649 c 1.3508301,0.4988648 1.1214429,2.7844356 -0.2522207,3.091609 -0.9110594,0.3163391 -2.2135494,-0.1387976 -2.3056964,-1.2121394 -0.177609,-1.305055 1.356085,-2.4841482 2.5579171,-1.8794696 z"
         id="path1571"
         transform="scale(0.7)" />
    </marker>
  </defs>
  <g
     inkscape:label="Layer 1"
     inkscape:groupmode="layer"
     id="layer1"
     transform="translate(2.1695625e-4,-1.0084498)">
    <g
       id="g2342"
       transform="translate(27.328628,-41.711035)">
      <g
         stroke-width="0.26458"
         id="g146"
         transform="translate(34.956864,90.004172)"
         style="stroke:#000000">
        <g
           fill="#ffffff"
           id="g10">
          <rect
             x="0.13229001"
             y="0.13229001"
             width="10"
             height="10"
             style="paint-order:markers fill stroke"
             id="rect2" />
          <rect
             x="10.132"
             y="0.13229001"
             width="10"
             height="10"
             style="paint-order:markers fill stroke"
             id="rect4" />
          <rect
             x="20.132"
             y="0.13229001"
             width="10"
             height="10"
             style="paint-order:markers fill stroke"
             id="rect6" />
          <rect
             x="30.132"
             y="0.13229001"
             width="10"
             height="10"
             style="paint-order:markers fill stroke"
             id="rect8" />
        </g>
        <rect
           x="40.132"
           y="0.13229001"
           width="10"
           height="10"
           style="paint-order:markers fill stroke"
           id="rect12" />
        <rect
           x="50.132"
           y="0.13229001"
           width="10"
           height="10"
           style="paint-order:markers fill stroke"
           id="rect14" />
        <g
           fill="#ffffff"
           id="g26">
          <rect
             x="60.132"
             y="0.13229001"
             width="10"
             height="10"
             style="paint-order:markers fill stroke"
             id="rect16" />
          <rect
             x="70.132004"
             y="0.13229001"
             width="10"
             height="10"
             style="paint-order:markers fill stroke"
             id="rect18" />
          <rect
             x="0.13229001"
             y="10.132"
             width="10"
             height="10"
             style="paint-order:markers fill stroke"
             id="rect20" />
          <rect
             x="10.132"
             y="10.132"
             width="10"
             height="10"
             style="paint-order:markers fill stroke"
             id="rect22" />
          <rect
             x="20.132"
             y="10.132"
             width="10"
             height="10"
             style="paint-order:markers fill stroke"
             id="rect24" />
        </g>
        <rect
           x="30.132"
           y="10.132"
           width="10"
           height="10"
           style="paint-order:markers fill stroke"
           id="rect28" />
        <rect
           x="40.132"
           y="10.132"
           width="10"
           height="10"
           fill="#ffffff"
           style="paint-order:markers fill stroke"
           id="rect30" />
        <rect
           x="50.132"
           y="10.132"
           width="10"
           height="10"
           fill="#ffffff"
           style="paint-order:markers fill stroke"
           id="rect32" />
        <rect
           x="60.132"
           y="10.132"
           width="10"
           height="10"
           style="paint-order:markers fill stroke"
           id="rect34" />
        <g
           fill="#ffffff"
           id="g44">
          <rect
             x="70.132004"
             y="10.132"
             width="10"
             height="10"
             style="paint-order:markers fill stroke"
             id="rect36" />
          <rect
             x="0.13229001"
             y="20.132"
             width="10"
             height="10"
             style="paint-order:markers fill stroke"
             id="rect38" />
          <rect
             x="10.132"
             y="20.132"
             width="10"
             height="10"
             style="paint-order:markers fill stroke"
             id="rect40" />
          <rect
             x="20.132"
             y="20.132"
             width="10"
             height="10"
             style="paint-order:markers fill stroke"
             id="rect42" />
        </g>
        <rect
           x="30.132"
           y="20.132"
           width="10"
           height="10"
           style="paint-order:markers fill stroke"
           id="rect46" />
        <rect
           x="40.132"
           y="20.132"
           width="10"
           height="10"
           fill="#ffffff"
           style="paint-order:markers fill stroke"
           id="rect48" />
        <rect
           x="50.132"
           y="20.132"
           width="10"
           height="10"
           fill="#ffffff"
           style="paint-order:markers fill stroke"
           id="rect50" />
        <rect
           x="60.132"
           y="20.132"
           width="10"
           height="10"
           style="paint-order:markers fill stroke"
           id="rect52" />
        <rect
           x="70.132004"
           y="20.132"
           width="10"
           height="10"
           style="paint-order:markers fill stroke"
           id="rect54" />
        <rect
           x="0.13229001"
           y="30.132"
           width="10"
           height="10"
           style="paint-order:markers fill stroke"
           id="rect56" />
        <g
           fill="#ffffff"
           id="g64">
          <rect
             x="10.132"
             y="30.132"
             width="10"
             height="10"
             style="paint-order:markers fill stroke"
             id="rect58" />
          <rect
             x="20.132"
             y="30.132"
             width="10"
             height="10"
             style="paint-order:markers fill stroke"
             id="rect60" />
          <rect
             x="30.132"
             y="30.132"
             width="10"
             height="10"
             style="paint-order:markers fill stroke"
             id="rect62" />
        </g>
        <rect
           x="40.132"
           y="30.132"
           width="10"
           height="10"
           style="paint-order:markers fill stroke"
           id="rect66" />
        <rect
           x="50.132"
           y="30.132"
           width="10"
           height="10"
           style="paint-order:markers fill stroke"
           id="rect68" />
        <rect
           x="60.132"
           y="30.132"
           width="10"
           height="10"
           fill="#ffffff"
           style="paint-order:markers fill stroke"
           id="rect70" />
        <rect
           x="70.132004"
           y="30.132"
           width="10"
           height="10"
           fill="#ffffff"
           style="paint-order:markers fill stroke"
           id="rect72" />
        <rect
           x="0.13229001"
           y="40.132"
           width="10"
           height="10"
           style="paint-order:markers fill stroke"
           id="rect74" />
        <rect
           x="10.132"
           y="40.132"
           width="10"
           height="10"
           style="paint-order:markers fill stroke"
           id="rect76" />
        <rect
           x="20.132"
           y="40.132"
           width="10"
           height="10"
           style="paint-order:markers fill stroke"
           id="rect78" />
        <rect
           x="30.132"
           y="40.132"
           width="10"
           height="10"
           style="paint-order:markers fill stroke"
           id="rect80" />
        <rect
           x="40.132"
           y="40.132"
           width="10"
           height="10"
           fill="#ffffff"
           style="paint-order:markers fill stroke"
           id="rect82" />
        <rect
           x="50.132"
           y="40.132"
           width="10"
           height="10"
           fill="#ffffff"
           style="paint-order:markers fill stroke"
           id="rect84" />
        <rect
           x="60.132"
           y="40.132"
           width="10"
           height="10"
           style="paint-order:markers fill stroke"
           id="rect86" />
        <rect
           x="70.132004"
           y="40.132"
           width="10"
           height="10"
           fill="#ffffff"
           style="paint-order:markers fill stroke"
           id="rect88" />
        <rect
           x="0.13229001"
           y="50.132"
           width="10"
           height="10"
           fill="#ffffff"
           style="paint-order:markers fill stroke"
           id="rect90" />
        <rect
           x="10.132"
           y="50.132"
           width="10"
           height="10"
           style="paint-order:markers fill stroke"
           id="rect92" />
        <g
           fill="#ffffff"
           id="g102">
          <rect
             x="20.132"
             y="50.132"
             width="10"
             height="10"
             style="paint-order:markers fill stroke"
             id="rect94" />
          <rect
             x="30.132"
             y="50.132"
             width="10"
             height="10"
             style="paint-order:markers fill stroke"
             id="rect96" />
          <rect
             x="40.132"
             y="50.132"
             width="10"
             height="10"
             style="paint-order:markers fill stroke"
             id="rect98" />
          <rect
             x="50.132"
             y="50.132"
             width="10"
             height="10"
             style="paint-order:markers fill stroke"
             id="rect100" />
        </g>
        <rect
           x="60.132"
           y="50.132"
           width="10"
           height="10"
           style="paint-order:markers fill stroke"
           id="rect104" />
        <g
           fill="#ffffff"
           id="g112">
          <rect
             x="70.132004"
             y="50.132"
             width="10"
             height="10"
             style="paint-order:markers fill stroke"
             id="rect106" />
          <rect
             x="0.13229001"
             y="60.132"
             width="10"
             height="10"
             style="paint-order:markers fill stroke"
             id="rect108" />
          <rect
             x="10.132"
             y="60.132"
             width="10"
             height="10"
             style="paint-order:markers fill stroke"
             id="rect110" />
        </g>
        <rect
           x="20.132"
           y="60.132"
           width="10"
           height="10"
           style="paint-order:markers fill stroke"
           id="rect114" />
        <rect
           x="30.132"
           y="60.132"
           width="10"
           height="10"
           style="paint-order:markers fill stroke"
           id="rect116" />
        <rect
           x="40.132"
           y="60.132"
           width="10"
           height="10"
           style="paint-order:markers fill stroke"
           id="rect118" />
        <rect
           x="50.132"
           y="60.132"
           width="10"
           height="10"
           style="paint-order:markers fill stroke"
           id="rect120" />
        <g
           fill="#ffffff"
           id="g132">
          <rect
             x="60.132"
             y="60.132"
             width="10"
             height="10"
             style="paint-order:markers fill stroke"
             id="rect122" />
          <rect
             x="70.132004"
             y="60.132"
             width="10"
             height="10"
             style="paint-order:markers fill stroke"
             id="rect124" />
          <rect
             x="0.13229001"
             y="70.132004"
             width="10"
             height="10"
             style="paint-order:markers fill stroke"
             id="rect126" />
          <rect
             x="10.132"
             y="70.132004"
             width="10"
             height="10"
             style="paint-order:markers fill stroke"
             id="rect128" />
          <rect
             x="20.132"
             y="70.132004"
             width="10"
             height="10"
             style="paint-order:markers fill stroke"
             id="rect130" />
        </g>
        <rect
           x="30.132"
           y="70.132004"
           width="10"
           height="10"
           style="paint-order:markers fill stroke"
           id="rect134" />
        <rect
           x="40.132"
           y="70.132004"
           width="10"
           height="10"
           style="paint-order:markers fill stroke"
           id="rect136" />
        <g
           fill="#ffffff"
           id="g144">
          <rect
             x="50.132"
             y="70.132004"
             width="10"
             height="10"
             style="paint-order:markers fill stroke"
             id="rect138" />
          <rect
             x="60.132"
             y="70.132004"
             width="10"
             height="10"
             style="paint-order:markers fill stroke"
             id="rect140" />
          <rect
             x="70.132004"
             y="70.132004"
             width="10"
             height="10"
             style="paint-order:markers fill stroke"
             id="rect142" />
        </g>
      </g>
      <g
         transform="translate(34.269564,90.696652)"
         stroke-width="0.26458"
         style="stroke:#000000;paint-order:markers fill stroke"
         aria-label="4,2,2"
         id="g194">
        <path
           d="M 88.387,6.7033 H 87.2346 V 8.1967 H 86.31476 V 6.7033 h -3.2504 V 5.91265 l 2.8784,-4.47 h 1.2919 v 4.47 h 1.1524 z M 86.3148,2.3108 83.9635,5.9126 h 2.3513 z"
           id="path184" />
        <path
           d="m 89.891,9.2561 q 0.26355,0.010335 0.5116,-0.046509 0.24805,-0.056844 0.43408,-0.17053 0.1912,-0.10852 0.30489,-0.27388 0.11369,-0.16536 0.11369,-0.37724 0,-0.21704 -0.07751,-0.3514 -0.07235,-0.13436 -0.16536,-0.24805 -0.09302,-0.11369 -0.17053,-0.24288 -0.07235,-0.12919 -0.07235,-0.34623 0,-0.10852 0.04134,-0.22738 0.04134,-0.11886 0.12402,-0.21704 0.08785,-0.098185 0.21704,-0.1602 0.13436,-0.062011 0.31523,-0.062011 0.18087,0 0.34623,0.077514 0.17053,0.072347 0.29455,0.22738 0.12919,0.15503 0.20154,0.38757 0.07751,0.23254 0.07751,0.54777 0,0.42891 -0.1602,0.82165 -0.15503,0.39791 -0.47025,0.7028 -0.31006,0.30489 -0.78031,0.48576 -0.46509,0.18087 -1.0852,0.18087 z"
           id="path186" />
        <path
           d="M 99.689,8.1967 H 95.2397 V 7.39055 l 1.7467,-1.7363 q 0.42891,-0.42375 0.69763,-0.7338 0.26872,-0.31006 0.41858,-0.56327 0.14986,-0.25838 0.20154,-0.48576 0.05168,-0.22738 0.05168,-0.49092 0,-0.24805 -0.06718,-0.47025 Q 98.221468,2.68287 98.08194,2.51234 97.942412,2.34181 97.72021,2.24362 97.498,2.145435 97.18794,2.145435 q -0.42891,0 -0.78031,0.1912 -0.3514,0.1912 -0.64595,0.49609 l -0.49609,-0.59428 q 0.3824,-0.40307 0.8785,-0.64595 0.50126,-0.24288 1.1627,-0.24288 0.44958,0 0.81648,0.13436 0.37207,0.13436 0.64078,0.38757 0.26872,0.25321 0.41341,0.62012 0.14986,0.3669 0.14986,0.82682 0,0.38757 -0.10335,0.7183 -0.10335,0.33073 -0.31522,0.66146 -0.2067,0.32556 -0.5271,0.67696 -0.31522,0.3514 -0.74931,0.76998 l -1.2247,1.1937 h 3.2814 z"
           id="path188" />
        <path
           d="m 101.53,9.2561 q 0.26355,0.010335 0.51159,-0.046509 0.24805,-0.056844 0.43409,-0.17053 0.1912,-0.10852 0.30489,-0.27388 0.11368,-0.16536 0.11368,-0.37724 0,-0.21704 -0.0775,-0.3514 -0.0724,-0.13436 -0.16537,-0.24805 -0.093,-0.11369 -0.17053,-0.24288 -0.0723,-0.12919 -0.0723,-0.34623 0,-0.10852 0.0413,-0.22738 0.0413,-0.11886 0.12402,-0.21704 0.0879,-0.098185 0.21704,-0.1602 0.13436,-0.062011 0.31523,-0.062011 0.18086,0 0.34623,0.077514 0.17053,0.072347 0.29455,0.22738 0.12919,0.15503 0.20154,0.38757 0.0775,0.23254 0.0775,0.54777 0,0.42891 -0.16019,0.82165 -0.15503,0.39791 -0.47026,0.7028 -0.31005,0.30489 -0.78031,0.48576 -0.46509,0.18087 -1.0852,0.18087 z"
           id="path190" />
        <path
           d="m 111.33,8.1967 h -4.4493 V 7.39055 l 1.7467,-1.7363 q 0.42891,-0.42375 0.69763,-0.7338 0.26872,-0.31005 0.41858,-0.56327 0.14986,-0.25838 0.20154,-0.48576 0.0517,-0.22738 0.0517,-0.49092 0,-0.24805 -0.0672,-0.47025 -0.0672,-0.22738 -0.2067,-0.39791 -0.13953,-0.17053 -0.36174,-0.26872 -0.2222,-0.098185 -0.53226,-0.098185 -0.42891,0 -0.78031,0.1912 -0.3514,0.1912 -0.64596,0.49609 l -0.49609,-0.59428 q 0.38241,-0.40307 0.8785,-0.64595 0.50126,-0.24288 1.1627,-0.24288 0.44959,0 0.81649,0.13436 0.37207,0.13436 0.64079,0.38757 0.26871,0.25321 0.41341,0.62012 0.14986,0.3669 0.14986,0.82682 0,0.38757 -0.10336,0.7183 -0.10335,0.33073 -0.31522,0.66146 -0.20671,0.32556 -0.5271,0.67696 -0.31522,0.3514 -0.7493,0.76998 l -1.2247,1.1937 h 3.2814 z"
           id="path192" />
      </g>
      <g
         transform="translate(33.644164,90.696652)"
         stroke-width="0.26458"
         style="stroke:#000000;paint-order:markers fill stroke"
         aria-label="3,1,2,1,1"
         id="g214">
        <path
           d="m 87.922,15.621 q 0,0.44442 -0.18087,0.83716 -0.18087,0.38757 -0.5426,0.68213 -0.36173,0.28939 -0.9095,0.45992 -0.54777,0.16536 -1.2764,0.16536 -0.40308,0 -0.72347,-0.02584 -0.32039,-0.02584 -0.59944,-0.06718 V 16.8664 q 0.32039,0.05684 0.67696,0.08785 0.35657,0.03101 0.72864,0.03101 0.50643,0 0.86299,-0.08785 0.36173,-0.09302 0.58911,-0.26355 0.22738,-0.17053 0.33073,-0.41341 0.10335,-0.24288 0.10335,-0.54777 0,-0.27905 -0.12402,-0.48576 -0.12402,-0.20671 -0.3514,-0.34623 -0.22221,-0.13953 -0.53743,-0.2067 -0.31006,-0.07235 -0.68213,-0.07235 h -0.76998 v -0.73897 h 0.78031 q 0.30489,0 0.55294,-0.07751 0.25321,-0.08268 0.42891,-0.23254 0.18087,-0.14986 0.27388,-0.3669 0.09819,-0.22221 0.09819,-0.50126 0,-0.5426 -0.33073,-0.79065 -0.33073,-0.24805 -0.97151,-0.24805 -0.34106,0 -0.7028,0.06718 -0.36173,0.06718 -0.77514,0.20154 V 11.089 q 0.1757,-0.06201 0.37207,-0.10852 0.20154,-0.05168 0.39791,-0.08268 0.20154,-0.03617 0.39791,-0.05168 0.19637,-0.02067 0.37724,-0.02067 0.53743,0 0.94568,0.11886 0.40824,0.11369 0.68213,0.33073 0.27388,0.21704 0.41341,0.5271 0.13953,0.31006 0.13953,0.69763 0,0.57877 -0.29972,0.97151 -0.29456,0.39274 -0.81132,0.62528 0.26355,0.04134 0.51676,0.16536 0.25838,0.12402 0.45992,0.32039 0.2067,0.1912 0.33073,0.45475 0.12919,0.26355 0.12919,0.58394 z"
           id="path196" />
        <path
           d="m 89.891,18.732 q 0.26355,0.01034 0.5116,-0.04651 0.24805,-0.05684 0.43408,-0.17053 0.1912,-0.10852 0.30489,-0.27388 0.11369,-0.16536 0.11369,-0.37724 0,-0.21704 -0.07751,-0.3514 -0.07235,-0.13436 -0.16536,-0.24805 -0.09302,-0.11369 -0.17053,-0.24288 -0.07235,-0.12919 -0.07235,-0.34623 0,-0.10852 0.04134,-0.22738 0.04134,-0.11886 0.12402,-0.21704 0.08785,-0.09819 0.21704,-0.1602 0.13436,-0.06201 0.31523,-0.06201 0.18087,0 0.34623,0.07752 0.17053,0.07235 0.29455,0.22738 0.12919,0.15503 0.20154,0.38757 0.07751,0.23254 0.07751,0.54777 0,0.42891 -0.1602,0.82165 -0.15503,0.39791 -0.47025,0.7028 -0.31006,0.30489 -0.78031,0.48576 -0.46509,0.18087 -1.0852,0.18087 z"
           id="path198" />
        <path
           d="m 99.632,17.672 h -4.2426 v -0.83716 h 1.7363 v -4.9299 l -1.6175,0.8785 -0.33073,-0.76481 2.1497,-1.1317 h 0.79582 v 5.9479 h 1.5089 z"
           id="path200" />
        <path
           d="m 101.53,18.732 q 0.26355,0.01034 0.51159,-0.04651 0.24805,-0.05684 0.43409,-0.17053 0.1912,-0.10852 0.30489,-0.27388 0.11368,-0.16536 0.11368,-0.37724 0,-0.21704 -0.0775,-0.3514 -0.0724,-0.13436 -0.16537,-0.24805 -0.093,-0.11369 -0.17053,-0.24288 -0.0723,-0.12919 -0.0723,-0.34623 0,-0.10852 0.0413,-0.22738 0.0413,-0.11886 0.12402,-0.21704 0.0879,-0.09819 0.21704,-0.1602 0.13436,-0.06201 0.31523,-0.06201 0.18086,0 0.34623,0.07752 0.17053,0.07235 0.29455,0.22738 0.12919,0.15503 0.20154,0.38757 0.0775,0.23254 0.0775,0.54777 0,0.42891 -0.16019,0.82165 -0.15503,0.39791 -0.47026,0.7028 -0.31005,0.30489 -0.78031,0.48576 -0.46509,0.18087 -1.0852,0.18087 z"
           id="path202" />
        <path
           d="m 111.33,17.672 h -4.4493 v -0.80615 l 1.7467,-1.7363 q 0.42891,-0.42375 0.69763,-0.7338 0.26872,-0.31006 0.41858,-0.56327 0.14986,-0.25838 0.20154,-0.48576 0.0517,-0.22738 0.0517,-0.49092 0,-0.24805 -0.0672,-0.47025 -0.0672,-0.22738 -0.2067,-0.39791 -0.13953,-0.17053 -0.36174,-0.26872 -0.2222,-0.09819 -0.53226,-0.09819 -0.42891,0 -0.78031,0.1912 -0.3514,0.1912 -0.64596,0.49609 l -0.49609,-0.59428 q 0.38241,-0.40308 0.8785,-0.64595 0.50126,-0.24288 1.1627,-0.24288 0.44959,0 0.81649,0.13436 0.37207,0.13436 0.64079,0.38757 0.26871,0.25321 0.41341,0.62012 0.14986,0.3669 0.14986,0.82682 0,0.38757 -0.10336,0.7183 -0.10335,0.33073 -0.31522,0.66146 -0.20671,0.32556 -0.5271,0.67696 -0.31522,0.3514 -0.7493,0.76998 l -1.2247,1.1937 h 3.2814 z"
           id="path204" />
        <path
           d="m 113.17,18.732 q 0.26355,0.01034 0.51159,-0.04651 0.24805,-0.05684 0.43408,-0.17053 0.1912,-0.10852 0.30489,-0.27388 0.11369,-0.16536 0.11369,-0.37724 0,-0.21704 -0.0775,-0.3514 -0.0724,-0.13436 -0.16537,-0.24805 -0.093,-0.11369 -0.17053,-0.24288 -0.0724,-0.12919 -0.0724,-0.34623 0,-0.10852 0.0413,-0.22738 0.0414,-0.11886 0.12403,-0.21704 0.0879,-0.09819 0.21704,-0.1602 0.13436,-0.06201 0.31522,-0.06201 0.18087,0 0.34623,0.07752 0.17054,0.07235 0.29456,0.22738 0.12919,0.15503 0.20154,0.38757 0.0775,0.23254 0.0775,0.54777 0,0.42891 -0.1602,0.82165 -0.15502,0.39791 -0.47025,0.7028 -0.31006,0.30489 -0.78031,0.48576 -0.46509,0.18087 -1.0852,0.18087 z"
           id="path206" />
        <path
           d="m 122.91,17.672 h -4.2426 v -0.83716 h 1.7363 v -4.9299 l -1.6175,0.8785 -0.33072,-0.76481 2.1497,-1.1317 h 0.79581 v 5.9479 h 1.509 z"
           id="path208" />
        <path
           d="m 124.8,18.732 q 0.26355,0.01034 0.51159,-0.04651 0.24805,-0.05684 0.43409,-0.17053 0.1912,-0.10852 0.30489,-0.27388 0.11368,-0.16536 0.11368,-0.37724 0,-0.21704 -0.0775,-0.3514 -0.0724,-0.13436 -0.16537,-0.24805 -0.093,-0.11369 -0.17053,-0.24288 -0.0723,-0.12919 -0.0723,-0.34623 0,-0.10852 0.0413,-0.22738 0.0413,-0.11886 0.12402,-0.21704 0.0879,-0.09819 0.21704,-0.1602 0.13436,-0.06201 0.31523,-0.06201 0.18086,0 0.34623,0.07752 0.17053,0.07235 0.29455,0.22738 0.12919,0.15503 0.20154,0.38757 0.0775,0.23254 0.0775,0.54777 0,0.42891 -0.16019,0.82165 -0.15503,0.39791 -0.47026,0.7028 -0.31005,0.30489 -0.78031,0.48576 -0.46509,0.18087 -1.0852,0.18087 z"
           id="path210" />
        <path
           d="m 134.54,17.672 h -4.2426 v -0.83716 h 1.7363 v -4.9299 l -1.6175,0.8785 -0.33073,-0.76481 2.1497,-1.1317 h 0.79581 v 5.9479 h 1.509 z"
           id="path212" />
      </g>
      <g
         stroke-width="0.26458"
         id="g316"
         transform="translate(25.567664,90.004172)"
         style="stroke:#000000">
        <g
           transform="translate(8.0765,0.26173)"
           style="paint-order:markers fill stroke"
           aria-label="3,1,2,2"
           id="g230">
          <path
             d="m 87.922,25.621 q 0,0.44442 -0.18087,0.83716 -0.18087,0.38757 -0.5426,0.68213 -0.36173,0.28939 -0.9095,0.45992 -0.54777,0.16536 -1.2764,0.16536 -0.40308,0 -0.72347,-0.02584 -0.32039,-0.02584 -0.59944,-0.06718 V 26.8664 q 0.32039,0.05684 0.67696,0.08785 0.35657,0.03101 0.72864,0.03101 0.50643,0 0.86299,-0.08785 0.36173,-0.09302 0.58911,-0.26355 0.22738,-0.17053 0.33073,-0.41341 0.10335,-0.24288 0.10335,-0.54777 0,-0.27905 -0.12402,-0.48576 -0.12402,-0.20671 -0.3514,-0.34623 -0.22221,-0.13953 -0.53743,-0.2067 -0.31006,-0.07235 -0.68213,-0.07235 h -0.76998 v -0.73897 h 0.78031 q 0.30489,0 0.55294,-0.07751 0.25321,-0.08268 0.42891,-0.23254 0.18087,-0.14986 0.27388,-0.3669 0.09819,-0.22221 0.09819,-0.50126 0,-0.5426 -0.33073,-0.79065 -0.33073,-0.24805 -0.97151,-0.24805 -0.34106,0 -0.7028,0.06718 -0.36173,0.06718 -0.77514,0.20154 V 21.089 q 0.1757,-0.06201 0.37207,-0.10852 0.20154,-0.05168 0.39791,-0.08268 0.20154,-0.03617 0.39791,-0.05168 0.19637,-0.02067 0.37724,-0.02067 0.53743,0 0.94568,0.11886 0.40824,0.11369 0.68213,0.33073 0.27388,0.21704 0.41341,0.5271 0.13953,0.31006 0.13953,0.69763 0,0.57877 -0.29972,0.97151 -0.29456,0.39274 -0.81132,0.62528 0.26355,0.04134 0.51676,0.16536 0.25838,0.12402 0.45992,0.32039 0.2067,0.1912 0.33073,0.45475 0.12919,0.26355 0.12919,0.58394 z"
             id="path216" />
          <path
             d="m 89.891,28.732 q 0.26355,0.01034 0.5116,-0.04651 0.24805,-0.05684 0.43408,-0.17053 0.1912,-0.10852 0.30489,-0.27388 0.11369,-0.16536 0.11369,-0.37724 0,-0.21704 -0.07751,-0.3514 -0.07235,-0.13436 -0.16536,-0.24805 -0.09302,-0.11369 -0.17053,-0.24288 -0.07235,-0.12919 -0.07235,-0.34623 0,-0.10852 0.04134,-0.22738 0.04134,-0.11886 0.12402,-0.21704 0.08785,-0.09819 0.21704,-0.1602 0.13436,-0.06201 0.31523,-0.06201 0.18087,0 0.34623,0.07752 0.17053,0.07235 0.29455,0.22738 0.12919,0.15503 0.20154,0.38757 0.07751,0.23254 0.07751,0.54777 0,0.42891 -0.1602,0.82165 -0.15503,0.39791 -0.47025,0.7028 -0.31006,0.30489 -0.78031,0.48576 -0.46509,0.18087 -1.0852,0.18087 z"
             id="path218" />
          <path
             d="m 99.632,27.672 h -4.2426 v -0.83716 h 1.7363 v -4.9299 l -1.6175,0.8785 -0.33073,-0.76481 2.1497,-1.1317 h 0.79582 v 5.9479 h 1.5089 z"
             id="path220" />
          <path
             d="m 101.53,28.732 q 0.26355,0.01034 0.51159,-0.04651 0.24805,-0.05684 0.43409,-0.17053 0.1912,-0.10852 0.30489,-0.27388 0.11368,-0.16536 0.11368,-0.37724 0,-0.21704 -0.0775,-0.3514 -0.0724,-0.13436 -0.16537,-0.24805 -0.093,-0.11369 -0.17053,-0.24288 -0.0723,-0.12919 -0.0723,-0.34623 0,-0.10852 0.0413,-0.22738 0.0413,-0.11886 0.12402,-0.21704 0.0879,-0.09819 0.21704,-0.1602 0.13436,-0.06201 0.31523,-0.06201 0.18086,0 0.34623,0.07752 0.17053,0.07235 0.29455,0.22738 0.12919,0.15503 0.20154,0.38757 0.0775,0.23254 0.0775,0.54777 0,0.42891 -0.16019,0.82165 -0.15503,0.39791 -0.47026,0.7028 -0.31005,0.30489 -0.78031,0.48576 -0.46509,0.18087 -1.0852,0.18087 z"
             id="path222" />
          <path
             d="m 111.33,27.672 h -4.4493 v -0.80615 l 1.7467,-1.7363 q 0.42891,-0.42375 0.69763,-0.7338 0.26872,-0.31006 0.41858,-0.56327 0.14986,-0.25838 0.20154,-0.48576 0.0517,-0.22738 0.0517,-0.49092 0,-0.24805 -0.0672,-0.47025 -0.0672,-0.22738 -0.2067,-0.39791 -0.13953,-0.17053 -0.36174,-0.26872 -0.2222,-0.09819 -0.53226,-0.09819 -0.42891,0 -0.78031,0.1912 -0.3514,0.1912 -0.64596,0.49609 l -0.49609,-0.59428 q 0.38241,-0.40308 0.8785,-0.64595 0.50126,-0.24288 1.1627,-0.24288 0.44959,0 0.81649,0.13436 0.37207,0.13436 0.64079,0.38757 0.26871,0.25321 0.41341,0.62012 0.14986,0.3669 0.14986,0.82682 0,0.38757 -0.10336,0.7183 -0.10335,0.33073 -0.31522,0.66146 -0.20671,0.32556 -0.5271,0.67696 -0.31522,0.3514 -0.7493,0.76998 l -1.2247,1.1937 h 3.2814 z"
             id="path224" />
          <path
             d="m 113.17,28.732 q 0.26355,0.01034 0.51159,-0.04651 0.24805,-0.05684 0.43408,-0.17053 0.1912,-0.10852 0.30489,-0.27388 0.11369,-0.16536 0.11369,-0.37724 0,-0.21704 -0.0775,-0.3514 -0.0724,-0.13436 -0.16537,-0.24805 -0.093,-0.11369 -0.17053,-0.24288 -0.0724,-0.12919 -0.0724,-0.34623 0,-0.10852 0.0413,-0.22738 0.0414,-0.11886 0.12403,-0.21704 0.0879,-0.09819 0.21704,-0.1602 0.13436,-0.06201 0.31522,-0.06201 0.18087,0 0.34623,0.07752 0.17054,0.07235 0.29456,0.22738 0.12919,0.15503 0.20154,0.38757 0.0775,0.23254 0.0775,0.54777 0,0.42891 -0.1602,0.82165 -0.15502,0.39791 -0.47025,0.7028 -0.31006,0.30489 -0.78031,0.48576 -0.46509,0.18087 -1.0852,0.18087 z"
             id="path226" />
          <path
             d="m 122.96,27.672 h -4.4493 v -0.80615 l 1.7466,-1.7363 q 0.42892,-0.42375 0.69763,-0.7338 0.26872,-0.31006 0.41858,-0.56327 0.14986,-0.25838 0.20154,-0.48576 0.0517,-0.22738 0.0517,-0.49092 0,-0.24805 -0.0672,-0.47025 -0.0672,-0.22738 -0.20671,-0.39791 -0.13952,-0.17053 -0.36173,-0.26872 -0.22221,-0.09819 -0.53227,-0.09819 -0.42891,0 -0.78031,0.1912 -0.3514,0.1912 -0.64595,0.49609 l -0.49609,-0.59428 q 0.3824,-0.40308 0.87849,-0.64595 0.50126,-0.24288 1.1627,-0.24288 0.44958,0 0.81648,0.13436 0.37207,0.13436 0.64079,0.38757 0.26872,0.25321 0.41341,0.62012 0.14986,0.3669 0.14986,0.82682 0,0.38757 -0.10335,0.7183 -0.10336,0.33073 -0.31523,0.66146 -0.2067,0.32556 -0.5271,0.67696 -0.31522,0.3514 -0.7493,0.76998 l -1.2247,1.1937 h 3.2814 z"
             id="path228" />
        </g>
        <g
           transform="translate(8.4692,0.26173)"
           style="paint-order:markers fill stroke"
           aria-label="0,1,3,2,2"
           id="g250">
          <path
             d="m 88.206,34.298 q 0,0.77514 -0.15503,1.4159 -0.15503,0.63562 -0.47025,1.0955 -0.31523,0.45475 -0.78548,0.70796 -0.46509,0.24805 -1.0955,0.24805 -0.5426,0 -0.98702,-0.20154 -0.44442,-0.2067 -0.75964,-0.63045 -0.31523,-0.42375 -0.48576,-1.08 -0.17053,-0.65629 -0.17053,-1.5555 0,-0.77514 0.15503,-1.4159 0.1602,-0.64079 0.47025,-1.0955 0.31522,-0.45992 0.78548,-0.70796 0.47025,-0.25321 1.0955,-0.25321 0.5426,0 0.98702,0.2067 0.44442,0.20154 0.75964,0.63045 0.31522,0.42375 0.48576,1.08 0.17053,0.65629 0.17053,1.5555 z m -0.9095,0.03101 q 0,-0.1757 -0.0155,-0.34623 -0.01033,-0.1757 -0.02584,-0.34106 l -2.8577,2.1239 q 0.07751,0.26872 0.19637,0.49609 0.11886,0.22738 0.28422,0.39274 0.17053,0.1602 0.3824,0.25321 0.21704,0.08785 0.49092,0.08785 0.3514,0 0.63562,-0.17053 0.28939,-0.17053 0.49092,-0.50643 0.20154,-0.3359 0.31006,-0.83199 0.10852,-0.50126 0.10852,-1.1575 z M 84.2063,34.267 q 0,0.1602 0,0.32039 0.0052,0.1602 0.02067,0.31006 l 2.8577,-2.1136 q -0.07751,-0.26355 -0.19637,-0.48059 -0.11886,-0.21704 -0.28422,-0.37207 -0.16536,-0.1602 -0.37724,-0.24805 -0.21187,-0.08785 -0.47542,-0.08785 -0.3514,0 -0.64079,0.17053 -0.28422,0.17053 -0.48576,0.5116 -0.20154,0.3359 -0.31006,0.83716 -0.10852,0.49609 -0.10852,1.1524 z"
             id="path232" />
          <path
             d="m 89.891,38.732 q 0.26355,0.01033 0.5116,-0.04651 0.24805,-0.05684 0.43408,-0.17053 0.1912,-0.10852 0.30489,-0.27388 0.11369,-0.16536 0.11369,-0.37724 0,-0.21704 -0.07751,-0.3514 -0.07235,-0.13436 -0.16536,-0.24805 -0.09302,-0.11369 -0.17053,-0.24288 -0.07235,-0.12919 -0.07235,-0.34623 0,-0.10852 0.04134,-0.22738 0.04134,-0.11886 0.12402,-0.21704 0.08785,-0.09819 0.21704,-0.1602 0.13436,-0.06201 0.31523,-0.06201 0.18087,0 0.34623,0.07751 0.17053,0.07235 0.29455,0.22738 0.12919,0.15503 0.20154,0.38757 0.07751,0.23254 0.07751,0.54777 0,0.42891 -0.1602,0.82165 -0.15503,0.39791 -0.47025,0.7028 -0.31006,0.30489 -0.78031,0.48576 -0.46509,0.18087 -1.0852,0.18087 z"
             id="path234" />
          <path
             d="m 99.632,37.672 h -4.2426 v -0.83716 h 1.7363 v -4.9299 l -1.6175,0.8785 -0.33073,-0.76481 2.1497,-1.1317 h 0.79582 v 5.9479 h 1.5089 z"
             id="path236" />
          <path
             d="m 101.53,38.732 q 0.26355,0.01033 0.51159,-0.04651 0.24805,-0.05684 0.43409,-0.17053 0.1912,-0.10852 0.30489,-0.27388 0.11368,-0.16536 0.11368,-0.37724 0,-0.21704 -0.0775,-0.3514 -0.0724,-0.13436 -0.16537,-0.24805 -0.093,-0.11369 -0.17053,-0.24288 -0.0723,-0.12919 -0.0723,-0.34623 0,-0.10852 0.0413,-0.22738 0.0413,-0.11886 0.12402,-0.21704 0.0879,-0.09819 0.21704,-0.1602 0.13436,-0.06201 0.31523,-0.06201 0.18086,0 0.34623,0.07751 0.17053,0.07235 0.29455,0.22738 0.12919,0.15503 0.20154,0.38757 0.0775,0.23254 0.0775,0.54777 0,0.42891 -0.16019,0.82165 -0.15503,0.39791 -0.47026,0.7028 -0.31005,0.30489 -0.78031,0.48576 -0.46509,0.18087 -1.0852,0.18087 z"
             id="path238" />
          <path
             d="m 111.2,35.621 q 0,0.44442 -0.18087,0.83716 -0.18086,0.38757 -0.5426,0.68213 -0.36173,0.28939 -0.9095,0.45992 -0.54777,0.16536 -1.2764,0.16536 -0.40308,0 -0.72347,-0.02584 -0.32039,-0.02584 -0.59945,-0.06718 V 36.8664 q 0.3204,0.05684 0.67696,0.08785 0.35657,0.03101 0.72864,0.03101 0.50643,0 0.86299,-0.08785 0.36174,-0.09302 0.58911,-0.26355 0.22738,-0.17053 0.33073,-0.41341 0.10335,-0.24288 0.10335,-0.54777 0,-0.27905 -0.12402,-0.48576 -0.12402,-0.20671 -0.3514,-0.34623 -0.22221,-0.13953 -0.53743,-0.2067 -0.31006,-0.07235 -0.68213,-0.07235 h -0.76998 v -0.73897 h 0.78032 q 0.30489,0 0.55293,-0.07751 0.25322,-0.08268 0.42891,-0.23254 0.18087,-0.14986 0.27389,-0.3669 0.0982,-0.22221 0.0982,-0.50126 0,-0.5426 -0.33072,-0.79065 -0.33073,-0.24805 -0.97152,-0.24805 -0.34106,0 -0.7028,0.06718 -0.36173,0.06718 -0.77514,0.20154 V 31.089 q 0.1757,-0.06201 0.37207,-0.10852 0.20154,-0.05168 0.39791,-0.08268 0.20153,-0.03617 0.3979,-0.05168 0.19637,-0.02067 0.37724,-0.02067 0.53743,0 0.94568,0.11886 0.40824,0.11369 0.68212,0.33073 0.27389,0.21704 0.41341,0.5271 0.13953,0.31006 0.13953,0.69763 0,0.57877 -0.29972,0.97151 -0.29456,0.39274 -0.81132,0.62528 0.26355,0.04134 0.51676,0.16536 0.25838,0.12402 0.45992,0.32039 0.20671,0.1912 0.33073,0.45475 0.12919,0.26355 0.12919,0.58394 z"
             id="path240" />
          <path
             d="m 113.17,38.732 q 0.26355,0.01033 0.51159,-0.04651 0.24805,-0.05684 0.43408,-0.17053 0.1912,-0.10852 0.30489,-0.27388 0.11369,-0.16536 0.11369,-0.37724 0,-0.21704 -0.0775,-0.3514 -0.0724,-0.13436 -0.16537,-0.24805 -0.093,-0.11369 -0.17053,-0.24288 -0.0724,-0.12919 -0.0724,-0.34623 0,-0.10852 0.0413,-0.22738 0.0414,-0.11886 0.12403,-0.21704 0.0879,-0.09819 0.21704,-0.1602 0.13436,-0.06201 0.31522,-0.06201 0.18087,0 0.34623,0.07751 0.17054,0.07235 0.29456,0.22738 0.12919,0.15503 0.20154,0.38757 0.0775,0.23254 0.0775,0.54777 0,0.42891 -0.1602,0.82165 -0.15502,0.39791 -0.47025,0.7028 -0.31006,0.30489 -0.78031,0.48576 -0.46509,0.18087 -1.0852,0.18087 z"
             id="path242" />
          <path
             d="m 122.96,37.672 h -4.4493 v -0.80615 l 1.7466,-1.7363 q 0.42892,-0.42375 0.69763,-0.7338 0.26872,-0.31006 0.41858,-0.56327 0.14986,-0.25838 0.20154,-0.48576 0.0517,-0.22738 0.0517,-0.49092 0,-0.24805 -0.0672,-0.47025 -0.0672,-0.22738 -0.20671,-0.39791 -0.13952,-0.17053 -0.36173,-0.26872 -0.22221,-0.09819 -0.53227,-0.09819 -0.42891,0 -0.78031,0.1912 -0.3514,0.1912 -0.64595,0.49609 l -0.49609,-0.59428 q 0.3824,-0.40308 0.87849,-0.64595 0.50126,-0.24288 1.1627,-0.24288 0.44958,0 0.81648,0.13436 0.37207,0.13436 0.64079,0.38757 0.26872,0.25321 0.41341,0.62012 0.14986,0.3669 0.14986,0.82682 0,0.38757 -0.10335,0.7183 -0.10336,0.33073 -0.31523,0.66146 -0.2067,0.32556 -0.5271,0.67696 -0.31522,0.3514 -0.7493,0.76998 l -1.2247,1.1937 h 3.2814 z"
             id="path244" />
          <path
             d="m 124.8,38.732 q 0.26355,0.01033 0.51159,-0.04651 0.24805,-0.05684 0.43409,-0.17053 0.1912,-0.10852 0.30489,-0.27388 0.11368,-0.16536 0.11368,-0.37724 0,-0.21704 -0.0775,-0.3514 -0.0724,-0.13436 -0.16537,-0.24805 -0.093,-0.11369 -0.17053,-0.24288 -0.0723,-0.12919 -0.0723,-0.34623 0,-0.10852 0.0413,-0.22738 0.0413,-0.11886 0.12402,-0.21704 0.0879,-0.09819 0.21704,-0.1602 0.13436,-0.06201 0.31523,-0.06201 0.18086,0 0.34623,0.07751 0.17053,0.07235 0.29455,0.22738 0.12919,0.15503 0.20154,0.38757 0.0775,0.23254 0.0775,0.54777 0,0.42891 -0.16019,0.82165 -0.15503,0.39791 -0.47026,0.7028 -0.31005,0.30489 -0.78031,0.48576 -0.46509,0.18087 -1.0852,0.18087 z"
             id="path246" />
          <path
             d="m 134.6,37.672 h -4.4493 v -0.80615 l 1.7467,-1.7363 q 0.42891,-0.42375 0.69763,-0.7338 0.26872,-0.31006 0.41858,-0.56327 0.14986,-0.25838 0.20154,-0.48576 0.0517,-0.22738 0.0517,-0.49092 0,-0.24805 -0.0672,-0.47025 -0.0672,-0.22738 -0.2067,-0.39791 -0.13953,-0.17053 -0.36174,-0.26872 -0.2222,-0.09819 -0.53226,-0.09819 -0.42891,0 -0.78031,0.1912 -0.3514,0.1912 -0.64596,0.49609 l -0.49609,-0.59428 q 0.38241,-0.40308 0.8785,-0.64595 0.50126,-0.24288 1.1627,-0.24288 0.44959,0 0.81649,0.13436 0.37207,0.13436 0.64079,0.38757 0.26871,0.25321 0.41341,0.62012 0.14986,0.3669 0.14986,0.82682 0,0.38757 -0.10336,0.7183 -0.10335,0.33073 -0.31522,0.66146 -0.20671,0.32556 -0.5271,0.67696 -0.31522,0.3514 -0.7493,0.76998 l -1.2247,1.1937 h 3.2814 z"
             id="path248" />
        </g>
        <g
           transform="translate(8.4692,0.26173)"
           style="paint-order:markers fill stroke"
           aria-label="0,4,2,1,1"
           id="g270">
          <path
             d="m 88.206,44.298 q 0,0.77514 -0.15503,1.4159 -0.15503,0.63562 -0.47025,1.0955 -0.31523,0.45475 -0.78548,0.70796 -0.46509,0.24805 -1.0955,0.24805 -0.5426,0 -0.98702,-0.20154 -0.44442,-0.2067 -0.75964,-0.63045 -0.31523,-0.42375 -0.48576,-1.08 -0.17053,-0.65629 -0.17053,-1.5555 0,-0.77514 0.15503,-1.4159 0.1602,-0.64079 0.47025,-1.0955 0.31522,-0.45992 0.78548,-0.70796 0.47025,-0.25321 1.0955,-0.25321 0.5426,0 0.98702,0.2067 0.44442,0.20154 0.75964,0.63045 0.31522,0.42375 0.48576,1.08 0.17053,0.65629 0.17053,1.5555 z m -0.9095,0.03101 q 0,-0.1757 -0.0155,-0.34623 -0.01033,-0.1757 -0.02584,-0.34106 l -2.8577,2.1239 q 0.07751,0.26872 0.19637,0.49609 0.11886,0.22738 0.28422,0.39274 0.17053,0.1602 0.3824,0.25321 0.21704,0.08785 0.49092,0.08785 0.3514,0 0.63562,-0.17053 0.28939,-0.17053 0.49092,-0.50643 0.20154,-0.3359 0.31006,-0.83199 0.10852,-0.50126 0.10852,-1.1575 z M 84.2063,44.267 q 0,0.1602 0,0.32039 0.0052,0.1602 0.02067,0.31006 l 2.8577,-2.1136 q -0.07751,-0.26355 -0.19637,-0.48059 -0.11886,-0.21704 -0.28422,-0.37207 -0.16536,-0.1602 -0.37724,-0.24805 -0.21187,-0.08785 -0.47542,-0.08785 -0.3514,0 -0.64079,0.17053 -0.28422,0.17053 -0.48576,0.5116 -0.20154,0.3359 -0.31006,0.83716 -0.10852,0.49609 -0.10852,1.1524 z"
             id="path252" />
          <path
             d="m 89.891,48.732 q 0.26355,0.01033 0.5116,-0.04651 0.24805,-0.05684 0.43408,-0.17053 0.1912,-0.10852 0.30489,-0.27388 0.11369,-0.16536 0.11369,-0.37724 0,-0.21704 -0.07751,-0.3514 -0.07235,-0.13436 -0.16536,-0.24805 -0.09302,-0.11369 -0.17053,-0.24288 -0.07235,-0.12919 -0.07235,-0.34623 0,-0.10852 0.04134,-0.22738 0.04134,-0.11886 0.12402,-0.21704 0.08785,-0.09819 0.21704,-0.1602 0.13436,-0.06201 0.31523,-0.06201 0.18087,0 0.34623,0.07751 0.17053,0.07235 0.29455,0.22738 0.12919,0.15503 0.20154,0.38757 0.07751,0.23254 0.07751,0.54777 0,0.42891 -0.1602,0.82165 -0.15503,0.39791 -0.47025,0.7028 -0.31006,0.30489 -0.78031,0.48576 -0.46509,0.18087 -1.0852,0.18087 z"
             id="path254" />
          <path
             d="m 100.02,46.179 h -1.1524 v 1.4934 H 97.94776 V 46.179 h -3.2504 v -0.79065 l 2.8784,-4.47 h 1.2919 v 4.47 h 1.1524 z m -2.0722,-4.3925 -2.3513,3.6018 h 2.3513 z"
             id="path256" />
          <path
             d="m 101.53,48.732 q 0.26355,0.01033 0.51159,-0.04651 0.24805,-0.05684 0.43409,-0.17053 0.1912,-0.10852 0.30489,-0.27388 0.11368,-0.16536 0.11368,-0.37724 0,-0.21704 -0.0775,-0.3514 -0.0724,-0.13436 -0.16537,-0.24805 -0.093,-0.11369 -0.17053,-0.24288 -0.0723,-0.12919 -0.0723,-0.34623 0,-0.10852 0.0413,-0.22738 0.0413,-0.11886 0.12402,-0.21704 0.0879,-0.09819 0.21704,-0.1602 0.13436,-0.06201 0.31523,-0.06201 0.18086,0 0.34623,0.07751 0.17053,0.07235 0.29455,0.22738 0.12919,0.15503 0.20154,0.38757 0.0775,0.23254 0.0775,0.54777 0,0.42891 -0.16019,0.82165 -0.15503,0.39791 -0.47026,0.7028 -0.31005,0.30489 -0.78031,0.48576 -0.46509,0.18087 -1.0852,0.18087 z"
             id="path258" />
          <path
             d="m 111.33,47.672 h -4.4493 v -0.80615 l 1.7467,-1.7363 q 0.42891,-0.42375 0.69763,-0.7338 0.26872,-0.31006 0.41858,-0.56327 0.14986,-0.25838 0.20154,-0.48576 0.0517,-0.22738 0.0517,-0.49092 0,-0.24805 -0.0672,-0.47025 -0.0672,-0.22738 -0.2067,-0.39791 -0.13953,-0.17053 -0.36174,-0.26872 -0.2222,-0.09819 -0.53226,-0.09819 -0.42891,0 -0.78031,0.1912 -0.3514,0.1912 -0.64596,0.49609 l -0.49609,-0.59428 q 0.38241,-0.40308 0.8785,-0.64595 0.50126,-0.24288 1.1627,-0.24288 0.44959,0 0.81649,0.13436 0.37207,0.13436 0.64079,0.38757 0.26871,0.25321 0.41341,0.62012 0.14986,0.3669 0.14986,0.82682 0,0.38757 -0.10336,0.7183 -0.10335,0.33073 -0.31522,0.66146 -0.20671,0.32556 -0.5271,0.67696 -0.31522,0.3514 -0.7493,0.76998 l -1.2247,1.1937 h 3.2814 z"
             id="path260" />
          <path
             d="m 113.17,48.732 q 0.26355,0.01033 0.51159,-0.04651 0.24805,-0.05684 0.43408,-0.17053 0.1912,-0.10852 0.30489,-0.27388 0.11369,-0.16536 0.11369,-0.37724 0,-0.21704 -0.0775,-0.3514 -0.0724,-0.13436 -0.16537,-0.24805 -0.093,-0.11369 -0.17053,-0.24288 -0.0724,-0.12919 -0.0724,-0.34623 0,-0.10852 0.0413,-0.22738 0.0414,-0.11886 0.12403,-0.21704 0.0879,-0.09819 0.21704,-0.1602 0.13436,-0.06201 0.31522,-0.06201 0.18087,0 0.34623,0.07751 0.17054,0.07235 0.29456,0.22738 0.12919,0.15503 0.20154,0.38757 0.0775,0.23254 0.0775,0.54777 0,0.42891 -0.1602,0.82165 -0.15502,0.39791 -0.47025,0.7028 -0.31006,0.30489 -0.78031,0.48576 -0.46509,0.18087 -1.0852,0.18087 z"
             id="path262" />
          <path
             d="m 122.91,47.672 h -4.2426 v -0.83716 h 1.7363 v -4.9299 l -1.6175,0.8785 -0.33072,-0.76481 2.1497,-1.1317 h 0.79581 v 5.9479 h 1.509 z"
             id="path264" />
          <path
             d="m 124.8,48.732 q 0.26355,0.01033 0.51159,-0.04651 0.24805,-0.05684 0.43409,-0.17053 0.1912,-0.10852 0.30489,-0.27388 0.11368,-0.16536 0.11368,-0.37724 0,-0.21704 -0.0775,-0.3514 -0.0724,-0.13436 -0.16537,-0.24805 -0.093,-0.11369 -0.17053,-0.24288 -0.0723,-0.12919 -0.0723,-0.34623 0,-0.10852 0.0413,-0.22738 0.0413,-0.11886 0.12402,-0.21704 0.0879,-0.09819 0.21704,-0.1602 0.13436,-0.06201 0.31523,-0.06201 0.18086,0 0.34623,0.07751 0.17053,0.07235 0.29455,0.22738 0.12919,0.15503 0.20154,0.38757 0.0775,0.23254 0.0775,0.54777 0,0.42891 -0.16019,0.82165 -0.15503,0.39791 -0.47026,0.7028 -0.31005,0.30489 -0.78031,0.48576 -0.46509,0.18087 -1.0852,0.18087 z"
             id="path266" />
          <path
             d="m 134.54,47.672 h -4.2426 v -0.83716 h 1.7363 v -4.9299 l -1.6175,0.8785 -0.33073,-0.76481 2.1497,-1.1317 h 0.79581 v 5.9479 h 1.509 z"
             id="path268" />
        </g>
        <g
           transform="translate(8.2641,0.26173)"
           style="paint-order:markers fill stroke"
           aria-label="1,1,4,1,1"
           id="g290">
          <path
             d="m 87.994,57.672 h -4.2426 v -0.83716 h 1.7363 v -4.9299 l -1.6175,0.8785 -0.33073,-0.76481 2.1497,-1.1317 h 0.79582 v 5.9479 h 1.5089 z"
             id="path272" />
          <path
             d="m 89.891,58.732 q 0.26355,0.01033 0.5116,-0.04651 0.24805,-0.05684 0.43408,-0.17053 0.1912,-0.10852 0.30489,-0.27388 0.11369,-0.16536 0.11369,-0.37724 0,-0.21704 -0.07751,-0.3514 -0.07235,-0.13436 -0.16536,-0.24805 -0.09302,-0.11369 -0.17053,-0.24288 -0.07235,-0.12919 -0.07235,-0.34623 0,-0.10852 0.04134,-0.22738 0.04134,-0.11886 0.12402,-0.21704 0.08785,-0.09819 0.21704,-0.1602 0.13436,-0.06201 0.31523,-0.06201 0.18087,0 0.34623,0.07751 0.17053,0.07235 0.29455,0.22738 0.12919,0.15503 0.20154,0.38757 0.07751,0.23254 0.07751,0.54777 0,0.42891 -0.1602,0.82165 -0.15503,0.39791 -0.47025,0.7028 -0.31006,0.30489 -0.78031,0.48576 -0.46509,0.18087 -1.0852,0.18087 z"
             id="path274" />
          <path
             d="m 99.632,57.672 h -4.2426 v -0.83716 h 1.7363 v -4.9299 l -1.6175,0.8785 -0.33073,-0.76481 2.1497,-1.1317 h 0.79582 v 5.9479 h 1.5089 z"
             id="path276" />
          <path
             d="m 101.53,58.732 q 0.26355,0.01033 0.51159,-0.04651 0.24805,-0.05684 0.43409,-0.17053 0.1912,-0.10852 0.30489,-0.27388 0.11368,-0.16536 0.11368,-0.37724 0,-0.21704 -0.0775,-0.3514 -0.0724,-0.13436 -0.16537,-0.24805 -0.093,-0.11369 -0.17053,-0.24288 -0.0723,-0.12919 -0.0723,-0.34623 0,-0.10852 0.0413,-0.22738 0.0413,-0.11886 0.12402,-0.21704 0.0879,-0.09819 0.21704,-0.1602 0.13436,-0.06201 0.31523,-0.06201 0.18086,0 0.34623,0.07751 0.17053,0.07235 0.29455,0.22738 0.12919,0.15503 0.20154,0.38757 0.0775,0.23254 0.0775,0.54777 0,0.42891 -0.16019,0.82165 -0.15503,0.39791 -0.47026,0.7028 -0.31005,0.30489 -0.78031,0.48576 -0.46509,0.18087 -1.0852,0.18087 z"
             id="path278" />
          <path
             d="m 111.66,56.179 h -1.1524 v 1.4934 h -0.91984 V 56.179 h -3.2504 v -0.79065 l 2.8784,-4.47 h 1.2919 v 4.47 h 1.1524 z m -2.0722,-4.3925 -2.3513,3.6018 h 2.3513 z"
             id="path280" />
          <path
             d="m 113.17,58.732 q 0.26355,0.01033 0.51159,-0.04651 0.24805,-0.05684 0.43408,-0.17053 0.1912,-0.10852 0.30489,-0.27388 0.11369,-0.16536 0.11369,-0.37724 0,-0.21704 -0.0775,-0.3514 -0.0724,-0.13436 -0.16537,-0.24805 -0.093,-0.11369 -0.17053,-0.24288 -0.0724,-0.12919 -0.0724,-0.34623 0,-0.10852 0.0413,-0.22738 0.0414,-0.11886 0.12403,-0.21704 0.0879,-0.09819 0.21704,-0.1602 0.13436,-0.06201 0.31522,-0.06201 0.18087,0 0.34623,0.07751 0.17054,0.07235 0.29456,0.22738 0.12919,0.15503 0.20154,0.38757 0.0775,0.23254 0.0775,0.54777 0,0.42891 -0.1602,0.82165 -0.15502,0.39791 -0.47025,0.7028 -0.31006,0.30489 -0.78031,0.48576 -0.46509,0.18087 -1.0852,0.18087 z"
             id="path282" />
          <path
             d="m 122.91,57.672 h -4.2426 v -0.83716 h 1.7363 v -4.9299 l -1.6175,0.8785 -0.33072,-0.76481 2.1497,-1.1317 h 0.79581 v 5.9479 h 1.509 z"
             id="path284" />
          <path
             d="m 124.8,58.732 q 0.26355,0.01033 0.51159,-0.04651 0.24805,-0.05684 0.43409,-0.17053 0.1912,-0.10852 0.30489,-0.27388 0.11368,-0.16536 0.11368,-0.37724 0,-0.21704 -0.0775,-0.3514 -0.0724,-0.13436 -0.16537,-0.24805 -0.093,-0.11369 -0.17053,-0.24288 -0.0723,-0.12919 -0.0723,-0.34623 0,-0.10852 0.0413,-0.22738 0.0413,-0.11886 0.12402,-0.21704 0.0879,-0.09819 0.21704,-0.1602 0.13436,-0.06201 0.31523,-0.06201 0.18086,0 0.34623,0.07751 0.17053,0.07235 0.29455,0.22738 0.12919,0.15503 0.20154,0.38757 0.0775,0.23254 0.0775,0.54777 0,0.42891 -0.16019,0.82165 -0.15503,0.39791 -0.47026,0.7028 -0.31005,0.30489 -0.78031,0.48576 -0.46509,0.18087 -1.0852,0.18087 z"
             id="path286" />
          <path
             d="m 134.54,57.672 h -4.2426 v -0.83716 h 1.7363 v -4.9299 l -1.6175,0.8785 -0.33073,-0.76481 2.1497,-1.1317 h 0.79581 v 5.9479 h 1.509 z"
             id="path288" />
        </g>
        <g
           transform="translate(8.1832,0.26173)"
           style="paint-order:markers fill stroke"
           aria-label="2,4,2"
           id="g302">
          <path
             d="m 88.051,67.672 h -4.4493 v -0.80615 l 1.7467,-1.7363 q 0.42891,-0.42375 0.69763,-0.7338 0.26872,-0.31006 0.41858,-0.56327 0.14986,-0.25838 0.20154,-0.48576 0.05168,-0.22738 0.05168,-0.49092 0,-0.24805 -0.06718,-0.47025 -0.06718,-0.22738 -0.2067,-0.39791 -0.13953,-0.17053 -0.36173,-0.26872 -0.22221,-0.09819 -0.53227,-0.09819 -0.42891,0 -0.78031,0.1912 -0.3514,0.1912 -0.64595,0.49609 L 83.6276,61.71374 q 0.3824,-0.40308 0.8785,-0.64595 0.50126,-0.24288 1.1627,-0.24288 0.44958,0 0.81648,0.13436 0.37207,0.13436 0.64078,0.38757 0.26872,0.25321 0.41341,0.62012 0.14986,0.3669 0.14986,0.82682 0,0.38757 -0.10335,0.7183 -0.10335,0.33073 -0.31522,0.66146 -0.2067,0.32556 -0.5271,0.67696 -0.31522,0.3514 -0.74931,0.76998 l -1.2247,1.1937 h 3.2814 z"
             id="path292" />
          <path
             d="m 89.891,68.732 q 0.26355,0.01033 0.5116,-0.04651 0.24805,-0.05684 0.43408,-0.17053 0.1912,-0.10852 0.30489,-0.27388 0.11369,-0.16536 0.11369,-0.37724 0,-0.21704 -0.07751,-0.3514 -0.07235,-0.13436 -0.16536,-0.24805 -0.09302,-0.11369 -0.17053,-0.24288 -0.07235,-0.12919 -0.07235,-0.34623 0,-0.10852 0.04134,-0.22738 0.04134,-0.11886 0.12402,-0.21704 0.08785,-0.09819 0.21704,-0.1602 0.13436,-0.06201 0.31523,-0.06201 0.18087,0 0.34623,0.07751 0.17053,0.07235 0.29455,0.22738 0.12919,0.15503 0.20154,0.38757 0.07751,0.23254 0.07751,0.54777 0,0.42891 -0.1602,0.82165 -0.15503,0.39791 -0.47025,0.7028 -0.31006,0.30489 -0.78031,0.48576 -0.46509,0.18087 -1.0852,0.18087 z"
             id="path294" />
          <path
             d="m 100.02,66.179 h -1.1524 v 1.4934 H 97.94776 V 66.179 h -3.2504 v -0.79065 l 2.8784,-4.47 h 1.2919 v 4.47 h 1.1524 z m -2.0722,-4.3925 -2.3513,3.6018 h 2.3513 z"
             id="path296" />
          <path
             d="m 101.53,68.732 q 0.26355,0.01033 0.51159,-0.04651 0.24805,-0.05684 0.43409,-0.17053 0.1912,-0.10852 0.30489,-0.27388 0.11368,-0.16536 0.11368,-0.37724 0,-0.21704 -0.0775,-0.3514 -0.0724,-0.13436 -0.16537,-0.24805 -0.093,-0.11369 -0.17053,-0.24288 -0.0723,-0.12919 -0.0723,-0.34623 0,-0.10852 0.0413,-0.22738 0.0413,-0.11886 0.12402,-0.21704 0.0879,-0.09819 0.21704,-0.1602 0.13436,-0.06201 0.31523,-0.06201 0.18086,0 0.34623,0.07751 0.17053,0.07235 0.29455,0.22738 0.12919,0.15503 0.20154,0.38757 0.0775,0.23254 0.0775,0.54777 0,0.42891 -0.16019,0.82165 -0.15503,0.39791 -0.47026,0.7028 -0.31005,0.30489 -0.78031,0.48576 -0.46509,0.18087 -1.0852,0.18087 z"
             id="path298" />
          <path
             d="m 111.33,67.672 h -4.4493 v -0.80615 l 1.7467,-1.7363 q 0.42891,-0.42375 0.69763,-0.7338 0.26872,-0.31006 0.41858,-0.56327 0.14986,-0.25838 0.20154,-0.48576 0.0517,-0.22738 0.0517,-0.49092 0,-0.24805 -0.0672,-0.47025 -0.0672,-0.22738 -0.2067,-0.39791 -0.13953,-0.17053 -0.36174,-0.26872 -0.2222,-0.09819 -0.53226,-0.09819 -0.42891,0 -0.78031,0.1912 -0.3514,0.1912 -0.64596,0.49609 l -0.49609,-0.59428 q 0.38241,-0.40308 0.8785,-0.64595 0.50126,-0.24288 1.1627,-0.24288 0.44959,0 0.81649,0.13436 0.37207,0.13436 0.64079,0.38757 0.26871,0.25321 0.41341,0.62012 0.14986,0.3669 0.14986,0.82682 0,0.38757 -0.10336,0.7183 -0.10335,0.33073 -0.31522,0.66146 -0.20671,0.32556 -0.5271,0.67696 -0.31522,0.3514 -0.7493,0.76998 l -1.2247,1.1937 h 3.2814 z"
             id="path300" />
        </g>
        <g
           transform="translate(8.0765,0.26173)"
           style="paint-order:markers fill stroke"
           aria-label="3,2,3"
           id="g314">
          <path
             d="m 87.922,75.621 q 0,0.44442 -0.18087,0.83716 -0.18087,0.38757 -0.5426,0.68213 -0.36173,0.28939 -0.9095,0.45992 -0.54777,0.16536 -1.2764,0.16536 -0.40308,0 -0.72347,-0.02584 -0.32039,-0.02584 -0.59944,-0.06718 V 76.8664 q 0.32039,0.05684 0.67696,0.08785 0.35657,0.03101 0.72864,0.03101 0.50643,0 0.86299,-0.08785 0.36173,-0.09302 0.58911,-0.26355 0.22738,-0.17053 0.33073,-0.41341 0.10335,-0.24288 0.10335,-0.54777 0,-0.27905 -0.12402,-0.48576 -0.12402,-0.20671 -0.3514,-0.34623 -0.22221,-0.13953 -0.53743,-0.2067 -0.31006,-0.07235 -0.68213,-0.07235 h -0.76998 v -0.73897 h 0.78031 q 0.30489,0 0.55294,-0.07751 0.25321,-0.08268 0.42891,-0.23254 0.18087,-0.14986 0.27388,-0.3669 0.09819,-0.22221 0.09819,-0.50126 0,-0.5426 -0.33073,-0.79065 -0.33073,-0.24805 -0.97151,-0.24805 -0.34106,0 -0.7028,0.06718 -0.36173,0.06718 -0.77514,0.20154 V 71.089 q 0.1757,-0.06201 0.37207,-0.10852 0.20154,-0.05168 0.39791,-0.08268 0.20154,-0.03617 0.39791,-0.05168 0.19637,-0.02067 0.37724,-0.02067 0.53743,0 0.94568,0.11886 0.40824,0.11369 0.68213,0.33073 0.27388,0.21704 0.41341,0.5271 0.13953,0.31006 0.13953,0.69763 0,0.57877 -0.29972,0.97151 -0.29456,0.39274 -0.81132,0.62528 0.26355,0.04134 0.51676,0.16536 0.25838,0.12402 0.45992,0.32039 0.2067,0.1912 0.33073,0.45475 0.12919,0.26355 0.12919,0.58394 z"
             id="path304" />
          <path
             d="m 89.891,78.732 q 0.26355,0.01033 0.5116,-0.04651 0.24805,-0.05684 0.43408,-0.17053 0.1912,-0.10852 0.30489,-0.27388 0.11369,-0.16536 0.11369,-0.37724 0,-0.21704 -0.07751,-0.3514 -0.07235,-0.13436 -0.16536,-0.24805 -0.09302,-0.11369 -0.17053,-0.24288 -0.07235,-0.12919 -0.07235,-0.34623 0,-0.10852 0.04134,-0.22738 0.04134,-0.11886 0.12402,-0.21704 0.08785,-0.09819 0.21704,-0.1602 0.13436,-0.06201 0.31523,-0.06201 0.18087,0 0.34623,0.07751 0.17053,0.07235 0.29455,0.22738 0.12919,0.15503 0.20154,0.38757 0.07751,0.23254 0.07751,0.54777 0,0.42891 -0.1602,0.82165 -0.15503,0.39791 -0.47025,0.7028 -0.31006,0.30489 -0.78031,0.48576 -0.46509,0.18087 -1.0852,0.18087 z"
             id="path306" />
          <path
             d="m 99.689,77.672 h -4.4493 v -0.80615 l 1.7467,-1.7363 q 0.42891,-0.42375 0.69763,-0.7338 0.26872,-0.31006 0.41858,-0.56327 0.14986,-0.25838 0.20154,-0.48576 0.05168,-0.22738 0.05168,-0.49092 0,-0.24805 -0.06718,-0.47025 -0.06718,-0.22738 -0.2067,-0.39791 -0.13953,-0.17053 -0.36173,-0.26872 -0.22221,-0.09819 -0.53227,-0.09819 -0.42891,0 -0.78031,0.1912 -0.3514,0.1912 -0.64595,0.49609 L 95.2656,71.71374 q 0.3824,-0.40308 0.8785,-0.64595 0.50126,-0.24288 1.1627,-0.24288 0.44958,0 0.81648,0.13436 0.37207,0.13436 0.64078,0.38757 0.26872,0.25321 0.41341,0.62012 0.14986,0.3669 0.14986,0.82682 0,0.38757 -0.10335,0.7183 -0.10335,0.33073 -0.31522,0.66146 -0.2067,0.32556 -0.5271,0.67696 -0.31522,0.3514 -0.74931,0.76998 l -1.2247,1.1937 h 3.2814 z"
             id="path308" />
          <path
             d="m 101.53,78.732 q 0.26355,0.01033 0.51159,-0.04651 0.24805,-0.05684 0.43409,-0.17053 0.1912,-0.10852 0.30489,-0.27388 0.11368,-0.16536 0.11368,-0.37724 0,-0.21704 -0.0775,-0.3514 -0.0724,-0.13436 -0.16537,-0.24805 -0.093,-0.11369 -0.17053,-0.24288 -0.0723,-0.12919 -0.0723,-0.34623 0,-0.10852 0.0413,-0.22738 0.0413,-0.11886 0.12402,-0.21704 0.0879,-0.09819 0.21704,-0.1602 0.13436,-0.06201 0.31523,-0.06201 0.18086,0 0.34623,0.07751 0.17053,0.07235 0.29455,0.22738 0.12919,0.15503 0.20154,0.38757 0.0775,0.23254 0.0775,0.54777 0,0.42891 -0.16019,0.82165 -0.15503,0.39791 -0.47026,0.7028 -0.31005,0.30489 -0.78031,0.48576 -0.46509,0.18087 -1.0852,0.18087 z"
             id="path310" />
          <path
             d="m 111.2,75.621 q 0,0.44442 -0.18087,0.83716 -0.18086,0.38757 -0.5426,0.68213 -0.36173,0.28939 -0.9095,0.45992 -0.54777,0.16536 -1.2764,0.16536 -0.40308,0 -0.72347,-0.02584 -0.32039,-0.02584 -0.59945,-0.06718 V 76.8664 q 0.3204,0.05684 0.67696,0.08785 0.35657,0.03101 0.72864,0.03101 0.50643,0 0.86299,-0.08785 0.36174,-0.09302 0.58911,-0.26355 0.22738,-0.17053 0.33073,-0.41341 0.10335,-0.24288 0.10335,-0.54777 0,-0.27905 -0.12402,-0.48576 -0.12402,-0.20671 -0.3514,-0.34623 -0.22221,-0.13953 -0.53743,-0.2067 -0.31006,-0.07235 -0.68213,-0.07235 h -0.76998 v -0.73897 h 0.78032 q 0.30489,0 0.55293,-0.07751 0.25322,-0.08268 0.42891,-0.23254 0.18087,-0.14986 0.27389,-0.3669 0.0982,-0.22221 0.0982,-0.50126 0,-0.5426 -0.33072,-0.79065 -0.33073,-0.24805 -0.97152,-0.24805 -0.34106,0 -0.7028,0.06718 -0.36173,0.06718 -0.77514,0.20154 V 71.089 q 0.1757,-0.06201 0.37207,-0.10852 0.20154,-0.05168 0.39791,-0.08268 0.20153,-0.03617 0.3979,-0.05168 0.19637,-0.02067 0.37724,-0.02067 0.53743,0 0.94568,0.11886 0.40824,0.11369 0.68212,0.33073 0.27389,0.21704 0.41341,0.5271 0.13953,0.31006 0.13953,0.69763 0,0.57877 -0.29972,0.97151 -0.29456,0.39274 -0.81132,0.62528 0.26355,0.04134 0.51676,0.16536 0.25838,0.12402 0.45992,0.32039 0.20671,0.1912 0.33073,0.45475 0.12919,0.26355 0.12919,0.58394 z"
             id="path312" />
        </g>
      </g>
    </g>
    <g
       transform="matrix(0.037966,0,0,0.037966,19.219426,87.72427)"
       stroke="#000000"
       stroke-width="0.26458"
       id="g2438">
      <rect
         x="111.72"
         y="0.13229001"
         width="10"
         height="10"
         style="paint-order:markers fill stroke"
         id="rect2392" />
      <rect
         x="121.72"
         y="0.13229001"
         width="10"
         height="10"
         style="paint-order:markers fill stroke"
         id="rect2394" />
      <rect
         x="101.72"
         y="10.132"
         width="10"
         height="10"
         style="paint-order:markers fill stroke"
         id="rect2396" />
      <rect
         x="131.72"
         y="10.132"
         width="10"
         height="10"
         style="paint-order:markers fill stroke"
         id="rect2398" />
      <rect
         x="101.72"
         y="20.132"
         width="10"
         height="10"
         style="paint-order:markers fill stroke"
         id="rect2400" />
      <rect
         x="131.72"
         y="20.132"
         width="10"
         height="10"
         style="paint-order:markers fill stroke"
         id="rect2402" />
      <rect
         x="141.72"
         y="20.132"
         width="10"
         height="10"
         style="paint-order:markers fill stroke"
         id="rect2404" />
      <rect
         x="71.722"
         y="30.132"
         width="10"
         height="10"
         style="paint-order:markers fill stroke"
         id="rect2406" />
      <rect
         x="111.72"
         y="30.132"
         width="10"
         height="10"
         style="paint-order:markers fill stroke"
         id="rect2408" />
      <rect
         x="121.72"
         y="30.132"
         width="10"
         height="10"
         style="paint-order:markers fill stroke"
         id="rect2410" />
      <rect
         x="71.722"
         y="40.132"
         width="10"
         height="10"
         style="paint-order:markers fill stroke"
         id="rect2412" />
      <rect
         x="81.722"
         y="40.132"
         width="10"
         height="10"
         style="paint-order:markers fill stroke"
         id="rect2414" />
      <rect
         x="91.722"
         y="40.132"
         width="10"
         height="10"
         style="paint-order:markers fill stroke"
         id="rect2416" />
      <rect
         x="101.72"
         y="40.132"
         width="10"
         height="10"
         style="paint-order:markers fill stroke"
         id="rect2418" />
      <rect
         x="131.72"
         y="40.132"
         width="10"
         height="10"
         style="paint-order:markers fill stroke"
         id="rect2420" />
      <rect
         x="81.722"
         y="50.132"
         width="10"
         height="10"
         style="paint-order:markers fill stroke"
         id="rect2422" />
      <rect
         x="131.72"
         y="50.132"
         width="10"
         height="10"
         style="paint-order:markers fill stroke"
         id="rect2424" />
      <rect
         x="91.722"
         y="60.132"
         width="10"
         height="10"
         style="paint-order:markers fill stroke"
         id="rect2426" />
      <rect
         x="101.72"
         y="60.132"
         width="10"
         height="10"
         style="paint-order:markers fill stroke"
         id="rect2428" />
      <rect
         x="111.72"
         y="60.132"
         width="10"
         height="10"
         style="paint-order:markers fill stroke"
         id="rect2430" />
      <rect
         x="121.72"
         y="60.132"
         width="10"
         height="10"
         style="paint-order:markers fill stroke"
         id="rect2432" />
      <rect
         x="101.72"
         y="70.132004"
         width="10"
         height="10"
         style="paint-order:markers fill stroke"
         id="rect2434" />
      <rect
         x="111.72"
         y="70.132004"
         width="10"
         height="10"
         style="paint-order:markers fill stroke"
         id="rect2436" />
    </g>
    <text
       xml:space="preserve"
       style="font-size:24.3612px;font-family:Consolas;-inkscape-font-specification:'Consolas, Normal';fill:#666666;stroke:none;stroke-width:1.84114;stroke-dasharray:none;stroke-dashoffset:0;paint-order:markers fill stroke"
       x="-0.47221118"
       y="17.958992"
       id="text2923"><tspan
         sodipodi:role="line"
         id="tspan2921"
         x="-0.47221118"
         y="17.958992"
         style="fill:#000000;fill-opacity:1;stroke:none;stroke-width:1.84114;stroke-dasharray:none;stroke-dashoffset:0;stroke-opacity:1">picture element</tspan></text>
    <path
       style="fill:#000000;fill-opacity:1;stroke:#707070;stroke-width:0.6;stroke-dasharray:0.6, 0.6;stroke-dashoffset:0;stroke-opacity:1;paint-order:markers fill stroke"
       d="M -2.1695625e-4,41.157988 H 200"
       id="path3593" />
    <path
       style="fill:#000000;fill-opacity:1;stroke:#707070;stroke-width:0.6;stroke-dasharray:0.6, 0.6;stroke-dashoffset:0;stroke-opacity:1;marker-start:url(#marker1573);paint-order:markers fill stroke"
       d="M 54.304994,129.02955 V 40.857988"
       id="path3593-1" />
  </g>
</svg>
