<?xml version="1.0" encoding="UTF-8" standalone="no"?>
<svg
   xml:space="preserve"
   width="350.22507"
   height="132.46512"
   viewBox="0 0 350.22507 132.46512"
   version="1.1"
   id="svg72"
   sodipodi:docname="unlocking-the-secret-in-product-codes-challenge-4.svg"
   inkscape:version="1.1.2 (0a00cf5339, 2022-02-04)"
   xmlns:inkscape="http://www.inkscape.org/namespaces/inkscape"
   xmlns:sodipodi="http://sodipodi.sourceforge.net/DTD/sodipodi-0.dtd"
   xmlns="http://www.w3.org/2000/svg"
   xmlns:svg="http://www.w3.org/2000/svg"><sodipodi:namedview
   id="namedview40"
   pagecolor="#ffffff"
   bordercolor="#666666"
   borderopacity="1.0"
   inkscape:pageshadow="2"
   inkscape:pageopacity="0.0"
   inkscape:pagecheckerboard="0"
   showgrid="false"
   inkscape:zoom="1.7774285"
   inkscape:cx="95.925099"
   inkscape:cy="133.3387"
   inkscape:window-width="1920"
   inkscape:window-height="1011"
   inkscape:window-x="0"
   inkscape:window-y="0"
   inkscape:window-maximized="1"
   inkscape:current-layer="svg72" /><defs
   id="defs76" />
<desc
   id="desc2" />
<rect
   x="0"
   y="0"
   width="350.22504"
   height="132.46512"
   style="fill:#ffffff;stroke-width:3.33548"
   id="rect4" />
<line
   fill="none"
   style="stroke:#000000;stroke-width:3.33548"
   x1="35.022503"
   y1="0"
   x2="35.022503"
   y2="116.74168"
   id="line6" />
<line
   fill="none"
   style="stroke:#000000;stroke-width:3.33548"
   x1="41.693459"
   y1="0"
   x2="41.693459"
   y2="116.74168"
   id="line8" />
<line
   fill="none"
   style="stroke:#000000;stroke-width:3.33548"
   x1="48.36441"
   y1="0"
   x2="48.36441"
   y2="100.06429"
   id="line10" />
<line
   fill="none"
   style="stroke:#000000;stroke-width:6.67095"
   x1="63.374054"
   y1="0"
   x2="63.374054"
   y2="100.06429"
   id="line12" />
<line
   fill="none"
   style="stroke:#000000;stroke-width:3.33548"
   x1="71.712746"
   y1="0"
   x2="71.712746"
   y2="100.06429"
   id="line14" />
<line
   fill="none"
   style="stroke:#000000;stroke-width:10.0064"
   x1="85.054649"
   y1="0"
   x2="85.054649"
   y2="100.06429"
   id="line16" />
<line
   fill="none"
   style="stroke:#000000;stroke-width:3.33548"
   x1="95.061081"
   y1="0"
   x2="95.061081"
   y2="100.06429"
   id="line18" />
<line
   fill="none"
   style="stroke:#000000;stroke-width:10.0064"
   x1="108.40298"
   y1="0"
   x2="108.40298"
   y2="100.06429"
   id="line20" />
<line
   fill="none"
   style="stroke:#000000;stroke-width:6.67095"
   x1="120.07716"
   y1="0"
   x2="120.07716"
   y2="100.06429"
   id="line22" />
<line
   fill="none"
   style="stroke:#000000;stroke-width:3.33548"
   x1="135.08681"
   y1="0"
   x2="135.08681"
   y2="100.06429"
   id="line24" />
<line
   fill="none"
   style="stroke:#000000;stroke-width:10.0064"
   x1="148.42871"
   y1="0"
   x2="148.42871"
   y2="100.06429"
   id="line26" />
<line
   fill="none"
   style="stroke:#000000;stroke-width:3.33548"
   x1="158.43513"
   y1="0"
   x2="158.43513"
   y2="100.06429"
   id="line28" />
<line
   fill="none"
   style="stroke:#000000;stroke-width:10.0064"
   x1="168.44156"
   y1="0"
   x2="168.44156"
   y2="100.06429"
   id="line30" />
<line
   fill="none"
   style="stroke:#000000;stroke-width:6.67095"
   x1="180.11574"
   y1="0"
   x2="180.11574"
   y2="100.06429"
   id="line32" />
<line
   fill="none"
   style="stroke:#000000;stroke-width:3.33548"
   x1="188.45442"
   y1="0"
   x2="188.45442"
   y2="116.74168"
   id="line34" />
<line
   fill="none"
   style="stroke:#000000;stroke-width:3.33548"
   x1="195.12538"
   y1="0"
   x2="195.12538"
   y2="116.74168"
   id="line36" />
<line
   fill="none"
   style="stroke:#000000;stroke-width:10.0064"
   x1="205.13181"
   y1="0"
   x2="205.13181"
   y2="100.06429"
   id="line38" />
<line
   fill="none"
   style="stroke:#000000;stroke-width:3.33548"
   x1="218.47371"
   y1="0"
   x2="218.47371"
   y2="100.06429"
   id="line40" />
<line
   fill="none"
   style="stroke:#000000;stroke-width:6.67095"
   x1="226.81241"
   y1="0"
   x2="226.81241"
   y2="100.06429"
   id="line42" />
<line
   fill="none"
   style="stroke:#000000;stroke-width:6.67095"
   x1="240.15431"
   y1="0"
   x2="240.15431"
   y2="100.06429"
   id="line44" />
<line
   fill="none"
   style="stroke:#000000;stroke-width:10.0064"
   x1="251.82848"
   y1="0"
   x2="251.82848"
   y2="100.06429"
   id="line46" />
<line
   fill="none"
   style="stroke:#000000;stroke-width:3.33548"
   x1="265.17038"
   y1="0"
   x2="265.17038"
   y2="100.06429"
   id="line48" />
<line
   fill="none"
   style="stroke:#000000;stroke-width:10.0064"
   x1="275.17682"
   y1="0"
   x2="275.17682"
   y2="100.06429"
   id="line50" />
<line
   fill="none"
   style="stroke:#000000;stroke-width:3.33548"
   x1="288.51871"
   y1="0"
   x2="288.51871"
   y2="100.06429"
   id="line52" />
<line
   fill="none"
   style="stroke:#000000;stroke-width:3.33548"
   x1="295.18967"
   y1="0"
   x2="295.18967"
   y2="100.06429"
   id="line54" />
<line
   fill="none"
   style="stroke:#000000;stroke-width:10.0064"
   x1="308.53159"
   y1="0"
   x2="308.53159"
   y2="100.06429"
   id="line56" />
<line
   fill="none"
   style="stroke:#000000;stroke-width:10.0064"
   x1="321.87347"
   y1="0"
   x2="321.87347"
   y2="100.06429"
   id="line58" />
<line
   fill="none"
   style="stroke:#000000;stroke-width:3.33548"
   x1="331.87991"
   y1="0"
   x2="331.87991"
   y2="100.06429"
   id="line60" />
<line
   fill="none"
   style="stroke:#000000;stroke-width:3.33548"
   x1="341.88635"
   y1="0"
   x2="341.88635"
   y2="116.74168"
   id="line62" />
<line
   fill="none"
   style="stroke:#000000;stroke-width:3.33548"
   x1="348.55731"
   y1="0"
   x2="348.55731"
   y2="116.74168"
   id="line64" />

<g
   aria-label="400547"
   id="text68"
   style="font-size:30.0193px;font-family:Tahoma;text-anchor:middle;stroke-width:3.33548"><path
     d="m 66.619931,106.6532 -7.47551,11.68232 h 7.47551 z m -0.776867,-2.57978 h 3.723097 v 14.2621 h 3.122124 v 2.46252 h -3.122124 v 5.15956 h -2.94623 v -5.15956 h -9.879399 v -2.85829 z"
     id="path193" /><path
     d="m 83.916207,106.02291 q -2.286626,0 -3.444597,2.25731 -1.143313,2.24266 -1.143313,6.75728 0,4.49996 1.143313,6.75727 1.157971,2.24265 3.444597,2.24265 2.301285,0 3.444598,-2.24265 1.157971,-2.25731 1.157971,-6.75727 0,-4.51462 -1.157971,-6.75728 -1.143313,-2.25731 -3.444598,-2.25731 z m 0,-2.34526 q 3.679124,0 5.613961,2.91692 1.949496,2.90225 1.949496,8.44293 0,5.52601 -1.949496,8.44292 -1.934837,2.90226 -5.613961,2.90226 -3.679123,0 -5.628619,-2.90226 -1.934837,-2.91691 -1.934837,-8.44292 0,-5.54068 1.934837,-8.44293 1.949496,-2.91692 5.628619,-2.91692 z"
     id="path195" /><path
     d="m 103.0154,106.02291 q -2.28663,0 -3.444597,2.25731 -1.143313,2.24266 -1.143313,6.75728 0,4.49996 1.143313,6.75727 1.157967,2.24265 3.444597,2.24265 2.30129,0 3.4446,-2.24265 1.15797,-2.25731 1.15797,-6.75727 0,-4.51462 -1.15797,-6.75728 -1.14331,-2.25731 -3.4446,-2.25731 z m 0,-2.34526 q 3.67912,0 5.61396,2.91692 1.9495,2.90225 1.9495,8.44293 0,5.52601 -1.9495,8.44292 -1.93484,2.90226 -5.61396,2.90226 -3.679122,0 -5.628618,-2.90226 -1.934838,-2.91691 -1.934838,-8.44292 0,-5.54068 1.934838,-8.44293 1.949496,-2.91692 5.628618,-2.91692 z"
     id="path197" /><path
     d="m 115.81171,104.07342 h 11.62369 v 2.49183 h -8.91198 v 5.36478 q 0.64494,-0.21987 1.28989,-0.32247 0.64495,-0.11727 1.28989,-0.11727 3.66447,0 5.80452,2.00813 2.14004,2.00813 2.14004,5.43807 0,3.53254 -2.19868,5.4967 -2.19868,1.94949 -6.20027,1.94949 -1.37784,0 -2.81431,-0.23452 -1.42181,-0.23453 -2.94623,-0.70358 v -2.97555 q 1.31921,0.71824 2.72636,1.07003 1.40716,0.35178 2.97555,0.35178 2.53581,0 4.01625,-1.33386 1.48044,-1.33387 1.48044,-3.62049 0,-2.28663 -1.48044,-3.62049 -1.48044,-1.33387 -4.01625,-1.33387 -1.18729,0 -2.37458,0.26384 -1.17263,0.26384 -2.40389,0.82084 z"
     id="path199" /><path
     d="m 143.0167,106.6532 -7.4755,11.68232 h 7.4755 z m -0.77686,-2.57978 h 3.7231 v 14.2621 h 3.12212 v 2.46252 h -3.12212 v 5.15956 h -2.94624 v -5.15956 h -9.87939 v -2.85829 z"
     id="path201" /><path
     d="m 153.23324,104.07342 h 14.07155 v 1.26057 l -7.94457,20.62361 h -3.0928 l 7.47551,-19.39235 h -10.50969 z"
     id="path203" /></g>
<g
   aria-label="010059"
   id="text70"
   style="font-size:30.0193px;font-family:Tahoma;text-anchor:middle;stroke-width:3.33548"><path
     d="m 223.25216,106.02291 q -2.28662,0 -3.44459,2.25731 -1.14332,2.24266 -1.14332,6.75728 0,4.49996 1.14332,6.75727 1.15797,2.24265 3.44459,2.24265 2.30129,0 3.4446,-2.24265 1.15797,-2.25731 1.15797,-6.75727 0,-4.51462 -1.15797,-6.75728 -1.14331,-2.25731 -3.4446,-2.25731 z m 0,-2.34526 q 3.67913,0 5.61396,2.91692 1.9495,2.90225 1.9495,8.44293 0,5.52601 -1.9495,8.44292 -1.93483,2.90226 -5.61396,2.90226 -3.67912,0 -5.62861,-2.90226 -1.93484,-2.91691 -1.93484,-8.44292 0,-5.54068 1.93484,-8.44293 1.94949,-2.91692 5.62861,-2.91692 z"
     id="path206" /><path
     d="m 236.53219,123.46577 h 4.83709 v -16.69531 l -5.26217,1.05537 v -2.69705 l 5.23285,-1.05536 h 2.96089 v 19.39235 h 4.8371 v 2.49183 h -12.60576 z"
     id="path208" /><path
     d="m 261.45055,106.02291 q -2.28663,0 -3.4446,2.25731 -1.14331,2.24266 -1.14331,6.75728 0,4.49996 1.14331,6.75727 1.15797,2.24265 3.4446,2.24265 2.30129,0 3.4446,-2.24265 1.15797,-2.25731 1.15797,-6.75727 0,-4.51462 -1.15797,-6.75728 -1.14331,-2.25731 -3.4446,-2.25731 z m 0,-2.34526 q 3.67912,0 5.61396,2.91692 1.9495,2.90225 1.9495,8.44293 0,5.52601 -1.9495,8.44292 -1.93484,2.90226 -5.61396,2.90226 -3.67912,0 -5.62862,-2.90226 -1.93484,-2.91691 -1.93484,-8.44292 0,-5.54068 1.93484,-8.44293 1.9495,-2.91692 5.62862,-2.91692 z"
     id="path210" /><path
     d="m 280.54974,106.02291 q -2.28662,0 -3.44459,2.25731 -1.14332,2.24266 -1.14332,6.75728 0,4.49996 1.14332,6.75727 1.15797,2.24265 3.44459,2.24265 2.30129,0 3.4446,-2.24265 1.15797,-2.25731 1.15797,-6.75727 0,-4.51462 -1.15797,-6.75728 -1.14331,-2.25731 -3.4446,-2.25731 z m 0,-2.34526 q 3.67913,0 5.61397,2.91692 1.94949,2.90225 1.94949,8.44293 0,5.52601 -1.94949,8.44292 -1.93484,2.90226 -5.61397,2.90226 -3.67912,0 -5.62861,-2.90226 -1.93484,-2.91691 -1.93484,-8.44292 0,-5.54068 1.93484,-8.44293 1.94949,-2.91692 5.62861,-2.91692 z"
     id="path212" /><path
     d="m 293.34606,104.07342 h 11.62368 v 2.49183 h -8.91198 v 5.36478 q 0.64495,-0.21987 1.28989,-0.32247 0.64495,-0.11727 1.2899,-0.11727 3.66446,0 5.80451,2.00813 2.14005,2.00813 2.14005,5.43807 0,3.53254 -2.19868,5.4967 -2.19868,1.94949 -6.20028,1.94949 -1.37784,0 -2.81431,-0.23452 -1.42181,-0.23453 -2.94623,-0.70358 v -2.97555 q 1.31921,0.71824 2.72636,1.07003 1.40716,0.35178 2.97555,0.35178 2.53581,0 4.01625,-1.33386 1.48045,-1.33387 1.48045,-3.62049 0,-2.28663 -1.48045,-3.62049 -1.48044,-1.33387 -4.01625,-1.33387 -1.18729,0 -2.37457,0.26384 -1.17263,0.26384 -2.40389,0.82084 z"
     id="path214" /><path
     d="m 312.50389,125.50321 v -2.69705 q 1.11399,0.52769 2.25731,0.80619 1.14331,0.27849 2.24265,0.27849 2.93157,0 4.47065,-1.96415 1.55373,-1.97881 1.7736,-5.99506 -0.85016,1.26057 -2.15471,1.93483 -1.30455,0.67427 -2.8876,0.67427 -3.28336,0 -5.20354,-1.97882 -1.90552,-1.99346 -1.90552,-5.43806 0,-3.37131 1.99347,-5.40875 1.99347,-2.03745 5.30615,-2.03745 3.79638,0 5.78985,2.91692 2.00813,2.90225 2.00813,8.44293 0,5.17422 -2.46252,8.26703 -2.44786,3.07815 -6.59604,3.07815 -1.114,0 -2.25731,-0.21987 -1.14331,-0.21986 -2.37457,-0.6596 z m 5.89246,-9.27843 q 1.99347,0 3.15144,-1.36318 1.17263,-1.36318 1.17263,-3.73775 0,-2.35992 -1.17263,-3.7231 -1.15797,-1.37784 -3.15144,-1.37784 -1.99347,0 -3.1661,1.37784 -1.15797,1.36318 -1.15797,3.7231 0,2.37457 1.15797,3.73775 1.17263,1.36318 3.1661,1.36318 z"
     id="path216" /></g>
<g
   aria-label="?"
   id="text11037"
   style="font-size:34.5702px;line-height:1.25;fill:#ff0000;stroke-width:0.864255"><path
     d="m 13.742043,123.2562 h 3.426636 v 4.28752 h -3.426636 z m 3.325356,-2.48136 h -3.224076 v -2.59951 q 0,-1.70488 0.472639,-2.80208 0.47264,-1.0972 1.991838,-2.54888 l 1.519198,-1.50232 q 0.962159,-0.89463 1.384159,-1.68799 0.438879,-0.79336 0.438879,-1.62048 0,-1.50232 -1.114078,-2.43072 -1.097199,-0.9284 -2.920237,-0.9284 -1.333519,0 -2.852717,0.5908 -1.502318,0.5908 -3.1396766,1.72176 v -3.17344 q 1.5867186,-0.96216 3.2071966,-1.4348 1.637358,-0.47264 3.375996,-0.47264 3.105917,0 4.979595,1.63736 1.890558,1.63736 1.890558,4.32128 0,1.28288 -0.60768,2.4476 -0.607679,1.14783 -2.126877,2.59951 l -1.485439,1.45168 q -0.793359,0.79336 -1.130959,1.24912 -0.320719,0.43888 -0.455759,0.86088 -0.10128,0.35448 -0.15192,0.86088 -0.05064,0.5064 -0.05064,1.38416 z"
     id="path390" /></g></svg>
