<?xml version="1.0" encoding="UTF-8" standalone="no"?>
<svg
   xml:space="preserve"
   width="350.3403"
   height="132.50871"
   viewBox="0 0 350.3403 132.50871"
   version="1.1"
   id="svg72"
   sodipodi:docname="unlocking-the-secret-in-product-codes-challenge-5.svg"
   inkscape:version="1.1.2 (0a00cf5339, 2022-02-04)"
   xmlns:inkscape="http://www.inkscape.org/namespaces/inkscape"
   xmlns:sodipodi="http://sodipodi.sourceforge.net/DTD/sodipodi-0.dtd"
   xmlns="http://www.w3.org/2000/svg"
   xmlns:svg="http://www.w3.org/2000/svg"><defs
   id="defs76" /><sodipodi:namedview
   id="namedview74"
   pagecolor="#ffffff"
   bordercolor="#666666"
   borderopacity="1.0"
   inkscape:pageshadow="2"
   inkscape:pageopacity="0.0"
   inkscape:pagecheckerboard="0"
   showgrid="false"
   inkscape:zoom="3.0456101"
   inkscape:cx="175.17016"
   inkscape:cy="66.32497"
   inkscape:window-width="1920"
   inkscape:window-height="1011"
   inkscape:window-x="0"
   inkscape:window-y="0"
   inkscape:window-maximized="1"
   inkscape:current-layer="svg72"
   fit-margin-top="0"
   fit-margin-left="0"
   fit-margin-right="0"
   fit-margin-bottom="0" />
<desc
   id="desc2" />
<rect
   x="0"
   y="0"
   width="350.3403"
   height="132.50871"
   style="fill:#ffffff;stroke-width:3.33657"
   id="rect4" />
<line
   fill="none"
   style="stroke:#000000;stroke-width:3.33657"
   x1="35.034031"
   y1="0"
   x2="35.034031"
   y2="116.78011"
   id="line6" />
<line
   fill="none"
   style="stroke:#000000;stroke-width:3.33657"
   x1="41.70718"
   y1="0"
   x2="41.70718"
   y2="116.78011"
   id="line8" />
<line
   fill="none"
   style="stroke:#000000;stroke-width:13.3463"
   x1="53.385189"
   y1="0"
   x2="53.385189"
   y2="100.09723"
   id="line10" />
<line
   fill="none"
   style="stroke:#000000;stroke-width:3.33657"
   x1="65.063202"
   y1="0"
   x2="65.063202"
   y2="100.09723"
   id="line12" />
<line
   fill="none"
   style="stroke:#000000;stroke-width:3.33657"
   x1="71.736351"
   y1="0"
   x2="71.736351"
   y2="100.09723"
   id="line14" />
<line
   fill="none"
   style="stroke:#000000;stroke-width:10.0097"
   x1="85.082649"
   y1="0"
   x2="85.082649"
   y2="100.09723"
   id="line16" />
<line
   fill="none"
   style="stroke:#000000;stroke-width:3.33657"
   x1="95.092369"
   y1="0"
   x2="95.092369"
   y2="100.09723"
   id="line18" />
<line
   fill="none"
   style="stroke:#000000;stroke-width:10.0097"
   x1="108.43867"
   y1="0"
   x2="108.43867"
   y2="100.09723"
   id="line20" />
<line
   fill="none"
   style="stroke:#000000;stroke-width:3.33657"
   x1="118.44839"
   y1="0"
   x2="118.44839"
   y2="100.09723"
   id="line22" />
<line
   fill="none"
   style="stroke:#000000;stroke-width:13.3463"
   x1="130.1264"
   y1="0"
   x2="130.1264"
   y2="100.09723"
   id="line24" />
<line
   fill="none"
   style="stroke:#000000;stroke-width:10.0097"
   x1="145.14099"
   y1="0"
   x2="145.14099"
   y2="100.09723"
   id="line26" />
<line
   fill="none"
   style="stroke:#000000;stroke-width:3.33657"
   x1="158.48729"
   y1="0"
   x2="158.48729"
   y2="100.09723"
   id="line28" />
<line
   fill="none"
   style="stroke:#000000;stroke-width:10.0097"
   x1="168.49701"
   y1="0"
   x2="168.49701"
   y2="100.09723"
   id="line30" />
<line
   fill="none"
   style="stroke:#000000;stroke-width:6.67315"
   x1="180.17502"
   y1="0"
   x2="180.17502"
   y2="100.09723"
   id="line32" />
<line
   fill="none"
   style="stroke:#000000;stroke-width:3.33657"
   x1="188.51645"
   y1="0"
   x2="188.51645"
   y2="116.78011"
   id="line34" />
<line
   fill="none"
   style="stroke:#000000;stroke-width:3.33657"
   x1="195.18961"
   y1="0"
   x2="195.18961"
   y2="116.78011"
   id="line36" />
<line
   fill="none"
   style="stroke:#000000;stroke-width:6.67315"
   x1="203.53104"
   y1="0"
   x2="203.53104"
   y2="100.09723"
   id="line38" />
<line
   fill="none"
   style="stroke:#000000;stroke-width:6.67315"
   x1="213.54076"
   y1="0"
   x2="213.54076"
   y2="100.09723"
   id="line40" />
<line
   fill="none"
   style="stroke:#000000;stroke-width:3.33657"
   x1="225.21878"
   y1="0"
   x2="225.21878"
   y2="100.09723"
   id="line42" />
<line
   fill="none"
   style="stroke:#000000;stroke-width:3.33657"
   x1="241.90164"
   y1="0"
   x2="241.90164"
   y2="100.09723"
   id="line44" />
<line
   fill="none"
   style="stroke:#000000;stroke-width:3.33657"
   x1="248.5748"
   y1="0"
   x2="248.5748"
   y2="100.09723"
   id="line46" />
<line
   fill="none"
   style="stroke:#000000;stroke-width:3.33657"
   x1="265.25766"
   y1="0"
   x2="265.25766"
   y2="100.09723"
   id="line48" />
<line
   fill="none"
   style="stroke:#000000;stroke-width:3.33657"
   x1="271.93082"
   y1="0"
   x2="271.93082"
   y2="100.09723"
   id="line50" />
<line
   fill="none"
   style="stroke:#000000;stroke-width:3.33657"
   x1="281.94055"
   y1="0"
   x2="281.94055"
   y2="100.09723"
   id="line52" />
<line
   fill="none"
   style="stroke:#000000;stroke-width:3.33657"
   x1="295.28683"
   y1="0"
   x2="295.28683"
   y2="100.09723"
   id="line54" />
<line
   fill="none"
   style="stroke:#000000;stroke-width:3.33657"
   x1="301.95999"
   y1="0"
   x2="301.95999"
   y2="100.09723"
   id="line56" />
<line
   fill="none"
   style="stroke:#000000;stroke-width:10.0097"
   x1="321.97943"
   y1="0"
   x2="321.97943"
   y2="100.09723"
   id="line58" />
<line
   fill="none"
   style="stroke:#000000;stroke-width:3.33657"
   x1="335.32571"
   y1="0"
   x2="335.32571"
   y2="100.09723"
   id="line60" />
<line
   fill="none"
   style="stroke:#000000;stroke-width:3.33657"
   x1="341.99887"
   y1="0"
   x2="341.99887"
   y2="116.78011"
   id="line62" />
<line
   fill="none"
   style="stroke:#000000;stroke-width:3.33657"
   x1="348.67203"
   y1="0"
   x2="348.67203"
   y2="116.78011"
   id="line64" />
<g
   aria-label="9"
   id="text66"
   style="font-size:30.0292px;font-family:Tahoma;text-anchor:middle;stroke-width:3.33657"><path
     d="m 10.429233,125.54452 v -2.69794 q 1.114365,0.52786 2.258055,0.80645 1.143691,0.27859 2.243393,0.27859 2.932539,0 4.472122,-1.9648 1.554245,-1.97946 1.774186,-5.99704 -0.850436,1.26099 -2.155416,1.93547 -1.30498,0.67449 -2.888551,0.67449 -3.284444,0 -5.205257,-1.97947 -1.9061504,-1.99412 -1.9061504,-5.43986 0,-3.37242 1.9941264,-5.41053 1.994127,-2.03811 5.307896,-2.03811 3.797638,0 5.791764,2.91787 2.00879,2.90321 2.00879,8.44571 0,5.17594 -2.463333,8.26976 -2.44867,3.07917 -6.598213,3.07917 -1.114365,0 -2.258055,-0.21994 -1.14369,-0.21994 -2.375357,-0.65982 z m 5.894404,-9.28149 q 1.994126,0 3.152479,-1.36363 1.173016,-1.36363 1.173016,-3.73899 0,-2.36069 -1.173016,-3.72432 -1.158353,-1.37829 -3.152479,-1.37829 -1.994127,0 -3.167142,1.37829 -1.158353,1.36363 -1.158353,3.72432 0,2.37536 1.158353,3.73899 1.173015,1.36363 3.167142,1.36363 z"
     id="path3685" /></g>
<g
   aria-label="00657"
   id="text68"
   style="font-size:30.0292px;font-family:Tahoma;text-anchor:middle;stroke-width:3.33657"><path
     d="m 84.424248,106.0578 q -2.28738,0 -3.445733,2.25805 -1.143691,2.24339 -1.143691,6.7595 0,4.50145 1.143691,6.75951 1.158353,2.24339 3.445733,2.24339 2.302043,0 3.445733,-2.24339 1.158353,-2.25806 1.158353,-6.75951 0,-4.51611 -1.158353,-6.7595 -1.14369,-2.25805 -3.445733,-2.25805 z m 0,-2.34603 q 3.680337,0 5.615812,2.91787 1.950139,2.90321 1.950139,8.44571 0,5.52784 -1.950139,8.44572 -1.935475,2.90321 -5.615812,2.90321 -3.680336,0 -5.630475,-2.90321 -1.935476,-2.91788 -1.935476,-8.44572 0,-5.5425 1.935476,-8.44571 1.950139,-2.91787 5.630475,-2.91787 z"
     id="path3688" /><path
     d="m 103.52974,106.0578 q -2.28738,0 -3.44573,2.25805 -1.143694,2.24339 -1.143694,6.7595 0,4.50145 1.143694,6.75951 1.15835,2.24339 3.44573,2.24339 2.30204,0 3.44573,-2.24339 1.15836,-2.25806 1.15836,-6.75951 0,-4.51611 -1.15836,-6.7595 -1.14369,-2.25805 -3.44573,-2.25805 z m 0,-2.34603 q 3.68034,0 5.61581,2.91787 1.95014,2.90321 1.95014,8.44571 0,5.52784 -1.95014,8.44572 -1.93547,2.90321 -5.61581,2.90321 -3.680337,0 -5.630475,-2.90321 -1.935476,-2.91788 -1.935476,-8.44572 0,-5.5425 1.935476,-8.44571 1.950138,-2.91787 5.630475,-2.91787 z"
     id="path3690" /><path
     d="m 123.0018,113.87301 q -1.99413,0 -3.16714,1.36363 -1.15836,1.36363 -1.15836,3.73899 0,2.36069 1.15836,3.73899 1.17301,1.36363 3.16714,1.36363 1.99413,0 3.15248,-1.36363 1.17301,-1.3783 1.17301,-3.73899 0,-2.37536 -1.17301,-3.73899 -1.15835,-1.36363 -3.15248,-1.36363 z m 5.87974,-9.28148 v 2.69793 q -1.11437,-0.52785 -2.25806,-0.80645 -1.12902,-0.27859 -2.24339,-0.27859 -2.93254,0 -4.48678,1.97947 -1.53959,1.97946 -1.75953,5.98238 0.8651,-1.27566 2.17008,-1.95014 1.30498,-0.68915 2.87389,-0.68915 3.29911,0 5.20526,2.00879 1.92081,1.99413 1.92081,5.43986 0,3.37242 -1.99413,5.41054 -1.99412,2.03811 -5.30789,2.03811 -3.79764,0 -5.80643,-2.90321 -2.00879,-2.91788 -2.00879,-8.44572 0,-5.19059 2.46333,-8.26976 2.46334,-3.09382 6.61288,-3.09382 1.11437,0 2.24339,0.21994 1.14369,0.21994 2.37536,0.65982 z"
     id="path3692" /><path
     d="m 135.43576,104.10766 h 11.62752 v 2.49266 h -8.91492 v 5.36654 q 0.64516,-0.21994 1.29032,-0.32258 0.64516,-0.1173 1.29032,-0.1173 3.66567,0 5.80642,2.00879 2.14076,2.00879 2.14076,5.43986 0,3.53371 -2.19941,5.49851 -2.1994,1.95014 -6.20232,1.95014 -1.37829,0 -2.81523,-0.2346 -1.42229,-0.23461 -2.94721,-0.70381 v -2.97653 q 1.31965,0.71847 2.72727,1.07038 1.40761,0.3519 2.97652,0.3519 2.53665,0 4.01758,-1.3343 1.48093,-1.33431 1.48093,-3.62169 0,-2.28738 -1.48093,-3.62169 -1.48093,-1.3343 -4.01758,-1.3343 -1.18768,0 -2.37535,0.26393 -1.17302,0.26393 -2.40469,0.82111 z"
     id="path3694" /><path
     d="m 153.76413,104.10766 h 14.07619 v 1.26099 l -7.94718,20.63041 h -3.09383 l 7.47798,-19.39874 h -10.51316 z"
     id="path3696" /></g>
<g
   aria-label="233860"
   id="text70"
   style="font-size:30.0292px;font-family:Tahoma;text-anchor:middle;stroke-width:3.33657"><path
     d="m 219.54264,123.5064 h 10.3372 v 2.49266 h -13.90023 v -2.49266 q 1.68621,-1.74486 4.58942,-4.6774 2.91788,-2.9472 3.66568,-3.79763 1.42228,-1.59824 1.97946,-2.69794 0.57185,-1.11437 0.57185,-2.18474 0,-1.74486 -1.23167,-2.84456 -1.21701,-1.09971 -3.18181,-1.09971 -1.39295,0 -2.9472,0.48387 -1.53958,0.48387 -3.2991,1.46627 v -2.99119 q 1.78884,-0.71847 3.34309,-1.08504 1.55425,-0.36656 2.84456,-0.36656 3.40175,0 5.4252,1.70087 2.02345,1.70087 2.02345,4.54543 0,1.34897 -0.51319,2.56597 -0.49853,1.20235 -1.83284,2.84457 -0.36657,0.42522 -2.33137,2.46333 -1.9648,2.02345 -5.5425,5.67446 z"
     id="path3699" /><path
     d="m 245.0704,114.19559 q 2.12609,0.45455 3.31376,1.89149 1.20235,1.43694 1.20235,3.54837 0,3.24046 -2.22873,5.01464 -2.22873,1.77419 -6.33429,1.77419 -1.37829,0 -2.84456,-0.27859 -1.45161,-0.26393 -3.00585,-0.80645 v -2.85923 q 1.23166,0.71848 2.69793,1.08504 1.46627,0.36657 3.06451,0.36657 2.78591,0 4.23751,-1.0997 1.46627,-1.0997 1.46627,-3.19647 0,-1.93547 -1.36363,-3.02051 -1.34896,-1.09971 -3.76831,-1.09971 h -2.55131 v -2.434 h 2.66861 q 2.18474,0 3.3431,-0.8651 1.15835,-0.87976 1.15835,-2.52199 0,-1.68621 -1.20234,-2.58063 -1.18768,-0.90909 -3.41641,-0.90909 -1.217,0 -2.60996,0.26393 -1.39295,0.26393 -3.0645,0.82111 v -2.63928 q 1.68621,-0.46921 3.15248,-0.70381 1.48093,-0.2346 2.78591,-0.2346 3.37242,0 5.33722,1.53958 1.9648,1.52492 1.9648,4.13488 0,1.81817 -1.04105,3.07916 -1.04105,1.24633 -2.96186,1.7302 z"
     id="path3701" /><path
     d="m 264.17589,114.19559 q 2.12609,0.45455 3.31377,1.89149 1.20234,1.43694 1.20234,3.54837 0,3.24046 -2.22873,5.01464 -2.22873,1.77419 -6.33429,1.77419 -1.37829,0 -2.84456,-0.27859 -1.45161,-0.26393 -3.00585,-0.80645 v -2.85923 q 1.23166,0.71848 2.69793,1.08504 1.46627,0.36657 3.06451,0.36657 2.78591,0 4.23752,-1.0997 1.46627,-1.0997 1.46627,-3.19647 0,-1.93547 -1.36363,-3.02051 -1.34897,-1.09971 -3.76832,-1.09971 h -2.55131 v -2.434 h 2.66861 q 2.18475,0 3.3431,-0.8651 1.15835,-0.87976 1.15835,-2.52199 0,-1.68621 -1.20234,-2.58063 -1.18768,-0.90909 -3.41641,-0.90909 -1.217,0 -2.60996,0.26393 -1.39295,0.26393 -3.0645,0.82111 v -2.63928 q 1.68621,-0.46921 3.15248,-0.70381 1.48093,-0.2346 2.78591,-0.2346 3.37242,0 5.33722,1.53958 1.9648,1.52492 1.9648,4.13488 0,1.81817 -1.04105,3.07916 -1.04105,1.24633 -2.96186,1.7302 z"
     id="path3703" /><path
     d="m 280.64209,115.60321 q -2.11142,0 -3.32843,1.12903 -1.20234,1.12903 -1.20234,3.10849 0,1.97946 1.20234,3.10849 1.21701,1.12903 3.32843,1.12903 2.11143,0 3.32844,-1.12903 1.217,-1.14369 1.217,-3.10849 0,-1.97946 -1.217,-3.10849 -1.20235,-1.12903 -3.32844,-1.12903 z m -2.96186,-1.26099 q -1.90615,-0.46921 -2.97653,-1.77419 -1.05571,-1.30498 -1.05571,-3.1818 0,-2.62462 1.86216,-4.14954 1.87683,-1.52492 5.13194,-1.52492 3.26978,0 5.13195,1.52492 1.86216,1.52492 1.86216,4.14954 0,1.87682 -1.07038,3.1818 -1.05571,1.30498 -2.9472,1.77419 2.14075,0.49853 3.32843,1.95014 1.20234,1.4516 1.20234,3.54837 0,3.1818 -1.95013,4.88268 -1.93548,1.70087 -5.55717,1.70087 -3.62168,0 -5.57182,-1.70087 -1.93548,-1.70088 -1.93548,-4.88268 0,-2.09677 1.20235,-3.54837 1.20234,-1.45161 3.34309,-1.95014 z m -1.08504,-4.6774 q 0,1.70087 1.05571,2.65395 1.07038,0.95307 2.99119,0.95307 1.90615,0 2.97653,-0.95307 1.08504,-0.95308 1.08504,-2.65395 0,-1.70087 -1.08504,-2.65395 -1.07038,-0.95307 -2.97653,-0.95307 -1.92081,0 -2.99119,0.95307 -1.05571,0.95308 -1.05571,2.65395 z"
     id="path3705" /><path
     d="m 300.11415,113.87301 q -1.99412,0 -3.16714,1.36363 -1.15835,1.36363 -1.15835,3.73899 0,2.36069 1.15835,3.73899 1.17302,1.36363 3.16714,1.36363 1.99413,0 3.15248,-1.36363 1.17302,-1.3783 1.17302,-3.73899 0,-2.37536 -1.17302,-3.73899 -1.15835,-1.36363 -3.15248,-1.36363 z m 5.87974,-9.28148 v 2.69793 q -1.11436,-0.52785 -2.25805,-0.80645 -1.12903,-0.27859 -2.24339,-0.27859 -2.93254,0 -4.48679,1.97947 -1.53958,1.97946 -1.75952,5.98238 0.8651,-1.27566 2.17008,-1.95014 1.30498,-0.68915 2.87389,-0.68915 3.2991,0 5.20525,2.00879 1.92082,1.99413 1.92082,5.43986 0,3.37242 -1.99413,5.41054 -1.99413,2.03811 -5.3079,2.03811 -3.79764,0 -5.80642,-2.90321 -2.00879,-2.91788 -2.00879,-8.44572 0,-5.19059 2.46333,-8.26976 2.46333,-3.09382 6.61287,-3.09382 1.11437,0 2.2434,0.21994 1.14369,0.21994 2.37535,0.65982 z"
     id="path3707" /><path
     d="m 318.85308,106.0578 q -2.28738,0 -3.44574,2.25805 -1.14369,2.24339 -1.14369,6.7595 0,4.50145 1.14369,6.75951 1.15836,2.24339 3.44574,2.24339 2.30204,0 3.44573,-2.24339 1.15835,-2.25806 1.15835,-6.75951 0,-4.51611 -1.15835,-6.7595 -1.14369,-2.25805 -3.44573,-2.25805 z m 0,-2.34603 q 3.68033,0 5.61581,2.91787 1.95014,2.90321 1.95014,8.44571 0,5.52784 -1.95014,8.44572 -1.93548,2.90321 -5.61581,2.90321 -3.68034,0 -5.63048,-2.90321 -1.93547,-2.91788 -1.93547,-8.44572 0,-5.5425 1.93547,-8.44571 1.95014,-2.91787 5.63048,-2.91787 z"
     id="path3709" /></g>
<g
   aria-label="?"
   id="text11037"
   style="font-size:34.5816px;line-height:1.25;fill:#ff0000;stroke-width:0.86454"><path
     d="m 58.389663,124.27409 h 3.427766 v 4.28893 h -3.427766 z m 3.326453,-2.48218 h -3.225139 v -2.60037 q 0,-1.70544 0.472795,-2.803 0.472795,-1.09756 1.992495,-2.54972 l 1.519699,-1.50281 q 0.962476,-0.89494 1.384615,-1.68856 0.439024,-0.79362 0.439024,-1.62101 0,-1.50281 -1.114446,-2.43152 -1.097561,-0.9287 -2.9212,-0.9287 -1.333958,0 -2.853657,0.59099 -1.502814,0.591 -3.140712,1.72233 v -3.17449 q 1.587241,-0.96247 3.208254,-1.43527 1.637898,-0.47279 3.377109,-0.47279 3.106941,0 4.981237,1.6379 1.891181,1.63789 1.891181,4.3227 0,1.2833 -0.60788,2.4484 -0.607879,1.14822 -2.127579,2.60037 l -1.485928,1.45216 q -0.793621,0.79362 -1.131332,1.24953 -0.320825,0.43903 -0.455909,0.86116 -0.101314,0.3546 -0.15197,0.86117 -0.05066,0.50656 -0.05066,1.38461 z"
     id="path3878" /></g></svg>
