<?xml version="1.0" encoding="UTF-8"?><svg id="b" xmlns="http://www.w3.org/2000/svg" viewBox="0 0 973.51 277.06"><defs><style>.d,.e{fill:#fff;}.f{fill:none;stroke:#d93025;stroke-linecap:round;stroke-width:2.89px;}.f,.e{stroke-miterlimit:10;}.e{stroke:#e6e6e6;stroke-width:1.51px;}.g{fill:#d93025;}</style></defs><g id="c"><g><rect class="e" x=".75" y=".75" width="972" height="275.56"/><g><g><path d="M99.91,87.72c2.61,0,4.57,.67,5.89,2.02,1.32,1.35,1.98,3.51,1.98,6.49v15.09h-4.56v-14.49c0-3.58-1.45-5.38-4.34-5.38-2.06,0-3.54,.64-4.43,1.91-.89,1.28-1.33,3.1-1.33,5.48v12.47h-4.51v-14.49c0-3.58-1.46-5.38-4.39-5.38-2.18,0-3.68,.7-4.49,2.11-.82,1.4-1.23,3.43-1.23,6.06v11.7h-4.56v-23.18h3.61l.65,3.1h.26c.72-1.2,1.68-2.09,2.9-2.67,1.22-.57,2.52-.86,3.89-.86,3.55,0,5.91,1.25,7.05,3.74h.34c.75-1.26,1.78-2.2,3.1-2.82,1.32-.62,2.71-.92,4.17-.92Z"/><path d="M111.22,88.15h4.9l4.82,13.16c.37,1,.7,1.96,.99,2.88,.29,.92,.49,1.83,.6,2.75h.17c.14-.75,.37-1.62,.67-2.62s.64-2.02,1.01-3.05l4.56-13.11h4.9l-9.93,26.32c-.83,2.24-1.94,3.99-3.33,5.27-1.39,1.27-3.2,1.91-5.44,1.91-.72,0-1.33-.04-1.85-.11-.52-.07-.96-.15-1.33-.24v-3.61c.29,.06,.66,.11,1.12,.17,.46,.06,.93,.09,1.42,.09,1.32,0,2.38-.38,3.18-1.14,.8-.76,1.43-1.76,1.89-2.99l.95-2.49-9.29-23.18Z"/><path d="M146.52,87.72c3.04,0,5.43,.94,7.18,2.82,1.75,1.88,2.62,4.44,2.62,7.68v2.49h-15.57c.06,2.38,.68,4.2,1.87,5.46,1.19,1.26,2.86,1.89,5.01,1.89,1.49,0,2.82-.14,3.98-.41s2.36-.68,3.59-1.23v3.78c-1.18,.54-2.35,.94-3.53,1.18s-2.58,.37-4.21,.37c-2.24,0-4.21-.44-5.93-1.33-1.72-.89-3.06-2.21-4.02-3.96-.96-1.75-1.44-3.93-1.44-6.54s.44-4.82,1.31-6.62c.87-1.81,2.09-3.19,3.65-4.15,1.56-.96,3.39-1.44,5.48-1.44Zm0,3.53c-1.63,0-2.95,.53-3.93,1.59-.99,1.06-1.57,2.57-1.74,4.52h10.92c-.03-1.81-.47-3.27-1.31-4.41-.85-1.13-2.16-1.7-3.93-1.7Z"/><path d="M187.97,87.72c2.61,0,4.57,.67,5.89,2.02,1.32,1.35,1.98,3.51,1.98,6.49v15.09h-4.56v-14.49c0-3.58-1.45-5.38-4.34-5.38-2.06,0-3.54,.64-4.43,1.91-.89,1.28-1.33,3.1-1.33,5.48v12.47h-4.51v-14.49c0-3.58-1.46-5.38-4.39-5.38-2.18,0-3.68,.7-4.49,2.11-.82,1.4-1.23,3.43-1.23,6.06v11.7h-4.56v-23.18h3.61l.65,3.1h.26c.72-1.2,1.68-2.09,2.9-2.67,1.22-.57,2.52-.86,3.89-.86,3.55,0,5.91,1.25,7.05,3.74h.34c.75-1.26,1.78-2.2,3.1-2.82,1.32-.62,2.71-.92,4.17-.92Z"/><path d="M211.8,87.72c2.9,0,5.07,.64,6.51,1.91,1.45,1.28,2.17,3.28,2.17,6v15.69h-3.23l-.9-3.23h-.17c-1,1.26-2.06,2.19-3.16,2.77-1.1,.59-2.63,.88-4.58,.88-2.09,0-3.83-.57-5.2-1.7-1.38-1.13-2.06-2.9-2.06-5.31s.9-4.18,2.69-5.4c1.79-1.22,4.52-1.88,8.19-2l3.96-.13v-1.29c0-1.69-.39-2.89-1.16-3.59-.77-.7-1.86-1.05-3.27-1.05-1.18,0-2.31,.17-3.4,.52-1.09,.34-2.14,.76-3.14,1.25l-1.46-3.31c1.09-.57,2.34-1.05,3.76-1.44,1.42-.39,2.9-.58,4.45-.58Zm4.17,12.47l-3.1,.09c-2.64,.11-4.46,.56-5.48,1.33-1.02,.77-1.53,1.83-1.53,3.18,0,1.2,.36,2.08,1.08,2.62,.72,.54,1.65,.82,2.79,.82,1.78,0,3.26-.5,4.45-1.5,1.19-1,1.78-2.51,1.78-4.52v-2.02Z"/><path d="M229.81,79.34c.69,0,1.29,.2,1.81,.6,.52,.4,.77,1.08,.77,2.02s-.26,1.58-.77,2c-.52,.42-1.12,.62-1.81,.62s-1.33-.21-1.85-.62c-.52-.42-.77-1.08-.77-2s.26-1.62,.77-2.02c.52-.4,1.13-.6,1.85-.6Zm2.24,8.82v23.18h-4.56v-23.18h4.56Z"/><path d="M243.74,111.33h-4.56v-32.68h4.56v32.68Z"/><path d="M250.24,108.79c0-1.12,.29-1.91,.86-2.36,.57-.46,1.26-.69,2.06-.69s1.5,.23,2.09,.69c.59,.46,.88,1.25,.88,2.36s-.29,1.92-.88,2.41c-.59,.49-1.28,.73-2.09,.73s-1.49-.24-2.06-.73c-.57-.49-.86-1.29-.86-2.41Z"/><path d="M271.95,111.76c-3.21,0-5.79-.95-7.74-2.86-1.95-1.91-2.92-4.91-2.92-9.01,0-2.87,.47-5.19,1.42-6.97,.95-1.78,2.25-3.09,3.91-3.93,1.66-.85,3.55-1.27,5.68-1.27,1.29,0,2.5,.13,3.63,.39,1.13,.26,2.07,.57,2.82,.95l-1.38,3.7c-.8-.29-1.65-.55-2.54-.8-.89-.24-1.75-.37-2.58-.37-4.19,0-6.28,2.75-6.28,8.26,0,2.64,.52,4.64,1.55,6.02,1.03,1.38,2.55,2.06,4.56,2.06,1.26,0,2.39-.14,3.4-.43,1-.29,1.92-.66,2.75-1.12v3.96c-.83,.49-1.73,.85-2.71,1.07s-2.16,.34-3.57,.34Z"/><path d="M304.12,99.72c0,3.84-.99,6.81-2.97,8.9-1.98,2.09-4.64,3.14-8,3.14-2.09,0-3.95-.47-5.57-1.4-1.62-.93-2.9-2.29-3.83-4.09-.93-1.79-1.4-3.98-1.4-6.56,0-3.84,.97-6.8,2.92-8.88,1.95-2.08,4.62-3.12,8-3.12,2.12,0,3.99,.47,5.61,1.4,1.62,.93,2.9,2.29,3.83,4.06,.93,1.78,1.4,3.96,1.4,6.54Zm-17.07,0c0,2.61,.5,4.64,1.48,6.11,.99,1.46,2.56,2.19,4.71,2.19s3.72-.73,4.71-2.19c.99-1.46,1.48-3.5,1.48-6.11s-.49-4.67-1.48-6.08c-.99-1.42-2.57-2.13-4.75-2.13s-3.71,.71-4.69,2.13-1.46,3.45-1.46,6.08Z"/><path d="M335.85,87.72c2.61,0,4.57,.67,5.89,2.02,1.32,1.35,1.98,3.51,1.98,6.49v15.09h-4.56v-14.49c0-3.58-1.45-5.38-4.34-5.38-2.06,0-3.54,.64-4.43,1.91-.89,1.28-1.33,3.1-1.33,5.48v12.47h-4.51v-14.49c0-3.58-1.46-5.38-4.39-5.38-2.18,0-3.68,.7-4.49,2.11-.82,1.4-1.23,3.43-1.23,6.06v11.7h-4.56v-23.18h3.61l.65,3.1h.26c.72-1.2,1.68-2.09,2.9-2.67,1.22-.57,2.52-.86,3.89-.86,3.55,0,5.91,1.25,7.05,3.74h.34c.75-1.26,1.78-2.2,3.1-2.82,1.32-.62,2.71-.92,4.17-.92Z"/></g><path class="f" d="M291.87,30.31h494.23c2.2,0,4,1.8,4,4v115.23c0,2.2-1.8,4-4,4H44.75c-2.2,0-4-1.8-4-4V34.31c0-2.2,1.8-4,4-4h18.82"/><g><path class="g" d="M127.14,197.68c-3.3,0-5.89,1.1-7.78,3.31-1.89,2.21-2.84,5.23-2.84,9.07s.88,6.83,2.64,9.05c1.76,2.22,4.41,3.33,7.93,3.33,1.32,0,2.58-.11,3.78-.34,1.2-.23,2.39-.52,3.57-.86v3.35c-1.15,.43-2.33,.75-3.55,.95-1.22,.2-2.67,.3-4.37,.3-3.12,0-5.73-.65-7.83-1.94-2.09-1.29-3.66-3.12-4.71-5.5-1.05-2.38-1.57-5.17-1.57-8.39s.57-5.83,1.7-8.19c1.13-2.37,2.8-4.21,5.01-5.55,2.21-1.33,4.89-2,8.04-2s6.06,.6,8.47,1.81l-1.55,3.27c-.95-.43-2-.82-3.16-1.16-1.16-.34-2.43-.52-3.81-.52Z"/><path class="g" d="M160.68,213.85c0,3.81-.97,6.77-2.9,8.86-1.93,2.09-4.55,3.14-7.85,3.14-2.04,0-3.85-.47-5.44-1.4-1.59-.93-2.85-2.29-3.76-4.09-.92-1.79-1.38-3.96-1.38-6.51,0-3.81,.95-6.75,2.86-8.81,1.91-2.06,4.52-3.1,7.85-3.1,2.06,0,3.9,.47,5.5,1.4,1.6,.93,2.86,2.28,3.76,4.04,.9,1.76,1.35,3.92,1.35,6.47Zm-17.42,0c0,2.72,.54,4.88,1.61,6.47,1.08,1.59,2.79,2.39,5.14,2.39s4.03-.8,5.12-2.39c1.09-1.59,1.63-3.75,1.63-6.47s-.54-4.86-1.63-6.41c-1.09-1.55-2.81-2.32-5.16-2.32s-4.06,.77-5.12,2.32c-1.06,1.55-1.59,3.68-1.59,6.41Z"/><path class="g" d="M185.92,202.37v23.05h-3.1l-.56-3.05h-.17c-.75,1.2-1.78,2.09-3.1,2.64-1.32,.56-2.72,.84-4.21,.84-2.78,0-4.87-.67-6.28-2-1.41-1.33-2.11-3.46-2.11-6.39v-15.09h3.83v14.83c0,3.67,1.71,5.5,5.12,5.5,2.55,0,4.32-.72,5.31-2.15,.99-1.43,1.48-3.5,1.48-6.19v-12h3.78Z"/><path class="g" d="M197.01,225.42h-3.78v-32.68h3.78v32.68Z"/><path class="g" d="M212.49,225.85c-2.87,0-5.16-1-6.88-2.99-1.72-1.99-2.58-4.97-2.58-8.92s.87-6.94,2.6-8.97c1.73-2.02,4.03-3.03,6.9-3.03,1.78,0,3.23,.33,4.36,.99,1.13,.66,2.06,1.46,2.77,2.41h.26c-.06-.37-.11-.92-.17-1.66s-.09-1.31-.09-1.74v-9.2h3.78v32.68h-3.05l-.56-3.1h-.17c-.69,.98-1.61,1.81-2.75,2.49s-2.62,1.03-4.43,1.03Zm.6-3.14c2.44,0,4.15-.67,5.14-2s1.48-3.35,1.48-6.04v-.69c0-2.87-.47-5.07-1.42-6.6-.95-1.53-2.69-2.3-5.25-2.3-2.04,0-3.56,.81-4.58,2.43-1.02,1.62-1.53,3.79-1.53,6.51s.51,4.89,1.53,6.41c1.02,1.52,2.56,2.28,4.62,2.28Z"/><path class="g" d="M241.86,201.94c2.75,0,4.83,.67,6.24,2.02,1.4,1.35,2.11,3.5,2.11,6.45v15.01h-3.74v-14.75c0-3.7-1.72-5.55-5.16-5.55-2.55,0-4.32,.72-5.29,2.15-.98,1.43-1.46,3.5-1.46,6.19v11.95h-3.78v-23.05h3.05l.56,3.14h.22c.75-1.2,1.78-2.1,3.1-2.69,1.32-.59,2.71-.88,4.17-.88Z"/><path class="g" d="M259.96,194.72l.3,.47c-.37,1.52-.91,3.2-1.61,5.03-.7,1.83-1.4,3.51-2.09,5.03h-2.79c.29-1.06,.57-2.22,.84-3.48,.27-1.26,.52-2.5,.75-3.72,.23-1.22,.42-2.33,.56-3.33h4.04Z"/><path class="g" d="M272.13,222.75c.57,0,1.16-.04,1.76-.13,.6-.09,1.09-.2,1.46-.34v2.88c-.4,.2-.97,.37-1.72,.49-.75,.13-1.46,.19-2.15,.19-1.2,0-2.32-.21-3.33-.62-1.02-.42-1.84-1.14-2.47-2.17-.63-1.03-.95-2.48-.95-4.34v-13.42h-3.27v-1.81l3.31-1.5,1.5-4.9h2.24v5.29h6.67v2.92h-6.67v13.33c0,1.4,.34,2.44,1.01,3.12,.67,.67,1.54,1.01,2.6,1.01Z"/><path class="g" d="M301.76,205.29h-5.81v20.12h-3.78v-20.12h-4.04v-1.76l4.04-1.29v-1.33c0-2.98,.65-5.12,1.96-6.43,1.3-1.3,3.15-1.96,5.53-1.96,.89,0,1.72,.08,2.49,.24,.77,.16,1.43,.34,1.98,.54l-.99,2.97c-.46-.14-.99-.29-1.59-.43-.6-.14-1.22-.21-1.85-.21-1.26,0-2.2,.42-2.82,1.27-.62,.85-.92,2.17-.92,3.98v1.51h5.81v2.92Z"/><path class="g" d="M307.86,193.73c.57,0,1.08,.19,1.53,.58,.44,.39,.67,1,.67,1.83s-.22,1.44-.67,1.83c-.44,.39-.95,.58-1.53,.58-.63,0-1.16-.19-1.59-.58-.43-.39-.65-1-.65-1.83s.22-1.44,.65-1.83c.43-.39,.96-.58,1.59-.58Zm1.85,8.64v23.05h-3.78v-23.05h3.78Z"/><path class="g" d="M328.12,201.94c2.75,0,4.83,.67,6.24,2.02,1.4,1.35,2.11,3.5,2.11,6.45v15.01h-3.74v-14.75c0-3.7-1.72-5.55-5.16-5.55-2.55,0-4.32,.72-5.29,2.15-.98,1.43-1.46,3.5-1.46,6.19v11.95h-3.78v-23.05h3.05l.56,3.14h.22c.75-1.2,1.78-2.1,3.1-2.69,1.32-.59,2.71-.88,4.17-.88Z"/><path class="g" d="M351.77,225.85c-2.87,0-5.16-1-6.88-2.99-1.72-1.99-2.58-4.97-2.58-8.92s.87-6.94,2.6-8.97c1.73-2.02,4.03-3.03,6.9-3.03,1.78,0,3.23,.33,4.36,.99,1.13,.66,2.06,1.46,2.77,2.41h.26c-.06-.37-.11-.92-.17-1.66s-.09-1.31-.09-1.74v-9.2h3.78v32.68h-3.05l-.56-3.1h-.17c-.69,.98-1.61,1.81-2.75,2.49s-2.62,1.03-4.43,1.03Zm.6-3.14c2.44,0,4.15-.67,5.14-2s1.48-3.35,1.48-6.04v-.69c0-2.87-.47-5.07-1.42-6.6-.95-1.53-2.69-2.3-5.25-2.3-2.04,0-3.56,.81-4.58,2.43-1.02,1.62-1.53,3.79-1.53,6.51s.51,4.89,1.53,6.41c1.02,1.52,2.56,2.28,4.62,2.28Z"/><path class="g" d="M377.61,202.37h4.04l4.99,13.11c.43,1.18,.82,2.28,1.16,3.31,.34,1.03,.6,2.02,.77,2.97h.17c.17-.72,.44-1.66,.82-2.82,.37-1.16,.76-2.33,1.16-3.5l4.69-13.07h4.08l-9.93,26.23c-.83,2.18-1.88,3.91-3.14,5.2-1.26,1.29-3.01,1.94-5.25,1.94-.69,0-1.29-.04-1.81-.11-.52-.07-.96-.15-1.33-.24v-3.01c.32,.06,.7,.11,1.14,.17,.44,.06,.91,.09,1.4,.09,1.32,0,2.38-.37,3.18-1.12,.8-.75,1.45-1.73,1.93-2.97l1.2-3.05-9.29-23.13Z"/><path class="g" d="M423.19,213.85c0,3.81-.97,6.77-2.9,8.86-1.93,2.09-4.55,3.14-7.85,3.14-2.04,0-3.85-.47-5.44-1.4-1.59-.93-2.85-2.29-3.76-4.09-.92-1.79-1.38-3.96-1.38-6.51,0-3.81,.95-6.75,2.86-8.81,1.91-2.06,4.52-3.1,7.85-3.1,2.06,0,3.9,.47,5.5,1.4,1.6,.93,2.86,2.28,3.76,4.04,.9,1.76,1.35,3.92,1.35,6.47Zm-17.42,0c0,2.72,.54,4.88,1.61,6.47,1.08,1.59,2.79,2.39,5.14,2.39s4.03-.8,5.12-2.39c1.09-1.59,1.63-3.75,1.63-6.47s-.54-4.86-1.63-6.41c-1.09-1.55-2.81-2.32-5.16-2.32s-4.06,.77-5.12,2.32c-1.06,1.55-1.59,3.68-1.59,6.41Z"/><path class="g" d="M448.43,202.37v23.05h-3.1l-.56-3.05h-.17c-.75,1.2-1.78,2.09-3.1,2.64-1.32,.56-2.72,.84-4.21,.84-2.78,0-4.87-.67-6.28-2-1.41-1.33-2.11-3.46-2.11-6.39v-15.09h3.83v14.83c0,3.67,1.71,5.5,5.12,5.5,2.55,0,4.32-.72,5.31-2.15,.99-1.43,1.48-3.5,1.48-6.19v-12h3.78Z"/><path class="g" d="M466.49,201.94c.43,0,.89,.02,1.38,.06,.49,.04,.93,.11,1.33,.19l-.47,3.48c-.37-.09-.79-.16-1.25-.22-.46-.06-.87-.09-1.25-.09-1.18,0-2.28,.32-3.31,.97s-1.86,1.55-2.47,2.71c-.62,1.16-.92,2.52-.92,4.06v12.3h-3.78v-23.05h3.1l.43,4.21h.17c.72-1.26,1.67-2.35,2.86-3.27,1.19-.92,2.59-1.38,4.19-1.38Z"/><path class="g" d="M493.41,201.98c2.81,0,4.89,.62,6.24,1.85,1.35,1.23,2.02,3.2,2.02,5.89v15.69h-2.75l-.73-3.27h-.17c-1,1.26-2.06,2.19-3.18,2.79s-2.64,.9-4.56,.9c-2.09,0-3.83-.55-5.2-1.66-1.38-1.1-2.06-2.83-2.06-5.18s.9-4.06,2.71-5.31c1.81-1.25,4.59-1.93,8.34-2.04l3.91-.13v-1.38c0-1.92-.42-3.25-1.25-4-.83-.75-2.01-1.12-3.53-1.12-1.2,0-2.35,.18-3.44,.54-1.09,.36-2.11,.77-3.05,1.23l-1.16-2.84c1-.54,2.19-1.01,3.57-1.4s2.81-.58,4.3-.58Zm4.52,12.17l-3.4,.13c-2.87,.12-4.85,.57-5.96,1.38-1.1,.8-1.66,1.94-1.66,3.4,0,1.29,.39,2.24,1.18,2.84s1.8,.9,3.03,.9c1.92,0,3.53-.54,4.84-1.61,1.3-1.08,1.96-2.73,1.96-4.97v-2.06Z"/><path class="g" d="M518.05,225.85c-2.06,0-3.88-.42-5.46-1.25-1.58-.83-2.82-2.12-3.72-3.87-.9-1.75-1.35-3.98-1.35-6.71s.47-5.15,1.4-6.92c.93-1.78,2.21-3.08,3.85-3.91,1.63-.83,3.48-1.25,5.55-1.25,1.15,0,2.27,.12,3.38,.37s2,.54,2.69,.88l-1.16,3.14c-.69-.26-1.49-.5-2.41-.73-.92-.23-1.78-.34-2.58-.34-4.53,0-6.79,2.91-6.79,8.73,0,2.78,.55,4.91,1.66,6.39,1.1,1.48,2.74,2.21,4.92,2.21,1.23,0,2.34-.13,3.31-.39,.97-.26,1.86-.57,2.67-.95v3.35c-.77,.4-1.63,.71-2.56,.92s-2.06,.32-3.38,.32Z"/><path class="g" d="M538.68,225.85c-2.06,0-3.88-.42-5.46-1.25-1.58-.83-2.82-2.12-3.72-3.87-.9-1.75-1.35-3.98-1.35-6.71s.47-5.15,1.4-6.92c.93-1.78,2.21-3.08,3.85-3.91,1.63-.83,3.48-1.25,5.55-1.25,1.15,0,2.27,.12,3.38,.37s2,.54,2.69,.88l-1.16,3.14c-.69-.26-1.49-.5-2.41-.73-.92-.23-1.78-.34-2.58-.34-4.53,0-6.79,2.91-6.79,8.73,0,2.78,.55,4.91,1.66,6.39,1.1,1.48,2.74,2.21,4.92,2.21,1.23,0,2.34-.13,3.31-.39,.97-.26,1.86-.57,2.67-.95v3.35c-.77,.4-1.63,.71-2.56,.92s-2.06,.32-3.38,.32Z"/><path class="g" d="M570.12,213.85c0,3.81-.97,6.77-2.9,8.86-1.93,2.09-4.55,3.14-7.85,3.14-2.04,0-3.85-.47-5.44-1.4-1.59-.93-2.85-2.29-3.76-4.09-.92-1.79-1.38-3.96-1.38-6.51,0-3.81,.95-6.75,2.86-8.81,1.91-2.06,4.52-3.1,7.85-3.1,2.06,0,3.9,.47,5.5,1.4,1.6,.93,2.86,2.28,3.76,4.04,.9,1.76,1.35,3.92,1.35,6.47Zm-17.42,0c0,2.72,.54,4.88,1.61,6.47,1.08,1.59,2.79,2.39,5.14,2.39s4.03-.8,5.12-2.39c1.09-1.59,1.63-3.75,1.63-6.47s-.54-4.86-1.63-6.41c-1.09-1.55-2.81-2.32-5.16-2.32s-4.06,.77-5.12,2.32c-1.06,1.55-1.59,3.68-1.59,6.41Z"/><path class="g" d="M595.36,202.37v23.05h-3.1l-.56-3.05h-.17c-.75,1.2-1.78,2.09-3.1,2.64-1.32,.56-2.72,.84-4.21,.84-2.78,0-4.87-.67-6.28-2-1.41-1.33-2.11-3.46-2.11-6.39v-15.09h3.83v14.83c0,3.67,1.71,5.5,5.12,5.5,2.55,0,4.32-.72,5.31-2.15,.99-1.43,1.48-3.5,1.48-6.19v-12h3.78Z"/><path class="g" d="M613.76,201.94c2.75,0,4.83,.67,6.24,2.02,1.4,1.35,2.11,3.5,2.11,6.45v15.01h-3.74v-14.75c0-3.7-1.72-5.55-5.16-5.55-2.55,0-4.32,.72-5.29,2.15-.98,1.43-1.46,3.5-1.46,6.19v11.95h-3.78v-23.05h3.05l.56,3.14h.22c.75-1.2,1.78-2.1,3.1-2.69,1.32-.59,2.71-.88,4.17-.88Z"/><path class="g" d="M636.94,222.75c.57,0,1.16-.04,1.76-.13,.6-.09,1.09-.2,1.46-.34v2.88c-.4,.2-.97,.37-1.72,.49-.75,.13-1.46,.19-2.15,.19-1.2,0-2.32-.21-3.33-.62-1.02-.42-1.84-1.14-2.47-2.17-.63-1.03-.95-2.48-.95-4.34v-13.42h-3.27v-1.81l3.31-1.5,1.5-4.9h2.24v5.29h6.67v2.92h-6.67v13.33c0,1.4,.34,2.44,1.01,3.12,.67,.67,1.54,1.01,2.6,1.01Z"/></g><circle class="g" cx="66.24" cy="209.08" r="25.48"/><path class="d" d="M69.39,214.07h-6.28l-.98-18.02h8.23l-.97,18.02Zm-7.18,6.67c0-1.35,.4-2.3,1.19-2.85s1.74-.82,2.83-.82,1.99,.27,2.77,.82,1.17,1.5,1.17,2.85c0,1.27-.39,2.2-1.17,2.77-.78,.57-1.7,.86-2.77,.86s-2.04-.29-2.83-.86c-.79-.57-1.19-1.49-1.19-2.77Z"/><g><path class="g" d="M85.25,41.71h-11.97V20.29h11.97v2.37h-9.27v6.69h8.73v2.34h-8.73v7.65h9.27v2.37Z"/><path class="g" d="M107.24,25.33c1.82,0,3.18,.47,4.08,1.41,.9,.94,1.35,2.44,1.35,4.5v10.47h-2.61v-10.35c0-2.54-1.09-3.81-3.27-3.81-1.56,0-2.68,.45-3.35,1.35s-1,2.21-1,3.93v8.88h-2.61v-10.35c0-2.54-1.1-3.81-3.3-3.81-1.62,0-2.74,.5-3.36,1.5-.62,1-.93,2.44-.93,4.32v8.34h-2.64V25.63h2.13l.39,2.19h.15c.5-.84,1.17-1.46,2.03-1.88,.85-.41,1.75-.61,2.71-.61,2.52,0,4.16,.9,4.92,2.7h.15c.54-.92,1.27-1.6,2.19-2.04,.92-.44,1.91-.66,2.97-.66Z"/><path class="g" d="M123.74,25.36c1.96,0,3.41,.43,4.35,1.29,.94,.86,1.41,2.23,1.41,4.11v10.95h-1.92l-.51-2.28h-.12c-.7,.88-1.44,1.53-2.22,1.95s-1.84,.63-3.18,.63c-1.46,0-2.67-.38-3.63-1.15-.96-.77-1.44-1.98-1.44-3.62s.63-2.83,1.89-3.7c1.26-.87,3.2-1.35,5.82-1.43l2.73-.09v-.96c0-1.34-.29-2.27-.87-2.79s-1.4-.78-2.46-.78c-.84,0-1.64,.13-2.4,.38-.76,.25-1.47,.54-2.13,.85l-.81-1.98c.7-.38,1.53-.7,2.49-.97s1.96-.41,3-.41Zm3.15,8.49l-2.37,.09c-2,.08-3.38,.4-4.16,.96-.77,.56-1.15,1.35-1.15,2.37,0,.9,.27,1.56,.82,1.98s1.25,.63,2.12,.63c1.34,0,2.46-.38,3.38-1.12s1.37-1.9,1.37-3.46v-1.44Z"/><path class="g" d="M135.83,19.6c.4,0,.75,.13,1.06,.4,.31,.27,.46,.7,.46,1.27s-.16,1.01-.46,1.28c-.31,.27-.67,.4-1.06,.4-.44,0-.81-.13-1.11-.4s-.45-.69-.45-1.28,.15-1,.45-1.27,.67-.4,1.11-.4Zm1.29,6.03v16.08h-2.64V25.63h2.64Z"/><path class="g" d="M144.86,41.71h-2.64V18.91h2.64v22.8Z"/><path class="g" d="M171.74,33.64c0,2.66-.67,4.72-2.03,6.18-1.35,1.46-3.17,2.19-5.47,2.19-1.42,0-2.69-.32-3.79-.97-1.11-.65-1.99-1.6-2.62-2.85-.64-1.25-.96-2.76-.96-4.54,0-2.66,.66-4.71,1.99-6.15,1.33-1.44,3.16-2.16,5.48-2.16,1.44,0,2.72,.33,3.84,.98s2,1.59,2.62,2.82,.95,2.74,.95,4.52Zm-12.15,0c0,1.9,.38,3.4,1.12,4.51,.75,1.11,1.95,1.67,3.58,1.67s2.81-.55,3.57-1.67c.76-1.11,1.14-2.61,1.14-4.51s-.38-3.39-1.14-4.47c-.76-1.08-1.96-1.62-3.6-1.62s-2.83,.54-3.57,1.62c-.74,1.08-1.11,2.57-1.11,4.47Z"/><path class="g" d="M183.41,25.33c.3,0,.62,.01,.96,.04,.34,.03,.65,.08,.93,.13l-.33,2.43c-.26-.06-.55-.11-.87-.15-.32-.04-.61-.06-.87-.06-.82,0-1.59,.23-2.31,.67-.72,.45-1.29,1.08-1.72,1.89-.43,.81-.64,1.75-.64,2.83v8.58h-2.64V25.63h2.16l.3,2.94h.12c.5-.88,1.17-1.64,2-2.28s1.8-.96,2.92-.96Z"/><path class="g" d="M203.75,25.33c1.98,0,3.57,.69,4.79,2.07,1.21,1.38,1.81,3.46,1.81,6.24s-.6,4.82-1.81,6.24c-1.21,1.42-2.82,2.13-4.82,2.13-1.24,0-2.26-.23-3.08-.69-.81-.46-1.45-1.01-1.9-1.65h-.18c.02,.34,.05,.77,.11,1.29,.05,.52,.08,.97,.08,1.35v6.6h-2.64V25.63h2.16l.36,2.19h.12c.48-.7,1.11-1.29,1.89-1.77s1.82-.72,3.12-.72Zm-.48,2.22c-1.64,0-2.8,.46-3.48,1.38-.68,.92-1.03,2.32-1.05,4.2v.51c0,1.98,.32,3.51,.97,4.57,.65,1.07,1.85,1.6,3.62,1.6,.96,0,1.76-.26,2.4-.79,.64-.53,1.12-1.26,1.43-2.21,.31-.94,.46-2.01,.46-3.21,0-1.84-.36-3.31-1.07-4.41s-1.8-1.65-3.29-1.65Z"/><path class="g" d="M217.19,18.91v6.69c0,.8-.05,1.55-.15,2.25h.18c.52-.82,1.23-1.44,2.12-1.86,.89-.42,1.85-.63,2.9-.63,1.94,0,3.4,.47,4.39,1.4,.99,.93,1.49,2.43,1.49,4.48v10.47h-2.61v-10.29c0-2.58-1.2-3.87-3.6-3.87-1.8,0-3.04,.51-3.71,1.52-.67,1.01-1,2.46-1,4.33v8.31h-2.64V18.91h2.64Z"/><path class="g" d="M247.07,33.64c0,2.66-.67,4.72-2.03,6.18-1.35,1.46-3.17,2.19-5.47,2.19-1.42,0-2.69-.32-3.79-.97-1.11-.65-1.99-1.6-2.62-2.85-.64-1.25-.96-2.76-.96-4.54,0-2.66,.66-4.71,1.99-6.15,1.33-1.44,3.16-2.16,5.48-2.16,1.44,0,2.72,.33,3.84,.98s2,1.59,2.62,2.82,.95,2.74,.95,4.52Zm-12.15,0c0,1.9,.38,3.4,1.12,4.51,.75,1.11,1.95,1.67,3.58,1.67s2.81-.55,3.57-1.67c.76-1.11,1.14-2.61,1.14-4.51s-.38-3.39-1.14-4.47c-.76-1.08-1.96-1.62-3.6-1.62s-2.83,.54-3.57,1.62c-.74,1.08-1.11,2.57-1.11,4.47Z"/><path class="g" d="M258.98,25.33c1.92,0,3.37,.47,4.35,1.41,.98,.94,1.47,2.44,1.47,4.5v10.47h-2.61v-10.29c0-2.58-1.2-3.87-3.6-3.87-1.78,0-3.01,.5-3.69,1.5-.68,1-1.02,2.44-1.02,4.32v8.34h-2.64V25.63h2.13l.39,2.19h.15c.52-.84,1.24-1.46,2.16-1.88,.92-.41,1.89-.61,2.91-.61Z"/><path class="g" d="M275.99,25.33c1.36,0,2.54,.3,3.54,.9s1.76,1.45,2.29,2.54c.53,1.09,.79,2.37,.79,3.82v1.59h-11.01c.04,1.82,.5,3.21,1.4,4.15,.89,.95,2.13,1.42,3.73,1.42,1.02,0,1.92-.09,2.71-.28s1.61-.47,2.45-.83v2.31c-.82,.36-1.63,.63-2.43,.79-.8,.17-1.75,.25-2.85,.25-1.54,0-2.89-.31-4.05-.93-1.16-.62-2.07-1.54-2.71-2.76-.65-1.22-.97-2.73-.97-4.53s.29-3.27,.88-4.53c.59-1.26,1.42-2.23,2.49-2.91,1.07-.68,2.31-1.02,3.73-1.02Zm-.03,2.16c-1.26,0-2.26,.41-2.99,1.22-.73,.81-1.17,1.94-1.3,3.38h8.19c-.02-1.36-.34-2.46-.96-3.31s-1.6-1.28-2.94-1.28Z"/></g></g></g></g></svg>