<?xml version="1.0" encoding="UTF-8"?><svg id="b" xmlns="http://www.w3.org/2000/svg" viewBox="0 0 1781.58 441.74"><defs><style>.d{fill:none;stroke:#000;stroke-miterlimit:10;stroke-width:3px;}</style></defs><g id="c"><g><path d="M174.48,152.51c36.33,0,65.78,29.45,65.78,65.78s-29.45,65.78-65.78,65.78-65.78-29.45-65.78-65.78,29.45-65.78,65.78-65.78m0-3c-37.92,0-68.78,30.85-68.78,68.78s30.85,68.78,68.78,68.78,68.78-30.85,68.78-68.78-30.85-68.78-68.78-68.78h0Z"/><path d="M1087.56,152.51c36.33,0,65.78,29.45,65.78,65.78s-29.45,65.78-65.78,65.78-65.78-29.45-65.78-65.78,29.45-65.78,65.78-65.78m0-3c-37.92,0-68.78,30.85-68.78,68.78s30.85,68.78,68.78,68.78,68.78-30.85,68.78-68.78-30.85-68.78-68.78-68.78h0Z"/><path d="M478.84,152.19c36.33,0,65.78,29.45,65.78,65.78s-29.45,65.78-65.78,65.78-65.78-29.45-65.78-65.78,29.45-65.78,65.78-65.78m0-3c-37.92,0-68.78,30.85-68.78,68.78s30.85,68.78,68.78,68.78,68.78-30.85,68.78-68.78-30.85-68.78-68.78-68.78h0Z"/><path d="M1391.92,152.51c36.33,0,65.78,29.45,65.78,65.78s-29.45,65.78-65.78,65.78-65.78-29.45-65.78-65.78,29.45-65.78,65.78-65.78m0-3c-37.92,0-68.78,30.85-68.78,68.78s30.85,68.78,68.78,68.78,68.78-30.85,68.78-68.78-30.85-68.78-68.78-68.78h0Z"/><path d="M783.2,152.51c36.33,0,65.78,29.45,65.78,65.78s-29.45,65.78-65.78,65.78-65.78-29.45-65.78-65.78,29.45-65.78,65.78-65.78m0-3c-37.92,0-68.78,30.85-68.78,68.78s30.85,68.78,68.78,68.78,68.78-30.85,68.78-68.78-30.85-68.78-68.78-68.78h0Z"/><g><path d="M1702.8,152.51c36.33,0,65.78,29.45,65.78,65.78s-29.45,65.78-65.78,65.78-65.78-29.45-65.78-65.78,29.45-65.78,65.78-65.78m0-3c-37.92,0-68.78,30.85-68.78,68.78s30.85,68.78,68.78,68.78,68.78-30.85,68.78-68.78-30.85-68.78-68.78-68.78h0Z"/><path d="M1702.8,142.51c41.78,0,75.78,33.99,75.78,75.78s-33.99,75.78-75.78,75.78-75.78-33.99-75.78-75.78,33.99-75.78,75.78-75.78m0-3c-43.44,0-78.78,35.34-78.78,78.78s35.34,78.78,78.78,78.78,78.78-35.34,78.78-78.78-35.34-78.78-78.78-78.78h0Z"/></g><g><path class="d" d="M251.65,199.15c40.69-40.69,106.07-41.44,147.68-2.27"/><polygon points="383.65 199.42 383.6 196.42 398.39 196.2 397.1 181.47 400.09 181.21 401.66 199.15 383.65 199.42"/></g><g><line class="d" y1="218.29" x2="92.15" y2="218.29"/><polygon points="82.21 230.56 80.17 228.36 91 218.29 80.17 208.22 82.21 206.02 95.41 218.29 82.21 230.56"/></g><g><path class="d" d="M251.65,237.42c40.69,40.69,106.07,41.44,147.68,2.27"/><polygon points="400.09 255.37 397.1 255.11 398.4 240.37 383.6 240.16 383.65 237.16 401.66 237.42 400.09 255.37"/></g><g><line class="d" x1="556.01" y1="218.29" x2="702.77" y2="218.29"/><polygon points="692.83 230.56 690.78 228.36 701.62 218.29 690.78 208.22 692.83 206.02 706.02 218.29 692.83 230.56"/></g><g><path class="d" d="M860.37,199.15c40.69-40.69,106.07-41.44,147.68-2.27"/><polygon points="992.37 199.42 992.32 196.42 1007.11 196.2 1005.82 181.47 1008.81 181.21 1010.38 199.15 992.37 199.42"/></g><g><path class="d" d="M860.37,237.42c40.69,40.69,106.07,41.44,147.68,2.27"/><polygon points="1008.82 255.37 1005.82 255.11 1007.12 240.37 992.33 240.16 992.37 237.16 1010.39 237.42 1008.82 255.37"/></g><g><path class="d" d="M527.13,150.35c7.61-10.1,12.12-22.67,12.12-36.29,0-33.37-27.05-60.41-60.41-60.41s-60.41,27.05-60.41,60.41c0,14.79,5.32,28.33,14.15,38.84"/><polygon points="542.7 149.04 542.06 146.11 527.61 149.27 525.51 134.63 522.54 135.06 525.1 152.89 542.7 149.04"/></g><g><path class="d" d="M527.13,285.59c7.61,10.1,12.12,22.67,12.12,36.29,0,33.37-27.05,60.41-60.41,60.41s-60.41-27.05-60.41-60.41c0-14.79,5.32-28.33,14.15-38.84"/><polygon points="522.54 300.88 525.51 301.3 527.61 286.66 542.06 289.83 542.7 286.89 525.1 283.04 522.54 300.88"/></g><g><line class="d" x1="1164.73" y1="217.97" x2="1311.49" y2="217.97"/><polygon points="1301.55 230.24 1299.51 228.04 1310.34 217.97 1299.51 207.9 1301.55 205.7 1314.75 217.97 1301.55 230.24"/></g><g><path class="d" d="M1469.1,198.83c40.69-40.69,106.07-41.44,147.68-2.27"/><polygon points="1601.09 199.1 1601.05 196.09 1615.84 195.88 1614.54 181.14 1617.54 180.89 1619.11 198.83 1601.09 199.1"/></g><g><path class="d" d="M1469.1,237.1c40.69,40.69,106.07,41.44,147.68,2.27"/><polygon points="1617.54 255.05 1614.55 254.79 1615.84 240.05 1601.05 239.84 1601.09 236.84 1619.11 237.1 1617.54 255.05"/></g><g><path class="d" d="M1135.85,150.35c7.61-10.1,12.12-22.67,12.12-36.29,0-33.37-27.05-60.41-60.41-60.41s-60.41,27.05-60.41,60.41c0,14.79,5.32,28.33,14.15,38.84"/><polygon points="1151.43 149.04 1150.79 146.11 1136.34 149.27 1134.23 134.63 1131.26 135.06 1133.83 152.89 1151.43 149.04"/></g><g><path class="d" d="M1135.85,285.59c7.61,10.1,12.12,22.67,12.12,36.29,0,33.37-27.05,60.41-60.41,60.41s-60.41-27.05-60.41-60.41c0-14.79,5.32-28.33,14.15-38.84"/><polygon points="1131.26 300.88 1134.23 301.3 1136.33 286.66 1150.78 289.83 1151.42 286.89 1133.82 283.04 1131.26 300.88"/></g><g><path class="d" d="M1751.09,140.2c7.61-10.1,12.12-22.67,12.12-36.29,0-33.37-27.05-60.41-60.41-60.41s-60.41,27.05-60.41,60.41c0,14.79,5.32,28.33,14.15,38.84"/><polygon points="1766.67 138.89 1766.03 135.96 1751.58 139.13 1749.48 124.48 1746.5 124.91 1749.07 142.75 1766.67 138.89"/></g><g><path class="d" d="M1751.09,296.37c7.61,10.1,12.12,22.67,12.12,36.29,0,33.37-27.05,60.41-60.41,60.41s-60.41-27.05-60.41-60.41c0-14.79,5.32-28.33,14.15-38.84"/><polygon points="1746.5 311.66 1749.47 312.09 1751.57 297.45 1766.02 300.61 1766.66 297.68 1749.06 293.83 1746.5 311.66"/></g><path d="M184.64,246.69h-12.08v-33.04c0-1.33,.03-3.13,.08-5.4,.05-2.27,.13-4.25,.24-5.96-.27,.32-.84,.89-1.72,1.72-.88,.83-1.69,1.56-2.44,2.2l-6.56,5.28-5.84-7.28,18.4-14.64h9.92v57.12Z"/><path d="M499.08,246.85h-39.92v-8.4l14.32-14.48c2.88-2.99,5.2-5.48,6.96-7.48,1.76-2,3.04-3.81,3.84-5.44,.8-1.63,1.2-3.37,1.2-5.24,0-2.29-.63-4-1.88-5.12-1.25-1.12-2.95-1.68-5.08-1.68s-4.32,.51-6.4,1.52c-2.08,1.01-4.27,2.45-6.56,4.32l-6.56-7.76c1.6-1.39,3.33-2.71,5.2-3.96,1.87-1.25,4.01-2.27,6.44-3.04,2.43-.77,5.35-1.16,8.76-1.16,3.73,0,6.95,.68,9.64,2.04,2.69,1.36,4.77,3.2,6.24,5.52,1.47,2.32,2.2,4.95,2.2,7.88,0,3.15-.63,6.03-1.88,8.64-1.25,2.61-3.07,5.2-5.44,7.76-2.37,2.56-5.24,5.39-8.6,8.48l-7.36,6.88v.56h24.88v10.16Z"/><path d="M801.2,202.2c0,3.95-1.19,7.09-3.56,9.44-2.37,2.35-5.29,3.95-8.76,4.8v.24c4.53,.59,8,2,10.4,4.24,2.4,2.24,3.6,5.23,3.6,8.96,0,3.31-.81,6.28-2.44,8.92-1.63,2.64-4.13,4.72-7.52,6.24-3.39,1.52-7.75,2.28-13.08,2.28-6.19,0-11.68-1.04-16.48-3.12v-10.24c2.45,1.23,5.01,2.16,7.68,2.8,2.67,.64,5.17,.96,7.52,.96,4.32,0,7.35-.75,9.08-2.24,1.73-1.49,2.6-3.6,2.6-6.32,0-1.55-.4-2.88-1.2-4s-2.2-1.96-4.2-2.52c-2-.56-4.79-.84-8.36-.84h-4.32v-9.28h4.4c3.52,0,6.2-.33,8.04-1,1.84-.67,3.09-1.57,3.76-2.72,.67-1.15,1-2.47,1-3.96,0-2.03-.63-3.61-1.88-4.76-1.25-1.15-3.35-1.72-6.28-1.72-2.72,0-5.09,.48-7.12,1.44-2.03,.96-3.71,1.87-5.04,2.72l-5.6-8.32c2.24-1.6,4.87-2.93,7.88-4,3.01-1.07,6.6-1.6,10.76-1.6,5.87,0,10.52,1.19,13.96,3.56,3.44,2.37,5.16,5.72,5.16,10.04Z"/><path d="M1109.08,235.01h-6.88v11.84h-11.76v-11.84h-24.4v-8.4l25.04-36.88h11.12v35.92h6.88v9.36Zm-18.64-9.36v-9.68c0-1.23,.03-2.72,.08-4.48,.05-1.76,.12-3.4,.2-4.92,.08-1.52,.15-2.52,.2-3h-.32c-.48,1.07-1,2.11-1.56,3.12-.56,1.01-1.19,2.05-1.88,3.12l-10.48,15.84h13.76Z"/><path d="M1393.04,210.53c3.47,0,6.56,.67,9.28,2,2.72,1.33,4.87,3.28,6.44,5.84,1.57,2.56,2.36,5.73,2.36,9.52,0,6.19-1.92,11.05-5.76,14.6-3.84,3.55-9.52,5.32-17.04,5.32-2.99,0-5.8-.27-8.44-.8-2.64-.53-4.95-1.31-6.92-2.32v-10.4c1.97,1.01,4.35,1.88,7.12,2.6s5.39,1.08,7.84,1.08c3.57,0,6.31-.73,8.2-2.2,1.89-1.47,2.84-3.75,2.84-6.84,0-5.76-3.81-8.64-11.44-8.64-1.49,0-3.04,.15-4.64,.44-1.6,.29-2.93,.57-4,.84l-4.8-2.56,2.16-29.12h30.96v10.24h-20.4l-1.04,11.2c.91-.16,1.88-.33,2.92-.52,1.04-.19,2.49-.28,4.36-.28Z"/><path d="M1682.72,222.45c0-3.25,.24-6.49,.72-9.72,.48-3.23,1.32-6.27,2.52-9.12,1.2-2.85,2.88-5.39,5.04-7.6,2.16-2.21,4.91-3.95,8.24-5.2,3.33-1.25,7.37-1.88,12.12-1.88,1.12,0,2.43,.04,3.92,.12s2.75,.23,3.76,.44v9.68c-1.01-.21-2.12-.4-3.32-.56-1.2-.16-2.39-.24-3.56-.24-4.75,0-8.41,.75-11,2.24-2.59,1.49-4.41,3.59-5.48,6.28-1.07,2.69-1.68,5.8-1.84,9.32h.48c1.07-1.87,2.6-3.44,4.6-4.72s4.6-1.92,7.8-1.92c5.01,0,8.99,1.57,11.92,4.72,2.93,3.15,4.4,7.6,4.4,13.36,0,6.19-1.75,11.04-5.24,14.56-3.49,3.52-8.23,5.28-14.2,5.28-3.89,0-7.41-.89-10.56-2.68-3.15-1.79-5.65-4.53-7.52-8.24-1.87-3.71-2.8-8.41-2.8-14.12Zm20.64,15.36c2.35,0,4.27-.81,5.76-2.44,1.49-1.63,2.24-4.15,2.24-7.56,0-2.77-.64-4.96-1.92-6.56-1.28-1.6-3.23-2.4-5.84-2.4-1.81,0-3.37,.4-4.68,1.2-1.31,.8-2.33,1.8-3.08,3-.75,1.2-1.12,2.44-1.12,3.72,0,1.76,.32,3.49,.96,5.2,.64,1.71,1.61,3.11,2.92,4.2,1.31,1.09,2.89,1.64,4.76,1.64Z"/><g><g><path d="M303.38,140.12c2.57,0,4.53,.55,5.9,1.66s2.05,2.81,2.05,5.09v12.74h-3.64l-1.02-2.59h-.14c-.82,1.03-1.68,1.77-2.59,2.24-.91,.47-2.16,.7-3.74,.7-1.7,0-3.12-.49-4.24-1.47-1.12-.98-1.68-2.51-1.68-4.58s.71-3.52,2.13-4.48,3.56-1.49,6.41-1.61l3.32-.11v-.84c0-1-.26-1.74-.79-2.21-.53-.47-1.25-.7-2.19-.7s-1.84,.13-2.73,.4-1.77,.6-2.66,1l-1.72-3.54c1-.51,2.14-.93,3.4-1.24,1.26-.32,2.57-.47,3.92-.47Zm2.76,10.64l-2.03,.07c-1.68,.05-2.85,.35-3.5,.91-.65,.56-.98,1.29-.98,2.21,0,.79,.23,1.36,.7,1.7,.47,.34,1.07,.51,1.82,.51,1.12,0,2.07-.33,2.83-1s1.15-1.6,1.15-2.82v-1.58Z"/><path d="M324.1,152.37v-4.27h9.17v4.27h-9.17Z"/><path d="M359.45,159.61h-15.08v-3.08l8.86-12.04h-8.33v-3.99h14.24v3.4l-8.61,11.72h8.92v3.99Z"/></g><g><path d="M310.63,291.07c0,2.68-.29,4.98-.86,6.9-.57,1.91-1.5,3.38-2.78,4.41-1.28,1.03-2.99,1.54-5.11,1.54-3.01,0-5.21-1.13-6.62-3.39-1.4-2.26-2.1-5.41-2.1-9.45,0-2.68,.28-4.99,.84-6.91s1.48-3.4,2.77-4.43c1.28-1.03,2.99-1.54,5.11-1.54,2.99,0,5.19,1.13,6.62,3.39,1.42,2.26,2.13,5.43,2.13,9.49Zm-12.21,0c0,2.85,.24,4.99,.73,6.42,.49,1.43,1.4,2.15,2.73,2.15s2.22-.71,2.73-2.13c.51-1.42,.77-3.57,.77-6.44s-.26-4.99-.77-6.44c-.51-1.45-1.42-2.17-2.73-2.17s-2.24,.72-2.73,2.17c-.49,1.45-.73,3.59-.73,6.44Z"/><path d="M322.07,296.32v-4.27h9.17v4.27h-9.17Z"/><path d="M360.15,289.25c0,1.42-.11,2.84-.32,4.25-.21,1.41-.58,2.74-1.1,3.99s-1.26,2.36-2.21,3.33c-.95,.97-2.15,1.73-3.6,2.27s-3.23,.82-5.3,.82c-.49,0-1.06-.02-1.71-.05-.65-.04-1.2-.1-1.65-.19v-4.24c.47,.09,.96,.17,1.47,.25,.51,.07,1.03,.1,1.54,.1,2.08,0,3.68-.33,4.81-.98,1.13-.65,1.93-1.57,2.4-2.75,.47-1.18,.73-2.54,.8-4.08h-.21c-.49,.82-1.14,1.5-1.94,2.07-.8,.56-2,.84-3.59,.84-2.12,0-3.83-.69-5.11-2.07-1.28-1.38-1.93-3.33-1.93-5.84,0-2.71,.76-4.83,2.29-6.37,1.53-1.54,3.6-2.31,6.21-2.31,1.7,0,3.24,.39,4.62,1.17,1.38,.78,2.47,1.98,3.29,3.61,.82,1.62,1.22,3.68,1.22,6.18Zm-9.03-6.72c-1.03,0-1.87,.36-2.52,1.07-.65,.71-.98,1.81-.98,3.31,0,1.21,.28,2.17,.84,2.87s1.41,1.05,2.56,1.05c.77,0,1.45-.17,2.03-.52,.58-.35,1.04-.79,1.37-1.31,.33-.53,.49-1.07,.49-1.63,0-.77-.14-1.53-.42-2.28-.28-.75-.7-1.36-1.26-1.84-.56-.48-1.26-.72-2.1-.72Z"/></g><g><path d="M912.1,140.28c2.57,0,4.53,.55,5.9,1.66s2.05,2.81,2.05,5.09v12.74h-3.64l-1.02-2.59h-.14c-.82,1.03-1.68,1.77-2.59,2.24-.91,.47-2.16,.7-3.74,.7-1.7,0-3.12-.49-4.24-1.47-1.12-.98-1.68-2.51-1.68-4.58s.71-3.52,2.13-4.48,3.56-1.49,6.41-1.61l3.32-.11v-.84c0-1-.26-1.74-.79-2.21-.53-.47-1.25-.7-2.19-.7s-1.84,.13-2.73,.4-1.77,.6-2.66,1l-1.72-3.54c1-.51,2.14-.93,3.4-1.24,1.26-.32,2.57-.47,3.92-.47Zm2.76,10.64l-2.03,.07c-1.68,.05-2.85,.35-3.5,.91-.65,.56-.98,1.29-.98,2.21,0,.79,.23,1.36,.7,1.7,.47,.34,1.07,.51,1.82,.51,1.12,0,2.07-.33,2.83-1s1.15-1.6,1.15-2.82v-1.58Z"/><path d="M932.82,152.53v-4.27h9.17v4.27h-9.17Z"/><path d="M968.17,159.77h-15.08v-3.08l8.86-12.04h-8.33v-3.99h14.24v3.4l-8.61,11.72h8.92v3.99Z"/></g><g><path d="M919.35,291.23c0,2.68-.29,4.98-.86,6.9-.57,1.91-1.5,3.38-2.78,4.41-1.28,1.03-2.99,1.54-5.11,1.54-3.01,0-5.21-1.13-6.62-3.39-1.4-2.26-2.1-5.41-2.1-9.45,0-2.68,.28-4.99,.84-6.91s1.48-3.4,2.77-4.43c1.28-1.03,2.99-1.54,5.11-1.54,2.99,0,5.19,1.13,6.62,3.39,1.42,2.26,2.13,5.43,2.13,9.49Zm-12.21,0c0,2.85,.24,4.99,.73,6.42,.49,1.43,1.4,2.15,2.73,2.15s2.22-.71,2.73-2.13c.51-1.42,.77-3.57,.77-6.44s-.26-4.99-.77-6.44c-.51-1.45-1.42-2.17-2.73-2.17s-2.24,.72-2.73,2.17c-.49,1.45-.73,3.59-.73,6.44Z"/><path d="M930.79,296.48v-4.27h9.17v4.27h-9.17Z"/><path d="M968.87,289.41c0,1.42-.11,2.84-.32,4.25-.21,1.41-.58,2.74-1.1,3.99s-1.26,2.36-2.21,3.33c-.95,.97-2.15,1.73-3.6,2.27s-3.23,.82-5.3,.82c-.49,0-1.06-.02-1.71-.05-.65-.04-1.2-.1-1.65-.19v-4.24c.47,.09,.96,.17,1.47,.25,.51,.07,1.03,.1,1.54,.1,2.08,0,3.68-.33,4.81-.98,1.13-.65,1.93-1.57,2.4-2.75,.47-1.18,.73-2.54,.8-4.08h-.21c-.49,.82-1.14,1.5-1.94,2.07-.8,.56-2,.84-3.59,.84-2.12,0-3.83-.69-5.11-2.07-1.28-1.38-1.93-3.33-1.93-5.84,0-2.71,.76-4.83,2.29-6.37,1.53-1.54,3.6-2.31,6.21-2.31,1.7,0,3.24,.39,4.62,1.17,1.38,.78,2.47,1.98,3.29,3.61,.82,1.62,1.22,3.68,1.22,6.18Zm-9.03-6.72c-1.03,0-1.87,.36-2.52,1.07-.65,.71-.98,1.81-.98,3.31,0,1.21,.28,2.17,.84,2.87s1.41,1.05,2.56,1.05c.77,0,1.45-.17,2.03-.52,.58-.35,1.04-.79,1.37-1.31,.33-.53,.49-1.07,.49-1.63,0-.77-.14-1.53-.42-2.28-.28-.75-.7-1.36-1.26-1.84-.56-.48-1.26-.72-2.1-.72Z"/></g><g><path d="M1520.83,139.8c2.57,0,4.53,.55,5.9,1.66,1.37,1.11,2.05,2.81,2.05,5.09v12.74h-3.64l-1.02-2.59h-.14c-.82,1.03-1.68,1.77-2.59,2.24-.91,.47-2.16,.7-3.75,.7-1.7,0-3.12-.49-4.23-1.47-1.12-.98-1.68-2.51-1.68-4.58s.71-3.52,2.13-4.48c1.42-.96,3.56-1.49,6.4-1.61l3.33-.11v-.84c0-1-.26-1.74-.79-2.21-.52-.47-1.25-.7-2.19-.7s-1.84,.13-2.73,.4-1.77,.6-2.66,1l-1.72-3.54c1-.51,2.14-.93,3.4-1.24s2.57-.47,3.92-.47Zm2.76,10.64l-2.03,.07c-1.68,.05-2.85,.35-3.5,.91s-.98,1.29-.98,2.21c0,.79,.23,1.36,.7,1.7,.47,.34,1.07,.51,1.82,.51,1.12,0,2.06-.33,2.83-1,.77-.67,1.16-1.6,1.16-2.82v-1.58Z"/><path d="M1541.55,152.05v-4.27h9.17v4.27h-9.17Z"/><path d="M1576.9,159.29h-15.09v-3.08l8.86-12.04h-8.33v-3.99h14.25v3.4l-8.61,11.72h8.93v3.99Z"/></g><g><path d="M1528.07,290.75c0,2.68-.29,4.98-.86,6.9s-1.5,3.38-2.78,4.41c-1.28,1.03-2.99,1.54-5.11,1.54-3.01,0-5.21-1.13-6.62-3.39-1.4-2.26-2.1-5.41-2.1-9.45,0-2.68,.28-4.99,.84-6.91,.56-1.92,1.48-3.4,2.77-4.43,1.28-1.03,2.99-1.54,5.11-1.54,2.99,0,5.19,1.13,6.62,3.39,1.42,2.26,2.13,5.43,2.13,9.49Zm-12.21,0c0,2.85,.25,4.99,.74,6.42,.49,1.43,1.4,2.15,2.73,2.15s2.22-.71,2.73-2.13c.51-1.42,.77-3.57,.77-6.44s-.26-4.99-.77-6.44c-.51-1.45-1.42-2.17-2.73-2.17s-2.24,.72-2.73,2.17c-.49,1.45-.74,3.59-.74,6.44Z"/><path d="M1539.52,296v-4.27h9.17v4.27h-9.17Z"/><path d="M1577.6,288.93c0,1.42-.11,2.84-.31,4.25-.21,1.41-.58,2.74-1.1,3.99-.52,1.25-1.26,2.36-2.2,3.33-.95,.97-2.15,1.73-3.6,2.27-1.46,.55-3.23,.82-5.3,.82-.49,0-1.06-.02-1.71-.05-.65-.04-1.2-.1-1.65-.19v-4.24c.47,.09,.96,.17,1.47,.25,.51,.07,1.03,.1,1.54,.1,2.08,0,3.68-.33,4.81-.98s1.93-1.57,2.4-2.75c.47-1.18,.74-2.54,.8-4.08h-.21c-.49,.82-1.14,1.5-1.94,2.07-.8,.56-2,.84-3.59,.84-2.12,0-3.83-.69-5.11-2.07-1.28-1.38-1.92-3.33-1.92-5.84,0-2.71,.76-4.83,2.29-6.37s3.6-2.31,6.21-2.31c1.7,0,3.24,.39,4.62,1.17,1.38,.78,2.47,1.98,3.29,3.61,.82,1.62,1.22,3.68,1.22,6.18Zm-9.03-6.72c-1.03,0-1.87,.36-2.52,1.07-.65,.71-.98,1.81-.98,3.31,0,1.21,.28,2.17,.84,2.87,.56,.7,1.41,1.05,2.55,1.05,.77,0,1.45-.17,2.03-.52,.58-.35,1.04-.79,1.37-1.31,.33-.53,.49-1.07,.49-1.63,0-.77-.14-1.53-.42-2.28-.28-.75-.7-1.36-1.26-1.84s-1.26-.72-2.1-.72Z"/></g><g><path d="M457.37,25.54c2.57,0,4.53,.55,5.9,1.66,1.37,1.11,2.05,2.81,2.05,5.09v12.74h-3.64l-1.01-2.59h-.14c-.82,1.03-1.68,1.77-2.59,2.24-.91,.47-2.16,.7-3.75,.7-1.7,0-3.11-.49-4.23-1.47-1.12-.98-1.68-2.51-1.68-4.58s.71-3.52,2.13-4.48c1.42-.96,3.56-1.49,6.4-1.61l3.33-.11v-.84c0-1-.26-1.74-.79-2.21-.52-.47-1.25-.7-2.19-.7s-1.84,.13-2.73,.4-1.77,.6-2.66,1l-1.71-3.54c1-.51,2.13-.93,3.39-1.24s2.57-.47,3.92-.47Zm2.77,10.64l-2.03,.07c-1.68,.05-2.85,.35-3.5,.91s-.98,1.29-.98,2.21c0,.79,.23,1.36,.7,1.7,.47,.34,1.07,.51,1.82,.51,1.12,0,2.06-.33,2.83-1s1.16-1.6,1.16-2.82v-1.58Z"/><path d="M478.08,37.79v-4.27h9.17v4.27h-9.17Z"/><path d="M513.43,45.03h-15.08v-3.08l8.85-12.04h-8.33v-3.99h14.25v3.4l-8.61,11.72h8.92v3.99Z"/></g><g><path d="M1066.09,25.7c2.57,0,4.53,.55,5.9,1.66,1.37,1.11,2.05,2.81,2.05,5.09v12.74h-3.64l-1.01-2.59h-.14c-.82,1.03-1.68,1.77-2.59,2.24-.91,.47-2.16,.7-3.75,.7-1.7,0-3.11-.49-4.23-1.47-1.12-.98-1.68-2.51-1.68-4.58s.71-3.52,2.13-4.48c1.42-.96,3.56-1.49,6.4-1.61l3.33-.11v-.84c0-1-.26-1.74-.79-2.21-.52-.47-1.25-.7-2.19-.7s-1.84,.13-2.73,.4-1.77,.6-2.66,1l-1.71-3.54c1-.51,2.13-.93,3.39-1.24s2.57-.47,3.92-.47Zm2.77,10.64l-2.03,.07c-1.68,.05-2.85,.35-3.5,.91s-.98,1.29-.98,2.21c0,.79,.23,1.36,.7,1.7,.47,.34,1.07,.51,1.82,.51,1.12,0,2.06-.33,2.83-1s1.16-1.6,1.16-2.82v-1.58Z"/><path d="M1086.81,37.95v-4.27h9.17v4.27h-9.17Z"/><path d="M1122.16,45.19h-15.08v-3.08l8.85-12.04h-8.33v-3.99h14.25v3.4l-8.61,11.72h8.92v3.99Z"/></g><g><path d="M1679.53,15.55c2.57,0,4.53,.55,5.9,1.66s2.05,2.81,2.05,5.09v12.74h-3.64l-1.02-2.59h-.14c-.82,1.03-1.68,1.77-2.59,2.24-.91,.47-2.16,.7-3.74,.7-1.7,0-3.12-.49-4.24-1.47-1.12-.98-1.68-2.51-1.68-4.58s.71-3.52,2.13-4.48,3.56-1.49,6.41-1.61l3.32-.11v-.84c0-1-.26-1.74-.79-2.21-.53-.47-1.25-.7-2.19-.7s-1.84,.13-2.73,.4-1.77,.6-2.66,1l-1.72-3.54c1-.51,2.14-.93,3.4-1.24,1.26-.32,2.57-.47,3.92-.47Zm2.76,10.64l-2.03,.07c-1.68,.05-2.85,.35-3.5,.91-.65,.56-.98,1.29-.98,2.21,0,.79,.23,1.36,.7,1.7,.47,.34,1.07,.51,1.82,.51,1.12,0,2.07-.33,2.83-1s1.15-1.6,1.15-2.82v-1.58Z"/><path d="M1700.25,27.8v-4.27h9.17v4.27h-9.17Z"/><path d="M1735.6,35.05h-15.08v-3.08l8.86-12.04h-8.33v-3.99h14.24v3.4l-8.61,11.72h8.92v3.99Z"/></g><g><path d="M462.81,404.84c0,2.68-.29,4.98-.86,6.9-.57,1.91-1.5,3.38-2.78,4.41-1.28,1.03-2.99,1.54-5.11,1.54-3.01,0-5.22-1.13-6.62-3.39-1.4-2.26-2.1-5.41-2.1-9.45,0-2.68,.28-4.99,.84-6.91s1.48-3.4,2.76-4.43c1.28-1.03,2.99-1.54,5.11-1.54,2.99,0,5.19,1.13,6.61,3.39,1.42,2.26,2.14,5.43,2.14,9.49Zm-12.22,0c0,2.85,.25,4.99,.74,6.42,.49,1.43,1.4,2.15,2.73,2.15s2.22-.71,2.73-2.13,.77-3.57,.77-6.44-.26-4.99-.77-6.44c-.51-1.45-1.42-2.17-2.73-2.17s-2.24,.72-2.73,2.17c-.49,1.45-.74,3.59-.74,6.44Z"/><path d="M474.25,410.09v-4.27h9.17v4.27h-9.17Z"/><path d="M512.33,403.02c0,1.42-.1,2.84-.31,4.25-.21,1.41-.58,2.74-1.1,3.99-.52,1.25-1.26,2.36-2.2,3.33-.95,.97-2.15,1.73-3.61,2.27-1.46,.55-3.23,.82-5.3,.82-.49,0-1.06-.02-1.71-.05-.65-.04-1.2-.1-1.64-.19v-4.24c.47,.09,.96,.17,1.47,.25,.51,.07,1.03,.1,1.54,.1,2.08,0,3.68-.33,4.81-.98,1.13-.65,1.93-1.57,2.4-2.75,.47-1.18,.74-2.54,.81-4.08h-.21c-.49,.82-1.14,1.5-1.94,2.07-.81,.56-2,.84-3.59,.84-2.12,0-3.83-.69-5.11-2.07-1.28-1.38-1.92-3.33-1.92-5.84,0-2.71,.76-4.83,2.29-6.37s3.6-2.31,6.21-2.31c1.7,0,3.24,.39,4.62,1.17,1.38,.78,2.47,1.98,3.29,3.61s1.22,3.68,1.22,6.18Zm-9.03-6.72c-1.03,0-1.87,.36-2.52,1.07-.65,.71-.98,1.81-.98,3.31,0,1.21,.28,2.17,.84,2.87s1.41,1.05,2.55,1.05c.77,0,1.45-.17,2.03-.52,.58-.35,1.04-.79,1.37-1.31,.33-.53,.49-1.07,.49-1.63,0-.77-.14-1.53-.42-2.28-.28-.75-.7-1.36-1.26-1.84-.56-.48-1.26-.72-2.1-.72Z"/></g><g><path d="M1071.53,404.84c0,2.68-.29,4.98-.86,6.9-.57,1.91-1.5,3.38-2.78,4.41-1.28,1.03-2.99,1.54-5.11,1.54-3.01,0-5.22-1.13-6.62-3.39-1.4-2.26-2.1-5.41-2.1-9.45,0-2.68,.28-4.99,.84-6.91s1.48-3.4,2.76-4.43c1.28-1.03,2.99-1.54,5.11-1.54,2.99,0,5.19,1.13,6.61,3.39,1.42,2.26,2.14,5.43,2.14,9.49Zm-12.22,0c0,2.85,.25,4.99,.74,6.42,.49,1.43,1.4,2.15,2.73,2.15s2.22-.71,2.73-2.13,.77-3.57,.77-6.44-.26-4.99-.77-6.44c-.51-1.45-1.42-2.17-2.73-2.17s-2.24,.72-2.73,2.17c-.49,1.45-.74,3.59-.74,6.44Z"/><path d="M1082.98,410.09v-4.27h9.17v4.27h-9.17Z"/><path d="M1121.05,403.02c0,1.42-.1,2.84-.31,4.25-.21,1.41-.58,2.74-1.1,3.99-.52,1.25-1.26,2.36-2.2,3.33-.95,.97-2.15,1.73-3.61,2.27-1.46,.55-3.23,.82-5.3,.82-.49,0-1.06-.02-1.71-.05-.65-.04-1.2-.1-1.64-.19v-4.24c.47,.09,.96,.17,1.47,.25,.51,.07,1.03,.1,1.54,.1,2.08,0,3.68-.33,4.81-.98,1.13-.65,1.93-1.57,2.4-2.75,.47-1.18,.74-2.54,.81-4.08h-.21c-.49,.82-1.14,1.5-1.94,2.07-.81,.56-2,.84-3.59,.84-2.12,0-3.83-.69-5.11-2.07-1.28-1.38-1.92-3.33-1.92-5.84,0-2.71,.76-4.83,2.29-6.37s3.6-2.31,6.21-2.31c1.7,0,3.24,.39,4.62,1.17,1.38,.78,2.47,1.98,3.29,3.61s1.22,3.68,1.22,6.18Zm-9.03-6.72c-1.03,0-1.87,.36-2.52,1.07-.65,.71-.98,1.81-.98,3.31,0,1.21,.28,2.17,.84,2.87s1.41,1.05,2.55,1.05c.77,0,1.45-.17,2.03-.52,.58-.35,1.04-.79,1.37-1.31,.33-.53,.49-1.07,.49-1.63,0-.77-.14-1.53-.42-2.28-.28-.75-.7-1.36-1.26-1.84-.56-.48-1.26-.72-2.1-.72Z"/></g><path d="M644.97,191.99c0,1.07-.13,2.14-.38,3.19-.26,1.05-.65,2.01-1.17,2.87s-1.18,1.55-1.98,2.05c-.79,.5-1.73,.75-2.8,.75-.86,0-1.62-.2-2.27-.61-.65-.41-1.11-.94-1.37-1.59h-.28c-.47,.58-1.09,1.1-1.87,1.54-.78,.44-1.72,.67-2.82,.67-2.08,0-3.68-.62-4.81-1.87-1.13-1.25-1.7-2.89-1.7-4.92,0-1.56,.34-2.95,1.02-4.15,.68-1.2,1.63-2.15,2.87-2.83s2.7-1.03,4.38-1.03c1.1,0,2.23,.1,3.41,.3,1.18,.2,2.09,.42,2.75,.65l-.35,7.17c-.02,.23-.04,.47-.04,.72v.47c0,.96,.13,1.59,.4,1.91,.27,.32,.57,.47,.89,.47,.51,0,.95-.26,1.31-.79,.36-.53,.63-1.23,.8-2.1,.18-.88,.26-1.84,.26-2.89,0-1.94-.4-3.59-1.19-4.97-.79-1.38-1.88-2.43-3.25-3.15-1.38-.72-2.93-1.08-4.66-1.08-2.45,0-4.51,.51-6.18,1.52-1.67,1.01-2.93,2.4-3.8,4.17s-1.29,3.76-1.29,6c0,3.15,.84,5.57,2.52,7.25,1.68,1.68,4.12,2.52,7.32,2.52,1.35,0,2.76-.15,4.22-.44,1.46-.29,2.81-.67,4.04-1.14v3.29c-1.12,.47-2.37,.84-3.75,1.12-1.38,.28-2.83,.42-4.38,.42-2.89,0-5.37-.51-7.42-1.54-2.05-1.03-3.62-2.5-4.71-4.43s-1.63-4.24-1.63-6.95c0-2.12,.35-4.1,1.05-5.92,.7-1.82,1.7-3.41,3.01-4.78,1.31-1.36,2.89-2.43,4.74-3.18,1.85-.76,3.92-1.14,6.21-1.14,2.5,0,4.71,.5,6.65,1.5,1.94,1,3.46,2.44,4.57,4.31,1.11,1.87,1.66,4.08,1.66,6.65Zm-17.5,2.14c0,1.28,.27,2.2,.8,2.76,.54,.56,1.25,.84,2.13,.84,1.17,0,1.99-.43,2.47-1.28,.48-.85,.76-1.97,.86-3.34l.21-3.78c-.26-.05-.55-.09-.89-.12s-.69-.05-1.07-.05c-1.12,0-2.01,.24-2.66,.72-.65,.48-1.13,1.1-1.42,1.87-.29,.77-.44,1.56-.44,2.38Z"/><path d="M1236.75,202.07c0-1.07,.29-1.83,.88-2.26,.58-.43,1.29-.65,2.13-.65s1.52,.22,2.1,.65c.58,.43,.88,1.18,.88,2.26s-.29,1.77-.88,2.22c-.58,.46-1.28,.68-2.1,.68s-1.55-.23-2.13-.68c-.58-.46-.88-1.2-.88-2.22Z"/><g><path d="M1686.77,415.63c0,2.68-.29,4.98-.86,6.9-.57,1.91-1.5,3.38-2.78,4.41-1.28,1.03-2.99,1.54-5.11,1.54-3.01,0-5.21-1.13-6.62-3.39-1.4-2.26-2.1-5.41-2.1-9.45,0-2.68,.28-4.99,.84-6.91s1.48-3.4,2.77-4.43c1.28-1.03,2.99-1.54,5.11-1.54,2.99,0,5.19,1.13,6.62,3.39,1.42,2.26,2.13,5.43,2.13,9.49Zm-12.21,0c0,2.85,.24,4.99,.73,6.42,.49,1.43,1.4,2.15,2.73,2.15s2.22-.71,2.73-2.13c.51-1.42,.77-3.57,.77-6.44s-.26-4.99-.77-6.44c-.51-1.45-1.42-2.17-2.73-2.17s-2.24,.72-2.73,2.17c-.49,1.45-.73,3.59-.73,6.44Z"/><path d="M1698.22,420.88v-4.27h9.17v4.27h-9.17Z"/><path d="M1736.3,413.81c0,1.42-.11,2.84-.32,4.25-.21,1.41-.58,2.74-1.1,3.99s-1.26,2.36-2.21,3.33c-.95,.97-2.15,1.73-3.6,2.27s-3.23,.82-5.3,.82c-.49,0-1.06-.02-1.71-.05-.65-.04-1.2-.1-1.65-.19v-4.24c.47,.09,.96,.17,1.47,.25,.51,.07,1.03,.1,1.54,.1,2.08,0,3.68-.33,4.81-.98,1.13-.65,1.93-1.57,2.4-2.75,.47-1.18,.73-2.54,.8-4.08h-.21c-.49,.82-1.14,1.5-1.94,2.07-.8,.56-2,.84-3.59,.84-2.12,0-3.83-.69-5.11-2.07-1.28-1.38-1.93-3.33-1.93-5.84,0-2.71,.76-4.83,2.29-6.37,1.53-1.54,3.6-2.31,6.21-2.31,1.7,0,3.24,.39,4.62,1.17,1.38,.78,2.47,1.98,3.29,3.61,.82,1.62,1.22,3.68,1.22,6.18Zm-9.03-6.72c-1.03,0-1.87,.36-2.52,1.07-.65,.71-.98,1.81-.98,3.31,0,1.21,.28,2.17,.84,2.87s1.41,1.05,2.56,1.05c.77,0,1.45-.17,2.03-.52,.58-.35,1.04-.79,1.37-1.31,.33-.53,.49-1.07,.49-1.63,0-.77-.14-1.53-.42-2.28-.28-.75-.7-1.36-1.26-1.84-.56-.48-1.26-.72-2.1-.72Z"/></g></g></g></g></svg>