<?xml version="1.0" encoding="UTF-8"?><svg id="Layer_1" xmlns="http://www.w3.org/2000/svg" viewBox="0 0 500 500"><defs><style>.cls-1{fill:#800256;}.cls-2{fill:#b3679a;}.cls-3{fill:none;stroke:#800256;stroke-linecap:round;stroke-linejoin:round;stroke-width:10px;}.cls-4{fill:#993578;}</style></defs><path class="cls-4" d="M321.12,232.98v236.6c0,3.15-1.01,6.07-2.71,8.46h3.46c4.67,0,8.46-3.79,8.46-8.46V232.98c0-4.67-3.79-8.46-8.46-8.46h-3.46c1.71,2.39,2.71,5.31,2.71,8.46Z"/><path class="cls-2" d="M336.46,232.46v236.6c0,3.15-1.01,6.07-2.71,8.46h3.46c4.67,0,8.46-3.79,8.46-8.46V232.46c0-4.67-3.79-8.46-8.46-8.46h-3.46c1.71,2.39,2.71,5.31,2.71,8.46Z"/><path class="cls-1" d="M306.52,224.04H162.79c-4.67,0-8.46,3.79-8.46,8.46v236.6c0,4.67,3.79,8.46,8.46,8.46h143.73c4.67,0,8.46-3.79,8.46-8.46V232.5c0-4.67-3.79-8.46-8.46-8.46Zm-139.5,14.4h67.21v6.33h-67.21v-6.33Zm0,12.84h43.35v6.33h-43.35v-6.33Zm0,12.84h57.88v6.33h-57.88v-6.33Zm54.82,12.84v6.33h-22.93v-6.33h22.93Zm-54.82,0h22.92v6.33h-22.92v-6.33Zm0,12.84h37.91v6.33h-37.91v-6.33Zm0,25.68h116.49v6.33h-116.49v-6.33Zm0,25.68h59.61v6.33h-59.61v-6.33Zm0,12.84h92.5v6.33h-92.5v-6.33Zm0,25.68h101.18v6.33h-101.18v-6.33Zm0,12.84h65.78v6.33h-65.78v-6.33Zm0,12.84h23.75v6.33h-23.75v-6.33Zm0,25.68h96.84v6.33h-96.84v-6.33Zm0,12.84h47.51v6.33h-47.51v-6.33Zm83.82,19.17h-83.82v-6.33h83.82v6.33Zm29.01-12.84h-54.7v-6.33h54.7v6.33Zm0-25.68h-112.83v-6.33h112.83v6.33Zm18.16-12.84h-96.84v-6.33h96.84v6.33Zm4.28-77.05H167.03v-6.33h135.27v6.33Zm0-58.94h-60.6v-37.28h60.6v37.28Z"/><path class="cls-1" d="M279.69,127.57l-25.16,27.06V40.78c0-2.76-2.24-5-5-5h0c-2.76,0-5,2.24-5,5v113.87l-25.17-27.08c-1.88-2.02-5.05-2.14-7.07-.26h0c-2.02,1.89-2.13,5.05-.25,7.07l33.83,36.38c1.98,2.13,5.35,2.13,7.32,0l33.83-36.38c1.88-2.02,1.77-5.18-.25-7.06h0c-2.02-1.89-5.19-1.77-7.07,.25Z"/><polyline class="cls-3" points="163.95 147.15 163.95 188.04 335.11 188.04 335.11 147.15"/></svg>