<?xml version="1.0" encoding="UTF-8"?><svg id="Layer_1" xmlns="http://www.w3.org/2000/svg" viewBox="0 0 500 500"><defs><style>.cls-1{fill:#800256;}.cls-2{fill:#b3679a;}.cls-3{fill:none;stroke:#800256;stroke-linecap:round;stroke-linejoin:round;stroke-width:10px;}.cls-4{fill:#993578;}</style></defs><path class="cls-4" d="M143.65,268.05h212.71c2.83,0,5.46,.91,7.61,2.44v-3.11c0-4.2-3.41-7.61-7.61-7.61H143.65c-4.2,0-7.61,3.41-7.61,7.61v3.11c2.15-1.53,4.77-2.44,7.61-2.44Z"/><path class="cls-2" d="M143.18,254.26h212.71c2.83,0,5.46,.91,7.61,2.44v-3.11c0-4.2-3.41-7.61-7.61-7.61H143.18c-4.2,0-7.61,3.41-7.61,7.61v3.11c2.15-1.53,4.77-2.44,7.61-2.44Z"/><path class="cls-2" d="M401.89,452.62l-.17,2.75-45.93,20.19-32.77-25.79c-2.84-2.4-4.48-5.05-4.6-7.47-.08-1.57,.46-3.03,1.6-4.35,.08-.07,.16-.14,.24-.21,2.93-3.02,10.24-3.23,14.06-.43l8.43,8.1c.47,.46,1.09,.68,1.7,.68,.64,0,1.29-.25,1.77-.75,.94-.98,.91-2.53-.07-3.46l-8.21-7.88-18.77-42.95c-1.64-3.74-.15-7.06,1.79-8.91,1.46-1.39,3.69-1.99,5.82-1.56,2.42,.48,4.38,2.18,5.52,4.77l14.21,32.33c.4,.92,1.3,1.46,2.24,1.46,.33,0,.66-.07,.98-.21,1.24-.54,1.8-1.99,1.26-3.23l-7.88-17.93,3.37-1.48c2.11-.93,3.79-1.09,4.99-.47,.85,.44,1.56,1.31,2.12,2.58l8.38,19.07c.4,.92,1.3,1.46,2.24,1.46,.33,0,.66-.07,.98-.21,1.24-.54,1.8-1.99,1.26-3.23l-7.39-16.82,4.49-1.94h.03c1.38-.63,2.91-.67,4.33-.13,1.42,.55,2.54,1.62,3.15,3.01l9.96,22.66c.4,.92,1.3,1.46,2.24,1.46,.33,0,.66-.07,.98-.21,1.24-.54,1.8-1.99,1.26-3.23l-4.84-11.02,1.4-.61c3.79-1.65,8.13-.17,10.1,3.43,.19,.35,.37,.71,.53,1.08l3.68,8.37c4.27,9.71,6.18,20.45,5.52,31.04Z"/><path class="cls-1" d="M314.69,393.02c-2.19-4.99-1.06-10.65,2.89-14.42,2.63-2.51,6.43-3.57,10.16-2.82,3.97,.79,7.26,3.56,9.04,7.6l4.36,9.92,3.37-1.48c3.54-1.55,6.63-1.67,9.21-.33,1.23,.64,2.29,1.58,3.16,2.82l4.71-2.04c.63-.28,1.28-.5,1.94-.65v-110.44c0-4.2-3.41-7.61-7.61-7.61H143.21c-4.2,0-7.61,3.41-7.61,7.61v129.21c0,4.2,3.41,7.61,7.61,7.61h182.39l-10.91-24.98Zm34.66-13.34c1.32-.27,2.62,.58,2.89,1.9,.27,1.32-.58,2.62-1.9,2.89l-5.41,1.12c-.17,.03-.33,.05-.5,.05-1.14,0-2.16-.8-2.4-1.95-.27-1.32,.58-2.62,1.9-2.89l5.41-1.12Zm-15.47-9.96l4.56-6.93c.74-1.13,2.26-1.44,3.39-.7,1.13,.74,1.44,2.26,.7,3.39l-4.56,6.93c-.47,.72-1.25,1.1-2.05,1.1-.46,0-.93-.13-1.34-.4-1.13-.74-1.44-2.26-.7-3.39Zm-14.72-11.73c1.32-.27,2.62,.58,2.89,1.9l1.68,8.12c.27,1.32-.58,2.62-1.9,2.89-.17,.03-.33,.05-.5,.05-1.14,0-2.16-.8-2.4-1.95l-1.68-8.12c-.27-1.32,.58-2.62,1.9-2.89Zm-17.22,14.25c.74-1.13,2.26-1.44,3.39-.7l5.22,3.44c1.13,.74,1.44,2.26,.7,3.39-.47,.72-1.25,1.1-2.05,1.1-.46,0-.93-.13-1.34-.4l-5.22-3.44c-1.13-.74-1.44-2.26-.7-3.39Zm-27.4-22.04l-43.98,25.39c-3.4,1.96-7.64-.49-7.64-4.41v-50.79c0-3.92,4.25-6.37,7.64-4.41l43.98,25.39c3.4,1.96,3.4,6.86,0,8.83Zm24.48,45.49c-.17,.03-.33,.05-.5,.05-1.14,0-2.16-.8-2.4-1.95-.27-1.32,.58-2.62,1.9-2.89l8.12-1.68c1.32-.27,2.62,.58,2.89,1.9,.27,1.32-.58,2.62-1.9,2.89l-8.12,1.68Zm13.76,16.03c-.1,.14-.2,.27-.32,.38-.82,.79-2.1,.93-3.08,.27-1.12-.76-1.41-2.28-.65-3.4l3.1-4.57c.76-1.12,2.28-1.41,3.4-.65,1.12,.76,1.41,2.28,.65,3.4l-3.1,4.57Z"/><path class="cls-4" d="M304.66,368.66c-28.52,28.52-28.52,74.93,0,103.45,28.52,28.52,74.93,28.52,103.45,0,28.52-28.52,28.52-74.93,0-103.45-28.52-28.52-74.93-28.52-103.45,0Zm93.01,3.58l-40.9,40.9-41.26-41.26c23.67-19.97,58.62-19.85,82.16,.36Zm-89.08,6.44l41.32,41.32-41.68,41.68c-20.45-23.82-20.33-59.31,.36-82.99Zm6.5,89.86l41.68-41.68,41.32,41.32c-23.68,20.69-59.17,20.81-82.99,.36Zm89.8-7.28l-41.26-41.26,40.9-40.9c20.21,23.54,20.33,58.48,.36,82.16Z"/><path class="cls-1" d="M279.69,127.57l-25.16,27.06V40.78c0-2.76-2.24-5-5-5h0c-2.76,0-5,2.24-5,5v113.87l-25.17-27.08c-1.88-2.02-5.05-2.14-7.07-.26h0c-2.02,1.89-2.13,5.05-.25,7.07l33.83,36.38c1.98,2.13,5.35,2.13,7.32,0l33.83-36.38c1.88-2.02,1.77-5.18-.25-7.06h0c-2.02-1.89-5.19-1.77-7.07,.25Z"/><polyline class="cls-3" points="163.95 147.15 163.95 188.04 335.11 188.04 335.11 147.15"/></svg>