<?xml version="1.0" encoding="UTF-8"?><svg id="Layer_1" xmlns="http://www.w3.org/2000/svg" viewBox="0 0 500 500"><defs><style>.cls-1{fill:#800256;}.cls-2{fill:#9b2b6f;}.cls-3{fill:#b64889;}</style></defs><path class="cls-2" d="M74.01,140.77H419.73c4.61,0,8.87,1.47,12.36,3.96v-5.05c0-6.83-5.53-12.36-12.36-12.36H74.01c-6.83,0-12.36,5.53-12.36,12.36v5.05c3.49-2.49,7.76-3.96,12.36-3.96Z"/><path class="cls-3" d="M73.25,118.35H418.97c4.61,0,8.87,1.47,12.36,3.96v-5.05c0-6.83-5.53-12.36-12.36-12.36H73.25c-6.83,0-12.36,5.53-12.36,12.36v5.05c3.49-2.49,7.76-3.96,12.36-3.96Z"/><path class="cls-3" d="M493.74,440.76l-.28,4.47-74.65,32.82-53.26-41.91c-4.62-3.9-7.27-8.21-7.47-12.14-.13-2.55,.74-4.92,2.6-7.06,.13-.11,.26-.22,.38-.35,4.76-4.91,16.64-5.25,22.85-.7l13.71,13.16c.77,.74,1.76,1.11,2.76,1.11,1.05,0,2.09-.41,2.87-1.22,1.52-1.58,1.47-4.1-.11-5.63l-13.34-12.81-30.5-69.82c-2.67-6.08-.25-11.47,2.91-14.48,2.37-2.26,6-3.23,9.46-2.54,3.93,.79,7.11,3.54,8.96,7.75l23.1,52.55c.66,1.49,2.11,2.38,3.64,2.38,.53,0,1.08-.11,1.6-.34,2.01-.88,2.93-3.23,2.04-5.24l-12.81-29.15,5.48-2.41c3.44-1.51,6.17-1.77,8.11-.76,1.38,.71,2.54,2.12,3.45,4.2l13.62,30.99c.66,1.49,2.11,2.38,3.64,2.38,.53,0,1.08-.11,1.6-.34,2.01-.88,2.93-3.23,2.04-5.24l-12.01-27.33,7.29-3.16s.03-.01,.05-.02c2.24-1,4.74-1.07,7.04-.18,2.31,.89,4.13,2.63,5.13,4.89l16.19,36.83c.66,1.49,2.11,2.38,3.64,2.38,.53,0,1.08-.11,1.6-.34,2.01-.88,2.93-3.23,2.04-5.24l-7.87-17.9,2.28-.99c6.15-2.68,13.21-.28,16.41,5.57,.31,.57,.6,1.16,.86,1.76l5.98,13.61c6.94,15.79,10.04,33.23,8.97,50.44Z"/><path class="cls-1" d="M352,343.88c-3.56-8.1-1.72-17.31,4.7-23.44,4.28-4.08,10.45-5.8,16.52-4.59,6.45,1.29,11.8,5.79,14.69,12.36l7.09,16.12,5.48-2.41c5.75-2.53,10.78-2.71,14.97-.54,2,1.04,3.72,2.57,5.14,4.59l7.65-3.31c1.03-.46,2.08-.81,3.15-1.06V162.1c0-6.83-5.53-12.36-12.36-12.36H73.3c-6.83,0-12.36,5.53-12.36,12.36v210.02c0,6.83,5.53,12.36,12.36,12.36H369.74l-17.74-40.6Zm56.34-21.68c2.15-.44,4.26,.94,4.7,3.09,.44,2.15-.94,4.26-3.09,4.7l-8.8,1.82c-.27,.06-.54,.08-.81,.08-1.85,0-3.5-1.29-3.89-3.18-.44-2.15,.94-4.26,3.09-4.7l8.8-1.82Zm-25.15-16.18l7.41-11.26c1.21-1.84,3.67-2.35,5.51-1.14,1.84,1.21,2.35,3.68,1.14,5.51l-7.41,11.26c-.76,1.16-2.03,1.79-3.33,1.79-.75,0-1.51-.21-2.18-.65-1.84-1.21-2.35-3.68-1.14-5.51Zm-23.92-19.07c2.15-.44,4.26,.94,4.7,3.09l2.73,13.2c.44,2.15-.94,4.26-3.09,4.7-.27,.06-.54,.08-.81,.08-1.85,0-3.5-1.29-3.89-3.18l-2.73-13.2c-.44-2.15,.94-4.26,3.09-4.7Zm-27.99,23.15c1.21-1.84,3.67-2.35,5.51-1.14l8.49,5.58c1.84,1.21,2.35,3.68,1.14,5.51-.76,1.16-2.03,1.79-3.33,1.79-.75,0-1.51-.21-2.18-.65l-8.49-5.58c-1.84-1.21-2.35-3.68-1.14-5.51Zm-44.53-35.82l-71.49,41.27c-5.52,3.19-12.42-.8-12.42-7.17v-82.55c0-6.37,6.9-10.36,12.42-7.17l71.49,41.27c5.52,3.19,5.52,11.16,0,14.34Zm39.79,73.93c-.27,.06-.54,.08-.81,.08-1.85,0-3.5-1.29-3.89-3.18-.44-2.15,.94-4.26,3.09-4.7l13.2-2.73c2.15-.44,4.26,.94,4.7,3.09,.44,2.15-.94,4.26-3.09,4.7l-13.2,2.73Zm22.36,26.06c-.16,.23-.33,.44-.52,.62-1.33,1.29-3.42,1.51-5,.44-1.82-1.23-2.29-3.71-1.06-5.53l5.05-7.44c1.23-1.82,3.71-2.29,5.53-1.06,1.82,1.23,2.29,3.71,1.06,5.53l-5.05,7.44Z"/></svg>