<svg id="barcode" width="234px" height="140px" x="0px" y="0px" viewBox="0 0 234 140" xmlns="http://www.w3.org/2000/svg" version="1.1" style="transform: translate(0px, 0px); display: inline;"><g transform="translate(10, 10)" style="fill:#000000;"><text style="font: 20px monospace" text-anchor="start" x="0" y="120">9</text></g><g transform="translate(34, 10)" style="fill:#000000;"><rect x="0" y="0" width="2" height="110"></rect><rect x="4" y="0" width="2" height="110"></rect><text style="font: 20px monospace" text-anchor="middle" x="3" y="130"></text></g><g transform="translate(40, 10)" style="fill:#000000;"><rect x="2" y="0" width="2" height="100"></rect><rect x="10" y="0" width="4" height="100"></rect><rect x="16" y="0" width="2" height="100"></rect><rect x="22" y="0" width="6" height="100"></rect><rect x="30" y="0" width="2" height="100"></rect><rect x="36" y="0" width="6" height="100"></rect><rect x="44" y="0" width="4" height="100"></rect><rect x="54" y="0" width="2" height="100"></rect><rect x="60" y="0" width="6" height="100"></rect><rect x="68" y="0" width="2" height="100"></rect><rect x="72" y="0" width="6" height="100"></rect><rect x="80" y="0" width="4" height="100"></rect><text style="font: 20px monospace" text-anchor="middle" x="42" y="120">400547</text></g><g transform="translate(124, 10)" style="fill:#000000;"><rect x="2" y="0" width="2" height="110"></rect><rect x="6" y="0" width="2" height="110"></rect><text style="font: 20px monospace" text-anchor="middle" x="5" y="130"></text></g><g transform="translate(134, 10)" style="fill:#000000;"><rect x="0" y="0" width="6" height="100"></rect><rect x="10" y="0" width="2" height="100"></rect><rect x="14" y="0" width="6" height="100"></rect><rect x="24" y="0" width="2" height="100"></rect><rect x="28" y="0" width="6" height="100"></rect><rect x="36" y="0" width="2" height="100"></rect><rect x="42" y="0" width="2" height="100"></rect><rect x="48" y="0" width="2" height="100"></rect><rect x="56" y="0" width="2" height="100"></rect><rect x="64" y="0" width="2" height="100"></rect><rect x="70" y="0" width="6" height="100"></rect><rect x="78" y="0" width="2" height="100"></rect><text style="font: 20px monospace" text-anchor="middle" x="42" y="120">009879</text></g><g transform="translate(218, 10)" style="fill:#000000;"><rect x="0" y="0" width="2" height="110"></rect><rect x="4" y="0" width="2" height="110"></rect><text style="font: 20px monospace" text-anchor="middle" x="3" y="130"></text></g></svg>
