<?xml version="1.0" encoding="utf-8"?>
<!-- Generator: Adobe Illustrator 19.2.1, SVG Export Plug-In . SVG Version: 6.00 Build 0)  -->
<svg version="1.1" xmlns="http://www.w3.org/2000/svg" xmlns:xlink="http://www.w3.org/1999/xlink" x="0px" y="0px"
	 viewBox="0 0 512 778.1" style="enable-background:new 0 0 512 778.1;" xml:space="preserve">
<g id="Layer_3">
	<path style="fill:#FCEEF5;" d="M505.8,258.9H6.2c-3.4,0-6.2-2.8-6.2-6.2V74.6c0-3.4,2.8-6.2,6.2-6.2h499.7c3.4,0,6.2,2.8,6.2,6.2
		v178.2C512,256.1,509.2,258.9,505.8,258.9z"/>
	<path style="fill:#FFF7EA;" d="M505.8,406.8H6.2c-3.4,0-6.2-2.8-6.2-6.2V291.3c0-3.4,2.8-6.2,6.2-6.2h499.7c3.4,0,6.2,2.8,6.2,6.2
		v109.4C512,404.1,509.2,406.8,505.8,406.8z"/>
	<path style="fill:#FCECEB;" d="M505.8,778.1H6.2c-3.4,0-6.2-2.8-6.2-6.2V438.8c0-3.4,2.8-6.2,6.2-6.2h499.7c3.4,0,6.2,2.8,6.2,6.2
		v333.1C512,775.3,509.2,778.1,505.8,778.1z"/>
</g>
<g id="Layer_2">
	<path style="opacity:0.25;fill:#EE2A7B;" d="M244.5,498.4c-0.9,0.7-1.8,1.5-2.7,2.2c-2.9,2.4,1.1,7,4.5,4.8
		c0.9-0.6,1.8-1.1,2.7-1.7c-1.4,1.3-2.8,2.5-4.2,3.7c-2.9,2.5,0.8,6.7,4.5,4.8c0.5-0.3,1.1-0.5,1.6-0.8c-0.1,0.1-0.2,0.2-0.3,0.3
		c-3.4,2.8,1.9,7.1,5.3,4.3c5.5-4.5,10.4-9.5,14.7-14.8c2.1-2.6-2-5.7-5.1-4.2c-0.1,0-0.2,0.1-0.3,0.1c1-1.1,1.9-2.1,2.9-3.2
		c1.4-1.6-0.1-4-2.2-4.5c0.2-0.1,0.3-0.3,0.5-0.4c3-2.5-0.8-6.5-4.5-4.8c0.4-0.6,0.7-1.3,0.9-2c1.2-3.8-5.9-5.4-7.2-1.6
		c-1,3.2-5.6,4.8-8.5,6.7c-3.4,2.2-5.5,4.6-6,8.1C241,497.1,242.7,498.2,244.5,498.4z"/>
	<path style="opacity:0.25;fill:#EE2A7B;" d="M160.3,588c-0.9,0.7-1.8,1.5-2.7,2.2c-2.9,2.4,1.1,7,4.5,4.8c0.9-0.6,1.8-1.1,2.7-1.7
		c-1.4,1.3-2.8,2.5-4.2,3.7c-2.9,2.5,0.8,6.7,4.5,4.8c0.5-0.3,1.1-0.5,1.6-0.8c-0.1,0.1-0.2,0.2-0.3,0.3c-3.4,2.8,1.9,7.1,5.3,4.3
		c5.5-4.5,10.4-9.5,14.7-14.8c2.1-2.6-2-5.7-5.1-4.2c-0.1,0-0.2,0.1-0.3,0.1c1-1.1,1.9-2.1,2.9-3.2c1.4-1.6-0.1-4-2.2-4.5
		c0.2-0.1,0.3-0.3,0.5-0.4c3-2.5-0.8-6.5-4.5-4.8c0.4-0.6,0.7-1.3,0.9-2c1.2-3.8-5.9-5.4-7.2-1.6c-1,3.2-5.6,4.8-8.5,6.7
		c-3.4,2.2-5.5,4.6-6,8.1C156.7,586.7,158.5,587.8,160.3,588z"/>
	<path style="opacity:0.25;fill:#009444;" d="M488.3,168c1-0.8,2-1.7,3-2.5c3.3-2.7-1.2-7.9-5.1-5.5c-1,0.6-2,1.3-3.1,1.9
		c1.6-1.4,3.2-2.8,4.8-4.2c3.3-2.8-0.9-7.5-5.1-5.5c-0.6,0.3-1.2,0.6-1.9,0.9c0.1-0.1,0.3-0.2,0.4-0.3c3.9-3.1-2.1-8.1-6-4.9
		c-6.3,5.1-11.8,10.7-16.7,16.8c-2.4,2.9,2.3,6.5,5.8,4.8c0.1-0.1,0.2-0.1,0.3-0.2c-1.1,1.2-2.2,2.4-3.2,3.6
		c-1.6,1.8,0.1,4.5,2.5,5.1c-0.2,0.1-0.4,0.3-0.5,0.4c-3.4,2.8,0.9,7.3,5,5.5c-0.4,0.7-0.8,1.4-1,2.2c-1.4,4.3,6.7,6.2,8.1,1.8
		c1.2-3.6,6.3-5.4,9.6-7.6c3.8-2.4,6.2-5.2,6.8-9.2C492.2,169.4,490.3,168.2,488.3,168z"/>
	<path style="opacity:0.25;fill:#009444;" d="M178.8,663.3c0.9-0.7,1.8-1.5,2.7-2.2c2.9-2.4-1.1-7-4.5-4.8c-0.9,0.6-1.8,1.1-2.7,1.7
		c1.4-1.3,2.8-2.5,4.2-3.7c2.9-2.5-0.8-6.7-4.5-4.8c-0.5,0.3-1.1,0.5-1.6,0.8c0.1-0.1,0.2-0.2,0.3-0.3c3.4-2.8-1.9-7.1-5.3-4.3
		c-5.5,4.5-10.4,9.5-14.7,14.8c-2.1,2.6,2,5.7,5.1,4.2c0.1,0,0.2-0.1,0.3-0.1c-1,1.1-1.9,2.1-2.9,3.2c-1.4,1.6,0.1,4,2.2,4.5
		c-0.2,0.1-0.3,0.3-0.5,0.4c-3,2.5,0.8,6.5,4.5,4.8c-0.4,0.6-0.7,1.3-0.9,2c-1.2,3.8,5.9,5.4,7.2,1.6c1-3.2,5.6-4.8,8.5-6.7
		c3.4-2.2,5.5-4.6,6-8.1C182.3,664.6,180.6,663.5,178.8,663.3z"/>
	<path style="opacity:0.25;fill:#27AAE1;" d="M197.1,586.6c-0.9-0.7-1.8-1.5-2.7-2.2c-2.9-2.4,1.1-7,4.5-4.8
		c0.9,0.6,1.8,1.1,2.7,1.7c-1.4-1.3-2.8-2.5-4.2-3.7c-2.9-2.5,0.8-6.7,4.5-4.8c0.5,0.3,1.1,0.5,1.6,0.8c-0.1-0.1-0.2-0.2-0.3-0.3
		c-3.4-2.8,1.9-7.1,5.3-4.3c5.5,4.5,10.4,9.5,14.7,14.8c2.1,2.6-2,5.7-5.1,4.2c-0.1,0-0.2-0.1-0.3-0.1c1,1.1,1.9,2.1,2.9,3.2
		c1.4,1.6-0.1,4-2.2,4.5c0.2,0.1,0.3,0.3,0.5,0.4c3,2.5-0.8,6.5-4.5,4.8c0.4,0.6,0.7,1.3,0.9,2c1.2,3.8-5.9,5.4-7.2,1.6
		c-1-3.2-5.6-4.8-8.5-6.7c-3.4-2.2-5.5-4.6-6-8.1C193.6,587.9,195.3,586.8,197.1,586.6z"/>
	<path style="opacity:0.25;fill:#27AAE1;" d="M375,326.4c-0.9-0.7-1.8-1.5-2.7-2.2c-2.9-2.4,1.1-7,4.5-4.8c0.9,0.6,1.8,1.1,2.7,1.7
		c-1.4-1.3-2.8-2.5-4.2-3.7c-2.9-2.5,0.8-6.7,4.5-4.8c0.5,0.3,1.1,0.5,1.6,0.8c-0.1-0.1-0.2-0.2-0.3-0.3c-3.4-2.8,1.9-7.1,5.3-4.3
		c5.5,4.5,10.4,9.5,14.7,14.8c2.1,2.6-2,5.7-5.1,4.2c-0.1,0-0.2-0.1-0.3-0.1c1,1.1,1.9,2.1,2.9,3.2c1.4,1.6-0.1,4-2.2,4.5
		c0.2,0.1,0.3,0.3,0.5,0.4c3,2.5-0.8,6.5-4.5,4.8c0.4,0.6,0.7,1.3,0.9,2c1.2,3.8-5.9,5.4-7.2,1.6c-1-3.2-5.6-4.8-8.5-6.7
		c-3.4-2.2-5.5-4.6-6-8.1C371.5,327.7,373.2,326.6,375,326.4z"/>
	<path style="opacity:0.25;fill:#009444;" d="M179.8,738.6c0.9-0.7,1.8-1.5,2.7-2.2c2.9-2.4-1.1-7-4.5-4.8c-0.9,0.6-1.8,1.1-2.7,1.7
		c1.4-1.3,2.8-2.5,4.2-3.7c2.9-2.5-0.8-6.7-4.5-4.8c-0.5,0.3-1.1,0.5-1.6,0.8c0.1-0.1,0.2-0.2,0.3-0.3c3.4-2.8-1.9-7.1-5.3-4.3
		c-5.5,4.5-10.4,9.5-14.7,14.8c-2.1,2.6,2,5.7,5.1,4.2c0.1,0,0.2-0.1,0.3-0.1c-1,1.1-1.9,2.1-2.9,3.2c-1.4,1.6,0.1,4,2.2,4.5
		c-0.2,0.1-0.3,0.3-0.5,0.4c-3,2.5,0.8,6.5,4.5,4.8c-0.4,0.6-0.7,1.3-0.9,2c-1.2,3.8,5.9,5.4,7.2,1.6c1-3.2,5.6-4.8,8.5-6.7
		c3.4-2.2,5.5-4.6,6-8.1C183.3,739.9,181.6,738.8,179.8,738.6z"/>
	<path style="opacity:0.25;fill:#009444;" d="M229.5,737.1c0.9-0.7,1.8-1.5,2.7-2.2c2.9-2.4-1.1-7-4.5-4.8c-0.9,0.6-1.8,1.1-2.7,1.7
		c1.4-1.3,2.8-2.5,4.2-3.7c2.9-2.5-0.8-6.7-4.5-4.8c-0.5,0.3-1.1,0.5-1.6,0.8c0.1-0.1,0.2-0.2,0.3-0.3c3.4-2.8-1.9-7.1-5.3-4.3
		c-5.5,4.5-10.4,9.5-14.7,14.8c-2.1,2.6,2,5.7,5.1,4.2c0.1,0,0.2-0.1,0.3-0.1c-1,1.1-1.9,2.1-2.9,3.2c-1.4,1.6,0.1,4,2.2,4.5
		c-0.2,0.1-0.3,0.3-0.5,0.4c-3,2.5,0.8,6.5,4.5,4.8c-0.4,0.6-0.7,1.3-0.9,2c-1.2,3.8,5.9,5.4,7.2,1.6c1-3.2,5.6-4.8,8.5-6.7
		c3.4-2.2,5.5-4.6,6-8.1C233,738.4,231.3,737.3,229.5,737.1z"/>
	<path style="opacity:0.25;fill:#8B5E3C;" d="M280.3,593.9c0.1,0,0.1,0.1,0.2,0.1c2.5,1.7,1.2,4.8-1.2,5.9c1.4,2.4-1.8,6.1-5.7,4.9
		c-8.5-2.7-15.4-8-19.6-14.8c-1.4-2.3,0-4.7,2.4-5.3c-1.8-2.1,0.3-4.4,2.8-5c-0.2-0.7-0.4-1.3-0.4-2.1c-0.1-1.8,1.4-3.3,3.3-3.7
		c-2.9-3.3,2.3-8.3,5.7-5.1c4.1,4,8.3,8.1,12.4,12.1c1.7,1.7,1.3,4.1-0.2,5.4c0.8,0.5,1.6,1,2.4,1.5
		C285.2,589.7,283.2,593.3,280.3,593.9z"/>
	<path style="opacity:0.25;fill:#8B5E3C;" d="M229.7,672.3c0.1,0,0.1,0.1,0.2,0.1c2.5,1.7,1.2,4.8-1.2,5.9c1.4,2.4-1.8,6.1-5.7,4.9
		c-8.5-2.7-15.4-8-19.6-14.8c-1.4-2.3,0-4.7,2.4-5.3c-1.8-2.1,0.3-4.4,2.8-5c-0.2-0.7-0.4-1.3-0.4-2.1c-0.1-1.8,1.4-3.3,3.3-3.7
		c-2.9-3.3,2.3-8.3,5.7-5.1c4.1,4,8.3,8.1,12.4,12.1c1.7,1.7,1.3,4.1-0.2,5.4c0.8,0.5,1.6,1,2.4,1.5
		C234.7,668.1,232.7,671.6,229.7,672.3z"/>
	<path style="opacity:0.25;fill:#FBB040;" d="M200,490.2c-0.1,0-0.1-0.1-0.2-0.1c-2.5-1.7-1.2-4.8,1.2-5.9c-1.4-2.4,1.8-6.1,5.7-4.9
		c8.5,2.7,15.4,8,19.6,14.8c1.4,2.3,0,4.7-2.4,5.3c1.8,2.1-0.3,4.4-2.8,5c0.2,0.7,0.4,1.3,0.4,2.1c0.1,1.8-1.4,3.3-3.3,3.7
		c2.9,3.3-2.3,8.3-5.7,5.1c-4.1-4-8.3-8.1-12.4-12.1c-1.7-1.7-1.3-4.1,0.2-5.4c-0.8-0.5-1.6-1-2.4-1.5
		C195,494.4,197,490.8,200,490.2z"/>
	<g style="opacity:0.4;">
		<path style="fill:#662D91;" d="M182.6,471.3c0-0.1,0-0.2,0-0.4c-0.1-0.4-0.3-0.8-0.4-1.2c-0.1-0.1-0.2-0.3-0.3-0.4
			c-0.9-1.7-2.2-3-3.9-3.9c-0.1,0-0.1-0.1-0.2-0.1c0,0-0.1-0.1-0.1-0.1c0-0.1,0-0.2,0.1-0.2c0.6-2.1,0.4-4.2-0.5-6.2
			c-0.5-1-1.1-1.9-1.9-2.6c-1.2-1.2-2.7-1.9-4.4-2.3c-1.3-0.3-2.6-0.2-3.8,0.1c-0.8,0.2-1.6,0.5-2.3,0.9c-0.9,0.5-1.7,1.2-2.4,2
			c-1,1.2-1.9,2.4-2.8,3.7c-0.1,0.1-0.1,0.2-0.2,0.2c-0.1-0.1-0.1-0.2-0.1-0.3c-0.1-1.2-0.3-2.4-0.5-3.6c-0.1-0.6-0.3-1.1-0.4-1.7
			c-0.2-0.6-0.5-1.2-0.8-1.8c-1.1-1.9-2.7-3.2-4.7-3.9c-1.5-0.6-3.1-0.7-4.7-0.4c-0.2,0-0.3,0.1-0.5,0.1l-1.5,0.5
			c-0.2,0.1-0.3,0.2-0.5,0.3c-0.8,0.4-1.6,1-2.2,1.7c-1.1,1.2-1.9,2.6-2.3,4.2c0,0.1,0,0.1,0,0.2c0,0.1-0.1,0.1-0.2,0.1
			c0,0-0.1,0-0.1,0c-1.2,0-2.3,0.2-3.4,0.6c-0.8,0.3-1.5,0.7-2.2,1.2c-1.2,0.9-2.2,2.1-2.8,3.6c-0.5,1.2-0.8,2.5-0.7,3.9
			c0,1.3,0.4,2.4,0.9,3.6c0.6,1.2,1.4,2.1,2.3,3c0.6,0.5,1.3,0.9,1.9,1.2c1.4,0.7,2.8,1.2,4.2,1.7c0.1,0,0.2,0.1,0.2,0.1
			c0,0,0,0,0,0c0,0,0,0,0,0c0,0-0.1,0-0.1,0c-0.5,0.2-1.1,0.4-1.6,0.6c-0.3,0.1-0.7,0.3-1,0.4c-0.7,0.3-1.4,0.6-2,1
			c-1.7,1-3,2.4-3.8,4.2c-0.6,1.5-0.9,3-0.7,4.6c0,0.3,0.1,0.5,0.1,0.8c0.3,0.8,0.5,1.6,0.8,2.3c0.1,0.1,0.1,0.3,0.2,0.4
			c1.2,2,2.8,3.3,5,4c1,0.3,2,0.4,3,0.4c0.1,0,0.2,0,0.2,0c0.2,0,0.2,0,0.2,0.2c0,0,0,0,0,0.1c0.1,0.4,0.2,0.9,0.4,1.3
			c0.3,0.7,0.7,1.4,1.2,2.1c1.2,1.5,2.7,2.5,4.5,3.1c1.8,0.5,3.6,0.5,5.4-0.1c0.5-0.2,1-0.4,1.4-0.7c1.6-0.9,2.7-2.1,3.6-3.7
			c0.4-0.7,0.6-1.4,0.8-2.2c0.2-1,0.4-2,0.5-3c0.2-2.4,0.3-4.9,0.1-7.3c2.2,1.7,4.1,3.8,5.9,6c0.5,0.6,1.1,0.9,1.7,0.9
			c0.8-0.5,1.7-0.9,2.7-1.1c0,0-0.1-0.1-0.1-0.1c0.5-0.7,0.5-1.7-0.2-2.6c-1.7-2-3.4-4.1-5.4-5.8c1.8,0.5,3.6,0.9,5.4,1.2
			c1.3,0.2,2.6,0.3,3.9,0.3c1.2,0,2.4-0.2,3.5-0.7c0.6-0.2,1.1-0.5,1.6-0.9c1.3-0.9,2.3-2.1,3-3.6
			C182.8,475.2,183,473.3,182.6,471.3z"/>
	</g>
	<g>
		<g>
			
				<line style="fill:none;stroke:#FBB040;stroke-width:2;stroke-linecap:round;stroke-miterlimit:10;" x1="421.6" y1="380.9" x2="421.6" y2="385.9"/>
			
				<path style="fill:none;stroke:#FBB040;stroke-width:2;stroke-linecap:round;stroke-miterlimit:10;stroke-dasharray:9.8495,7.8796;" d="
				M421.2,393.8c-2.3,14.7-15.1,26-30.4,26H242.5c-17,0-30.8,13.8-30.8,30.8v21.8"/>
			
				<line style="fill:none;stroke:#FBB040;stroke-width:2;stroke-linecap:round;stroke-miterlimit:10;" x1="211.7" y1="476.3" x2="211.7" y2="481.3"/>
		</g>
	</g>
	<g>
		<g>
			
				<line style="fill:none;stroke:#27AAE1;stroke-width:2;stroke-linecap:round;stroke-miterlimit:10;" x1="401.7" y1="327.1" x2="406.7" y2="327.1"/>
			
				<path style="fill:none;stroke:#27AAE1;stroke-width:2;stroke-linecap:round;stroke-miterlimit:10;stroke-dasharray:9.8295,7.8636;" d="
				M414.5,327.1H434c10.7,0,19.4,8.7,19.4,19.4v179.9c0,10.7-8.7,19.4-19.4,19.4H228c-8.9,0-16.5,6.1-18.7,14.3"/>
			<path style="fill:none;stroke:#27AAE1;stroke-width:2;stroke-linecap:round;stroke-miterlimit:10;" d="M208.7,563.9
				c0,0.4,0,0.8,0,1.2v3.8"/>
		</g>
	</g>
</g>
<g id="Layer_1">
	<text transform="matrix(1 0 0 1 145.9889 189.1093)"><tspan x="0" y="0" style="fill:#F15A29; font-family:'PatrickHand-Regular'; font-size:56.9468px; letter-spacing:4;">7</tspan><tspan x="32.5" y="0" style="fill:#21409A; font-family:'PatrickHand-Regular'; font-size:56.9468px; letter-spacing:4;">5</tspan><tspan x="60.8" y="0" style="fill:#F15A29; font-family:'PatrickHand-Regular'; font-size:56.9468px; letter-spacing:4;">3</tspan><tspan x="90.6" y="0" style="fill:#21409A; font-family:'PatrickHand-Regular'; font-size:56.9468px; letter-spacing:4;">1</tspan><tspan x="115.5" y="0" style="fill:#F15A29; font-family:'PatrickHand-Regular'; font-size:56.9468px; letter-spacing:4;">8</tspan><tspan x="144.5" y="0" style="fill:#21409A; font-family:'PatrickHand-Regular'; font-size:56.9468px; letter-spacing:4;">2</tspan><tspan x="175.4" y="0" style="fill:#F15A29; font-family:'PatrickHand-Regular'; font-size:56.9468px; letter-spacing:4;">9</tspan><tspan x="200.6" y="0" style="fill:#21409A; font-family:'PatrickHand-Regular'; font-size:56.9468px; letter-spacing:4;">5</tspan><tspan x="228.9" y="0" style="fill:#F15A29; font-family:'PatrickHand-Regular'; font-size:56.9468px; letter-spacing:4;">3</tspan><tspan x="258.7" y="0" style="fill:#21409A; font-family:'PatrickHand-Regular'; font-size:56.9468px; letter-spacing:4;">4</tspan><tspan x="284.3" y="0" style="fill:#F15A29; font-family:'PatrickHand-Regular'; font-size:56.9468px; letter-spacing:4;">2</tspan><tspan x="315.3" y="0" style="fill:#00A14B; font-family:'PatrickHand-Regular'; font-size:56.9468px; letter-spacing:4;">  </tspan></text>
	<text transform="matrix(1 0 0 1 165.2921 339.1495)"><tspan x="0" y="0" style="fill:#21409A; font-family:'PatrickHand-Regular'; font-size:36.0535px; letter-spacing:2;">5</tspan><tspan x="18" y="0" style="fill:#414042; font-family:'PatrickHand-Regular'; font-size:36.0535px; letter-spacing:2;">+</tspan><tspan x="38" y="0" style="fill:#21409A; font-family:'PatrickHand-Regular'; font-size:36.0535px; letter-spacing:2;">1</tspan><tspan x="53.8" y="0" style="fill:#414042; font-family:'PatrickHand-Regular'; font-size:36.0535px; letter-spacing:2;">+</tspan><tspan x="73.8" y="0" style="fill:#21409A; font-family:'PatrickHand-Regular'; font-size:36.0535px; letter-spacing:2;">2</tspan><tspan x="93.3" y="0" style="fill:#414042; font-family:'PatrickHand-Regular'; font-size:36.0535px; letter-spacing:2;">+</tspan><tspan x="113.4" y="0" style="fill:#21409A; font-family:'PatrickHand-Regular'; font-size:36.0535px; letter-spacing:2;">5</tspan><tspan x="131.3" y="0" style="fill:#414042; font-family:'PatrickHand-Regular'; font-size:36.0535px; letter-spacing:2;">+</tspan><tspan x="151.3" y="0" style="fill:#21409A; font-family:'PatrickHand-Regular'; font-size:36.0535px; letter-spacing:2;">4</tspan></text>
	<text transform="matrix(1 0 0 1 336.5958 339.1495)"><tspan x="0" y="0" style="fill:#414042; font-family:'PatrickHand-Regular'; font-size:36.0535px; letter-spacing:2;">=</tspan><tspan x="23.3" y="0" style="fill:none;stroke:#414042;stroke-width:2;stroke-linejoin:round;stroke-miterlimit:10; font-family:'PatrickHand-Regular'; font-size:36.0535px; letter-spacing:2;">1</tspan><tspan x="39.1" y="0" style="fill:#27AAE1; font-family:'PatrickHand-Regular'; font-size:36.0535px; letter-spacing:2;">7</tspan></text>
	<path style="opacity:0.25;fill:#FBB040;" d="M409.1,355.9c-0.1,0-0.1-0.1-0.2-0.1c-2.5-1.7-1.2-4.8,1.2-5.9
		c-1.4-2.4,1.8-6.1,5.7-4.9c8.5,2.7,15.4,8,19.6,14.8c1.4,2.3,0,4.7-2.4,5.3c1.8,2.1-0.3,4.4-2.8,5c0.2,0.7,0.4,1.3,0.4,2.1
		c0.1,1.8-1.4,3.3-3.3,3.7c2.9,3.3-2.3,8.3-5.7,5.1c-4.1-4-8.3-8.1-12.4-12.1c-1.7-1.7-1.3-4.1,0.2-5.4c-0.8-0.5-1.6-1-2.4-1.5
		C404.1,360.1,406.2,356.5,409.1,355.9z"/>
	<text transform="matrix(1 0 0 1 159.5841 373.8806)"><tspan x="0" y="0" style="fill:#F15A29; font-family:'PatrickHand-Regular'; font-size:36.0535px; letter-spacing:2;">7</tspan><tspan x="20.6" y="0" style="fill:#414042; font-family:'PatrickHand-Regular'; font-size:36.0535px; letter-spacing:2;">+</tspan><tspan x="40.6" y="0" style="fill:#F15A29; font-family:'PatrickHand-Regular'; font-size:36.0535px; letter-spacing:2;">3</tspan><tspan x="59.4" y="0" style="fill:#414042; font-family:'PatrickHand-Regular'; font-size:36.0535px; letter-spacing:2;">+</tspan><tspan x="79.4" y="0" style="fill:#F15A29; font-family:'PatrickHand-Regular'; font-size:36.0535px; letter-spacing:2;">8</tspan><tspan x="97.7" y="0" style="fill:#414042; font-family:'PatrickHand-Regular'; font-size:36.0535px; letter-spacing:2;">+</tspan><tspan x="117.8" y="0" style="fill:#F15A29; font-family:'PatrickHand-Regular'; font-size:36.0535px; letter-spacing:2;">9</tspan><tspan x="133.7" y="0" style="fill:#414042; font-family:'PatrickHand-Regular'; font-size:36.0535px; letter-spacing:2;">+</tspan><tspan x="153.7" y="0" style="fill:#F15A29; font-family:'PatrickHand-Regular'; font-size:36.0535px; letter-spacing:2;">3</tspan><tspan x="172.6" y="0" style="fill:#414042; font-family:'PatrickHand-Regular'; font-size:36.0535px; letter-spacing:2;">+</tspan><tspan x="192.6" y="0" style="fill:#F15A29; font-family:'PatrickHand-Regular'; font-size:36.0535px; letter-spacing:2;">2</tspan></text>
	<text transform="matrix(1 0 0 1 370.17 373.8806)"><tspan x="0" y="0" style="fill:#414042; font-family:'PatrickHand-Regular'; font-size:36.0535px; letter-spacing:2;">=</tspan><tspan x="23.3" y="0" style="fill:none;stroke:#414042;stroke-width:2;stroke-linejoin:round;stroke-miterlimit:10; font-family:'PatrickHand-Regular'; font-size:36.0535px; letter-spacing:2;">3</tspan><tspan x="42.2" y="0" style="fill:#FBB040; font-family:'PatrickHand-Regular'; font-size:36.0535px; letter-spacing:2;">2</tspan></text>
	<text transform="matrix(1 0 0 1 164.7731 510.0076)"><tspan x="0" y="0" style="fill:#662D91; font-family:'PatrickHand-Regular'; font-size:36.0535px; letter-spacing:2;">3</tspan><tspan x="18.9" y="0" style="fill:#414042; font-family:'PatrickHand-Regular'; font-size:36.0535px; letter-spacing:2;">x</tspan><tspan x="37.7" y="0" style="fill:#FBB040; font-family:'PatrickHand-Regular'; font-size:36.0535px; letter-spacing:2;">2</tspan><tspan x="57.3" y="0" style="fill:#414042; font-family:'PatrickHand-Regular'; font-size:36.0535px; letter-spacing:2;">=</tspan><tspan x="80.6" y="0" style="fill:#EE2A7B; font-family:'PatrickHand-Regular'; font-size:36.0535px; letter-spacing:2;">6</tspan></text>
	<text transform="matrix(1 0 0 1 162.2789 598.8045)"><tspan x="0" y="0" style="fill:#EE2A7B; font-family:'PatrickHand-Regular'; font-size:36.0535px; letter-spacing:2;">6</tspan><tspan x="17.1" y="0" style="fill:#414042; font-family:'PatrickHand-Regular'; font-size:36.0535px; letter-spacing:2;">+</tspan><tspan x="37.1" y="0" style="fill:#27AAE1; font-family:'PatrickHand-Regular'; font-size:36.0535px; letter-spacing:2;">7</tspan><tspan x="57.6" y="0" style="fill:#414042; font-family:'PatrickHand-Regular'; font-size:36.0535px; letter-spacing:2;">=</tspan><tspan x="81" y="0" style="fill:none;stroke:#414042;stroke-width:2;stroke-linejoin:round;stroke-miterlimit:10; font-family:'PatrickHand-Regular'; font-size:36.0535px; letter-spacing:2;">1</tspan><tspan x="96.8" y="0" style="fill:#8B5E3C; font-family:'PatrickHand-Regular'; font-size:36.0535px; letter-spacing:2;">3</tspan></text>
	<text transform="matrix(1 0 0 1 164.7731 677.0955)"><tspan x="0" y="0" style="fill:#009444; font-family:'PatrickHand-Regular'; font-size:36.0535px; letter-spacing:2;">  </tspan><tspan x="22" y="0" style="fill:#414042; font-family:'PatrickHand-Regular'; font-size:36.0535px; letter-spacing:2;">+</tspan><tspan x="42" y="0" style="fill:#8B5E3C; font-family:'PatrickHand-Regular'; font-size:36.0535px; letter-spacing:2;">3</tspan><tspan x="60.9" y="0" style="fill:#414042; font-family:'PatrickHand-Regular'; font-size:36.0535px; letter-spacing:2;">=</tspan><tspan x="84.2" y="0" style="fill:#662D91; font-family:'PatrickHand-Regular'; font-size:36.0535px; letter-spacing:2;">10</tspan></text>
	<text transform="matrix(1 0 0 1 162.2779 747.6551)"><tspan x="0" y="0" style="fill:#009444; font-family:'PatrickHand-Regular'; font-size:36.0535px; letter-spacing:2;">  </tspan><tspan x="22" y="0" style="fill:#414042; font-family:'PatrickHand-Regular'; font-size:36.0535px; letter-spacing:2;">=</tspan><tspan x="45.3" y="0" style="fill:#009444; font-family:'PatrickHand-Regular'; font-size:36.0535px; letter-spacing:2;">7</tspan></text>
	<path style="fill:none;stroke:#009444;stroke-width:3;stroke-linecap:round;stroke-linejoin:round;stroke-miterlimit:10;" d="
		M486.4,182.8h-22.3c-1.6,0-2.9-1.3-2.9-2.9v-22.3c0-1.6,1.3-2.9,2.9-2.9h22.3c1.6,0,2.9,1.3,2.9,2.9v22.3
		C489.3,181.5,488,182.8,486.4,182.8z"/>
	<path style="fill:none;stroke:#009444;stroke-width:3;stroke-linecap:round;stroke-linejoin:round;stroke-miterlimit:10;" d="
		M179,678.9h-22.3c-1.6,0-2.9-1.3-2.9-2.9v-22.3c0-1.6,1.3-2.9,2.9-2.9H179c1.6,0,2.9,1.3,2.9,2.9V676
		C181.9,677.6,180.6,678.9,179,678.9z"/>
	<path style="fill:none;stroke:#009444;stroke-width:3;stroke-linecap:round;stroke-linejoin:round;stroke-miterlimit:10;" d="
		M180,751.9h-22.3c-1.6,0-2.9-1.3-2.9-2.9v-22.3c0-1.6,1.3-2.9,2.9-2.9H180c1.6,0,2.9,1.3,2.9,2.9V749
		C182.9,750.6,181.6,751.9,180,751.9z"/>
	<g>
		<g>
			<path style="fill:none;stroke:#F15A29;stroke-width:2;stroke-linecap:round;stroke-linejoin:round;" d="M445.6,143.5
				c-0.2-0.3-0.9-1.5-2.3-3.3"/>
			
				<path style="fill:none;stroke:#F15A29;stroke-width:2;stroke-linecap:round;stroke-linejoin:round;stroke-dasharray:7.8959,5.9219;" d="
				M439.2,135.9c-4.7-4.3-12-8.9-21.8-9.1c-11.9-0.2-20.3,6.3-24.9,11.2"/>
			<path style="fill:none;stroke:#F15A29;stroke-width:2;stroke-linecap:round;stroke-linejoin:round;" d="M390.5,140.3
				c-1.4,1.8-2.2,3-2.3,3.2c-0.2-0.3-0.9-1.5-2.3-3.3"/>
			
				<path style="fill:none;stroke:#F15A29;stroke-width:2;stroke-linecap:round;stroke-linejoin:round;stroke-dasharray:7.8959,5.9219;" d="
				M381.8,135.9c-4.7-4.3-12-8.9-21.8-9.1c-11.9-0.2-20.3,6.3-24.9,11.2"/>
			<path style="fill:none;stroke:#F15A29;stroke-width:2;stroke-linecap:round;stroke-linejoin:round;" d="M333.2,140.3
				c-1.4,1.8-2.2,3-2.3,3.2c-0.2-0.3-0.9-1.5-2.3-3.3"/>
			
				<path style="fill:none;stroke:#F15A29;stroke-width:2;stroke-linecap:round;stroke-linejoin:round;stroke-dasharray:7.8959,5.9219;" d="
				M324.5,135.9c-4.7-4.3-12-8.9-21.8-9.1c-11.9-0.2-20.3,6.3-24.9,11.2"/>
			<path style="fill:none;stroke:#F15A29;stroke-width:2;stroke-linecap:round;stroke-linejoin:round;" d="M275.8,140.3
				c-1.4,1.8-2.2,3-2.3,3.2c-0.2-0.3-0.9-1.5-2.3-3.3"/>
			
				<path style="fill:none;stroke:#F15A29;stroke-width:2;stroke-linecap:round;stroke-linejoin:round;stroke-dasharray:7.8959,5.9219;" d="
				M267.1,135.9c-4.7-4.3-12-8.9-21.8-9.1c-11.9-0.2-20.3,6.3-24.9,11.2"/>
			<path style="fill:none;stroke:#F15A29;stroke-width:2;stroke-linecap:round;stroke-linejoin:round;" d="M218.4,140.3
				c-1.4,1.8-2.2,3-2.3,3.2c-0.2-0.3-0.9-1.5-2.3-3.3"/>
			
				<path style="fill:none;stroke:#F15A29;stroke-width:2;stroke-linecap:round;stroke-linejoin:round;stroke-dasharray:7.8959,5.9219;" d="
				M209.7,135.9c-4.7-4.3-12-8.9-21.8-9.1c-11.9-0.2-20.3,6.3-24.9,11.2"/>
			<path style="fill:none;stroke:#F15A29;stroke-width:2;stroke-linecap:round;stroke-linejoin:round;" d="M161.1,140.3
				c-1.4,1.8-2.2,3-2.3,3.2"/>
		</g>
	</g>
	<g>
		<g>
			<path style="fill:none;stroke:#2B3990;stroke-width:2;stroke-linecap:round;stroke-linejoin:round;" d="M413.9,194.7
				c-0.7,1.1-1.4,2.2-2.3,3.3"/>
			
				<path style="fill:none;stroke:#2B3990;stroke-width:2;stroke-linecap:round;stroke-linejoin:round;stroke-dasharray:7.7245,5.7934;" d="
				M407.7,202.2c-1.9,1.7-3.9,3.2-6.1,4.5c-13.3,7.7-29.9,4.3-39.9-6.5"/>
			<path style="fill:none;stroke:#2B3990;stroke-width:2;stroke-linecap:round;stroke-linejoin:round;" d="M359.8,198
				c-0.8-1-1.6-2.1-2.3-3.3c-0.7,1.1-1.4,2.2-2.3,3.3"/>
			
				<path style="fill:none;stroke:#2B3990;stroke-width:2;stroke-linecap:round;stroke-linejoin:round;stroke-dasharray:7.7245,5.7934;" d="
				M351.4,202.2c-1.9,1.7-3.9,3.2-6.1,4.5c-13.3,7.7-29.9,4.3-39.9-6.5"/>
			<path style="fill:none;stroke:#2B3990;stroke-width:2;stroke-linecap:round;stroke-linejoin:round;" d="M303.5,198
				c-0.8-1-1.6-2.1-2.3-3.3c-0.7,1.1-1.4,2.2-2.3,3.3"/>
			
				<path style="fill:none;stroke:#2B3990;stroke-width:2;stroke-linecap:round;stroke-linejoin:round;stroke-dasharray:7.7245,5.7934;" d="
				M295.1,202.2c-1.9,1.7-3.9,3.2-6.1,4.5c-13.3,7.7-29.9,4.3-39.9-6.5"/>
			<path style="fill:none;stroke:#2B3990;stroke-width:2;stroke-linecap:round;stroke-linejoin:round;" d="M247.2,198
				c-0.8-1-1.6-2.1-2.3-3.3c-0.7,1.1-1.4,2.2-2.3,3.3"/>
			
				<path style="fill:none;stroke:#2B3990;stroke-width:2;stroke-linecap:round;stroke-linejoin:round;stroke-dasharray:7.7245,5.7934;" d="
				M238.8,202.2c-1.9,1.7-3.9,3.2-6.1,4.5c-13.3,7.7-29.9,4.3-39.9-6.5"/>
			<path style="fill:none;stroke:#2B3990;stroke-width:2;stroke-linecap:round;stroke-linejoin:round;" d="M190.9,198
				c-0.8-1-1.6-2.1-2.3-3.3"/>
		</g>
	</g>
	<g>
		<g>
			<path style="fill:none;stroke:#EE2A7B;stroke-width:2;stroke-linecap:round;stroke-miterlimit:10;" d="M253.4,516v2.5
				c0,0.9-0.1,1.7-0.2,2.5"/>
			
				<path style="fill:none;stroke:#EE2A7B;stroke-width:2;stroke-linecap:round;stroke-miterlimit:10;stroke-dasharray:9.9541,7.9632;" d="
				M250.1,528.3c-1.9,2.3-4.5,3.8-7.4,3.8h-60.3c-5.9,0-10.7,6.1-10.7,13.5v15.6"/>
			
				<line style="fill:none;stroke:#EE2A7B;stroke-width:2;stroke-linecap:round;stroke-miterlimit:10;" x1="171.8" y1="565.2" x2="171.8" y2="570.2"/>
		</g>
	</g>
	<g>
		<g>
			<path style="fill:none;stroke:#8B5E3C;stroke-width:2;stroke-linecap:round;stroke-miterlimit:10;" d="M271.2,605.4v4.9
				c0,0,0,0,0,0.1"/>
			
				<path style="fill:none;stroke:#8B5E3C;stroke-width:2;stroke-linecap:round;stroke-miterlimit:10;stroke-dasharray:9.2956,7.4365;" d="
				M268,616.9c-3,2.7-7.7,4.5-13.1,4.5h-23.9c-9,0-16.2,5-16.2,11.1v3.6"/>
			
				<line style="fill:none;stroke:#8B5E3C;stroke-width:2;stroke-linecap:round;stroke-miterlimit:10;" x1="214.9" y1="639.8" x2="214.9" y2="644.8"/>
		</g>
	</g>
	<g>
		<g>
			
				<line style="fill:none;stroke:#009444;stroke-width:2;stroke-linecap:round;stroke-miterlimit:10;" x1="475.2" y1="182.8" x2="475.2" y2="187.8"/>
			
				<path style="fill:none;stroke:#009444;stroke-width:2;stroke-linecap:round;stroke-miterlimit:10;stroke-dasharray:10.0652,8.0522;" d="
				M475.2,195.9v497c0,25.6-20.8,46.4-46.4,46.4h-187"/>
			
				<line style="fill:none;stroke:#009444;stroke-width:2;stroke-linecap:round;stroke-miterlimit:10;" x1="237.8" y1="739.3" x2="232.8" y2="739.3"/>
		</g>
	</g>
	<g>
		<g>
			<path style="fill:none;stroke:#F15A29;stroke-width:2;stroke-linecap:round;stroke-linejoin:round;" d="M302.1,124.1L302.1,124.1
				c0-1.4-0.1-2.7-0.4-4"/>
			
				<path style="fill:none;stroke:#F15A29;stroke-width:2;stroke-linecap:round;stroke-linejoin:round;stroke-dasharray:7.9217,5.9413;" d="
				M299.8,114.5c-3.5-6.8-10.5-11.4-18.7-11.4H122.9c-11.6,0-21,9.4-21,21V344c0,11.6,9.4,21,21,21h28.9"/>
			
				<line style="fill:none;stroke:#F15A29;stroke-width:2;stroke-linecap:round;stroke-linejoin:round;" x1="154.7" y1="365" x2="158.7" y2="365"/>
		</g>
	</g>
	<g>
		<g>
			
				<line style="fill:none;stroke:#2B3990;stroke-width:2;stroke-linecap:round;stroke-miterlimit:10;" x1="301.3" y1="194.7" x2="301.3" y2="199.7"/>
			
				<path style="fill:none;stroke:#2B3990;stroke-width:2;stroke-linecap:round;stroke-miterlimit:10;stroke-dasharray:9.8071,7.8457;" d="
				M301.3,207.5v11.3c0,11.5-9.3,20.8-20.8,20.8H144.6c-11.5,0-20.8,9.3-20.8,20.8v46c0,11.5,9.3,20.8,20.8,20.8h5.2"/>
			
				<line style="fill:none;stroke:#2B3990;stroke-width:2;stroke-linecap:round;stroke-miterlimit:10;" x1="153.7" y1="327.1" x2="158.7" y2="327.1"/>
		</g>
	</g>
</g>
<g id="TEXT">
	<rect x="73.3" y="5.5" style="fill:none;" width="365.4" height="54.9"/>
	
		<text id="title" transform="matrix(1 0 0 1 115.2184 39.8638)" style="fill:#662D91; font-family:'PatrickHand-Regular'; font-size:48px;">12 Digit Barcode</text>
	<rect x="7.7" y="76.4" style="fill:none;" width="85" height="29.3"/>
	
		<text id="heading1" transform="matrix(1 0 0 1 7.6528 89.2697)" style="fill:#662D91; font-family:'PatrickHand-Regular'; font-size:18px;">Seperate!</text>
	<rect x="7.7" y="293.2" style="fill:none;" width="85" height="29.3"/>
	
		<text id="heading2" transform="matrix(1 0 0 1 7.6528 306.0338)" style="fill:#662D91; font-family:'PatrickHand-Regular'; font-size:18px;">Operate!</text>
	<rect x="7.7" y="333.1" style="fill:none;" width="85" height="67.3"/>
	<text id="paragraph" transform="matrix(1 0 0 1 7.6528 340.2165)"><tspan x="0" y="0" style="fill:#414042; font-family:'PatrickHand-Regular'; font-size:10px;">Remember that this </tspan><tspan x="0" y="12" style="fill:#414042; font-family:'PatrickHand-Regular'; font-size:10px;">algorithm uses modulo </tspan><tspan x="0" y="24" style="fill:#414042; font-family:'PatrickHand-Regular'; font-size:10px;">10, so we are only </tspan><tspan x="0" y="36" style="fill:#414042; font-family:'PatrickHand-Regular'; font-size:10px;">interested in the </tspan><tspan x="0" y="48" style="fill:#414042; font-family:'PatrickHand-Regular'; font-size:10px;">number in the one’s </tspan><tspan x="0" y="60" style="fill:#414042; font-family:'PatrickHand-Regular'; font-size:10px;">column.</tspan></text>
	<rect x="7.7" y="439.7" style="fill:none;" width="85" height="29.3"/>
	
		<text id="heading3" transform="matrix(1 0 0 1 7.6528 452.603)" style="fill:#662D91; font-family:'PatrickHand-Regular'; font-size:18px;">Calculate!</text>
</g>
</svg>
