<?xml version="1.0" encoding="utf-8"?>
<!-- Generator: Adobe Illustrator 19.2.1, SVG Export Plug-In . SVG Version: 6.00 Build 0)  -->
<svg version="1.1" xmlns="http://www.w3.org/2000/svg" xmlns:xlink="http://www.w3.org/1999/xlink" x="0px" y="0px"
	 viewBox="0 0 512 781.5" style="enable-background:new 0 0 512 781.5;" xml:space="preserve">
<g id="Layer_3">
	<path style="fill:#FCEEF5;" d="M505.8,262.4H6.2c-3.4,0-6.2-2.8-6.2-6.2V78c0-3.4,2.8-6.2,6.2-6.2h499.7c3.4,0,6.2,2.8,6.2,6.2
		v178.2C512,259.6,509.2,262.4,505.8,262.4z"/>
	<path style="fill:#FFF7EA;" d="M505.8,410.3H6.2c-3.4,0-6.2-2.8-6.2-6.2V294.7c0-3.4,2.8-6.2,6.2-6.2h499.7c3.4,0,6.2,2.8,6.2,6.2
		v109.4C512,407.5,509.2,410.3,505.8,410.3z"/>
	<path style="fill:#FCECEB;" d="M505.8,781.5H6.2c-3.4,0-6.2-2.8-6.2-6.2V442.3c0-3.4,2.8-6.2,6.2-6.2h499.7c3.4,0,6.2,2.8,6.2,6.2
		v333.1C512,778.8,509.2,781.5,505.8,781.5z"/>
</g>
<g id="Layer_2">
	<path style="opacity:0.25;fill:#EE2A7B;" d="M260.4,501.8c-0.9,0.7-1.8,1.5-2.7,2.2c-2.9,2.4,1.1,7,4.5,4.8
		c0.9-0.6,1.8-1.1,2.7-1.7c-1.4,1.3-2.8,2.5-4.2,3.7c-2.9,2.5,0.8,6.7,4.5,4.8c0.5-0.3,1.1-0.5,1.6-0.8c-0.1,0.1-0.2,0.2-0.3,0.3
		c-3.4,2.8,1.9,7.1,5.3,4.3c5.5-4.5,10.4-9.5,14.7-14.8c2.1-2.6-2-5.7-5.1-4.2c-0.1,0-0.2,0.1-0.3,0.1c1-1.1,1.9-2.1,2.9-3.2
		c1.4-1.6-0.1-4-2.2-4.5c0.2-0.1,0.3-0.3,0.5-0.4c3-2.5-0.8-6.5-4.5-4.8c0.4-0.6,0.7-1.3,0.9-2c1.2-3.8-5.9-5.4-7.2-1.6
		c-1,3.2-5.6,4.8-8.5,6.7c-3.4,2.2-5.5,4.6-6,8.1C256.9,500.5,258.6,501.7,260.4,501.8z"/>
	<path style="opacity:0.25;fill:#EE2A7B;" d="M160.3,591.5c-0.9,0.7-1.8,1.5-2.7,2.2c-2.9,2.4,1.1,7,4.5,4.8
		c0.9-0.6,1.8-1.1,2.7-1.7c-1.4,1.3-2.8,2.5-4.2,3.7c-2.9,2.5,0.8,6.7,4.5,4.8c0.5-0.3,1.1-0.5,1.6-0.8c-0.1,0.1-0.2,0.2-0.3,0.3
		c-3.4,2.8,1.9,7.1,5.3,4.3c5.5-4.5,10.4-9.5,14.7-14.8c2.1-2.6-2-5.7-5.1-4.2c-0.1,0-0.2,0.1-0.3,0.1c1-1.1,1.9-2.1,2.9-3.2
		c1.4-1.6-0.1-4-2.2-4.5c0.2-0.1,0.3-0.3,0.5-0.4c3-2.5-0.8-6.5-4.5-4.8c0.4-0.6,0.7-1.3,0.9-2c1.2-3.8-5.9-5.4-7.2-1.6
		c-1,3.2-5.6,4.8-8.5,6.7c-3.4,2.2-5.5,4.6-6,8.1C156.7,590.2,158.5,591.3,160.3,591.5z"/>
	<path style="opacity:0.25;fill:#009444;" d="M488.3,171.4c1-0.8,2-1.7,3-2.5c3.3-2.7-1.2-7.9-5.1-5.5c-1,0.6-2,1.3-3.1,1.9
		c1.6-1.4,3.2-2.8,4.8-4.2c3.3-2.8-0.9-7.5-5.1-5.5c-0.6,0.3-1.2,0.6-1.9,0.9c0.1-0.1,0.3-0.2,0.4-0.3c3.9-3.1-2.1-8.1-6-4.9
		c-6.3,5.1-11.8,10.7-16.7,16.8c-2.4,2.9,2.3,6.5,5.8,4.8c0.1-0.1,0.2-0.1,0.3-0.2c-1.1,1.2-2.2,2.4-3.2,3.6
		c-1.6,1.8,0.1,4.5,2.5,5.1c-0.2,0.1-0.4,0.3-0.5,0.4c-3.4,2.8,0.9,7.3,5,5.5c-0.4,0.7-0.8,1.4-1,2.2c-1.4,4.3,6.7,6.2,8.1,1.8
		c1.2-3.6,6.3-5.4,9.6-7.6c3.8-2.4,6.2-5.2,6.8-9.2C492.2,172.9,490.3,171.7,488.3,171.4z"/>
	<path style="opacity:0.25;fill:#009444;" d="M178.8,666.8c0.9-0.7,1.8-1.5,2.7-2.2c2.9-2.4-1.1-7-4.5-4.8c-0.9,0.6-1.8,1.1-2.7,1.7
		c1.4-1.3,2.8-2.5,4.2-3.7c2.9-2.5-0.8-6.7-4.5-4.8c-0.5,0.3-1.1,0.5-1.6,0.8c0.1-0.1,0.2-0.2,0.3-0.3c3.4-2.8-1.9-7.1-5.3-4.3
		c-5.5,4.5-10.4,9.5-14.7,14.8c-2.1,2.6,2,5.7,5.1,4.2c0.1,0,0.2-0.1,0.3-0.1c-1,1.1-1.9,2.1-2.9,3.2c-1.4,1.6,0.1,4,2.2,4.5
		c-0.2,0.1-0.3,0.3-0.5,0.4c-3,2.5,0.8,6.5,4.5,4.8c-0.4,0.6-0.7,1.3-0.9,2c-1.2,3.8,5.9,5.4,7.2,1.6c1-3.2,5.6-4.8,8.5-6.7
		c3.4-2.2,5.5-4.6,6-8.1C182.3,668.1,180.6,667,178.8,666.8z"/>
	<path style="opacity:0.25;fill:#FBB040;" d="M197.1,590.1c-0.9-0.7-1.8-1.5-2.7-2.2c-2.9-2.4,1.1-7,4.5-4.8
		c0.9,0.6,1.8,1.1,2.7,1.7c-1.4-1.3-2.8-2.5-4.2-3.7c-2.9-2.5,0.8-6.7,4.5-4.8c0.5,0.3,1.1,0.5,1.6,0.8c-0.1-0.1-0.2-0.2-0.3-0.3
		c-3.4-2.8,1.9-7.1,5.3-4.3c5.5,4.5,10.4,9.5,14.7,14.8c2.1,2.6-2,5.7-5.1,4.2c-0.1,0-0.2-0.1-0.3-0.1c1,1.1,1.9,2.1,2.9,3.2
		c1.4,1.6-0.1,4-2.2,4.5c0.2,0.1,0.3,0.3,0.5,0.4c3,2.5-0.8,6.5-4.5,4.8c0.4,0.6,0.7,1.3,0.9,2c1.2,3.8-5.9,5.4-7.2,1.6
		c-1-3.2-5.6-4.8-8.5-6.7c-3.4-2.2-5.5-4.6-6-8.1C193.6,591.4,195.3,590.2,197.1,590.1z"/>
	<path style="opacity:0.25;fill:#27AAE1;" d="M409.3,367.8c-0.9-0.7-1.8-1.5-2.7-2.2c-2.9-2.4,1.1-7,4.5-4.8
		c0.9,0.6,1.8,1.1,2.7,1.7c-1.4-1.3-2.8-2.5-4.2-3.7c-2.9-2.5,0.8-6.7,4.5-4.8c0.5,0.3,1.1,0.5,1.6,0.8c-0.1-0.1-0.2-0.2-0.3-0.3
		c-3.4-2.8,1.9-7.1,5.3-4.3c5.5,4.5,10.4,9.5,14.7,14.8c2.1,2.6-2,5.7-5.1,4.2c-0.1,0-0.2-0.1-0.3-0.1c1,1.1,1.9,2.1,2.9,3.2
		c1.4,1.6-0.1,4-2.2,4.5c0.2,0.1,0.3,0.3,0.5,0.4c3,2.5-0.8,6.5-4.5,4.8c0.4,0.6,0.7,1.3,0.9,2c1.2,3.8-5.9,5.4-7.2,1.6
		c-1-3.2-5.6-4.8-8.5-6.7c-3.4-2.2-5.5-4.6-6-8.1C405.8,369.1,407.5,368,409.3,367.8z"/>
	<path style="opacity:0.25;fill:#009444;" d="M179.8,742.1c0.9-0.7,1.8-1.5,2.7-2.2c2.9-2.4-1.1-7-4.5-4.8c-0.9,0.6-1.8,1.1-2.7,1.7
		c1.4-1.3,2.8-2.5,4.2-3.7c2.9-2.5-0.8-6.7-4.5-4.8c-0.5,0.3-1.1,0.5-1.6,0.8c0.1-0.1,0.2-0.2,0.3-0.3c3.4-2.8-1.9-7.1-5.3-4.3
		c-5.5,4.5-10.4,9.5-14.7,14.8c-2.1,2.6,2,5.7,5.1,4.2c0.1,0,0.2-0.1,0.3-0.1c-1,1.1-1.9,2.1-2.9,3.2c-1.4,1.6,0.1,4,2.2,4.5
		c-0.2,0.1-0.3,0.3-0.5,0.4c-3,2.5,0.8,6.5,4.5,4.8c-0.4,0.6-0.7,1.3-0.9,2c-1.2,3.8,5.9,5.4,7.2,1.6c1-3.2,5.6-4.8,8.5-6.7
		c3.4-2.2,5.5-4.6,6-8.1C183.3,743.4,181.6,742.3,179.8,742.1z"/>
	<path style="opacity:0.25;fill:#009444;" d="M228,740.6c0.9-0.7,1.8-1.5,2.7-2.2c2.9-2.4-1.1-7-4.5-4.8c-0.9,0.6-1.8,1.1-2.7,1.7
		c1.4-1.3,2.8-2.5,4.2-3.7c2.9-2.5-0.8-6.7-4.5-4.8c-0.5,0.3-1.1,0.5-1.6,0.8c0.1-0.1,0.2-0.2,0.3-0.3c3.4-2.8-1.9-7.1-5.3-4.3
		c-5.5,4.5-10.4,9.5-14.7,14.8c-2.1,2.6,2,5.7,5.1,4.2c0.1,0,0.2-0.1,0.3-0.1c-1,1.1-1.9,2.1-2.9,3.2c-1.4,1.6,0.1,4,2.2,4.5
		c-0.2,0.1-0.3,0.3-0.5,0.4c-3,2.5,0.8,6.5,4.5,4.8c-0.4,0.6-0.7,1.3-0.9,2c-1.2,3.8,5.9,5.4,7.2,1.6c1-3.2,5.6-4.8,8.5-6.7
		c3.4-2.2,5.5-4.6,6-8.1C231.5,741.9,229.8,740.8,228,740.6z"/>
	<path style="opacity:0.25;fill:#8B5E3C;" d="M277.7,597.4c0.1,0,0.1,0.1,0.2,0.1c2.5,1.7,1.2,4.8-1.2,5.9c1.4,2.4-1.8,6.1-5.7,4.9
		c-8.5-2.7-15.4-8-19.6-14.8c-1.4-2.3,0-4.7,2.4-5.3c-1.8-2.1,0.3-4.4,2.8-5c-0.2-0.7-0.4-1.3-0.4-2.1c-0.1-1.8,1.4-3.3,3.3-3.7
		c-2.9-3.3,2.3-8.3,5.7-5.1c4.1,4,8.3,8.1,12.4,12.1c1.7,1.7,1.3,4.1-0.2,5.4c0.8,0.5,1.6,1,2.4,1.5
		C282.7,593.2,280.7,596.8,277.7,597.4z"/>
	<path style="opacity:0.25;fill:#8B5E3C;" d="M228.2,675.7c0.1,0,0.1,0.1,0.2,0.1c2.5,1.7,1.2,4.8-1.2,5.9c1.4,2.4-1.8,6.1-5.7,4.9
		c-8.5-2.7-15.4-8-19.6-14.8c-1.4-2.3,0-4.7,2.4-5.3c-1.8-2.1,0.3-4.4,2.8-5c-0.2-0.7-0.4-1.3-0.4-2.1c-0.1-1.8,1.4-3.3,3.3-3.7
		c-2.9-3.3,2.3-8.3,5.7-5.1c4.1,4,8.3,8.1,12.4,12.1c1.7,1.7,1.3,4.1-0.2,5.4c0.8,0.5,1.6,1,2.4,1.5
		C233.2,671.6,231.2,675.1,228.2,675.7z"/>
	<path style="opacity:0.25;fill:#27AAE1;" d="M200,493.7c-0.1,0-0.1-0.1-0.2-0.1c-2.5-1.7-1.2-4.8,1.2-5.9c-1.4-2.4,1.8-6.1,5.7-4.9
		c8.5,2.7,15.4,8,19.6,14.8c1.4,2.3,0,4.7-2.4,5.3c1.8,2.1-0.3,4.4-2.8,5c0.2,0.7,0.4,1.3,0.4,2.1c0.1,1.8-1.4,3.3-3.3,3.7
		c2.9,3.3-2.3,8.3-5.7,5.1c-4.1-4-8.3-8.1-12.4-12.1c-1.7-1.7-1.3-4.1,0.2-5.4c-0.8-0.5-1.6-1-2.4-1.5
		C195,497.9,197,494.3,200,493.7z"/>
	<path style="opacity:0.25;fill:#FBB040;" d="M409.1,323.1c-0.1,0-0.1-0.1-0.2-0.1c-2.5-1.7-1.2-4.8,1.2-5.9
		c-1.4-2.4,1.8-6.1,5.7-4.9c8.5,2.7,15.4,8,19.6,14.8c1.4,2.3,0,4.7-2.4,5.3c1.8,2.1-0.3,4.4-2.8,5c0.2,0.7,0.4,1.3,0.4,2.1
		c0.1,1.8-1.4,3.3-3.3,3.7c2.9,3.3-2.3,8.3-5.7,5.1c-4.1-4-8.3-8.1-12.4-12.1c-1.7-1.7-1.3-4.1,0.2-5.4c-0.8-0.5-1.6-1-2.4-1.5
		C404.1,327.3,406.2,323.7,409.1,323.1z"/>
	<g style="opacity:0.4;">
		<path style="fill:#662D91;" d="M182.6,474.7c0-0.1,0-0.2,0-0.4c-0.1-0.4-0.3-0.8-0.4-1.2c-0.1-0.1-0.2-0.3-0.3-0.4
			c-0.9-1.7-2.2-3-3.9-3.9c-0.1,0-0.1-0.1-0.2-0.1c0,0-0.1-0.1-0.1-0.1c0-0.1,0-0.2,0.1-0.2c0.6-2.1,0.4-4.2-0.5-6.2
			c-0.5-1-1.1-1.9-1.9-2.6c-1.2-1.2-2.7-1.9-4.4-2.3c-1.3-0.3-2.6-0.2-3.8,0.1c-0.8,0.2-1.6,0.5-2.3,0.9c-0.9,0.5-1.7,1.2-2.4,2
			c-1,1.2-1.9,2.4-2.8,3.7c-0.1,0.1-0.1,0.2-0.2,0.2c-0.1-0.1-0.1-0.2-0.1-0.3c-0.1-1.2-0.3-2.4-0.5-3.6c-0.1-0.6-0.3-1.1-0.4-1.7
			c-0.2-0.6-0.5-1.2-0.8-1.8c-1.1-1.9-2.7-3.2-4.7-3.9c-1.5-0.6-3.1-0.7-4.7-0.4c-0.2,0-0.3,0.1-0.5,0.1l-1.5,0.5
			c-0.2,0.1-0.3,0.2-0.5,0.3c-0.8,0.4-1.6,1-2.2,1.7c-1.1,1.2-1.9,2.6-2.3,4.2c0,0.1,0,0.1,0,0.2c0,0.1-0.1,0.1-0.2,0.1
			c0,0-0.1,0-0.1,0c-1.2,0-2.3,0.2-3.4,0.6c-0.8,0.3-1.5,0.7-2.2,1.2c-1.2,0.9-2.2,2.1-2.8,3.6c-0.5,1.2-0.8,2.5-0.7,3.9
			c0,1.3,0.4,2.4,0.9,3.6c0.6,1.2,1.4,2.1,2.3,3c0.6,0.5,1.3,0.9,1.9,1.2c1.4,0.7,2.8,1.2,4.2,1.7c0.1,0,0.2,0.1,0.2,0.1
			c0,0,0,0,0,0c0,0,0,0,0,0c0,0-0.1,0-0.1,0c-0.5,0.2-1.1,0.4-1.6,0.6c-0.3,0.1-0.7,0.3-1,0.4c-0.7,0.3-1.4,0.6-2,1
			c-1.7,1-3,2.4-3.8,4.2c-0.6,1.5-0.9,3-0.7,4.6c0,0.3,0.1,0.5,0.1,0.8c0.3,0.8,0.5,1.6,0.8,2.3c0.1,0.1,0.1,0.3,0.2,0.4
			c1.2,2,2.8,3.3,5,4c1,0.3,2,0.4,3,0.4c0.1,0,0.2,0,0.2,0c0.2,0,0.2,0,0.2,0.2c0,0,0,0,0,0.1c0.1,0.4,0.2,0.9,0.4,1.3
			c0.3,0.7,0.7,1.4,1.2,2.1c1.2,1.5,2.7,2.5,4.5,3.1c1.8,0.5,3.6,0.5,5.4-0.1c0.5-0.2,1-0.4,1.4-0.7c1.6-0.9,2.7-2.1,3.6-3.7
			c0.4-0.7,0.6-1.4,0.8-2.2c0.2-1,0.4-2,0.5-3c0.2-2.4,0.3-4.9,0.1-7.3c2.2,1.7,4.1,3.8,5.9,6c0.5,0.6,1.1,0.9,1.7,0.9
			c0.8-0.5,1.7-0.9,2.7-1.1c0,0-0.1-0.1-0.1-0.1c0.5-0.7,0.5-1.7-0.2-2.6c-1.7-2-3.4-4.1-5.4-5.8c1.8,0.5,3.6,0.9,5.4,1.2
			c1.3,0.2,2.6,0.3,3.9,0.3c1.2,0,2.4-0.2,3.5-0.7c0.6-0.2,1.1-0.5,1.6-0.9c1.3-0.9,2.3-2.1,3-3.6
			C182.8,478.6,183,476.7,182.6,474.7z"/>
	</g>
	<g>
		<g>
			
				<line style="fill:none;stroke:#27AAE1;stroke-width:2;stroke-linecap:round;stroke-miterlimit:10;" x1="420.5" y1="390.1" x2="420.5" y2="395.1"/>
			
				<path style="fill:none;stroke:#27AAE1;stroke-width:2;stroke-linecap:round;stroke-miterlimit:10;stroke-dasharray:9.9368,7.9494;" d="
				M420.5,403.1v27.8c0,13.5-11.2,24.4-25,24.4H233.7c-12.8,0-23.4,9.4-24.8,21.5"/>
			
				<line style="fill:none;stroke:#27AAE1;stroke-width:2;stroke-linecap:round;stroke-miterlimit:10;" x1="208.6" y1="480.8" x2="208.6" y2="485.8"/>
		</g>
	</g>
	<g>
		<g>
			<path style="fill:none;stroke:#FBB040;stroke-width:2;stroke-linecap:round;stroke-miterlimit:10;" d="M436,330.6
				c1.7,0,3.4,0.2,5,0.6"/>
			
				<path style="fill:none;stroke:#FBB040;stroke-width:2;stroke-linecap:round;stroke-miterlimit:10;stroke-dasharray:9.8494,7.8795;" d="
				M448,334.6c4.9,3.6,8,9.5,8,16v170.6c0,16.9-13.7,30.7-30.7,30.7H228.6c-8.1,0-15.1,4.9-18.3,11.8"/>
			<path style="fill:none;stroke:#FBB040;stroke-width:2;stroke-linecap:round;stroke-miterlimit:10;" d="M209.1,567.4
				c-0.3,1.4-0.5,2.9-0.5,4.5v0.5"/>
		</g>
	</g>
</g>
<g id="Layer_1">
	<text transform="matrix(1 0 0 1 114.5788 192.5868)"><tspan x="0" y="0" style="fill:#F15A29; font-family:'PatrickHand-Regular'; font-size:56.9468px; letter-spacing:4;">9</tspan><tspan x="25.2" y="0" style="fill:#21409A; font-family:'PatrickHand-Regular'; font-size:56.9468px; letter-spacing:4;">4</tspan><tspan x="50.8" y="0" style="fill:#F15A29; font-family:'PatrickHand-Regular'; font-size:56.9468px; letter-spacing:4;">0</tspan><tspan x="80.6" y="0" style="fill:#21409A; font-family:'PatrickHand-Regular'; font-size:56.9468px; letter-spacing:4;">0</tspan><tspan x="110.4" y="0" style="fill:#F15A29; font-family:'PatrickHand-Regular'; font-size:56.9468px; letter-spacing:4;">5</tspan><tspan x="138.7" y="0" style="fill:#21409A; font-family:'PatrickHand-Regular'; font-size:56.9468px; letter-spacing:4;">4</tspan><tspan x="164.3" y="0" style="fill:#F15A29; font-family:'PatrickHand-Regular'; font-size:56.9468px; letter-spacing:4;">7</tspan><tspan x="196.8" y="0" style="fill:#21409A; font-family:'PatrickHand-Regular'; font-size:56.9468px; letter-spacing:4;">0</tspan><tspan x="226.6" y="0" style="fill:#F15A29; font-family:'PatrickHand-Regular'; font-size:56.9468px; letter-spacing:4;">0</tspan><tspan x="256.4" y="0" style="fill:#21409A; font-family:'PatrickHand-Regular'; font-size:56.9468px; letter-spacing:4;">9</tspan><tspan x="281.5" y="0" style="fill:#F15A29; font-family:'PatrickHand-Regular'; font-size:56.9468px; letter-spacing:4;">8</tspan><tspan x="310.5" y="0" style="fill:#2B3990; font-family:'PatrickHand-Regular'; font-size:56.9468px; letter-spacing:4;">7</tspan><tspan x="342.9" y="0" style="fill:#00A14B; font-family:'PatrickHand-Regular'; font-size:56.9468px; letter-spacing:4;">  </tspan></text>
	<text transform="matrix(1 0 0 1 160.3951 341.1082)"><tspan x="0" y="0" style="fill:#F15A29; font-family:'PatrickHand-Regular'; font-size:36.0535px; letter-spacing:2;">9</tspan><tspan x="15.9" y="0" style="fill:#414042; font-family:'PatrickHand-Regular'; font-size:36.0535px; letter-spacing:2;">+</tspan><tspan x="35.9" y="0" style="fill:#F15A29; font-family:'PatrickHand-Regular'; font-size:36.0535px; letter-spacing:2;">0</tspan><tspan x="54.8" y="0" style="fill:#414042; font-family:'PatrickHand-Regular'; font-size:36.0535px; letter-spacing:2;">+</tspan><tspan x="74.8" y="0" style="fill:#F15A29; font-family:'PatrickHand-Regular'; font-size:36.0535px; letter-spacing:2;">5</tspan><tspan x="92.8" y="0" style="fill:#414042; font-family:'PatrickHand-Regular'; font-size:36.0535px; letter-spacing:2;">+</tspan><tspan x="112.8" y="0" style="fill:#F15A29; font-family:'PatrickHand-Regular'; font-size:36.0535px; letter-spacing:2;">7</tspan><tspan x="133.3" y="0" style="fill:#414042; font-family:'PatrickHand-Regular'; font-size:36.0535px; letter-spacing:2;">+</tspan><tspan x="153.3" y="0" style="fill:#F15A29; font-family:'PatrickHand-Regular'; font-size:36.0535px; letter-spacing:2;">0</tspan><tspan x="172.2" y="0" style="fill:#414042; font-family:'PatrickHand-Regular'; font-size:36.0535px; letter-spacing:2;">+</tspan><tspan x="192.2" y="0" style="fill:#F15A29; font-family:'PatrickHand-Regular'; font-size:36.0535px; letter-spacing:2;">8</tspan></text>
	<text transform="matrix(1 0 0 1 162.3057 380.5232)"><tspan x="0" y="0" style="fill:#21409A; font-family:'PatrickHand-Regular'; font-size:36.0535px; letter-spacing:2;">4</tspan><tspan x="16.2" y="0" style="fill:#414042; font-family:'PatrickHand-Regular'; font-size:36.0535px; letter-spacing:2;">+</tspan><tspan x="36.2" y="0" style="fill:#21409A; font-family:'PatrickHand-Regular'; font-size:36.0535px; letter-spacing:2;">0</tspan><tspan x="55.1" y="0" style="fill:#414042; font-family:'PatrickHand-Regular'; font-size:36.0535px; letter-spacing:2;">+</tspan><tspan x="75.1" y="0" style="fill:#21409A; font-family:'PatrickHand-Regular'; font-size:36.0535px; letter-spacing:2;">4</tspan><tspan x="91.3" y="0" style="fill:#414042; font-family:'PatrickHand-Regular'; font-size:36.0535px; letter-spacing:2;">+</tspan><tspan x="111.3" y="0" style="fill:#21409A; font-family:'PatrickHand-Regular'; font-size:36.0535px; letter-spacing:2;">0</tspan><tspan x="130.2" y="0" style="fill:#414042; font-family:'PatrickHand-Regular'; font-size:36.0535px; letter-spacing:2;">+</tspan><tspan x="150.2" y="0" style="fill:#21409A; font-family:'PatrickHand-Regular'; font-size:36.0535px; letter-spacing:2;">9</tspan><tspan x="166.1" y="0" style="fill:#414042; font-family:'PatrickHand-Regular'; font-size:36.0535px; letter-spacing:2;">+</tspan><tspan x="186.1" y="0" style="fill:#21409A; font-family:'PatrickHand-Regular'; font-size:36.0535px; letter-spacing:2;">7</tspan></text>
	<text transform="matrix(1 0 0 1 371.63 341.1082)"><tspan x="0" y="0" style="fill:#414042; font-family:'PatrickHand-Regular'; font-size:36.0535px; letter-spacing:2;">=</tspan><tspan x="23.3" y="0" style="fill:none;stroke:#414042;stroke-width:2;stroke-linejoin:round;stroke-miterlimit:10; font-family:'PatrickHand-Regular'; font-size:36.0535px; letter-spacing:2;">2</tspan><tspan x="42.9" y="0" style="fill:#FBB040; font-family:'PatrickHand-Regular'; font-size:36.0535px; letter-spacing:2;">9</tspan></text>
	<text transform="matrix(1 0 0 1 369.6228 380.5232)"><tspan x="0" y="0" style="fill:#414042; font-family:'PatrickHand-Regular'; font-size:36.0535px; letter-spacing:2;">=</tspan><tspan x="23.3" y="0" style="fill:none;stroke:#414042;stroke-width:2;stroke-linejoin:round;stroke-miterlimit:10; font-family:'PatrickHand-Regular'; font-size:36.0535px; letter-spacing:2;">2</tspan><tspan x="42.9" y="0" style="fill:#27AAE1; font-family:'PatrickHand-Regular'; font-size:36.0535px; letter-spacing:2;">4</tspan></text>
	<text transform="matrix(1 0 0 1 164.7731 513.4852)"><tspan x="0" y="0" style="fill:#662D91; font-family:'PatrickHand-Regular'; font-size:36.0535px; letter-spacing:2;">3</tspan><tspan x="18.9" y="0" style="fill:#414042; font-family:'PatrickHand-Regular'; font-size:36.0535px; letter-spacing:2;">x</tspan><tspan x="37.7" y="0" style="fill:#27AAE1; font-family:'PatrickHand-Regular'; font-size:36.0535px; letter-spacing:2;">4</tspan><tspan x="53.9" y="0" style="fill:#414042; font-family:'PatrickHand-Regular'; font-size:36.0535px; letter-spacing:2;">=</tspan><tspan x="77.3" y="0" style="fill:none;stroke:#414042;stroke-width:2;stroke-linecap:round;stroke-linejoin:round;stroke-miterlimit:10; font-family:'PatrickHand-Regular'; font-size:36.0535px; letter-spacing:2;">1</tspan><tspan x="93.1" y="0" style="fill:#EE2A7B; font-family:'PatrickHand-Regular'; font-size:36.0535px; letter-spacing:2;">2</tspan></text>
	<text transform="matrix(1 0 0 1 162.2789 602.282)"><tspan x="0" y="0" style="fill:#EE2A7B; font-family:'PatrickHand-Regular'; font-size:36.0535px; letter-spacing:2;">2</tspan><tspan x="19.6" y="0" style="fill:#414042; font-family:'PatrickHand-Regular'; font-size:36.0535px; letter-spacing:2;">+</tspan><tspan x="39.6" y="0" style="fill:#FBB040; font-family:'PatrickHand-Regular'; font-size:36.0535px; letter-spacing:2;">9</tspan><tspan x="55.5" y="0" style="fill:#414042; font-family:'PatrickHand-Regular'; font-size:36.0535px; letter-spacing:2;">=</tspan><tspan x="78.8" y="0" style="fill:none;stroke:#414042;stroke-width:2;stroke-linecap:round;stroke-linejoin:round;stroke-miterlimit:10; font-family:'PatrickHand-Regular'; font-size:36.0535px; letter-spacing:2;">1</tspan><tspan x="94.6" y="0" style="fill:#8B5E3C; font-family:'PatrickHand-Regular'; font-size:36.0535px; letter-spacing:2;">1</tspan></text>
	<text transform="matrix(1 0 0 1 164.7731 680.5731)"><tspan x="0" y="0" style="fill:#009444; font-family:'PatrickHand-Regular'; font-size:36.0535px; letter-spacing:2;">  </tspan><tspan x="22" y="0" style="fill:#414042; font-family:'PatrickHand-Regular'; font-size:36.0535px; letter-spacing:2;">+</tspan><tspan x="42" y="0" style="fill:#8B5E3C; font-family:'PatrickHand-Regular'; font-size:36.0535px; letter-spacing:2;">1</tspan><tspan x="57.8" y="0" style="fill:#414042; font-family:'PatrickHand-Regular'; font-size:36.0535px; letter-spacing:2;">=</tspan><tspan x="81.1" y="0" style="fill:#662D91; font-family:'PatrickHand-Regular'; font-size:36.0535px; letter-spacing:2;">10</tspan></text>
	<text transform="matrix(1 0 0 1 162.2779 751.1326)"><tspan x="0" y="0" style="fill:#009444; font-family:'PatrickHand-Regular'; font-size:36.0535px; letter-spacing:2;">  </tspan><tspan x="22" y="0" style="fill:#414042; font-family:'PatrickHand-Regular'; font-size:36.0535px; letter-spacing:2;">=</tspan><tspan x="45.3" y="0" style="fill:#009444; font-family:'PatrickHand-Regular'; font-size:36.0535px; letter-spacing:2;">9</tspan></text>
	<path style="fill:none;stroke:#009444;stroke-width:3;stroke-linecap:round;stroke-linejoin:round;stroke-miterlimit:10;" d="
		M486.4,186.3h-22.3c-1.6,0-2.9-1.3-2.9-2.9v-22.3c0-1.6,1.3-2.9,2.9-2.9h22.3c1.6,0,2.9,1.3,2.9,2.9v22.3
		C489.3,185,488,186.3,486.4,186.3z"/>
	<path style="fill:none;stroke:#009444;stroke-width:3;stroke-linecap:round;stroke-linejoin:round;stroke-miterlimit:10;" d="
		M179,682.3h-22.3c-1.6,0-2.9-1.3-2.9-2.9v-22.3c0-1.6,1.3-2.9,2.9-2.9H179c1.6,0,2.9,1.3,2.9,2.9v22.3
		C181.9,681,180.6,682.3,179,682.3z"/>
	<path style="fill:none;stroke:#009444;stroke-width:3;stroke-linecap:round;stroke-linejoin:round;stroke-miterlimit:10;" d="
		M180,755.3h-22.3c-1.6,0-2.9-1.3-2.9-2.9v-22.3c0-1.6,1.3-2.9,2.9-2.9H180c1.6,0,2.9,1.3,2.9,2.9v22.3
		C182.9,754,181.6,755.3,180,755.3z"/>
	<g>
		<g>
			<path style="fill:none;stroke:#F15A29;stroke-width:2;stroke-linecap:round;stroke-linejoin:round;" d="M410.3,199.7
				c-0.2,0.3-0.9,1.5-2.3,3.3"/>
			
				<path style="fill:none;stroke:#F15A29;stroke-width:2;stroke-linecap:round;stroke-linejoin:round;stroke-dasharray:7.8762,5.9071;" d="
				M404,207.2c-4.7,4.3-11.9,8.9-21.7,9.1c-11.9,0.2-20.2-6.3-24.9-11.2"/>
			<path style="fill:none;stroke:#F15A29;stroke-width:2;stroke-linecap:round;stroke-linejoin:round;" d="M355.4,202.9
				c-1.4-1.8-2.2-3-2.3-3.2c-0.2,0.3-0.9,1.5-2.3,3.3"/>
			
				<path style="fill:none;stroke:#F15A29;stroke-width:2;stroke-linecap:round;stroke-linejoin:round;stroke-dasharray:7.8762,5.9071;" d="
				M346.8,207.2c-4.7,4.3-11.9,8.9-21.7,9.1c-11.9,0.2-20.2-6.3-24.9-11.2"/>
			<path style="fill:none;stroke:#F15A29;stroke-width:2;stroke-linecap:round;stroke-linejoin:round;" d="M298.3,202.9
				c-1.4-1.8-2.2-3-2.3-3.2c-0.2,0.3-0.9,1.5-2.3,3.3"/>
			
				<path style="fill:none;stroke:#F15A29;stroke-width:2;stroke-linecap:round;stroke-linejoin:round;stroke-dasharray:7.8762,5.9071;" d="
				M289.6,207.2c-4.7,4.3-11.9,8.9-21.7,9.1c-11.9,0.2-20.2-6.3-24.9-11.2"/>
			<path style="fill:none;stroke:#F15A29;stroke-width:2;stroke-linecap:round;stroke-linejoin:round;" d="M241.1,202.9
				c-1.4-1.8-2.2-3-2.3-3.2c-0.2,0.3-0.9,1.5-2.3,3.3"/>
			
				<path style="fill:none;stroke:#F15A29;stroke-width:2;stroke-linecap:round;stroke-linejoin:round;stroke-dasharray:7.8762,5.9071;" d="
				M232.4,207.2c-4.7,4.3-11.9,8.9-21.7,9.1c-11.9,0.2-20.2-6.3-24.9-11.2"/>
			<path style="fill:none;stroke:#F15A29;stroke-width:2;stroke-linecap:round;stroke-linejoin:round;" d="M183.9,202.9
				c-1.4-1.8-2.2-3-2.3-3.2c-0.2,0.3-0.9,1.5-2.3,3.3"/>
			
				<path style="fill:none;stroke:#F15A29;stroke-width:2;stroke-linecap:round;stroke-linejoin:round;stroke-dasharray:7.8762,5.9071;" d="
				M175.2,207.2c-4.7,4.3-11.9,8.9-21.7,9.1c-11.9,0.2-20.2-6.3-24.9-11.2"/>
			<path style="fill:none;stroke:#F15A29;stroke-width:2;stroke-linecap:round;stroke-linejoin:round;" d="M126.7,202.9
				c-1.4-1.8-2.2-3-2.3-3.2"/>
		</g>
	</g>
	<g>
		<g>
			<path style="fill:none;stroke:#2B3990;stroke-width:2;stroke-linecap:round;stroke-linejoin:round;" d="M151.9,150.4
				c0.2-0.3,1.2-1.9,2.9-4"/>
			
				<path style="fill:none;stroke:#2B3990;stroke-width:2;stroke-linecap:round;stroke-linejoin:round;stroke-dasharray:9.5227,7.6181;" d="
				M160.3,141.1c4.6-3.7,11.2-7.2,19.7-7.3c10.8-0.2,18.7,5.2,23.6,9.9"/>
			<path style="fill:none;stroke:#2B3990;stroke-width:2;stroke-linecap:round;stroke-linejoin:round;" d="M206.1,146.4
				c1.8,2.2,2.8,3.8,3,4c0.2-0.3,1.2-1.9,2.9-4"/>
			
				<path style="fill:none;stroke:#2B3990;stroke-width:2;stroke-linecap:round;stroke-linejoin:round;stroke-dasharray:9.5227,7.6181;" d="
				M217.5,141.1c4.6-3.7,11.2-7.2,19.7-7.3c10.8-0.2,18.7,5.2,23.6,9.9"/>
			<path style="fill:none;stroke:#2B3990;stroke-width:2;stroke-linecap:round;stroke-linejoin:round;" d="M263.3,146.4
				c1.8,2.2,2.8,3.8,3,4c0.2-0.3,1.2-1.9,2.9-4"/>
			
				<path style="fill:none;stroke:#2B3990;stroke-width:2;stroke-linecap:round;stroke-linejoin:round;stroke-dasharray:9.5227,7.6181;" d="
				M274.6,141.1c4.6-3.7,11.2-7.2,19.7-7.3c10.8-0.2,18.7,5.2,23.6,9.9"/>
			<path style="fill:none;stroke:#2B3990;stroke-width:2;stroke-linecap:round;stroke-linejoin:round;" d="M320.5,146.4
				c1.8,2.2,2.8,3.8,3,4c0.2-0.3,1.2-1.9,2.9-4"/>
			
				<path style="fill:none;stroke:#2B3990;stroke-width:2;stroke-linecap:round;stroke-linejoin:round;stroke-dasharray:9.5227,7.6181;" d="
				M331.8,141.1c4.6-3.7,11.2-7.2,19.7-7.3c10.8-0.2,18.7,5.2,23.6,9.9"/>
			<path style="fill:none;stroke:#2B3990;stroke-width:2;stroke-linecap:round;stroke-linejoin:round;" d="M377.7,146.4
				c1.8,2.2,2.8,3.8,3,4c0.2-0.3,1.2-1.9,2.9-4"/>
			
				<path style="fill:none;stroke:#2B3990;stroke-width:2;stroke-linecap:round;stroke-linejoin:round;stroke-dasharray:9.5227,7.6181;" d="
				M389,141.1c4.6-3.7,11.2-7.2,19.7-7.3c10.8-0.2,18.7,5.2,23.6,9.9"/>
			<path style="fill:none;stroke:#2B3990;stroke-width:2;stroke-linecap:round;stroke-linejoin:round;" d="M434.9,146.4
				c1.8,2.2,2.8,3.8,3,4"/>
		</g>
	</g>
	<path style="fill:none;stroke:#8B5E3C;stroke-width:2;stroke-linecap:round;stroke-miterlimit:10;stroke-dasharray:10,8;" d="
		M267.1,606.3L267.1,606.3c0,8.2-9.7,14.9-21.7,14.9h-9.1c-12,0-21.7,6.7-21.7,14.9v13.5"/>
	<g>
		<g>
			<path style="fill:none;stroke:#2B3990;stroke-width:2;stroke-linecap:round;stroke-miterlimit:10;" d="M297.4,128.7L297.4,128.7
				c0-1.7-0.1-3.4-0.4-5"/>
			
				<path style="fill:none;stroke:#2B3990;stroke-width:2;stroke-linecap:round;stroke-miterlimit:10;stroke-dasharray:10.0141,8.0113;" d="
				M294.7,116.1c-4.8-10.6-15.5-18-27.9-18H126.9c-16.9,0-30.6,13.7-30.6,30.7v209.1c0,16.9,13.7,30.7,30.6,30.7h20.5"/>
			
				<line style="fill:none;stroke:#2B3990;stroke-width:2;stroke-linecap:round;stroke-miterlimit:10;" x1="151.5" y1="368.5" x2="156.5" y2="368.5"/>
		</g>
	</g>
	<g>
		<g>
			
				<line style="fill:none;stroke:#F15A29;stroke-width:2;stroke-linecap:round;stroke-miterlimit:10;" x1="294.9" y1="208" x2="294.9" y2="213"/>
			
				<path style="fill:none;stroke:#F15A29;stroke-width:2;stroke-linecap:round;stroke-miterlimit:10;stroke-dasharray:10.069,8.0552;" d="
				M294.9,221.1c-0.3,13.3-11.1,24-24.5,24h-99.7c-20.8,0-37.8,16.9-37.8,37.8v23.3c0,10.4,6.5,19.3,15.7,22.9"/>
			<path style="fill:none;stroke:#F15A29;stroke-width:2;stroke-linecap:round;stroke-miterlimit:10;" d="M152.4,330.1
				c1.6,0.3,3.3,0.5,5,0.5h0"/>
		</g>
	</g>
	<g>
		<g>
			<path style="fill:none;stroke:#EE2A7B;stroke-width:2;stroke-linecap:round;stroke-miterlimit:10;" d="M271.9,519.5
				c0,1.7-0.3,3.4-0.9,4.9"/>
			
				<path style="fill:none;stroke:#EE2A7B;stroke-width:2;stroke-linecap:round;stroke-miterlimit:10;stroke-dasharray:10.1757,8.1405;" d="
				M265.9,530.6c-1.9,1.2-4.2,1.9-6.6,1.9h-67.5c-13,0-23.5,10.9-23.5,24.3V569"/>
			
				<line style="fill:none;stroke:#EE2A7B;stroke-width:2;stroke-linecap:round;stroke-miterlimit:10;" x1="168.3" y1="573" x2="168.3" y2="578"/>
		</g>
	</g>
	<g>
		<g>
			
				<line style="fill:none;stroke:#009444;stroke-width:2;stroke-linecap:round;stroke-miterlimit:10;" x1="475.7" y1="191.6" x2="475.7" y2="196.6"/>
			
				<path style="fill:none;stroke:#009444;stroke-width:2;stroke-linecap:round;stroke-miterlimit:10;stroke-dasharray:10.1167,8.0934;" d="
				M475.7,204.7v471.8c0,35.8-29,64.8-64.8,64.8h-169"/>
			
				<line style="fill:none;stroke:#009444;stroke-width:2;stroke-linecap:round;stroke-miterlimit:10;" x1="237.8" y1="741.3" x2="232.8" y2="741.3"/>
		</g>
	</g>
</g>
<g id="TEXT">
	<rect id="title" x="46.1" y="5.5" style="fill:none;" width="414.3" height="55"/>
	
		<text id="title_1_" transform="matrix(1 0 0 1 112.9186 39.8638)" style="fill:#006838; font-family:'PatrickHand-Regular'; font-size:48px;">13 Digit Barcode</text>
	<rect id="heading1" x="6.7" y="78.7" style="fill:none;" width="82.6" height="27.5"/>
	
		<text id="heading1_1_" transform="matrix(1 0 0 1 6.7101 91.6138)" style="fill:#006838; font-family:'PatrickHand-Regular'; font-size:18px;">Separate!</text>
	<rect id="heading2" x="6.7" y="298.2" style="fill:none;" width="82.6" height="27.5"/>
	
		<text id="heading2_1_" transform="matrix(1 0 0 1 6.7101 311.0728)" style="fill:#006838; font-family:'PatrickHand-Regular'; font-size:18px;">Operate!</text>
	<rect id="paragraph" x="6.7" y="332" style="fill:none;" width="86.1" height="72.5"/>
	<text id="paragraph_1_" transform="matrix(1 0 0 1 6.7101 339.1938)"><tspan x="0" y="0" style="fill:#414042; font-family:'PatrickHand-Regular'; font-size:10px;">Remember that this </tspan><tspan x="0" y="12" style="fill:#414042; font-family:'PatrickHand-Regular'; font-size:10px;">algorithm uses modulo </tspan><tspan x="0" y="24" style="fill:#414042; font-family:'PatrickHand-Regular'; font-size:10px;">10, so we are only </tspan><tspan x="0" y="36" style="fill:#414042; font-family:'PatrickHand-Regular'; font-size:10px;">interested in the </tspan><tspan x="0" y="48" style="fill:#414042; font-family:'PatrickHand-Regular'; font-size:10px;">number in the one’s </tspan><tspan x="0" y="60" style="fill:#414042; font-family:'PatrickHand-Regular'; font-size:10px;">column.</tspan></text>
	<rect id="heading3" x="6.7" y="445.5" style="fill:none;" width="110.6" height="27.5"/>
	
		<text id="heading3_1_" transform="matrix(1 0 0 1 6.7101 458.4141)" style="fill:#006838; font-family:'PatrickHand-Regular'; font-size:18px;">Calculate!</text>
</g>
</svg>
