<?xml version="1.0" standalone="yes"?>

<svg version="1.1" viewBox="0.0 0.0 498.01574803149606 240.18635170603673" fill="none" stroke="none" stroke-linecap="square" stroke-miterlimit="10" xmlns="http://www.w3.org/2000/svg" xmlns:xlink="http://www.w3.org/1999/xlink"><clipPath id="p.0"><path d="m0 0l498.01575 0l0 240.18636l-498.01575 0l0 -240.18636z" clip-rule="nonzero"></path></clipPath><g clip-path="url(#p.0)"><path fill="#000000" fill-opacity="0.0" d="m0 0l498.01575 0l0 240.18636l-498.01575 0z" fill-rule="evenodd"></path><path fill="#000000" fill-opacity="0.0" d="m73.3727 146.04199l0 63.779526l108.15748 0" fill-rule="evenodd"></path><path stroke="#2980b9" stroke-width="3.0" stroke-linejoin="round" stroke-linecap="butt" d="m73.3727 146.04199l0 63.779526l90.15748 0" fill-rule="evenodd"></path><path fill="#2980b9" stroke="#2980b9" stroke-width="3.0" stroke-linecap="butt" d="m163.53018 214.77672l13.614288 -4.9552l-13.614288 -4.9552z" fill-rule="evenodd"></path><path fill="#000000" fill-opacity="0.0" d="m319.29398 32.755905l18.09845 0l0 0.062992096l18.090515 0" fill-rule="evenodd"></path><path stroke="#2980b9" stroke-width="3.0" stroke-linejoin="round" stroke-linecap="butt" d="m319.29398 32.755905l18.09845 0l0 0.062992096l0.09051514 0" fill-rule="evenodd"></path><path fill="#2980b9" stroke="#2980b9" stroke-width="3.0" stroke-linecap="butt" d="m337.48294 37.774094l13.614288 -4.9551964l-13.614288 -4.9551964z" fill-rule="evenodd"></path><path fill="#000000" fill-opacity="0.0" d="m142.2546 121.28609l19.637802 0l0 0.06299591l19.637787 0" fill-rule="evenodd"></path><path stroke="#2980b9" stroke-width="3.0" stroke-linejoin="round" stroke-linecap="butt" d="m142.2546 121.28609l19.637802 0l0 0.06299591l1.6377869 0" fill-rule="evenodd"></path><path fill="#2980b9" stroke="#2980b9" stroke-width="3.0" stroke-linecap="butt" d="m163.53018 126.304276l13.614288 -4.9551926l-13.614288 -4.9552z" fill-rule="evenodd"></path><path fill="#000000" fill-opacity="0.0" d="m73.3727 96.53018l0 -63.779526l108.15748 0" fill-rule="evenodd"></path><path stroke="#2980b9" stroke-width="3.0" stroke-linejoin="round" stroke-linecap="butt" d="m73.3727 96.53018l0 -63.779526l90.15748 0" fill-rule="evenodd"></path><path fill="#2980b9" stroke="#2980b9" stroke-width="3.0" stroke-linecap="butt" d="m163.53018 37.705853l13.614288 -4.9551964l-13.614288 -4.9551964z" fill-rule="evenodd"></path><path fill="#fcfcfc" d="m4.4908137 103.34301l0 0c0 -3.762619 3.0502057 -6.812828 6.8128247 -6.812828l124.13814 0c1.8068695 0 3.539734 0.71778107 4.817383 1.99543c1.2776642 1.2776566 1.9954376 3.010521 1.9954376 4.817398l0 35.88616c0 3.762619 -3.0502014 6.8128204 -6.8128204 6.8128204l-124.13814 0c-3.762619 0 -6.8128247 -3.0502014 -6.8128247 -6.8128204z" fill-rule="evenodd"></path><path stroke="#343131" stroke-width="2.0" stroke-linejoin="round" stroke-linecap="butt" d="m4.4908137 103.34301l0 0c0 -3.762619 3.0502057 -6.812828 6.8128247 -6.812828l124.13814 0c1.8068695 0 3.539734 0.71778107 4.817383 1.99543c1.2776642 1.2776566 1.9954376 3.010521 1.9954376 4.817398l0 35.88616c0 3.762619 -3.0502014 6.8128204 -6.8128204 6.8128204l-124.13814 0c-3.762619 0 -6.8128247 -3.0502014 -6.8128247 -6.8128204z" fill-rule="evenodd"></path><path fill="#000000" d="m61.71119 114.59671l0 1.546875l-4.390625 0l0 12.0625l-1.84375 0l0 -12.0625l-4.421875 0l0 -1.546875l10.65625 0zm5.366562 3.828125q1.0625 0 1.90625 0.359375q0.84375 0.34375 1.4375 1.0q0.59375 0.640625 0.90625 1.5625q0.328125 0.90625 0.328125 2.046875q0 1.140625 -0.328125 2.046875q-0.3125 0.90625 -0.90625 1.5625q-0.59375 0.640625 -1.4375 1.0q-0.84375 0.34375 -1.90625 0.34375q-1.046875 0 -1.90625 -0.34375q-0.84375 -0.359375 -1.453125 -1.0q-0.59375 -0.65625 -0.921875 -1.5625q-0.3125 -0.90625 -0.3125 -2.046875q0 -1.140625 0.3125 -2.046875q0.328125 -0.921875 0.921875 -1.5625q0.609375 -0.65625 1.453125 -1.0q0.859375 -0.359375 1.90625 -0.359375zm0 8.59375q1.421875 0 2.125 -0.953125q0.703125 -0.953125 0.703125 -2.671875q0 -1.71875 -0.703125 -2.671875q-0.703125 -0.96875 -2.125 -0.96875q-0.71875 0 -1.25 0.25q-0.53125 0.25 -0.890625 0.71875q-0.359375 0.46875 -0.53125 1.15625q-0.171875 0.671875 -0.171875 1.515625q0 0.859375 0.171875 1.53125q0.171875 0.671875 0.53125 1.140625q0.359375 0.453125 0.890625 0.703125q0.53125 0.25 1.25 0.25zm6.482254 4.453125l0 -12.890625l1.0 0q0.359375 0 0.453125 0.359375l0.15625 1.140625q0.609375 -0.75 1.40625 -1.203125q0.796875 -0.46875 1.828125 -0.46875q0.828125 0 1.5 0.328125q0.671875 0.3125 1.140625 0.9375q0.484375 0.625 0.734375 1.546875q0.265625 0.90625 0.265625 2.109375q0 1.0625 -0.296875 1.984375q-0.28125 0.921875 -0.8125 1.59375q-0.53125 0.65625 -1.3125 1.046875q-0.765625 0.390625 -1.734375 0.390625q-0.890625 0 -1.53125 -0.296875q-0.625 -0.296875 -1.109375 -0.84375l0 4.265625l-1.6875 0zm4.28125 -11.6875q-0.828125 0 -1.453125 0.375q-0.625 0.375 -1.140625 1.078125l0 4.65625q0.46875 0.625 1.015625 0.890625q0.5625 0.25 1.25 0.25q1.328125 0 2.046875 -0.953125q0.734375 -0.96875 0.734375 -2.75q0 -0.9375 -0.171875 -1.609375q-0.15625 -0.671875 -0.484375 -1.109375q-0.3125 -0.4375 -0.765625 -0.625q-0.453125 -0.203125 -1.03125 -0.203125zm7.8919983 -1.203125l0 9.625l-1.6875 0l0 -9.625l1.6875 0zm0.375 -3.015625q0 0.25 -0.09375 0.46875q-0.09375 0.203125 -0.265625 0.375q-0.171875 0.15625 -0.390625 0.25q-0.21875 0.09375 -0.453125 0.09375q-0.25 0 -0.46875 -0.09375q-0.21875 -0.09375 -0.390625 -0.25q-0.15625 -0.171875 -0.25 -0.375q-0.09375 -0.21875 -0.09375 -0.46875q0 -0.25 0.09375 -0.46875q0.09375 -0.234375 0.25 -0.390625q0.171875 -0.171875 0.390625 -0.265625q0.21875 -0.09375 0.46875 -0.09375q0.234375 0 0.453125 0.09375q0.21875 0.09375 0.390625 0.265625q0.171875 0.15625 0.265625 0.390625q0.09375 0.21875 0.09375 0.46875zm9.088501 4.734375q-0.078125 0.09375 -0.15625 0.15625q-0.078125 0.0625 -0.21875 0.0625q-0.140625 0 -0.3125 -0.125q-0.15625 -0.125 -0.421875 -0.265625q-0.25 -0.140625 -0.625 -0.25q-0.359375 -0.125 -0.890625 -0.125q-0.703125 0 -1.25 0.25q-0.53125 0.25 -0.90625 0.734375q-0.359375 0.46875 -0.546875 1.140625q-0.1875 0.671875 -0.1875 1.515625q0 0.875 0.203125 1.5625q0.203125 0.671875 0.5625 1.140625q0.359375 0.453125 0.875 0.703125q0.515625 0.234375 1.171875 0.234375q0.609375 0 1.0 -0.140625q0.40625 -0.15625 0.671875 -0.328125q0.265625 -0.1875 0.4375 -0.328125q0.171875 -0.15625 0.34375 -0.15625q0.21875 0 0.328125 0.15625l0.46875 0.625q-0.625 0.765625 -1.5625 1.125q-0.9375 0.359375 -1.984375 0.359375q-0.90625 0 -1.6875 -0.328125q-0.765625 -0.34375 -1.34375 -0.96875q-0.5625 -0.640625 -0.890625 -1.5625q-0.328125 -0.921875 -0.328125 -2.09375q0 -1.078125 0.296875 -1.984375q0.296875 -0.921875 0.875 -1.578125q0.578125 -0.65625 1.421875 -1.03125q0.84375 -0.375 1.9375 -0.375q1.0 0 1.78125 0.328125q0.78125 0.328125 1.375 0.9375l-0.4375 0.609375z" fill-rule="nonzero"></path><path fill="#fcfcfc" d="m181.53018 191.8732l0 0c0 -3.762619 3.0502014 -6.8128357 6.8128204 -6.8128357l124.13814 0c1.8068848 0 3.539734 0.7177887 4.817383 1.9954376c1.2776489 1.2776489 1.9954529 3.0105133 1.9954529 4.817398l0 35.886154c0 3.762619 -3.050232 6.8128204 -6.8128357 6.8128204l-124.13814 0c-3.762619 0 -6.8128204 -3.0502014 -6.8128204 -6.8128204z" fill-rule="evenodd"></path><path stroke="#343131" stroke-width="2.0" stroke-linejoin="round" stroke-linecap="butt" d="m181.53018 191.8732l0 0c0 -3.762619 3.0502014 -6.8128357 6.8128204 -6.8128357l124.13814 0c1.8068848 0 3.539734 0.7177887 4.817383 1.9954376c1.2776489 1.2776489 1.9954529 3.0105133 1.9954529 4.817398l0 35.886154c0 3.762619 -3.050232 6.8128204 -6.8128357 6.8128204l-124.13814 0c-3.762619 0 -6.8128204 -3.0502014 -6.8128204 -6.8128204z" fill-rule="evenodd"></path><path fill="#000000" d="m198.52563 200.64252l0 5.09375l-1.828125 0l0 -13.609375l4.015625 0q1.296875 0 2.25 0.296875q0.953125 0.296875 1.578125 0.859375q0.625 0.546875 0.9375 1.328125q0.3125 0.765625 0.3125 1.734375q0 0.9375 -0.34375 1.734375q-0.328125 0.78125 -0.96875 1.359375q-0.640625 0.5625 -1.59375 0.890625q-0.9375 0.3125 -2.171875 0.3125l-2.1875 0zm0 -1.46875l2.1875 0q0.796875 0 1.390625 -0.203125q0.609375 -0.203125 1.015625 -0.578125q0.40625 -0.375 0.609375 -0.890625q0.21875 -0.53125 0.21875 -1.15625q0 -1.3125 -0.8125 -2.03125q-0.796875 -0.734375 -2.421875 -0.734375l-2.1875 0l0 5.59375zm9.117722 6.5625l0 -9.625l0.96875 0q0.265625 0 0.375 0.109375q0.109375 0.09375 0.140625 0.359375l0.125 1.5q0.484375 -1.0 1.203125 -1.5625q0.734375 -0.578125 1.71875 -0.578125q0.390625 0 0.71875 0.09375q0.328125 0.09375 0.59375 0.25l-0.21875 1.265625q-0.0625 0.234375 -0.296875 0.234375q-0.125 0 -0.40625 -0.078125q-0.265625 -0.09375 -0.765625 -0.09375q-0.875 0 -1.46875 0.515625q-0.59375 0.5 -1.0 1.484375l0 6.125l-1.6875 0zm11.409088 -9.78125q1.0625 0 1.90625 0.359375q0.84375 0.34375 1.4375 1.0q0.59375 0.640625 0.90625 1.5625q0.328125 0.90625 0.328125 2.046875q0 1.140625 -0.328125 2.046875q-0.3125 0.90625 -0.90625 1.5625q-0.59375 0.640625 -1.4375 1.0q-0.84375 0.34375 -1.90625 0.34375q-1.046875 0 -1.90625 -0.34375q-0.84375 -0.359375 -1.453125 -1.0q-0.59375 -0.65625 -0.921875 -1.5625q-0.3125 -0.90625 -0.3125 -2.046875q0 -1.140625 0.3125 -2.046875q0.328125 -0.921875 0.921875 -1.5625q0.609375 -0.65625 1.453125 -1.0q0.859375 -0.359375 1.90625 -0.359375zm0 8.59375q1.421875 0 2.125 -0.953125q0.703125 -0.953125 0.703125 -2.671875q0 -1.71875 -0.703125 -2.671875q-0.703125 -0.96875 -2.125 -0.96875q-0.71875 0 -1.25 0.25q-0.53125 0.25 -0.890625 0.71875q-0.359375 0.46875 -0.53125 1.15625q-0.171875 0.671875 -0.171875 1.515625q0 0.859375 0.171875 1.53125q0.171875 0.671875 0.53125 1.140625q0.359375 0.453125 0.890625 0.703125q0.53125 0.25 1.25 0.25zm9.716629 -8.59375q0.625 0 1.171875 0.140625q0.546875 0.125 1.0 0.390625l2.609375 0l0 0.640625q0 0.3125 -0.40625 0.390625l-1.09375 0.15625q0.328125 0.609375 0.328125 1.375q0 0.703125 -0.28125 1.28125q-0.265625 0.578125 -0.75 0.984375q-0.46875 0.40625 -1.125 0.625q-0.65625 0.21875 -1.453125 0.21875q-0.671875 0 -1.265625 -0.171875q-0.3125 0.203125 -0.46875 0.421875q-0.15625 0.21875 -0.15625 0.421875q0 0.34375 0.265625 0.515625q0.28125 0.171875 0.734375 0.25q0.46875 0.078125 1.046875 0.09375q0.578125 0.015625 1.171875 0.0625q0.609375 0.046875 1.1875 0.15625q0.578125 0.09375 1.03125 0.34375q0.46875 0.234375 0.734375 0.65625q0.28125 0.40625 0.28125 1.078125q0 0.609375 -0.3125 1.1875q-0.3125 0.59375 -0.890625 1.03125q-0.578125 0.453125 -1.421875 0.71875q-0.828125 0.28125 -1.875 0.28125q-1.0625 0 -1.859375 -0.21875q-0.78125 -0.203125 -1.3125 -0.5625q-0.515625 -0.34375 -0.78125 -0.8125q-0.265625 -0.453125 -0.265625 -0.953125q0 -0.71875 0.453125 -1.203125q0.453125 -0.5 1.25 -0.796875q-0.421875 -0.1875 -0.671875 -0.5q-0.234375 -0.328125 -0.234375 -0.859375q0 -0.21875 0.078125 -0.4375q0.078125 -0.21875 0.234375 -0.4375q0.15625 -0.21875 0.375 -0.421875q0.234375 -0.203125 0.546875 -0.34375q-0.71875 -0.40625 -1.125 -1.0625q-0.390625 -0.65625 -0.390625 -1.546875q0 -0.703125 0.265625 -1.28125q0.265625 -0.578125 0.75 -0.96875q0.484375 -0.40625 1.15625 -0.625q0.671875 -0.21875 1.46875 -0.21875zm3.0 10.296875q0 -0.359375 -0.203125 -0.578125q-0.1875 -0.21875 -0.53125 -0.328125q-0.34375 -0.125 -0.796875 -0.171875q-0.4375 -0.0625 -0.9375 -0.078125q-0.484375 -0.03125 -1.0 -0.0625q-0.515625 -0.03125 -0.984375 -0.109375q-0.546875 0.265625 -0.890625 0.640625q-0.328125 0.359375 -0.328125 0.875q0 0.328125 0.171875 0.609375q0.171875 0.28125 0.5 0.484375q0.34375 0.203125 0.859375 0.3125q0.53125 0.125 1.234375 0.125q0.671875 0 1.21875 -0.125q0.546875 -0.125 0.921875 -0.359375q0.375 -0.21875 0.5625 -0.53125q0.203125 -0.3125 0.203125 -0.703125zm-3.0 -5.21875q0.515625 0 0.90625 -0.140625q0.390625 -0.140625 0.65625 -0.390625q0.265625 -0.265625 0.390625 -0.625q0.140625 -0.359375 0.140625 -0.78125q0 -0.890625 -0.53125 -1.40625q-0.53125 -0.515625 -1.5625 -0.515625q-1.015625 0 -1.5625 0.515625q-0.53125 0.515625 -0.53125 1.40625q0 0.421875 0.140625 0.78125q0.140625 0.359375 0.40625 0.625q0.265625 0.25 0.65625 0.390625q0.390625 0.140625 0.890625 0.140625zm6.2989655 4.703125l0 -9.625l0.96875 0q0.265625 0 0.375 0.109375q0.109375 0.09375 0.140625 0.359375l0.125 1.5q0.484375 -1.0 1.203125 -1.5625q0.734375 -0.578125 1.71875 -0.578125q0.390625 0 0.71875 0.09375q0.328125 0.09375 0.59375 0.25l-0.21875 1.265625q-0.0625 0.234375 -0.296875 0.234375q-0.125 0 -0.40625 -0.078125q-0.265625 -0.09375 -0.765625 -0.09375q-0.875 0 -1.46875 0.515625q-0.59375 0.5 -1.0 1.484375l0 6.125l-1.6875 0zm14.580963 0l-0.75 0q-0.25 0 -0.40625 -0.078125q-0.140625 -0.078125 -0.1875 -0.328125l-0.1875 -0.890625q-0.390625 0.34375 -0.75 0.625q-0.359375 0.265625 -0.765625 0.453125q-0.390625 0.1875 -0.84375 0.28125q-0.453125 0.09375 -1.0 0.09375q-0.5625 0 -1.046875 -0.15625q-0.484375 -0.15625 -0.859375 -0.46875q-0.359375 -0.3125 -0.578125 -0.796875q-0.203125 -0.484375 -0.203125 -1.140625q0 -0.5625 0.3125 -1.09375q0.3125 -0.53125 1.0 -0.9375q0.703125 -0.40625 1.828125 -0.671875q1.140625 -0.265625 2.78125 -0.296875l0 -0.75q0 -1.125 -0.484375 -1.6875q-0.484375 -0.578125 -1.421875 -0.578125q-0.609375 0 -1.046875 0.15625q-0.421875 0.15625 -0.734375 0.359375q-0.296875 0.1875 -0.53125 0.34375q-0.21875 0.15625 -0.4375 0.15625q-0.171875 0 -0.296875 -0.09375q-0.125 -0.09375 -0.203125 -0.21875l-0.296875 -0.546875q0.796875 -0.765625 1.71875 -1.140625q0.921875 -0.390625 2.03125 -0.390625q0.8125 0 1.4375 0.265625q0.625 0.265625 1.046875 0.75q0.4375 0.46875 0.65625 1.140625q0.21875 0.671875 0.21875 1.484375l0 6.15625zm-4.390625 -1.03125q0.453125 0 0.8125 -0.09375q0.375 -0.09375 0.703125 -0.25q0.328125 -0.171875 0.625 -0.40625q0.296875 -0.25 0.59375 -0.546875l0 -2.0q-1.171875 0.03125 -2.0 0.1875q-0.8125 0.140625 -1.328125 0.375q-0.5 0.234375 -0.734375 0.5625q-0.234375 0.328125 -0.234375 0.71875q0 0.390625 0.125 0.671875q0.125 0.265625 0.328125 0.4375q0.203125 0.171875 0.484375 0.265625q0.296875 0.078125 0.625 0.078125zm6.78685 1.03125l0 -9.625l1.0 0q0.359375 0 0.453125 0.359375l0.125 0.984375q0.53125 -0.65625 1.1875 -1.078125q0.671875 -0.421875 1.546875 -0.421875q0.96875 0 1.578125 0.546875q0.609375 0.546875 0.875 1.46875q0.1875 -0.53125 0.515625 -0.90625q0.328125 -0.375 0.734375 -0.625q0.421875 -0.25 0.875 -0.359375q0.46875 -0.125 0.9375 -0.125q0.765625 0 1.359375 0.25q0.59375 0.234375 1.0 0.703125q0.421875 0.46875 0.640625 1.15625q0.21875 0.671875 0.21875 1.546875l0 6.125l-1.703125 0l0 -6.125q0 -1.140625 -0.5 -1.71875q-0.484375 -0.578125 -1.421875 -0.578125q-0.421875 0 -0.796875 0.15625q-0.375 0.140625 -0.65625 0.421875q-0.28125 0.28125 -0.453125 0.71875q-0.171875 0.421875 -0.171875 1.0l0 6.125l-1.6875 0l0 -6.125q0 -1.15625 -0.46875 -1.71875q-0.453125 -0.578125 -1.359375 -0.578125q-0.625 0 -1.15625 0.34375q-0.53125 0.328125 -0.984375 0.90625l0 7.171875l-1.6875 0zm15.316772 0l0 -9.625l1.0 0q0.359375 0 0.453125 0.359375l0.125 0.984375q0.53125 -0.65625 1.1875 -1.078125q0.671875 -0.421875 1.546875 -0.421875q0.96875 0 1.578125 0.546875q0.609375 0.546875 0.875 1.46875q0.1875 -0.53125 0.515625 -0.90625q0.328125 -0.375 0.734375 -0.625q0.421875 -0.25 0.875 -0.359375q0.46875 -0.125 0.9375 -0.125q0.765625 0 1.359375 0.25q0.59375 0.234375 1.0 0.703125q0.421875 0.46875 0.640625 1.15625q0.21875 0.671875 0.21875 1.546875l0 6.125l-1.703125 0l0 -6.125q0 -1.140625 -0.5 -1.71875q-0.484375 -0.578125 -1.421875 -0.578125q-0.421875 0 -0.796875 0.15625q-0.375 0.140625 -0.65625 0.421875q-0.28125 0.28125 -0.453125 0.71875q-0.171875 0.421875 -0.171875 1.0l0 6.125l-1.6875 0l0 -6.125q0 -1.15625 -0.46875 -1.71875q-0.453125 -0.578125 -1.359375 -0.578125q-0.625 0 -1.15625 0.34375q-0.53125 0.328125 -0.984375 0.90625l0 7.171875l-1.6875 0zm17.191803 -9.625l0 9.625l-1.6875 0l0 -9.625l1.6875 0zm0.375 -3.015625q0 0.25 -0.09375 0.46875q-0.09375 0.203125 -0.265625 0.375q-0.171875 0.15625 -0.390625 0.25q-0.21875 0.09375 -0.453125 0.09375q-0.25 0 -0.46875 -0.09375q-0.21875 -0.09375 -0.390625 -0.25q-0.15625 -0.171875 -0.25 -0.375q-0.09375 -0.21875 -0.09375 -0.46875q0 -0.25 0.09375 -0.46875q0.09375 -0.234375 0.25 -0.390625q0.171875 -0.171875 0.390625 -0.265625q0.21875 -0.09375 0.46875 -0.09375q0.234375 0 0.453125 0.09375q0.21875 0.09375 0.390625 0.265625q0.171875 0.15625 0.265625 0.390625q0.09375 0.21875 0.09375 0.46875zm2.526001 12.640625l0 -9.625l1.0 0q0.359375 0 0.453125 0.359375l0.140625 1.03125q0.625 -0.6875 1.390625 -1.109375q0.78125 -0.4375 1.796875 -0.4375q0.796875 0 1.390625 0.265625q0.609375 0.265625 1.015625 0.75q0.40625 0.46875 0.609375 1.15625q0.203125 0.671875 0.203125 1.484375l0 6.125l-1.6875 0l0 -6.125q0 -1.09375 -0.5 -1.6875q-0.5 -0.609375 -1.515625 -0.609375q-0.75 0 -1.40625 0.359375q-0.65625 0.359375 -1.203125 0.96875l0 7.09375l-1.6875 0zm13.607239 -9.78125q0.625 0 1.171875 0.140625q0.546875 0.125 1.0 0.390625l2.609375 0l0 0.640625q0 0.3125 -0.40625 0.390625l-1.09375 0.15625q0.328125 0.609375 0.328125 1.375q0 0.703125 -0.28125 1.28125q-0.265625 0.578125 -0.75 0.984375q-0.46875 0.40625 -1.125 0.625q-0.65625 0.21875 -1.453125 0.21875q-0.671875 0 -1.265625 -0.171875q-0.3125 0.203125 -0.46875 0.421875q-0.15625 0.21875 -0.15625 0.421875q0 0.34375 0.265625 0.515625q0.28125 0.171875 0.734375 0.25q0.46875 0.078125 1.046875 0.09375q0.578125 0.015625 1.171875 0.0625q0.609375 0.046875 1.1875 0.15625q0.578125 0.09375 1.03125 0.34375q0.46875 0.234375 0.734375 0.65625q0.28125 0.40625 0.28125 1.078125q0 0.609375 -0.3125 1.1875q-0.3125 0.59375 -0.890625 1.03125q-0.578125 0.453125 -1.421875 0.71875q-0.828125 0.28125 -1.875 0.28125q-1.0625 0 -1.859375 -0.21875q-0.78125 -0.203125 -1.3125 -0.5625q-0.515625 -0.34375 -0.78125 -0.8125q-0.265625 -0.453125 -0.265625 -0.953125q0 -0.71875 0.453125 -1.203125q0.453125 -0.5 1.25 -0.796875q-0.421875 -0.1875 -0.671875 -0.5q-0.234375 -0.328125 -0.234375 -0.859375q0 -0.21875 0.078125 -0.4375q0.078125 -0.21875 0.234375 -0.4375q0.15625 -0.21875 0.375 -0.421875q0.234375 -0.203125 0.546875 -0.34375q-0.71875 -0.40625 -1.125 -1.0625q-0.390625 -0.65625 -0.390625 -1.546875q0 -0.703125 0.265625 -1.28125q0.265625 -0.578125 0.75 -0.96875q0.484375 -0.40625 1.15625 -0.625q0.671875 -0.21875 1.46875 -0.21875zm3.0 10.296875q0 -0.359375 -0.203125 -0.578125q-0.1875 -0.21875 -0.53125 -0.328125q-0.34375 -0.125 -0.796875 -0.171875q-0.4375 -0.0625 -0.9375 -0.078125q-0.484375 -0.03125 -1.0 -0.0625q-0.515625 -0.03125 -0.984375 -0.109375q-0.546875 0.265625 -0.890625 0.640625q-0.328125 0.359375 -0.328125 0.875q0 0.328125 0.171875 0.609375q0.171875 0.28125 0.5 0.484375q0.34375 0.203125 0.859375 0.3125q0.53125 0.125 1.234375 0.125q0.671875 0 1.21875 -0.125q0.546875 -0.125 0.921875 -0.359375q0.375 -0.21875 0.5625 -0.53125q0.203125 -0.3125 0.203125 -0.703125zm-3.0 -5.21875q0.515625 0 0.90625 -0.140625q0.390625 -0.140625 0.65625 -0.390625q0.265625 -0.265625 0.390625 -0.625q0.140625 -0.359375 0.140625 -0.78125q0 -0.890625 -0.53125 -1.40625q-0.53125 -0.515625 -1.5625 -0.515625q-1.015625 0 -1.5625 0.515625q-0.53125 0.515625 -0.53125 1.40625q0 0.421875 0.140625 0.78125q0.140625 0.359375 0.40625 0.625q0.265625 0.25 0.65625 0.390625q0.390625 0.140625 0.890625 0.140625z" fill-rule="nonzero"></path><path fill="#000000" d="m221.96178 214.12689l0 1.5l-6.546875 0l0 4.515625l5.296875 0l0 1.453125l-5.296875 0l0 4.640625l6.546875 0l0 1.5l-8.390625 0l0 -13.609375l8.390625 0zm4.433029 8.671875l-3.234375 -4.6875l1.625 0q0.203125 0 0.296875 0.078125q0.09375 0.0625 0.171875 0.1875l2.359375 3.609375q0.078125 -0.265625 0.234375 -0.53125l2.078125 -3.046875q0.09375 -0.140625 0.1875 -0.21875q0.09375 -0.078125 0.234375 -0.078125l1.5625 0l-3.234375 4.59375l3.375 5.03125l-1.625 0q-0.21875 0 -0.34375 -0.109375q-0.109375 -0.109375 -0.1875 -0.234375l-2.421875 -3.78125q-0.0625 0.28125 -0.203125 0.5l-2.234375 3.28125q-0.09375 0.125 -0.203125 0.234375q-0.109375 0.109375 -0.296875 0.109375l-1.515625 0l3.375 -4.9375zm10.965256 -4.84375q0.859375 0 1.59375 0.296875q0.734375 0.28125 1.265625 0.828125q0.53125 0.546875 0.828125 1.359375q0.296875 0.796875 0.296875 1.828125q0 0.390625 -0.09375 0.53125q-0.078125 0.125 -0.3125 0.125l-6.40625 0q0.015625 0.921875 0.234375 1.59375q0.234375 0.671875 0.625 1.125q0.40625 0.453125 0.953125 0.671875q0.5625 0.21875 1.25 0.21875q0.640625 0 1.09375 -0.140625q0.453125 -0.140625 0.78125 -0.3125q0.34375 -0.171875 0.5625 -0.3125q0.234375 -0.15625 0.390625 -0.15625q0.203125 0 0.328125 0.15625l0.46875 0.625q-0.3125 0.375 -0.75 0.65625q-0.4375 0.28125 -0.9375 0.46875q-0.5 0.171875 -1.03125 0.265625q-0.53125 0.09375 -1.046875 0.09375q-1.0 0 -1.84375 -0.34375q-0.84375 -0.34375 -1.453125 -0.984375q-0.609375 -0.65625 -0.953125 -1.609375q-0.34375 -0.96875 -0.34375 -2.203125q0 -1.015625 0.3125 -1.890625q0.3125 -0.875 0.890625 -1.515625q0.578125 -0.640625 1.40625 -1.0q0.84375 -0.375 1.890625 -0.375zm0.03125 1.25q-1.21875 0 -1.921875 0.71875q-0.703125 0.703125 -0.875 1.953125l5.234375 0q0 -0.59375 -0.171875 -1.078125q-0.15625 -0.484375 -0.46875 -0.84375q-0.3125 -0.359375 -0.765625 -0.546875q-0.453125 -0.203125 -1.03125 -0.203125zm5.932129 8.53125l0 -9.625l0.96875 0q0.265625 0 0.375 0.109375q0.109375 0.09375 0.140625 0.359375l0.125 1.5q0.484375 -1.0 1.203125 -1.5625q0.734375 -0.578125 1.71875 -0.578125q0.390625 0 0.71875 0.09375q0.328125 0.09375 0.59375 0.25l-0.21875 1.265625q-0.0625 0.234375 -0.296875 0.234375q-0.125 0 -0.40625 -0.078125q-0.265625 -0.09375 -0.765625 -0.09375q-0.875 0 -1.46875 0.515625q-0.59375 0.5 -1.0 1.484375l0 6.125l-1.6875 0zm14.080948 -7.90625q-0.078125 0.09375 -0.15625 0.15625q-0.078125 0.0625 -0.21875 0.0625q-0.140625 0 -0.3125 -0.125q-0.15625 -0.125 -0.421875 -0.265625q-0.25 -0.140625 -0.62498474 -0.25q-0.359375 -0.125 -0.890625 -0.125q-0.703125 0 -1.25 0.25q-0.53125 0.25 -0.90625 0.734375q-0.359375 0.46875 -0.546875 1.140625q-0.1875 0.671875 -0.1875 1.515625q0 0.875 0.203125 1.5625q0.203125 0.671875 0.5625 1.140625q0.359375 0.453125 0.875 0.703125q0.515625 0.234375 1.171875 0.234375q0.609375 0 1.0 -0.140625q0.40623474 -0.15625 0.67185974 -0.328125q0.265625 -0.1875 0.4375 -0.328125q0.171875 -0.15625 0.34375 -0.15625q0.21875 0 0.328125 0.15625l0.46875 0.625q-0.625 0.765625 -1.5625 1.125q-0.93748474 0.359375 -1.9843597 0.359375q-0.90625 0 -1.6875 -0.328125q-0.765625 -0.34375 -1.34375 -0.96875q-0.5625 -0.640625 -0.890625 -1.5625q-0.328125 -0.921875 -0.328125 -2.09375q0 -1.078125 0.296875 -1.984375q0.296875 -0.921875 0.875 -1.578125q0.578125 -0.65625 1.421875 -1.03125q0.84375 -0.375 1.9375 -0.375q1.0 0 1.7812347 0.328125q0.78125 0.328125 1.375 0.9375l-0.4375 0.609375zm4.0249634 -1.71875l0 9.625l-1.6875 0l0 -9.625l1.6875 0zm0.375 -3.015625q0 0.25 -0.09375 0.46875q-0.09375 0.203125 -0.265625 0.375q-0.171875 0.15625 -0.390625 0.25q-0.21875 0.09375 -0.453125 0.09375q-0.25 0 -0.46875 -0.09375q-0.21875 -0.09375 -0.390625 -0.25q-0.15625 -0.171875 -0.25 -0.375q-0.09375 -0.21875 -0.09375 -0.46875q0 -0.25 0.09375 -0.46875q0.09375 -0.234375 0.25 -0.390625q0.171875 -0.171875 0.390625 -0.265625q0.21875 -0.09375 0.46875 -0.09375q0.234375 0 0.453125 0.09375q0.21875 0.09375 0.390625 0.265625q0.171875 0.15625 0.265625 0.390625q0.09375 0.21875 0.09375 0.46875zm8.026001 4.609375q-0.109375 0.203125 -0.34375 0.203125q-0.140625 0 -0.328125 -0.09375q-0.171875 -0.109375 -0.4375 -0.234375q-0.265625 -0.140625 -0.625 -0.25q-0.359375 -0.109375 -0.859375 -0.109375q-0.421875 0 -0.765625 0.109375q-0.34375 0.109375 -0.59375 0.3125q-0.234375 0.1875 -0.359375 0.4375q-0.125 0.25 -0.125 0.546875q0 0.359375 0.203125 0.609375q0.21875 0.25 0.5625 0.4375q0.359375 0.171875 0.796875 0.3125q0.453125 0.140625 0.921875 0.296875q0.484375 0.15625 0.921875 0.34375q0.453125 0.1875 0.796875 0.484375q0.359375 0.28125 0.5625 0.6875q0.21875 0.40625 0.21875 1.0q0 0.65625 -0.234375 1.21875q-0.234375 0.5625 -0.703125 0.984375q-0.46875 0.40625 -1.140625 0.65625q-0.671875 0.234375 -1.5625 0.234375q-1.0 0 -1.828125 -0.328125q-0.8125 -0.328125 -1.375 -0.84375l0.390625 -0.640625q0.078125 -0.125 0.171875 -0.1875q0.109375 -0.078125 0.28125 -0.078125q0.171875 0 0.359375 0.140625q0.203125 0.125 0.46875 0.296875q0.265625 0.15625 0.65625 0.296875q0.390625 0.125 0.96875 0.125q0.484375 0 0.859375 -0.125q0.375 -0.140625 0.609375 -0.34375q0.25 -0.21875 0.375 -0.5q0.125 -0.296875 0.125 -0.625q0 -0.390625 -0.21875 -0.65625q-0.21875 -0.265625 -0.578125 -0.4375q-0.34375 -0.1875 -0.796875 -0.328125q-0.453125 -0.140625 -0.921875 -0.28125q-0.46875 -0.15625 -0.921875 -0.34375q-0.453125 -0.203125 -0.8125 -0.5q-0.34375 -0.296875 -0.5625 -0.71875q-0.203125 -0.4375 -0.203125 -1.0625q0 -0.546875 0.21875 -1.046875q0.234375 -0.515625 0.671875 -0.890625q0.4375 -0.390625 1.078125 -0.625q0.640625 -0.234375 1.453125 -0.234375q0.953125 0 1.703125 0.3125q0.75 0.296875 1.3125 0.8125l-0.390625 0.625zm6.4093323 -1.75q0.859375 0 1.59375 0.296875q0.734375 0.28125 1.265625 0.828125q0.53125 0.546875 0.828125 1.359375q0.296875 0.796875 0.296875 1.828125q0 0.390625 -0.09375 0.53125q-0.078125 0.125 -0.3125 0.125l-6.40625 0q0.015625 0.921875 0.234375 1.59375q0.234375 0.671875 0.625 1.125q0.40625 0.453125 0.953125 0.671875q0.5625 0.21875 1.25 0.21875q0.640625 0 1.09375 -0.140625q0.453125 -0.140625 0.78125 -0.3125q0.34375 -0.171875 0.5625 -0.3125q0.234375 -0.15625 0.390625 -0.15625q0.203125 0 0.328125 0.15625l0.46875 0.625q-0.3125 0.375 -0.75 0.65625q-0.4375 0.28125 -0.9375 0.46875q-0.5 0.171875 -1.03125 0.265625q-0.53125 0.09375 -1.046875 0.09375q-1.0 0 -1.84375 -0.34375q-0.84375 -0.34375 -1.453125 -0.984375q-0.609375 -0.65625 -0.953125 -1.609375q-0.34375 -0.96875 -0.34375 -2.203125q0 -1.015625 0.3125 -1.890625q0.3125 -0.875 0.890625 -1.515625q0.578125 -0.640625 1.40625 -1.0q0.84375 -0.375 1.890625 -0.375zm0.03125 1.25q-1.21875 0 -1.921875 0.71875q-0.703125 0.703125 -0.875 1.953125l5.234375 0q0 -0.59375 -0.171875 -1.078125q-0.15625 -0.484375 -0.46875 -0.84375q-0.3125 -0.359375 -0.765625 -0.546875q-0.453125 -0.203125 -1.03125 -0.203125zm11.432129 0.5q-0.109375 0.203125 -0.34375 0.203125q-0.140625 0 -0.328125 -0.09375q-0.171875 -0.109375 -0.4375 -0.234375q-0.265625 -0.140625 -0.625 -0.25q-0.359375 -0.109375 -0.859375 -0.109375q-0.421875 0 -0.765625 0.109375q-0.34375 0.109375 -0.59375 0.3125q-0.234375 0.1875 -0.359375 0.4375q-0.125 0.25 -0.125 0.546875q0 0.359375 0.203125 0.609375q0.21875 0.25 0.5625 0.4375q0.359375 0.171875 0.796875 0.3125q0.453125 0.140625 0.921875 0.296875q0.484375 0.15625 0.921875 0.34375q0.453125 0.1875 0.796875 0.484375q0.359375 0.28125 0.5625 0.6875q0.21875 0.40625 0.21875 1.0q0 0.65625 -0.234375 1.21875q-0.234375 0.5625 -0.703125 0.984375q-0.46875 0.40625 -1.140625 0.65625q-0.671875 0.234375 -1.5625 0.234375q-1.0 0 -1.828125 -0.328125q-0.8125 -0.328125 -1.375 -0.84375l0.390625 -0.640625q0.078125 -0.125 0.171875 -0.1875q0.109375 -0.078125 0.28125 -0.078125q0.171875 0 0.359375 0.140625q0.203125 0.125 0.46875 0.296875q0.265625 0.15625 0.65625 0.296875q0.390625 0.125 0.96875 0.125q0.484375 0 0.859375 -0.125q0.375 -0.140625 0.609375 -0.34375q0.25 -0.21875 0.375 -0.5q0.125 -0.296875 0.125 -0.625q0 -0.390625 -0.21875 -0.65625q-0.21875 -0.265625 -0.578125 -0.4375q-0.34375 -0.1875 -0.796875 -0.328125q-0.453125 -0.140625 -0.921875 -0.28125q-0.46875 -0.15625 -0.921875 -0.34375q-0.453125 -0.203125 -0.8125 -0.5q-0.34375 -0.296875 -0.5625 -0.71875q-0.203125 -0.4375 -0.203125 -1.0625q0 -0.546875 0.21875 -1.046875q0.234375 -0.515625 0.671875 -0.890625q0.4375 -0.390625 1.078125 -0.625q0.640625 -0.234375 1.453125 -0.234375q0.953125 0 1.703125 0.3125q0.75 0.296875 1.3125 0.8125l-0.390625 0.625z" fill-rule="nonzero"></path><path fill="#fcfcfc" d="m181.53018 103.34301l0 0c0 -3.762619 3.0502014 -6.812828 6.8128204 -6.812828l124.13814 0c1.8068848 0 3.539734 0.71778107 4.817383 1.99543c1.2776489 1.2776566 1.9954529 3.010521 1.9954529 4.817398l0 35.88616c0 3.762619 -3.050232 6.8128204 -6.8128357 6.8128204l-124.13814 0c-3.762619 0 -6.8128204 -3.0502014 -6.8128204 -6.8128204z" fill-rule="evenodd"></path><path stroke="#343131" stroke-width="2.0" stroke-linejoin="round" stroke-linecap="butt" d="m181.53018 103.34301l0 0c0 -3.762619 3.0502014 -6.812828 6.8128204 -6.812828l124.13814 0c1.8068848 0 3.539734 0.71778107 4.817383 1.99543c1.2776489 1.2776566 1.9954529 3.010521 1.9954529 4.817398l0 35.88616c0 3.762619 -3.050232 6.8128204 -6.8128357 6.8128204l-124.13814 0c-3.762619 0 -6.8128204 -3.0502014 -6.8128204 -6.8128204z" fill-rule="evenodd"></path><path fill="#000000" d="m219.12602 103.59671l0 1.5l-6.546875 0l0 4.75l5.59375 0l0 1.5l-5.59375 0l0 5.859375l-1.84375 0l0 -13.609375l8.390625 0zm5.793808 3.828125q1.0625 0 1.90625 0.359375q0.84375 0.34375 1.4375 1.0q0.59375 0.640625 0.90625 1.5625q0.328125 0.90625 0.328125 2.046875q0 1.140625 -0.328125 2.046875q-0.3125 0.90625 -0.90625 1.5625q-0.59375 0.640625 -1.4375 1.0q-0.84375 0.34375 -1.90625 0.34375q-1.046875 0 -1.90625 -0.34375q-0.84375 -0.359375 -1.453125 -1.0q-0.59375 -0.65625 -0.921875 -1.5625q-0.3125 -0.90625 -0.3125 -2.046875q0 -1.140625 0.3125 -2.046875q0.328125 -0.921875 0.921875 -1.5625q0.609375 -0.65625 1.453125 -1.0q0.859375 -0.359375 1.90625 -0.359375zm0 8.59375q1.421875 0 2.125 -0.953125q0.703125 -0.953125 0.703125 -2.671875q0 -1.71875 -0.703125 -2.671875q-0.703125 -0.96875 -2.125 -0.96875q-0.71875 0 -1.25 0.25q-0.53125 0.25 -0.890625 0.71875q-0.359375 0.46875 -0.53125 1.15625q-0.171875 0.671875 -0.171875 1.515625q0 0.859375 0.171875 1.53125q0.171875 0.671875 0.53125 1.140625q0.359375 0.453125 0.890625 0.703125q0.53125 0.25 1.25 0.25zm8.357254 -12.8125l0 14.0l-1.6875 0l0 -14.0l1.6875 0zm4.776001 0l0 14.0l-1.6875 0l0 -14.0l1.6875 0zm6.791626 4.21875q1.0625 0 1.90625 0.359375q0.84375 0.34375 1.4375 1.0q0.59375 0.640625 0.90625 1.5625q0.328125 0.90625 0.328125 2.046875q0 1.140625 -0.328125 2.046875q-0.3125 0.90625 -0.90625 1.5625q-0.59375 0.640625 -1.4375 1.0q-0.84375 0.34375 -1.90625 0.34375q-1.046875 0 -1.90625 -0.34375q-0.84375 -0.359375 -1.453125 -1.0q-0.59375 -0.65625 -0.921875 -1.5625q-0.3125 -0.90625 -0.3125 -2.046875q0 -1.140625 0.3125 -2.046875q0.328125 -0.921875 0.921875 -1.5625q0.609375 -0.65625 1.453125 -1.0q0.859375 -0.359375 1.90625 -0.359375zm0 8.59375q1.421875 0 2.125 -0.953125q0.703125 -0.953125 0.703125 -2.671875q0 -1.71875 -0.703125 -2.671875q-0.703125 -0.96875 -2.125 -0.96875q-0.71875 0 -1.25 0.25q-0.53125 0.25 -0.890625 0.71875q-0.359375 0.46875 -0.53125 1.15625q-0.171875 0.671875 -0.171875 1.515625q0 0.859375 0.171875 1.53125q0.171875 0.671875 0.53125 1.140625q0.359375 0.453125 0.890625 0.703125q0.53125 0.25 1.25 0.25zm5.232254 -8.4375l1.328125 0q0.203125 0 0.328125 0.109375q0.140625 0.09375 0.1875 0.25l1.84375 6.1875q0.078125 0.34375 0.140625 0.671875q0.0625 0.3125 0.109375 0.625q0.078125 -0.3125 0.171875 -0.625q0.09375 -0.328125 0.203125 -0.671875l2.03125 -6.234375q0.046875 -0.140625 0.171875 -0.234375q0.125 -0.09375 0.296875 -0.09375l0.734375 0q0.1875 0 0.3125 0.09375q0.125 0.09375 0.171875 0.234375l1.984375 6.234375q0.109375 0.328125 0.1875 0.65625q0.078125 0.328125 0.15625 0.640625q0.046875 -0.3125 0.125 -0.65625q0.078125 -0.34375 0.15625 -0.640625l1.875 -6.1875q0.0625 -0.15625 0.1875 -0.25q0.140625 -0.109375 0.3125 -0.109375l1.28125 0l-3.125 9.625l-1.34375 0q-0.234375 0 -0.328125 -0.328125l-2.140625 -6.515625q-0.078125 -0.21875 -0.125 -0.4375q-0.046875 -0.234375 -0.09375 -0.453125q-0.046875 0.21875 -0.09375 0.453125q-0.046875 0.21875 -0.125 0.4375l-2.15625 6.515625q-0.09375 0.328125 -0.390625 0.328125l-1.265625 0l-3.109375 -9.625zm24.688232 8.15625q0.859375 0 1.515625 -0.28125q0.671875 -0.28125 1.125 -0.796875q0.46875 -0.515625 0.703125 -1.21875q0.25 -0.71875 0.25 -1.578125l0 -8.265625l1.828125 0l0 8.265625q0 1.1875 -0.375 2.203125q-0.375 1.0 -1.078125 1.734375q-0.6875 0.734375 -1.703125 1.15625q-1.0 0.40625 -2.265625 0.40625q-1.25 0 -2.265625 -0.40625q-1.0 -0.421875 -1.703125 -1.15625q-0.703125 -0.734375 -1.078125 -1.734375q-0.375 -1.015625 -0.375 -2.203125l0 -8.265625l1.84375 0l0 8.265625q0 0.84375 0.234375 1.5625q0.25 0.71875 0.703125 1.234375q0.46875 0.5 1.125 0.796875q0.671875 0.28125 1.515625 0.28125zm8.072174 4.734375l0 -12.890625l1.0 0q0.359375 0 0.453125 0.359375l0.15625 1.140625q0.609375 -0.75 1.40625 -1.203125q0.796875 -0.46875 1.828125 -0.46875q0.828125 0 1.5 0.328125q0.671875 0.3125 1.140625 0.9375q0.484375 0.625 0.734375 1.546875q0.265625 0.90625 0.265625 2.109375q0 1.0625 -0.296875 1.984375q-0.28125 0.921875 -0.8125 1.59375q-0.53125 0.65625 -1.3125 1.046875q-0.765625 0.390625 -1.734375 0.390625q-0.890625 0 -1.53125 -0.296875q-0.625 -0.296875 -1.109375 -0.84375l0 4.265625l-1.6875 0zm4.28125 -11.6875q-0.828125 0 -1.453125 0.375q-0.625 0.375 -1.140625 1.078125l0 4.65625q0.46875 0.625 1.015625 0.890625q0.5625 0.25 1.25 0.25q1.328125 0 2.046875 -0.953125q0.734375 -0.96875 0.734375 -2.75q0 -0.9375 -0.171875 -1.609375q-0.15625 -0.671875 -0.484375 -1.109375q-0.3125 -0.4375 -0.765625 -0.625q-0.453125 -0.203125 -1.03125 -0.203125z" fill-rule="nonzero"></path><path fill="#000000" d="m224.73695 139.20609l-1.4375 0q-0.234375 0 -0.390625 -0.125q-0.15625 -0.125 -0.234375 -0.3125l-1.265625 -3.28125l-6.109375 0l-1.28125 3.28125q-0.0625 0.171875 -0.234375 0.3125q-0.15625 0.125 -0.390625 0.125l-1.421875 0l5.4375 -13.609375l1.875 0l5.453125 13.609375zm-8.921875 -5.046875l5.078125 0l-2.140625 -5.546875q-0.203125 -0.515625 -0.40625 -1.28125q-0.109375 0.390625 -0.203125 0.71875q-0.09375 0.328125 -0.1875 0.578125l-2.140625 5.53125zm16.701874 -2.859375q-0.078125 0.09375 -0.15625 0.15625q-0.078125 0.0625 -0.21875 0.0625q-0.140625 0 -0.3125 -0.125q-0.15625 -0.125 -0.421875 -0.265625q-0.25 -0.140625 -0.625 -0.25q-0.359375 -0.125 -0.890625 -0.125q-0.703125 0 -1.25 0.25q-0.53125 0.25 -0.90625 0.734375q-0.359375 0.46875 -0.546875 1.140625q-0.1875 0.671875 -0.1875 1.515625q0 0.875 0.203125 1.5625q0.203125 0.671875 0.5625 1.140625q0.359375 0.453125 0.875 0.703125q0.515625 0.234375 1.171875 0.234375q0.609375 0 1.0 -0.140625q0.40625 -0.15625 0.671875 -0.328125q0.265625 -0.1875 0.4375 -0.328125q0.171875 -0.15625 0.34375 -0.15625q0.21875 0 0.328125 0.15625l0.46875 0.625q-0.625 0.765625 -1.5625 1.125q-0.9375 0.359375 -1.984375 0.359375q-0.90625 0 -1.6875 -0.328125q-0.765625 -0.34375 -1.34375 -0.96875q-0.5625 -0.640625 -0.890625 -1.5625q-0.328125 -0.921875 -0.328125 -2.09375q0 -1.078125 0.296875 -1.984375q0.296875 -0.921875 0.875 -1.578125q0.578125 -0.65625 1.421875 -1.03125q0.84375 -0.375 1.9375 -0.375q1.0 0 1.78125 0.328125q0.78125 0.328125 1.375 0.9375l-0.4375 0.609375zm5.0562134 8.0625q-1.140625 0 -1.75 -0.640625q-0.609375 -0.640625 -0.609375 -1.828125l0 -5.890625l-1.15625 0q-0.15625 0 -0.265625 -0.09375q-0.09375 -0.09375 -0.09375 -0.28125l0 -0.671875l1.578125 -0.203125l0.390625 -2.96875q0.015625 -0.140625 0.109375 -0.234375q0.109375 -0.09375 0.28125 -0.09375l0.84375 0l0 3.3125l2.765625 0l0 1.234375l-2.765625 0l0 5.765625q0 0.609375 0.296875 0.90625q0.296875 0.296875 0.765625 0.296875q0.265625 0 0.453125 -0.0625q0.203125 -0.078125 0.34375 -0.15625q0.140625 -0.09375 0.234375 -0.15625q0.109375 -0.078125 0.1875 -0.078125q0.125 0 0.234375 0.15625l0.484375 0.8125q-0.4375 0.40625 -1.0625 0.640625q-0.609375 0.234375 -1.265625 0.234375zm5.927536 -9.78125l0 9.625l-1.6875 0l0 -9.625l1.6875 0zm0.375 -3.015625q0 0.25 -0.09375 0.46875q-0.09375 0.203125 -0.265625 0.375q-0.171875 0.15625 -0.390625 0.25q-0.21875 0.09375 -0.453125 0.09375q-0.25 0 -0.46875 -0.09375q-0.21875 -0.09375 -0.390625 -0.25q-0.15625 -0.171875 -0.25 -0.375q-0.09375 -0.21875 -0.09375 -0.46875q0 -0.25 0.09375 -0.46875q0.09375 -0.234375 0.25 -0.390625q0.171875 -0.171875 0.390625 -0.265625q0.21875 -0.09375 0.46875 -0.09375q0.234375 0 0.453125 0.09375q0.21875 0.09375 0.390625 0.265625q0.171875 0.15625 0.265625 0.390625q0.09375 0.21875 0.09375 0.46875zm1.307251 3.015625l1.390625 0q0.1875 0 0.328125 0.109375q0.140625 0.09375 0.1875 0.25l2.4375 6.1875q0.140625 0.34375 0.21875 0.6875q0.078125 0.34375 0.140625 0.671875q0.078125 -0.328125 0.15625 -0.671875q0.09375 -0.34375 0.21875 -0.6875l2.46875 -6.1875q0.0625 -0.15625 0.1875 -0.25q0.125 -0.109375 0.328125 -0.109375l1.3125 0l-3.921875 9.625l-1.53125 0l-3.921875 -9.625zm12.645752 0l0 9.625l-1.6875 0l0 -9.625l1.6875 0zm0.375 -3.015625q0 0.25 -0.09375 0.46875q-0.09375 0.203125 -0.265625 0.375q-0.171875 0.15625 -0.390625 0.25q-0.21875 0.09375 -0.453125 0.09375q-0.25 0 -0.46875 -0.09375q-0.21875 -0.09375 -0.390625 -0.25q-0.15625 -0.171875 -0.25 -0.375q-0.09375 -0.21875 -0.09375 -0.46875q0 -0.25 0.09375 -0.46875q0.09375 -0.234375 0.25 -0.390625q0.171875 -0.171875 0.390625 -0.265625q0.21875 -0.09375 0.46875 -0.09375q0.234375 0 0.453125 0.09375q0.21875 0.09375 0.390625 0.265625q0.171875 0.15625 0.265625 0.390625q0.09375 0.21875 0.09375 0.46875zm5.432251 12.796875q-1.140625 0 -1.75 -0.640625q-0.609375 -0.640625 -0.609375 -1.828125l0 -5.890625l-1.15625 0q-0.15625 0 -0.265625 -0.09375q-0.09375 -0.09375 -0.09375 -0.28125l0 -0.671875l1.578125 -0.203125l0.390625 -2.96875q0.015625 -0.140625 0.109375 -0.234375q0.109375 -0.09375 0.28125 -0.09375l0.84375 0l0 3.3125l2.765625 0l0 1.234375l-2.765625 0l0 5.765625q0 0.609375 0.296875 0.90625q0.296875 0.296875 0.765625 0.296875q0.265625 0 0.453125 -0.0625q0.203125 -0.078125 0.34375 -0.15625q0.140625 -0.09375 0.234375 -0.15625q0.109375 -0.078125 0.1875 -0.078125q0.125 0 0.234375 0.15625l0.484375 0.8125q-0.4375 0.40625 -1.0625 0.640625q-0.609375 0.234375 -1.265625 0.234375zm5.9275513 -9.78125l0 9.625l-1.6875 0l0 -9.625l1.6875 0zm0.375 -3.015625q0 0.25 -0.09375 0.46875q-0.09375 0.203125 -0.265625 0.375q-0.171875 0.15625 -0.390625 0.25q-0.21875 0.09375 -0.453125 0.09375q-0.25 0 -0.46875 -0.09375q-0.21875 -0.09375 -0.390625 -0.25q-0.15625 -0.171875 -0.25 -0.375q-0.09375 -0.21875 -0.09375 -0.46875q0 -0.25 0.09375 -0.46875q0.09375 -0.234375 0.25 -0.390625q0.171875 -0.171875 0.390625 -0.265625q0.21875 -0.09375 0.46875 -0.09375q0.234375 0 0.453125 0.09375q0.21875 0.09375 0.390625 0.265625q0.171875 0.15625 0.265625 0.390625q0.09375 0.21875 0.09375 0.46875zm6.338501 2.859375q0.859375 0 1.59375 0.296875q0.734375 0.28125 1.265625 0.828125q0.53125 0.546875 0.828125 1.359375q0.296875 0.796875 0.296875 1.828125q0 0.390625 -0.09375 0.53125q-0.078125 0.125 -0.3125 0.125l-6.40625 0q0.015625 0.921875 0.234375 1.59375q0.234375 0.671875 0.625 1.125q0.40625 0.453125 0.953125 0.671875q0.5625 0.21875 1.25 0.21875q0.640625 0 1.09375 -0.140625q0.453125 -0.140625 0.78125 -0.3125q0.34375 -0.171875 0.5625 -0.3125q0.234375 -0.15625 0.390625 -0.15625q0.203125 0 0.328125 0.15625l0.46875 0.625q-0.3125 0.375 -0.75 0.65625q-0.4375 0.28125 -0.9375 0.46875q-0.5 0.171875 -1.03125 0.265625q-0.53125 0.09375 -1.046875 0.09375q-1.0 0 -1.84375 -0.34375q-0.84375 -0.34375 -1.453125 -0.984375q-0.609375 -0.65625 -0.953125 -1.609375q-0.34375 -0.96875 -0.34375 -2.203125q0 -1.015625 0.3125 -1.890625q0.3125 -0.875 0.890625 -1.515625q0.578125 -0.640625 1.40625 -1.0q0.84375 -0.375 1.890625 -0.375zm0.03125 1.25q-1.21875 0 -1.921875 0.71875q-0.703125 0.703125 -0.875 1.953125l5.234375 0q0 -0.59375 -0.171875 -1.078125q-0.15625 -0.484375 -0.46875 -0.84375q-0.3125 -0.359375 -0.765625 -0.546875q-0.453125 -0.203125 -1.03125 -0.203125zm11.432129 0.5q-0.109375 0.203125 -0.34375 0.203125q-0.140625 0 -0.328125 -0.09375q-0.171875 -0.109375 -0.4375 -0.234375q-0.265625 -0.140625 -0.625 -0.25q-0.359375 -0.109375 -0.859375 -0.109375q-0.421875 0 -0.765625 0.109375q-0.34375 0.109375 -0.59375 0.3125q-0.234375 0.1875 -0.359375 0.4375q-0.125 0.25 -0.125 0.546875q0 0.359375 0.203125 0.609375q0.21875 0.25 0.5625 0.4375q0.359375 0.171875 0.796875 0.3125q0.453125 0.140625 0.921875 0.296875q0.484375 0.15625 0.921875 0.34375q0.453125 0.1875 0.796875 0.484375q0.359375 0.28125 0.5625 0.6875q0.21875 0.40625 0.21875 1.0q0 0.65625 -0.234375 1.21875q-0.234375 0.5625 -0.703125 0.984375q-0.46875 0.40625 -1.140625 0.65625q-0.671875 0.234375 -1.5625 0.234375q-1.0 0 -1.828125 -0.328125q-0.8125 -0.328125 -1.375 -0.84375l0.390625 -0.640625q0.078125 -0.125 0.171875 -0.1875q0.109375 -0.078125 0.28125 -0.078125q0.171875 0 0.359375 0.140625q0.203125 0.125 0.46875 0.296875q0.265625 0.15625 0.65625 0.296875q0.390625 0.125 0.96875 0.125q0.484375 0 0.859375 -0.125q0.375 -0.140625 0.609375 -0.34375q0.25 -0.21875 0.375 -0.5q0.125 -0.296875 0.125 -0.625q0 -0.390625 -0.21875 -0.65625q-0.21875 -0.265625 -0.578125 -0.4375q-0.34375 -0.1875 -0.796875 -0.328125q-0.453125 -0.140625 -0.921875 -0.28125q-0.46875 -0.15625 -0.921875 -0.34375q-0.453125 -0.203125 -0.8125 -0.5q-0.34375 -0.296875 -0.5625 -0.71875q-0.203125 -0.4375 -0.203125 -1.0625q0 -0.546875 0.21875 -1.046875q0.234375 -0.515625 0.671875 -0.890625q0.4375 -0.390625 1.078125 -0.625q0.640625 -0.234375 1.453125 -0.234375q0.953125 0 1.703125 0.3125q0.75 0.296875 1.3125 0.8125l-0.390625 0.625z" fill-rule="nonzero"></path><path fill="#fcfcfc" d="m181.53018 14.812825l0 0c0 -3.762619 3.0502014 -6.812825 6.8128204 -6.812825l124.13814 0c1.8068848 0 3.539734 0.7177782 4.817383 1.99543c1.2776489 1.2776527 1.9954529 3.010522 1.9954529 4.817395l0 35.88616c0 3.762619 -3.050232 6.8128242 -6.8128357 6.8128242l-124.13814 0c-3.762619 0 -6.8128204 -3.0502052 -6.8128204 -6.8128242z" fill-rule="evenodd"></path><path stroke="#343131" stroke-width="2.0" stroke-linejoin="round" stroke-linecap="butt" d="m181.53018 14.812825l0 0c0 -3.762619 3.0502014 -6.812825 6.8128204 -6.812825l124.13814 0c1.8068848 0 3.539734 0.7177782 4.817383 1.99543c1.2776489 1.2776527 1.9954529 3.010522 1.9954529 4.817395l0 35.88616c0 3.762619 -3.050232 6.8128242 -6.8128357 6.8128242l-124.13814 0c-3.762619 0 -6.8128204 -3.0502052 -6.8128204 -6.8128242z" fill-rule="evenodd"></path><path fill="#000000" d="m219.68259 38.207153q0.859375 0 1.515625 -0.28125q0.671875 -0.28125 1.125 -0.796875q0.46875 -0.515625 0.703125 -1.21875q0.25 -0.71875 0.25 -1.578125l0 -8.265623l1.828125 0l0 8.265623q0 1.1875 -0.375 2.203125q-0.375 1.0 -1.078125 1.734375q-0.6875 0.734375 -1.703125 1.15625q-1.0 0.40625 -2.265625 0.40625q-1.25 0 -2.265625 -0.40625q-1.0 -0.421875 -1.703125 -1.15625q-0.703125 -0.734375 -1.078125 -1.734375q-0.375 -1.015625 -0.375 -2.203125l0 -8.265623l1.84375 0l0 8.265623q0 0.84375 0.234375 1.5625q0.25 0.71875 0.703125 1.234375q0.46875 0.5 1.125 0.796875q0.671875 0.28125 1.515625 0.28125zm8.072189 1.46875l0 -9.624998l1.0 0q0.359375 0 0.453125 0.359375l0.140625 1.03125q0.625 -0.6875 1.390625 -1.109375q0.78125 -0.4375 1.796875 -0.4375q0.796875 0 1.390625 0.265625q0.609375 0.265625 1.015625 0.75q0.40625 0.46875 0.609375 1.1562481q0.203125 0.671875 0.203125 1.484375l0 6.125l-1.6875 0l0 -6.125q0 -1.09375 -0.5 -1.6874981q-0.5 -0.609375 -1.515625 -0.609375q-0.75 0 -1.40625 0.359375q-0.65625 0.359375 -1.203125 0.9687481l0 7.09375l-1.6875 0zm12.247879 -9.624998l0 9.624998l-1.6875 0l0 -9.624998l1.6875 0zm0.375 -3.015625q0 0.25 -0.09375 0.46875q-0.09375 0.203125 -0.265625 0.375q-0.171875 0.15625 -0.390625 0.25q-0.21875 0.09375 -0.453125 0.09375q-0.25 0 -0.46875 -0.09375q-0.21875 -0.09375 -0.390625 -0.25q-0.15625 -0.171875 -0.25 -0.375q-0.09375 -0.21875 -0.09375 -0.46875q0 -0.25 0.09375 -0.46875q0.09375 -0.234375 0.25 -0.390625q0.171875 -0.171875 0.390625 -0.265625q0.21875 -0.09375 0.46875 -0.09375q0.234375 0 0.453125 0.09375q0.21875 0.09375 0.390625 0.265625q0.171875 0.15625 0.265625 0.390625q0.09375 0.21875 0.09375 0.46875zm5.432251 12.796873q-1.140625 0 -1.75 -0.640625q-0.609375 -0.640625 -0.609375 -1.828125l0 -5.890623l-1.15625 0q-0.15625 0 -0.265625 -0.09375q-0.09375 -0.09375 -0.09375 -0.28125l0 -0.671875l1.578125 -0.203125l0.390625 -2.96875q0.015625 -0.140625 0.109375 -0.234375q0.109375 -0.09375 0.28125 -0.09375l0.84375 0l0 3.3125l2.765625 0l0 1.234375l-2.765625 0l0 5.765623q0 0.609375 0.296875 0.90625q0.296875 0.296875 0.765625 0.296875q0.265625 0 0.453125 -0.0625q0.203125 -0.078125 0.34375 -0.15625q0.140625 -0.09375 0.234375 -0.15625q0.109375 -0.078125 0.1875 -0.078125q0.125 0 0.234375 0.15625l0.484375 0.8125q-0.4375 0.40625 -1.0625 0.640625q-0.609375 0.234375 -1.265625 0.234375zm9.934448 -5.25l0 5.09375l-1.828125 0l0 -13.609373l4.015625 0q1.296875 0 2.25 0.296875q0.953125 0.296875 1.578125 0.859375q0.625 0.546875 0.9375 1.328125q0.3125 0.765625 0.3125 1.734375q0 0.9375 -0.34375 1.7343731q-0.328125 0.78125 -0.96875 1.359375q-0.640625 0.5625 -1.59375 0.890625q-0.9375 0.3125 -2.171875 0.3125l-2.1875 0zm0 -1.46875l2.1875 0q0.796875 0 1.390625 -0.203125q0.609375 -0.203125 1.015625 -0.578125q0.40625 -0.3749981 0.609375 -0.8906231q0.21875 -0.53125 0.21875 -1.15625q0 -1.3125 -0.8125 -2.03125q-0.796875 -0.734375 -2.421875 -0.734375l-2.1875 0l0 5.593748zm10.992737 -7.437498l0 13.999998l-1.6875 0l0 -13.999998l1.6875 0zm9.963501 13.999998l-0.75 0q-0.25 0 -0.40625 -0.078125q-0.140625 -0.078125 -0.1875 -0.328125l-0.1875 -0.890625q-0.390625 0.34375 -0.75 0.625q-0.359375 0.265625 -0.765625 0.453125q-0.390625 0.1875 -0.84375 0.28125q-0.453125 0.09375 -1.0 0.09375q-0.5625 0 -1.046875 -0.15625q-0.484375 -0.15625 -0.859375 -0.46875q-0.359375 -0.3125 -0.578125 -0.796875q-0.203125 -0.484375 -0.203125 -1.140625q0 -0.5625 0.3125 -1.09375q0.3125 -0.53125 1.0 -0.9375q0.703125 -0.40625 1.828125 -0.671875q1.140625 -0.265625 2.78125 -0.296875l0 -0.75q0 -1.125 -0.484375 -1.6874981q-0.484375 -0.578125 -1.421875 -0.578125q-0.609375 0 -1.046875 0.15625q-0.421875 0.15625 -0.734375 0.359375q-0.296875 0.1875 -0.53125 0.3437481q-0.21875 0.15625 -0.4375 0.15625q-0.171875 0 -0.296875 -0.09375q-0.125 -0.09375 -0.203125 -0.2187481l-0.296875 -0.546875q0.796875 -0.765625 1.71875 -1.140625q0.921875 -0.390625 2.03125 -0.390625q0.8125 0 1.4375 0.265625q0.625 0.265625 1.046875 0.75q0.4375 0.46875 0.65625 1.1406231q0.21875 0.671875 0.21875 1.484375l0 6.15625zm-4.390625 -1.03125q0.453125 0 0.8125 -0.09375q0.375 -0.09375 0.703125 -0.25q0.328125 -0.171875 0.625 -0.40625q0.296875 -0.25 0.59375 -0.546875l0 -2.0q-1.171875 0.03125 -2.0 0.1875q-0.8125 0.140625 -1.328125 0.375q-0.5 0.234375 -0.734375 0.5625q-0.234375 0.328125 -0.234375 0.71875q0 0.390625 0.125 0.671875q0.125 0.265625 0.328125 0.4375q0.203125 0.171875 0.484375 0.265625q0.296875 0.078125 0.625 0.078125zm6.7868347 1.03125l0 -9.624998l1.0 0q0.359375 0 0.453125 0.359375l0.140625 1.03125q0.625 -0.6875 1.390625 -1.109375q0.78125 -0.4375 1.796875 -0.4375q0.796875 0 1.390625 0.265625q0.609375 0.265625 1.015625 0.75q0.40625 0.46875 0.609375 1.1562481q0.203125 0.671875 0.203125 1.484375l0 6.125l-1.6875 0l0 -6.125q0 -1.09375 -0.5 -1.6874981q-0.5 -0.609375 -1.515625 -0.609375q-0.75 0 -1.40625 0.359375q-0.65625 0.359375 -1.203125 0.9687481l0 7.09375l-1.6875 0z" fill-rule="nonzero"></path><path fill="#fcfcfc" d="m355.4908 14.812825l0 0c0 -3.762619 3.0502014 -6.812825 6.8128357 -6.812825l124.13812 0c1.8068542 0 3.539734 0.7177782 4.817383 1.99543c1.2776489 1.2776527 1.9954529 3.010522 1.9954529 4.817395l0 35.88616c0 3.762619 -3.050232 6.8128242 -6.8128357 6.8128242l-124.13812 0c-3.7626343 0 -6.8128357 -3.0502052 -6.8128357 -6.8128242z" fill-rule="evenodd"></path><path stroke="#343131" stroke-width="2.0" stroke-linejoin="round" stroke-linecap="butt" d="m355.4908 14.812825l0 0c0 -3.762619 3.0502014 -6.812825 6.8128357 -6.812825l124.13812 0c1.8068542 0 3.539734 0.7177782 4.817383 1.99543c1.2776489 1.2776527 1.9954529 3.010522 1.9954529 4.817395l0 35.88616c0 3.762619 -3.050232 6.8128242 -6.8128357 6.8128242l-124.13812 0c-3.7626343 0 -6.8128357 -3.0502052 -6.8128357 -6.8128242z" fill-rule="evenodd"></path><path fill="#000000" d="m395.672 38.12903l5.890625 0l0 1.546875l-7.734375 0l0 -13.609373l1.84375 0l0 12.062498zm11.29245 -8.234373q0.859375 0 1.59375 0.296875q0.734375 0.28125 1.265625 0.828125q0.53125 0.546875 0.828125 1.3593731q0.296875 0.796875 0.296875 1.828125q0 0.390625 -0.09375 0.53125q-0.078125 0.125 -0.3125 0.125l-6.40625 0q0.015625 0.921875 0.234375 1.59375q0.234375 0.671875 0.625 1.125q0.40625 0.453125 0.953125 0.671875q0.5625 0.21875 1.25 0.21875q0.640625 0 1.09375 -0.140625q0.453125 -0.140625 0.78125 -0.3125q0.34375 -0.171875 0.5625 -0.3125q0.234375 -0.15625 0.390625 -0.15625q0.203125 0 0.328125 0.15625l0.46875 0.625q-0.3125 0.375 -0.75 0.65625q-0.4375 0.28125 -0.9375 0.46875q-0.5 0.171875 -1.03125 0.265625q-0.53125 0.09375 -1.046875 0.09375q-1.0 0 -1.84375 -0.34375q-0.84375 -0.34375 -1.453125 -0.984375q-0.609375 -0.65625 -0.953125 -1.609375q-0.34375 -0.96875 -0.34375 -2.203125q0 -1.015625 0.3125 -1.890625q0.3125 -0.8749981 0.890625 -1.5156231q0.578125 -0.640625 1.40625 -1.0q0.84375 -0.375 1.890625 -0.375zm0.03125 1.25q-1.21875 0 -1.921875 0.71875q-0.703125 0.7031231 -0.875 1.9531231l5.234375 0q0 -0.59375 -0.171875 -1.078125q-0.15625 -0.484375 -0.46875 -0.8437481q-0.3125 -0.359375 -0.765625 -0.546875q-0.453125 -0.203125 -1.03125 -0.203125zm11.432129 0.5q-0.109375 0.203125 -0.34375 0.203125q-0.140625 0 -0.328125 -0.09375q-0.171875 -0.109375 -0.4375 -0.234375q-0.265625 -0.140625 -0.625 -0.25q-0.359375 -0.109375 -0.859375 -0.109375q-0.421875 0 -0.765625 0.109375q-0.34375 0.109375 -0.59375 0.3125q-0.234375 0.1875 -0.359375 0.4374981q-0.125 0.25 -0.125 0.546875q0 0.359375 0.203125 0.609375q0.21875 0.25 0.5625 0.4375q0.359375 0.171875 0.796875 0.3125q0.453125 0.140625 0.921875 0.296875q0.484375 0.15625 0.921875 0.34375q0.453125 0.1875 0.796875 0.484375q0.359375 0.28125 0.5625 0.6875q0.21875 0.40625 0.21875 1.0q0 0.65625 -0.234375 1.21875q-0.234375 0.5625 -0.703125 0.984375q-0.46875 0.40625 -1.140625 0.65625q-0.671875 0.234375 -1.5625 0.234375q-1.0 0 -1.828125 -0.328125q-0.8125 -0.328125 -1.375 -0.84375l0.390625 -0.640625q0.078125 -0.125 0.171875 -0.1875q0.109375 -0.078125 0.28125 -0.078125q0.171875 0 0.359375 0.140625q0.203125 0.125 0.46875 0.296875q0.265625 0.15625 0.65625 0.296875q0.390625 0.125 0.96875 0.125q0.484375 0 0.859375 -0.125q0.375 -0.140625 0.609375 -0.34375q0.25 -0.21875 0.375 -0.5q0.125 -0.296875 0.125 -0.625q0 -0.390625 -0.21875 -0.65625q-0.21875 -0.265625 -0.578125 -0.4375q-0.34375 -0.1875 -0.796875 -0.328125q-0.453125 -0.140625 -0.921875 -0.28125q-0.46875 -0.15625 -0.921875 -0.34375q-0.453125 -0.203125 -0.8125 -0.5q-0.34375 -0.296875 -0.5625 -0.71875q-0.203125 -0.4375 -0.203125 -1.0625q0 -0.546875 0.21875 -1.0468731q0.234375 -0.515625 0.671875 -0.890625q0.4375 -0.390625 1.078125 -0.625q0.640625 -0.234375 1.453125 -0.234375q0.953125 0 1.703125 0.3125q0.75 0.296875 1.3125 0.8125l-0.390625 0.625zm8.096802 0q-0.109375 0.203125 -0.34375 0.203125q-0.140625 0 -0.328125 -0.09375q-0.171875 -0.109375 -0.4375 -0.234375q-0.265625 -0.140625 -0.625 -0.25q-0.359375 -0.109375 -0.859375 -0.109375q-0.421875 0 -0.765625 0.109375q-0.34375 0.109375 -0.59375 0.3125q-0.234375 0.1875 -0.359375 0.4374981q-0.125 0.25 -0.125 0.546875q0 0.359375 0.203125 0.609375q0.21875 0.25 0.5625 0.4375q0.359375 0.171875 0.796875 0.3125q0.453125 0.140625 0.921875 0.296875q0.484375 0.15625 0.921875 0.34375q0.453125 0.1875 0.796875 0.484375q0.359375 0.28125 0.5625 0.6875q0.21875 0.40625 0.21875 1.0q0 0.65625 -0.234375 1.21875q-0.234375 0.5625 -0.703125 0.984375q-0.46875 0.40625 -1.140625 0.65625q-0.671875 0.234375 -1.5625 0.234375q-1.0 0 -1.828125 -0.328125q-0.8125 -0.328125 -1.375 -0.84375l0.390625 -0.640625q0.078125 -0.125 0.171875 -0.1875q0.109375 -0.078125 0.28125 -0.078125q0.171875 0 0.359375 0.140625q0.203125 0.125 0.46875 0.296875q0.265625 0.15625 0.65625 0.296875q0.390625 0.125 0.96875 0.125q0.484375 0 0.859375 -0.125q0.375 -0.140625 0.609375 -0.34375q0.25 -0.21875 0.375 -0.5q0.125 -0.296875 0.125 -0.625q0 -0.390625 -0.21875 -0.65625q-0.21875 -0.265625 -0.578125 -0.4375q-0.34375 -0.1875 -0.796875 -0.328125q-0.453125 -0.140625 -0.921875 -0.28125q-0.46875 -0.15625 -0.921875 -0.34375q-0.453125 -0.203125 -0.8125 -0.5q-0.34375 -0.296875 -0.5625 -0.71875q-0.203125 -0.4375 -0.203125 -1.0625q0 -0.546875 0.21875 -1.0468731q0.234375 -0.515625 0.671875 -0.890625q0.4375 -0.390625 1.078125 -0.625q0.640625 -0.234375 1.453125 -0.234375q0.953125 0 1.703125 0.3125q0.75 0.296875 1.3125 0.8125l-0.390625 0.625zm6.4874573 -1.75q1.0625 0 1.90625 0.359375q0.84375 0.34375 1.4375 1.0q0.59375 0.640625 0.90625 1.5624981q0.328125 0.90625 0.328125 2.046875q0 1.140625 -0.328125 2.046875q-0.3125 0.90625 -0.90625 1.5625q-0.59375 0.640625 -1.4375 1.0q-0.84375 0.34375 -1.90625 0.34375q-1.046875 0 -1.90625 -0.34375q-0.84375 -0.359375 -1.453125 -1.0q-0.59375 -0.65625 -0.921875 -1.5625q-0.3125 -0.90625 -0.3125 -2.046875q0 -1.140625 0.3125 -2.046875q0.328125 -0.9218731 0.921875 -1.5624981q0.609375 -0.65625 1.453125 -1.0q0.859375 -0.359375 1.90625 -0.359375zm0 8.593748q1.421875 0 2.125 -0.953125q0.703125 -0.953125 0.703125 -2.671875q0 -1.71875 -0.703125 -2.671875q-0.703125 -0.9687481 -2.125 -0.9687481q-0.71875 0 -1.25 0.25q-0.53125 0.25 -0.890625 0.7187481q-0.359375 0.46875 -0.53125 1.15625q-0.171875 0.671875 -0.171875 1.515625q0 0.859375 0.171875 1.53125q0.171875 0.671875 0.53125 1.140625q0.359375 0.453125 0.890625 0.703125q0.53125 0.25 1.25 0.25zm6.482239 1.1875l0 -9.624998l1.0 0q0.359375 0 0.453125 0.359375l0.140625 1.03125q0.625 -0.6875 1.390625 -1.109375q0.78125 -0.4375 1.796875 -0.4375q0.796875 0 1.390625 0.265625q0.609375 0.265625 1.015625 0.75q0.40625 0.46875 0.609375 1.1562481q0.203125 0.671875 0.203125 1.484375l0 6.125l-1.6875 0l0 -6.125q0 -1.09375 -0.5 -1.6874981q-0.5 -0.609375 -1.515625 -0.609375q-0.75 0 -1.40625 0.359375q-0.65625 0.359375 -1.203125 0.9687481l0 7.09375l-1.6875 0zm15.872894 -8.031248q-0.109375 0.203125 -0.34375 0.203125q-0.140625 0 -0.328125 -0.09375q-0.171875 -0.109375 -0.4375 -0.234375q-0.265625 -0.140625 -0.625 -0.25q-0.359375 -0.109375 -0.859375 -0.109375q-0.421875 0 -0.765625 0.109375q-0.34375 0.109375 -0.59375 0.3125q-0.234375 0.1875 -0.359375 0.4374981q-0.125 0.25 -0.125 0.546875q0 0.359375 0.203125 0.609375q0.21875 0.25 0.5625 0.4375q0.359375 0.171875 0.796875 0.3125q0.453125 0.140625 0.921875 0.296875q0.484375 0.15625 0.921875 0.34375q0.453125 0.1875 0.796875 0.484375q0.359375 0.28125 0.5625 0.6875q0.21875 0.40625 0.21875 1.0q0 0.65625 -0.234375 1.21875q-0.234375 0.5625 -0.703125 0.984375q-0.46875 0.40625 -1.140625 0.65625q-0.671875 0.234375 -1.5625 0.234375q-1.0 0 -1.828125 -0.328125q-0.8125 -0.328125 -1.375 -0.84375l0.390625 -0.640625q0.078125 -0.125 0.171875 -0.1875q0.109375 -0.078125 0.28125 -0.078125q0.171875 0 0.359375 0.140625q0.203125 0.125 0.46875 0.296875q0.265625 0.15625 0.65625 0.296875q0.390625 0.125 0.96875 0.125q0.484375 0 0.859375 -0.125q0.375 -0.140625 0.609375 -0.34375q0.25 -0.21875 0.375 -0.5q0.125 -0.296875 0.125 -0.625q0 -0.390625 -0.21875 -0.65625q-0.21875 -0.265625 -0.578125 -0.4375q-0.34375 -0.1875 -0.796875 -0.328125q-0.453125 -0.140625 -0.921875 -0.28125q-0.46875 -0.15625 -0.921875 -0.34375q-0.453125 -0.203125 -0.8125 -0.5q-0.34375 -0.296875 -0.5625 -0.71875q-0.203125 -0.4375 -0.203125 -1.0625q0 -0.546875 0.21875 -1.0468731q0.234375 -0.515625 0.671875 -0.890625q0.4375 -0.390625 1.078125 -0.625q0.640625 -0.234375 1.453125 -0.234375q0.953125 0 1.703125 0.3125q0.75 0.296875 1.3125 0.8125l-0.390625 0.625z" fill-rule="nonzero"></path></g></svg>

